<?xml version="1.0" encoding="utf-8" standalone="no"?>
<!DOCTYPE svg PUBLIC "-//W3C//DTD SVG 1.1//EN"
  "http://www.w3.org/Graphics/SVG/1.1/DTD/svg11.dtd">
<!-- Created with matplotlib (http://matplotlib.org/) -->
<svg height="406pt" version="1.1" viewBox="0 0 460 406" width="460pt" xmlns="http://www.w3.org/2000/svg" xmlns:xlink="http://www.w3.org/1999/xlink">
 <defs>
  <style type="text/css">
*{stroke-linecap:butt;stroke-linejoin:round;}
  </style>
 </defs>
 <g id="figure_1">
  <g id="patch_1">
   <path d="
M0 406.059
L460.8 406.059
L460.8 0
L0 0
z
" style="fill:#ffffff;"/>
  </g>
  <g id="axes_1">
   <g id="patch_2">
    <path d="
M7.2 352.8
L453.6 352.8
L453.6 7.2
L7.2 7.2
z
" style="fill:#ffffff;"/>
   </g>
   <g id="line2d_1">
    <path clip-path="url(#p5bee155178)" d="
M201.414 352.8
L201.414 351.85
L201.414 351.85
L201.414 351.85
L201.414 350.899
L201.414 350.899
L201.414 350.899
L201.414 349.949
L201.414 349.949
L201.414 349.949
L201.414 348.998
L201.414 348.998
L201.414 348.998
L201.414 348.048
L201.414 348.048
L201.414 348.048
L201.414 347.097
L201.414 347.097
L201.414 347.097
L201.414 346.147
L201.414 346.147
L201.414 346.147
L201.414 345.196
L201.414 345.196
L201.414 345.196
L201.414 344.246
L201.414 344.246
L201.414 344.246
L201.414 343.295
L201.414 343.295
L201.414 343.295
L201.414 342.345
L201.414 342.345
L201.414 342.345
L201.414 341.394
L201.414 341.394
L201.414 341.394
L201.414 340.444
L201.414 340.444
L201.414 340.444
L201.414 339.493
L201.414 339.493
L201.414 339.493
L201.414 338.543
L214.023 338.543
L214.023 337.592
L214.525 337.592
L214.525 336.642
L227.527 336.642
L227.527 335.691
L230.709 335.691
L230.709 334.741
L231.981 334.741
L231.981 333.79
L233.535 333.79
L233.535 332.84
L233.875 332.84
L233.875 331.889
L234.801 331.889
L234.801 330.939
L235.051 330.939
L235.051 329.988
L236.141 329.988
L236.141 329.038
L236.359 329.038
L236.359 328.087
L236.926 328.087
L236.926 327.137
L237.243 327.137
L237.243 326.186
L238.488 326.186
L238.488 325.236
L238.937 325.236
L238.977 323.335
L239.98 323.335
L240.066 321.434
L240.142 321.434
L240.157 319.533
L240.276 319.533
L240.276 318.582
L240.495 318.582
L240.495 317.632
L241.168 317.632
L241.168 316.681
L241.682 316.681
L241.682 315.731
L242.69 315.731
L242.69 314.78
L243.09 314.78
L243.198 312.879
L243.411 312.879
L243.411 311.929
L243.644 311.929
L243.644 310.978
L244.237 310.978
L244.313 309.077
L244.363 309.077
L244.363 308.127
L245.483 308.127
L245.483 307.176
L246.313 307.176
L246.357 305.275
L246.569 305.275
L246.569 304.325
L246.756 304.325
L246.756 303.374
L247.046 303.374
L247.046 302.424
L247.8 302.424
L247.8 301.473
L248.067 301.473
L248.067 300.523
L248.33 300.523
L248.33 299.572
L248.668 299.572
L248.668 298.622
L249.043 298.622
L249.043 297.671
L249.155 297.671
L249.155 296.721
L249.426 296.721
L249.426 295.77
L250.797 295.77
L250.797 294.82
L251.365 294.82
L251.365 293.869
L251.491 293.869
L251.491 292.919
L251.666 292.919
L251.666 291.968
L252.631 291.968
L252.631 291.018
L253.105 291.018
L253.105 290.067
L253.285 290.067
L253.285 289.117
L253.407 289.117
L253.407 288.166
L253.596 288.166
L253.596 287.216
L254.375 287.216
L254.416 272.008
L254.673 272.008
L254.676 270.107
L255.374 270.107
L255.41 268.206
L255.917 268.206
L256.002 266.305
L256.379 266.305
L256.379 265.354
L256.528 265.354
L256.634 263.453
L256.925 263.453
L256.986 261.552
L257.084 261.552
L257.084 260.602
L257.499 260.602
L257.571 258.701
L257.617 258.701
L257.617 257.75
L258.205 257.75
L258.205 256.8
L258.411 256.8
L258.411 255.85
L258.757 255.85
L258.757 254.899
L259.077 254.899
L259.077 253.949
L259.251 253.949
L259.251 252.998
L259.523 252.998
L259.625 250.147
L259.903 250.147
L259.903 249.196
L260.458 249.196
L260.458 248.246
L260.759 248.246
L260.868 246.345
L261.013 246.345
L261.1 241.592
L261.349 241.592
L261.349 240.642
L262.178 240.642
L262.178 239.691
L262.483 239.691
L262.543 237.79
L262.736 237.79
L262.736 236.84
L263.082 236.84
L263.082 235.889
L263.456 235.889
L263.536 233.988
L263.656 233.988
L263.665 232.087
L263.862 232.087
L263.937 230.186
L264.172 230.186
L264.172 229.236
L264.315 229.236
L264.376 226.384
L264.689 226.384
L264.689 225.434
L264.973 225.434
L265.065 222.582
L265.405 222.582
L265.507 218.78
L265.551 218.78
L265.576 216.879
L265.712 216.879
L265.772 214.028
L265.918 214.028
L265.988 212.127
L266.03 212.127
L266.03 211.176
L266.152 211.176
L266.196 209.275
L266.264 209.275
L266.264 208.325
L266.759 208.325
L266.79 206.424
L267.132 206.424
L267.153 204.523
L267.533 204.523
L267.533 203.572
L268.109 203.572
L268.114 201.671
L268.312 201.671
L268.316 199.77
L268.465 199.77
L268.465 198.82
L268.734 198.82
L268.767 196.919
L269.067 196.919
L269.162 194.067
L269.192 194.067
L269.301 192.166
L269.31 192.166
L269.312 190.265
L269.802 190.265
L269.88 187.414
L270.36 187.414
L270.387 185.513
L270.484 185.513
L270.494 183.612
L270.6 183.612
L270.648 176.008
L271.25 176.008
L271.25 175.057
L271.648 175.057
L271.648 174.107
L271.875 174.107
L271.875 173.156
L272.204 173.156
L272.255 171.255
L272.448 171.255
L272.476 169.354
L272.781 169.354
L272.781 168.404
L273.031 168.404
L273.031 167.453
L273.382 167.453
L273.382 166.503
L273.753 166.503
L273.857 163.651
L274.451 163.651
L274.507 161.75
L274.751 161.75
L274.751 160.8
L274.889 160.8
L274.889 159.85
L275.154 159.85
L275.154 158.899
L275.858 158.899
L275.874 156.998
L276.865 156.998
L276.867 155.097
L277.119 155.097
L277.119 154.147
L277.423 154.147
L277.423 153.196
L277.67 153.196
L277.67 152.246
L278.61 152.246
L278.61 151.295
L279.203 151.295
L279.232 148.444
L279.608 148.444
L279.608 147.493
L279.997 147.493
L280.082 145.592
L280.205 145.592
L280.205 144.642
L280.397 144.642
L280.397 143.691
L280.557 143.691
L280.655 139.889
L281.072 139.889
L281.072 138.939
L281.275 138.939
L281.275 137.988
L282.042 137.988
L282.042 137.038
L282.294 137.038
L282.294 136.087
L282.529 136.087
L282.529 135.137
L282.687 135.137
L282.687 134.186
L284.604 134.186
L284.604 133.236
L285.315 133.236
L285.315 132.285
L285.661 132.285
L285.661 131.335
L285.822 131.335
L285.822 130.384
L286.385 130.384
L286.439 128.483
L286.849 128.483
L286.849 127.533
L287.022 127.533
L287.022 126.582
L289.177 126.582
L289.177 125.632
L289.878 125.632
L289.878 124.681
L290.14 124.681
L290.14 123.731
L290.991 123.731
L290.991 122.78
L291.159 122.78
L291.159 121.83
L292.464 121.83
L292.464 120.879
L293.085 120.879
L293.085 119.929
L293.24 119.929
L293.306 118.028
L293.4 118.028
L293.467 116.127
L293.814 116.127
L293.814 115.176
L294.801 115.176
L294.801 114.226
L295.214 114.226
L295.214 113.275
L295.454 113.275
L295.454 112.325
L296.448 112.325
L296.543 110.424
L298.054 110.424
L298.132 108.523
L298.473 108.523
L298.473 107.572
L298.759 107.572
L298.759 106.622
L299.235 106.622
L299.235 105.671
L300.971 105.671
L300.971 104.721
L307.42 104.721
L307.42 103.77
L310.925 103.77
L310.925 102.82
L311.337 102.82
L311.337 101.869
L312.49 101.869
L312.49 100.919
L313.177 100.919
L313.177 99.9683
L313.702 99.9683
L313.702 99.0178
L314.773 99.0178
L314.8 97.1168
L317.134 97.1168
L317.134 96.1663
L317.52 96.1663
L317.52 85.7109
L323.837 85.7109
L323.837 84.7604
L324.593 84.7604
L324.593 83.8099
L325.945 83.8099
L325.945 82.8594
L326.099 82.8594
L326.099 81.9089
L326.488 81.9089
L326.5 80.0079
L327.646 80.0079
L327.646 79.0574
L329.139 79.0574
L329.139 78.1069
L329.897 78.1069
L329.897 77.1564
L330.535 77.1564
L330.535 76.2059
L332.26 76.2059
L332.26 75.2554
L333.489 75.2554
L333.489 74.305
L334.487 74.305
L334.487 73.3545
L339.301 73.3545
L339.301 72.404
L340.77 72.404
L340.77 71.4535
L341.732 71.4535
L341.732 70.503
L342.852 70.503
L342.852 69.5525
L343.219 69.5525
L343.219 68.602
L344.403 68.602
L344.403 67.6515
L348.22 67.6515
L348.263 65.7505
L348.98 65.7505
L348.98 64.8
L349.417 64.8
L349.417 63.8495
L349.869 63.8495
L349.879 61.9485
L354.003 61.9485
L354.003 60.998
L357.341 60.998
L357.341 60.0475
L357.647 60.0475
L357.647 59.097
L358.066 59.097
L358.088 57.196
L359.896 57.196
L359.896 56.2455
L360.665 56.2455
L360.665 55.295
L361.519 55.295
L361.519 54.3446
L362.721 54.3446
L362.721 53.3941
L371.785 53.3941
L371.785 52.4436
L372.253 52.4436
L372.253 51.4931
L372.762 51.4931
L372.762 50.5426
L378.043 50.5426
L378.043 49.5921
L378.497 49.5921
L378.497 48.6416
L380.349 48.6416
L380.349 47.6911
L382.593 47.6911
L382.593 46.7406
L383.953 46.7406
L383.953 45.7901
L384.561 45.7901
L384.561 44.8396
L385.103 44.8396
L385.103 43.8891
L386.917 43.8891
L386.917 42.9386
L387.492 42.9386
L387.492 41.9881
L388.239 41.9881
L388.239 41.0376
L389.649 41.0376
L389.649 40.0871
L390.315 40.0871
L390.315 39.1366
L392.267 39.1366
L392.267 38.1861
L394.136 38.1861
L394.136 37.2356
L394.967 37.2356
L394.967 36.2851
L395.082 36.2851
L395.082 35.3347
L395.312 35.3347
L395.312 34.3842
L396.287 34.3842
L396.287 33.4337
L396.568 33.4337
L396.568 32.4832
L397.737 32.4832
L397.737 31.5327
L398.14 31.5327
L398.14 30.5822
L398.73 30.5822
L398.73 29.6317
L402.628 29.6317
L402.628 28.6812
L403.816 28.6812
L403.816 27.7307
L404.038 27.7307
L404.038 26.7802
L406.019 26.7802
L406.019 25.8297
L407.139 25.8297
L407.139 24.8792
L407.293 24.8792
L407.293 23.9287
L407.838 23.9287
L407.838 22.9782
L410.289 22.9782
L410.289 22.0277
L411.322 22.0277
L411.322 21.0772
L411.947 21.0772
L411.984 19.1762
L414.445 19.1762
L414.445 18.2257
L414.604 18.2257
L414.604 17.2752
L415.78 17.2752
L415.888 15.3743
L418.903 15.3743
L418.903 14.4238
L420.333 14.4238
L420.333 13.4733
L425.574 13.4733
L425.574 12.5228
L432.131 12.5228
L432.131 11.5723
L441.332 11.5723
L441.332 10.6218
L441.332 10.6218
L453.6 10.6218
L453.6 10.6218" style="fill:none;stroke:#ff0000;stroke-linecap:square;stroke-width:3.0;"/>
   </g>
   <g id="line2d_2">
    <path clip-path="url(#p5bee155178)" d="
M201.414 352.8
L201.414 351.85
L201.414 351.85
L201.414 351.85
L201.414 350.899
L201.414 350.899
L201.414 350.899
L201.414 349.949
L201.414 349.949
L201.414 349.949
L201.414 348.998
L201.414 348.998
L201.414 348.998
L201.414 348.048
L201.414 348.048
L201.414 348.048
L201.414 347.097
L201.414 347.097
L201.414 347.097
L201.414 346.147
L201.414 346.147
L201.414 346.147
L201.414 345.196
L201.414 345.196
L201.414 345.196
L201.414 344.246
L201.414 344.246
L201.414 344.246
L201.414 343.295
L201.414 343.295
L201.414 343.295
L201.414 342.345
L201.414 342.345
L201.414 342.345
L201.414 341.394
L201.414 341.394
L201.414 341.394
L201.414 340.444
L201.414 340.444
L201.414 340.444
L201.414 339.493
L201.414 339.493
L201.414 339.493
L201.414 338.543
L214.023 338.543
L214.023 337.592
L215.396 337.592
L215.396 336.642
L231.981 336.642
L231.981 335.691
L236.777 335.691
L236.777 334.741
L236.926 334.741
L236.926 333.79
L237.243 333.79
L237.243 332.84
L238.937 332.84
L238.977 329.988
L239.272 329.988
L239.272 329.038
L240.05 329.038
L240.157 327.137
L240.276 327.137
L240.276 326.186
L241.682 326.186
L241.682 325.236
L242.069 325.236
L242.069 324.285
L242.196 324.285
L242.196 323.335
L243.09 323.335
L243.198 321.434
L243.374 321.434
L243.374 320.483
L244.185 320.483
L244.237 318.582
L245.022 318.582
L245.022 317.632
L246.311 317.632
L246.313 315.731
L246.569 315.731
L246.64 313.83
L246.756 313.83
L246.756 312.879
L246.963 312.879
L246.969 310.978
L247.769 310.978
L247.844 309.077
L248.33 309.077
L248.346 307.176
L248.668 307.176
L248.668 306.226
L249.155 306.226
L249.155 305.275
L249.426 305.275
L249.426 304.325
L249.619 304.325
L249.619 303.374
L251.365 303.374
L251.365 302.424
L251.491 302.424
L251.491 301.473
L251.666 301.473
L251.666 300.523
L251.873 300.523
L251.873 299.572
L252.091 299.572
L252.091 298.622
L252.339 298.622
L252.339 297.671
L252.526 297.671
L252.526 296.721
L252.675 296.721
L252.712 294.82
L253.285 294.82
L253.285 293.869
L253.865 293.869
L253.865 292.919
L254.013 292.919
L254.013 291.968
L254.375 291.968
L254.416 276.76
L254.673 276.76
L254.676 274.859
L254.803 274.859
L254.803 273.909
L255.374 273.909
L255.48 272.008
L255.756 272.008
L255.834 270.107
L255.917 270.107
L256.002 268.206
L256.379 268.206
L256.379 267.255
L256.528 267.255
L256.634 265.354
L256.986 265.354
L256.986 264.404
L257.499 264.404
L257.571 261.552
L257.617 261.552
L257.659 259.651
L258.06 259.651
L258.06 258.701
L258.411 258.701
L258.411 257.75
L258.55 257.75
L258.55 256.8
L258.757 256.8
L258.757 255.85
L259.077 255.85
L259.077 254.899
L259.251 254.899
L259.251 253.949
L259.523 253.949
L259.523 252.998
L259.659 252.998
L259.686 251.097
L260.458 251.097
L260.538 249.196
L261.013 249.196
L261.076 246.345
L261.139 246.345
L261.139 245.394
L262.483 245.394
L262.563 243.493
L262.736 243.493
L262.736 242.543
L263.082 242.543
L263.082 241.592
L263.456 241.592
L263.536 239.691
L263.656 239.691
L263.755 236.84
L263.862 236.84
L263.937 234.939
L264.145 234.939
L264.172 233.038
L264.315 233.038
L264.325 231.137
L264.487 231.137
L264.487 230.186
L264.689 230.186
L264.764 228.285
L265.034 228.285
L265.065 226.384
L265.459 226.384
L265.551 219.731
L265.576 219.731
L265.576 218.78
L265.712 218.78
L265.772 215.929
L265.918 215.929
L265.918 214.978
L266.086 214.978
L266.196 211.176
L266.264 211.176
L266.264 210.226
L266.759 210.226
L266.824 208.325
L267.132 208.325
L267.153 206.424
L267.533 206.424
L267.533 205.473
L268.109 205.473
L268.114 203.572
L268.225 203.572
L268.316 201.671
L268.465 201.671
L268.506 199.77
L268.767 199.77
L268.767 198.82
L269.067 198.82
L269.17 195.018
L269.271 195.018
L269.312 191.216
L269.802 191.216
L269.847 189.315
L270.435 189.315
L270.512 185.513
L270.573 185.513
L270.648 176.958
L270.981 176.958
L270.981 176.008
L271.25 176.008
L271.25 175.057
L271.648 175.057
L271.648 174.107
L271.875 174.107
L271.875 173.156
L272.204 173.156
L272.204 172.206
L272.448 172.206
L272.476 170.305
L272.781 170.305
L272.781 169.354
L273.031 169.354
L273.031 168.404
L273.382 168.404
L273.382 167.453
L273.753 167.453
L273.857 164.602
L274.451 164.602
L274.557 161.75
L274.751 161.75
L274.751 160.8
L274.889 160.8
L274.889 159.85
L275.855 159.85
L275.874 156.998
L276.865 156.998
L276.867 155.097
L277.423 155.097
L277.423 154.147
L277.594 154.147
L277.67 152.246
L278.61 152.246
L278.61 151.295
L279.203 151.295
L279.225 149.394
L279.608 149.394
L279.667 147.493
L279.997 147.493
L280.082 145.592
L280.205 145.592
L280.205 144.642
L280.397 144.642
L280.397 143.691
L280.557 143.691
L280.655 139.889
L281.072 139.889
L281.072 138.939
L281.702 138.939
L281.702 137.988
L282.042 137.988
L282.042 137.038
L282.294 137.038
L282.294 136.087
L282.529 136.087
L282.529 135.137
L282.687 135.137
L282.687 134.186
L284.604 134.186
L284.604 133.236
L285.315 133.236
L285.315 132.285
L285.757 132.285
L285.822 130.384
L286.385 130.384
L286.439 128.483
L286.849 128.483
L286.849 127.533
L287.022 127.533
L287.022 126.582
L289.177 126.582
L289.177 125.632
L289.878 125.632
L289.878 124.681
L290.14 124.681
L290.14 123.731
L291.159 123.731
L291.159 122.78
L292.464 122.78
L292.573 120.879
L293.085 120.879
L293.085 119.929
L293.24 119.929
L293.306 118.028
L293.4 118.028
L293.4 117.077
L293.64 117.077
L293.64 116.127
L293.814 116.127
L293.814 115.176
L295.042 115.176
L295.042 114.226
L295.214 114.226
L295.214 113.275
L295.454 113.275
L295.454 112.325
L296.448 112.325
L296.543 110.424
L298.213 110.424
L298.242 108.523
L298.473 108.523
L298.473 107.572
L298.759 107.572
L298.759 106.622
L299.235 106.622
L299.235 105.671
L300.971 105.671
L300.971 104.721
L307.42 104.721
L307.42 103.77
L311.098 103.77
L311.098 102.82
L312.49 102.82
L312.49 101.869
L313.145 101.869
L313.145 100.919
L313.685 100.919
L313.685 99.9683
L314.8 99.9683
L314.8 99.0178
L315.563 99.0178
L315.563 98.0673
L317.52 98.0673
L317.52 86.6614
L321.411 86.6614
L321.411 85.7109
L323.837 85.7109
L323.837 84.7604
L325.945 84.7604
L325.945 83.8099
L326.099 83.8099
L326.099 82.8594
L326.488 82.8594
L326.5 80.9584
L327.159 80.9584
L327.159 80.0079
L328.465 80.0079
L328.465 79.0574
L329.139 79.0574
L329.139 78.1069
L331.418 78.1069
L331.418 77.1564
L332.26 77.1564
L332.26 76.2059
L333.489 76.2059
L333.489 75.2554
L334.487 75.2554
L334.487 74.305
L339.301 74.305
L339.301 73.3545
L340.227 73.3545
L340.227 72.404
L341.732 72.404
L341.732 71.4535
L342.629 71.4535
L342.629 70.503
L343.219 70.503
L343.234 68.602
L344.403 68.602
L344.403 67.6515
L348.22 67.6515
L348.263 65.7505
L348.98 65.7505
L348.98 64.8
L349.417 64.8
L349.417 63.8495
L349.869 63.8495
L349.879 61.9485
L354.003 61.9485
L354.003 60.998
L357.341 60.998
L357.341 60.0475
L357.758 60.0475
L357.758 59.097
L358.088 59.097
L358.088 58.1465
L360.258 58.1465
L360.258 57.196
L360.665 57.196
L360.665 56.2455
L362.721 56.2455
L362.721 55.295
L363.31 55.295
L363.31 54.3446
L363.924 54.3446
L363.924 53.3941
L371.785 53.3941
L371.785 52.4436
L372.253 52.4436
L372.253 51.4931
L378.043 51.4931
L378.043 50.5426
L378.497 50.5426
L378.497 49.5921
L381.688 49.5921
L381.688 48.6416
L382.638 48.6416
L382.638 47.6911
L382.81 47.6911
L382.81 46.7406
L384.561 46.7406
L384.561 45.7901
L384.801 45.7901
L384.801 44.8396
L385.103 44.8396
L385.103 43.8891
L387.86 43.8891
L387.86 42.9386
L388.447 42.9386
L388.447 41.9881
L389.649 41.9881
L389.649 41.0376
L390.134 41.0376
L390.134 40.0871
L390.468 40.0871
L390.468 39.1366
L393.219 39.1366
L393.219 38.1861
L394.136 38.1861
L394.136 37.2356
L395.082 37.2356
L395.082 36.2851
L395.312 36.2851
L395.312 35.3347
L395.475 35.3347
L395.475 34.3842
L396.287 34.3842
L396.287 33.4337
L396.568 33.4337
L396.568 32.4832
L397.737 32.4832
L397.737 31.5327
L398.14 31.5327
L398.14 30.5822
L398.73 30.5822
L398.73 29.6317
L402.628 29.6317
L402.628 28.6812
L403.816 28.6812
L403.816 27.7307
L404.038 27.7307
L404.038 26.7802
L406.019 26.7802
L406.019 25.8297
L407.139 25.8297
L407.139 24.8792
L407.672 24.8792
L407.672 23.9287
L407.838 23.9287
L407.838 22.9782
L410.289 22.9782
L410.289 22.0277
L411.322 22.0277
L411.322 21.0772
L411.947 21.0772
L411.947 20.1267
L412.398 20.1267
L412.398 19.1762
L414.445 19.1762
L414.445 18.2257
L414.604 18.2257
L414.604 17.2752
L415.888 17.2752
L415.888 16.3248
L416.225 16.3248
L416.225 15.3743
L420.043 15.3743
L420.043 14.4238
L420.459 14.4238
L420.459 13.4733
L425.574 13.4733
L425.574 12.5228
L432.131 12.5228
L432.131 11.5723
L441.332 11.5723
L441.332 10.6218
L441.332 10.6218
L453.6 10.6218
L453.6 10.6218" style="fill:none;stroke:#00bfbf;stroke-linecap:square;"/>
   </g>
   <g id="line2d_3">
    <path clip-path="url(#p5bee155178)" d="
M201.414 352.8
L201.414 351.85
L201.414 351.85
L201.414 351.85
L201.414 350.899
L201.414 350.899
L201.414 350.899
L201.414 349.949
L201.414 349.949
L201.414 349.949
L201.414 348.998
L201.414 348.998
L201.414 348.998
L201.414 348.048
L201.414 348.048
L201.414 348.048
L201.414 347.097
L201.414 347.097
L201.414 347.097
L201.414 346.147
L201.414 346.147
L201.414 346.147
L201.414 345.196
L201.414 345.196
L201.414 345.196
L201.414 344.246
L201.414 344.246
L201.414 344.246
L201.414 343.295
L201.414 343.295
L201.414 343.295
L201.414 342.345
L201.414 342.345
L201.414 342.345
L201.414 341.394
L201.414 341.394
L201.414 341.394
L201.414 340.444
L201.414 340.444
L201.414 340.444
L201.414 339.493
L201.414 339.493
L201.414 339.493
L201.414 338.543
L214.023 338.543
L214.023 337.592
L215.396 337.592
L215.396 336.642
L230.709 336.642
L230.709 335.691
L231.981 335.691
L231.981 334.741
L236.178 334.741
L236.178 333.79
L236.76 333.79
L236.76 332.84
L236.926 332.84
L236.926 331.889
L237.243 331.889
L237.243 330.939
L238.937 330.939
L238.977 328.087
L239.1 328.087
L239.1 327.137
L239.391 327.137
L239.391 326.186
L240.157 326.186
L240.157 325.236
L240.276 325.236
L240.276 324.285
L241.682 324.285
L241.682 323.335
L242.069 323.335
L242.069 322.384
L243.053 322.384
L243.09 320.483
L243.198 320.483
L243.198 319.533
L243.374 319.533
L243.374 318.582
L244.112 318.582
L244.112 317.632
L244.237 317.632
L244.237 316.681
L245.022 316.681
L245.022 315.731
L245.506 315.731
L245.56 313.83
L246.311 313.83
L246.313 311.929
L246.569 311.929
L246.633 310.028
L246.756 310.028
L246.756 309.077
L247.532 309.077
L247.532 308.127
L248.33 308.127
L248.33 307.176
L248.668 307.176
L248.668 306.226
L249.155 306.226
L249.155 305.275
L249.426 305.275
L249.426 304.325
L249.619 304.325
L249.619 303.374
L250.034 303.374
L250.06 301.473
L251.365 301.473
L251.38 299.572
L251.491 299.572
L251.533 297.671
L251.666 297.671
L251.666 296.721
L251.873 296.721
L251.924 294.82
L252.091 294.82
L252.091 293.869
L252.702 293.869
L252.702 292.919
L253.285 292.919
L253.285 291.968
L253.715 291.968
L253.715 291.018
L253.862 291.018
L253.901 289.117
L254.375 289.117
L254.416 273.909
L254.673 273.909
L254.676 272.008
L255.374 272.008
L255.374 271.057
L255.756 271.057
L255.834 269.156
L255.917 269.156
L256.002 267.255
L256.379 267.255
L256.379 266.305
L256.528 266.305
L256.634 264.404
L256.986 264.404
L256.986 263.453
L257.181 263.453
L257.181 262.503
L257.499 262.503
L257.571 260.602
L257.617 260.602
L257.618 258.701
L258.411 258.701
L258.411 257.75
L258.55 257.75
L258.55 256.8
L258.757 256.8
L258.757 255.85
L259.077 255.85
L259.077 254.899
L259.251 254.899
L259.251 253.949
L259.523 253.949
L259.625 251.097
L259.671 251.097
L259.671 250.147
L260.458 250.147
L260.458 249.196
L261.013 249.196
L261.11 245.394
L262.483 245.394
L262.563 243.493
L262.736 243.493
L262.736 242.543
L263.082 242.543
L263.082 241.592
L263.266 241.592
L263.266 240.642
L263.438 240.642
L263.536 237.79
L263.656 237.79
L263.665 235.889
L263.862 235.889
L263.937 233.988
L264 233.988
L264 233.038
L264.137 233.038
L264.172 231.137
L264.315 231.137
L264.325 229.236
L264.487 229.236
L264.552 227.335
L264.689 227.335
L264.689 226.384
L265.034 226.384
L265.065 224.483
L265.455 224.483
L265.551 218.78
L265.576 218.78
L265.576 217.83
L265.712 217.83
L265.772 214.978
L265.918 214.978
L265.918 214.028
L266.084 214.028
L266.152 211.176
L266.196 211.176
L266.264 209.275
L266.759 209.275
L266.824 207.374
L267.132 207.374
L267.153 205.473
L267.533 205.473
L267.533 204.523
L267.819 204.523
L267.819 203.572
L268.109 203.572
L268.114 201.671
L268.316 201.671
L268.316 200.721
L268.465 200.721
L268.476 198.82
L268.767 198.82
L268.767 197.869
L269.067 197.869
L269.163 195.018
L269.271 195.018
L269.312 190.265
L269.802 190.265
L269.834 188.364
L270.434 188.364
L270.484 185.513
L270.55 185.513
L270.648 176.958
L270.795 176.958
L270.795 176.008
L271.25 176.008
L271.25 175.057
L271.648 175.057
L271.648 174.107
L271.875 174.107
L271.875 173.156
L272.204 173.156
L272.204 172.206
L272.448 172.206
L272.476 170.305
L272.781 170.305
L272.781 169.354
L273.031 169.354
L273.031 168.404
L273.382 168.404
L273.382 167.453
L273.753 167.453
L273.857 164.602
L274.451 164.602
L274.557 161.75
L274.751 161.75
L274.751 160.8
L274.889 160.8
L274.889 159.85
L275.407 159.85
L275.407 158.899
L275.858 158.899
L275.874 156.998
L276.865 156.998
L276.867 155.097
L277.423 155.097
L277.423 154.147
L277.594 154.147
L277.67 152.246
L278.61 152.246
L278.61 151.295
L279.203 151.295
L279.225 149.394
L279.533 149.394
L279.608 147.493
L279.997 147.493
L280.082 145.592
L280.205 145.592
L280.205 144.642
L280.397 144.642
L280.397 143.691
L280.557 143.691
L280.655 139.889
L281.072 139.889
L281.072 138.939
L281.702 138.939
L281.702 137.988
L282.042 137.988
L282.042 137.038
L282.294 137.038
L282.294 136.087
L282.529 136.087
L282.529 135.137
L282.687 135.137
L282.687 134.186
L284.604 134.186
L284.604 133.236
L285.315 133.236
L285.315 132.285
L285.757 132.285
L285.822 130.384
L286.385 130.384
L286.439 128.483
L286.849 128.483
L286.849 127.533
L287.022 127.533
L287.022 126.582
L289.177 126.582
L289.177 125.632
L289.878 125.632
L289.878 124.681
L290.14 124.681
L290.14 123.731
L291.159 123.731
L291.159 122.78
L292.464 122.78
L292.573 120.879
L293.085 120.879
L293.085 119.929
L293.24 119.929
L293.306 118.028
L293.4 118.028
L293.4 117.077
L293.631 117.077
L293.631 116.127
L293.814 116.127
L293.814 115.176
L295.042 115.176
L295.042 114.226
L295.214 114.226
L295.214 113.275
L295.454 113.275
L295.454 112.325
L296.448 112.325
L296.543 110.424
L298.157 110.424
L298.201 108.523
L298.473 108.523
L298.473 107.572
L298.759 107.572
L298.759 106.622
L299.235 106.622
L299.235 105.671
L300.971 105.671
L300.971 104.721
L307.42 104.721
L307.42 103.77
L311.098 103.77
L311.098 102.82
L312.49 102.82
L312.49 101.869
L313.145 101.869
L313.145 100.919
L313.67 100.919
L313.67 99.9683
L314.8 99.9683
L314.847 98.0673
L317.5 98.0673
L317.52 86.6614
L321.411 86.6614
L321.411 85.7109
L323.837 85.7109
L323.837 84.7604
L325.945 84.7604
L325.945 83.8099
L326.099 83.8099
L326.099 82.8594
L326.488 82.8594
L326.5 80.9584
L327.067 80.9584
L327.067 80.0079
L328.433 80.0079
L328.433 79.0574
L329.139 79.0574
L329.139 78.1069
L331.418 78.1069
L331.418 77.1564
L332.26 77.1564
L332.26 76.2059
L333.489 76.2059
L333.489 75.2554
L334.487 75.2554
L334.487 74.305
L337.844 74.305
L337.844 73.3545
L339.301 73.3545
L339.301 72.404
L341.732 72.404
L341.732 71.4535
L342.301 71.4535
L342.301 70.503
L343.219 70.503
L343.226 68.602
L344.403 68.602
L344.403 67.6515
L348.22 67.6515
L348.263 65.7505
L348.98 65.7505
L348.98 64.8
L349.417 64.8
L349.417 63.8495
L349.869 63.8495
L349.879 61.9485
L354.003 61.9485
L354.003 60.998
L357.341 60.998
L357.341 60.0475
L357.758 60.0475
L357.758 59.097
L358.088 59.097
L358.088 58.1465
L360.249 58.1465
L360.249 57.196
L360.665 57.196
L360.665 56.2455
L362.721 56.2455
L362.721 55.295
L363.223 55.295
L363.223 54.3446
L363.663 54.3446
L363.663 53.3941
L371.785 53.3941
L371.785 52.4436
L372.253 52.4436
L372.253 51.4931
L378.043 51.4931
L378.043 50.5426
L378.497 50.5426
L378.497 49.5921
L380.77 49.5921
L380.77 48.6416
L382.339 48.6416
L382.339 47.6911
L382.766 47.6911
L382.766 46.7406
L384.561 46.7406
L384.628 44.8396
L385.103 44.8396
L385.103 43.8891
L387.848 43.8891
L387.848 42.9386
L388.26 42.9386
L388.26 41.9881
L389.649 41.9881
L389.649 41.0376
L390.088 41.0376
L390.088 40.0871
L390.394 40.0871
L390.394 39.1366
L393.166 39.1366
L393.166 38.1861
L394.136 38.1861
L394.136 37.2356
L395.082 37.2356
L395.082 36.2851
L395.312 36.2851
L395.312 35.3347
L395.449 35.3347
L395.449 34.3842
L396.287 34.3842
L396.287 33.4337
L396.568 33.4337
L396.568 32.4832
L397.737 32.4832
L397.737 31.5327
L398.14 31.5327
L398.14 30.5822
L398.73 30.5822
L398.73 29.6317
L402.628 29.6317
L402.628 28.6812
L403.816 28.6812
L403.816 27.7307
L404.038 27.7307
L404.038 26.7802
L406.019 26.7802
L406.019 25.8297
L407.139 25.8297
L407.139 24.8792
L407.562 24.8792
L407.562 23.9287
L407.838 23.9287
L407.838 22.9782
L410.289 22.9782
L410.289 22.0277
L411.322 22.0277
L411.322 21.0772
L411.947 21.0772
L411.947 20.1267
L412.386 20.1267
L412.386 19.1762
L414.445 19.1762
L414.445 18.2257
L414.604 18.2257
L414.604 17.2752
L415.888 17.2752
L415.888 16.3248
L416.156 16.3248
L416.156 15.3743
L420.043 15.3743
L420.043 14.4238
L420.459 14.4238
L420.459 13.4733
L425.574 13.4733
L425.574 12.5228
L432.131 12.5228
L432.131 11.5723
L441.332 11.5723
L441.332 10.6218
L441.332 10.6218
L453.6 10.6218
L453.6 10.6218" style="fill:none;stroke:#bf00bf;stroke-linecap:square;"/>
   </g>
   <g id="line2d_4">
    <path clip-path="url(#p5bee155178)" d="
M201.414 352.8
L201.414 351.85
L201.414 351.85
L201.414 351.85
L201.414 350.899
L201.414 350.899
L201.414 350.899
L201.414 349.949
L201.414 349.949
L201.414 349.949
L201.414 348.998
L201.414 348.998
L201.414 348.998
L201.414 348.048
L201.414 348.048
L201.414 348.048
L201.414 347.097
L201.414 347.097
L201.414 347.097
L201.414 346.147
L201.414 346.147
L201.414 346.147
L201.414 345.196
L201.414 345.196
L201.414 345.196
L201.414 344.246
L201.414 344.246
L201.414 344.246
L201.414 343.295
L201.414 343.295
L201.414 343.295
L201.414 342.345
L201.414 342.345
L201.414 342.345
L201.414 341.394
L201.414 341.394
L201.414 341.394
L201.414 340.444
L201.414 340.444
L201.414 340.444
L201.414 339.493
L201.414 339.493
L201.414 339.493
L201.414 338.543
L214.023 338.543
L214.023 337.592
L215.396 337.592
L215.396 336.642
L230.709 336.642
L230.709 335.691
L231.981 335.691
L231.981 334.741
L236.141 334.741
L236.178 332.84
L236.926 332.84
L236.926 331.889
L237.243 331.889
L237.243 330.939
L238.937 330.939
L238.977 328.087
L239.1 328.087
L239.133 326.186
L239.972 326.186
L239.972 325.236
L240.122 325.236
L240.157 323.335
L240.276 323.335
L240.276 322.384
L241.682 322.384
L241.774 320.483
L242.562 320.483
L242.562 319.533
L243.053 319.533
L243.09 317.632
L243.198 317.632
L243.304 314.78
L244.011 314.78
L244.112 312.879
L244.237 312.879
L244.311 310.978
L245.597 310.978
L245.597 310.028
L246.311 310.028
L246.313 308.127
L246.569 308.127
L246.608 306.226
L246.756 306.226
L246.756 305.275
L247.532 305.275
L247.532 304.325
L247.8 304.325
L247.8 303.374
L248.33 303.374
L248.33 302.424
L248.668 302.424
L248.668 301.473
L249.155 301.473
L249.155 300.523
L249.426 300.523
L249.426 299.572
L249.78 299.572
L249.78 298.622
L250.834 298.622
L250.834 297.671
L251.365 297.671
L251.365 296.721
L251.491 296.721
L251.533 294.82
L251.666 294.82
L251.666 293.869
L252.699 293.869
L252.699 292.919
L253.285 292.919
L253.382 291.018
L253.715 291.018
L253.715 290.067
L253.901 290.067
L253.901 289.117
L254.375 289.117
L254.416 273.909
L254.673 273.909
L254.676 272.008
L255.374 272.008
L255.456 270.107
L255.571 270.107
L255.571 269.156
L255.917 269.156
L256.002 267.255
L256.379 267.255
L256.379 266.305
L256.528 266.305
L256.634 264.404
L256.986 264.404
L256.986 263.453
L257.181 263.453
L257.181 262.503
L257.429 262.503
L257.499 260.602
L257.571 260.602
L257.617 258.701
L258.081 258.701
L258.081 257.75
L258.411 257.75
L258.411 256.8
L258.757 256.8
L258.757 255.85
L259.077 255.85
L259.077 254.899
L259.251 254.899
L259.251 253.949
L259.479 253.949
L259.587 251.097
L259.625 251.097
L259.625 250.147
L260.458 250.147
L260.458 249.196
L261.013 249.196
L261.105 244.444
L261.578 244.444
L261.578 243.493
L262.483 243.493
L262.563 241.592
L262.736 241.592
L262.736 240.642
L263.082 240.642
L263.082 239.691
L263.266 239.691
L263.266 238.741
L263.438 238.741
L263.536 234.939
L263.656 234.939
L263.665 233.038
L263.862 233.038
L263.937 231.137
L264.172 231.137
L264.172 230.186
L264.315 230.186
L264.315 229.236
L264.487 229.236
L264.552 227.335
L264.689 227.335
L264.689 226.384
L264.932 226.384
L265.034 224.483
L265.065 224.483
L265.065 223.533
L265.446 223.533
L265.551 218.78
L265.576 218.78
L265.576 217.83
L265.712 217.83
L265.772 214.978
L265.918 214.978
L265.918 214.028
L266.076 214.028
L266.152 211.176
L266.196 211.176
L266.264 209.275
L266.759 209.275
L266.802 207.374
L267.132 207.374
L267.153 205.473
L267.498 205.473
L267.533 203.572
L268.109 203.572
L268.114 201.671
L268.316 201.671
L268.316 200.721
L268.465 200.721
L268.466 198.82
L268.767 198.82
L268.767 197.869
L269.067 197.869
L269.162 195.018
L269.213 195.018
L269.312 190.265
L269.802 190.265
L269.818 188.364
L270.068 188.364
L270.068 187.414
L270.426 187.414
L270.484 185.513
L270.537 185.513
L270.648 176.008
L271.25 176.008
L271.25 175.057
L271.648 175.057
L271.648 174.107
L271.875 174.107
L271.875 173.156
L272.204 173.156
L272.204 172.206
L272.448 172.206
L272.476 170.305
L272.781 170.305
L272.781 169.354
L273.031 169.354
L273.031 168.404
L273.382 168.404
L273.382 167.453
L273.753 167.453
L273.857 164.602
L274.451 164.602
L274.557 161.75
L274.751 161.75
L274.751 160.8
L274.889 160.8
L274.889 159.85
L275.339 159.85
L275.339 158.899
L275.858 158.899
L275.874 156.998
L276.865 156.998
L276.867 155.097
L277.423 155.097
L277.423 154.147
L277.594 154.147
L277.67 152.246
L278.61 152.246
L278.61 151.295
L279.203 151.295
L279.225 149.394
L279.533 149.394
L279.608 147.493
L279.997 147.493
L280.082 145.592
L280.205 145.592
L280.205 144.642
L280.397 144.642
L280.397 143.691
L280.557 143.691
L280.655 139.889
L281.072 139.889
L281.072 138.939
L281.702 138.939
L281.702 137.988
L282.042 137.988
L282.042 137.038
L282.294 137.038
L282.294 136.087
L282.529 136.087
L282.529 135.137
L282.687 135.137
L282.687 134.186
L284.604 134.186
L284.604 133.236
L285.315 133.236
L285.315 132.285
L285.757 132.285
L285.822 130.384
L286.385 130.384
L286.439 128.483
L286.849 128.483
L286.849 127.533
L287.022 127.533
L287.022 126.582
L289.177 126.582
L289.177 125.632
L289.878 125.632
L289.878 124.681
L290.14 124.681
L290.14 123.731
L291.159 123.731
L291.159 122.78
L292.323 122.78
L292.323 121.83
L292.464 121.83
L292.464 120.879
L293.085 120.879
L293.085 119.929
L293.24 119.929
L293.306 118.028
L293.4 118.028
L293.4 117.077
L293.63 117.077
L293.63 116.127
L293.814 116.127
L293.814 115.176
L294.937 115.176
L294.937 114.226
L295.214 114.226
L295.214 113.275
L295.454 113.275
L295.454 112.325
L296.448 112.325
L296.543 110.424
L298.157 110.424
L298.186 108.523
L298.473 108.523
L298.473 107.572
L298.759 107.572
L298.759 106.622
L299.235 106.622
L299.235 105.671
L300.971 105.671
L300.971 104.721
L307.42 104.721
L307.42 103.77
L310.977 103.77
L310.977 102.82
L311.999 102.82
L311.999 101.869
L312.49 101.869
L312.49 100.919
L313.643 100.919
L313.643 99.9683
L314.8 99.9683
L314.847 98.0673
L317.5 98.0673
L317.52 86.6614
L321.411 86.6614
L321.411 85.7109
L323.837 85.7109
L323.837 84.7604
L325.945 84.7604
L325.945 83.8099
L326.099 83.8099
L326.099 82.8594
L326.488 82.8594
L326.5 80.9584
L327.067 80.9584
L327.067 80.0079
L328.403 80.0079
L328.403 79.0574
L329.139 79.0574
L329.139 78.1069
L331.418 78.1069
L331.418 77.1564
L332.26 77.1564
L332.26 76.2059
L333.489 76.2059
L333.489 75.2554
L334.487 75.2554
L334.487 74.305
L335.893 74.305
L335.893 73.3545
L339.301 73.3545
L339.301 72.404
L341.732 72.404
L341.732 71.4535
L342.301 71.4535
L342.301 70.503
L343.147 70.503
L343.219 68.602
L344.403 68.602
L344.403 67.6515
L348.22 67.6515
L348.263 65.7505
L348.98 65.7505
L348.98 64.8
L349.417 64.8
L349.417 63.8495
L349.869 63.8495
L349.879 61.9485
L354.003 61.9485
L354.003 60.998
L357.341 60.998
L357.341 60.0475
L357.758 60.0475
L357.758 59.097
L358.088 59.097
L358.088 58.1465
L360.236 58.1465
L360.236 57.196
L360.665 57.196
L360.665 56.2455
L362.721 56.2455
L362.721 55.295
L362.966 55.295
L362.966 54.3446
L363.33 54.3446
L363.33 53.3941
L371.785 53.3941
L371.785 52.4436
L372.253 52.4436
L372.253 51.4931
L378.043 51.4931
L378.043 50.5426
L378.497 50.5426
L378.497 49.5921
L380.77 49.5921
L380.77 48.6416
L382.191 48.6416
L382.191 47.6911
L382.621 47.6911
L382.621 46.7406
L384.451 46.7406
L384.561 44.8396
L385.103 44.8396
L385.103 43.8891
L387.848 43.8891
L387.848 42.9386
L388.26 42.9386
L388.26 41.9881
L389.649 41.9881
L389.649 41.0376
L389.99 41.0376
L389.99 40.0871
L390.389 40.0871
L390.389 39.1366
L392.941 39.1366
L392.941 38.1861
L394.136 38.1861
L394.136 37.2356
L395.082 37.2356
L395.178 35.3347
L395.312 35.3347
L395.312 34.3842
L396.287 34.3842
L396.287 33.4337
L396.568 33.4337
L396.568 32.4832
L397.737 32.4832
L397.737 31.5327
L398.14 31.5327
L398.14 30.5822
L398.73 30.5822
L398.73 29.6317
L402.628 29.6317
L402.628 28.6812
L403.816 28.6812
L403.816 27.7307
L404.038 27.7307
L404.038 26.7802
L406.019 26.7802
L406.019 25.8297
L407.139 25.8297
L407.139 24.8792
L407.562 24.8792
L407.562 23.9287
L407.838 23.9287
L407.838 22.9782
L410.289 22.9782
L410.289 22.0277
L411.322 22.0277
L411.322 21.0772
L411.947 21.0772
L411.947 20.1267
L412.334 20.1267
L412.334 19.1762
L414.445 19.1762
L414.445 18.2257
L414.604 18.2257
L414.604 17.2752
L415.888 17.2752
L415.888 16.3248
L416.156 16.3248
L416.156 15.3743
L419.492 15.3743
L419.492 14.4238
L420.444 14.4238
L420.444 13.4733
L425.574 13.4733
L425.574 12.5228
L432.131 12.5228
L432.131 11.5723
L441.332 11.5723
L441.332 10.6218
L441.332 10.6218
L453.6 10.6218
L453.6 10.6218" style="fill:none;stroke:#000000;stroke-linecap:square;"/>
   </g>
   <g id="line2d_5">
    <path clip-path="url(#p5bee155178)" d="
M201.414 352.8
L201.414 351.85
L201.414 351.85
L201.414 351.85
L201.414 350.899
L201.414 350.899
L201.414 350.899
L201.414 349.949
L201.414 349.949
L201.414 349.949
L201.414 348.998
L201.414 348.998
L201.414 348.998
L201.414 348.048
L201.414 348.048
L201.414 348.048
L201.414 347.097
L201.414 347.097
L201.414 347.097
L201.414 346.147
L201.414 346.147
L201.414 346.147
L201.414 345.196
L201.414 345.196
L201.414 345.196
L201.414 344.246
L201.414 344.246
L201.414 344.246
L201.414 343.295
L201.414 343.295
L201.414 343.295
L201.414 342.345
L201.414 342.345
L201.414 342.345
L201.414 341.394
L201.414 341.394
L201.414 341.394
L201.414 340.444
L201.414 340.444
L201.414 340.444
L201.414 339.493
L201.414 339.493
L201.414 339.493
L201.414 338.543
L214.023 338.543
L214.023 337.592
L214.525 337.592
L214.525 336.642
L227.527 336.642
L227.527 335.691
L230.709 335.691
L230.709 334.741
L231.981 334.741
L231.981 333.79
L233.535 333.79
L233.535 332.84
L233.875 332.84
L233.875 331.889
L234.801 331.889
L234.801 330.939
L235.051 330.939
L235.051 329.988
L236.141 329.988
L236.141 329.038
L236.359 329.038
L236.359 328.087
L236.926 328.087
L236.926 327.137
L237.243 327.137
L237.243 326.186
L238.488 326.186
L238.488 325.236
L238.937 325.236
L238.977 323.335
L239.98 323.335
L240.066 321.434
L240.142 321.434
L240.157 319.533
L240.276 319.533
L240.276 318.582
L240.495 318.582
L240.495 317.632
L241.168 317.632
L241.168 316.681
L241.682 316.681
L241.682 315.731
L242.69 315.731
L242.69 314.78
L243.09 314.78
L243.198 312.879
L243.411 312.879
L243.411 311.929
L243.644 311.929
L243.644 310.978
L244.237 310.978
L244.313 309.077
L244.363 309.077
L244.363 308.127
L245.483 308.127
L245.483 307.176
L246.313 307.176
L246.357 305.275
L246.569 305.275
L246.569 304.325
L246.756 304.325
L246.756 303.374
L247.046 303.374
L247.046 302.424
L247.8 302.424
L247.8 301.473
L248.067 301.473
L248.067 300.523
L248.33 300.523
L248.33 299.572
L248.668 299.572
L248.668 298.622
L249.043 298.622
L249.043 297.671
L249.155 297.671
L249.155 296.721
L249.426 296.721
L249.426 295.77
L250.797 295.77
L250.797 294.82
L251.365 294.82
L251.365 293.869
L251.491 293.869
L251.491 292.919
L251.666 292.919
L251.666 291.968
L252.631 291.968
L252.631 291.018
L253.105 291.018
L253.105 290.067
L253.285 290.067
L253.285 289.117
L253.407 289.117
L253.407 288.166
L253.596 288.166
L253.596 287.216
L254.375 287.216
L254.416 272.008
L254.673 272.008
L254.676 270.107
L255.374 270.107
L255.41 268.206
L255.917 268.206
L256.002 266.305
L256.379 266.305
L256.379 265.354
L256.528 265.354
L256.634 263.453
L256.925 263.453
L256.986 261.552
L257.084 261.552
L257.084 260.602
L257.499 260.602
L257.571 258.701
L257.617 258.701
L257.617 257.75
L258.205 257.75
L258.205 256.8
L258.411 256.8
L258.411 255.85
L258.757 255.85
L258.757 254.899
L259.077 254.899
L259.077 253.949
L259.251 253.949
L259.251 252.998
L259.523 252.998
L259.625 250.147
L259.903 250.147
L259.903 249.196
L260.458 249.196
L260.458 248.246
L260.759 248.246
L260.868 246.345
L261.013 246.345
L261.1 241.592
L261.349 241.592
L261.349 240.642
L262.178 240.642
L262.178 239.691
L262.483 239.691
L262.543 237.79
L262.736 237.79
L262.736 236.84
L263.082 236.84
L263.082 235.889
L263.456 235.889
L263.536 233.988
L263.656 233.988
L263.665 232.087
L263.862 232.087
L263.937 230.186
L264.172 230.186
L264.172 229.236
L264.315 229.236
L264.376 226.384
L264.689 226.384
L264.689 225.434
L264.973 225.434
L265.065 222.582
L265.405 222.582
L265.507 218.78
L265.551 218.78
L265.576 216.879
L265.712 216.879
L265.772 214.028
L265.918 214.028
L265.988 212.127
L266.03 212.127
L266.03 211.176
L266.152 211.176
L266.196 209.275
L266.264 209.275
L266.264 208.325
L266.759 208.325
L266.79 206.424
L267.132 206.424
L267.153 204.523
L267.533 204.523
L267.533 203.572
L268.109 203.572
L268.114 201.671
L268.312 201.671
L268.316 199.77
L268.465 199.77
L268.465 198.82
L268.734 198.82
L268.767 196.919
L269.067 196.919
L269.162 194.067
L269.192 194.067
L269.301 192.166
L269.31 192.166
L269.312 190.265
L269.802 190.265
L269.88 187.414
L270.36 187.414
L270.387 185.513
L270.484 185.513
L270.494 183.612
L270.6 183.612
L270.648 176.008
L271.25 176.008
L271.25 175.057
L271.648 175.057
L271.648 174.107
L271.875 174.107
L271.875 173.156
L272.204 173.156
L272.255 171.255
L272.448 171.255
L272.476 169.354
L272.781 169.354
L272.781 168.404
L273.031 168.404
L273.031 167.453
L273.382 167.453
L273.382 166.503
L273.753 166.503
L273.857 163.651
L274.451 163.651
L274.507 161.75
L274.751 161.75
L274.751 160.8
L274.889 160.8
L274.889 159.85
L275.154 159.85
L275.154 158.899
L275.858 158.899
L275.874 156.998
L276.865 156.998
L276.867 155.097
L277.119 155.097
L277.119 154.147
L277.423 154.147
L277.423 153.196
L277.67 153.196
L277.67 152.246
L278.61 152.246
L278.61 151.295
L279.203 151.295
L279.232 148.444
L279.608 148.444
L279.608 147.493
L279.997 147.493
L280.082 145.592
L280.205 145.592
L280.205 144.642
L280.397 144.642
L280.397 143.691
L280.557 143.691
L280.655 139.889
L281.072 139.889
L281.072 138.939
L281.275 138.939
L281.275 137.988
L282.042 137.988
L282.042 137.038
L282.294 137.038
L282.294 136.087
L282.529 136.087
L282.529 135.137
L282.687 135.137
L282.687 134.186
L284.604 134.186
L284.604 133.236
L285.315 133.236
L285.315 132.285
L285.661 132.285
L285.661 131.335
L285.822 131.335
L285.822 130.384
L286.385 130.384
L286.439 128.483
L286.849 128.483
L286.849 127.533
L287.022 127.533
L287.022 126.582
L289.177 126.582
L289.177 125.632
L289.878 125.632
L289.878 124.681
L290.14 124.681
L290.14 123.731
L290.991 123.731
L290.991 122.78
L291.159 122.78
L291.159 121.83
L292.464 121.83
L292.464 120.879
L293.085 120.879
L293.085 119.929
L293.24 119.929
L293.306 118.028
L293.4 118.028
L293.467 116.127
L293.814 116.127
L293.814 115.176
L294.801 115.176
L294.801 114.226
L295.214 114.226
L295.214 113.275
L295.454 113.275
L295.454 112.325
L296.448 112.325
L296.543 110.424
L298.054 110.424
L298.132 108.523
L298.473 108.523
L298.473 107.572
L298.759 107.572
L298.759 106.622
L299.235 106.622
L299.235 105.671
L300.971 105.671
L300.971 104.721
L307.42 104.721
L307.42 103.77
L310.944 103.77
L310.944 102.82
L311.337 102.82
L311.337 101.869
L312.49 101.869
L312.49 100.919
L313.177 100.919
L313.177 99.9683
L313.702 99.9683
L313.702 99.0178
L314.773 99.0178
L314.8 97.1168
L317.134 97.1168
L317.134 96.1663
L317.52 96.1663
L317.52 85.7109
L323.837 85.7109
L323.837 84.7604
L324.593 84.7604
L324.593 83.8099
L325.945 83.8099
L325.945 82.8594
L326.099 82.8594
L326.099 81.9089
L326.488 81.9089
L326.5 80.0079
L327.646 80.0079
L327.646 79.0574
L329.139 79.0574
L329.139 78.1069
L329.897 78.1069
L329.897 77.1564
L330.694 77.1564
L330.694 76.2059
L332.26 76.2059
L332.26 75.2554
L333.489 75.2554
L333.489 74.305
L334.487 74.305
L334.487 73.3545
L339.301 73.3545
L339.301 72.404
L340.77 72.404
L340.77 71.4535
L341.732 71.4535
L341.732 70.503
L342.852 70.503
L342.852 69.5525
L343.219 69.5525
L343.219 68.602
L344.403 68.602
L344.403 67.6515
L348.22 67.6515
L348.263 65.7505
L348.98 65.7505
L348.98 64.8
L349.417 64.8
L349.417 63.8495
L349.869 63.8495
L349.879 61.9485
L354.003 61.9485
L354.003 60.998
L357.341 60.998
L357.341 60.0475
L357.647 60.0475
L357.647 59.097
L358.066 59.097
L358.088 57.196
L359.896 57.196
L359.896 56.2455
L360.665 56.2455
L360.665 55.295
L361.519 55.295
L361.519 54.3446
L362.721 54.3446
L362.721 53.3941
L371.785 53.3941
L371.785 52.4436
L372.253 52.4436
L372.253 51.4931
L372.762 51.4931
L372.762 50.5426
L378.043 50.5426
L378.043 49.5921
L378.497 49.5921
L378.497 48.6416
L380.349 48.6416
L380.349 47.6911
L382.593 47.6911
L382.593 46.7406
L383.953 46.7406
L383.953 45.7901
L384.561 45.7901
L384.561 44.8396
L385.103 44.8396
L385.103 43.8891
L386.917 43.8891
L386.917 42.9386
L387.492 42.9386
L387.492 41.9881
L388.239 41.9881
L388.239 41.0376
L389.649 41.0376
L389.649 40.0871
L390.315 40.0871
L390.315 39.1366
L392.267 39.1366
L392.267 38.1861
L394.136 38.1861
L394.136 37.2356
L394.967 37.2356
L394.967 36.2851
L395.082 36.2851
L395.082 35.3347
L395.312 35.3347
L395.312 34.3842
L396.287 34.3842
L396.287 33.4337
L396.568 33.4337
L396.568 32.4832
L397.737 32.4832
L397.737 31.5327
L398.14 31.5327
L398.14 30.5822
L398.73 30.5822
L398.73 29.6317
L402.628 29.6317
L402.628 28.6812
L403.816 28.6812
L403.816 27.7307
L404.038 27.7307
L404.038 26.7802
L406.019 26.7802
L406.019 25.8297
L407.139 25.8297
L407.139 24.8792
L407.293 24.8792
L407.293 23.9287
L407.838 23.9287
L407.838 22.9782
L410.289 22.9782
L410.289 22.0277
L411.322 22.0277
L411.322 21.0772
L411.947 21.0772
L411.984 19.1762
L414.445 19.1762
L414.445 18.2257
L414.604 18.2257
L414.604 17.2752
L415.78 17.2752
L415.888 15.3743
L418.903 15.3743
L418.903 14.4238
L420.333 14.4238
L420.333 13.4733
L425.574 13.4733
L425.574 12.5228
L432.131 12.5228
L432.131 11.5723
L441.332 11.5723
L441.332 10.6218
L441.332 10.6218
L453.6 10.6218
L453.6 10.6218" style="fill:none;stroke:#00bfbf;stroke-linecap:square;"/>
   </g>
   <g id="matplotlib.axis_1">
    <g id="xtick_1"/>
    <g id="xtick_2">
     <g id="line2d_6">
      <path clip-path="url(#p5bee155178)" d="
M59.6175 352.8
L59.6175 7.2" style="fill:none;stroke:#000000;stroke-dasharray:1.000000,3.000000;stroke-dashoffset:0.0;stroke-width:0.5;"/>
     </g>
     <g id="line2d_7">
      <defs>
       <path d="
M0 0
L0 -4" id="m93b0483c22" style="stroke:#000000;stroke-width:0.5;"/>
      </defs>
      <g>
       <use style="stroke:#000000;stroke-width:0.5;" x="59.6174973142" xlink:href="#m93b0483c22" y="352.8"/>
      </g>
     </g>
     <g id="line2d_8">
      <defs>
       <path d="
M0 0
L0 4" id="m741efc42ff" style="stroke:#000000;stroke-width:0.5;"/>
      </defs>
      <g>
       <use style="stroke:#000000;stroke-width:0.5;" x="59.6174973142" xlink:href="#m741efc42ff" y="7.2"/>
      </g>
     </g>
     <g id="text_1">
      <!-- -6 -->
      <defs>
       <path d="
M3.17188 21.4844
L3.17188 30.3281
L30.1719 30.3281
L30.1719 21.4844
z
" id="ArialMT-2d"/>
       <path d="
M49.75 54.0469
L41.0156 53.375
Q39.8438 58.5469 37.7031 60.8906
Q34.125 64.6562 28.9062 64.6562
Q24.7031 64.6562 21.5312 62.3125
Q17.3906 59.2812 14.9844 53.4688
Q12.5938 47.6562 12.5 36.9219
Q15.6719 41.75 20.2656 44.0938
Q24.8594 46.4375 29.8906 46.4375
Q38.6719 46.4375 44.8438 39.9688
Q51.0312 33.5 51.0312 23.25
Q51.0312 16.5 48.125 10.7188
Q45.2188 4.9375 40.1406 1.85938
Q35.0625 -1.21875 28.6094 -1.21875
Q17.625 -1.21875 10.6875 6.85938
Q3.76562 14.9375 3.76562 33.5
Q3.76562 54.25 11.4219 63.6719
Q18.1094 71.875 29.4375 71.875
Q37.8906 71.875 43.2812 67.1406
Q48.6875 62.4062 49.75 54.0469
M13.875 23.1875
Q13.875 18.6562 15.7969 14.5
Q17.7188 10.3594 21.1875 8.17188
Q24.6562 6 28.4688 6
Q34.0312 6 38.0312 10.4844
Q42.0469 14.9844 42.0469 22.7031
Q42.0469 30.125 38.0781 34.3906
Q34.125 38.6719 28.125 38.6719
Q22.1719 38.6719 18.0156 34.3906
Q13.875 30.125 13.875 23.1875" id="ArialMT-36"/>
      </defs>
      <g transform="translate(51.5018723142 371.115625)scale(0.2 -0.2)">
       <use xlink:href="#ArialMT-2d"/>
       <use x="33.30078125" xlink:href="#ArialMT-36"/>
      </g>
     </g>
    </g>
    <g id="xtick_3">
     <g id="line2d_9">
      <path clip-path="url(#p5bee155178)" d="
M112.148 352.8
L112.148 7.2" style="fill:none;stroke:#000000;stroke-dasharray:1.000000,3.000000;stroke-dashoffset:0.0;stroke-width:0.5;"/>
     </g>
     <g id="line2d_10">
      <g>
       <use style="stroke:#000000;stroke-width:0.5;" x="112.148497672" xlink:href="#m93b0483c22" y="352.8"/>
      </g>
     </g>
     <g id="line2d_11">
      <g>
       <use style="stroke:#000000;stroke-width:0.5;" x="112.148497672" xlink:href="#m741efc42ff" y="7.2"/>
      </g>
     </g>
     <g id="text_2">
      <!-- -4 -->
      <defs>
       <path d="
M32.3281 0
L32.3281 17.1406
L1.26562 17.1406
L1.26562 25.2031
L33.9375 71.5781
L41.1094 71.5781
L41.1094 25.2031
L50.7812 25.2031
L50.7812 17.1406
L41.1094 17.1406
L41.1094 0
z

M32.3281 25.2031
L32.3281 57.4688
L9.90625 25.2031
z
" id="ArialMT-34"/>
      </defs>
      <g transform="translate(104.057872672 371.115625)scale(0.2 -0.2)">
       <use xlink:href="#ArialMT-2d"/>
       <use x="33.30078125" xlink:href="#ArialMT-34"/>
      </g>
     </g>
    </g>
    <g id="xtick_4">
     <g id="line2d_12">
      <path clip-path="url(#p5bee155178)" d="
M164.679 352.8
L164.679 7.2" style="fill:none;stroke:#000000;stroke-dasharray:1.000000,3.000000;stroke-dashoffset:0.0;stroke-width:0.5;"/>
     </g>
     <g id="line2d_13">
      <g>
       <use style="stroke:#000000;stroke-width:0.5;" x="164.67949803" xlink:href="#m93b0483c22" y="352.8"/>
      </g>
     </g>
     <g id="line2d_14">
      <g>
       <use style="stroke:#000000;stroke-width:0.5;" x="164.67949803" xlink:href="#m741efc42ff" y="7.2"/>
      </g>
     </g>
     <g id="text_3">
      <!-- -2 -->
      <defs>
       <path d="
M50.3438 8.45312
L50.3438 0
L3.03125 0
Q2.9375 3.17188 4.04688 6.10938
Q5.85938 10.9375 9.82812 15.625
Q13.8125 20.3125 21.3438 26.4688
Q33.0156 36.0312 37.1094 41.625
Q41.2188 47.2188 41.2188 52.2031
Q41.2188 57.4219 37.4688 61
Q33.7344 64.5938 27.7344 64.5938
Q21.3906 64.5938 17.5781 60.7812
Q13.7656 56.9844 13.7188 50.25
L4.6875 51.1719
Q5.60938 61.2812 11.6562 66.5781
Q17.7188 71.875 27.9375 71.875
Q38.2344 71.875 44.2344 66.1562
Q50.25 60.4531 50.25 52
Q50.25 47.7031 48.4844 43.5469
Q46.7344 39.4062 42.6562 34.8125
Q38.5781 30.2188 29.1094 22.2188
Q21.1875 15.5781 18.9375 13.2031
Q16.7031 10.8438 15.2344 8.45312
z
" id="ArialMT-32"/>
      </defs>
      <g transform="translate(156.63262303 371.115625)scale(0.2 -0.2)">
       <use xlink:href="#ArialMT-2d"/>
       <use x="33.30078125" xlink:href="#ArialMT-32"/>
      </g>
     </g>
    </g>
    <g id="xtick_5">
     <g id="line2d_15">
      <path clip-path="url(#p5bee155178)" d="
M217.21 352.8
L217.21 7.2" style="fill:none;stroke:#000000;stroke-dasharray:1.000000,3.000000;stroke-dashoffset:0.0;stroke-width:0.5;"/>
     </g>
     <g id="line2d_16">
      <g>
       <use style="stroke:#000000;stroke-width:0.5;" x="217.210498389" xlink:href="#m93b0483c22" y="352.8"/>
      </g>
     </g>
     <g id="line2d_17">
      <g>
       <use style="stroke:#000000;stroke-width:0.5;" x="217.210498389" xlink:href="#m741efc42ff" y="7.2"/>
      </g>
     </g>
     <g id="text_4">
      <!-- 0 -->
      <defs>
       <path d="
M4.15625 35.2969
Q4.15625 48 6.76562 55.7344
Q9.375 63.4844 14.5156 67.6719
Q19.6719 71.875 27.4844 71.875
Q33.25 71.875 37.5938 69.5469
Q41.9375 67.2344 44.7656 62.8594
Q47.6094 58.5 49.2188 52.2188
Q50.8281 45.9531 50.8281 35.2969
Q50.8281 22.7031 48.2344 14.9688
Q45.6562 7.23438 40.5 3
Q35.3594 -1.21875 27.4844 -1.21875
Q17.1406 -1.21875 11.2344 6.20312
Q4.15625 15.1406 4.15625 35.2969
M13.1875 35.2969
Q13.1875 17.6719 17.3125 11.8281
Q21.4375 6 27.4844 6
Q33.5469 6 37.6719 11.8594
Q41.7969 17.7188 41.7969 35.2969
Q41.7969 52.9844 37.6719 58.7812
Q33.5469 64.5938 27.3906 64.5938
Q21.3438 64.5938 17.7188 59.4688
Q13.1875 52.9375 13.1875 35.2969" id="ArialMT-30"/>
      </defs>
      <g transform="translate(212.543310889 371.115625)scale(0.2 -0.2)">
       <use xlink:href="#ArialMT-30"/>
      </g>
     </g>
    </g>
    <g id="xtick_6">
     <g id="line2d_18">
      <path clip-path="url(#p5bee155178)" d="
M269.741 352.8
L269.741 7.2" style="fill:none;stroke:#000000;stroke-dasharray:1.000000,3.000000;stroke-dashoffset:0.0;stroke-width:0.5;"/>
     </g>
     <g id="line2d_19">
      <g>
       <use style="stroke:#000000;stroke-width:0.5;" x="269.741498747" xlink:href="#m93b0483c22" y="352.8"/>
      </g>
     </g>
     <g id="line2d_20">
      <g>
       <use style="stroke:#000000;stroke-width:0.5;" x="269.741498747" xlink:href="#m741efc42ff" y="7.2"/>
      </g>
     </g>
     <g id="text_5">
      <!-- 2 -->
      <g transform="translate(265.000873747 371.115625)scale(0.2 -0.2)">
       <use xlink:href="#ArialMT-32"/>
      </g>
     </g>
    </g>
    <g id="xtick_7">
     <g id="line2d_21">
      <path clip-path="url(#p5bee155178)" d="
M322.272 352.8
L322.272 7.2" style="fill:none;stroke:#000000;stroke-dasharray:1.000000,3.000000;stroke-dashoffset:0.0;stroke-width:0.5;"/>
     </g>
     <g id="line2d_22">
      <g>
       <use style="stroke:#000000;stroke-width:0.5;" x="322.272499105" xlink:href="#m93b0483c22" y="352.8"/>
      </g>
     </g>
     <g id="line2d_23">
      <g>
       <use style="stroke:#000000;stroke-width:0.5;" x="322.272499105" xlink:href="#m741efc42ff" y="7.2"/>
      </g>
     </g>
     <g id="text_6">
      <!-- 4 -->
      <g transform="translate(317.320936605 371.115625)scale(0.2 -0.2)">
       <use xlink:href="#ArialMT-34"/>
      </g>
     </g>
    </g>
    <g id="xtick_8">
     <g id="line2d_24">
      <path clip-path="url(#p5bee155178)" d="
M374.803 352.8
L374.803 7.2" style="fill:none;stroke:#000000;stroke-dasharray:1.000000,3.000000;stroke-dashoffset:0.0;stroke-width:0.5;"/>
     </g>
     <g id="line2d_25">
      <g>
       <use style="stroke:#000000;stroke-width:0.5;" x="374.803499463" xlink:href="#m93b0483c22" y="352.8"/>
      </g>
     </g>
     <g id="line2d_26">
      <g>
       <use style="stroke:#000000;stroke-width:0.5;" x="374.803499463" xlink:href="#m741efc42ff" y="7.2"/>
      </g>
     </g>
     <g id="text_7">
      <!-- 6 -->
      <g transform="translate(370.076936963 371.115625)scale(0.2 -0.2)">
       <use xlink:href="#ArialMT-36"/>
      </g>
     </g>
    </g>
    <g id="xtick_9">
     <g id="line2d_27">
      <path clip-path="url(#p5bee155178)" d="
M427.334 352.8
L427.334 7.2" style="fill:none;stroke:#000000;stroke-dasharray:1.000000,3.000000;stroke-dashoffset:0.0;stroke-width:0.5;"/>
     </g>
     <g id="line2d_28">
      <g>
       <use style="stroke:#000000;stroke-width:0.5;" x="427.334499821" xlink:href="#m93b0483c22" y="352.8"/>
      </g>
     </g>
     <g id="line2d_29">
      <g>
       <use style="stroke:#000000;stroke-width:0.5;" x="427.334499821" xlink:href="#m741efc42ff" y="7.2"/>
      </g>
     </g>
     <g id="text_8">
      <!-- 8 -->
      <defs>
       <path d="
M17.6719 38.8125
Q12.2031 40.8281 9.5625 44.5312
Q6.9375 48.25 6.9375 53.4219
Q6.9375 61.2344 12.5469 66.5469
Q18.1719 71.875 27.4844 71.875
Q36.8594 71.875 42.5781 66.4219
Q48.2969 60.9844 48.2969 53.1719
Q48.2969 48.1875 45.6719 44.5
Q43.0625 40.8281 37.75 38.8125
Q44.3438 36.6719 47.7812 31.875
Q51.2188 27.0938 51.2188 20.4531
Q51.2188 11.2812 44.7188 5.03125
Q38.2344 -1.21875 27.6406 -1.21875
Q17.0469 -1.21875 10.5469 5.04688
Q4.04688 11.3281 4.04688 20.7031
Q4.04688 27.6875 7.59375 32.3906
Q11.1406 37.1094 17.6719 38.8125
M15.9219 53.7188
Q15.9219 48.6406 19.1875 45.4062
Q22.4688 42.1875 27.6875 42.1875
Q32.7656 42.1875 36.0156 45.375
Q39.2656 48.5781 39.2656 53.2188
Q39.2656 58.0625 35.9062 61.3594
Q32.5625 64.6562 27.5938 64.6562
Q22.5625 64.6562 19.2344 61.4219
Q15.9219 58.2031 15.9219 53.7188
M13.0938 20.6562
Q13.0938 16.8906 14.875 13.375
Q16.6562 9.85938 20.1719 7.92188
Q23.6875 6 27.7344 6
Q34.0312 6 38.125 10.0469
Q42.2344 14.1094 42.2344 20.3594
Q42.2344 26.7031 38.0156 30.8594
Q33.7969 35.0156 27.4375 35.0156
Q21.2344 35.0156 17.1562 30.9062
Q13.0938 26.8125 13.0938 20.6562" id="ArialMT-38"/>
      </defs>
      <g transform="translate(422.617312321 371.115625)scale(0.2 -0.2)">
       <use xlink:href="#ArialMT-38"/>
      </g>
     </g>
    </g>
    <g id="xtick_10"/>
    <g id="xtick_11">
     <g id="line2d_30">
      <defs>
       <path d="
M0 0
L0 -2" id="m177f7580d0" style="stroke:#000000;stroke-width:0.5;"/>
      </defs>
      <g>
       <use style="stroke:#000000;stroke-width:0.5;" x="59.6174973142" xlink:href="#m177f7580d0" y="352.8"/>
      </g>
     </g>
     <g id="line2d_31">
      <defs>
       <path d="
M0 0
L0 2" id="m5284c7e2a0" style="stroke:#000000;stroke-width:0.5;"/>
      </defs>
      <g>
       <use style="stroke:#000000;stroke-width:0.5;" x="59.6174973142" xlink:href="#m5284c7e2a0" y="7.2"/>
      </g>
     </g>
    </g>
    <g id="xtick_12">
     <g id="line2d_32">
      <g>
       <use style="stroke:#000000;stroke-width:0.5;" x="112.148497672" xlink:href="#m177f7580d0" y="352.8"/>
      </g>
     </g>
     <g id="line2d_33">
      <g>
       <use style="stroke:#000000;stroke-width:0.5;" x="112.148497672" xlink:href="#m5284c7e2a0" y="7.2"/>
      </g>
     </g>
    </g>
    <g id="xtick_13">
     <g id="line2d_34">
      <g>
       <use style="stroke:#000000;stroke-width:0.5;" x="164.67949803" xlink:href="#m177f7580d0" y="352.8"/>
      </g>
     </g>
     <g id="line2d_35">
      <g>
       <use style="stroke:#000000;stroke-width:0.5;" x="164.67949803" xlink:href="#m5284c7e2a0" y="7.2"/>
      </g>
     </g>
    </g>
    <g id="xtick_14">
     <g id="line2d_36">
      <g>
       <use style="stroke:#000000;stroke-width:0.5;" x="217.210498389" xlink:href="#m177f7580d0" y="352.8"/>
      </g>
     </g>
     <g id="line2d_37">
      <g>
       <use style="stroke:#000000;stroke-width:0.5;" x="217.210498389" xlink:href="#m5284c7e2a0" y="7.2"/>
      </g>
     </g>
    </g>
    <g id="xtick_15">
     <g id="line2d_38">
      <g>
       <use style="stroke:#000000;stroke-width:0.5;" x="269.741498747" xlink:href="#m177f7580d0" y="352.8"/>
      </g>
     </g>
     <g id="line2d_39">
      <g>
       <use style="stroke:#000000;stroke-width:0.5;" x="269.741498747" xlink:href="#m5284c7e2a0" y="7.2"/>
      </g>
     </g>
    </g>
    <g id="xtick_16">
     <g id="line2d_40">
      <g>
       <use style="stroke:#000000;stroke-width:0.5;" x="322.272499105" xlink:href="#m177f7580d0" y="352.8"/>
      </g>
     </g>
     <g id="line2d_41">
      <g>
       <use style="stroke:#000000;stroke-width:0.5;" x="322.272499105" xlink:href="#m5284c7e2a0" y="7.2"/>
      </g>
     </g>
    </g>
    <g id="xtick_17">
     <g id="line2d_42">
      <g>
       <use style="stroke:#000000;stroke-width:0.5;" x="374.803499463" xlink:href="#m177f7580d0" y="352.8"/>
      </g>
     </g>
     <g id="line2d_43">
      <g>
       <use style="stroke:#000000;stroke-width:0.5;" x="374.803499463" xlink:href="#m5284c7e2a0" y="7.2"/>
      </g>
     </g>
    </g>
    <g id="xtick_18">
     <g id="line2d_44">
      <g>
       <use style="stroke:#000000;stroke-width:0.5;" x="427.334499821" xlink:href="#m177f7580d0" y="352.8"/>
      </g>
     </g>
     <g id="line2d_45">
      <g>
       <use style="stroke:#000000;stroke-width:0.5;" x="427.334499821" xlink:href="#m5284c7e2a0" y="7.2"/>
      </g>
     </g>
    </g>
    <g id="text_9">
     <!-- log10 of Df -->
     <defs>
      <path d="
M4.98438 -4.29688
L13.5312 -5.5625
Q14.0625 -9.51562 16.5 -11.3281
Q19.7812 -13.7656 25.4375 -13.7656
Q31.5469 -13.7656 34.8594 -11.3281
Q38.1875 -8.89062 39.3594 -4.5
Q40.0469 -1.8125 39.9844 6.78125
Q34.2344 0 25.6406 0
Q14.9375 0 9.07812 7.71875
Q3.21875 15.4375 3.21875 26.2188
Q3.21875 33.6406 5.90625 39.9062
Q8.59375 46.1875 13.6875 49.6094
Q18.7969 53.0312 25.6875 53.0312
Q34.8594 53.0312 40.8281 45.6094
L40.8281 51.8594
L48.9219 51.8594
L48.9219 7.03125
Q48.9219 -5.07812 46.4531 -10.125
Q44 -15.1875 38.6406 -18.1094
Q33.2969 -21.0469 25.4844 -21.0469
Q16.2188 -21.0469 10.5 -16.875
Q4.78125 -12.7031 4.98438 -4.29688
M12.25 26.8594
Q12.25 16.6562 16.2969 11.9688
Q20.3594 7.28125 26.4688 7.28125
Q32.5156 7.28125 36.6094 11.9375
Q40.7188 16.6094 40.7188 26.5625
Q40.7188 36.0781 36.5 40.9062
Q32.2812 45.75 26.3125 45.75
Q20.4531 45.75 16.3438 40.9844
Q12.25 36.2344 12.25 26.8594" id="ArialMT-67"/>
      <path d="
M8.6875 0
L8.6875 45.0156
L0.921875 45.0156
L0.921875 51.8594
L8.6875 51.8594
L8.6875 57.375
Q8.6875 62.5938 9.625 65.1406
Q10.8906 68.5625 14.0781 70.6719
Q17.2812 72.7969 23.0469 72.7969
Q26.7656 72.7969 31.25 71.9219
L29.9375 64.2656
Q27.2031 64.75 24.75 64.75
Q20.75 64.75 19.0938 63.0312
Q17.4375 61.3281 17.4375 56.6406
L17.4375 51.8594
L27.5469 51.8594
L27.5469 45.0156
L17.4375 45.0156
L17.4375 0
z
" id="ArialMT-66"/>
      <path d="
M7.71875 0
L7.71875 71.5781
L32.375 71.5781
Q40.7188 71.5781 45.125 70.5625
Q51.2656 69.1406 55.6094 65.4375
Q61.2812 60.6406 64.0781 53.1875
Q66.8906 45.75 66.8906 36.1875
Q66.8906 28.0312 64.9844 21.7344
Q63.0938 15.4375 60.1094 11.2969
Q57.125 7.17188 53.5781 4.79688
Q50.0469 2.4375 45.0469 1.21875
Q40.0469 0 33.5469 0
z

M17.1875 8.45312
L32.4688 8.45312
Q39.5469 8.45312 43.5781 9.76562
Q47.6094 11.0781 50 13.4844
Q53.375 16.8438 55.25 22.5312
Q57.125 28.2188 57.125 36.3281
Q57.125 47.5625 53.4375 53.5938
Q49.75 59.625 44.4844 61.6719
Q40.6719 63.1406 32.2344 63.1406
L17.1875 63.1406
z
" id="ArialMT-44"/>
      <path d="
M6.39062 0
L6.39062 71.5781
L15.1875 71.5781
L15.1875 0
z
" id="ArialMT-6c"/>
      <path d="
M3.32812 25.9219
Q3.32812 40.3281 11.3281 47.2656
Q18.0156 53.0312 27.6406 53.0312
Q38.3281 53.0312 45.1094 46.0156
Q51.9062 39.0156 51.9062 26.6562
Q51.9062 16.6562 48.9062 10.9062
Q45.9062 5.17188 40.1562 2
Q34.4219 -1.17188 27.6406 -1.17188
Q16.75 -1.17188 10.0312 5.8125
Q3.32812 12.7969 3.32812 25.9219
M12.3594 25.9219
Q12.3594 15.9688 16.7031 11.0156
Q21.0469 6.0625 27.6406 6.0625
Q34.1875 6.0625 38.5312 11.0312
Q42.875 16.0156 42.875 26.2188
Q42.875 35.8438 38.5 40.7969
Q34.125 45.75 27.6406 45.75
Q21.0469 45.75 16.7031 40.8125
Q12.3594 35.8906 12.3594 25.9219" id="ArialMT-6f"/>
      <path d="
M37.25 0
L28.4688 0
L28.4688 56
Q25.2969 52.9844 20.1406 49.9531
Q14.9844 46.9219 10.8906 45.4062
L10.8906 53.9062
Q18.2656 57.375 23.7812 62.2969
Q29.2969 67.2344 31.5938 71.875
L37.25 71.875
z
" id="ArialMT-31"/>
      <path id="ArialMT-20"/>
     </defs>
     <g transform="translate(181.6921875 394.65)scale(0.2 -0.2)">
      <use xlink:href="#ArialMT-6c"/>
      <use x="22.216796875" xlink:href="#ArialMT-6f"/>
      <use x="77.83203125" xlink:href="#ArialMT-67"/>
      <use x="133.447265625" xlink:href="#ArialMT-31"/>
      <use x="189.0625" xlink:href="#ArialMT-30"/>
      <use x="244.677734375" xlink:href="#ArialMT-20"/>
      <use x="272.4609375" xlink:href="#ArialMT-6f"/>
      <use x="328.076171875" xlink:href="#ArialMT-66"/>
      <use x="355.859375" xlink:href="#ArialMT-20"/>
      <use x="383.642578125" xlink:href="#ArialMT-44"/>
      <use x="455.859375" xlink:href="#ArialMT-66"/>
     </g>
    </g>
   </g>
   <g id="matplotlib.axis_2">
    <g id="ytick_1">
     <g id="line2d_46">
      <path clip-path="url(#p5bee155178)" d="
M7.2 352.8
L453.6 352.8" style="fill:none;stroke:#000000;stroke-dasharray:1.000000,3.000000;stroke-dashoffset:0.0;stroke-width:0.5;"/>
     </g>
     <g id="line2d_47">
      <defs>
       <path d="
M0 0
L4 0" id="m728421d6d4" style="stroke:#000000;stroke-width:0.5;"/>
      </defs>
      <g>
       <use style="stroke:#000000;stroke-width:0.5;" x="7.2" xlink:href="#m728421d6d4" y="352.8"/>
      </g>
     </g>
     <g id="line2d_48">
      <defs>
       <path d="
M0 0
L-4 0" id="mcb0005524f" style="stroke:#000000;stroke-width:0.5;"/>
      </defs>
      <g>
       <use style="stroke:#000000;stroke-width:0.5;" x="453.6" xlink:href="#mcb0005524f" y="352.8"/>
      </g>
     </g>
    </g>
    <g id="ytick_2">
     <g id="line2d_49">
      <path clip-path="url(#p5bee155178)" d="
M7.2 284.364
L453.6 284.364" style="fill:none;stroke:#000000;stroke-dasharray:1.000000,3.000000;stroke-dashoffset:0.0;stroke-width:0.5;"/>
     </g>
     <g id="line2d_50">
      <g>
       <use style="stroke:#000000;stroke-width:0.5;" x="7.2" xlink:href="#m728421d6d4" y="284.364356436"/>
      </g>
     </g>
     <g id="line2d_51">
      <g>
       <use style="stroke:#000000;stroke-width:0.5;" x="453.6" xlink:href="#mcb0005524f" y="284.364356436"/>
      </g>
     </g>
    </g>
    <g id="ytick_3">
     <g id="line2d_52">
      <path clip-path="url(#p5bee155178)" d="
M7.2 215.929
L453.6 215.929" style="fill:none;stroke:#000000;stroke-dasharray:1.000000,3.000000;stroke-dashoffset:0.0;stroke-width:0.5;"/>
     </g>
     <g id="line2d_53">
      <g>
       <use style="stroke:#000000;stroke-width:0.5;" x="7.2" xlink:href="#m728421d6d4" y="215.928712871"/>
      </g>
     </g>
     <g id="line2d_54">
      <g>
       <use style="stroke:#000000;stroke-width:0.5;" x="453.6" xlink:href="#mcb0005524f" y="215.928712871"/>
      </g>
     </g>
    </g>
    <g id="ytick_4">
     <g id="line2d_55">
      <path clip-path="url(#p5bee155178)" d="
M7.2 147.493
L453.6 147.493" style="fill:none;stroke:#000000;stroke-dasharray:1.000000,3.000000;stroke-dashoffset:0.0;stroke-width:0.5;"/>
     </g>
     <g id="line2d_56">
      <g>
       <use style="stroke:#000000;stroke-width:0.5;" x="7.2" xlink:href="#m728421d6d4" y="147.493069307"/>
      </g>
     </g>
     <g id="line2d_57">
      <g>
       <use style="stroke:#000000;stroke-width:0.5;" x="453.6" xlink:href="#mcb0005524f" y="147.493069307"/>
      </g>
     </g>
    </g>
    <g id="ytick_5">
     <g id="line2d_58">
      <path clip-path="url(#p5bee155178)" d="
M7.2 79.0574
L453.6 79.0574" style="fill:none;stroke:#000000;stroke-dasharray:1.000000,3.000000;stroke-dashoffset:0.0;stroke-width:0.5;"/>
     </g>
     <g id="line2d_59">
      <g>
       <use style="stroke:#000000;stroke-width:0.5;" x="7.2" xlink:href="#m728421d6d4" y="79.0574257426"/>
      </g>
     </g>
     <g id="line2d_60">
      <g>
       <use style="stroke:#000000;stroke-width:0.5;" x="453.6" xlink:href="#mcb0005524f" y="79.0574257426"/>
      </g>
     </g>
    </g>
    <g id="ytick_6">
     <g id="line2d_61">
      <path clip-path="url(#p5bee155178)" d="
M7.2 10.6218
L453.6 10.6218" style="fill:none;stroke:#000000;stroke-dasharray:1.000000,3.000000;stroke-dashoffset:0.0;stroke-width:0.5;"/>
     </g>
     <g id="line2d_62">
      <g>
       <use style="stroke:#000000;stroke-width:0.5;" x="7.2" xlink:href="#m728421d6d4" y="10.6217821782"/>
      </g>
     </g>
     <g id="line2d_63">
      <g>
       <use style="stroke:#000000;stroke-width:0.5;" x="453.6" xlink:href="#mcb0005524f" y="10.6217821782"/>
      </g>
     </g>
    </g>
   </g>
   <g id="patch_3">
    <path d="
M7.2 7.2
L453.6 7.2" style="fill:none;stroke:#000000;"/>
   </g>
   <g id="patch_4">
    <path d="
M453.6 352.8
L453.6 7.2" style="fill:none;stroke:#000000;"/>
   </g>
   <g id="patch_5">
    <path d="
M7.2 352.8
L453.6 352.8" style="fill:none;stroke:#000000;"/>
   </g>
   <g id="patch_6">
    <path d="
M7.2 352.8
L7.2 7.2" style="fill:none;stroke:#000000;"/>
   </g>
   <g id="text_10">
    <!-- {f1-f24}, 5-D -->
    <defs>
     <path d="
M30.5625 29.8906
L30.5625 21.9219
Q26.8125 21.8281 24.4375 19.875
Q22.0781 17.9219 21.2969 14.5781
Q20.5156 11.2344 20.4531 3.07812
Q20.4062 -5.07812 20.1719 -7.67188
Q19.7344 -11.8125 18.5312 -14.2812
Q17.3281 -16.75 15.5625 -18.2344
Q13.8125 -19.7344 11.0781 -20.5156
Q9.23438 -21.0469 5.03125 -21.0469
L2.29688 -21.0469
L2.29688 -13.375
L3.8125 -13.375
Q8.89062 -13.375 10.5469 -11.5469
Q12.2031 -9.71875 12.2031 -3.32812
Q12.2031 8.89062 12.6406 12.1562
Q13.4219 17.5781 15.7656 20.8281
Q18.1094 24.0781 22.4062 25.875
Q16.7969 28.5625 14.5 32.9844
Q12.2031 37.4062 12.2031 47.9062
Q12.2031 57.4219 11.9688 59.2812
Q11.625 62.5469 10.0312 63.8438
Q8.45312 65.1406 3.8125 65.1406
L2.29688 65.1406
L2.29688 72.7969
L5.03125 72.7969
Q9.8125 72.7969 11.9688 72.0156
Q15.0938 70.9531 17.1406 68.4062
Q19.1875 65.875 19.7969 62.0156
Q20.4062 58.1562 20.4531 49.3594
Q20.5156 40.5781 21.2969 37.2344
Q22.0781 33.8906 24.4375 31.9375
Q26.8125 29.9844 30.5625 29.8906" id="ArialMT-7d"/>
     <path d="
M8.89062 0
L8.89062 10.0156
L18.8906 10.0156
L18.8906 0
Q18.8906 -5.51562 16.9375 -8.90625
Q14.9844 -12.3125 10.75 -14.1562
L8.29688 -10.4062
Q11.0781 -9.1875 12.3906 -6.8125
Q13.7188 -4.4375 13.875 0
z
" id="ArialMT-2c"/>
     <path d="
M4.15625 18.75
L13.375 19.5312
Q14.4062 12.7969 18.1406 9.39062
Q21.875 6 27.1562 6
Q33.5 6 37.8906 10.7812
Q42.2812 15.5781 42.2812 23.4844
Q42.2812 31 38.0625 35.3438
Q33.8438 39.7031 27 39.7031
Q22.75 39.7031 19.3281 37.7656
Q15.9219 35.8438 13.9688 32.7656
L5.71875 33.8438
L12.6406 70.6094
L48.25 70.6094
L48.25 62.2031
L19.6719 62.2031
L15.8281 42.9688
Q22.2656 47.4688 29.3438 47.4688
Q38.7188 47.4688 45.1562 40.9688
Q51.6094 34.4688 51.6094 24.2656
Q51.6094 14.5469 45.9531 7.46875
Q39.0625 -1.21875 27.1562 -1.21875
Q17.3906 -1.21875 11.2031 4.25
Q5.03125 9.71875 4.15625 18.75" id="ArialMT-35"/>
     <path d="
M2.78125 29.8906
Q6.54688 29.9844 8.90625 31.9062
Q11.2812 33.8438 12.0625 37.2031
Q12.8438 40.5781 12.8906 48.7344
Q12.9375 56.8906 13.1875 59.4688
Q13.625 63.5781 14.8125 66.0625
Q16.0156 68.5625 17.7656 70.0469
Q19.5312 71.5312 22.2656 72.3125
Q24.125 72.7969 28.3281 72.7969
L31.0625 72.7969
L31.0625 65.1406
L29.5469 65.1406
Q24.4688 65.1406 22.7969 63.2969
Q21.1406 61.4688 21.1406 55.125
Q21.1406 42.3281 20.6094 38.9688
Q19.7344 33.7344 17.6094 30.9062
Q15.4844 28.0781 10.9375 25.875
Q16.3125 23.6406 18.7188 19.0156
Q21.1406 14.4062 21.1406 3.90625
Q21.1406 -5.60938 21.3438 -7.42188
Q21.7344 -10.75 23.3125 -12.0625
Q24.9062 -13.375 29.5469 -13.375
L31.0625 -13.375
L31.0625 -21.0469
L28.3281 -21.0469
Q23.5312 -21.0469 21.3906 -20.2656
Q18.2656 -19.1406 16.2031 -16.625
Q14.1562 -14.1094 13.5469 -10.25
Q12.9375 -6.39062 12.8906 2.39062
Q12.8438 11.1875 12.0625 14.5469
Q11.2812 17.9219 8.90625 19.875
Q6.54688 21.8281 2.78125 21.9219
z
" id="ArialMT-7b"/>
    </defs>
    <g transform="translate(337.900125 345.888)scale(0.2 -0.2)">
     <use xlink:href="#ArialMT-7b"/>
     <use x="33.3984375" xlink:href="#ArialMT-66"/>
     <use x="61.181640625" xlink:href="#ArialMT-31"/>
     <use x="116.796875" xlink:href="#ArialMT-2d"/>
     <use x="150.09765625" xlink:href="#ArialMT-66"/>
     <use x="177.880859375" xlink:href="#ArialMT-32"/>
     <use x="233.49609375" xlink:href="#ArialMT-34"/>
     <use x="289.111328125" xlink:href="#ArialMT-7d"/>
     <use x="322.509765625" xlink:href="#ArialMT-2c"/>
     <use x="350.29296875" xlink:href="#ArialMT-20"/>
     <use x="378.076171875" xlink:href="#ArialMT-35"/>
     <use x="433.69140625" xlink:href="#ArialMT-2d"/>
     <use x="466.9921875" xlink:href="#ArialMT-44"/>
    </g>
   </g>
   <g id="text_11">
    <!-- 1.2.1.2 -->
    <defs>
     <path d="
M9.07812 0
L9.07812 10.0156
L19.0938 10.0156
L19.0938 0
z
" id="ArialMT-2e"/>
    </defs>
    <g style="fill:#808080;" transform="translate(215.91875 347.3565)scale(0.1 -0.1)">
     <use xlink:href="#ArialMT-31"/>
     <use x="55.615234375" xlink:href="#ArialMT-2e"/>
     <use x="83.3984375" xlink:href="#ArialMT-32"/>
     <use x="139.013671875" xlink:href="#ArialMT-2e"/>
     <use x="166.796875" xlink:href="#ArialMT-31"/>
     <use x="222.412109375" xlink:href="#ArialMT-2e"/>
     <use x="250.1953125" xlink:href="#ArialMT-32"/>
    </g>
   </g>
  </g>
 </g>
 <defs>
  <clipPath id="p5bee155178">
   <rect height="345.6" width="446.4" x="7.2" y="7.2"/>
  </clipPath>
 </defs>
</svg>
