<?xml version="1.0" encoding="utf-8" standalone="no"?>
<!DOCTYPE svg PUBLIC "-//W3C//DTD SVG 1.1//EN"
  "http://www.w3.org/Graphics/SVG/1.1/DTD/svg11.dtd">
<!-- Created with matplotlib (http://matplotlib.org/) -->
<svg height="406pt" version="1.1" viewBox="0 0 460 406" width="460pt" xmlns="http://www.w3.org/2000/svg" xmlns:xlink="http://www.w3.org/1999/xlink">
 <defs>
  <style type="text/css">
*{stroke-linecap:butt;stroke-linejoin:round;}
  </style>
 </defs>
 <g id="figure_1">
  <g id="patch_1">
   <path d="
M0 406.059
L460.8 406.059
L460.8 0
L0 0
z
" style="fill:#ffffff;"/>
  </g>
  <g id="axes_1">
   <g id="patch_2">
    <path d="
M7.2 352.8
L453.6 352.8
L453.6 7.2
L7.2 7.2
z
" style="fill:#ffffff;"/>
   </g>
   <g id="line2d_1">
    <path clip-path="url(#p5bee155178)" d="
M7.0865 352.8
L7.0865 351.85
L7.0865 351.85
L7.0865 351.85
L7.0865 350.899
L7.0865 350.899
L7.0865 350.899
L7.0865 349.949
L7.0865 349.949
L7.0865 349.949
L7.0865 348.998
L7.0865 348.998
L7.0865 348.998
L7.0865 348.048
L7.0865 348.048
L7.0865 348.048
L7.0865 347.097
L152.233 347.097
L152.233 346.147
L184.872 346.147
L184.872 345.196
L195.6 345.196
L195.6 344.246
L199.311 344.246
L199.311 343.295
L201.414 343.295
L201.414 329.038
L203.177 329.038
L203.177 328.087
L204.293 328.087
L204.293 327.137
L204.415 327.137
L204.415 326.186
L208.291 326.186
L208.291 325.236
L209.205 325.236
L209.205 324.285
L211.449 324.285
L211.449 323.335
L213.207 323.335
L213.207 322.384
L213.819 322.384
L213.819 321.434
L214.023 321.434
L214.023 320.483
L214.217 320.483
L214.217 319.533
L217.845 319.533
L217.845 318.582
L218.362 318.582
L218.362 317.632
L218.83 317.632
L218.916 315.731
L219.093 315.731
L219.093 314.78
L220.023 314.78
L220.023 313.83
L220.724 313.83
L220.724 312.879
L221.28 312.879
L221.28 311.929
L221.78 311.929
L221.78 310.978
L222.47 310.978
L222.47 310.028
L222.864 310.028
L222.864 309.077
L223.25 309.077
L223.278 307.176
L223.438 307.176
L223.456 305.275
L224.067 305.275
L224.067 304.325
L224.633 304.325
L224.633 303.374
L224.846 303.374
L224.846 302.424
L225.056 302.424
L225.056 301.473
L225.22 301.473
L225.22 300.523
L225.422 300.523
L225.428 298.622
L225.583 298.622
L225.583 297.671
L225.787 297.671
L225.859 295.77
L226.034 295.77
L226.034 294.82
L226.215 294.82
L226.215 293.869
L226.496 293.869
L226.496 292.919
L226.684 292.919
L226.684 291.968
L227.018 291.968
L227.018 291.018
L227.176 291.018
L227.176 290.067
L227.305 290.067
L227.305 289.117
L227.44 289.117
L227.534 287.216
L228.504 287.216
L228.504 286.265
L228.912 286.265
L228.912 285.315
L229.143 285.315
L229.194 283.414
L229.643 283.414
L229.643 282.463
L229.785 282.463
L229.785 281.513
L229.99 281.513
L230.004 279.612
L230.242 279.612
L230.279 277.711
L230.755 277.711
L230.755 276.76
L231.685 276.76
L231.685 275.81
L231.862 275.81
L231.862 274.859
L232.342 274.859
L232.342 273.909
L232.529 273.909
L232.529 272.958
L232.971 272.958
L232.971 272.008
L234.18 272.008
L234.18 271.057
L234.428 271.057
L234.431 269.156
L234.626 269.156
L234.626 268.206
L235.053 268.206
L235.053 267.255
L235.763 267.255
L235.763 266.305
L236.721 266.305
L236.814 264.404
L237.605 264.404
L237.605 263.453
L238.315 263.453
L238.352 261.552
L238.482 261.552
L238.482 260.602
L238.643 260.602
L238.643 259.651
L238.862 259.651
L238.92 257.75
L238.977 257.75
L238.977 256.8
L239.181 256.8
L239.181 255.85
L239.856 255.85
L239.856 254.899
L239.982 254.899
L239.982 253.949
L240.136 253.949
L240.136 252.998
L240.276 252.998
L240.296 250.147
L240.417 250.147
L240.417 249.196
L240.91 249.196
L240.98 247.295
L241.184 247.295
L241.184 246.345
L241.674 246.345
L241.682 244.444
L241.981 244.444
L241.981 243.493
L242.181 243.493
L242.181 242.543
L242.384 242.543
L242.384 241.592
L243.149 241.592
L243.233 238.741
L243.435 238.741
L243.445 236.84
L243.817 236.84
L243.923 234.939
L244.383 234.939
L244.433 232.087
L245.437 232.087
L245.437 231.137
L245.796 231.137
L245.796 230.186
L246.109 230.186
L246.199 227.335
L246.401 227.335
L246.466 225.434
L247.033 225.434
L247.121 223.533
L247.683 223.533
L247.708 221.632
L248.706 221.632
L248.717 219.731
L248.823 219.731
L248.823 218.78
L249.454 218.78
L249.454 217.83
L249.596 217.83
L249.611 215.929
L250.237 215.929
L250.237 214.978
L250.477 214.978
L250.573 213.077
L250.737 213.077
L250.786 211.176
L250.894 211.176
L250.894 210.226
L251.062 210.226
L251.062 209.275
L251.217 209.275
L251.217 208.325
L251.666 208.325
L251.666 207.374
L251.798 207.374
L251.798 206.424
L252.077 206.424
L252.077 205.473
L252.453 205.473
L252.453 204.523
L252.68 204.523
L252.68 203.572
L253.058 203.572
L253.058 202.622
L253.285 202.622
L253.285 201.671
L253.406 201.671
L253.425 199.77
L253.643 199.77
L253.643 198.82
L253.784 198.82
L253.784 197.869
L253.985 197.869
L253.985 196.919
L254.375 196.919
L254.486 183.612
L254.617 183.612
L254.617 182.661
L254.901 182.661
L254.901 181.711
L255.296 181.711
L255.296 180.76
L255.576 180.76
L255.576 179.81
L255.917 179.81
L256.002 177.909
L256.358 177.909
L256.358 176.958
L256.917 176.958
L257.009 174.107
L257.043 174.107
L257.043 173.156
L257.499 173.156
L257.499 172.206
L257.792 172.206
L257.792 171.255
L258.39 171.255
L258.39 170.305
L258.518 170.305
L258.576 168.404
L258.739 168.404
L258.785 166.503
L258.994 166.503
L259.071 162.701
L259.161 162.701
L259.23 160.8
L259.342 160.8
L259.347 158.899
L259.709 158.899
L259.709 157.949
L259.875 157.949
L259.958 156.048
L260.144 156.048
L260.156 154.147
L260.609 154.147
L260.646 152.246
L261.074 152.246
L261.167 148.444
L261.268 148.444
L261.32 146.543
L261.617 146.543
L261.725 144.642
L261.936 144.642
L261.936 143.691
L262.136 143.691
L262.136 142.741
L262.554 142.741
L262.554 141.79
L262.675 141.79
L262.778 139.889
L263.187 139.889
L263.187 138.939
L263.373 138.939
L263.418 137.038
L263.656 137.038
L263.656 136.087
L263.994 136.087
L263.994 135.137
L264.172 135.137
L264.271 133.236
L264.315 133.236
L264.315 132.285
L264.487 132.285
L264.487 131.335
L264.689 131.335
L264.689 130.384
L265.526 130.384
L265.608 126.582
L265.638 126.582
L265.712 124.681
L265.908 124.681
L265.908 123.731
L266.185 123.731
L266.185 122.78
L266.348 122.78
L266.348 121.83
L266.67 121.83
L266.759 119.929
L267.785 119.929
L267.853 118.028
L268.252 118.028
L268.309 116.127
L268.465 116.127
L268.465 115.176
L268.732 115.176
L268.767 113.275
L269.162 113.275
L269.162 112.325
L269.301 112.325
L269.312 109.473
L269.469 109.473
L269.469 108.523
L269.632 108.523
L269.632 107.572
L269.859 107.572
L269.875 105.671
L270.351 105.671
L270.351 104.721
L270.512 104.721
L270.542 102.82
L270.648 102.82
L270.671 100.919
L271.278 100.919
L271.278 99.9683
L271.933 99.9683
L271.933 99.0178
L272.138 99.0178
L272.218 96.1663
L272.862 96.1663
L272.862 95.2158
L273.166 95.2158
L273.166 94.2653
L273.825 94.2653
L273.825 93.3149
L273.973 93.3149
L273.973 92.3644
L274.156 92.3644
L274.156 91.4139
L274.312 91.4139
L274.312 90.4634
L274.942 90.4634
L274.942 89.5129
L275.215 89.5129
L275.215 88.5624
L275.757 88.5624
L275.858 85.7109
L275.932 85.7109
L275.932 84.7604
L276.208 84.7604
L276.208 83.8099
L276.919 83.8099
L276.919 82.8594
L277.05 82.8594
L277.05 81.9089
L277.393 81.9089
L277.393 80.9584
L277.988 80.9584
L277.988 80.0079
L278.299 80.0079
L278.299 79.0574
L279.203 79.0574
L279.203 78.1069
L279.658 78.1069
L279.658 77.1564
L280.41 77.1564
L280.41 76.2059
L281.021 76.2059
L281.047 74.305
L281.64 74.305
L281.64 73.3545
L282.347 73.3545
L282.347 72.404
L282.528 72.404
L282.528 71.4535
L282.946 71.4535
L282.946 70.503
L283.935 70.503
L283.935 69.5525
L284.452 69.5525
L284.452 68.602
L286.532 68.602
L286.532 67.6515
L286.849 67.6515
L286.849 66.701
L287.402 66.701
L287.402 65.7505
L287.881 65.7505
L287.881 64.8
L288.987 64.8
L288.987 63.8495
L289.155 63.8495
L289.155 62.899
L292.015 62.899
L292.015 61.9485
L293.222 61.9485
L293.222 60.998
L294.821 60.998
L294.821 60.0475
L296.801 60.0475
L296.801 59.097
L297.006 59.097
L297.006 58.1465
L297.768 58.1465
L297.768 57.196
L298.227 57.196
L298.227 56.2455
L298.71 56.2455
L298.71 55.295
L300.362 55.295
L300.362 54.3446
L300.648 54.3446
L300.648 53.3941
L302.282 53.3941
L302.282 52.4436
L308.655 52.4436
L308.655 51.4931
L308.779 51.4931
L308.779 50.5426
L309.467 50.5426
L309.467 49.5921
L311.432 49.5921
L311.432 48.6416
L313.113 48.6416
L313.172 46.7406
L314.727 46.7406
L314.727 45.7901
L315.059 45.7901
L315.059 44.8396
L316.348 44.8396
L316.348 43.8891
L317.412 43.8891
L317.412 42.9386
L317.703 42.9386
L317.703 41.9881
L319.563 41.9881
L319.563 41.0376
L322.802 41.0376
L322.802 40.0871
L325.221 40.0871
L325.221 39.1366
L325.837 39.1366
L325.945 37.2356
L329.117 37.2356
L329.117 36.2851
L329.55 36.2851
L329.55 35.3347
L330.193 35.3347
L330.193 34.3842
L331.181 34.3842
L331.223 32.4832
L331.678 32.4832
L331.678 31.5327
L332.436 31.5327
L332.436 30.5822
L335.121 30.5822
L335.121 29.6317
L335.807 29.6317
L335.807 28.6812
L337.207 28.6812
L337.207 27.7307
L338.072 27.7307
L338.072 26.7802
L346.046 26.7802
L346.046 25.8297
L346.874 25.8297
L346.949 23.9287
L348.039 23.9287
L348.039 22.9782
L351.406 22.9782
L351.406 22.0277
L355.768 22.0277
L355.768 21.0772
L367.397 21.0772
L367.397 20.1267
L371.973 20.1267
L371.973 19.1762
L376.615 19.1762
L376.615 18.2257
L377.734 18.2257
L377.734 17.2752
L378.534 17.2752
L378.534 16.3248
L386.265 16.3248
L386.265 15.3743
L387.521 15.3743
L387.521 14.4238
L388.304 14.4238
L388.304 13.4733
L404.081 13.4733
L404.081 12.5228
L410.259 12.5228
L410.259 11.5723
L431.695 11.5723
L431.695 10.6218
L431.695 10.6218
L453.6 10.6218
L453.6 10.6218" style="fill:none;stroke:#ff0000;stroke-linecap:square;stroke-width:3.0;"/>
   </g>
   <g id="line2d_2">
    <path clip-path="url(#p5bee155178)" d="
M201.414 352.8
L201.414 351.85
L201.414 351.85
L201.414 351.85
L201.414 350.899
L201.414 350.899
L201.414 350.899
L201.414 349.949
L201.414 349.949
L201.414 349.949
L201.414 348.998
L201.414 348.998
L201.414 348.998
L201.414 348.048
L201.414 348.048
L201.414 348.048
L201.414 347.097
L201.414 347.097
L201.414 347.097
L201.414 346.147
L201.414 346.147
L201.414 346.147
L201.414 345.196
L201.414 345.196
L201.414 345.196
L201.414 344.246
L201.414 344.246
L201.414 344.246
L201.414 343.295
L201.414 343.295
L201.414 343.295
L201.414 342.345
L201.414 342.345
L201.414 342.345
L201.414 341.394
L201.414 341.394
L201.414 341.394
L201.414 340.444
L201.414 340.444
L201.414 340.444
L201.414 339.493
L201.414 339.493
L201.414 339.493
L201.414 338.543
L214.023 338.543
L214.023 337.592
L229.068 337.592
L229.068 336.642
L230.744 336.642
L230.744 335.691
L231.981 335.691
L231.981 334.741
L235.599 334.741
L235.599 333.79
L236.926 333.79
L236.926 332.84
L237.243 332.84
L237.243 331.889
L238.311 331.889
L238.311 330.939
L238.937 330.939
L238.977 329.038
L239.205 329.038
L239.205 328.087
L240.015 328.087
L240.015 327.137
L240.157 327.137
L240.157 326.186
L240.276 326.186
L240.276 325.236
L240.84 325.236
L240.84 324.285
L241.682 324.285
L241.682 323.335
L242.069 323.335
L242.069 322.384
L243.09 322.384
L243.198 320.483
L244.165 320.483
L244.237 318.582
L245.019 318.582
L245.019 317.632
L246.311 317.632
L246.313 315.731
L246.569 315.731
L246.569 314.78
L246.756 314.78
L246.756 313.83
L246.963 313.83
L246.963 312.879
L248.33 312.879
L248.33 311.929
L248.453 311.929
L248.545 310.028
L248.668 310.028
L248.668 309.077
L249.155 309.077
L249.155 308.127
L249.426 308.127
L249.454 306.226
L249.579 306.226
L249.619 304.325
L250.39 304.325
L250.39 303.374
L251.365 303.374
L251.428 301.473
L251.666 301.473
L251.666 300.523
L252.68 300.523
L252.749 296.721
L253.087 296.721
L253.087 295.77
L253.285 295.77
L253.285 294.82
L253.568 294.82
L253.568 293.869
L254.375 293.869
L254.416 278.661
L254.676 278.661
L254.676 277.711
L255.374 277.711
L255.374 276.76
L255.494 276.76
L255.494 275.81
L255.797 275.81
L255.797 274.859
L255.917 274.859
L256.002 272.958
L256.099 272.958
L256.099 272.008
L256.251 272.008
L256.306 269.156
L256.379 269.156
L256.379 268.206
L256.528 268.206
L256.634 265.354
L256.986 265.354
L256.986 264.404
L257.399 264.404
L257.499 262.503
L257.511 262.503
L257.617 259.651
L257.682 259.651
L257.682 258.701
L258.411 258.701
L258.411 257.75
L258.629 257.75
L258.629 256.8
L259.077 256.8
L259.077 255.85
L259.251 255.85
L259.251 254.899
L259.523 254.899
L259.523 253.949
L260.111 253.949
L260.111 252.998
L260.375 252.998
L260.458 251.097
L260.648 251.097
L260.648 250.147
L261.013 250.147
L261.062 248.246
L261.242 248.246
L261.242 247.295
L262.336 247.295
L262.336 246.345
L262.483 246.345
L262.483 245.394
L262.736 245.394
L262.736 244.444
L263.082 244.444
L263.082 243.493
L263.456 243.493
L263.536 241.592
L263.656 241.592
L263.716 239.691
L263.862 239.691
L263.872 237.79
L264.172 237.79
L264.276 234.939
L264.315 234.939
L264.325 233.038
L264.432 233.038
L264.487 231.137
L264.589 231.137
L264.689 228.285
L265.034 228.285
L265.065 226.384
L265.503 226.384
L265.576 223.533
L265.664 223.533
L265.772 219.731
L265.842 219.731
L265.842 218.78
L266.026 218.78
L266.026 217.83
L266.146 217.83
L266.196 214.978
L266.264 214.978
L266.331 213.077
L266.475 213.077
L266.576 210.226
L266.592 210.226
L266.701 207.374
L266.759 207.374
L266.759 206.424
L267.277 206.424
L267.277 205.473
L267.533 205.473
L267.533 204.523
L267.648 204.523
L267.648 203.572
L267.805 203.572
L267.805 202.622
L268.006 202.622
L268.114 199.77
L268.14 199.77
L268.198 197.869
L268.316 197.869
L268.316 196.919
L268.465 196.919
L268.503 195.018
L268.741 195.018
L268.767 193.117
L269.067 193.117
L269.162 191.216
L269.301 191.216
L269.312 188.364
L269.652 188.364
L269.652 187.414
L270.045 187.414
L270.152 185.513
L270.339 185.513
L270.339 184.562
L270.484 184.562
L270.512 181.711
L270.6 181.711
L270.648 175.057
L270.754 175.057
L270.754 174.107
L271.227 174.107
L271.25 172.206
L271.548 172.206
L271.648 168.404
L271.875 168.404
L271.972 166.503
L272.204 166.503
L272.204 165.552
L272.476 165.552
L272.476 164.602
L272.666 164.602
L272.666 163.651
L272.781 163.651
L272.781 162.701
L273.753 162.701
L273.857 159.85
L273.886 159.85
L273.886 158.899
L274.114 158.899
L274.114 157.949
L274.451 157.949
L274.557 156.048
L274.751 156.048
L274.751 155.097
L275.858 155.097
L275.858 154.147
L276.677 154.147
L276.677 153.196
L276.867 153.196
L276.867 152.246
L277.176 152.246
L277.176 151.295
L277.423 151.295
L277.501 149.394
L277.67 149.394
L277.67 148.444
L277.992 148.444
L277.992 147.493
L278.907 147.493
L278.907 146.543
L279.203 146.543
L279.225 144.642
L279.997 144.642
L279.997 143.691
L280.205 143.691
L280.205 142.741
L280.397 142.741
L280.397 141.79
L280.557 141.79
L280.655 137.988
L281.072 137.988
L281.173 136.087
L282.042 136.087
L282.042 135.137
L282.294 135.137
L282.294 134.186
L282.414 134.186
L282.414 133.236
L282.529 133.236
L282.529 132.285
L283.744 132.285
L283.845 130.384
L285.069 130.384
L285.069 129.434
L285.822 129.434
L285.822 128.483
L286.385 128.483
L286.385 127.533
L286.849 127.533
L286.849 126.582
L287.259 126.582
L287.259 125.632
L289.177 125.632
L289.177 124.681
L289.878 124.681
L289.878 123.731
L290.14 123.731
L290.14 122.78
L291.159 122.78
L291.159 121.83
L292.464 121.83
L292.464 120.879
L293.085 120.879
L293.085 119.929
L293.24 119.929
L293.306 118.028
L293.4 118.028
L293.4 117.077
L293.814 117.077
L293.814 116.127
L295.214 116.127
L295.214 115.176
L296.247 115.176
L296.247 114.226
L296.448 114.226
L296.543 112.325
L298.158 112.325
L298.158 111.374
L298.71 111.374
L298.759 109.473
L299.235 109.473
L299.235 108.523
L300.689 108.523
L300.689 107.572
L300.971 107.572
L300.971 106.622
L303.415 106.622
L303.415 105.671
L307.42 105.671
L307.42 104.721
L312.49 104.721
L312.49 103.77
L314.8 103.77
L314.8 102.82
L317.52 102.82
L317.52 88.5624
L323.837 88.5624
L323.837 87.6119
L325.945 87.6119
L325.945 86.6614
L326.099 86.6614
L326.099 85.7109
L326.488 85.7109
L326.5 83.8099
L329.139 83.8099
L329.139 82.8594
L331.081 82.8594
L331.081 81.9089
L332.26 81.9089
L332.364 80.0079
L333.489 80.0079
L333.489 79.0574
L334.487 79.0574
L334.487 78.1069
L339.159 78.1069
L339.159 77.1564
L341.732 77.1564
L341.801 75.2554
L343.219 75.2554
L343.219 74.305
L344.403 74.305
L344.403 73.3545
L346.3 73.3545
L346.3 72.404
L348.22 72.404
L348.263 70.503
L348.98 70.503
L348.98 69.5525
L349.417 69.5525
L349.417 68.602
L349.869 68.602
L349.879 66.701
L352.588 66.701
L352.588 65.7505
L354.003 65.7505
L354.003 64.8
L355.251 64.8
L355.251 63.8495
L357.341 63.8495
L357.341 62.899
L357.916 62.899
L357.916 61.9485
L358.088 61.9485
L358.088 60.998
L360.665 60.998
L360.665 60.0475
L362.189 60.0475
L362.189 59.097
L362.584 59.097
L362.584 58.1465
L362.721 58.1465
L362.721 57.196
L363.197 57.196
L363.197 56.2455
L365.314 56.2455
L365.314 55.295
L369.926 55.295
L369.926 54.3446
L370.798 54.3446
L370.798 53.3941
L371.785 53.3941
L371.785 52.4436
L373.314 52.4436
L373.314 51.4931
L375.949 51.4931
L376.043 49.5921
L378.043 49.5921
L378.043 48.6416
L384.465 48.6416
L384.561 46.7406
L385.103 46.7406
L385.103 45.7901
L386.851 45.7901
L386.851 44.8396
L388.707 44.8396
L388.707 43.8891
L389.649 43.8891
L389.649 42.9386
L391.454 42.9386
L391.537 41.0376
L391.617 41.0376
L391.617 40.0871
L392.378 40.0871
L392.378 39.1366
L393.029 39.1366
L393.029 38.1861
L394.136 38.1861
L394.136 37.2356
L395.03 37.2356
L395.082 35.3347
L395.312 35.3347
L395.312 34.3842
L395.512 34.3842
L395.512 33.4337
L398.14 33.4337
L398.14 32.4832
L399.274 32.4832
L399.274 31.5327
L399.761 31.5327
L399.761 30.5822
L402.128 30.5822
L402.128 29.6317
L402.681 29.6317
L402.681 28.6812
L403.203 28.6812
L403.203 27.7307
L403.816 27.7307
L403.831 25.8297
L404.038 25.8297
L404.134 23.9287
L406.119 23.9287
L406.119 22.9782
L407.838 22.9782
L407.919 21.0772
L411.322 21.0772
L411.322 20.1267
L411.947 20.1267
L411.947 19.1762
L414.445 19.1762
L414.545 17.2752
L414.604 17.2752
L414.604 16.3248
L415.888 16.3248
L415.888 15.3743
L417.701 15.3743
L417.701 14.4238
L419.752 14.4238
L419.752 13.4733
L432.131 13.4733
L432.131 12.5228
L432.989 12.5228
L432.989 11.5723
L441.332 11.5723
L441.332 10.6218
L441.332 10.6218
L453.6 10.6218
L453.6 10.6218" style="fill:none;stroke:#00bfbf;stroke-linecap:square;"/>
   </g>
   <g id="line2d_3">
    <path clip-path="url(#p5bee155178)" d="
M201.414 352.8
L201.414 351.85
L201.414 351.85
L201.414 351.85
L201.414 350.899
L201.414 350.899
L201.414 350.899
L201.414 349.949
L201.414 349.949
L201.414 349.949
L201.414 348.998
L201.414 348.998
L201.414 348.998
L201.414 348.048
L201.414 348.048
L201.414 348.048
L201.414 347.097
L201.414 347.097
L201.414 347.097
L201.414 346.147
L201.414 346.147
L201.414 346.147
L201.414 345.196
L201.414 345.196
L201.414 345.196
L201.414 344.246
L201.414 344.246
L201.414 344.246
L201.414 343.295
L201.414 343.295
L201.414 343.295
L201.414 342.345
L201.414 342.345
L201.414 342.345
L201.414 341.394
L201.414 341.394
L201.414 341.394
L201.414 340.444
L201.414 340.444
L201.414 340.444
L201.414 339.493
L201.414 339.493
L201.414 339.493
L201.414 338.543
L214.023 338.543
L214.023 337.592
L228.991 337.592
L228.991 336.642
L230.744 336.642
L230.744 335.691
L231.981 335.691
L231.981 334.741
L234.458 334.741
L234.458 333.79
L234.576 333.79
L234.576 332.84
L235.599 332.84
L235.599 331.889
L236.926 331.889
L236.926 330.939
L237.243 330.939
L237.243 329.988
L237.927 329.988
L237.927 329.038
L238.937 329.038
L238.977 327.137
L239.843 327.137
L239.952 325.236
L240.157 325.236
L240.157 324.285
L240.276 324.285
L240.276 323.335
L240.623 323.335
L240.623 322.384
L241.682 322.384
L241.682 321.434
L243.09 321.434
L243.198 319.533
L244.165 319.533
L244.237 317.632
L245.019 317.632
L245.019 316.681
L245.2 316.681
L245.2 315.731
L246.311 315.731
L246.313 313.83
L246.569 313.83
L246.569 312.879
L246.756 312.879
L246.756 311.929
L246.963 311.929
L246.963 310.978
L248.33 310.978
L248.33 310.028
L248.545 310.028
L248.545 309.077
L248.668 309.077
L248.668 308.127
L249.155 308.127
L249.155 307.176
L249.376 307.176
L249.454 303.374
L249.619 303.374
L249.619 302.424
L250.346 302.424
L250.346 301.473
L251.365 301.473
L251.365 300.523
L251.666 300.523
L251.666 299.572
L252.339 299.572
L252.411 297.671
L252.555 297.671
L252.634 295.77
L252.68 295.77
L252.749 293.869
L253.285 293.869
L253.285 292.919
L254.375 292.919
L254.416 277.711
L254.676 277.711
L254.676 276.76
L255.374 276.76
L255.374 275.81
L255.77 275.81
L255.82 273.909
L255.917 273.909
L256.002 272.008
L256.042 272.008
L256.042 271.057
L256.208 271.057
L256.306 268.206
L256.379 268.206
L256.379 267.255
L256.528 267.255
L256.634 264.404
L256.986 264.404
L256.986 263.453
L257.499 263.453
L257.571 260.602
L257.617 260.602
L257.619 258.701
L258.411 258.701
L258.411 257.75
L258.619 257.75
L258.619 256.8
L258.969 256.8
L259.077 254.899
L259.251 254.899
L259.251 253.949
L259.523 253.949
L259.523 252.998
L260.111 252.998
L260.111 252.048
L260.368 252.048
L260.458 250.147
L260.514 250.147
L260.514 249.196
L261.013 249.196
L261.062 247.295
L261.85 247.295
L261.85 246.345
L262.483 246.345
L262.483 245.394
L262.736 245.394
L262.736 244.444
L263.082 244.444
L263.082 243.493
L263.456 243.493
L263.536 241.592
L263.637 241.592
L263.656 239.691
L263.862 239.691
L263.879 236.84
L263.979 236.84
L263.979 235.889
L264.169 235.889
L264.172 233.988
L264.315 233.988
L264.325 232.087
L264.432 232.087
L264.487 229.236
L264.589 229.236
L264.689 226.384
L265.034 226.384
L265.065 224.483
L265.503 224.483
L265.576 221.632
L265.664 221.632
L265.772 217.83
L266.003 217.83
L266.078 215.929
L266.146 215.929
L266.196 213.077
L266.264 213.077
L266.331 211.176
L266.475 211.176
L266.567 209.275
L266.649 209.275
L266.759 206.424
L267.277 206.424
L267.363 204.523
L267.533 204.523
L267.533 203.572
L267.648 203.572
L267.736 201.671
L268.006 201.671
L268.114 198.82
L268.127 198.82
L268.198 196.919
L268.254 196.919
L268.316 195.018
L268.465 195.018
L268.465 194.067
L268.767 194.067
L268.767 193.117
L269.067 193.117
L269.162 191.216
L269.301 191.216
L269.312 188.364
L269.627 188.364
L269.627 187.414
L270.045 187.414
L270.152 184.562
L270.327 184.562
L270.327 183.612
L270.459 183.612
L270.512 179.81
L270.6 179.81
L270.648 173.156
L271.227 173.156
L271.312 170.305
L271.633 170.305
L271.648 168.404
L271.875 168.404
L271.972 166.503
L272.023 166.503
L272.023 165.552
L272.204 165.552
L272.204 164.602
L272.476 164.602
L272.476 163.651
L272.781 163.651
L272.781 162.701
L273.381 162.701
L273.381 161.75
L273.753 161.75
L273.857 158.899
L274.033 158.899
L274.033 157.949
L274.451 157.949
L274.557 156.048
L274.751 156.048
L274.751 155.097
L275.815 155.097
L275.858 153.196
L276.867 153.196
L276.867 152.246
L277.176 152.246
L277.176 151.295
L277.32 151.295
L277.423 149.394
L277.67 149.394
L277.67 148.444
L277.992 148.444
L277.992 147.493
L278.728 147.493
L278.728 146.543
L279.203 146.543
L279.225 144.642
L279.997 144.642
L279.997 143.691
L280.205 143.691
L280.205 142.741
L280.397 142.741
L280.397 141.79
L280.557 141.79
L280.655 137.988
L280.884 137.988
L280.884 137.038
L281.072 137.038
L281.072 136.087
L282.042 136.087
L282.042 135.137
L282.294 135.137
L282.294 134.186
L282.414 134.186
L282.414 133.236
L282.529 133.236
L282.529 132.285
L283.671 132.285
L283.744 130.384
L285.069 130.384
L285.069 129.434
L285.822 129.434
L285.822 128.483
L286.385 128.483
L286.385 127.533
L286.849 127.533
L286.849 126.582
L287.259 126.582
L287.259 125.632
L289.177 125.632
L289.177 124.681
L289.878 124.681
L289.878 123.731
L290.14 123.731
L290.14 122.78
L291.159 122.78
L291.159 121.83
L292.464 121.83
L292.464 120.879
L293.085 120.879
L293.085 119.929
L293.24 119.929
L293.306 118.028
L293.4 118.028
L293.4 117.077
L293.814 117.077
L293.814 116.127
L295.214 116.127
L295.214 115.176
L296.247 115.176
L296.247 114.226
L296.448 114.226
L296.543 112.325
L298.158 112.325
L298.158 111.374
L298.71 111.374
L298.759 109.473
L299.235 109.473
L299.235 108.523
L300.689 108.523
L300.689 107.572
L300.971 107.572
L300.971 106.622
L303.415 106.622
L303.415 105.671
L307.42 105.671
L307.42 104.721
L312.49 104.721
L312.49 103.77
L314.8 103.77
L314.8 102.82
L317.52 102.82
L317.52 88.5624
L323.837 88.5624
L323.837 87.6119
L325.945 87.6119
L325.945 86.6614
L326.099 86.6614
L326.099 85.7109
L326.488 85.7109
L326.5 83.8099
L329.139 83.8099
L329.139 82.8594
L331.035 82.8594
L331.035 81.9089
L332.26 81.9089
L332.364 80.0079
L333.489 80.0079
L333.489 79.0574
L334.487 79.0574
L334.487 78.1069
L339.159 78.1069
L339.159 77.1564
L341.732 77.1564
L341.801 75.2554
L343.219 75.2554
L343.219 74.305
L344.403 74.305
L344.403 73.3545
L346.3 73.3545
L346.3 72.404
L348.22 72.404
L348.263 70.503
L348.98 70.503
L348.98 69.5525
L349.417 69.5525
L349.417 68.602
L349.869 68.602
L349.879 66.701
L352.588 66.701
L352.588 65.7505
L354.003 65.7505
L354.003 64.8
L354.127 64.8
L354.127 63.8495
L357.341 63.8495
L357.341 62.899
L357.876 62.899
L357.876 61.9485
L358.088 61.9485
L358.088 60.998
L360.665 60.998
L360.665 60.0475
L362.169 60.0475
L362.169 59.097
L362.563 59.097
L362.563 58.1465
L362.721 58.1465
L362.721 57.196
L363.108 57.196
L363.108 56.2455
L365.314 56.2455
L365.314 55.295
L369.726 55.295
L369.726 54.3446
L370.42 54.3446
L370.42 53.3941
L371.785 53.3941
L371.785 52.4436
L373.314 52.4436
L373.314 51.4931
L375.701 51.4931
L375.701 50.5426
L375.851 50.5426
L375.851 49.5921
L378.043 49.5921
L378.043 48.6416
L384.465 48.6416
L384.561 46.7406
L385.103 46.7406
L385.103 45.7901
L386.847 45.7901
L386.847 44.8396
L388.707 44.8396
L388.707 43.8891
L389.649 43.8891
L389.649 42.9386
L391.324 42.9386
L391.324 41.9881
L391.537 41.9881
L391.617 40.0871
L391.986 40.0871
L391.986 39.1366
L393.023 39.1366
L393.023 38.1861
L394.136 38.1861
L394.136 37.2356
L395.03 37.2356
L395.082 35.3347
L395.312 35.3347
L395.312 34.3842
L395.512 34.3842
L395.512 33.4337
L398.14 33.4337
L398.14 32.4832
L399.274 32.4832
L399.274 31.5327
L399.761 31.5327
L399.761 30.5822
L402.104 30.5822
L402.104 29.6317
L402.681 29.6317
L402.681 28.6812
L403.093 28.6812
L403.093 27.7307
L403.816 27.7307
L403.831 25.8297
L404.033 25.8297
L404.038 23.9287
L406.119 23.9287
L406.119 22.9782
L407.838 22.9782
L407.87 21.0772
L411.322 21.0772
L411.322 20.1267
L411.947 20.1267
L411.947 19.1762
L414.445 19.1762
L414.545 17.2752
L414.604 17.2752
L414.604 16.3248
L415.888 16.3248
L415.888 15.3743
L417.701 15.3743
L417.701 14.4238
L419.752 14.4238
L419.752 13.4733
L432.131 13.4733
L432.131 12.5228
L432.989 12.5228
L432.989 11.5723
L441.332 11.5723
L441.332 10.6218
L441.332 10.6218
L453.6 10.6218
L453.6 10.6218" style="fill:none;stroke:#bf00bf;stroke-linecap:square;"/>
   </g>
   <g id="line2d_4">
    <path clip-path="url(#p5bee155178)" d="
M201.414 352.8
L201.414 351.85
L201.414 351.85
L201.414 351.85
L201.414 350.899
L201.414 350.899
L201.414 350.899
L201.414 349.949
L201.414 349.949
L201.414 349.949
L201.414 348.998
L201.414 348.998
L201.414 348.998
L201.414 348.048
L201.414 348.048
L201.414 348.048
L201.414 347.097
L201.414 347.097
L201.414 347.097
L201.414 346.147
L201.414 346.147
L201.414 346.147
L201.414 345.196
L201.414 345.196
L201.414 345.196
L201.414 344.246
L201.414 344.246
L201.414 344.246
L201.414 343.295
L201.414 343.295
L201.414 343.295
L201.414 342.345
L201.414 342.345
L201.414 342.345
L201.414 341.394
L201.414 341.394
L201.414 341.394
L201.414 340.444
L201.414 340.444
L201.414 340.444
L201.414 339.493
L201.414 339.493
L201.414 339.493
L201.414 338.543
L214.023 338.543
L214.023 337.592
L226.57 337.592
L226.57 336.642
L229.855 336.642
L229.855 335.691
L230.744 335.691
L230.744 334.741
L231.981 334.741
L232.059 332.84
L235.599 332.84
L235.599 331.889
L236.926 331.889
L236.926 330.939
L237.243 330.939
L237.243 329.988
L237.904 329.988
L237.904 329.038
L238.937 329.038
L238.977 327.137
L239.428 327.137
L239.428 326.186
L239.644 326.186
L239.644 325.236
L239.818 325.236
L239.818 324.285
L240.157 324.285
L240.196 322.384
L240.276 322.384
L240.276 321.434
L241.682 321.434
L241.682 320.483
L243.09 320.483
L243.198 317.632
L244.165 317.632
L244.237 315.731
L244.456 315.731
L244.456 314.78
L246.04 314.78
L246.04 313.83
L246.313 313.83
L246.313 312.879
L246.569 312.879
L246.569 311.929
L246.756 311.929
L246.756 310.978
L246.963 310.978
L246.963 310.028
L248.33 310.028
L248.433 308.127
L248.668 308.127
L248.728 306.226
L249.098 306.226
L249.155 304.325
L249.253 304.325
L249.253 303.374
L249.426 303.374
L249.454 301.473
L250.332 301.473
L250.332 300.523
L251.365 300.523
L251.365 299.572
L251.666 299.572
L251.666 298.622
L251.857 298.622
L251.857 297.671
L252.044 297.671
L252.044 296.721
L252.322 296.721
L252.322 295.77
L252.68 295.77
L252.749 293.869
L253.285 293.869
L253.285 292.919
L254.305 292.919
L254.416 275.81
L254.676 275.81
L254.676 274.859
L255.374 274.859
L255.374 273.909
L255.638 273.909
L255.638 272.958
L255.774 272.958
L255.855 271.057
L255.917 271.057
L256.002 269.156
L256.251 269.156
L256.306 267.255
L256.379 267.255
L256.379 266.305
L256.528 266.305
L256.53 264.404
L256.986 264.404
L256.986 263.453
L257.499 263.453
L257.571 260.602
L257.617 260.602
L257.619 258.701
L258.411 258.701
L258.411 257.75
L258.605 257.75
L258.605 256.8
L258.846 256.8
L258.846 255.85
L258.969 255.85
L259.077 253.949
L259.251 253.949
L259.251 252.998
L259.523 252.998
L259.523 252.048
L260.111 252.048
L260.111 251.097
L260.361 251.097
L260.458 249.196
L260.514 249.196
L260.514 248.246
L261.013 248.246
L261.062 246.345
L262.483 246.345
L262.483 245.394
L262.736 245.394
L262.736 244.444
L263.082 244.444
L263.082 243.493
L263.301 243.493
L263.301 242.543
L263.456 242.543
L263.536 240.642
L263.656 240.642
L263.656 239.691
L263.862 239.691
L263.879 236.84
L263.979 236.84
L264.077 234.939
L264.172 234.939
L264.172 233.988
L264.315 233.988
L264.325 232.087
L264.432 232.087
L264.487 229.236
L264.589 229.236
L264.689 226.384
L264.775 226.384
L264.775 225.434
L265.034 225.434
L265.065 223.533
L265.503 223.533
L265.576 220.681
L265.664 220.681
L265.772 216.879
L265.819 216.879
L265.819 215.929
L265.999 215.929
L265.999 214.978
L266.152 214.978
L266.196 213.077
L266.264 213.077
L266.331 211.176
L266.423 211.176
L266.475 209.275
L266.553 209.275
L266.649 207.374
L266.682 207.374
L266.759 205.473
L266.916 205.473
L266.916 204.523
L267.277 204.523
L267.277 203.572
L267.533 203.572
L267.533 202.622
L267.648 202.622
L267.758 199.77
L268.006 199.77
L268.109 197.869
L268.127 197.869
L268.198 195.968
L268.316 195.968
L268.316 195.018
L268.465 195.018
L268.465 194.067
L268.767 194.067
L268.767 193.117
L269.067 193.117
L269.162 191.216
L269.301 191.216
L269.312 188.364
L269.627 188.364
L269.627 187.414
L270.045 187.414
L270.152 183.612
L270.313 183.612
L270.313 182.661
L270.484 182.661
L270.512 179.81
L270.6 179.81
L270.648 173.156
L270.8 173.156
L270.844 171.255
L271.25 171.255
L271.312 169.354
L271.582 169.354
L271.648 167.453
L271.875 167.453
L271.972 165.552
L272.204 165.552
L272.204 164.602
L272.476 164.602
L272.476 163.651
L272.781 163.651
L272.781 162.701
L273.381 162.701
L273.451 160.8
L273.753 160.8
L273.857 157.949
L274.007 157.949
L274.007 156.998
L274.451 156.998
L274.451 156.048
L274.751 156.048
L274.751 155.097
L275.372 155.097
L275.372 154.147
L275.858 154.147
L275.858 153.196
L276.867 153.196
L276.867 152.246
L277.078 152.246
L277.176 150.345
L277.423 150.345
L277.423 149.394
L277.67 149.394
L277.67 148.444
L277.929 148.444
L277.929 147.493
L278.728 147.493
L278.728 146.543
L279.203 146.543
L279.225 144.642
L279.997 144.642
L279.997 143.691
L280.205 143.691
L280.205 142.741
L280.397 142.741
L280.397 141.79
L280.557 141.79
L280.655 137.038
L281.072 137.038
L281.072 136.087
L281.525 136.087
L281.525 135.137
L282.042 135.137
L282.042 134.186
L282.294 134.186
L282.294 133.236
L282.414 133.236
L282.414 132.285
L282.529 132.285
L282.529 131.335
L283.744 131.335
L283.744 130.384
L285.069 130.384
L285.069 129.434
L285.822 129.434
L285.822 128.483
L286.385 128.483
L286.385 127.533
L286.849 127.533
L286.849 126.582
L287.259 126.582
L287.259 125.632
L289.177 125.632
L289.177 124.681
L289.878 124.681
L289.878 123.731
L290.14 123.731
L290.14 122.78
L291.159 122.78
L291.159 121.83
L292.464 121.83
L292.464 120.879
L293.085 120.879
L293.085 119.929
L293.24 119.929
L293.306 118.028
L293.4 118.028
L293.4 117.077
L293.814 117.077
L293.814 116.127
L295.214 116.127
L295.214 115.176
L296.245 115.176
L296.245 114.226
L296.448 114.226
L296.543 112.325
L298.078 112.325
L298.078 111.374
L298.71 111.374
L298.759 109.473
L299.235 109.473
L299.235 108.523
L300.685 108.523
L300.685 107.572
L300.971 107.572
L300.971 106.622
L303.415 106.622
L303.415 105.671
L307.42 105.671
L307.42 104.721
L312.49 104.721
L312.49 103.77
L314.8 103.77
L314.8 102.82
L317.52 102.82
L317.52 88.5624
L323.837 88.5624
L323.837 87.6119
L325.945 87.6119
L325.945 86.6614
L326.099 86.6614
L326.099 85.7109
L326.488 85.7109
L326.5 83.8099
L329.139 83.8099
L329.139 82.8594
L330.983 82.8594
L330.983 81.9089
L332.26 81.9089
L332.364 80.0079
L333.489 80.0079
L333.489 79.0574
L334.487 79.0574
L334.487 78.1069
L339.159 78.1069
L339.159 77.1564
L341.732 77.1564
L341.801 75.2554
L343.219 75.2554
L343.219 74.305
L344.403 74.305
L344.403 73.3545
L346.3 73.3545
L346.3 72.404
L348.22 72.404
L348.263 70.503
L348.98 70.503
L348.98 69.5525
L349.417 69.5525
L349.417 68.602
L349.869 68.602
L349.879 66.701
L352.134 66.701
L352.134 65.7505
L352.588 65.7505
L352.588 64.8
L354.003 64.8
L354.003 63.8495
L357.341 63.8495
L357.341 62.899
L357.869 62.899
L357.869 61.9485
L358.088 61.9485
L358.088 60.998
L360.665 60.998
L360.665 60.0475
L361.802 60.0475
L361.802 59.097
L362.563 59.097
L362.563 58.1465
L362.721 58.1465
L362.721 57.196
L363.107 57.196
L363.107 56.2455
L365.314 56.2455
L365.314 55.295
L369.65 55.295
L369.65 54.3446
L370.42 54.3446
L370.42 53.3941
L371.785 53.3941
L371.785 52.4436
L373.314 52.4436
L373.314 51.4931
L375.246 51.4931
L375.354 49.5921
L378.043 49.5921
L378.043 48.6416
L384.465 48.6416
L384.561 46.7406
L385.103 46.7406
L385.103 45.7901
L386.743 45.7901
L386.743 44.8396
L388.707 44.8396
L388.707 43.8891
L389.649 43.8891
L389.649 42.9386
L391.324 42.9386
L391.324 41.9881
L391.537 41.9881
L391.617 40.0871
L391.986 40.0871
L391.986 39.1366
L393.007 39.1366
L393.007 38.1861
L394.136 38.1861
L394.136 37.2356
L395.03 37.2356
L395.082 35.3347
L395.312 35.3347
L395.312 34.3842
L395.512 34.3842
L395.512 33.4337
L398.14 33.4337
L398.14 32.4832
L399.274 32.4832
L399.274 31.5327
L399.65 31.5327
L399.65 30.5822
L402.101 30.5822
L402.101 29.6317
L402.681 29.6317
L402.681 28.6812
L403.093 28.6812
L403.093 27.7307
L403.816 27.7307
L403.875 24.8792
L404.038 24.8792
L404.038 23.9287
L406.119 23.9287
L406.119 22.9782
L407.678 22.9782
L407.678 22.0277
L407.838 22.0277
L407.838 21.0772
L411.322 21.0772
L411.322 20.1267
L411.947 20.1267
L411.947 19.1762
L414.445 19.1762
L414.545 17.2752
L414.604 17.2752
L414.604 16.3248
L415.888 16.3248
L415.888 15.3743
L417.701 15.3743
L417.701 14.4238
L419.752 14.4238
L419.752 13.4733
L432.131 13.4733
L432.131 12.5228
L432.989 12.5228
L432.989 11.5723
L441.332 11.5723
L441.332 10.6218
L441.332 10.6218
L453.6 10.6218
L453.6 10.6218" style="fill:none;stroke:#000000;stroke-linecap:square;"/>
   </g>
   <g id="line2d_5">
    <path clip-path="url(#p5bee155178)" d="
M201.414 352.8
L201.414 351.85
L201.414 351.85
L201.414 351.85
L201.414 350.899
L201.414 350.899
L201.414 350.899
L201.414 349.949
L201.414 349.949
L201.414 349.949
L201.414 348.998
L201.414 348.998
L201.414 348.998
L201.414 348.048
L201.414 348.048
L201.414 348.048
L201.414 347.097
L201.414 347.097
L201.414 347.097
L201.414 346.147
L201.414 346.147
L201.414 346.147
L201.414 345.196
L201.414 345.196
L201.414 345.196
L201.414 344.246
L201.414 344.246
L201.414 344.246
L201.414 343.295
L201.414 343.295
L201.414 343.295
L201.414 342.345
L201.414 342.345
L201.414 342.345
L201.414 341.394
L201.414 341.394
L201.414 341.394
L201.414 340.444
L201.414 340.444
L201.414 340.444
L201.414 339.493
L201.414 339.493
L201.414 339.493
L201.414 338.543
L214.023 338.543
L214.023 337.592
L225.587 337.592
L225.587 336.642
L228.868 336.642
L228.868 335.691
L229.306 335.691
L229.306 334.741
L231.78 334.741
L231.78 333.79
L231.981 333.79
L231.981 332.84
L233.338 332.84
L233.338 331.889
L233.708 331.889
L233.708 330.939
L234.317 330.939
L234.317 329.988
L236.628 329.988
L236.628 329.038
L236.926 329.038
L236.959 327.137
L237.038 327.137
L237.038 326.186
L237.243 326.186
L237.243 325.236
L237.739 325.236
L237.739 324.285
L238.937 324.285
L238.977 322.384
L239.26 322.384
L239.26 321.434
L239.405 321.434
L239.405 320.483
L239.534 320.483
L239.534 319.533
L239.948 319.533
L239.948 318.582
L240.157 318.582
L240.157 317.632
L240.276 317.632
L240.276 316.681
L241.172 316.681
L241.172 315.731
L241.682 315.731
L241.682 314.78
L242.782 314.78
L242.782 313.83
L243.09 313.83
L243.198 311.929
L243.627 311.929
L243.627 310.978
L244.237 310.978
L244.237 310.028
L246.313 310.028
L246.313 309.077
L246.569 309.077
L246.569 308.127
L246.756 308.127
L246.756 307.176
L247.532 307.176
L247.532 306.226
L248.33 306.226
L248.33 305.275
L248.668 305.275
L248.668 304.325
L249.155 304.325
L249.155 303.374
L249.426 303.374
L249.454 301.473
L250.051 301.473
L250.051 300.523
L250.561 300.523
L250.618 298.622
L251.009 298.622
L251.009 297.671
L251.365 297.671
L251.365 296.721
L251.602 296.721
L251.666 294.82
L251.845 294.82
L251.857 292.919
L252.68 292.919
L252.749 291.018
L253.285 291.018
L253.358 289.117
L254.279 289.117
L254.375 273.909
L254.416 273.909
L254.416 272.958
L254.676 272.958
L254.676 272.008
L255.131 272.008
L255.131 271.057
L255.374 271.057
L255.374 270.107
L255.538 270.107
L255.538 269.156
L255.917 269.156
L256.002 267.255
L256.042 267.255
L256.042 266.305
L256.306 266.305
L256.379 264.404
L256.528 264.404
L256.528 263.453
L256.986 263.453
L256.986 262.503
L257.302 262.503
L257.302 261.552
L257.499 261.552
L257.571 258.701
L257.617 258.701
L257.617 257.75
L258.411 257.75
L258.517 255.85
L258.969 255.85
L259.077 252.998
L259.251 252.998
L259.251 252.048
L259.523 252.048
L259.523 251.097
L260.111 251.097
L260.111 250.147
L260.229 250.147
L260.229 249.196
L260.458 249.196
L260.458 248.246
L261.013 248.246
L261.062 246.345
L262.383 246.345
L262.483 244.444
L262.736 244.444
L262.736 243.493
L263.082 243.493
L263.13 241.592
L263.34 241.592
L263.34 240.642
L263.456 240.642
L263.536 238.741
L263.656 238.741
L263.718 236.84
L263.862 236.84
L263.951 233.038
L264.172 233.038
L264.235 231.137
L264.315 231.137
L264.422 228.285
L264.432 228.285
L264.487 226.384
L264.589 226.384
L264.689 222.582
L265.034 222.582
L265.065 220.681
L265.503 220.681
L265.576 217.83
L265.627 217.83
L265.712 214.978
L265.764 214.978
L265.772 213.077
L265.953 213.077
L265.993 211.176
L266.152 211.176
L266.197 208.325
L266.264 208.325
L266.374 206.424
L266.475 206.424
L266.475 205.473
L266.616 205.473
L266.644 203.572
L266.759 203.572
L266.759 202.622
L267.277 202.622
L267.34 200.721
L267.533 200.721
L267.619 198.82
L267.648 198.82
L267.648 197.869
L268.006 197.869
L268.109 195.018
L268.148 195.018
L268.148 194.067
L268.316 194.067
L268.316 193.117
L268.465 193.117
L268.465 192.166
L268.767 192.166
L268.767 191.216
L268.932 191.216
L268.932 190.265
L269.067 190.265
L269.162 188.364
L269.266 188.364
L269.361 183.612
L269.413 183.612
L269.413 182.661
L269.53 182.661
L269.53 181.711
L269.772 181.711
L269.772 180.76
L270.045 180.76
L270.045 179.81
L270.299 179.81
L270.299 178.859
L270.466 178.859
L270.512 176.008
L270.6 176.008
L270.648 169.354
L271.25 169.354
L271.318 167.453
L271.648 167.453
L271.648 166.503
L271.972 166.503
L271.972 165.552
L272.204 165.552
L272.204 164.602
L272.476 164.602
L272.476 163.651
L272.781 163.651
L272.781 162.701
L273.12 162.701
L273.12 161.75
L273.277 161.75
L273.277 160.8
L273.449 160.8
L273.449 159.85
L273.753 159.85
L273.857 156.998
L274.026 156.998
L274.026 156.048
L274.451 156.048
L274.451 155.097
L274.751 155.097
L274.751 154.147
L275.858 154.147
L275.858 153.196
L276.534 153.196
L276.534 152.246
L276.867 152.246
L276.867 151.295
L277.176 151.295
L277.212 149.394
L277.423 149.394
L277.423 148.444
L277.67 148.444
L277.67 147.493
L278.459 147.493
L278.459 146.543
L279.203 146.543
L279.225 144.642
L279.997 144.642
L279.997 143.691
L280.205 143.691
L280.205 142.741
L280.397 142.741
L280.473 140.84
L280.557 140.84
L280.655 137.038
L281.072 137.038
L281.072 136.087
L281.335 136.087
L281.335 135.137
L282.042 135.137
L282.042 134.186
L282.294 134.186
L282.324 132.285
L282.529 132.285
L282.529 131.335
L283.744 131.335
L283.744 130.384
L285.069 130.384
L285.069 129.434
L285.822 129.434
L285.822 128.483
L286.385 128.483
L286.385 127.533
L286.849 127.533
L286.849 126.582
L287.259 126.582
L287.259 125.632
L289.177 125.632
L289.177 124.681
L289.878 124.681
L289.878 123.731
L290.14 123.731
L290.14 122.78
L291.159 122.78
L291.159 121.83
L292.464 121.83
L292.464 120.879
L293.085 120.879
L293.085 119.929
L293.24 119.929
L293.306 118.028
L293.4 118.028
L293.4 117.077
L293.814 117.077
L293.814 116.127
L295.214 116.127
L295.214 115.176
L296.087 115.176
L296.087 114.226
L296.448 114.226
L296.543 112.325
L297.964 112.325
L297.964 111.374
L298.71 111.374
L298.714 109.473
L299.235 109.473
L299.235 108.523
L300.655 108.523
L300.655 107.572
L300.971 107.572
L300.971 106.622
L303.415 106.622
L303.415 105.671
L307.42 105.671
L307.42 104.721
L312.49 104.721
L312.49 103.77
L314.8 103.77
L314.8 102.82
L317.52 102.82
L317.52 88.5624
L323.837 88.5624
L323.837 87.6119
L325.945 87.6119
L325.945 86.6614
L326.099 86.6614
L326.099 85.7109
L326.488 85.7109
L326.5 83.8099
L329.139 83.8099
L329.139 82.8594
L330.874 82.8594
L330.874 81.9089
L332.26 81.9089
L332.364 80.0079
L333.489 80.0079
L333.489 79.0574
L334.487 79.0574
L334.487 78.1069
L339.159 78.1069
L339.159 77.1564
L341.732 77.1564
L341.801 75.2554
L342.788 75.2554
L342.788 74.305
L343.219 74.305
L343.219 73.3545
L344.403 73.3545
L344.403 72.404
L346.3 72.404
L346.3 71.4535
L348.22 71.4535
L348.263 69.5525
L348.98 69.5525
L348.98 68.602
L349.417 68.602
L349.417 67.6515
L349.869 67.6515
L349.879 65.7505
L352.588 65.7505
L352.588 64.8
L354.003 64.8
L354.003 63.8495
L357.341 63.8495
L357.341 62.899
L357.582 62.899
L357.582 61.9485
L358.088 61.9485
L358.088 60.998
L360.665 60.998
L360.665 60.0475
L361.739 60.0475
L361.739 59.097
L362.196 59.097
L362.196 58.1465
L362.721 58.1465
L362.721 57.196
L363.021 57.196
L363.021 56.2455
L365.314 56.2455
L365.314 55.295
L368.929 55.295
L368.929 54.3446
L369.454 54.3446
L369.454 53.3941
L371.032 53.3941
L371.032 52.4436
L371.785 52.4436
L371.785 51.4931
L375.118 51.4931
L375.118 50.5426
L375.246 50.5426
L375.246 49.5921
L378.043 49.5921
L378.043 48.6416
L384.465 48.6416
L384.561 46.7406
L385.103 46.7406
L385.103 45.7901
L386.129 45.7901
L386.129 44.8396
L388.707 44.8396
L388.707 43.8891
L389.649 43.8891
L389.649 42.9386
L390.865 42.9386
L390.865 41.9881
L391.537 41.9881
L391.617 40.0871
L391.841 40.0871
L391.841 39.1366
L392.905 39.1366
L392.905 38.1861
L394.136 38.1861
L394.136 37.2356
L395.03 37.2356
L395.082 35.3347
L395.312 35.3347
L395.312 34.3842
L395.512 34.3842
L395.512 33.4337
L398.14 33.4337
L398.14 32.4832
L399.154 32.4832
L399.154 31.5327
L399.42 31.5327
L399.42 30.5822
L402.05 30.5822
L402.05 29.6317
L402.681 29.6317
L402.681 28.6812
L402.984 28.6812
L402.984 27.7307
L403.161 27.7307
L403.161 26.7802
L403.816 26.7802
L403.831 24.8792
L404.038 24.8792
L404.038 23.9287
L405.999 23.9287
L405.999 22.9782
L407.35 22.9782
L407.35 22.0277
L407.838 22.0277
L407.838 21.0772
L411.322 21.0772
L411.322 20.1267
L411.947 20.1267
L411.947 19.1762
L414.445 19.1762
L414.545 17.2752
L414.604 17.2752
L414.604 16.3248
L415.888 16.3248
L415.888 15.3743
L417.701 15.3743
L417.701 14.4238
L419.752 14.4238
L419.752 13.4733
L432.131 13.4733
L432.131 12.5228
L432.989 12.5228
L432.989 11.5723
L441.332 11.5723
L441.332 10.6218
L441.332 10.6218
L453.6 10.6218
L453.6 10.6218" style="fill:none;stroke:#00bfbf;stroke-linecap:square;"/>
   </g>
   <g id="line2d_6">
    <path clip-path="url(#p5bee155178)" d="
M7.0865 352.8
L7.0865 351.85
L7.0865 351.85
L7.0865 351.85
L7.0865 350.899
L7.0865 350.899
L7.0865 350.899
L7.0865 349.949
L7.0865 349.949
L7.0865 349.949
L7.0865 348.998
L7.0865 348.998
L7.0865 348.998
L7.0865 348.048
L7.0865 348.048
L7.0865 348.048
L7.0865 347.097
L152.233 347.097
L152.233 346.147
L184.872 346.147
L184.872 345.196
L195.6 345.196
L195.6 344.246
L199.311 344.246
L199.311 343.295
L201.414 343.295
L201.414 329.038
L203.177 329.038
L203.177 328.087
L204.293 328.087
L204.293 327.137
L204.415 327.137
L204.415 326.186
L208.291 326.186
L208.291 325.236
L209.205 325.236
L209.205 324.285
L211.449 324.285
L211.449 323.335
L213.207 323.335
L213.207 322.384
L213.819 322.384
L213.819 321.434
L214.023 321.434
L214.023 320.483
L214.217 320.483
L214.217 319.533
L217.845 319.533
L217.845 318.582
L218.362 318.582
L218.362 317.632
L218.83 317.632
L218.916 315.731
L219.093 315.731
L219.093 314.78
L220.023 314.78
L220.023 313.83
L220.724 313.83
L220.724 312.879
L221.28 312.879
L221.28 311.929
L221.78 311.929
L221.78 310.978
L222.47 310.978
L222.47 310.028
L222.864 310.028
L222.864 309.077
L223.25 309.077
L223.278 307.176
L223.438 307.176
L223.456 305.275
L224.067 305.275
L224.067 304.325
L224.633 304.325
L224.633 303.374
L224.846 303.374
L224.846 302.424
L225.056 302.424
L225.056 301.473
L225.22 301.473
L225.22 300.523
L225.422 300.523
L225.428 298.622
L225.583 298.622
L225.583 297.671
L225.787 297.671
L225.859 295.77
L226.034 295.77
L226.034 294.82
L226.215 294.82
L226.215 293.869
L226.496 293.869
L226.496 292.919
L226.684 292.919
L226.684 291.968
L227.018 291.968
L227.018 291.018
L227.176 291.018
L227.176 290.067
L227.305 290.067
L227.305 289.117
L227.44 289.117
L227.534 287.216
L228.504 287.216
L228.504 286.265
L228.912 286.265
L228.912 285.315
L229.143 285.315
L229.194 283.414
L229.643 283.414
L229.643 282.463
L229.785 282.463
L229.785 281.513
L229.99 281.513
L230.004 279.612
L230.242 279.612
L230.279 277.711
L230.755 277.711
L230.755 276.76
L231.685 276.76
L231.685 275.81
L231.862 275.81
L231.862 274.859
L232.529 274.859
L232.575 272.958
L232.971 272.958
L232.971 272.008
L234.18 272.008
L234.18 271.057
L234.428 271.057
L234.431 269.156
L234.626 269.156
L234.626 268.206
L235.053 268.206
L235.053 267.255
L235.763 267.255
L235.763 266.305
L236.736 266.305
L236.814 264.404
L237.605 264.404
L237.605 263.453
L238.315 263.453
L238.352 261.552
L238.482 261.552
L238.482 260.602
L238.643 260.602
L238.643 259.651
L238.862 259.651
L238.92 257.75
L238.977 257.75
L238.977 256.8
L239.181 256.8
L239.181 255.85
L239.856 255.85
L239.856 254.899
L239.982 254.899
L239.982 253.949
L240.136 253.949
L240.136 252.998
L240.276 252.998
L240.296 250.147
L240.417 250.147
L240.417 249.196
L240.91 249.196
L240.98 247.295
L241.184 247.295
L241.184 246.345
L241.682 246.345
L241.682 245.394
L241.981 245.394
L241.981 244.444
L242.181 244.444
L242.181 242.543
L242.384 242.543
L242.384 241.592
L243.149 241.592
L243.233 238.741
L243.435 238.741
L243.445 236.84
L243.817 236.84
L243.923 234.939
L244.383 234.939
L244.433 232.087
L245.437 232.087
L245.437 231.137
L245.796 231.137
L245.796 230.186
L246.109 230.186
L246.131 228.285
L246.401 228.285
L246.466 226.384
L247.033 226.384
L247.121 224.483
L247.149 224.483
L247.149 223.533
L247.683 223.533
L247.708 221.632
L248.706 221.632
L248.717 219.731
L248.823 219.731
L248.823 218.78
L249.454 218.78
L249.454 217.83
L249.596 217.83
L249.611 215.929
L250.237 215.929
L250.237 214.978
L250.477 214.978
L250.573 213.077
L250.737 213.077
L250.786 211.176
L250.894 211.176
L250.894 210.226
L251.062 210.226
L251.062 209.275
L251.217 209.275
L251.217 208.325
L251.666 208.325
L251.666 207.374
L251.798 207.374
L251.798 206.424
L252.077 206.424
L252.077 205.473
L252.453 205.473
L252.453 204.523
L252.68 204.523
L252.68 203.572
L253.058 203.572
L253.058 202.622
L253.285 202.622
L253.285 201.671
L253.406 201.671
L253.425 199.77
L253.643 199.77
L253.643 198.82
L253.784 198.82
L253.784 197.869
L253.985 197.869
L253.985 196.919
L254.375 196.919
L254.486 183.612
L254.617 183.612
L254.617 182.661
L254.901 182.661
L254.901 181.711
L255.296 181.711
L255.296 180.76
L255.576 180.76
L255.576 179.81
L255.917 179.81
L256.002 177.909
L256.358 177.909
L256.358 176.958
L256.917 176.958
L257.009 174.107
L257.043 174.107
L257.043 173.156
L257.499 173.156
L257.499 172.206
L257.792 172.206
L257.792 171.255
L258.39 171.255
L258.39 170.305
L258.518 170.305
L258.576 168.404
L258.739 168.404
L258.785 166.503
L258.994 166.503
L259.071 162.701
L259.161 162.701
L259.23 160.8
L259.342 160.8
L259.347 158.899
L259.709 158.899
L259.709 157.949
L259.875 157.949
L259.958 156.048
L260.144 156.048
L260.156 154.147
L260.609 154.147
L260.646 152.246
L261.074 152.246
L261.167 148.444
L261.268 148.444
L261.32 146.543
L261.617 146.543
L261.725 144.642
L261.936 144.642
L261.936 143.691
L262.136 143.691
L262.136 142.741
L262.554 142.741
L262.554 141.79
L262.675 141.79
L262.778 139.889
L263.187 139.889
L263.187 138.939
L263.373 138.939
L263.418 137.038
L263.656 137.038
L263.656 136.087
L263.994 136.087
L263.994 135.137
L264.172 135.137
L264.271 133.236
L264.315 133.236
L264.315 132.285
L264.487 132.285
L264.487 131.335
L264.689 131.335
L264.689 130.384
L265.526 130.384
L265.608 126.582
L265.638 126.582
L265.712 124.681
L265.908 124.681
L265.908 123.731
L266.185 123.731
L266.185 122.78
L266.348 122.78
L266.348 121.83
L266.67 121.83
L266.759 119.929
L267.785 119.929
L267.853 118.028
L268.252 118.028
L268.309 116.127
L268.465 116.127
L268.465 115.176
L268.732 115.176
L268.767 113.275
L269.162 113.275
L269.162 112.325
L269.301 112.325
L269.312 109.473
L269.469 109.473
L269.469 108.523
L269.632 108.523
L269.632 107.572
L269.859 107.572
L269.875 105.671
L270.351 105.671
L270.351 104.721
L270.512 104.721
L270.542 102.82
L270.648 102.82
L270.671 100.919
L271.278 100.919
L271.278 99.9683
L271.933 99.9683
L271.933 99.0178
L272.138 99.0178
L272.218 96.1663
L272.862 96.1663
L272.862 95.2158
L273.166 95.2158
L273.166 94.2653
L273.825 94.2653
L273.825 93.3149
L273.973 93.3149
L273.973 92.3644
L274.156 92.3644
L274.156 91.4139
L274.312 91.4139
L274.312 90.4634
L274.942 90.4634
L274.942 89.5129
L275.215 89.5129
L275.215 88.5624
L275.757 88.5624
L275.858 85.7109
L275.932 85.7109
L275.932 84.7604
L276.919 84.7604
L276.919 83.8099
L277.05 83.8099
L277.05 82.8594
L277.289 82.8594
L277.393 80.9584
L277.988 80.9584
L277.988 80.0079
L278.299 80.0079
L278.299 79.0574
L279.203 79.0574
L279.203 78.1069
L279.658 78.1069
L279.658 77.1564
L280.41 77.1564
L280.41 76.2059
L281.021 76.2059
L281.047 74.305
L281.64 74.305
L281.64 73.3545
L282.347 73.3545
L282.347 72.404
L282.528 72.404
L282.528 71.4535
L282.946 71.4535
L282.946 70.503
L283.935 70.503
L283.935 69.5525
L284.452 69.5525
L284.452 68.602
L286.532 68.602
L286.532 67.6515
L286.849 67.6515
L286.849 66.701
L287.402 66.701
L287.402 65.7505
L287.881 65.7505
L287.881 64.8
L288.987 64.8
L288.987 63.8495
L289.155 63.8495
L289.155 62.899
L292.015 62.899
L292.015 61.9485
L293.222 61.9485
L293.222 60.998
L294.821 60.998
L294.821 60.0475
L297.006 60.0475
L297.006 59.097
L297.768 59.097
L297.768 58.1465
L298.227 58.1465
L298.227 57.196
L298.71 57.196
L298.71 56.2455
L300.362 56.2455
L300.362 55.295
L300.648 55.295
L300.648 54.3446
L302.282 54.3446
L302.282 53.3941
L308.655 53.3941
L308.655 52.4436
L308.779 52.4436
L308.779 51.4931
L309.467 51.4931
L309.467 50.5426
L310.618 50.5426
L310.618 49.5921
L311.432 49.5921
L311.432 48.6416
L313.113 48.6416
L313.172 46.7406
L314.727 46.7406
L314.727 45.7901
L315.059 45.7901
L315.059 44.8396
L316.348 44.8396
L316.348 43.8891
L317.412 43.8891
L317.412 42.9386
L317.703 42.9386
L317.703 41.9881
L319.563 41.9881
L319.563 41.0376
L322.802 41.0376
L322.802 40.0871
L325.221 40.0871
L325.221 39.1366
L325.837 39.1366
L325.945 37.2356
L329.117 37.2356
L329.117 36.2851
L329.55 36.2851
L329.55 35.3347
L330.193 35.3347
L330.193 34.3842
L331.181 34.3842
L331.223 32.4832
L331.678 32.4832
L331.678 31.5327
L332.436 31.5327
L332.436 30.5822
L335.121 30.5822
L335.121 29.6317
L335.807 29.6317
L335.807 28.6812
L337.207 28.6812
L337.207 27.7307
L338.072 27.7307
L338.072 26.7802
L346.046 26.7802
L346.046 25.8297
L346.949 25.8297
L346.949 24.8792
L348.039 24.8792
L348.039 23.9287
L349.288 23.9287
L349.288 22.9782
L351.406 22.9782
L351.406 22.0277
L355.768 22.0277
L355.768 21.0772
L367.397 21.0772
L367.397 20.1267
L376.615 20.1267
L376.615 19.1762
L377.734 19.1762
L377.734 18.2257
L378.534 18.2257
L378.534 17.2752
L386.265 17.2752
L386.265 16.3248
L387.521 16.3248
L387.521 15.3743
L388.037 15.3743
L388.037 14.4238
L388.304 14.4238
L388.304 13.4733
L404.081 13.4733
L404.081 12.5228
L410.259 12.5228
L410.259 11.5723
L431.695 11.5723
L431.695 10.6218
L431.695 10.6218
L453.6 10.6218
L453.6 10.6218" style="fill:none;stroke:#bf00bf;stroke-linecap:square;"/>
   </g>
   <g id="matplotlib.axis_1">
    <g id="xtick_1"/>
    <g id="xtick_2">
     <g id="line2d_7">
      <path clip-path="url(#p5bee155178)" d="
M59.6175 352.8
L59.6175 7.2" style="fill:none;stroke:#000000;stroke-dasharray:1.000000,3.000000;stroke-dashoffset:0.0;stroke-width:0.5;"/>
     </g>
     <g id="line2d_8">
      <defs>
       <path d="
M0 0
L0 -4" id="m93b0483c22" style="stroke:#000000;stroke-width:0.5;"/>
      </defs>
      <g>
       <use style="stroke:#000000;stroke-width:0.5;" x="59.6174973142" xlink:href="#m93b0483c22" y="352.8"/>
      </g>
     </g>
     <g id="line2d_9">
      <defs>
       <path d="
M0 0
L0 4" id="m741efc42ff" style="stroke:#000000;stroke-width:0.5;"/>
      </defs>
      <g>
       <use style="stroke:#000000;stroke-width:0.5;" x="59.6174973142" xlink:href="#m741efc42ff" y="7.2"/>
      </g>
     </g>
     <g id="text_1">
      <!-- -6 -->
      <defs>
       <path d="
M3.17188 21.4844
L3.17188 30.3281
L30.1719 30.3281
L30.1719 21.4844
z
" id="ArialMT-2d"/>
       <path d="
M49.75 54.0469
L41.0156 53.375
Q39.8438 58.5469 37.7031 60.8906
Q34.125 64.6562 28.9062 64.6562
Q24.7031 64.6562 21.5312 62.3125
Q17.3906 59.2812 14.9844 53.4688
Q12.5938 47.6562 12.5 36.9219
Q15.6719 41.75 20.2656 44.0938
Q24.8594 46.4375 29.8906 46.4375
Q38.6719 46.4375 44.8438 39.9688
Q51.0312 33.5 51.0312 23.25
Q51.0312 16.5 48.125 10.7188
Q45.2188 4.9375 40.1406 1.85938
Q35.0625 -1.21875 28.6094 -1.21875
Q17.625 -1.21875 10.6875 6.85938
Q3.76562 14.9375 3.76562 33.5
Q3.76562 54.25 11.4219 63.6719
Q18.1094 71.875 29.4375 71.875
Q37.8906 71.875 43.2812 67.1406
Q48.6875 62.4062 49.75 54.0469
M13.875 23.1875
Q13.875 18.6562 15.7969 14.5
Q17.7188 10.3594 21.1875 8.17188
Q24.6562 6 28.4688 6
Q34.0312 6 38.0312 10.4844
Q42.0469 14.9844 42.0469 22.7031
Q42.0469 30.125 38.0781 34.3906
Q34.125 38.6719 28.125 38.6719
Q22.1719 38.6719 18.0156 34.3906
Q13.875 30.125 13.875 23.1875" id="ArialMT-36"/>
      </defs>
      <g transform="translate(51.5018723142 371.115625)scale(0.2 -0.2)">
       <use xlink:href="#ArialMT-2d"/>
       <use x="33.30078125" xlink:href="#ArialMT-36"/>
      </g>
     </g>
    </g>
    <g id="xtick_3">
     <g id="line2d_10">
      <path clip-path="url(#p5bee155178)" d="
M112.148 352.8
L112.148 7.2" style="fill:none;stroke:#000000;stroke-dasharray:1.000000,3.000000;stroke-dashoffset:0.0;stroke-width:0.5;"/>
     </g>
     <g id="line2d_11">
      <g>
       <use style="stroke:#000000;stroke-width:0.5;" x="112.148497672" xlink:href="#m93b0483c22" y="352.8"/>
      </g>
     </g>
     <g id="line2d_12">
      <g>
       <use style="stroke:#000000;stroke-width:0.5;" x="112.148497672" xlink:href="#m741efc42ff" y="7.2"/>
      </g>
     </g>
     <g id="text_2">
      <!-- -4 -->
      <defs>
       <path d="
M32.3281 0
L32.3281 17.1406
L1.26562 17.1406
L1.26562 25.2031
L33.9375 71.5781
L41.1094 71.5781
L41.1094 25.2031
L50.7812 25.2031
L50.7812 17.1406
L41.1094 17.1406
L41.1094 0
z

M32.3281 25.2031
L32.3281 57.4688
L9.90625 25.2031
z
" id="ArialMT-34"/>
      </defs>
      <g transform="translate(104.057872672 371.115625)scale(0.2 -0.2)">
       <use xlink:href="#ArialMT-2d"/>
       <use x="33.30078125" xlink:href="#ArialMT-34"/>
      </g>
     </g>
    </g>
    <g id="xtick_4">
     <g id="line2d_13">
      <path clip-path="url(#p5bee155178)" d="
M164.679 352.8
L164.679 7.2" style="fill:none;stroke:#000000;stroke-dasharray:1.000000,3.000000;stroke-dashoffset:0.0;stroke-width:0.5;"/>
     </g>
     <g id="line2d_14">
      <g>
       <use style="stroke:#000000;stroke-width:0.5;" x="164.67949803" xlink:href="#m93b0483c22" y="352.8"/>
      </g>
     </g>
     <g id="line2d_15">
      <g>
       <use style="stroke:#000000;stroke-width:0.5;" x="164.67949803" xlink:href="#m741efc42ff" y="7.2"/>
      </g>
     </g>
     <g id="text_3">
      <!-- -2 -->
      <defs>
       <path d="
M50.3438 8.45312
L50.3438 0
L3.03125 0
Q2.9375 3.17188 4.04688 6.10938
Q5.85938 10.9375 9.82812 15.625
Q13.8125 20.3125 21.3438 26.4688
Q33.0156 36.0312 37.1094 41.625
Q41.2188 47.2188 41.2188 52.2031
Q41.2188 57.4219 37.4688 61
Q33.7344 64.5938 27.7344 64.5938
Q21.3906 64.5938 17.5781 60.7812
Q13.7656 56.9844 13.7188 50.25
L4.6875 51.1719
Q5.60938 61.2812 11.6562 66.5781
Q17.7188 71.875 27.9375 71.875
Q38.2344 71.875 44.2344 66.1562
Q50.25 60.4531 50.25 52
Q50.25 47.7031 48.4844 43.5469
Q46.7344 39.4062 42.6562 34.8125
Q38.5781 30.2188 29.1094 22.2188
Q21.1875 15.5781 18.9375 13.2031
Q16.7031 10.8438 15.2344 8.45312
z
" id="ArialMT-32"/>
      </defs>
      <g transform="translate(156.63262303 371.115625)scale(0.2 -0.2)">
       <use xlink:href="#ArialMT-2d"/>
       <use x="33.30078125" xlink:href="#ArialMT-32"/>
      </g>
     </g>
    </g>
    <g id="xtick_5">
     <g id="line2d_16">
      <path clip-path="url(#p5bee155178)" d="
M217.21 352.8
L217.21 7.2" style="fill:none;stroke:#000000;stroke-dasharray:1.000000,3.000000;stroke-dashoffset:0.0;stroke-width:0.5;"/>
     </g>
     <g id="line2d_17">
      <g>
       <use style="stroke:#000000;stroke-width:0.5;" x="217.210498389" xlink:href="#m93b0483c22" y="352.8"/>
      </g>
     </g>
     <g id="line2d_18">
      <g>
       <use style="stroke:#000000;stroke-width:0.5;" x="217.210498389" xlink:href="#m741efc42ff" y="7.2"/>
      </g>
     </g>
     <g id="text_4">
      <!-- 0 -->
      <defs>
       <path d="
M4.15625 35.2969
Q4.15625 48 6.76562 55.7344
Q9.375 63.4844 14.5156 67.6719
Q19.6719 71.875 27.4844 71.875
Q33.25 71.875 37.5938 69.5469
Q41.9375 67.2344 44.7656 62.8594
Q47.6094 58.5 49.2188 52.2188
Q50.8281 45.9531 50.8281 35.2969
Q50.8281 22.7031 48.2344 14.9688
Q45.6562 7.23438 40.5 3
Q35.3594 -1.21875 27.4844 -1.21875
Q17.1406 -1.21875 11.2344 6.20312
Q4.15625 15.1406 4.15625 35.2969
M13.1875 35.2969
Q13.1875 17.6719 17.3125 11.8281
Q21.4375 6 27.4844 6
Q33.5469 6 37.6719 11.8594
Q41.7969 17.7188 41.7969 35.2969
Q41.7969 52.9844 37.6719 58.7812
Q33.5469 64.5938 27.3906 64.5938
Q21.3438 64.5938 17.7188 59.4688
Q13.1875 52.9375 13.1875 35.2969" id="ArialMT-30"/>
      </defs>
      <g transform="translate(212.543310889 371.115625)scale(0.2 -0.2)">
       <use xlink:href="#ArialMT-30"/>
      </g>
     </g>
    </g>
    <g id="xtick_6">
     <g id="line2d_19">
      <path clip-path="url(#p5bee155178)" d="
M269.741 352.8
L269.741 7.2" style="fill:none;stroke:#000000;stroke-dasharray:1.000000,3.000000;stroke-dashoffset:0.0;stroke-width:0.5;"/>
     </g>
     <g id="line2d_20">
      <g>
       <use style="stroke:#000000;stroke-width:0.5;" x="269.741498747" xlink:href="#m93b0483c22" y="352.8"/>
      </g>
     </g>
     <g id="line2d_21">
      <g>
       <use style="stroke:#000000;stroke-width:0.5;" x="269.741498747" xlink:href="#m741efc42ff" y="7.2"/>
      </g>
     </g>
     <g id="text_5">
      <!-- 2 -->
      <g transform="translate(265.000873747 371.115625)scale(0.2 -0.2)">
       <use xlink:href="#ArialMT-32"/>
      </g>
     </g>
    </g>
    <g id="xtick_7">
     <g id="line2d_22">
      <path clip-path="url(#p5bee155178)" d="
M322.272 352.8
L322.272 7.2" style="fill:none;stroke:#000000;stroke-dasharray:1.000000,3.000000;stroke-dashoffset:0.0;stroke-width:0.5;"/>
     </g>
     <g id="line2d_23">
      <g>
       <use style="stroke:#000000;stroke-width:0.5;" x="322.272499105" xlink:href="#m93b0483c22" y="352.8"/>
      </g>
     </g>
     <g id="line2d_24">
      <g>
       <use style="stroke:#000000;stroke-width:0.5;" x="322.272499105" xlink:href="#m741efc42ff" y="7.2"/>
      </g>
     </g>
     <g id="text_6">
      <!-- 4 -->
      <g transform="translate(317.320936605 371.115625)scale(0.2 -0.2)">
       <use xlink:href="#ArialMT-34"/>
      </g>
     </g>
    </g>
    <g id="xtick_8">
     <g id="line2d_25">
      <path clip-path="url(#p5bee155178)" d="
M374.803 352.8
L374.803 7.2" style="fill:none;stroke:#000000;stroke-dasharray:1.000000,3.000000;stroke-dashoffset:0.0;stroke-width:0.5;"/>
     </g>
     <g id="line2d_26">
      <g>
       <use style="stroke:#000000;stroke-width:0.5;" x="374.803499463" xlink:href="#m93b0483c22" y="352.8"/>
      </g>
     </g>
     <g id="line2d_27">
      <g>
       <use style="stroke:#000000;stroke-width:0.5;" x="374.803499463" xlink:href="#m741efc42ff" y="7.2"/>
      </g>
     </g>
     <g id="text_7">
      <!-- 6 -->
      <g transform="translate(370.076936963 371.115625)scale(0.2 -0.2)">
       <use xlink:href="#ArialMT-36"/>
      </g>
     </g>
    </g>
    <g id="xtick_9">
     <g id="line2d_28">
      <path clip-path="url(#p5bee155178)" d="
M427.334 352.8
L427.334 7.2" style="fill:none;stroke:#000000;stroke-dasharray:1.000000,3.000000;stroke-dashoffset:0.0;stroke-width:0.5;"/>
     </g>
     <g id="line2d_29">
      <g>
       <use style="stroke:#000000;stroke-width:0.5;" x="427.334499821" xlink:href="#m93b0483c22" y="352.8"/>
      </g>
     </g>
     <g id="line2d_30">
      <g>
       <use style="stroke:#000000;stroke-width:0.5;" x="427.334499821" xlink:href="#m741efc42ff" y="7.2"/>
      </g>
     </g>
     <g id="text_8">
      <!-- 8 -->
      <defs>
       <path d="
M17.6719 38.8125
Q12.2031 40.8281 9.5625 44.5312
Q6.9375 48.25 6.9375 53.4219
Q6.9375 61.2344 12.5469 66.5469
Q18.1719 71.875 27.4844 71.875
Q36.8594 71.875 42.5781 66.4219
Q48.2969 60.9844 48.2969 53.1719
Q48.2969 48.1875 45.6719 44.5
Q43.0625 40.8281 37.75 38.8125
Q44.3438 36.6719 47.7812 31.875
Q51.2188 27.0938 51.2188 20.4531
Q51.2188 11.2812 44.7188 5.03125
Q38.2344 -1.21875 27.6406 -1.21875
Q17.0469 -1.21875 10.5469 5.04688
Q4.04688 11.3281 4.04688 20.7031
Q4.04688 27.6875 7.59375 32.3906
Q11.1406 37.1094 17.6719 38.8125
M15.9219 53.7188
Q15.9219 48.6406 19.1875 45.4062
Q22.4688 42.1875 27.6875 42.1875
Q32.7656 42.1875 36.0156 45.375
Q39.2656 48.5781 39.2656 53.2188
Q39.2656 58.0625 35.9062 61.3594
Q32.5625 64.6562 27.5938 64.6562
Q22.5625 64.6562 19.2344 61.4219
Q15.9219 58.2031 15.9219 53.7188
M13.0938 20.6562
Q13.0938 16.8906 14.875 13.375
Q16.6562 9.85938 20.1719 7.92188
Q23.6875 6 27.7344 6
Q34.0312 6 38.125 10.0469
Q42.2344 14.1094 42.2344 20.3594
Q42.2344 26.7031 38.0156 30.8594
Q33.7969 35.0156 27.4375 35.0156
Q21.2344 35.0156 17.1562 30.9062
Q13.0938 26.8125 13.0938 20.6562" id="ArialMT-38"/>
      </defs>
      <g transform="translate(422.617312321 371.115625)scale(0.2 -0.2)">
       <use xlink:href="#ArialMT-38"/>
      </g>
     </g>
    </g>
    <g id="xtick_10"/>
    <g id="xtick_11">
     <g id="line2d_31">
      <defs>
       <path d="
M0 0
L0 -2" id="m177f7580d0" style="stroke:#000000;stroke-width:0.5;"/>
      </defs>
      <g>
       <use style="stroke:#000000;stroke-width:0.5;" x="59.6174973142" xlink:href="#m177f7580d0" y="352.8"/>
      </g>
     </g>
     <g id="line2d_32">
      <defs>
       <path d="
M0 0
L0 2" id="m5284c7e2a0" style="stroke:#000000;stroke-width:0.5;"/>
      </defs>
      <g>
       <use style="stroke:#000000;stroke-width:0.5;" x="59.6174973142" xlink:href="#m5284c7e2a0" y="7.2"/>
      </g>
     </g>
    </g>
    <g id="xtick_12">
     <g id="line2d_33">
      <g>
       <use style="stroke:#000000;stroke-width:0.5;" x="112.148497672" xlink:href="#m177f7580d0" y="352.8"/>
      </g>
     </g>
     <g id="line2d_34">
      <g>
       <use style="stroke:#000000;stroke-width:0.5;" x="112.148497672" xlink:href="#m5284c7e2a0" y="7.2"/>
      </g>
     </g>
    </g>
    <g id="xtick_13">
     <g id="line2d_35">
      <g>
       <use style="stroke:#000000;stroke-width:0.5;" x="164.67949803" xlink:href="#m177f7580d0" y="352.8"/>
      </g>
     </g>
     <g id="line2d_36">
      <g>
       <use style="stroke:#000000;stroke-width:0.5;" x="164.67949803" xlink:href="#m5284c7e2a0" y="7.2"/>
      </g>
     </g>
    </g>
    <g id="xtick_14">
     <g id="line2d_37">
      <g>
       <use style="stroke:#000000;stroke-width:0.5;" x="217.210498389" xlink:href="#m177f7580d0" y="352.8"/>
      </g>
     </g>
     <g id="line2d_38">
      <g>
       <use style="stroke:#000000;stroke-width:0.5;" x="217.210498389" xlink:href="#m5284c7e2a0" y="7.2"/>
      </g>
     </g>
    </g>
    <g id="xtick_15">
     <g id="line2d_39">
      <g>
       <use style="stroke:#000000;stroke-width:0.5;" x="269.741498747" xlink:href="#m177f7580d0" y="352.8"/>
      </g>
     </g>
     <g id="line2d_40">
      <g>
       <use style="stroke:#000000;stroke-width:0.5;" x="269.741498747" xlink:href="#m5284c7e2a0" y="7.2"/>
      </g>
     </g>
    </g>
    <g id="xtick_16">
     <g id="line2d_41">
      <g>
       <use style="stroke:#000000;stroke-width:0.5;" x="322.272499105" xlink:href="#m177f7580d0" y="352.8"/>
      </g>
     </g>
     <g id="line2d_42">
      <g>
       <use style="stroke:#000000;stroke-width:0.5;" x="322.272499105" xlink:href="#m5284c7e2a0" y="7.2"/>
      </g>
     </g>
    </g>
    <g id="xtick_17">
     <g id="line2d_43">
      <g>
       <use style="stroke:#000000;stroke-width:0.5;" x="374.803499463" xlink:href="#m177f7580d0" y="352.8"/>
      </g>
     </g>
     <g id="line2d_44">
      <g>
       <use style="stroke:#000000;stroke-width:0.5;" x="374.803499463" xlink:href="#m5284c7e2a0" y="7.2"/>
      </g>
     </g>
    </g>
    <g id="xtick_18">
     <g id="line2d_45">
      <g>
       <use style="stroke:#000000;stroke-width:0.5;" x="427.334499821" xlink:href="#m177f7580d0" y="352.8"/>
      </g>
     </g>
     <g id="line2d_46">
      <g>
       <use style="stroke:#000000;stroke-width:0.5;" x="427.334499821" xlink:href="#m5284c7e2a0" y="7.2"/>
      </g>
     </g>
    </g>
    <g id="text_9">
     <!-- log10 of Df -->
     <defs>
      <path d="
M4.98438 -4.29688
L13.5312 -5.5625
Q14.0625 -9.51562 16.5 -11.3281
Q19.7812 -13.7656 25.4375 -13.7656
Q31.5469 -13.7656 34.8594 -11.3281
Q38.1875 -8.89062 39.3594 -4.5
Q40.0469 -1.8125 39.9844 6.78125
Q34.2344 0 25.6406 0
Q14.9375 0 9.07812 7.71875
Q3.21875 15.4375 3.21875 26.2188
Q3.21875 33.6406 5.90625 39.9062
Q8.59375 46.1875 13.6875 49.6094
Q18.7969 53.0312 25.6875 53.0312
Q34.8594 53.0312 40.8281 45.6094
L40.8281 51.8594
L48.9219 51.8594
L48.9219 7.03125
Q48.9219 -5.07812 46.4531 -10.125
Q44 -15.1875 38.6406 -18.1094
Q33.2969 -21.0469 25.4844 -21.0469
Q16.2188 -21.0469 10.5 -16.875
Q4.78125 -12.7031 4.98438 -4.29688
M12.25 26.8594
Q12.25 16.6562 16.2969 11.9688
Q20.3594 7.28125 26.4688 7.28125
Q32.5156 7.28125 36.6094 11.9375
Q40.7188 16.6094 40.7188 26.5625
Q40.7188 36.0781 36.5 40.9062
Q32.2812 45.75 26.3125 45.75
Q20.4531 45.75 16.3438 40.9844
Q12.25 36.2344 12.25 26.8594" id="ArialMT-67"/>
      <path d="
M8.6875 0
L8.6875 45.0156
L0.921875 45.0156
L0.921875 51.8594
L8.6875 51.8594
L8.6875 57.375
Q8.6875 62.5938 9.625 65.1406
Q10.8906 68.5625 14.0781 70.6719
Q17.2812 72.7969 23.0469 72.7969
Q26.7656 72.7969 31.25 71.9219
L29.9375 64.2656
Q27.2031 64.75 24.75 64.75
Q20.75 64.75 19.0938 63.0312
Q17.4375 61.3281 17.4375 56.6406
L17.4375 51.8594
L27.5469 51.8594
L27.5469 45.0156
L17.4375 45.0156
L17.4375 0
z
" id="ArialMT-66"/>
      <path d="
M7.71875 0
L7.71875 71.5781
L32.375 71.5781
Q40.7188 71.5781 45.125 70.5625
Q51.2656 69.1406 55.6094 65.4375
Q61.2812 60.6406 64.0781 53.1875
Q66.8906 45.75 66.8906 36.1875
Q66.8906 28.0312 64.9844 21.7344
Q63.0938 15.4375 60.1094 11.2969
Q57.125 7.17188 53.5781 4.79688
Q50.0469 2.4375 45.0469 1.21875
Q40.0469 0 33.5469 0
z

M17.1875 8.45312
L32.4688 8.45312
Q39.5469 8.45312 43.5781 9.76562
Q47.6094 11.0781 50 13.4844
Q53.375 16.8438 55.25 22.5312
Q57.125 28.2188 57.125 36.3281
Q57.125 47.5625 53.4375 53.5938
Q49.75 59.625 44.4844 61.6719
Q40.6719 63.1406 32.2344 63.1406
L17.1875 63.1406
z
" id="ArialMT-44"/>
      <path d="
M6.39062 0
L6.39062 71.5781
L15.1875 71.5781
L15.1875 0
z
" id="ArialMT-6c"/>
      <path d="
M3.32812 25.9219
Q3.32812 40.3281 11.3281 47.2656
Q18.0156 53.0312 27.6406 53.0312
Q38.3281 53.0312 45.1094 46.0156
Q51.9062 39.0156 51.9062 26.6562
Q51.9062 16.6562 48.9062 10.9062
Q45.9062 5.17188 40.1562 2
Q34.4219 -1.17188 27.6406 -1.17188
Q16.75 -1.17188 10.0312 5.8125
Q3.32812 12.7969 3.32812 25.9219
M12.3594 25.9219
Q12.3594 15.9688 16.7031 11.0156
Q21.0469 6.0625 27.6406 6.0625
Q34.1875 6.0625 38.5312 11.0312
Q42.875 16.0156 42.875 26.2188
Q42.875 35.8438 38.5 40.7969
Q34.125 45.75 27.6406 45.75
Q21.0469 45.75 16.7031 40.8125
Q12.3594 35.8906 12.3594 25.9219" id="ArialMT-6f"/>
      <path d="
M37.25 0
L28.4688 0
L28.4688 56
Q25.2969 52.9844 20.1406 49.9531
Q14.9844 46.9219 10.8906 45.4062
L10.8906 53.9062
Q18.2656 57.375 23.7812 62.2969
Q29.2969 67.2344 31.5938 71.875
L37.25 71.875
z
" id="ArialMT-31"/>
      <path id="ArialMT-20"/>
     </defs>
     <g transform="translate(181.6921875 394.65)scale(0.2 -0.2)">
      <use xlink:href="#ArialMT-6c"/>
      <use x="22.216796875" xlink:href="#ArialMT-6f"/>
      <use x="77.83203125" xlink:href="#ArialMT-67"/>
      <use x="133.447265625" xlink:href="#ArialMT-31"/>
      <use x="189.0625" xlink:href="#ArialMT-30"/>
      <use x="244.677734375" xlink:href="#ArialMT-20"/>
      <use x="272.4609375" xlink:href="#ArialMT-6f"/>
      <use x="328.076171875" xlink:href="#ArialMT-66"/>
      <use x="355.859375" xlink:href="#ArialMT-20"/>
      <use x="383.642578125" xlink:href="#ArialMT-44"/>
      <use x="455.859375" xlink:href="#ArialMT-66"/>
     </g>
    </g>
   </g>
   <g id="matplotlib.axis_2">
    <g id="ytick_1">
     <g id="line2d_47">
      <path clip-path="url(#p5bee155178)" d="
M7.2 352.8
L453.6 352.8" style="fill:none;stroke:#000000;stroke-dasharray:1.000000,3.000000;stroke-dashoffset:0.0;stroke-width:0.5;"/>
     </g>
     <g id="line2d_48">
      <defs>
       <path d="
M0 0
L4 0" id="m728421d6d4" style="stroke:#000000;stroke-width:0.5;"/>
      </defs>
      <g>
       <use style="stroke:#000000;stroke-width:0.5;" x="7.2" xlink:href="#m728421d6d4" y="352.8"/>
      </g>
     </g>
     <g id="line2d_49">
      <defs>
       <path d="
M0 0
L-4 0" id="mcb0005524f" style="stroke:#000000;stroke-width:0.5;"/>
      </defs>
      <g>
       <use style="stroke:#000000;stroke-width:0.5;" x="453.6" xlink:href="#mcb0005524f" y="352.8"/>
      </g>
     </g>
    </g>
    <g id="ytick_2">
     <g id="line2d_50">
      <path clip-path="url(#p5bee155178)" d="
M7.2 284.364
L453.6 284.364" style="fill:none;stroke:#000000;stroke-dasharray:1.000000,3.000000;stroke-dashoffset:0.0;stroke-width:0.5;"/>
     </g>
     <g id="line2d_51">
      <g>
       <use style="stroke:#000000;stroke-width:0.5;" x="7.2" xlink:href="#m728421d6d4" y="284.364356436"/>
      </g>
     </g>
     <g id="line2d_52">
      <g>
       <use style="stroke:#000000;stroke-width:0.5;" x="453.6" xlink:href="#mcb0005524f" y="284.364356436"/>
      </g>
     </g>
    </g>
    <g id="ytick_3">
     <g id="line2d_53">
      <path clip-path="url(#p5bee155178)" d="
M7.2 215.929
L453.6 215.929" style="fill:none;stroke:#000000;stroke-dasharray:1.000000,3.000000;stroke-dashoffset:0.0;stroke-width:0.5;"/>
     </g>
     <g id="line2d_54">
      <g>
       <use style="stroke:#000000;stroke-width:0.5;" x="7.2" xlink:href="#m728421d6d4" y="215.928712871"/>
      </g>
     </g>
     <g id="line2d_55">
      <g>
       <use style="stroke:#000000;stroke-width:0.5;" x="453.6" xlink:href="#mcb0005524f" y="215.928712871"/>
      </g>
     </g>
    </g>
    <g id="ytick_4">
     <g id="line2d_56">
      <path clip-path="url(#p5bee155178)" d="
M7.2 147.493
L453.6 147.493" style="fill:none;stroke:#000000;stroke-dasharray:1.000000,3.000000;stroke-dashoffset:0.0;stroke-width:0.5;"/>
     </g>
     <g id="line2d_57">
      <g>
       <use style="stroke:#000000;stroke-width:0.5;" x="7.2" xlink:href="#m728421d6d4" y="147.493069307"/>
      </g>
     </g>
     <g id="line2d_58">
      <g>
       <use style="stroke:#000000;stroke-width:0.5;" x="453.6" xlink:href="#mcb0005524f" y="147.493069307"/>
      </g>
     </g>
    </g>
    <g id="ytick_5">
     <g id="line2d_59">
      <path clip-path="url(#p5bee155178)" d="
M7.2 79.0574
L453.6 79.0574" style="fill:none;stroke:#000000;stroke-dasharray:1.000000,3.000000;stroke-dashoffset:0.0;stroke-width:0.5;"/>
     </g>
     <g id="line2d_60">
      <g>
       <use style="stroke:#000000;stroke-width:0.5;" x="7.2" xlink:href="#m728421d6d4" y="79.0574257426"/>
      </g>
     </g>
     <g id="line2d_61">
      <g>
       <use style="stroke:#000000;stroke-width:0.5;" x="453.6" xlink:href="#mcb0005524f" y="79.0574257426"/>
      </g>
     </g>
    </g>
    <g id="ytick_6">
     <g id="line2d_62">
      <path clip-path="url(#p5bee155178)" d="
M7.2 10.6218
L453.6 10.6218" style="fill:none;stroke:#000000;stroke-dasharray:1.000000,3.000000;stroke-dashoffset:0.0;stroke-width:0.5;"/>
     </g>
     <g id="line2d_63">
      <g>
       <use style="stroke:#000000;stroke-width:0.5;" x="7.2" xlink:href="#m728421d6d4" y="10.6217821782"/>
      </g>
     </g>
     <g id="line2d_64">
      <g>
       <use style="stroke:#000000;stroke-width:0.5;" x="453.6" xlink:href="#mcb0005524f" y="10.6217821782"/>
      </g>
     </g>
    </g>
   </g>
   <g id="patch_3">
    <path d="
M7.2 7.2
L453.6 7.2" style="fill:none;stroke:#000000;"/>
   </g>
   <g id="patch_4">
    <path d="
M453.6 352.8
L453.6 7.2" style="fill:none;stroke:#000000;"/>
   </g>
   <g id="patch_5">
    <path d="
M7.2 352.8
L453.6 352.8" style="fill:none;stroke:#000000;"/>
   </g>
   <g id="patch_6">
    <path d="
M7.2 352.8
L7.2 7.2" style="fill:none;stroke:#000000;"/>
   </g>
   <g id="text_10">
    <!-- {f1-f24}, 5-D -->
    <defs>
     <path d="
M30.5625 29.8906
L30.5625 21.9219
Q26.8125 21.8281 24.4375 19.875
Q22.0781 17.9219 21.2969 14.5781
Q20.5156 11.2344 20.4531 3.07812
Q20.4062 -5.07812 20.1719 -7.67188
Q19.7344 -11.8125 18.5312 -14.2812
Q17.3281 -16.75 15.5625 -18.2344
Q13.8125 -19.7344 11.0781 -20.5156
Q9.23438 -21.0469 5.03125 -21.0469
L2.29688 -21.0469
L2.29688 -13.375
L3.8125 -13.375
Q8.89062 -13.375 10.5469 -11.5469
Q12.2031 -9.71875 12.2031 -3.32812
Q12.2031 8.89062 12.6406 12.1562
Q13.4219 17.5781 15.7656 20.8281
Q18.1094 24.0781 22.4062 25.875
Q16.7969 28.5625 14.5 32.9844
Q12.2031 37.4062 12.2031 47.9062
Q12.2031 57.4219 11.9688 59.2812
Q11.625 62.5469 10.0312 63.8438
Q8.45312 65.1406 3.8125 65.1406
L2.29688 65.1406
L2.29688 72.7969
L5.03125 72.7969
Q9.8125 72.7969 11.9688 72.0156
Q15.0938 70.9531 17.1406 68.4062
Q19.1875 65.875 19.7969 62.0156
Q20.4062 58.1562 20.4531 49.3594
Q20.5156 40.5781 21.2969 37.2344
Q22.0781 33.8906 24.4375 31.9375
Q26.8125 29.9844 30.5625 29.8906" id="ArialMT-7d"/>
     <path d="
M8.89062 0
L8.89062 10.0156
L18.8906 10.0156
L18.8906 0
Q18.8906 -5.51562 16.9375 -8.90625
Q14.9844 -12.3125 10.75 -14.1562
L8.29688 -10.4062
Q11.0781 -9.1875 12.3906 -6.8125
Q13.7188 -4.4375 13.875 0
z
" id="ArialMT-2c"/>
     <path d="
M4.15625 18.75
L13.375 19.5312
Q14.4062 12.7969 18.1406 9.39062
Q21.875 6 27.1562 6
Q33.5 6 37.8906 10.7812
Q42.2812 15.5781 42.2812 23.4844
Q42.2812 31 38.0625 35.3438
Q33.8438 39.7031 27 39.7031
Q22.75 39.7031 19.3281 37.7656
Q15.9219 35.8438 13.9688 32.7656
L5.71875 33.8438
L12.6406 70.6094
L48.25 70.6094
L48.25 62.2031
L19.6719 62.2031
L15.8281 42.9688
Q22.2656 47.4688 29.3438 47.4688
Q38.7188 47.4688 45.1562 40.9688
Q51.6094 34.4688 51.6094 24.2656
Q51.6094 14.5469 45.9531 7.46875
Q39.0625 -1.21875 27.1562 -1.21875
Q17.3906 -1.21875 11.2031 4.25
Q5.03125 9.71875 4.15625 18.75" id="ArialMT-35"/>
     <path d="
M2.78125 29.8906
Q6.54688 29.9844 8.90625 31.9062
Q11.2812 33.8438 12.0625 37.2031
Q12.8438 40.5781 12.8906 48.7344
Q12.9375 56.8906 13.1875 59.4688
Q13.625 63.5781 14.8125 66.0625
Q16.0156 68.5625 17.7656 70.0469
Q19.5312 71.5312 22.2656 72.3125
Q24.125 72.7969 28.3281 72.7969
L31.0625 72.7969
L31.0625 65.1406
L29.5469 65.1406
Q24.4688 65.1406 22.7969 63.2969
Q21.1406 61.4688 21.1406 55.125
Q21.1406 42.3281 20.6094 38.9688
Q19.7344 33.7344 17.6094 30.9062
Q15.4844 28.0781 10.9375 25.875
Q16.3125 23.6406 18.7188 19.0156
Q21.1406 14.4062 21.1406 3.90625
Q21.1406 -5.60938 21.3438 -7.42188
Q21.7344 -10.75 23.3125 -12.0625
Q24.9062 -13.375 29.5469 -13.375
L31.0625 -13.375
L31.0625 -21.0469
L28.3281 -21.0469
Q23.5312 -21.0469 21.3906 -20.2656
Q18.2656 -19.1406 16.2031 -16.625
Q14.1562 -14.1094 13.5469 -10.25
Q12.9375 -6.39062 12.8906 2.39062
Q12.8438 11.1875 12.0625 14.5469
Q11.2812 17.9219 8.90625 19.875
Q6.54688 21.8281 2.78125 21.9219
z
" id="ArialMT-7b"/>
    </defs>
    <g transform="translate(337.900125 345.888)scale(0.2 -0.2)">
     <use xlink:href="#ArialMT-7b"/>
     <use x="33.3984375" xlink:href="#ArialMT-66"/>
     <use x="61.181640625" xlink:href="#ArialMT-31"/>
     <use x="116.796875" xlink:href="#ArialMT-2d"/>
     <use x="150.09765625" xlink:href="#ArialMT-66"/>
     <use x="177.880859375" xlink:href="#ArialMT-32"/>
     <use x="233.49609375" xlink:href="#ArialMT-34"/>
     <use x="289.111328125" xlink:href="#ArialMT-7d"/>
     <use x="322.509765625" xlink:href="#ArialMT-2c"/>
     <use x="350.29296875" xlink:href="#ArialMT-20"/>
     <use x="378.076171875" xlink:href="#ArialMT-35"/>
     <use x="433.69140625" xlink:href="#ArialMT-2d"/>
     <use x="466.9921875" xlink:href="#ArialMT-44"/>
    </g>
   </g>
   <g id="text_11">
    <!-- 1.2.1.2 -->
    <defs>
     <path d="
M9.07812 0
L9.07812 10.0156
L19.0938 10.0156
L19.0938 0
z
" id="ArialMT-2e"/>
    </defs>
    <g style="fill:#808080;" transform="translate(215.91875 347.3565)scale(0.1 -0.1)">
     <use xlink:href="#ArialMT-31"/>
     <use x="55.615234375" xlink:href="#ArialMT-2e"/>
     <use x="83.3984375" xlink:href="#ArialMT-32"/>
     <use x="139.013671875" xlink:href="#ArialMT-2e"/>
     <use x="166.796875" xlink:href="#ArialMT-31"/>
     <use x="222.412109375" xlink:href="#ArialMT-2e"/>
     <use x="250.1953125" xlink:href="#ArialMT-32"/>
    </g>
   </g>
  </g>
 </g>
 <defs>
  <clipPath id="p5bee155178">
   <rect height="345.6" width="446.4" x="7.2" y="7.2"/>
  </clipPath>
 </defs>
</svg>
