<?xml version="1.0" encoding="utf-8" standalone="no"?>
<!DOCTYPE svg PUBLIC "-//W3C//DTD SVG 1.1//EN"
  "http://www.w3.org/Graphics/SVG/1.1/DTD/svg11.dtd">
<!-- Created with matplotlib (http://matplotlib.org/) -->
<svg height="407pt" version="1.1" viewBox="0 0 460 407" width="460pt" xmlns="http://www.w3.org/2000/svg" xmlns:xlink="http://www.w3.org/1999/xlink">
 <defs>
  <style type="text/css">
*{stroke-linecap:butt;stroke-linejoin:round;}
  </style>
 </defs>
 <g id="figure_1">
  <g id="patch_1">
   <path d="
M0 407.712
L460.8 407.712
L460.8 0
L0 0
z
" style="fill:#ffffff;"/>
  </g>
  <g id="axes_1">
   <g id="patch_2">
    <path d="
M7.2 352.8
L453.6 352.8
L453.6 7.2
L7.2 7.2
z
" style="fill:#ffffff;"/>
   </g>
   <g id="line2d_1">
    <path clip-path="url(#p99b4b0da67)" d="
M7.0928 352.8
L7.0928 348.238
L7.0928 348.238
L7.0928 348.238
L7.0928 343.675
L201.572 343.675
L201.572 339.113
L208.395 339.113
L208.472 329.988
L208.831 329.988
L208.831 325.426
L209.288 325.426
L209.288 320.863
L209.417 320.863
L209.466 311.739
L209.75 311.739
L209.75 307.176
L209.91 307.176
L209.91 302.614
L210.061 302.614
L210.061 298.051
L210.233 298.051
L210.233 293.489
L210.719 293.489
L210.784 279.802
L210.978 279.802
L210.978 275.24
L211.266 275.24
L211.266 270.677
L211.547 270.677
L211.649 261.552
L211.975 261.552
L211.975 256.99
L212.667 256.99
L212.763 238.741
L212.841 238.741
L212.841 234.178
L213.629 234.178
L213.629 229.616
L214.304 229.616
L214.304 225.053
L215.295 225.053
L215.295 220.491
L215.638 220.491
L215.638 215.929
L215.846 215.929
L215.846 211.366
L215.965 211.366
L216.075 202.242
L216.093 202.242
L216.196 174.867
L216.308 174.867
L216.308 170.305
L219.453 170.305
L219.453 165.743
L223.013 165.743
L223.013 156.618
L223.431 156.618
L223.431 152.055
L226.521 152.055
L226.521 147.493
L228.899 147.493
L228.899 133.806
L229.307 133.806
L229.307 129.244
L230.799 129.244
L230.799 124.681
L231.496 124.681
L231.496 115.556
L235.194 115.556
L235.194 110.994
L238.732 110.994
L238.732 106.432
L239.738 106.432
L239.738 101.869
L240.387 101.869
L240.387 97.3069
L242.211 97.3069
L242.211 92.7446
L244.135 92.7446
L244.135 83.6198
L246.129 83.6198
L246.129 79.0574
L252.07 79.0574
L252.172 69.9327
L252.324 69.9327
L252.324 65.3703
L252.901 65.3703
L252.937 56.2455
L253.335 56.2455
L253.335 51.6832
L254.204 51.6832
L254.204 47.1208
L254.553 47.1208
L254.562 37.996
L254.762 37.996
L254.762 33.4337
L254.908 33.4337
L254.908 28.8713
L255.055 28.8713
L255.055 24.3089
L255.495 24.3089
L255.59 10.6218
L255.59 10.6218
L453.6 10.6218
L453.6 10.6218" style="fill:none;stroke:#ff0000;stroke-linecap:square;stroke-width:3.0;"/>
   </g>
   <g id="line2d_2">
    <path clip-path="url(#p99b4b0da67)" d="
M227.541 352.8
L227.541 348.238
L228.345 348.238
L228.345 343.675
L230.558 343.675
L230.558 339.113
L232.917 339.113
L232.917 334.55
L234.016 334.55
L234.123 325.426
L234.23 325.426
L234.23 320.863
L235.105 320.863
L235.105 316.301
L235.632 316.301
L235.632 311.739
L236.462 311.739
L236.462 307.176
L236.609 307.176
L236.609 302.614
L236.834 302.614
L236.834 298.051
L238.552 298.051
L238.552 293.489
L239.728 293.489
L239.728 288.927
L242.174 288.927
L242.174 284.364
L253.018 284.364
L253.018 279.802
L253.135 279.802
L253.135 275.24
L253.363 275.24
L253.366 266.115
L253.52 266.115
L253.623 215.929
L253.632 215.929
L253.694 202.242
L253.79 202.242
L253.844 188.554
L253.964 188.554
L254.017 174.867
L254.078 174.867
L254.147 165.743
L254.28 165.743
L254.299 156.618
L255.203 156.618
L255.203 152.055
L255.571 152.055
L255.571 147.493
L276.213 147.493
L276.213 142.931
L278.373 142.931
L278.373 138.368
L280.276 138.368
L280.276 133.806
L285.032 133.806
L285.032 129.244
L287.583 129.244
L287.583 124.681
L289.65 124.681
L289.65 120.119
L296.019 120.119
L296.019 115.556
L297.675 115.556
L297.675 110.994
L306.088 110.994
L306.088 106.432
L309.841 106.432
L309.841 101.869
L314.168 101.869
L314.168 97.3069
L314.55 97.3069
L314.55 92.7446
L317.821 92.7446
L317.821 88.1822
L319.152 88.1822
L319.152 83.6198
L320.085 83.6198
L320.085 79.0574
L322.994 79.0574
L322.994 74.495
L323.994 74.495
L323.994 69.9327
L326.263 69.9327
L326.263 65.3703
L331.631 65.3703
L331.631 60.8079
L333.978 60.8079
L333.978 56.2455
L334.801 56.2455
L334.801 51.6832
L335.162 51.6832
L335.182 42.5584
L336.506 42.5584
L336.506 37.996
L337.935 37.996
L337.935 33.4337
L339.208 33.4337
L339.248 24.3089
L340.095 24.3089
L340.095 19.7465
L341.212 19.7465
L341.212 15.1842
L344.971 15.1842
L344.971 10.6218
L344.971 10.6218
L453.6 10.6218
L453.6 10.6218" style="fill:none;stroke:#00bfbf;stroke-linecap:square;"/>
   </g>
   <g id="line2d_3">
    <path clip-path="url(#p99b4b0da67)" d="
M225.462 352.8
L225.462 348.238
L226.061 348.238
L226.061 343.675
L227.541 343.675
L227.541 339.113
L228.345 339.113
L228.345 334.55
L229.951 334.55
L229.951 329.988
L230.558 329.988
L230.558 325.426
L231.143 325.426
L231.143 320.863
L233.785 320.863
L233.785 316.301
L234.016 316.301
L234.123 307.176
L234.23 307.176
L234.23 302.614
L234.984 302.614
L234.984 298.051
L235.476 298.051
L235.476 293.489
L236.462 293.489
L236.462 288.927
L237.031 288.927
L237.031 284.364
L253.018 284.364
L253.018 279.802
L253.135 279.802
L253.135 275.24
L253.338 275.24
L253.447 252.428
L253.45 252.428
L253.541 215.929
L253.573 215.929
L253.674 174.867
L253.75 174.867
L253.844 161.18
L253.976 161.18
L253.976 156.618
L254.148 156.618
L254.228 147.493
L275.26 147.493
L275.26 142.931
L276.213 142.931
L276.213 138.368
L278.032 138.368
L278.032 133.806
L280.276 133.806
L280.276 129.244
L285.032 129.244
L285.032 124.681
L288.993 124.681
L288.993 120.119
L289.65 120.119
L289.65 115.556
L290.122 115.556
L290.122 110.994
L296.019 110.994
L296.019 106.432
L296.187 106.432
L296.187 101.869
L297.67 101.869
L297.675 92.7446
L309.255 92.7446
L309.255 88.1822
L314.55 88.1822
L314.55 83.6198
L317.821 83.6198
L317.821 79.0574
L322.994 79.0574
L322.994 74.495
L323.994 74.495
L323.994 69.9327
L326.263 69.9327
L326.263 65.3703
L331.424 65.3703
L331.424 60.8079
L331.631 60.8079
L331.631 56.2455
L332.845 56.2455
L332.845 51.6832
L334.801 51.6832
L334.801 47.1208
L335.162 47.1208
L335.162 42.5584
L335.91 42.5584
L335.91 37.996
L336.506 37.996
L336.506 33.4337
L337.935 33.4337
L337.935 28.8713
L338.273 28.8713
L338.273 24.3089
L338.437 24.3089
L338.455 15.1842
L339.662 15.1842
L339.662 10.6218
L339.662 10.6218
L453.6 10.6218
L453.6 10.6218" style="fill:none;stroke:#bf00bf;stroke-linecap:square;"/>
   </g>
   <g id="line2d_4">
    <path clip-path="url(#p99b4b0da67)" d="
M225.462 352.8
L225.462 348.238
L226.061 348.238
L226.061 343.675
L227.541 343.675
L227.541 339.113
L228.252 339.113
L228.345 329.988
L228.655 329.988
L228.655 325.426
L229.053 325.426
L229.053 320.863
L229.905 320.863
L229.951 311.739
L230.558 311.739
L230.558 307.176
L231.399 307.176
L231.399 302.614
L231.541 302.614
L231.541 298.051
L232.194 298.051
L232.239 288.927
L234.632 288.927
L234.632 284.364
L252.94 284.364
L253.035 256.99
L253.058 256.99
L253.141 243.303
L253.254 243.303
L253.363 215.929
L253.366 215.929
L253.467 188.554
L253.521 188.554
L253.596 165.743
L253.639 165.743
L253.706 152.055
L253.79 152.055
L253.79 147.493
L275.26 147.493
L275.26 142.931
L276.213 142.931
L276.213 138.368
L277.678 138.368
L277.678 133.806
L278.032 133.806
L278.032 129.244
L278.293 129.244
L278.293 124.681
L279.451 124.681
L279.451 120.119
L280.83 120.119
L280.83 115.556
L282.033 115.556
L282.033 110.994
L282.281 110.994
L282.281 106.432
L289.65 106.432
L289.65 101.869
L294.164 101.869
L294.164 97.3069
L296.542 97.3069
L296.542 92.7446
L297.675 92.7446
L297.675 88.1822
L306.126 88.1822
L306.126 83.6198
L308.558 83.6198
L308.558 79.0574
L322.994 79.0574
L322.994 74.495
L323.994 74.495
L323.994 69.9327
L326.263 69.9327
L326.342 60.8079
L328.502 60.8079
L328.502 56.2455
L329.584 56.2455
L329.584 51.6832
L329.965 51.6832
L329.965 47.1208
L331.424 47.1208
L331.424 42.5584
L332.845 42.5584
L332.845 37.996
L333.666 37.996
L333.666 33.4337
L334.801 33.4337
L334.801 28.8713
L335.636 28.8713
L335.636 24.3089
L335.961 24.3089
L335.961 19.7465
L336.814 19.7465
L336.814 15.1842
L337.121 15.1842
L337.121 10.6218
L337.121 10.6218
L453.6 10.6218
L453.6 10.6218" style="fill:none;stroke:#000000;stroke-linecap:square;"/>
   </g>
   <g id="line2d_5">
    <path clip-path="url(#p99b4b0da67)" d="
M222.444 352.8
L222.444 348.238
L224.863 348.238
L224.863 343.675
L226.061 343.675
L226.061 339.113
L227.066 339.113
L227.066 334.55
L227.485 334.55
L227.541 325.426
L227.69 325.426
L227.69 320.863
L227.812 320.863
L227.862 311.739
L228.345 311.739
L228.345 307.176
L228.77 307.176
L228.77 302.614
L229.187 302.614
L229.187 298.051
L229.576 298.051
L229.576 293.489
L229.696 293.489
L229.696 288.927
L229.951 288.927
L229.951 284.364
L251.356 284.364
L251.356 279.802
L251.744 279.802
L251.783 270.677
L252.086 270.677
L252.086 266.115
L252.461 266.115
L252.55 252.428
L252.661 252.428
L252.661 247.865
L252.826 247.865
L252.928 229.616
L252.948 229.616
L253.038 206.804
L253.115 206.804
L253.153 193.117
L253.231 193.117
L253.325 174.867
L253.387 174.867
L253.456 156.618
L253.517 156.618
L253.566 147.493
L272.617 147.493
L272.617 142.931
L273.284 142.931
L273.369 133.806
L273.93 133.806
L273.991 124.681
L274.218 124.681
L274.218 120.119
L275.205 120.119
L275.205 115.556
L275.794 115.556
L275.794 110.994
L276.061 110.994
L276.091 97.3069
L276.691 97.3069
L276.801 88.1822
L277.258 88.1822
L277.258 83.6198
L278.458 83.6198
L278.458 79.0574
L310.248 79.0574
L310.248 74.495
L316.259 74.495
L316.259 69.9327
L318.412 69.9327
L318.412 65.3703
L319.081 65.3703
L319.081 60.8079
L322.133 60.8079
L322.133 56.2455
L323.14 56.2455
L323.14 51.6832
L325.918 51.6832
L325.918 47.1208
L326.139 47.1208
L326.139 42.5584
L326.263 42.5584
L326.342 33.4337
L327.745 33.4337
L327.84 24.3089
L328.121 24.3089
L328.121 19.7465
L331.951 19.7465
L331.951 15.1842
L332.393 15.1842
L332.393 10.6218
L332.393 10.6218
L453.6 10.6218
L453.6 10.6218" style="fill:none;stroke:#00bfbf;stroke-linecap:square;"/>
   </g>
   <g id="line2d_6">
    <path clip-path="url(#p99b4b0da67)" d="
M215.248 352.8
L215.248 348.238
L218.102 348.238
L218.211 339.113
L218.222 339.113
L218.222 334.55
L218.482 334.55
L218.484 325.426
L218.634 325.426
L218.683 316.301
L218.745 316.301
L218.745 311.739
L218.967 311.739
L218.967 307.176
L219.165 307.176
L219.25 293.489
L219.281 293.489
L219.329 279.802
L219.666 279.802
L219.774 266.115
L219.8 266.115
L219.872 256.99
L219.976 256.99
L219.976 252.428
L220.365 252.428
L220.365 247.865
L220.683 247.865
L220.77 238.741
L220.993 238.741
L220.993 234.178
L221.109 234.178
L221.109 229.616
L221.355 229.616
L221.355 225.053
L221.485 225.053
L221.485 220.491
L221.961 220.491
L221.961 215.929
L223.431 215.929
L223.431 211.366
L224.536 211.366
L224.536 206.804
L224.704 206.804
L224.704 202.242
L224.886 202.242
L224.886 197.679
L226.011 197.679
L226.011 193.117
L228.887 193.117
L228.887 188.554
L231.114 188.554
L231.114 183.992
L231.771 183.992
L231.771 179.43
L234.612 179.43
L234.612 174.867
L236.304 174.867
L236.304 170.305
L236.424 170.305
L236.424 165.743
L237.01 165.743
L237.01 161.18
L237.361 161.18
L237.361 156.618
L237.673 156.618
L237.673 152.055
L237.98 152.055
L237.98 147.493
L238.898 147.493
L238.898 142.931
L239.02 142.931
L239.02 138.368
L239.708 138.368
L239.708 133.806
L239.848 133.806
L239.848 129.244
L240.115 129.244
L240.115 124.681
L242.831 124.681
L242.831 120.119
L244.263 120.119
L244.263 115.556
L245.678 115.556
L245.678 110.994
L246.015 110.994
L246.074 101.869
L247.47 101.869
L247.47 97.3069
L248.131 97.3069
L248.131 92.7446
L249.028 92.7446
L249.123 83.6198
L250.346 83.6198
L250.346 79.0574
L260.96 79.0574
L260.96 74.495
L261.131 74.495
L261.131 69.9327
L261.256 69.9327
L261.256 65.3703
L261.445 65.3703
L261.445 60.8079
L261.733 60.8079
L261.733 56.2455
L262.049 56.2455
L262.049 51.6832
L262.343 51.6832
L262.343 47.1208
L262.498 47.1208
L262.498 42.5584
L262.754 42.5584
L262.823 33.4337
L262.888 33.4337
L262.896 24.3089
L263.766 24.3089
L263.766 19.7465
L263.963 19.7465
L263.963 15.1842
L265.468 15.1842
L265.468 10.6218
L265.468 10.6218
L453.6 10.6218
L453.6 10.6218" style="fill:none;stroke:#bf00bf;stroke-linecap:square;"/>
   </g>
   <g id="line2d_7">
    <path clip-path="url(#p99b4b0da67)" d="
M34.3014 352.8
L34.3014 348.238
L45.1904 348.238
L45.1904 343.675
L201.572 343.675
L201.572 339.113
L212.667 339.113
L212.764 320.863
L213.398 320.863
L213.398 316.301
L213.629 316.301
L213.629 311.739
L213.958 311.739
L213.958 307.176
L214.304 307.176
L214.304 302.614
L214.831 302.614
L214.831 298.051
L215.295 298.051
L215.295 293.489
L216.153 293.489
L216.153 288.927
L216.28 288.927
L216.317 275.24
L216.634 275.24
L216.634 270.677
L217.135 270.677
L217.228 252.428
L217.25 252.428
L217.343 234.178
L217.412 234.178
L217.517 206.804
L217.523 206.804
L217.523 202.242
L217.717 202.242
L217.791 193.117
L217.836 193.117
L217.842 179.43
L218.215 179.43
L218.215 174.867
L218.396 174.867
L218.396 170.305
L219.453 170.305
L219.453 165.743
L223.013 165.743
L223.013 156.618
L223.431 156.618
L223.431 152.055
L226.521 152.055
L226.521 147.493
L228.899 147.493
L228.899 133.806
L229.307 133.806
L229.307 129.244
L230.799 129.244
L230.799 124.681
L231.496 124.681
L231.496 115.556
L235.194 115.556
L235.194 110.994
L238.732 110.994
L238.732 106.432
L239.738 106.432
L239.738 101.869
L240.387 101.869
L240.387 97.3069
L242.211 97.3069
L242.211 92.7446
L244.135 92.7446
L244.135 83.6198
L246.129 83.6198
L246.129 79.0574
L255.85 79.0574
L255.85 74.495
L255.975 74.495
L255.975 69.9327
L256.173 69.9327
L256.173 65.3703
L256.302 65.3703
L256.326 56.2455
L256.566 56.2455
L256.566 51.6832
L256.889 51.6832
L256.889 47.1208
L257.049 47.1208
L257.062 37.996
L257.457 37.996
L257.462 28.8713
L257.668 28.8713
L257.668 24.3089
L258.184 24.3089
L258.274 15.1842
L258.376 15.1842
L258.376 10.6218
L258.376 10.6218
L453.6 10.6218
L453.6 10.6218" style="fill:none;stroke:#000000;stroke-linecap:square;"/>
   </g>
   <g id="line2d_8">
    <path clip-path="url(#p99b4b0da67)" d="
M7.0928 352.8
L7.0928 348.238
L7.0928 348.238
L7.0928 348.238
L7.0928 343.675
L201.572 343.675
L201.572 339.113
L211.869 339.113
L211.869 334.55
L212.301 334.55
L212.301 329.988
L212.667 329.988
L212.763 311.739
L213.01 311.739
L213.018 302.614
L213.398 302.614
L213.49 293.489
L213.629 293.489
L213.629 288.927
L213.896 288.927
L213.932 279.802
L214.087 279.802
L214.151 270.677
L214.28 270.677
L214.304 261.552
L214.769 261.552
L214.769 256.99
L214.971 256.99
L215.007 247.865
L215.233 247.865
L215.295 238.741
L215.566 238.741
L215.566 234.178
L215.846 234.178
L215.846 229.616
L216.245 229.616
L216.245 225.053
L216.625 225.053
L216.634 215.929
L216.745 215.929
L216.851 197.679
L216.9 197.679
L216.921 183.992
L217.153 183.992
L217.198 170.305
L219.453 170.305
L219.453 165.743
L223.013 165.743
L223.013 156.618
L223.431 156.618
L223.431 152.055
L226.521 152.055
L226.521 147.493
L228.899 147.493
L228.899 133.806
L229.307 133.806
L229.307 129.244
L230.799 129.244
L230.799 124.681
L231.496 124.681
L231.496 115.556
L235.194 115.556
L235.194 110.994
L238.732 110.994
L238.732 106.432
L239.738 106.432
L239.738 101.869
L240.387 101.869
L240.387 97.3069
L242.211 97.3069
L242.211 92.7446
L244.135 92.7446
L244.135 83.6198
L246.129 83.6198
L246.129 79.0574
L253.826 79.0574
L253.925 69.9327
L254.2 69.9327
L254.218 60.8079
L254.762 60.8079
L254.852 51.6832
L255.495 51.6832
L255.495 47.1208
L255.864 47.1208
L255.864 42.5584
L256.212 42.5584
L256.298 33.4337
L256.385 33.4337
L256.403 24.3089
L256.512 24.3089
L256.598 15.1842
L256.889 15.1842
L256.889 10.6218
L256.889 10.6218
L453.6 10.6218
L453.6 10.6218" style="fill:none;stroke:#00bfbf;stroke-linecap:square;"/>
   </g>
   <g id="line2d_9">
    <path clip-path="url(#p99b4b0da67)" d="
M7.0928 352.8
L7.0928 348.238
L7.0928 348.238
L7.0928 348.238
L7.0928 343.675
L201.572 343.675
L201.572 339.113
L208.395 339.113
L208.472 329.988
L208.831 329.988
L208.831 325.426
L209.288 325.426
L209.288 320.863
L209.417 320.863
L209.466 311.739
L209.75 311.739
L209.75 307.176
L209.91 307.176
L209.91 302.614
L210.061 302.614
L210.061 298.051
L210.233 298.051
L210.233 293.489
L210.719 293.489
L210.784 279.802
L210.978 279.802
L210.978 275.24
L211.266 275.24
L211.266 270.677
L211.547 270.677
L211.649 261.552
L211.975 261.552
L211.975 256.99
L212.667 256.99
L212.763 238.741
L212.841 238.741
L212.841 234.178
L213.629 234.178
L213.629 229.616
L214.304 229.616
L214.304 225.053
L215.295 225.053
L215.295 220.491
L215.638 220.491
L215.638 215.929
L215.846 215.929
L215.846 211.366
L215.965 211.366
L216.075 202.242
L216.093 202.242
L216.196 174.867
L216.308 174.867
L216.308 170.305
L219.453 170.305
L219.453 165.743
L223.013 165.743
L223.013 156.618
L223.431 156.618
L223.431 152.055
L226.521 152.055
L226.521 147.493
L228.899 147.493
L228.899 133.806
L229.307 133.806
L229.307 129.244
L230.799 129.244
L230.799 124.681
L231.496 124.681
L231.496 115.556
L235.194 115.556
L235.194 110.994
L238.732 110.994
L238.732 106.432
L239.738 106.432
L239.738 101.869
L240.387 101.869
L240.387 97.3069
L242.211 97.3069
L242.211 92.7446
L244.135 92.7446
L244.135 83.6198
L246.129 83.6198
L246.129 79.0574
L252.07 79.0574
L252.172 69.9327
L252.324 69.9327
L252.324 65.3703
L252.901 65.3703
L252.937 56.2455
L253.335 56.2455
L253.335 51.6832
L254.204 51.6832
L254.204 47.1208
L254.553 47.1208
L254.562 37.996
L254.762 37.996
L254.762 33.4337
L254.908 33.4337
L254.908 28.8713
L255.055 28.8713
L255.055 24.3089
L255.495 24.3089
L255.59 10.6218
L255.59 10.6218
L453.6 10.6218
L453.6 10.6218" style="fill:none;stroke:#bf00bf;stroke-linecap:square;"/>
   </g>
   <g id="patch_3">
    <path d="
M7.2 7.2
L453.6 7.2" style="fill:none;stroke:#000000;stroke-linecap:square;stroke-linejoin:miter;"/>
   </g>
   <g id="patch_4">
    <path d="
M453.6 352.8
L453.6 7.2" style="fill:none;stroke:#000000;stroke-linecap:square;stroke-linejoin:miter;"/>
   </g>
   <g id="patch_5">
    <path d="
M7.2 352.8
L453.6 352.8" style="fill:none;stroke:#000000;stroke-linecap:square;stroke-linejoin:miter;"/>
   </g>
   <g id="patch_6">
    <path d="
M7.2 352.8
L7.2 7.2" style="fill:none;stroke:#000000;stroke-linecap:square;stroke-linejoin:miter;"/>
   </g>
   <g id="matplotlib.axis_1">
    <g id="xtick_1"/>
    <g id="xtick_2">
     <g id="line2d_10">
      <path clip-path="url(#p99b4b0da67)" d="
M56.7047 352.8
L56.7047 7.2" style="fill:none;stroke:#000000;stroke-dasharray:1.000000,3.000000;stroke-dashoffset:0.0;stroke-width:0.5;"/>
     </g>
     <g id="line2d_11">
      <defs>
       <path d="
M0 0
L0 -4" id="m93b0483c22" style="stroke:#000000;stroke-width:0.5;"/>
      </defs>
      <g>
       <use style="stroke:#000000;stroke-width:0.5;" x="56.70471484" xlink:href="#m93b0483c22" y="352.8"/>
      </g>
     </g>
     <g id="line2d_12">
      <defs>
       <path d="
M0 0
L0 4" id="m741efc42ff" style="stroke:#000000;stroke-width:0.5;"/>
      </defs>
      <g>
       <use style="stroke:#000000;stroke-width:0.5;" x="56.70471484" xlink:href="#m741efc42ff" y="7.2"/>
      </g>
     </g>
     <g id="text_1">
      <!-- -6 -->
      <defs>
       <path d="
M33.0156 40.375
Q26.375 40.375 22.4844 35.8281
Q18.6094 31.2969 18.6094 23.3906
Q18.6094 15.5312 22.4844 10.9531
Q26.375 6.39062 33.0156 6.39062
Q39.6562 6.39062 43.5312 10.9531
Q47.4062 15.5312 47.4062 23.3906
Q47.4062 31.2969 43.5312 35.8281
Q39.6562 40.375 33.0156 40.375
M52.5938 71.2969
L52.5938 62.3125
Q48.875 64.0625 45.0938 64.9844
Q41.3125 65.9219 37.5938 65.9219
Q27.8281 65.9219 22.6719 59.3281
Q17.5312 52.7344 16.7969 39.4062
Q19.6719 43.6562 24.0156 45.9219
Q28.375 48.1875 33.5938 48.1875
Q44.5781 48.1875 50.9531 41.5156
Q57.3281 34.8594 57.3281 23.3906
Q57.3281 12.1562 50.6875 5.35938
Q44.0469 -1.42188 33.0156 -1.42188
Q20.3594 -1.42188 13.6719 8.26562
Q6.98438 17.9688 6.98438 36.375
Q6.98438 53.6562 15.1875 63.9375
Q23.3906 74.2188 37.2031 74.2188
Q40.9219 74.2188 44.7031 73.4844
Q48.4844 72.75 52.5938 71.2969" id="BitstreamVeraSans-Roman-36"/>
       <path d="
M4.89062 31.3906
L31.2031 31.3906
L31.2031 23.3906
L4.89062 23.3906
z
" id="BitstreamVeraSans-Roman-2d"/>
      </defs>
      <g transform="translate(47.85315234 371.996875)scale(0.2 -0.2)">
       <use xlink:href="#BitstreamVeraSans-Roman-2d"/>
       <use x="36.083984375" xlink:href="#BitstreamVeraSans-Roman-36"/>
      </g>
     </g>
    </g>
    <g id="xtick_3">
     <g id="line2d_13">
      <path clip-path="url(#p99b4b0da67)" d="
M106.317 352.8
L106.317 7.2" style="fill:none;stroke:#000000;stroke-dasharray:1.000000,3.000000;stroke-dashoffset:0.0;stroke-width:0.5;"/>
     </g>
     <g id="line2d_14">
      <g>
       <use style="stroke:#000000;stroke-width:0.5;" x="106.316625485" xlink:href="#m93b0483c22" y="352.8"/>
      </g>
     </g>
     <g id="line2d_15">
      <g>
       <use style="stroke:#000000;stroke-width:0.5;" x="106.316625485" xlink:href="#m741efc42ff" y="7.2"/>
      </g>
     </g>
     <g id="text_2">
      <!-- -4 -->
      <defs>
       <path d="
M37.7969 64.3125
L12.8906 25.3906
L37.7969 25.3906
z

M35.2031 72.9062
L47.6094 72.9062
L47.6094 25.3906
L58.0156 25.3906
L58.0156 17.1875
L47.6094 17.1875
L47.6094 0
L37.7969 0
L37.7969 17.1875
L4.89062 17.1875
L4.89062 26.7031
z
" id="BitstreamVeraSans-Roman-34"/>
      </defs>
      <g transform="translate(97.396312985 371.996875)scale(0.2 -0.2)">
       <use xlink:href="#BitstreamVeraSans-Roman-2d"/>
       <use x="36.083984375" xlink:href="#BitstreamVeraSans-Roman-34"/>
      </g>
     </g>
    </g>
    <g id="xtick_4">
     <g id="line2d_16">
      <path clip-path="url(#p99b4b0da67)" d="
M155.929 352.8
L155.929 7.2" style="fill:none;stroke:#000000;stroke-dasharray:1.000000,3.000000;stroke-dashoffset:0.0;stroke-width:0.5;"/>
     </g>
     <g id="line2d_17">
      <g>
       <use style="stroke:#000000;stroke-width:0.5;" x="155.92853613" xlink:href="#m93b0483c22" y="352.8"/>
      </g>
     </g>
     <g id="line2d_18">
      <g>
       <use style="stroke:#000000;stroke-width:0.5;" x="155.92853613" xlink:href="#m741efc42ff" y="7.2"/>
      </g>
     </g>
     <g id="text_3">
      <!-- -2 -->
      <defs>
       <path d="
M19.1875 8.29688
L53.6094 8.29688
L53.6094 0
L7.32812 0
L7.32812 8.29688
Q12.9375 14.1094 22.625 23.8906
Q32.3281 33.6875 34.8125 36.5312
Q39.5469 41.8438 41.4219 45.5312
Q43.3125 49.2188 43.3125 52.7812
Q43.3125 58.5938 39.2344 62.25
Q35.1562 65.9219 28.6094 65.9219
Q23.9688 65.9219 18.8125 64.3125
Q13.6719 62.7031 7.8125 59.4219
L7.8125 69.3906
Q13.7656 71.7812 18.9375 73
Q24.125 74.2188 28.4219 74.2188
Q39.75 74.2188 46.4844 68.5469
Q53.2188 62.8906 53.2188 53.4219
Q53.2188 48.9219 51.5312 44.8906
Q49.8594 40.875 45.4062 35.4062
Q44.1875 33.9844 37.6406 27.2188
Q31.1094 20.4531 19.1875 8.29688" id="BitstreamVeraSans-Roman-32"/>
      </defs>
      <g transform="translate(147.44884863 371.996875)scale(0.2 -0.2)">
       <use xlink:href="#BitstreamVeraSans-Roman-2d"/>
       <use x="36.083984375" xlink:href="#BitstreamVeraSans-Roman-32"/>
      </g>
     </g>
    </g>
    <g id="xtick_5">
     <g id="line2d_19">
      <path clip-path="url(#p99b4b0da67)" d="
M205.54 352.8
L205.54 7.2" style="fill:none;stroke:#000000;stroke-dasharray:1.000000,3.000000;stroke-dashoffset:0.0;stroke-width:0.5;"/>
     </g>
     <g id="line2d_20">
      <g>
       <use style="stroke:#000000;stroke-width:0.5;" x="205.540446775" xlink:href="#m93b0483c22" y="352.8"/>
      </g>
     </g>
     <g id="line2d_21">
      <g>
       <use style="stroke:#000000;stroke-width:0.5;" x="205.540446775" xlink:href="#m741efc42ff" y="7.2"/>
      </g>
     </g>
     <g id="text_4">
      <!-- 0 -->
      <defs>
       <path d="
M31.7812 66.4062
Q24.1719 66.4062 20.3281 58.9062
Q16.5 51.4219 16.5 36.375
Q16.5 21.3906 20.3281 13.8906
Q24.1719 6.39062 31.7812 6.39062
Q39.4531 6.39062 43.2812 13.8906
Q47.125 21.3906 47.125 36.375
Q47.125 51.4219 43.2812 58.9062
Q39.4531 66.4062 31.7812 66.4062
M31.7812 74.2188
Q44.0469 74.2188 50.5156 64.5156
Q56.9844 54.8281 56.9844 36.375
Q56.9844 17.9688 50.5156 8.26562
Q44.0469 -1.42188 31.7812 -1.42188
Q19.5312 -1.42188 13.0625 8.26562
Q6.59375 17.9688 6.59375 36.375
Q6.59375 54.8281 13.0625 64.5156
Q19.5312 74.2188 31.7812 74.2188" id="BitstreamVeraSans-Roman-30"/>
      </defs>
      <g transform="translate(200.501384275 371.996875)scale(0.2 -0.2)">
       <use xlink:href="#BitstreamVeraSans-Roman-30"/>
      </g>
     </g>
    </g>
    <g id="xtick_6">
     <g id="line2d_22">
      <path clip-path="url(#p99b4b0da67)" d="
M255.152 352.8
L255.152 7.2" style="fill:none;stroke:#000000;stroke-dasharray:1.000000,3.000000;stroke-dashoffset:0.0;stroke-width:0.5;"/>
     </g>
     <g id="line2d_23">
      <g>
       <use style="stroke:#000000;stroke-width:0.5;" x="255.15235742" xlink:href="#m93b0483c22" y="352.8"/>
      </g>
     </g>
     <g id="line2d_24">
      <g>
       <use style="stroke:#000000;stroke-width:0.5;" x="255.15235742" xlink:href="#m741efc42ff" y="7.2"/>
      </g>
     </g>
     <g id="text_5">
      <!-- 2 -->
      <g transform="translate(250.52423242 371.996875)scale(0.2 -0.2)">
       <use xlink:href="#BitstreamVeraSans-Roman-32"/>
      </g>
     </g>
    </g>
    <g id="xtick_7">
     <g id="line2d_25">
      <path clip-path="url(#p99b4b0da67)" d="
M304.764 352.8
L304.764 7.2" style="fill:none;stroke:#000000;stroke-dasharray:1.000000,3.000000;stroke-dashoffset:0.0;stroke-width:0.5;"/>
     </g>
     <g id="line2d_26">
      <g>
       <use style="stroke:#000000;stroke-width:0.5;" x="304.764268065" xlink:href="#m93b0483c22" y="352.8"/>
      </g>
     </g>
     <g id="line2d_27">
      <g>
       <use style="stroke:#000000;stroke-width:0.5;" x="304.764268065" xlink:href="#m741efc42ff" y="7.2"/>
      </g>
     </g>
     <g id="text_6">
      <!-- 4 -->
      <g transform="translate(299.451768065 371.996875)scale(0.2 -0.2)">
       <use xlink:href="#BitstreamVeraSans-Roman-34"/>
      </g>
     </g>
    </g>
    <g id="xtick_8">
     <g id="line2d_28">
      <path clip-path="url(#p99b4b0da67)" d="
M354.376 352.8
L354.376 7.2" style="fill:none;stroke:#000000;stroke-dasharray:1.000000,3.000000;stroke-dashoffset:0.0;stroke-width:0.5;"/>
     </g>
     <g id="line2d_29">
      <g>
       <use style="stroke:#000000;stroke-width:0.5;" x="354.37617871" xlink:href="#m93b0483c22" y="352.8"/>
      </g>
     </g>
     <g id="line2d_30">
      <g>
       <use style="stroke:#000000;stroke-width:0.5;" x="354.37617871" xlink:href="#m741efc42ff" y="7.2"/>
      </g>
     </g>
     <g id="text_7">
      <!-- 6 -->
      <g transform="translate(349.34180371 371.996875)scale(0.2 -0.2)">
       <use xlink:href="#BitstreamVeraSans-Roman-36"/>
      </g>
     </g>
    </g>
    <g id="xtick_9">
     <g id="line2d_31">
      <path clip-path="url(#p99b4b0da67)" d="
M403.988 352.8
L403.988 7.2" style="fill:none;stroke:#000000;stroke-dasharray:1.000000,3.000000;stroke-dashoffset:0.0;stroke-width:0.5;"/>
     </g>
     <g id="line2d_32">
      <g>
       <use style="stroke:#000000;stroke-width:0.5;" x="403.988089355" xlink:href="#m93b0483c22" y="352.8"/>
      </g>
     </g>
     <g id="line2d_33">
      <g>
       <use style="stroke:#000000;stroke-width:0.5;" x="403.988089355" xlink:href="#m741efc42ff" y="7.2"/>
      </g>
     </g>
     <g id="text_8">
      <!-- 8 -->
      <defs>
       <path d="
M31.7812 34.625
Q24.75 34.625 20.7188 30.8594
Q16.7031 27.0938 16.7031 20.5156
Q16.7031 13.9219 20.7188 10.1562
Q24.75 6.39062 31.7812 6.39062
Q38.8125 6.39062 42.8594 10.1719
Q46.9219 13.9688 46.9219 20.5156
Q46.9219 27.0938 42.8906 30.8594
Q38.875 34.625 31.7812 34.625
M21.9219 38.8125
Q15.5781 40.375 12.0312 44.7188
Q8.5 49.0781 8.5 55.3281
Q8.5 64.0625 14.7188 69.1406
Q20.9531 74.2188 31.7812 74.2188
Q42.6719 74.2188 48.875 69.1406
Q55.0781 64.0625 55.0781 55.3281
Q55.0781 49.0781 51.5312 44.7188
Q48 40.375 41.7031 38.8125
Q48.8281 37.1562 52.7969 32.3125
Q56.7812 27.4844 56.7812 20.5156
Q56.7812 9.90625 50.3125 4.23438
Q43.8438 -1.42188 31.7812 -1.42188
Q19.7344 -1.42188 13.25 4.23438
Q6.78125 9.90625 6.78125 20.5156
Q6.78125 27.4844 10.7812 32.3125
Q14.7969 37.1562 21.9219 38.8125
M18.3125 54.3906
Q18.3125 48.7344 21.8438 45.5625
Q25.3906 42.3906 31.7812 42.3906
Q38.1406 42.3906 41.7188 45.5625
Q45.3125 48.7344 45.3125 54.3906
Q45.3125 60.0625 41.7188 63.2344
Q38.1406 66.4062 31.7812 66.4062
Q25.3906 66.4062 21.8438 63.2344
Q18.3125 60.0625 18.3125 54.3906" id="BitstreamVeraSans-Roman-38"/>
      </defs>
      <g transform="translate(398.988089355 371.996875)scale(0.2 -0.2)">
       <use xlink:href="#BitstreamVeraSans-Roman-38"/>
      </g>
     </g>
    </g>
    <g id="xtick_10">
     <g id="line2d_34">
      <path clip-path="url(#p99b4b0da67)" d="
M453.6 352.8
L453.6 7.2" style="fill:none;stroke:#000000;stroke-dasharray:1.000000,3.000000;stroke-dashoffset:0.0;stroke-width:0.5;"/>
     </g>
     <g id="line2d_35">
      <g>
       <use style="stroke:#000000;stroke-width:0.5;" x="453.6" xlink:href="#m93b0483c22" y="352.8"/>
      </g>
     </g>
     <g id="line2d_36">
      <g>
       <use style="stroke:#000000;stroke-width:0.5;" x="453.6" xlink:href="#m741efc42ff" y="7.2"/>
      </g>
     </g>
    </g>
    <g id="xtick_11"/>
    <g id="xtick_12">
     <g id="line2d_37">
      <defs>
       <path d="
M0 0
L0 -2" id="m177f7580d0" style="stroke:#000000;stroke-width:0.5;"/>
      </defs>
      <g>
       <use style="stroke:#000000;stroke-width:0.5;" x="56.70471484" xlink:href="#m177f7580d0" y="352.8"/>
      </g>
     </g>
     <g id="line2d_38">
      <defs>
       <path d="
M0 0
L0 2" id="m5284c7e2a0" style="stroke:#000000;stroke-width:0.5;"/>
      </defs>
      <g>
       <use style="stroke:#000000;stroke-width:0.5;" x="56.70471484" xlink:href="#m5284c7e2a0" y="7.2"/>
      </g>
     </g>
    </g>
    <g id="xtick_13">
     <g id="line2d_39">
      <g>
       <use style="stroke:#000000;stroke-width:0.5;" x="106.316625485" xlink:href="#m177f7580d0" y="352.8"/>
      </g>
     </g>
     <g id="line2d_40">
      <g>
       <use style="stroke:#000000;stroke-width:0.5;" x="106.316625485" xlink:href="#m5284c7e2a0" y="7.2"/>
      </g>
     </g>
    </g>
    <g id="xtick_14">
     <g id="line2d_41">
      <g>
       <use style="stroke:#000000;stroke-width:0.5;" x="155.92853613" xlink:href="#m177f7580d0" y="352.8"/>
      </g>
     </g>
     <g id="line2d_42">
      <g>
       <use style="stroke:#000000;stroke-width:0.5;" x="155.92853613" xlink:href="#m5284c7e2a0" y="7.2"/>
      </g>
     </g>
    </g>
    <g id="xtick_15">
     <g id="line2d_43">
      <g>
       <use style="stroke:#000000;stroke-width:0.5;" x="205.540446775" xlink:href="#m177f7580d0" y="352.8"/>
      </g>
     </g>
     <g id="line2d_44">
      <g>
       <use style="stroke:#000000;stroke-width:0.5;" x="205.540446775" xlink:href="#m5284c7e2a0" y="7.2"/>
      </g>
     </g>
    </g>
    <g id="xtick_16">
     <g id="line2d_45">
      <g>
       <use style="stroke:#000000;stroke-width:0.5;" x="255.15235742" xlink:href="#m177f7580d0" y="352.8"/>
      </g>
     </g>
     <g id="line2d_46">
      <g>
       <use style="stroke:#000000;stroke-width:0.5;" x="255.15235742" xlink:href="#m5284c7e2a0" y="7.2"/>
      </g>
     </g>
    </g>
    <g id="xtick_17">
     <g id="line2d_47">
      <g>
       <use style="stroke:#000000;stroke-width:0.5;" x="304.764268065" xlink:href="#m177f7580d0" y="352.8"/>
      </g>
     </g>
     <g id="line2d_48">
      <g>
       <use style="stroke:#000000;stroke-width:0.5;" x="304.764268065" xlink:href="#m5284c7e2a0" y="7.2"/>
      </g>
     </g>
    </g>
    <g id="xtick_18">
     <g id="line2d_49">
      <g>
       <use style="stroke:#000000;stroke-width:0.5;" x="354.37617871" xlink:href="#m177f7580d0" y="352.8"/>
      </g>
     </g>
     <g id="line2d_50">
      <g>
       <use style="stroke:#000000;stroke-width:0.5;" x="354.37617871" xlink:href="#m5284c7e2a0" y="7.2"/>
      </g>
     </g>
    </g>
    <g id="xtick_19">
     <g id="line2d_51">
      <g>
       <use style="stroke:#000000;stroke-width:0.5;" x="403.988089355" xlink:href="#m177f7580d0" y="352.8"/>
      </g>
     </g>
     <g id="line2d_52">
      <g>
       <use style="stroke:#000000;stroke-width:0.5;" x="403.988089355" xlink:href="#m5284c7e2a0" y="7.2"/>
      </g>
     </g>
    </g>
    <g id="xtick_20">
     <g id="line2d_53">
      <g>
       <use style="stroke:#000000;stroke-width:0.5;" x="453.6" xlink:href="#m177f7580d0" y="352.8"/>
      </g>
     </g>
     <g id="line2d_54">
      <g>
       <use style="stroke:#000000;stroke-width:0.5;" x="453.6" xlink:href="#m5284c7e2a0" y="7.2"/>
      </g>
     </g>
    </g>
    <g id="text_9">
     <!-- log10 of Df -->
     <defs>
      <path id="BitstreamVeraSans-Roman-20"/>
      <path d="
M12.4062 8.29688
L28.5156 8.29688
L28.5156 63.9219
L10.9844 60.4062
L10.9844 69.3906
L28.4219 72.9062
L38.2812 72.9062
L38.2812 8.29688
L54.3906 8.29688
L54.3906 0
L12.4062 0
z
" id="BitstreamVeraSans-Roman-31"/>
      <path d="
M30.6094 48.3906
Q23.3906 48.3906 19.1875 42.75
Q14.9844 37.1094 14.9844 27.2969
Q14.9844 17.4844 19.1562 11.8438
Q23.3438 6.20312 30.6094 6.20312
Q37.7969 6.20312 41.9844 11.8594
Q46.1875 17.5312 46.1875 27.2969
Q46.1875 37.0156 41.9844 42.7031
Q37.7969 48.3906 30.6094 48.3906
M30.6094 56
Q42.3281 56 49.0156 48.375
Q55.7188 40.7656 55.7188 27.2969
Q55.7188 13.875 49.0156 6.21875
Q42.3281 -1.42188 30.6094 -1.42188
Q18.8438 -1.42188 12.1719 6.21875
Q5.51562 13.875 5.51562 27.2969
Q5.51562 40.7656 12.1719 48.375
Q18.8438 56 30.6094 56" id="BitstreamVeraSans-Roman-6f"/>
      <path d="
M9.42188 75.9844
L18.4062 75.9844
L18.4062 0
L9.42188 0
z
" id="BitstreamVeraSans-Roman-6c"/>
      <path d="
M19.6719 64.7969
L19.6719 8.10938
L31.5938 8.10938
Q46.6875 8.10938 53.6875 14.9375
Q60.6875 21.7812 60.6875 36.5312
Q60.6875 51.1719 53.6875 57.9844
Q46.6875 64.7969 31.5938 64.7969
z

M9.8125 72.9062
L30.0781 72.9062
Q51.2656 72.9062 61.1719 64.0938
Q71.0938 55.2812 71.0938 36.5312
Q71.0938 17.6719 61.125 8.82812
Q51.1719 0 30.0781 0
L9.8125 0
z
" id="BitstreamVeraSans-Roman-44"/>
      <path d="
M45.4062 27.9844
Q45.4062 37.75 41.375 43.1094
Q37.3594 48.4844 30.0781 48.4844
Q22.8594 48.4844 18.8281 43.1094
Q14.7969 37.75 14.7969 27.9844
Q14.7969 18.2656 18.8281 12.8906
Q22.8594 7.51562 30.0781 7.51562
Q37.3594 7.51562 41.375 12.8906
Q45.4062 18.2656 45.4062 27.9844
M54.3906 6.78125
Q54.3906 -7.17188 48.1875 -13.9844
Q42 -20.7969 29.2031 -20.7969
Q24.4688 -20.7969 20.2656 -20.0938
Q16.0625 -19.3906 12.1094 -17.9219
L12.1094 -9.1875
Q16.0625 -11.3281 19.9219 -12.3438
Q23.7812 -13.375 27.7812 -13.375
Q36.625 -13.375 41.0156 -8.76562
Q45.4062 -4.15625 45.4062 5.17188
L45.4062 9.625
Q42.625 4.78125 38.2812 2.39062
Q33.9375 0 27.875 0
Q17.8281 0 11.6719 7.65625
Q5.51562 15.3281 5.51562 27.9844
Q5.51562 40.6719 11.6719 48.3281
Q17.8281 56 27.875 56
Q33.9375 56 38.2812 53.6094
Q42.625 51.2188 45.4062 46.3906
L45.4062 54.6875
L54.3906 54.6875
z
" id="BitstreamVeraSans-Roman-67"/>
      <path d="
M37.1094 75.9844
L37.1094 68.5
L28.5156 68.5
Q23.6875 68.5 21.7969 66.5469
Q19.9219 64.5938 19.9219 59.5156
L19.9219 54.6875
L34.7188 54.6875
L34.7188 47.7031
L19.9219 47.7031
L19.9219 0
L10.8906 0
L10.8906 47.7031
L2.29688 47.7031
L2.29688 54.6875
L10.8906 54.6875
L10.8906 58.5
Q10.8906 67.625 15.1406 71.7969
Q19.3906 75.9844 28.6094 75.9844
z
" id="BitstreamVeraSans-Roman-66"/>
     </defs>
     <g transform="translate(175.0234375 396.353125)scale(0.2 -0.2)">
      <use xlink:href="#BitstreamVeraSans-Roman-6c"/>
      <use x="27.783203125" xlink:href="#BitstreamVeraSans-Roman-6f"/>
      <use x="88.96484375" xlink:href="#BitstreamVeraSans-Roman-67"/>
      <use x="152.44140625" xlink:href="#BitstreamVeraSans-Roman-31"/>
      <use x="216.064453125" xlink:href="#BitstreamVeraSans-Roman-30"/>
      <use x="279.6875" xlink:href="#BitstreamVeraSans-Roman-20"/>
      <use x="311.474609375" xlink:href="#BitstreamVeraSans-Roman-6f"/>
      <use x="372.65625" xlink:href="#BitstreamVeraSans-Roman-66"/>
      <use x="407.861328125" xlink:href="#BitstreamVeraSans-Roman-20"/>
      <use x="439.6484375" xlink:href="#BitstreamVeraSans-Roman-44"/>
      <use x="516.650390625" xlink:href="#BitstreamVeraSans-Roman-66"/>
     </g>
    </g>
   </g>
   <g id="matplotlib.axis_2">
    <g id="ytick_1">
     <g id="line2d_55">
      <path clip-path="url(#p99b4b0da67)" d="
M7.2 352.8
L453.6 352.8" style="fill:none;stroke:#000000;stroke-dasharray:1.000000,3.000000;stroke-dashoffset:0.0;stroke-width:0.5;"/>
     </g>
     <g id="line2d_56">
      <defs>
       <path d="
M0 0
L4 0" id="m728421d6d4" style="stroke:#000000;stroke-width:0.5;"/>
      </defs>
      <g>
       <use style="stroke:#000000;stroke-width:0.5;" x="7.2" xlink:href="#m728421d6d4" y="352.8"/>
      </g>
     </g>
     <g id="line2d_57">
      <defs>
       <path d="
M0 0
L-4 0" id="mcb0005524f" style="stroke:#000000;stroke-width:0.5;"/>
      </defs>
      <g>
       <use style="stroke:#000000;stroke-width:0.5;" x="453.6" xlink:href="#mcb0005524f" y="352.8"/>
      </g>
     </g>
    </g>
    <g id="ytick_2">
     <g id="line2d_58">
      <path clip-path="url(#p99b4b0da67)" d="
M7.2 284.364
L453.6 284.364" style="fill:none;stroke:#000000;stroke-dasharray:1.000000,3.000000;stroke-dashoffset:0.0;stroke-width:0.5;"/>
     </g>
     <g id="line2d_59">
      <g>
       <use style="stroke:#000000;stroke-width:0.5;" x="7.2" xlink:href="#m728421d6d4" y="284.364356436"/>
      </g>
     </g>
     <g id="line2d_60">
      <g>
       <use style="stroke:#000000;stroke-width:0.5;" x="453.6" xlink:href="#mcb0005524f" y="284.364356436"/>
      </g>
     </g>
    </g>
    <g id="ytick_3">
     <g id="line2d_61">
      <path clip-path="url(#p99b4b0da67)" d="
M7.2 215.929
L453.6 215.929" style="fill:none;stroke:#000000;stroke-dasharray:1.000000,3.000000;stroke-dashoffset:0.0;stroke-width:0.5;"/>
     </g>
     <g id="line2d_62">
      <g>
       <use style="stroke:#000000;stroke-width:0.5;" x="7.2" xlink:href="#m728421d6d4" y="215.928712871"/>
      </g>
     </g>
     <g id="line2d_63">
      <g>
       <use style="stroke:#000000;stroke-width:0.5;" x="453.6" xlink:href="#mcb0005524f" y="215.928712871"/>
      </g>
     </g>
    </g>
    <g id="ytick_4">
     <g id="line2d_64">
      <path clip-path="url(#p99b4b0da67)" d="
M7.2 147.493
L453.6 147.493" style="fill:none;stroke:#000000;stroke-dasharray:1.000000,3.000000;stroke-dashoffset:0.0;stroke-width:0.5;"/>
     </g>
     <g id="line2d_65">
      <g>
       <use style="stroke:#000000;stroke-width:0.5;" x="7.2" xlink:href="#m728421d6d4" y="147.493069307"/>
      </g>
     </g>
     <g id="line2d_66">
      <g>
       <use style="stroke:#000000;stroke-width:0.5;" x="453.6" xlink:href="#mcb0005524f" y="147.493069307"/>
      </g>
     </g>
    </g>
    <g id="ytick_5">
     <g id="line2d_67">
      <path clip-path="url(#p99b4b0da67)" d="
M7.2 79.0574
L453.6 79.0574" style="fill:none;stroke:#000000;stroke-dasharray:1.000000,3.000000;stroke-dashoffset:0.0;stroke-width:0.5;"/>
     </g>
     <g id="line2d_68">
      <g>
       <use style="stroke:#000000;stroke-width:0.5;" x="7.2" xlink:href="#m728421d6d4" y="79.0574257426"/>
      </g>
     </g>
     <g id="line2d_69">
      <g>
       <use style="stroke:#000000;stroke-width:0.5;" x="453.6" xlink:href="#mcb0005524f" y="79.0574257426"/>
      </g>
     </g>
    </g>
    <g id="ytick_6">
     <g id="line2d_70">
      <path clip-path="url(#p99b4b0da67)" d="
M7.2 10.6218
L453.6 10.6218" style="fill:none;stroke:#000000;stroke-dasharray:1.000000,3.000000;stroke-dashoffset:0.0;stroke-width:0.5;"/>
     </g>
     <g id="line2d_71">
      <g>
       <use style="stroke:#000000;stroke-width:0.5;" x="7.2" xlink:href="#m728421d6d4" y="10.6217821782"/>
      </g>
     </g>
     <g id="line2d_72">
      <g>
       <use style="stroke:#000000;stroke-width:0.5;" x="453.6" xlink:href="#mcb0005524f" y="10.6217821782"/>
      </g>
     </g>
    </g>
   </g>
   <g id="text_10">
    <!-- {f20-f24}, 20-D -->
    <defs>
     <path d="
M12.5 -9.28125
L15.9219 -9.28125
Q22.75 -9.28125 24.8281 -7.17188
Q26.9062 -5.07812 26.9062 1.90625
L26.9062 14.0156
Q26.9062 21.625 29.0938 25.0938
Q31.2969 28.5625 36.7188 29.8906
Q31.2969 31.1094 29.0938 34.5625
Q26.9062 38.0312 26.9062 45.7031
L26.9062 57.8125
Q26.9062 64.75 24.8281 66.875
Q22.75 69 15.9219 69
L12.5 69
L12.5 75.9844
L15.5781 75.9844
Q27.7344 75.9844 31.8125 72.3906
Q35.8906 68.7969 35.8906 58.0156
L35.8906 46.2969
Q35.8906 39.0156 38.5156 36.2031
Q41.1562 33.4062 48.0938 33.4062
L51.125 33.4062
L51.125 26.4219
L48.0938 26.4219
Q41.1562 26.4219 38.5156 23.5781
Q35.8906 20.75 35.8906 13.375
L35.8906 1.70312
Q35.8906 -9.07812 31.8125 -12.6875
Q27.7344 -16.3125 15.5781 -16.3125
L12.5 -16.3125
z
" id="BitstreamVeraSans-Roman-7d"/>
     <path d="
M51.125 -9.28125
L51.125 -16.3125
L48.0938 -16.3125
Q35.9375 -16.3125 31.8125 -12.6875
Q27.6875 -9.07812 27.6875 1.70312
L27.6875 13.375
Q27.6875 20.75 25.0469 23.5781
Q22.4062 26.4219 15.4844 26.4219
L12.5 26.4219
L12.5 33.4062
L15.4844 33.4062
Q22.4688 33.4062 25.0781 36.2031
Q27.6875 39.0156 27.6875 46.2969
L27.6875 58.0156
Q27.6875 68.7969 31.8125 72.3906
Q35.9375 75.9844 48.0938 75.9844
L51.125 75.9844
L51.125 69
L47.7969 69
Q40.9219 69 38.8125 66.8438
Q36.7188 64.7031 36.7188 57.8125
L36.7188 45.7031
Q36.7188 38.0312 34.5 34.5625
Q32.2812 31.1094 26.9062 29.8906
Q32.3281 28.5625 34.5156 25.0938
Q36.7188 21.625 36.7188 14.0156
L36.7188 1.90625
Q36.7188 -4.98438 38.8125 -7.125
Q40.9219 -9.28125 47.7969 -9.28125
z
" id="BitstreamVeraSans-Roman-7b"/>
     <path d="
M11.7188 12.4062
L22.0156 12.4062
L22.0156 4
L14.0156 -11.625
L7.71875 -11.625
L11.7188 4
z
" id="BitstreamVeraSans-Roman-2c"/>
    </defs>
    <g transform="translate(287.42825 345.888)scale(0.2 -0.2)">
     <use xlink:href="#BitstreamVeraSans-Roman-7b"/>
     <use x="63.623046875" xlink:href="#BitstreamVeraSans-Roman-66"/>
     <use x="98.828125" xlink:href="#BitstreamVeraSans-Roman-32"/>
     <use x="162.451171875" xlink:href="#BitstreamVeraSans-Roman-30"/>
     <use x="226.07421875" xlink:href="#BitstreamVeraSans-Roman-2d"/>
     <use x="262.158203125" xlink:href="#BitstreamVeraSans-Roman-66"/>
     <use x="297.36328125" xlink:href="#BitstreamVeraSans-Roman-32"/>
     <use x="360.986328125" xlink:href="#BitstreamVeraSans-Roman-34"/>
     <use x="424.609375" xlink:href="#BitstreamVeraSans-Roman-7d"/>
     <use x="488.232421875" xlink:href="#BitstreamVeraSans-Roman-2c"/>
     <use x="520.01953125" xlink:href="#BitstreamVeraSans-Roman-20"/>
     <use x="551.806640625" xlink:href="#BitstreamVeraSans-Roman-32"/>
     <use x="615.4296875" xlink:href="#BitstreamVeraSans-Roman-30"/>
     <use x="679.052734375" xlink:href="#BitstreamVeraSans-Roman-2d"/>
     <use x="715.13671875" xlink:href="#BitstreamVeraSans-Roman-44"/>
    </g>
   </g>
   <g id="text_11">
    <!-- 1.2.1 -->
    <defs>
     <path d="
M10.6875 12.4062
L21 12.4062
L21 0
L10.6875 0
z
" id="BitstreamVeraSans-Roman-2e"/>
    </defs>
    <g style="fill:#808080;" transform="translate(218.6890625 347.2643125)scale(0.1 -0.1)">
     <use xlink:href="#BitstreamVeraSans-Roman-31"/>
     <use x="63.623046875" xlink:href="#BitstreamVeraSans-Roman-2e"/>
     <use x="95.41015625" xlink:href="#BitstreamVeraSans-Roman-32"/>
     <use x="159.033203125" xlink:href="#BitstreamVeraSans-Roman-2e"/>
     <use x="190.8203125" xlink:href="#BitstreamVeraSans-Roman-31"/>
    </g>
   </g>
  </g>
 </g>
 <defs>
  <clipPath id="p99b4b0da67">
   <rect height="345.6" width="446.4" x="7.2" y="7.2"/>
  </clipPath>
 </defs>
</svg>
