<?xml version="1.0" encoding="utf-8" standalone="no"?>
<!DOCTYPE svg PUBLIC "-//W3C//DTD SVG 1.1//EN"
  "http://www.w3.org/Graphics/SVG/1.1/DTD/svg11.dtd">
<!-- Created with matplotlib (http://matplotlib.org/) -->
<svg height="415pt" version="1.1" viewBox="0 0 538 415" width="538pt" xmlns="http://www.w3.org/2000/svg" xmlns:xlink="http://www.w3.org/1999/xlink">
 <defs>
  <style type="text/css">
*{stroke-linecap:butt;stroke-linejoin:round;}
  </style>
 </defs>
 <g id="figure_1">
  <g id="patch_1">
   <path d="
M0 415.456
L538.8 415.456
L538.8 0
L0 0
z
" style="fill:#ffffff;"/>
  </g>
  <g id="axes_1">
   <g id="patch_2">
    <path d="
M85.2 359.056
L531.6 359.056
L531.6 13.4563
L85.2 13.4563
z
" style="fill:#ffffff;"/>
   </g>
   <g id="line2d_1">
    <defs>
     <path d="
M0 1.5
C0.397805 1.5 0.77937 1.34195 1.06066 1.06066
C1.34195 0.77937 1.5 0.397805 1.5 0
C1.5 -0.397805 1.34195 -0.77937 1.06066 -1.06066
C0.77937 -1.34195 0.397805 -1.5 0 -1.5
C-0.397805 -1.5 -0.77937 -1.34195 -1.06066 -1.06066
C-1.34195 -0.77937 -1.5 -0.397805 -1.5 0
C-1.5 0.397805 -1.34195 0.77937 -1.06066 1.06066
C-0.77937 1.34195 -0.397805 1.5 0 1.5
z
" id="ma8fc8663ec" style="stroke:#000080;stroke-width:0.5;"/>
    </defs>
    <g>
     <use style="fill:#000080;stroke:#000080;stroke-width:0.5;" x="214.420338841" xlink:href="#ma8fc8663ec" y="16.878125"/>
     <use style="fill:#000080;stroke:#000080;stroke-width:0.5;" x="214.420338841" xlink:href="#ma8fc8663ec" y="16.878125"/>
    </g>
   </g>
   <g id="line2d_2">
    <path d="
M149.632 359.056
L149.632 358.385
L154.34 358.385
L154.34 357.714
L159.101 357.714
L159.101 357.044
L159.942 357.044
L159.942 356.373
L160.753 356.373
L160.753 355.702
L161.535 355.702
L161.535 352.347
L162.291 352.347
L162.291 351.676
L163.023 351.676
L163.023 351.005
L163.731 351.005
L163.731 349.663
L165.729 349.663
L165.729 348.321
L166.358 348.321
L166.358 346.309
L166.969 346.309
L166.969 345.638
L168.708 345.638
L168.708 344.296
L171.336 344.296
L171.336 343.625
L173.687 343.625
L173.687 342.954
L176.999 342.954
L176.999 342.283
L178.124 342.283
L178.124 340.941
L178.844 340.941
L178.844 339.599
L181.824 339.599
L181.824 338.257
L188.706 338.257
L188.706 336.915
L190.247 336.915
L190.247 336.244
L191.285 336.244
L191.285 335.574
L191.487 335.574
L191.487 334.903
L191.886 334.903
L191.886 334.232
L192.278 334.232
L192.278 333.561
L192.853 333.561
L192.853 332.219
L193.779 332.219
L193.779 330.877
L194.843 330.877
L194.843 330.206
L196.348 330.206
L196.348 329.535
L196.51 329.535
L196.51 328.864
L197.91 328.864
L197.91 327.522
L198.506 327.522
L198.506 325.509
L198.942 325.509
L198.942 324.839
L199.511 324.839
L199.511 324.168
L199.929 324.168
L199.929 323.497
L200.066 323.497
L200.066 322.826
L200.202 322.826
L200.202 322.155
L200.338 322.155
L200.338 321.484
L200.741 321.484
L200.741 320.813
L201.395 320.813
L201.395 319.471
L202.772 319.471
L202.772 318.129
L202.893 318.129
L202.893 317.458
L203.133 317.458
L203.133 316.116
L203.252 316.116
L203.252 315.445
L203.371 315.445
L203.371 314.104
L203.488 314.104
L203.488 313.433
L203.606 313.433
L203.606 312.091
L203.722 312.091
L203.722 310.749
L203.838 310.749
L203.838 308.736
L203.954 308.736
L203.954 307.394
L204.068 307.394
L204.068 304.71
L204.183 304.71
L204.183 301.356
L204.296 301.356
L204.296 300.014
L204.634 300.014
L204.634 298.001
L204.966 298.001
L205.076 295.988
L205.185 295.988
L205.294 294.646
L205.402 294.646
L205.402 293.975
L205.617 293.975
L205.617 292.634
L205.829 292.634
L205.829 290.621
L206.04 290.621
L206.145 286.595
L206.352 286.595
L206.455 283.911
L206.558 283.911
L206.66 277.873
L206.762 277.873
L206.863 271.164
L206.964 271.164
L207.064 266.467
L207.164 266.467
L207.264 264.454
L207.363 264.454
L207.461 257.745
L207.56 257.745
L207.657 249.694
L207.755 249.694
L207.852 241.642
L207.948 241.642
L208.044 229.565
L208.14 229.565
L208.235 217.488
L208.33 217.488
L208.424 204.07
L208.518 204.07
L208.612 191.993
L208.705 191.993
L208.798 181.258
L208.89 181.258
L208.982 168.51
L209.074 168.51
L209.165 153.078
L209.256 153.078
L209.347 138.318
L209.437 138.318
L209.527 112.151
L209.617 112.151
L209.706 84.6428
L209.795 84.6428
L209.883 61.8309
L209.971 61.8309
L210.059 56.4634
L210.146 56.4634
L210.233 49.7541
L210.32 49.7541
L210.32 46.3994
L210.578 46.3994
L210.578 45.7284
L210.749 45.7284
L210.749 45.0575
L211.002 45.0575
L211.002 43.0447
L211.5 43.0447
L211.582 39.0191
L211.664 39.0191
L211.664 33.6516
L211.826 33.6516
L211.826 32.9806
L212.147 32.9806
L212.147 32.3097
L212.464 32.3097
L212.464 30.9678
L212.699 30.9678
L212.699 30.2969
L212.931 30.2969
L212.931 29.6259
L213.313 29.6259
L213.313 28.955
L213.464 28.955
L213.464 28.2841
L213.688 28.2841
L213.688 27.6131
L213.836 27.6131
L213.91 24.9294
L213.984 24.9294
L213.984 23.5875
L214.13 23.5875
L214.203 20.9038
L214.276 20.9038
L214.348 18.22
L214.42 18.22
L214.42 16.8781
L445.2 16.8781
L445.2 16.8781" style="fill:none;stroke:#000080;stroke-linecap:square;stroke-width:1.5;"/>
   </g>
   <g id="line2d_3">
    <defs>
     <path d="
M0 6
C1.59122 6 3.11748 5.3678 4.24264 4.24264
C5.3678 3.11748 6 1.59122 6 0
C6 -1.59122 5.3678 -3.11748 4.24264 -4.24264
C3.11748 -5.3678 1.59122 -6 0 -6
C-1.59122 -6 -3.11748 -5.3678 -4.24264 -4.24264
C-5.3678 -3.11748 -6 -1.59122 -6 0
C-6 1.59122 -5.3678 3.11748 -4.24264 4.24264
C-3.11748 5.3678 -1.59122 6 0 6
z
" id="mae466deef1" style="stroke:#000080;stroke-width:1.5;"/>
    </defs>
    <g>
     <use style="fill:none;stroke:#000080;stroke-width:1.5;" x="208.98243446" xlink:href="#mae466deef1" y="168.510041133"/>
     <use style="fill:none;stroke:#000080;stroke-width:1.5;" x="214.420338841" xlink:href="#mae466deef1" y="18.220000364"/>
     <use style="fill:none;stroke:#000080;stroke-width:1.5;" x="214.420338841" xlink:href="#mae466deef1" y="16.878125"/>
     <use style="fill:none;stroke:#000080;stroke-width:1.5;" x="214.420338841" xlink:href="#mae466deef1" y="16.878125"/>
     <use style="fill:none;stroke:#000080;stroke-width:1.5;" x="445.2" xlink:href="#mae466deef1" y="16.878125"/>
    </g>
   </g>
   <g id="line2d_4"/>
   <g id="line2d_5">
    <defs>
     <path d="
M0 1.5
C0.397805 1.5 0.77937 1.34195 1.06066 1.06066
C1.34195 0.77937 1.5 0.397805 1.5 0
C1.5 -0.397805 1.34195 -0.77937 1.06066 -1.06066
C0.77937 -1.34195 0.397805 -1.5 0 -1.5
C-0.397805 -1.5 -0.77937 -1.34195 -1.06066 -1.06066
C-1.34195 -0.77937 -1.5 -0.397805 -1.5 0
C-1.5 0.397805 -1.34195 0.77937 -1.06066 1.06066
C-0.77937 1.34195 -0.397805 1.5 0 1.5
z
" id="m62d5190e8e" style="stroke:#ff00ff;stroke-width:0.5;"/>
    </defs>
    <g>
     <use style="fill:#ff00ff;stroke:#ff00ff;stroke-width:0.5;" x="231.532087067" xlink:href="#m62d5190e8e" y="16.878125"/>
     <use style="fill:#ff00ff;stroke:#ff00ff;stroke-width:0.5;" x="231.532087067" xlink:href="#m62d5190e8e" y="16.878125"/>
    </g>
   </g>
   <g id="line2d_6">
    <path d="
M143.66 359.056
L143.66 358.385
L153.253 358.385
L153.253 357.714
L154.34 357.714
L154.34 357.044
L157.316 357.044
L157.316 356.373
L158.226 356.373
L158.226 354.36
L162.291 354.36
L162.291 353.689
L163.023 353.689
L163.023 352.347
L164.417 352.347
L164.417 351.676
L165.729 351.676
L165.729 349.663
L167.564 349.663
L167.564 348.992
L168.708 348.992
L168.708 348.321
L169.259 348.321
L169.259 347.65
L169.796 347.65
L169.796 346.309
L170.321 346.309
L170.321 345.638
L170.834 345.638
L170.834 344.967
L171.336 344.967
L171.336 343.625
L172.306 343.625
L172.306 342.954
L174.128 342.954
L174.128 342.283
L174.987 342.283
L174.987 340.941
L175.813 340.941
L175.813 340.27
L176.611 340.27
L176.611 339.599
L178.844 339.599
L178.844 338.928
L181.512 338.928
L181.512 337.586
L182.436 337.586
L182.436 336.915
L187.296 336.915
L187.296 335.574
L188.012 335.574
L188.012 334.903
L188.246 334.903
L188.246 333.561
L188.933 333.561
L188.933 332.89
L189.6 332.89
L189.6 332.219
L189.817 332.219
L189.817 330.877
L190.458 330.877
L190.458 330.206
L200.202 330.206
L200.202 329.535
L201.005 329.535
L201.005 328.864
L201.136 328.864
L201.136 326.851
L201.266 326.851
L201.266 326.18
L201.524 326.18
L201.524 325.509
L202.157 325.509
L202.157 324.168
L202.893 324.168
L202.893 323.497
L203.722 323.497
L203.722 322.826
L203.838 322.826
L203.838 322.155
L204.183 322.155
L204.183 320.813
L204.522 320.813
L204.522 319.471
L204.745 319.471
L204.856 313.433
L205.076 313.433
L205.076 312.762
L205.294 312.762
L205.294 312.091
L205.617 312.091
L205.617 309.407
L205.829 309.407
L205.935 307.394
L206.04 307.394
L206.04 306.052
L206.249 306.052
L206.352 301.356
L206.455 301.356
L206.558 296.659
L206.66 296.659
L206.762 289.279
L206.863 289.279
L206.964 283.24
L207.064 283.24
L207.164 277.202
L207.264 277.202
L207.363 271.164
L207.461 271.164
L207.56 267.809
L207.657 267.809
L207.755 258.416
L207.852 258.416
L207.948 251.706
L208.044 251.706
L208.14 241.642
L208.235 241.642
L208.33 232.92
L208.424 232.92
L208.518 223.527
L208.612 223.527
L208.705 206.753
L208.798 206.753
L208.89 179.916
L208.982 179.916
L209.074 163.143
L209.165 163.143
L209.256 151.066
L209.347 151.066
L209.437 141.002
L209.617 141.002
L209.706 139.66
L209.795 139.66
L209.883 135.634
L209.971 135.634
L210.059 132.279
L210.146 132.279
L210.233 128.925
L222.241 128.925
L222.241 126.912
L222.544 126.912
L222.544 126.241
L223.039 126.241
L223.137 124.899
L223.234 124.899
L223.331 122.886
L223.475 122.886
L223.571 120.873
L223.619 120.873
L223.714 117.519
L223.809 117.519
L223.903 104.1
L223.951 104.1
L223.951 102.758
L224.231 102.758
L224.231 101.416
L224.416 101.416
L224.416 100.745
L224.554 100.745
L224.599 99.4035
L224.736 99.4035
L224.826 96.0488
L224.962 96.0488
L225.007 93.365
L225.096 93.365
L225.096 92.0231
L225.274 92.0231
L225.362 84.6428
L225.407 84.6428
L225.494 71.895
L225.538 71.895
L225.626 63.1728
L225.669 63.1728
L225.756 50.425
L225.799 50.425
L225.886 46.3994
L225.929 46.3994
L226.015 36.3353
L230.644 36.3353
L230.644 35.6644
L230.921 35.6644
L230.921 34.9934
L231.058 34.9934
L231.093 33.6516
L231.263 33.6516
L231.364 29.6259
L231.398 29.6259
L231.499 20.9038
L231.532 20.9038
L231.532 16.8781
L445.2 16.8781
L445.2 16.8781" style="fill:none;stroke:#ff00ff;stroke-linecap:square;stroke-width:1.5;"/>
   </g>
   <g id="line2d_7">
    <defs>
     <path d="
M-3.9968e-16 8.48528
L5.09117 0
L4.88498e-16 -8.48528
L-5.09117 -1.77636e-15
z
" id="mf6640c921f" style="stroke:#ff00ff;stroke-linejoin:miter;stroke-width:1.5;"/>
    </defs>
    <g>
     <use style="fill:none;stroke:#ff00ff;stroke-linejoin:miter;stroke-width:1.5;" x="206.558090462" xlink:href="#mf6640c921f" y="299.342889123"/>
     <use style="fill:none;stroke:#ff00ff;stroke-linejoin:miter;stroke-width:1.5;" x="225.494453634" xlink:href="#mf6640c921f" y="71.8950149243"/>
     <use style="fill:none;stroke:#ff00ff;stroke-linejoin:miter;stroke-width:1.5;" x="231.532087067" xlink:href="#mf6640c921f" y="16.878125"/>
     <use style="fill:none;stroke:#ff00ff;stroke-linejoin:miter;stroke-width:1.5;" x="231.532087067" xlink:href="#mf6640c921f" y="16.878125"/>
     <use style="fill:none;stroke:#ff00ff;stroke-linejoin:miter;stroke-width:1.5;" x="445.2" xlink:href="#mf6640c921f" y="16.878125"/>
    </g>
   </g>
   <g id="line2d_8"/>
   <g id="line2d_9">
    <defs>
     <path d="
M0 1.5
C0.397805 1.5 0.77937 1.34195 1.06066 1.06066
C1.34195 0.77937 1.5 0.397805 1.5 0
C1.5 -0.397805 1.34195 -0.77937 1.06066 -1.06066
C0.77937 -1.34195 0.397805 -1.5 0 -1.5
C-0.397805 -1.5 -0.77937 -1.34195 -1.06066 -1.06066
C-1.34195 -0.77937 -1.5 -0.397805 -1.5 0
C-1.5 0.397805 -1.34195 0.77937 -1.06066 1.06066
C-0.77937 1.34195 -0.397805 1.5 0 1.5
z
" id="m3747452efa" style="stroke:#ffa500;stroke-width:0.5;"/>
    </defs>
    <g>
     <use style="fill:#ffa500;stroke:#ffa500;stroke-width:0.5;" x="371.403025158" xlink:href="#m3747452efa" y="37.0062554601"/>
     <use style="fill:#ffa500;stroke:#ffa500;stroke-width:0.5;" x="371.403025158" xlink:href="#m3747452efa" y="37.0062554601"/>
    </g>
   </g>
   <g id="line2d_10">
    <path d="
M145.309 359.056
L145.309 358.385
L172.776 358.385
L172.776 357.714
L174.128 357.714
L174.128 357.044
L176.611 357.044
L176.611 356.373
L176.999 356.373
L176.999 355.702
L180.875 355.702
L180.875 355.031
L183.323 355.031
L183.323 353.689
L183.895 353.689
L183.895 353.018
L184.727 353.018
L184.727 351.005
L184.998 351.005
L184.998 350.334
L186.556 350.334
L186.556 348.992
L186.805 348.992
L186.805 348.321
L187.052 348.321
L187.052 346.979
L188.478 346.979
L188.478 346.309
L190.033 346.309
L190.033 344.967
L190.247 344.967
L190.247 344.296
L191.285 344.296
L191.285 342.954
L192.083 342.954
L192.083 342.283
L193.413 342.283
L193.413 340.941
L195.356 340.941
L195.356 339.599
L197.299 339.599
L197.299 338.928
L197.91 338.928
L197.91 337.586
L198.061 337.586
L198.061 336.915
L198.798 336.915
L198.798 336.244
L198.942 336.244
L198.942 335.574
L199.228 335.574
L199.228 334.903
L200.066 334.903
L200.066 333.561
L200.338 333.561
L200.338 332.89
L200.741 332.89
L200.741 332.219
L200.873 332.219
L200.873 330.206
L202.405 330.206
L202.405 329.535
L202.65 329.535
L202.65 328.864
L202.772 328.864
L202.772 328.193
L203.013 328.193
L203.013 327.522
L204.183 327.522
L204.183 326.851
L204.296 326.851
L204.296 326.18
L204.966 326.18
L204.966 325.509
L205.723 325.509
L205.723 324.839
L205.935 324.839
L206.04 323.497
L206.352 323.497
L206.455 321.484
L207.461 321.484
L207.56 318.129
L207.657 318.129
L207.657 317.458
L207.852 317.458
L207.852 315.445
L208.982 315.445
L208.982 314.774
L209.165 314.774
L209.165 314.104
L209.706 314.104
L209.706 312.762
L210.059 312.762
L210.059 312.091
L210.492 312.091
L210.492 311.42
L211.002 311.42
L211.002 310.749
L211.418 310.749
L211.418 309.407
L211.745 309.407
L211.745 308.736
L212.227 308.736
L212.227 307.394
L212.621 307.394
L212.621 306.052
L213.161 306.052
L213.161 305.381
L213.464 305.381
L213.464 304.71
L213.688 304.71
L213.688 304.039
L214.348 304.039
L214.348 302.698
L214.778 302.698
L214.778 301.356
L215.129 301.356
L215.129 300.014
L215.338 300.014
L215.338 299.343
L216.086 299.343
L216.086 298.001
L216.417 298.001
L216.417 297.33
L216.549 297.33
L216.549 295.988
L216.874 295.988
L216.874 295.317
L217.573 295.317
L217.573 294.646
L217.698 294.646
L217.698 293.304
L217.822 293.304
L217.822 291.963
L218.068 291.963
L218.068 291.292
L218.671 291.292
L218.671 290.621
L219.026 290.621
L219.026 289.95
L219.375 289.95
L219.375 288.608
L219.775 288.608
L219.775 287.266
L219.944 287.266
L219.944 285.924
L220.279 285.924
L220.279 285.253
L220.61 285.253
L220.61 284.582
L221.042 284.582
L221.149 283.24
L221.414 283.24
L221.414 282.569
L221.624 282.569
L221.624 281.899
L221.831 281.899
L221.831 281.228
L221.986 281.228
L222.088 279.886
L222.19 279.886
L222.292 277.873
L222.342 277.873
L222.393 275.189
L222.693 275.189
L222.693 271.834
L223.137 271.834
L223.137 269.822
L223.282 269.822
L223.282 268.48
L223.667 268.48
L223.667 267.809
L223.809 267.809
L223.809 267.138
L223.997 267.138
L224.091 264.454
L224.138 264.454
L224.138 263.783
L224.37 263.783
L224.37 262.441
L224.508 262.441
L224.508 261.099
L224.736 261.099
L224.736 260.429
L224.917 260.429
L225.007 258.416
L225.451 258.416
L225.538 256.403
L225.582 256.403
L225.582 255.732
L225.756 255.732
L225.799 254.39
L226.271 254.39
L226.355 252.377
L226.439 252.377
L226.439 251.035
L226.98 251.035
L226.98 250.364
L227.143 250.364
L227.143 248.352
L227.265 248.352
L227.265 247.01
L227.386 247.01
L227.386 245.668
L228.061 245.668
L228.061 243.655
L228.256 243.655
L228.256 242.313
L228.449 242.313
L228.449 240.971
L229.056 240.971
L229.131 239.629
L229.279 239.629
L229.316 237.617
L229.574 237.617
L229.647 234.262
L230.008 234.262
L230.044 232.249
L230.364 232.249
L230.469 230.236
L230.504 230.236
L230.504 228.894
L231.093 228.894
L231.161 226.882
L231.33 226.882
L231.33 225.54
L231.465 225.54
L231.465 224.869
L231.699 224.869
L231.732 222.856
L232.45 222.856
L232.515 220.172
L232.579 220.172
L232.611 218.83
L232.801 218.83
L232.864 216.818
L233.363 216.818
L233.425 212.792
L233.517 212.792
L233.578 210.779
L233.639 210.779
L233.7 209.437
L233.882 209.437
L233.882 208.095
L234.122 208.095
L234.122 207.424
L234.27 207.424
L234.27 206.083
L234.388 206.083
L234.447 204.07
L234.565 204.07
L234.652 201.386
L234.681 201.386
L234.739 200.044
L235.142 200.044
L235.142 198.702
L235.255 198.702
L235.284 196.689
L235.537 196.689
L235.593 195.348
L235.76 195.348
L235.87 191.993
L235.98 191.993
L236.09 189.98
L236.172 189.98
L236.172 189.309
L236.334 189.309
L236.442 183.271
L236.522 183.271
L236.522 181.929
L236.762 181.929
L236.815 180.587
L237.078 180.587
L237.078 179.916
L237.312 179.916
L237.389 177.903
L237.645 177.903
L237.671 175.89
L237.949 175.89
L237.974 173.878
L238.074 173.878
L238.174 170.523
L238.248 170.523
L238.248 168.51
L238.421 168.51
L238.421 167.839
L238.593 167.839
L238.641 165.155
L238.884 165.155
L238.932 163.143
L239.004 163.143
L239.004 161.801
L239.123 161.801
L239.218 160.459
L239.289 160.459
L239.289 157.775
L239.618 157.775
L239.642 155.091
L239.896 155.091
L239.988 150.395
L240.034 150.395
L240.103 148.382
L240.329 148.382
L240.397 146.369
L240.487 146.369
L240.487 145.698
L240.621 145.698
L240.621 144.356
L240.799 144.356
L240.821 141.673
L240.953 141.673
L240.953 140.331
L241.15 140.331
L241.215 138.989
L241.345 138.989
L241.409 136.976
L241.645 136.976
L241.687 135.634
L242.088 135.634
L242.192 134.292
L242.316 134.292
L242.316 133.621
L242.501 133.621
L242.583 131.608
L242.624 131.608
L242.725 128.925
L242.746 128.925
L242.827 127.583
L242.927 127.583
L242.927 126.912
L243.286 126.912
L243.286 126.241
L243.405 126.241
L243.504 124.899
L243.834 124.899
L243.853 123.557
L244.083 123.557
L244.083 122.215
L244.235 122.215
L244.292 120.873
L244.386 120.873
L244.386 120.203
L244.686 120.203
L244.778 118.861
L244.797 118.861
L244.834 115.506
L245.363 115.506
L245.363 114.835
L245.507 114.835
L245.524 112.822
L245.667 112.822
L245.667 111.48
L246.212 111.48
L246.316 110.138
L246.333 110.138
L246.333 108.797
L246.522 108.797
L246.522 108.126
L246.794 108.126
L246.794 107.455
L246.946 107.455
L247.03 106.113
L247.362 106.113
L247.46 102.758
L247.591 102.758
L247.591 102.087
L247.963 102.087
L248.011 100.745
L248.107 100.745
L248.107 100.074
L248.219 100.074
L248.219 99.4035
L248.471 99.4035
L248.471 98.0616
L248.999 98.0616
L248.999 97.3906
L249.317 97.3906
L249.317 96.7197
L249.498 96.7197
L249.498 96.0488
L249.957 96.0488
L249.957 94.7069
L250.408 94.7069
L250.408 94.036
L250.622 94.036
L250.622 93.365
L250.906 93.365
L250.906 92.6941
L251.129 92.6941
L251.129 92.0231
L251.502 92.0231
L251.502 91.3522
L258.439 91.3522
L258.439 88.6685
L259.179 88.6685
L259.179 86.6556
L259.344 86.6556
L259.344 85.3138
L259.497 85.3138
L259.555 83.301
L260.213 83.301
L260.213 82.63
L260.499 82.63
L260.499 81.9591
L264.24 81.9591
L264.24 81.2881
L264.479 81.2881
L264.479 80.6172
L264.746 80.6172
L264.746 79.2753
L271.07 79.2753
L271.07 78.6044
L271.348 78.6044
L271.348 77.9335
L271.6 77.9335
L271.6 76.5916
L272.237 76.5916
L272.237 75.9206
L273.637 75.9206
L273.637 75.2497
L273.855 75.2497
L273.855 74.5788
L277.446 74.5788
L277.446 73.9078
L283.003 73.9078
L283.003 72.566
L283.202 72.566
L283.202 71.895
L286.705 71.895
L286.705 70.5531
L286.922 70.5531
L286.922 69.2113
L287.928 69.2113
L287.998 67.8694
L292.127 67.8694
L292.127 67.1985
L292.251 67.1985
L292.264 65.8566
L292.374 65.8566
L292.403 62.5019
L292.488 62.5019
L292.488 60.4891
L293.043 60.4891
L293.141 59.1472
L294.541 59.1472
L294.541 58.4763
L297.437 58.4763
L297.457 57.1344
L298.078 57.1344
L298.105 55.1216
L299.475 55.1216
L299.573 51.0959
L306.006 51.0959
L306.006 50.425
L306.28 50.425
L306.28 49.0831
L307.154 49.0831
L307.154 48.4122
L313.194 48.4122
L313.194 47.7413
L313.956 47.7413
L313.956 47.0703
L326.613 47.0703
L326.613 46.3994
L327.521 46.3994
L327.521 45.7284
L334.837 45.7284
L334.837 45.0575
L342.203 45.0575
L342.203 44.3866
L347.867 44.3866
L347.872 42.3738
L351.657 42.3738
L351.657 41.7028
L353.835 41.7028
L353.835 41.0319
L364.305 41.0319
L364.305 40.3609
L365.766 40.3609
L365.766 39.0191
L370.288 39.0191
L370.288 38.3481
L370.434 38.3481
L370.434 37.6772
L371.403 37.6772
L371.403 37.0063
L445.2 37.0063
L445.2 37.0063" style="fill:none;stroke:#ffa500;stroke-linecap:square;stroke-width:1.5;"/>
   </g>
   <g id="line2d_11">
    <defs>
     <path d="
M3.67394e-16 -6
L-1.34708 -1.8541
L-5.70634 -1.8541
L-2.17963 0.708204
L-3.52671 4.8541
L-4.20996e-16 2.2918
L3.52671 4.8541
L2.17963 0.708204
L5.70634 -1.8541
L1.34708 -1.8541
z
" id="m73d367cfb6" style="stroke:#ffa500;stroke-linejoin:bevel;stroke-width:1.5;"/>
    </defs>
    <g>
     <use style="fill:none;stroke:#ffa500;stroke-linejoin:bevel;stroke-width:1.5;" x="206.3522803" xlink:href="#m73d367cfb6" y="322.154770312"/>
     <use style="fill:none;stroke:#ffa500;stroke-linejoin:bevel;stroke-width:1.5;" x="235.759714211" xlink:href="#m73d367cfb6" y="195.347548413"/>
     <use style="fill:none;stroke:#ffa500;stroke-linejoin:bevel;stroke-width:1.5;" x="327.520799033" xlink:href="#m73d367cfb6" y="46.3993830082"/>
     <use style="fill:none;stroke:#ffa500;stroke-linejoin:bevel;stroke-width:1.5;" x="371.403025158" xlink:href="#m73d367cfb6" y="37.0062554601"/>
     <use style="fill:none;stroke:#ffa500;stroke-linejoin:bevel;stroke-width:1.5;" x="445.2" xlink:href="#m73d367cfb6" y="37.0062554601"/>
    </g>
   </g>
   <g id="line2d_12"/>
   <g id="line2d_13">
    <path clip-path="url(#p54ce849065)" d="
M342.343 44.3866" style="fill:none;stroke:#ffa500;stroke-linecap:square;"/>
    <defs>
     <path d="
M-12 12
L12 -12
M-12 -12
L12 12" id="m5a4593f4cb" style="stroke:#ffa500;stroke-width:3;"/>
    </defs>
    <g clip-path="url(#p54ce849065)">
     <use style="fill:#ffa500;stroke:#ffa500;stroke-width:3;" x="342.343069326" xlink:href="#m5a4593f4cb" y="44.3865699621"/>
    </g>
   </g>
   <g id="line2d_14">
    <path clip-path="url(#p54ce849065)" d="
M85.2 359.056
L85.2 359.056
L85.2 359.056
L85.2 359.056
L531.6 359.056" style="fill:none;stroke:#6495ed;stroke-linecap:square;stroke-width:1.5;"/>
   </g>
   <g id="line2d_15">
    <defs>
     <path d="
M-7.34788e-16 6
L6 -6
L-6 -6
z
" id="md7b19447de" style="stroke:#6495ed;stroke-linejoin:miter;stroke-width:1.5;"/>
    </defs>
    <g clip-path="url(#p54ce849065)">
     <use style="fill:none;stroke:#6495ed;stroke-linejoin:miter;stroke-width:1.5;" x="85.2" xlink:href="#md7b19447de" y="359.056342822"/>
     <use style="fill:none;stroke:#6495ed;stroke-linejoin:miter;stroke-width:1.5;" x="85.2" xlink:href="#md7b19447de" y="359.056342822"/>
     <use style="fill:none;stroke:#6495ed;stroke-linejoin:miter;stroke-width:1.5;" x="136.628571429" xlink:href="#md7b19447de" y="359.056342822"/>
     <use style="fill:none;stroke:#6495ed;stroke-linejoin:miter;stroke-width:1.5;" x="188.057142857" xlink:href="#md7b19447de" y="359.056342822"/>
     <use style="fill:none;stroke:#6495ed;stroke-linejoin:miter;stroke-width:1.5;" x="239.485714286" xlink:href="#md7b19447de" y="359.056342822"/>
     <use style="fill:none;stroke:#6495ed;stroke-linejoin:miter;stroke-width:1.5;" x="290.914285714" xlink:href="#md7b19447de" y="359.056342822"/>
     <use style="fill:none;stroke:#6495ed;stroke-linejoin:miter;stroke-width:1.5;" x="342.342857143" xlink:href="#md7b19447de" y="359.056342822"/>
     <use style="fill:none;stroke:#6495ed;stroke-linejoin:miter;stroke-width:1.5;" x="393.771428571" xlink:href="#md7b19447de" y="359.056342822"/>
     <use style="fill:none;stroke:#6495ed;stroke-linejoin:miter;stroke-width:1.5;" x="445.2" xlink:href="#md7b19447de" y="359.056342822"/>
     <use style="fill:none;stroke:#6495ed;stroke-linejoin:miter;stroke-width:1.5;" x="496.628571429" xlink:href="#md7b19447de" y="359.056342822"/>
    </g>
   </g>
   <g id="line2d_16"/>
   <g id="line2d_17">
    <path d="
M445.2 359.056
L484.8 352.213" style="fill:none;stroke:#6495ed;stroke-linecap:square;stroke-width:1.5;"/>
    <g>
     <use style="fill:none;stroke:#6495ed;stroke-linejoin:miter;stroke-width:1.5;" x="445.2" xlink:href="#md7b19447de" y="359.056342822"/>
     <use style="fill:none;stroke:#6495ed;stroke-linejoin:miter;stroke-width:1.5;" x="484.8" xlink:href="#md7b19447de" y="352.212778465"/>
    </g>
   </g>
   <g id="line2d_18">
    <path d="
M445.2 37.0063
L484.8 242.716" style="fill:none;stroke:#ffa500;stroke-linecap:square;stroke-width:1.5;"/>
    <g>
     <use style="fill:none;stroke:#ffa500;stroke-linejoin:bevel;stroke-width:1.5;" x="445.2" xlink:href="#m73d367cfb6" y="37.0062554601"/>
     <use style="fill:none;stroke:#ffa500;stroke-linejoin:bevel;stroke-width:1.5;" x="484.8" xlink:href="#m73d367cfb6" y="242.715748762"/>
    </g>
   </g>
   <g id="line2d_19">
    <path d="
M445.2 16.8781
L484.8 133.219" style="fill:none;stroke:#ff00ff;stroke-linecap:square;stroke-width:1.5;"/>
    <g>
     <use style="fill:none;stroke:#ff00ff;stroke-linejoin:miter;stroke-width:1.5;" x="445.2" xlink:href="#mf6640c921f" y="16.878125"/>
     <use style="fill:none;stroke:#ff00ff;stroke-linejoin:miter;stroke-width:1.5;" x="484.8" xlink:href="#mf6640c921f" y="133.218719059"/>
    </g>
   </g>
   <g id="line2d_20">
    <path d="
M445.2 16.8781
L484.8 23.7217" style="fill:none;stroke:#000080;stroke-linecap:square;stroke-width:1.5;"/>
    <g>
     <use style="fill:none;stroke:#000080;stroke-width:1.5;" x="445.2" xlink:href="#mae466deef1" y="16.878125"/>
     <use style="fill:none;stroke:#000080;stroke-width:1.5;" x="484.8" xlink:href="#mae466deef1" y="23.7216893564"/>
    </g>
   </g>
   <g id="line2d_21">
    <path d="
M445.2 359.056
L445.2 16.8781" style="fill:none;stroke:#000000;stroke-linecap:square;"/>
   </g>
   <g id="patch_3">
    <path d="
M85.2 13.4563
L531.6 13.4563" style="fill:none;stroke:#000000;stroke-linecap:square;stroke-linejoin:miter;"/>
   </g>
   <g id="patch_4">
    <path d="
M531.6 359.056
L531.6 13.4563" style="fill:none;stroke:#000000;stroke-linecap:square;stroke-linejoin:miter;"/>
   </g>
   <g id="patch_5">
    <path d="
M85.2 359.056
L531.6 359.056" style="fill:none;stroke:#000000;stroke-linecap:square;stroke-linejoin:miter;"/>
   </g>
   <g id="patch_6">
    <path d="
M85.2 359.056
L85.2 13.4563" style="fill:none;stroke:#000000;stroke-linecap:square;stroke-linejoin:miter;"/>
   </g>
   <g id="matplotlib.axis_1">
    <g id="xtick_1">
     <g id="line2d_22">
      <path clip-path="url(#p54ce849065)" d="
M85.2 359.056
L85.2 13.4563" style="fill:none;stroke:#000000;stroke-dasharray:1.000000,3.000000;stroke-dashoffset:0.0;stroke-width:0.5;"/>
     </g>
     <g id="line2d_23">
      <defs>
       <path d="
M0 0
L0 -4" id="m93b0483c22" style="stroke:#000000;stroke-width:0.5;"/>
      </defs>
      <g>
       <use style="stroke:#000000;stroke-width:0.5;" x="85.2" xlink:href="#m93b0483c22" y="359.056342822"/>
      </g>
     </g>
     <g id="line2d_24">
      <defs>
       <path d="
M0 0
L0 4" id="m741efc42ff" style="stroke:#000000;stroke-width:0.5;"/>
      </defs>
      <g>
       <use style="stroke:#000000;stroke-width:0.5;" x="85.2" xlink:href="#m741efc42ff" y="13.4563428218"/>
      </g>
     </g>
     <g id="text_1">
      <!-- 0 -->
      <defs>
       <path d="
M31.7812 66.4062
Q24.1719 66.4062 20.3281 58.9062
Q16.5 51.4219 16.5 36.375
Q16.5 21.3906 20.3281 13.8906
Q24.1719 6.39062 31.7812 6.39062
Q39.4531 6.39062 43.2812 13.8906
Q47.125 21.3906 47.125 36.375
Q47.125 51.4219 43.2812 58.9062
Q39.4531 66.4062 31.7812 66.4062
M31.7812 74.2188
Q44.0469 74.2188 50.5156 64.5156
Q56.9844 54.8281 56.9844 36.375
Q56.9844 17.9688 50.5156 8.26562
Q44.0469 -1.42188 31.7812 -1.42188
Q19.5312 -1.42188 13.0625 8.26562
Q6.59375 17.9688 6.59375 36.375
Q6.59375 54.8281 13.0625 64.5156
Q19.5312 74.2188 31.7812 74.2188" id="BitstreamVeraSans-Roman-30"/>
      </defs>
      <g transform="translate(80.1609375 378.253217822)scale(0.2 -0.2)">
       <use xlink:href="#BitstreamVeraSans-Roman-30"/>
      </g>
     </g>
    </g>
    <g id="xtick_2">
     <g id="line2d_25">
      <path clip-path="url(#p54ce849065)" d="
M136.629 359.056
L136.629 13.4563" style="fill:none;stroke:#000000;stroke-dasharray:1.000000,3.000000;stroke-dashoffset:0.0;stroke-width:0.5;"/>
     </g>
     <g id="line2d_26">
      <g>
       <use style="stroke:#000000;stroke-width:0.5;" x="136.628571429" xlink:href="#m93b0483c22" y="359.056342822"/>
      </g>
     </g>
     <g id="line2d_27">
      <g>
       <use style="stroke:#000000;stroke-width:0.5;" x="136.628571429" xlink:href="#m741efc42ff" y="13.4563428218"/>
      </g>
     </g>
     <g id="text_2">
      <!-- 1 -->
      <defs>
       <path d="
M12.4062 8.29688
L28.5156 8.29688
L28.5156 63.9219
L10.9844 60.4062
L10.9844 69.3906
L28.4219 72.9062
L38.2812 72.9062
L38.2812 8.29688
L54.3906 8.29688
L54.3906 0
L12.4062 0
z
" id="BitstreamVeraSans-Roman-31"/>
      </defs>
      <g transform="translate(132.287946429 378.253217822)scale(0.2 -0.2)">
       <use xlink:href="#BitstreamVeraSans-Roman-31"/>
      </g>
     </g>
    </g>
    <g id="xtick_3">
     <g id="line2d_28">
      <path clip-path="url(#p54ce849065)" d="
M188.057 359.056
L188.057 13.4563" style="fill:none;stroke:#000000;stroke-dasharray:1.000000,3.000000;stroke-dashoffset:0.0;stroke-width:0.5;"/>
     </g>
     <g id="line2d_29">
      <g>
       <use style="stroke:#000000;stroke-width:0.5;" x="188.057142857" xlink:href="#m93b0483c22" y="359.056342822"/>
      </g>
     </g>
     <g id="line2d_30">
      <g>
       <use style="stroke:#000000;stroke-width:0.5;" x="188.057142857" xlink:href="#m741efc42ff" y="13.4563428218"/>
      </g>
     </g>
     <g id="text_3">
      <!-- 2 -->
      <defs>
       <path d="
M19.1875 8.29688
L53.6094 8.29688
L53.6094 0
L7.32812 0
L7.32812 8.29688
Q12.9375 14.1094 22.625 23.8906
Q32.3281 33.6875 34.8125 36.5312
Q39.5469 41.8438 41.4219 45.5312
Q43.3125 49.2188 43.3125 52.7812
Q43.3125 58.5938 39.2344 62.25
Q35.1562 65.9219 28.6094 65.9219
Q23.9688 65.9219 18.8125 64.3125
Q13.6719 62.7031 7.8125 59.4219
L7.8125 69.3906
Q13.7656 71.7812 18.9375 73
Q24.125 74.2188 28.4219 74.2188
Q39.75 74.2188 46.4844 68.5469
Q53.2188 62.8906 53.2188 53.4219
Q53.2188 48.9219 51.5312 44.8906
Q49.8594 40.875 45.4062 35.4062
Q44.1875 33.9844 37.6406 27.2188
Q31.1094 20.4531 19.1875 8.29688" id="BitstreamVeraSans-Roman-32"/>
      </defs>
      <g transform="translate(183.429017857 378.253217822)scale(0.2 -0.2)">
       <use xlink:href="#BitstreamVeraSans-Roman-32"/>
      </g>
     </g>
    </g>
    <g id="xtick_4">
     <g id="line2d_31">
      <path clip-path="url(#p54ce849065)" d="
M239.486 359.056
L239.486 13.4563" style="fill:none;stroke:#000000;stroke-dasharray:1.000000,3.000000;stroke-dashoffset:0.0;stroke-width:0.5;"/>
     </g>
     <g id="line2d_32">
      <g>
       <use style="stroke:#000000;stroke-width:0.5;" x="239.485714286" xlink:href="#m93b0483c22" y="359.056342822"/>
      </g>
     </g>
     <g id="line2d_33">
      <g>
       <use style="stroke:#000000;stroke-width:0.5;" x="239.485714286" xlink:href="#m741efc42ff" y="13.4563428218"/>
      </g>
     </g>
     <g id="text_4">
      <!-- 3 -->
      <defs>
       <path d="
M40.5781 39.3125
Q47.6562 37.7969 51.625 33
Q55.6094 28.2188 55.6094 21.1875
Q55.6094 10.4062 48.1875 4.48438
Q40.7656 -1.42188 27.0938 -1.42188
Q22.5156 -1.42188 17.6562 -0.515625
Q12.7969 0.390625 7.625 2.20312
L7.625 11.7188
Q11.7188 9.32812 16.5938 8.10938
Q21.4844 6.89062 26.8125 6.89062
Q36.0781 6.89062 40.9375 10.5469
Q45.7969 14.2031 45.7969 21.1875
Q45.7969 27.6406 41.2812 31.2656
Q36.7656 34.9062 28.7188 34.9062
L20.2188 34.9062
L20.2188 43.0156
L29.1094 43.0156
Q36.375 43.0156 40.2344 45.9219
Q44.0938 48.8281 44.0938 54.2969
Q44.0938 59.9062 40.1094 62.9062
Q36.1406 65.9219 28.7188 65.9219
Q24.6562 65.9219 20.0156 65.0312
Q15.375 64.1562 9.8125 62.3125
L9.8125 71.0938
Q15.4375 72.6562 20.3438 73.4375
Q25.25 74.2188 29.5938 74.2188
Q40.8281 74.2188 47.3594 69.1094
Q53.9062 64.0156 53.9062 55.3281
Q53.9062 49.2656 50.4375 45.0938
Q46.9688 40.9219 40.5781 39.3125" id="BitstreamVeraSans-Roman-33"/>
      </defs>
      <g transform="translate(234.687276786 378.253217822)scale(0.2 -0.2)">
       <use xlink:href="#BitstreamVeraSans-Roman-33"/>
      </g>
     </g>
    </g>
    <g id="xtick_5">
     <g id="line2d_34">
      <path clip-path="url(#p54ce849065)" d="
M290.914 359.056
L290.914 13.4563" style="fill:none;stroke:#000000;stroke-dasharray:1.000000,3.000000;stroke-dashoffset:0.0;stroke-width:0.5;"/>
     </g>
     <g id="line2d_35">
      <g>
       <use style="stroke:#000000;stroke-width:0.5;" x="290.914285714" xlink:href="#m93b0483c22" y="359.056342822"/>
      </g>
     </g>
     <g id="line2d_36">
      <g>
       <use style="stroke:#000000;stroke-width:0.5;" x="290.914285714" xlink:href="#m741efc42ff" y="13.4563428218"/>
      </g>
     </g>
     <g id="text_5">
      <!-- 4 -->
      <defs>
       <path d="
M37.7969 64.3125
L12.8906 25.3906
L37.7969 25.3906
z

M35.2031 72.9062
L47.6094 72.9062
L47.6094 25.3906
L58.0156 25.3906
L58.0156 17.1875
L47.6094 17.1875
L47.6094 0
L37.7969 0
L37.7969 17.1875
L4.89062 17.1875
L4.89062 26.7031
z
" id="BitstreamVeraSans-Roman-34"/>
      </defs>
      <g transform="translate(285.601785714 378.253217822)scale(0.2 -0.2)">
       <use xlink:href="#BitstreamVeraSans-Roman-34"/>
      </g>
     </g>
    </g>
    <g id="xtick_6">
     <g id="line2d_37">
      <path clip-path="url(#p54ce849065)" d="
M342.343 359.056
L342.343 13.4563" style="fill:none;stroke:#000000;stroke-dasharray:1.000000,3.000000;stroke-dashoffset:0.0;stroke-width:0.5;"/>
     </g>
     <g id="line2d_38">
      <g>
       <use style="stroke:#000000;stroke-width:0.5;" x="342.342857143" xlink:href="#m93b0483c22" y="359.056342822"/>
      </g>
     </g>
     <g id="line2d_39">
      <g>
       <use style="stroke:#000000;stroke-width:0.5;" x="342.342857143" xlink:href="#m741efc42ff" y="13.4563428218"/>
      </g>
     </g>
     <g id="text_6">
      <!-- 5 -->
      <defs>
       <path d="
M10.7969 72.9062
L49.5156 72.9062
L49.5156 64.5938
L19.8281 64.5938
L19.8281 46.7344
Q21.9688 47.4688 24.1094 47.8281
Q26.2656 48.1875 28.4219 48.1875
Q40.625 48.1875 47.75 41.5
Q54.8906 34.8125 54.8906 23.3906
Q54.8906 11.625 47.5625 5.09375
Q40.2344 -1.42188 26.9062 -1.42188
Q22.3125 -1.42188 17.5469 -0.640625
Q12.7969 0.140625 7.71875 1.70312
L7.71875 11.625
Q12.1094 9.23438 16.7969 8.0625
Q21.4844 6.89062 26.7031 6.89062
Q35.1562 6.89062 40.0781 11.3281
Q45.0156 15.7656 45.0156 23.3906
Q45.0156 31 40.0781 35.4375
Q35.1562 39.8906 26.7031 39.8906
Q22.75 39.8906 18.8125 39.0156
Q14.8906 38.1406 10.7969 36.2812
z
" id="BitstreamVeraSans-Roman-35"/>
      </defs>
      <g transform="translate(337.625669643 378.253217822)scale(0.2 -0.2)">
       <use xlink:href="#BitstreamVeraSans-Roman-35"/>
      </g>
     </g>
    </g>
    <g id="xtick_7">
     <g id="line2d_40">
      <path clip-path="url(#p54ce849065)" d="
M393.771 359.056
L393.771 13.4563" style="fill:none;stroke:#000000;stroke-dasharray:1.000000,3.000000;stroke-dashoffset:0.0;stroke-width:0.5;"/>
     </g>
     <g id="line2d_41">
      <g>
       <use style="stroke:#000000;stroke-width:0.5;" x="393.771428571" xlink:href="#m93b0483c22" y="359.056342822"/>
      </g>
     </g>
     <g id="line2d_42">
      <g>
       <use style="stroke:#000000;stroke-width:0.5;" x="393.771428571" xlink:href="#m741efc42ff" y="13.4563428218"/>
      </g>
     </g>
     <g id="text_7">
      <!-- 6 -->
      <defs>
       <path d="
M33.0156 40.375
Q26.375 40.375 22.4844 35.8281
Q18.6094 31.2969 18.6094 23.3906
Q18.6094 15.5312 22.4844 10.9531
Q26.375 6.39062 33.0156 6.39062
Q39.6562 6.39062 43.5312 10.9531
Q47.4062 15.5312 47.4062 23.3906
Q47.4062 31.2969 43.5312 35.8281
Q39.6562 40.375 33.0156 40.375
M52.5938 71.2969
L52.5938 62.3125
Q48.875 64.0625 45.0938 64.9844
Q41.3125 65.9219 37.5938 65.9219
Q27.8281 65.9219 22.6719 59.3281
Q17.5312 52.7344 16.7969 39.4062
Q19.6719 43.6562 24.0156 45.9219
Q28.375 48.1875 33.5938 48.1875
Q44.5781 48.1875 50.9531 41.5156
Q57.3281 34.8594 57.3281 23.3906
Q57.3281 12.1562 50.6875 5.35938
Q44.0469 -1.42188 33.0156 -1.42188
Q20.3594 -1.42188 13.6719 8.26562
Q6.98438 17.9688 6.98438 36.375
Q6.98438 53.6562 15.1875 63.9375
Q23.3906 74.2188 37.2031 74.2188
Q40.9219 74.2188 44.7031 73.4844
Q48.4844 72.75 52.5938 71.2969" id="BitstreamVeraSans-Roman-36"/>
      </defs>
      <g transform="translate(388.737053571 378.253217822)scale(0.2 -0.2)">
       <use xlink:href="#BitstreamVeraSans-Roman-36"/>
      </g>
     </g>
    </g>
    <g id="xtick_8">
     <g id="line2d_43">
      <path clip-path="url(#p54ce849065)" d="
M445.2 359.056
L445.2 13.4563" style="fill:none;stroke:#000000;stroke-dasharray:1.000000,3.000000;stroke-dashoffset:0.0;stroke-width:0.5;"/>
     </g>
     <g id="line2d_44">
      <g>
       <use style="stroke:#000000;stroke-width:0.5;" x="445.2" xlink:href="#m93b0483c22" y="359.056342822"/>
      </g>
     </g>
     <g id="line2d_45">
      <g>
       <use style="stroke:#000000;stroke-width:0.5;" x="445.2" xlink:href="#m741efc42ff" y="13.4563428218"/>
      </g>
     </g>
     <g id="text_8">
      <!-- 7 -->
      <defs>
       <path d="
M8.20312 72.9062
L55.0781 72.9062
L55.0781 68.7031
L28.6094 0
L18.3125 0
L43.2188 64.5938
L8.20312 64.5938
z
" id="BitstreamVeraSans-Roman-37"/>
      </defs>
      <g transform="translate(440.5125 378.253217822)scale(0.2 -0.2)">
       <use xlink:href="#BitstreamVeraSans-Roman-37"/>
      </g>
     </g>
    </g>
    <g id="xtick_9">
     <g id="line2d_46">
      <path clip-path="url(#p54ce849065)" d="
M496.629 359.056
L496.629 13.4563" style="fill:none;stroke:#000000;stroke-dasharray:1.000000,3.000000;stroke-dashoffset:0.0;stroke-width:0.5;"/>
     </g>
     <g id="line2d_47">
      <g>
       <use style="stroke:#000000;stroke-width:0.5;" x="496.628571429" xlink:href="#m93b0483c22" y="359.056342822"/>
      </g>
     </g>
     <g id="line2d_48">
      <g>
       <use style="stroke:#000000;stroke-width:0.5;" x="496.628571429" xlink:href="#m741efc42ff" y="13.4563428218"/>
      </g>
     </g>
     <g id="text_9">
      <!-- 8 -->
      <defs>
       <path d="
M31.7812 34.625
Q24.75 34.625 20.7188 30.8594
Q16.7031 27.0938 16.7031 20.5156
Q16.7031 13.9219 20.7188 10.1562
Q24.75 6.39062 31.7812 6.39062
Q38.8125 6.39062 42.8594 10.1719
Q46.9219 13.9688 46.9219 20.5156
Q46.9219 27.0938 42.8906 30.8594
Q38.875 34.625 31.7812 34.625
M21.9219 38.8125
Q15.5781 40.375 12.0312 44.7188
Q8.5 49.0781 8.5 55.3281
Q8.5 64.0625 14.7188 69.1406
Q20.9531 74.2188 31.7812 74.2188
Q42.6719 74.2188 48.875 69.1406
Q55.0781 64.0625 55.0781 55.3281
Q55.0781 49.0781 51.5312 44.7188
Q48 40.375 41.7031 38.8125
Q48.8281 37.1562 52.7969 32.3125
Q56.7812 27.4844 56.7812 20.5156
Q56.7812 9.90625 50.3125 4.23438
Q43.8438 -1.42188 31.7812 -1.42188
Q19.7344 -1.42188 13.25 4.23438
Q6.78125 9.90625 6.78125 20.5156
Q6.78125 27.4844 10.7812 32.3125
Q14.7969 37.1562 21.9219 38.8125
M18.3125 54.3906
Q18.3125 48.7344 21.8438 45.5625
Q25.3906 42.3906 31.7812 42.3906
Q38.1406 42.3906 41.7188 45.5625
Q45.3125 48.7344 45.3125 54.3906
Q45.3125 60.0625 41.7188 63.2344
Q38.1406 66.4062 31.7812 66.4062
Q25.3906 66.4062 21.8438 63.2344
Q18.3125 60.0625 18.3125 54.3906" id="BitstreamVeraSans-Roman-38"/>
      </defs>
      <g transform="translate(491.628571429 378.253217822)scale(0.2 -0.2)">
       <use xlink:href="#BitstreamVeraSans-Roman-38"/>
      </g>
     </g>
    </g>
    <g id="xtick_10">
     <g id="line2d_49">
      <defs>
       <path d="
M0 0
L0 -2" id="m177f7580d0" style="stroke:#000000;stroke-width:0.5;"/>
      </defs>
      <g>
       <use style="stroke:#000000;stroke-width:0.5;" x="100.681542634" xlink:href="#m177f7580d0" y="359.056342822"/>
      </g>
     </g>
     <g id="line2d_50">
      <defs>
       <path d="
M0 0
L0 2" id="m5284c7e2a0" style="stroke:#000000;stroke-width:0.5;"/>
      </defs>
      <g>
       <use style="stroke:#000000;stroke-width:0.5;" x="100.681542634" xlink:href="#m5284c7e2a0" y="13.4563428218"/>
      </g>
     </g>
    </g>
    <g id="xtick_11">
     <g id="line2d_51">
      <g>
       <use style="stroke:#000000;stroke-width:0.5;" x="116.163085268" xlink:href="#m177f7580d0" y="359.056342822"/>
      </g>
     </g>
     <g id="line2d_52">
      <g>
       <use style="stroke:#000000;stroke-width:0.5;" x="116.163085268" xlink:href="#m5284c7e2a0" y="13.4563428218"/>
      </g>
     </g>
    </g>
    <g id="xtick_12">
     <g id="line2d_53">
      <g>
       <use style="stroke:#000000;stroke-width:0.5;" x="125.219207163" xlink:href="#m177f7580d0" y="359.056342822"/>
      </g>
     </g>
     <g id="line2d_54">
      <g>
       <use style="stroke:#000000;stroke-width:0.5;" x="125.219207163" xlink:href="#m5284c7e2a0" y="13.4563428218"/>
      </g>
     </g>
    </g>
    <g id="xtick_13">
     <g id="line2d_55">
      <g>
       <use style="stroke:#000000;stroke-width:0.5;" x="131.644627902" xlink:href="#m177f7580d0" y="359.056342822"/>
      </g>
     </g>
     <g id="line2d_56">
      <g>
       <use style="stroke:#000000;stroke-width:0.5;" x="131.644627902" xlink:href="#m5284c7e2a0" y="13.4563428218"/>
      </g>
     </g>
    </g>
    <g id="xtick_14">
     <g id="line2d_57">
      <g>
       <use style="stroke:#000000;stroke-width:0.5;" x="152.110114063" xlink:href="#m177f7580d0" y="359.056342822"/>
      </g>
     </g>
     <g id="line2d_58">
      <g>
       <use style="stroke:#000000;stroke-width:0.5;" x="152.110114063" xlink:href="#m5284c7e2a0" y="13.4563428218"/>
      </g>
     </g>
    </g>
    <g id="xtick_15">
     <g id="line2d_59">
      <g>
       <use style="stroke:#000000;stroke-width:0.5;" x="167.591656697" xlink:href="#m177f7580d0" y="359.056342822"/>
      </g>
     </g>
     <g id="line2d_60">
      <g>
       <use style="stroke:#000000;stroke-width:0.5;" x="167.591656697" xlink:href="#m5284c7e2a0" y="13.4563428218"/>
      </g>
     </g>
    </g>
    <g id="xtick_16">
     <g id="line2d_61">
      <g>
       <use style="stroke:#000000;stroke-width:0.5;" x="176.647778591" xlink:href="#m177f7580d0" y="359.056342822"/>
      </g>
     </g>
     <g id="line2d_62">
      <g>
       <use style="stroke:#000000;stroke-width:0.5;" x="176.647778591" xlink:href="#m5284c7e2a0" y="13.4563428218"/>
      </g>
     </g>
    </g>
    <g id="xtick_17">
     <g id="line2d_63">
      <g>
       <use style="stroke:#000000;stroke-width:0.5;" x="183.073199331" xlink:href="#m177f7580d0" y="359.056342822"/>
      </g>
     </g>
     <g id="line2d_64">
      <g>
       <use style="stroke:#000000;stroke-width:0.5;" x="183.073199331" xlink:href="#m5284c7e2a0" y="13.4563428218"/>
      </g>
     </g>
    </g>
    <g id="xtick_18">
     <g id="line2d_65">
      <g>
       <use style="stroke:#000000;stroke-width:0.5;" x="203.538685491" xlink:href="#m177f7580d0" y="359.056342822"/>
      </g>
     </g>
     <g id="line2d_66">
      <g>
       <use style="stroke:#000000;stroke-width:0.5;" x="203.538685491" xlink:href="#m5284c7e2a0" y="13.4563428218"/>
      </g>
     </g>
    </g>
    <g id="xtick_19">
     <g id="line2d_67">
      <g>
       <use style="stroke:#000000;stroke-width:0.5;" x="219.020228125" xlink:href="#m177f7580d0" y="359.056342822"/>
      </g>
     </g>
     <g id="line2d_68">
      <g>
       <use style="stroke:#000000;stroke-width:0.5;" x="219.020228125" xlink:href="#m5284c7e2a0" y="13.4563428218"/>
      </g>
     </g>
    </g>
    <g id="xtick_20">
     <g id="line2d_69">
      <g>
       <use style="stroke:#000000;stroke-width:0.5;" x="228.07635002" xlink:href="#m177f7580d0" y="359.056342822"/>
      </g>
     </g>
     <g id="line2d_70">
      <g>
       <use style="stroke:#000000;stroke-width:0.5;" x="228.07635002" xlink:href="#m5284c7e2a0" y="13.4563428218"/>
      </g>
     </g>
    </g>
    <g id="xtick_21">
     <g id="line2d_71">
      <g>
       <use style="stroke:#000000;stroke-width:0.5;" x="234.50177076" xlink:href="#m177f7580d0" y="359.056342822"/>
      </g>
     </g>
     <g id="line2d_72">
      <g>
       <use style="stroke:#000000;stroke-width:0.5;" x="234.50177076" xlink:href="#m5284c7e2a0" y="13.4563428218"/>
      </g>
     </g>
    </g>
    <g id="xtick_22">
     <g id="line2d_73">
      <g>
       <use style="stroke:#000000;stroke-width:0.5;" x="254.96725692" xlink:href="#m177f7580d0" y="359.056342822"/>
      </g>
     </g>
     <g id="line2d_74">
      <g>
       <use style="stroke:#000000;stroke-width:0.5;" x="254.96725692" xlink:href="#m5284c7e2a0" y="13.4563428218"/>
      </g>
     </g>
    </g>
    <g id="xtick_23">
     <g id="line2d_75">
      <g>
       <use style="stroke:#000000;stroke-width:0.5;" x="270.448799554" xlink:href="#m177f7580d0" y="359.056342822"/>
      </g>
     </g>
     <g id="line2d_76">
      <g>
       <use style="stroke:#000000;stroke-width:0.5;" x="270.448799554" xlink:href="#m5284c7e2a0" y="13.4563428218"/>
      </g>
     </g>
    </g>
    <g id="xtick_24">
     <g id="line2d_77">
      <g>
       <use style="stroke:#000000;stroke-width:0.5;" x="279.504921448" xlink:href="#m177f7580d0" y="359.056342822"/>
      </g>
     </g>
     <g id="line2d_78">
      <g>
       <use style="stroke:#000000;stroke-width:0.5;" x="279.504921448" xlink:href="#m5284c7e2a0" y="13.4563428218"/>
      </g>
     </g>
    </g>
    <g id="xtick_25">
     <g id="line2d_79">
      <g>
       <use style="stroke:#000000;stroke-width:0.5;" x="285.930342188" xlink:href="#m177f7580d0" y="359.056342822"/>
      </g>
     </g>
     <g id="line2d_80">
      <g>
       <use style="stroke:#000000;stroke-width:0.5;" x="285.930342188" xlink:href="#m5284c7e2a0" y="13.4563428218"/>
      </g>
     </g>
    </g>
    <g id="xtick_26">
     <g id="line2d_81">
      <g>
       <use style="stroke:#000000;stroke-width:0.5;" x="306.395828348" xlink:href="#m177f7580d0" y="359.056342822"/>
      </g>
     </g>
     <g id="line2d_82">
      <g>
       <use style="stroke:#000000;stroke-width:0.5;" x="306.395828348" xlink:href="#m5284c7e2a0" y="13.4563428218"/>
      </g>
     </g>
    </g>
    <g id="xtick_27">
     <g id="line2d_83">
      <g>
       <use style="stroke:#000000;stroke-width:0.5;" x="321.877370983" xlink:href="#m177f7580d0" y="359.056342822"/>
      </g>
     </g>
     <g id="line2d_84">
      <g>
       <use style="stroke:#000000;stroke-width:0.5;" x="321.877370983" xlink:href="#m5284c7e2a0" y="13.4563428218"/>
      </g>
     </g>
    </g>
    <g id="xtick_28">
     <g id="line2d_85">
      <g>
       <use style="stroke:#000000;stroke-width:0.5;" x="330.933492877" xlink:href="#m177f7580d0" y="359.056342822"/>
      </g>
     </g>
     <g id="line2d_86">
      <g>
       <use style="stroke:#000000;stroke-width:0.5;" x="330.933492877" xlink:href="#m5284c7e2a0" y="13.4563428218"/>
      </g>
     </g>
    </g>
    <g id="xtick_29">
     <g id="line2d_87">
      <g>
       <use style="stroke:#000000;stroke-width:0.5;" x="337.358913617" xlink:href="#m177f7580d0" y="359.056342822"/>
      </g>
     </g>
     <g id="line2d_88">
      <g>
       <use style="stroke:#000000;stroke-width:0.5;" x="337.358913617" xlink:href="#m5284c7e2a0" y="13.4563428218"/>
      </g>
     </g>
    </g>
    <g id="xtick_30">
     <g id="line2d_89">
      <g>
       <use style="stroke:#000000;stroke-width:0.5;" x="357.824399777" xlink:href="#m177f7580d0" y="359.056342822"/>
      </g>
     </g>
     <g id="line2d_90">
      <g>
       <use style="stroke:#000000;stroke-width:0.5;" x="357.824399777" xlink:href="#m5284c7e2a0" y="13.4563428218"/>
      </g>
     </g>
    </g>
    <g id="xtick_31">
     <g id="line2d_91">
      <g>
       <use style="stroke:#000000;stroke-width:0.5;" x="373.305942411" xlink:href="#m177f7580d0" y="359.056342822"/>
      </g>
     </g>
     <g id="line2d_92">
      <g>
       <use style="stroke:#000000;stroke-width:0.5;" x="373.305942411" xlink:href="#m5284c7e2a0" y="13.4563428218"/>
      </g>
     </g>
    </g>
    <g id="xtick_32">
     <g id="line2d_93">
      <g>
       <use style="stroke:#000000;stroke-width:0.5;" x="382.362064305" xlink:href="#m177f7580d0" y="359.056342822"/>
      </g>
     </g>
     <g id="line2d_94">
      <g>
       <use style="stroke:#000000;stroke-width:0.5;" x="382.362064305" xlink:href="#m5284c7e2a0" y="13.4563428218"/>
      </g>
     </g>
    </g>
    <g id="xtick_33">
     <g id="line2d_95">
      <g>
       <use style="stroke:#000000;stroke-width:0.5;" x="388.787485045" xlink:href="#m177f7580d0" y="359.056342822"/>
      </g>
     </g>
     <g id="line2d_96">
      <g>
       <use style="stroke:#000000;stroke-width:0.5;" x="388.787485045" xlink:href="#m5284c7e2a0" y="13.4563428218"/>
      </g>
     </g>
    </g>
    <g id="xtick_34">
     <g id="line2d_97">
      <g>
       <use style="stroke:#000000;stroke-width:0.5;" x="409.252971206" xlink:href="#m177f7580d0" y="359.056342822"/>
      </g>
     </g>
     <g id="line2d_98">
      <g>
       <use style="stroke:#000000;stroke-width:0.5;" x="409.252971206" xlink:href="#m5284c7e2a0" y="13.4563428218"/>
      </g>
     </g>
    </g>
    <g id="xtick_35">
     <g id="line2d_99">
      <g>
       <use style="stroke:#000000;stroke-width:0.5;" x="424.73451384" xlink:href="#m177f7580d0" y="359.056342822"/>
      </g>
     </g>
     <g id="line2d_100">
      <g>
       <use style="stroke:#000000;stroke-width:0.5;" x="424.73451384" xlink:href="#m5284c7e2a0" y="13.4563428218"/>
      </g>
     </g>
    </g>
    <g id="xtick_36">
     <g id="line2d_101">
      <g>
       <use style="stroke:#000000;stroke-width:0.5;" x="433.790635734" xlink:href="#m177f7580d0" y="359.056342822"/>
      </g>
     </g>
     <g id="line2d_102">
      <g>
       <use style="stroke:#000000;stroke-width:0.5;" x="433.790635734" xlink:href="#m5284c7e2a0" y="13.4563428218"/>
      </g>
     </g>
    </g>
    <g id="xtick_37">
     <g id="line2d_103">
      <g>
       <use style="stroke:#000000;stroke-width:0.5;" x="440.216056474" xlink:href="#m177f7580d0" y="359.056342822"/>
      </g>
     </g>
     <g id="line2d_104">
      <g>
       <use style="stroke:#000000;stroke-width:0.5;" x="440.216056474" xlink:href="#m5284c7e2a0" y="13.4563428218"/>
      </g>
     </g>
    </g>
    <g id="xtick_38">
     <g id="line2d_105">
      <g>
       <use style="stroke:#000000;stroke-width:0.5;" x="460.681542634" xlink:href="#m177f7580d0" y="359.056342822"/>
      </g>
     </g>
     <g id="line2d_106">
      <g>
       <use style="stroke:#000000;stroke-width:0.5;" x="460.681542634" xlink:href="#m5284c7e2a0" y="13.4563428218"/>
      </g>
     </g>
    </g>
    <g id="xtick_39">
     <g id="line2d_107">
      <g>
       <use style="stroke:#000000;stroke-width:0.5;" x="476.163085268" xlink:href="#m177f7580d0" y="359.056342822"/>
      </g>
     </g>
     <g id="line2d_108">
      <g>
       <use style="stroke:#000000;stroke-width:0.5;" x="476.163085268" xlink:href="#m5284c7e2a0" y="13.4563428218"/>
      </g>
     </g>
    </g>
    <g id="xtick_40">
     <g id="line2d_109">
      <g>
       <use style="stroke:#000000;stroke-width:0.5;" x="485.219207163" xlink:href="#m177f7580d0" y="359.056342822"/>
      </g>
     </g>
     <g id="line2d_110">
      <g>
       <use style="stroke:#000000;stroke-width:0.5;" x="485.219207163" xlink:href="#m5284c7e2a0" y="13.4563428218"/>
      </g>
     </g>
    </g>
    <g id="xtick_41">
     <g id="line2d_111">
      <g>
       <use style="stroke:#000000;stroke-width:0.5;" x="491.644627902" xlink:href="#m177f7580d0" y="359.056342822"/>
      </g>
     </g>
     <g id="line2d_112">
      <g>
       <use style="stroke:#000000;stroke-width:0.5;" x="491.644627902" xlink:href="#m5284c7e2a0" y="13.4563428218"/>
      </g>
     </g>
    </g>
    <g id="xtick_42">
     <g id="line2d_113">
      <g>
       <use style="stroke:#000000;stroke-width:0.5;" x="512.110114063" xlink:href="#m177f7580d0" y="359.056342822"/>
      </g>
     </g>
     <g id="line2d_114">
      <g>
       <use style="stroke:#000000;stroke-width:0.5;" x="512.110114063" xlink:href="#m5284c7e2a0" y="13.4563428218"/>
      </g>
     </g>
    </g>
    <g id="xtick_43">
     <g id="line2d_115">
      <g>
       <use style="stroke:#000000;stroke-width:0.5;" x="527.591656697" xlink:href="#m177f7580d0" y="359.056342822"/>
      </g>
     </g>
     <g id="line2d_116">
      <g>
       <use style="stroke:#000000;stroke-width:0.5;" x="527.591656697" xlink:href="#m5284c7e2a0" y="13.4563428218"/>
      </g>
     </g>
    </g>
    <g id="text_10">
     <!-- log10 of (# f-evals / dimension) -->
     <defs>
      <path id="BitstreamVeraSans-Roman-20"/>
      <path d="
M51.125 44
L36.9219 44
L32.8125 27.6875
L47.125 27.6875
z

M43.7969 71.7812
L38.7188 51.5156
L52.9844 51.5156
L58.1094 71.7812
L65.9219 71.7812
L60.8906 51.5156
L76.125 51.5156
L76.125 44
L58.9844 44
L54.9844 27.6875
L70.5156 27.6875
L70.5156 20.2188
L53.0781 20.2188
L48 0
L40.1875 0
L45.2188 20.2188
L30.9062 20.2188
L25.875 0
L18.0156 0
L23.0938 20.2188
L7.71875 20.2188
L7.71875 27.6875
L24.9062 27.6875
L29 44
L13.2812 44
L13.2812 51.5156
L30.9062 51.5156
L35.8906 71.7812
z
" id="BitstreamVeraSans-Roman-23"/>
      <path d="
M52 44.1875
Q55.375 50.25 60.0625 53.125
Q64.75 56 71.0938 56
Q79.6406 56 84.2812 50.0156
Q88.9219 44.0469 88.9219 33.0156
L88.9219 0
L79.8906 0
L79.8906 32.7188
Q79.8906 40.5781 77.0938 44.375
Q74.3125 48.1875 68.6094 48.1875
Q61.625 48.1875 57.5625 43.5469
Q53.5156 38.9219 53.5156 30.9062
L53.5156 0
L44.4844 0
L44.4844 32.7188
Q44.4844 40.625 41.7031 44.4062
Q38.9219 48.1875 33.1094 48.1875
Q26.2188 48.1875 22.1562 43.5312
Q18.1094 38.875 18.1094 30.9062
L18.1094 0
L9.07812 0
L9.07812 54.6875
L18.1094 54.6875
L18.1094 46.1875
Q21.1875 51.2188 25.4844 53.6094
Q29.7812 56 35.6875 56
Q41.6562 56 45.8281 52.9688
Q50 49.9531 52 44.1875" id="BitstreamVeraSans-Roman-6d"/>
      <path d="
M54.8906 33.0156
L54.8906 0
L45.9062 0
L45.9062 32.7188
Q45.9062 40.4844 42.875 44.3281
Q39.8438 48.1875 33.7969 48.1875
Q26.5156 48.1875 22.3125 43.5469
Q18.1094 38.9219 18.1094 30.9062
L18.1094 0
L9.07812 0
L9.07812 54.6875
L18.1094 54.6875
L18.1094 46.1875
Q21.3438 51.125 25.7031 53.5625
Q30.0781 56 35.7969 56
Q45.2188 56 50.0469 50.1719
Q54.8906 44.3438 54.8906 33.0156" id="BitstreamVeraSans-Roman-6e"/>
      <path d="
M31 75.875
Q24.4688 64.6562 21.2812 53.6562
Q18.1094 42.6719 18.1094 31.3906
Q18.1094 20.125 21.3125 9.0625
Q24.5156 -2 31 -13.1875
L23.1875 -13.1875
Q15.875 -1.70312 12.2344 9.375
Q8.59375 20.4531 8.59375 31.3906
Q8.59375 42.2812 12.2031 53.3125
Q15.8281 64.3594 23.1875 75.875
z
" id="BitstreamVeraSans-Roman-28"/>
      <path d="
M30.6094 48.3906
Q23.3906 48.3906 19.1875 42.75
Q14.9844 37.1094 14.9844 27.2969
Q14.9844 17.4844 19.1562 11.8438
Q23.3438 6.20312 30.6094 6.20312
Q37.7969 6.20312 41.9844 11.8594
Q46.1875 17.5312 46.1875 27.2969
Q46.1875 37.0156 41.9844 42.7031
Q37.7969 48.3906 30.6094 48.3906
M30.6094 56
Q42.3281 56 49.0156 48.375
Q55.7188 40.7656 55.7188 27.2969
Q55.7188 13.875 49.0156 6.21875
Q42.3281 -1.42188 30.6094 -1.42188
Q18.8438 -1.42188 12.1719 6.21875
Q5.51562 13.875 5.51562 27.2969
Q5.51562 40.7656 12.1719 48.375
Q18.8438 56 30.6094 56" id="BitstreamVeraSans-Roman-6f"/>
      <path d="
M9.42188 75.9844
L18.4062 75.9844
L18.4062 0
L9.42188 0
z
" id="BitstreamVeraSans-Roman-6c"/>
      <path d="
M2.98438 54.6875
L12.5 54.6875
L29.5938 8.79688
L46.6875 54.6875
L56.2031 54.6875
L35.6875 0
L23.4844 0
z
" id="BitstreamVeraSans-Roman-76"/>
      <path d="
M9.42188 54.6875
L18.4062 54.6875
L18.4062 0
L9.42188 0
z

M9.42188 75.9844
L18.4062 75.9844
L18.4062 64.5938
L9.42188 64.5938
z
" id="BitstreamVeraSans-Roman-69"/>
      <path d="
M4.89062 31.3906
L31.2031 31.3906
L31.2031 23.3906
L4.89062 23.3906
z
" id="BitstreamVeraSans-Roman-2d"/>
      <path d="
M25.3906 72.9062
L33.6875 72.9062
L8.29688 -9.28125
L0 -9.28125
z
" id="BitstreamVeraSans-Roman-2f"/>
      <path d="
M56.2031 29.5938
L56.2031 25.2031
L14.8906 25.2031
Q15.4844 15.9219 20.4844 11.0625
Q25.4844 6.20312 34.4219 6.20312
Q39.5938 6.20312 44.4531 7.46875
Q49.3125 8.73438 54.1094 11.2812
L54.1094 2.78125
Q49.2656 0.734375 44.1875 -0.34375
Q39.1094 -1.42188 33.8906 -1.42188
Q20.7969 -1.42188 13.1562 6.1875
Q5.51562 13.8125 5.51562 26.8125
Q5.51562 40.2344 12.7656 48.1094
Q20.0156 56 32.3281 56
Q43.3594 56 49.7812 48.8906
Q56.2031 41.7969 56.2031 29.5938
M47.2188 32.2344
Q47.125 39.5938 43.0938 43.9844
Q39.0625 48.3906 32.4219 48.3906
Q24.9062 48.3906 20.3906 44.1406
Q15.875 39.8906 15.1875 32.1719
z
" id="BitstreamVeraSans-Roman-65"/>
      <path d="
M45.4062 46.3906
L45.4062 75.9844
L54.3906 75.9844
L54.3906 0
L45.4062 0
L45.4062 8.20312
Q42.5781 3.32812 38.25 0.953125
Q33.9375 -1.42188 27.875 -1.42188
Q17.9688 -1.42188 11.7344 6.48438
Q5.51562 14.4062 5.51562 27.2969
Q5.51562 40.1875 11.7344 48.0938
Q17.9688 56 27.875 56
Q33.9375 56 38.25 53.625
Q42.5781 51.2656 45.4062 46.3906
M14.7969 27.2969
Q14.7969 17.3906 18.875 11.75
Q22.9531 6.10938 30.0781 6.10938
Q37.2031 6.10938 41.2969 11.75
Q45.4062 17.3906 45.4062 27.2969
Q45.4062 37.2031 41.2969 42.8438
Q37.2031 48.4844 30.0781 48.4844
Q22.9531 48.4844 18.875 42.8438
Q14.7969 37.2031 14.7969 27.2969" id="BitstreamVeraSans-Roman-64"/>
      <path d="
M45.4062 27.9844
Q45.4062 37.75 41.375 43.1094
Q37.3594 48.4844 30.0781 48.4844
Q22.8594 48.4844 18.8281 43.1094
Q14.7969 37.75 14.7969 27.9844
Q14.7969 18.2656 18.8281 12.8906
Q22.8594 7.51562 30.0781 7.51562
Q37.3594 7.51562 41.375 12.8906
Q45.4062 18.2656 45.4062 27.9844
M54.3906 6.78125
Q54.3906 -7.17188 48.1875 -13.9844
Q42 -20.7969 29.2031 -20.7969
Q24.4688 -20.7969 20.2656 -20.0938
Q16.0625 -19.3906 12.1094 -17.9219
L12.1094 -9.1875
Q16.0625 -11.3281 19.9219 -12.3438
Q23.7812 -13.375 27.7812 -13.375
Q36.625 -13.375 41.0156 -8.76562
Q45.4062 -4.15625 45.4062 5.17188
L45.4062 9.625
Q42.625 4.78125 38.2812 2.39062
Q33.9375 0 27.875 0
Q17.8281 0 11.6719 7.65625
Q5.51562 15.3281 5.51562 27.9844
Q5.51562 40.6719 11.6719 48.3281
Q17.8281 56 27.875 56
Q33.9375 56 38.2812 53.6094
Q42.625 51.2188 45.4062 46.3906
L45.4062 54.6875
L54.3906 54.6875
z
" id="BitstreamVeraSans-Roman-67"/>
      <path d="
M37.1094 75.9844
L37.1094 68.5
L28.5156 68.5
Q23.6875 68.5 21.7969 66.5469
Q19.9219 64.5938 19.9219 59.5156
L19.9219 54.6875
L34.7188 54.6875
L34.7188 47.7031
L19.9219 47.7031
L19.9219 0
L10.8906 0
L10.8906 47.7031
L2.29688 47.7031
L2.29688 54.6875
L10.8906 54.6875
L10.8906 58.5
Q10.8906 67.625 15.1406 71.7969
Q19.3906 75.9844 28.6094 75.9844
z
" id="BitstreamVeraSans-Roman-66"/>
      <path d="
M34.2812 27.4844
Q23.3906 27.4844 19.1875 25
Q14.9844 22.5156 14.9844 16.5
Q14.9844 11.7188 18.1406 8.90625
Q21.2969 6.10938 26.7031 6.10938
Q34.1875 6.10938 38.7031 11.4062
Q43.2188 16.7031 43.2188 25.4844
L43.2188 27.4844
z

M52.2031 31.2031
L52.2031 0
L43.2188 0
L43.2188 8.29688
Q40.1406 3.32812 35.5469 0.953125
Q30.9531 -1.42188 24.3125 -1.42188
Q15.9219 -1.42188 10.9531 3.29688
Q6 8.01562 6 15.9219
Q6 25.1406 12.1719 29.8281
Q18.3594 34.5156 30.6094 34.5156
L43.2188 34.5156
L43.2188 35.4062
Q43.2188 41.6094 39.1406 45
Q35.0625 48.3906 27.6875 48.3906
Q23 48.3906 18.5469 47.2656
Q14.1094 46.1406 10.0156 43.8906
L10.0156 52.2031
Q14.9375 54.1094 19.5781 55.0469
Q24.2188 56 28.6094 56
Q40.4844 56 46.3438 49.8438
Q52.2031 43.7031 52.2031 31.2031" id="BitstreamVeraSans-Roman-61"/>
      <path d="
M44.2812 53.0781
L44.2812 44.5781
Q40.4844 46.5312 36.375 47.5
Q32.2812 48.4844 27.875 48.4844
Q21.1875 48.4844 17.8438 46.4375
Q14.5 44.3906 14.5 40.2812
Q14.5 37.1562 16.8906 35.375
Q19.2812 33.5938 26.5156 31.9844
L29.5938 31.2969
Q39.1562 29.25 43.1875 25.5156
Q47.2188 21.7812 47.2188 15.0938
Q47.2188 7.46875 41.1875 3.01562
Q35.1562 -1.42188 24.6094 -1.42188
Q20.2188 -1.42188 15.4531 -0.5625
Q10.6875 0.296875 5.42188 2
L5.42188 11.2812
Q10.4062 8.6875 15.2344 7.39062
Q20.0625 6.10938 24.8125 6.10938
Q31.1562 6.10938 34.5625 8.28125
Q37.9844 10.4531 37.9844 14.4062
Q37.9844 18.0625 35.5156 20.0156
Q33.0625 21.9688 24.7031 23.7812
L21.5781 24.5156
Q13.2344 26.2656 9.51562 29.9062
Q5.8125 33.5469 5.8125 39.8906
Q5.8125 47.6094 11.2812 51.7969
Q16.75 56 26.8125 56
Q31.7812 56 36.1719 55.2656
Q40.5781 54.5469 44.2812 53.0781" id="BitstreamVeraSans-Roman-73"/>
      <path d="
M8.01562 75.875
L15.8281 75.875
Q23.1406 64.3594 26.7812 53.3125
Q30.4219 42.2812 30.4219 31.3906
Q30.4219 20.4531 26.7812 9.375
Q23.1406 -1.70312 15.8281 -13.1875
L8.01562 -13.1875
Q14.5 -2 17.7031 9.0625
Q20.9062 20.125 20.9062 31.3906
Q20.9062 42.6719 17.7031 53.6562
Q14.5 64.6562 8.01562 75.875" id="BitstreamVeraSans-Roman-29"/>
     </defs>
     <g transform="translate(167.3165625 401.089780322)scale(0.18 -0.18)">
      <use xlink:href="#BitstreamVeraSans-Roman-6c"/>
      <use x="27.783203125" xlink:href="#BitstreamVeraSans-Roman-6f"/>
      <use x="88.96484375" xlink:href="#BitstreamVeraSans-Roman-67"/>
      <use x="152.44140625" xlink:href="#BitstreamVeraSans-Roman-31"/>
      <use x="216.064453125" xlink:href="#BitstreamVeraSans-Roman-30"/>
      <use x="279.6875" xlink:href="#BitstreamVeraSans-Roman-20"/>
      <use x="311.474609375" xlink:href="#BitstreamVeraSans-Roman-6f"/>
      <use x="372.65625" xlink:href="#BitstreamVeraSans-Roman-66"/>
      <use x="407.861328125" xlink:href="#BitstreamVeraSans-Roman-20"/>
      <use x="439.6484375" xlink:href="#BitstreamVeraSans-Roman-28"/>
      <use x="478.662109375" xlink:href="#BitstreamVeraSans-Roman-23"/>
      <use x="562.451171875" xlink:href="#BitstreamVeraSans-Roman-20"/>
      <use x="594.23828125" xlink:href="#BitstreamVeraSans-Roman-66"/>
      <use x="623.943359375" xlink:href="#BitstreamVeraSans-Roman-2d"/>
      <use x="660.02734375" xlink:href="#BitstreamVeraSans-Roman-65"/>
      <use x="721.55078125" xlink:href="#BitstreamVeraSans-Roman-76"/>
      <use x="780.73046875" xlink:href="#BitstreamVeraSans-Roman-61"/>
      <use x="842.009765625" xlink:href="#BitstreamVeraSans-Roman-6c"/>
      <use x="869.79296875" xlink:href="#BitstreamVeraSans-Roman-73"/>
      <use x="921.892578125" xlink:href="#BitstreamVeraSans-Roman-20"/>
      <use x="953.6796875" xlink:href="#BitstreamVeraSans-Roman-2f"/>
      <use x="987.37109375" xlink:href="#BitstreamVeraSans-Roman-20"/>
      <use x="1019.15820312" xlink:href="#BitstreamVeraSans-Roman-64"/>
      <use x="1082.63476562" xlink:href="#BitstreamVeraSans-Roman-69"/>
      <use x="1110.41796875" xlink:href="#BitstreamVeraSans-Roman-6d"/>
      <use x="1207.83007812" xlink:href="#BitstreamVeraSans-Roman-65"/>
      <use x="1269.35351562" xlink:href="#BitstreamVeraSans-Roman-6e"/>
      <use x="1332.73242188" xlink:href="#BitstreamVeraSans-Roman-73"/>
      <use x="1384.83203125" xlink:href="#BitstreamVeraSans-Roman-69"/>
      <use x="1412.61523438" xlink:href="#BitstreamVeraSans-Roman-6f"/>
      <use x="1473.796875" xlink:href="#BitstreamVeraSans-Roman-6e"/>
      <use x="1537.17578125" xlink:href="#BitstreamVeraSans-Roman-29"/>
     </g>
    </g>
   </g>
   <g id="matplotlib.axis_2">
    <g id="ytick_1">
     <g id="line2d_117">
      <path clip-path="url(#p54ce849065)" d="
M85.2 359.056
L531.6 359.056" style="fill:none;stroke:#000000;stroke-dasharray:1.000000,3.000000;stroke-dashoffset:0.0;stroke-width:0.5;"/>
     </g>
     <g id="line2d_118">
      <defs>
       <path d="
M0 0
L4 0" id="m728421d6d4" style="stroke:#000000;stroke-width:0.5;"/>
      </defs>
      <g>
       <use style="stroke:#000000;stroke-width:0.5;" x="85.2" xlink:href="#m728421d6d4" y="359.056342822"/>
      </g>
     </g>
     <g id="line2d_119">
      <defs>
       <path d="
M0 0
L-4 0" id="mcb0005524f" style="stroke:#000000;stroke-width:0.5;"/>
      </defs>
      <g>
       <use style="stroke:#000000;stroke-width:0.5;" x="531.6" xlink:href="#mcb0005524f" y="359.056342822"/>
      </g>
     </g>
     <g id="text_11">
      <!-- 0.0 -->
      <defs>
       <path d="
M10.6875 12.4062
L21 12.4062
L21 0
L10.6875 0
z
" id="BitstreamVeraSans-Roman-2e"/>
      </defs>
      <g transform="translate(52.040625 364.575092822)scale(0.2 -0.2)">
       <use xlink:href="#BitstreamVeraSans-Roman-30"/>
       <use x="63.623046875" xlink:href="#BitstreamVeraSans-Roman-2e"/>
       <use x="95.41015625" xlink:href="#BitstreamVeraSans-Roman-30"/>
      </g>
     </g>
    </g>
    <g id="ytick_2">
     <g id="line2d_120">
      <path clip-path="url(#p54ce849065)" d="
M85.2 290.621
L531.6 290.621" style="fill:none;stroke:#000000;stroke-dasharray:1.000000,3.000000;stroke-dashoffset:0.0;stroke-width:0.5;"/>
     </g>
     <g id="line2d_121">
      <g>
       <use style="stroke:#000000;stroke-width:0.5;" x="85.2" xlink:href="#m728421d6d4" y="290.620699257"/>
      </g>
     </g>
     <g id="line2d_122">
      <g>
       <use style="stroke:#000000;stroke-width:0.5;" x="531.6" xlink:href="#mcb0005524f" y="290.620699257"/>
      </g>
     </g>
     <g id="text_12">
      <!-- 0.2 -->
      <g transform="translate(52.715625 296.139449257)scale(0.2 -0.2)">
       <use xlink:href="#BitstreamVeraSans-Roman-30"/>
       <use x="63.623046875" xlink:href="#BitstreamVeraSans-Roman-2e"/>
       <use x="95.41015625" xlink:href="#BitstreamVeraSans-Roman-32"/>
      </g>
     </g>
    </g>
    <g id="ytick_3">
     <g id="line2d_123">
      <path clip-path="url(#p54ce849065)" d="
M85.2 222.185
L531.6 222.185" style="fill:none;stroke:#000000;stroke-dasharray:1.000000,3.000000;stroke-dashoffset:0.0;stroke-width:0.5;"/>
     </g>
     <g id="line2d_124">
      <g>
       <use style="stroke:#000000;stroke-width:0.5;" x="85.2" xlink:href="#m728421d6d4" y="222.185055693"/>
      </g>
     </g>
     <g id="line2d_125">
      <g>
       <use style="stroke:#000000;stroke-width:0.5;" x="531.6" xlink:href="#mcb0005524f" y="222.185055693"/>
      </g>
     </g>
     <g id="text_13">
      <!-- 0.4 -->
      <g transform="translate(51.834375 227.703805693)scale(0.2 -0.2)">
       <use xlink:href="#BitstreamVeraSans-Roman-30"/>
       <use x="63.623046875" xlink:href="#BitstreamVeraSans-Roman-2e"/>
       <use x="95.41015625" xlink:href="#BitstreamVeraSans-Roman-34"/>
      </g>
     </g>
    </g>
    <g id="ytick_4">
     <g id="line2d_126">
      <path clip-path="url(#p54ce849065)" d="
M85.2 153.749
L531.6 153.749" style="fill:none;stroke:#000000;stroke-dasharray:1.000000,3.000000;stroke-dashoffset:0.0;stroke-width:0.5;"/>
     </g>
     <g id="line2d_127">
      <g>
       <use style="stroke:#000000;stroke-width:0.5;" x="85.2" xlink:href="#m728421d6d4" y="153.749412129"/>
      </g>
     </g>
     <g id="line2d_128">
      <g>
       <use style="stroke:#000000;stroke-width:0.5;" x="531.6" xlink:href="#mcb0005524f" y="153.749412129"/>
      </g>
     </g>
     <g id="text_14">
      <!-- 0.6 -->
      <g transform="translate(51.971875 159.268162129)scale(0.2 -0.2)">
       <use xlink:href="#BitstreamVeraSans-Roman-30"/>
       <use x="63.623046875" xlink:href="#BitstreamVeraSans-Roman-2e"/>
       <use x="95.41015625" xlink:href="#BitstreamVeraSans-Roman-36"/>
      </g>
     </g>
    </g>
    <g id="ytick_5">
     <g id="line2d_129">
      <path clip-path="url(#p54ce849065)" d="
M85.2 85.3138
L531.6 85.3138" style="fill:none;stroke:#000000;stroke-dasharray:1.000000,3.000000;stroke-dashoffset:0.0;stroke-width:0.5;"/>
     </g>
     <g id="line2d_130">
      <g>
       <use style="stroke:#000000;stroke-width:0.5;" x="85.2" xlink:href="#m728421d6d4" y="85.3137685644"/>
      </g>
     </g>
     <g id="line2d_131">
      <g>
       <use style="stroke:#000000;stroke-width:0.5;" x="531.6" xlink:href="#mcb0005524f" y="85.3137685644"/>
      </g>
     </g>
     <g id="text_15">
      <!-- 0.8 -->
      <g transform="translate(52.08125 90.8325185644)scale(0.2 -0.2)">
       <use xlink:href="#BitstreamVeraSans-Roman-30"/>
       <use x="63.623046875" xlink:href="#BitstreamVeraSans-Roman-2e"/>
       <use x="95.41015625" xlink:href="#BitstreamVeraSans-Roman-38"/>
      </g>
     </g>
    </g>
    <g id="ytick_6">
     <g id="line2d_132">
      <path clip-path="url(#p54ce849065)" d="
M85.2 16.8781
L531.6 16.8781" style="fill:none;stroke:#000000;stroke-dasharray:1.000000,3.000000;stroke-dashoffset:0.0;stroke-width:0.5;"/>
     </g>
     <g id="line2d_133">
      <g>
       <use style="stroke:#000000;stroke-width:0.5;" x="85.2" xlink:href="#m728421d6d4" y="16.878125"/>
      </g>
     </g>
     <g id="line2d_134">
      <g>
       <use style="stroke:#000000;stroke-width:0.5;" x="531.6" xlink:href="#mcb0005524f" y="16.878125"/>
      </g>
     </g>
     <g id="text_16">
      <!-- 1.0 -->
      <g transform="translate(52.91875 22.396875)scale(0.2 -0.2)">
       <use xlink:href="#BitstreamVeraSans-Roman-31"/>
       <use x="63.623046875" xlink:href="#BitstreamVeraSans-Roman-2e"/>
       <use x="95.41015625" xlink:href="#BitstreamVeraSans-Roman-30"/>
      </g>
     </g>
    </g>
    <g id="text_17">
     <!-- Proportion of function+target pairs -->
     <defs>
      <path d="
M19.6719 64.7969
L19.6719 37.4062
L32.0781 37.4062
Q38.9688 37.4062 42.7188 40.9688
Q46.4844 44.5312 46.4844 51.125
Q46.4844 57.6719 42.7188 61.2344
Q38.9688 64.7969 32.0781 64.7969
z

M9.8125 72.9062
L32.0781 72.9062
Q44.3438 72.9062 50.6094 67.3594
Q56.8906 61.8125 56.8906 51.125
Q56.8906 40.3281 50.6094 34.8125
Q44.3438 29.2969 32.0781 29.2969
L19.6719 29.2969
L19.6719 0
L9.8125 0
z
" id="BitstreamVeraSans-Roman-50"/>
      <path d="
M46 62.7031
L46 35.5
L73.1875 35.5
L73.1875 27.2031
L46 27.2031
L46 0
L37.7969 0
L37.7969 27.2031
L10.5938 27.2031
L10.5938 35.5
L37.7969 35.5
L37.7969 62.7031
z
" id="BitstreamVeraSans-Roman-2b"/>
      <path d="
M18.1094 8.20312
L18.1094 -20.7969
L9.07812 -20.7969
L9.07812 54.6875
L18.1094 54.6875
L18.1094 46.3906
Q20.9531 51.2656 25.2656 53.625
Q29.5938 56 35.5938 56
Q45.5625 56 51.7812 48.0938
Q58.0156 40.1875 58.0156 27.2969
Q58.0156 14.4062 51.7812 6.48438
Q45.5625 -1.42188 35.5938 -1.42188
Q29.5938 -1.42188 25.2656 0.953125
Q20.9531 3.32812 18.1094 8.20312
M48.6875 27.2969
Q48.6875 37.2031 44.6094 42.8438
Q40.5312 48.4844 33.4062 48.4844
Q26.2656 48.4844 22.1875 42.8438
Q18.1094 37.2031 18.1094 27.2969
Q18.1094 17.3906 22.1875 11.75
Q26.2656 6.10938 33.4062 6.10938
Q40.5312 6.10938 44.6094 11.75
Q48.6875 17.3906 48.6875 27.2969" id="BitstreamVeraSans-Roman-70"/>
      <path d="
M18.3125 70.2188
L18.3125 54.6875
L36.8125 54.6875
L36.8125 47.7031
L18.3125 47.7031
L18.3125 18.0156
Q18.3125 11.3281 20.1406 9.42188
Q21.9688 7.51562 27.5938 7.51562
L36.8125 7.51562
L36.8125 0
L27.5938 0
Q17.1875 0 13.2344 3.875
Q9.28125 7.76562 9.28125 18.0156
L9.28125 47.7031
L2.6875 47.7031
L2.6875 54.6875
L9.28125 54.6875
L9.28125 70.2188
z
" id="BitstreamVeraSans-Roman-74"/>
      <path d="
M8.5 21.5781
L8.5 54.6875
L17.4844 54.6875
L17.4844 21.9219
Q17.4844 14.1562 20.5 10.2656
Q23.5312 6.39062 29.5938 6.39062
Q36.8594 6.39062 41.0781 11.0312
Q45.3125 15.6719 45.3125 23.6875
L45.3125 54.6875
L54.2969 54.6875
L54.2969 0
L45.3125 0
L45.3125 8.40625
Q42.0469 3.42188 37.7188 1
Q33.4062 -1.42188 27.6875 -1.42188
Q18.2656 -1.42188 13.375 4.4375
Q8.5 10.2969 8.5 21.5781" id="BitstreamVeraSans-Roman-75"/>
      <path d="
M41.1094 46.2969
Q39.5938 47.1719 37.8125 47.5781
Q36.0312 48 33.8906 48
Q26.2656 48 22.1875 43.0469
Q18.1094 38.0938 18.1094 28.8125
L18.1094 0
L9.07812 0
L9.07812 54.6875
L18.1094 54.6875
L18.1094 46.1875
Q20.9531 51.1719 25.4844 53.5781
Q30.0312 56 36.5312 56
Q37.4531 56 38.5781 55.875
Q39.7031 55.7656 41.0625 55.5156
z
" id="BitstreamVeraSans-Roman-72"/>
      <path d="
M48.7812 52.5938
L48.7812 44.1875
Q44.9688 46.2969 41.1406 47.3438
Q37.3125 48.3906 33.4062 48.3906
Q24.6562 48.3906 19.8125 42.8438
Q14.9844 37.3125 14.9844 27.2969
Q14.9844 17.2812 19.8125 11.7344
Q24.6562 6.20312 33.4062 6.20312
Q37.3125 6.20312 41.1406 7.25
Q44.9688 8.29688 48.7812 10.4062
L48.7812 2.09375
Q45.0156 0.34375 40.9844 -0.53125
Q36.9688 -1.42188 32.4219 -1.42188
Q20.0625 -1.42188 12.7812 6.34375
Q5.51562 14.1094 5.51562 27.2969
Q5.51562 40.6719 12.8594 48.3281
Q20.2188 56 33.0156 56
Q37.1562 56 41.1094 55.1406
Q45.0625 54.2969 48.7812 52.5938" id="BitstreamVeraSans-Roman-63"/>
     </defs>
     <g transform="translate(43.0909375 343.295092822)rotate(-90.0)scale(0.18 -0.18)">
      <use xlink:href="#BitstreamVeraSans-Roman-50"/>
      <use x="58.552734375" xlink:href="#BitstreamVeraSans-Roman-72"/>
      <use x="97.416015625" xlink:href="#BitstreamVeraSans-Roman-6f"/>
      <use x="158.59765625" xlink:href="#BitstreamVeraSans-Roman-70"/>
      <use x="222.07421875" xlink:href="#BitstreamVeraSans-Roman-6f"/>
      <use x="283.255859375" xlink:href="#BitstreamVeraSans-Roman-72"/>
      <use x="324.369140625" xlink:href="#BitstreamVeraSans-Roman-74"/>
      <use x="363.578125" xlink:href="#BitstreamVeraSans-Roman-69"/>
      <use x="391.361328125" xlink:href="#BitstreamVeraSans-Roman-6f"/>
      <use x="452.54296875" xlink:href="#BitstreamVeraSans-Roman-6e"/>
      <use x="515.921875" xlink:href="#BitstreamVeraSans-Roman-20"/>
      <use x="547.708984375" xlink:href="#BitstreamVeraSans-Roman-6f"/>
      <use x="608.890625" xlink:href="#BitstreamVeraSans-Roman-66"/>
      <use x="644.095703125" xlink:href="#BitstreamVeraSans-Roman-20"/>
      <use x="675.8828125" xlink:href="#BitstreamVeraSans-Roman-66"/>
      <use x="711.087890625" xlink:href="#BitstreamVeraSans-Roman-75"/>
      <use x="774.466796875" xlink:href="#BitstreamVeraSans-Roman-6e"/>
      <use x="837.845703125" xlink:href="#BitstreamVeraSans-Roman-63"/>
      <use x="892.826171875" xlink:href="#BitstreamVeraSans-Roman-74"/>
      <use x="932.03515625" xlink:href="#BitstreamVeraSans-Roman-69"/>
      <use x="959.818359375" xlink:href="#BitstreamVeraSans-Roman-6f"/>
      <use x="1021.0" xlink:href="#BitstreamVeraSans-Roman-6e"/>
      <use x="1084.37890625" xlink:href="#BitstreamVeraSans-Roman-2b"/>
      <use x="1168.16796875" xlink:href="#BitstreamVeraSans-Roman-74"/>
      <use x="1207.37695312" xlink:href="#BitstreamVeraSans-Roman-61"/>
      <use x="1268.65625" xlink:href="#BitstreamVeraSans-Roman-72"/>
      <use x="1308.01953125" xlink:href="#BitstreamVeraSans-Roman-67"/>
      <use x="1371.49609375" xlink:href="#BitstreamVeraSans-Roman-65"/>
      <use x="1433.01953125" xlink:href="#BitstreamVeraSans-Roman-74"/>
      <use x="1472.22851562" xlink:href="#BitstreamVeraSans-Roman-20"/>
      <use x="1504.015625" xlink:href="#BitstreamVeraSans-Roman-70"/>
      <use x="1567.4921875" xlink:href="#BitstreamVeraSans-Roman-61"/>
      <use x="1628.77148438" xlink:href="#BitstreamVeraSans-Roman-69"/>
      <use x="1656.5546875" xlink:href="#BitstreamVeraSans-Roman-72"/>
      <use x="1697.66796875" xlink:href="#BitstreamVeraSans-Roman-73"/>
     </g>
    </g>
   </g>
   <g id="text_18">
    <!-- f7 -->
    <g transform="translate(492.0 356.351840965)scale(0.15 -0.15)">
     <use xlink:href="#BitstreamVeraSans-Roman-66"/>
     <use x="35.205078125" xlink:href="#BitstreamVeraSans-Roman-37"/>
    </g>
   </g>
   <g id="text_19">
    <!-- f6 -->
    <g transform="translate(492.0 246.854811262)scale(0.15 -0.15)">
     <use xlink:href="#BitstreamVeraSans-Roman-66"/>
     <use x="35.205078125" xlink:href="#BitstreamVeraSans-Roman-36"/>
    </g>
   </g>
   <g id="text_20">
    <!-- f9 -->
    <defs>
     <path d="
M10.9844 1.51562
L10.9844 10.5
Q14.7031 8.73438 18.5 7.8125
Q22.3125 6.89062 25.9844 6.89062
Q35.75 6.89062 40.8906 13.4531
Q46.0469 20.0156 46.7812 33.4062
Q43.9531 29.2031 39.5938 26.9531
Q35.25 24.7031 29.9844 24.7031
Q19.0469 24.7031 12.6719 31.3125
Q6.29688 37.9375 6.29688 49.4219
Q6.29688 60.6406 12.9375 67.4219
Q19.5781 74.2188 30.6094 74.2188
Q43.2656 74.2188 49.9219 64.5156
Q56.5938 54.8281 56.5938 36.375
Q56.5938 19.1406 48.4062 8.85938
Q40.2344 -1.42188 26.4219 -1.42188
Q22.7031 -1.42188 18.8906 -0.6875
Q15.0938 0.046875 10.9844 1.51562
M30.6094 32.4219
Q37.25 32.4219 41.125 36.9531
Q45.0156 41.5 45.0156 49.4219
Q45.0156 57.2812 41.125 61.8438
Q37.25 66.4062 30.6094 66.4062
Q23.9688 66.4062 20.0938 61.8438
Q16.2188 57.2812 16.2188 49.4219
Q16.2188 41.5 20.0938 36.9531
Q23.9688 32.4219 30.6094 32.4219" id="BitstreamVeraSans-Roman-39"/>
    </defs>
    <g transform="translate(492.0 137.357781559)scale(0.15 -0.15)">
     <use xlink:href="#BitstreamVeraSans-Roman-66"/>
     <use x="35.205078125" xlink:href="#BitstreamVeraSans-Roman-39"/>
    </g>
   </g>
   <g id="text_21">
    <!-- f8 -->
    <g transform="translate(492.0 27.8607518564)scale(0.15 -0.15)">
     <use xlink:href="#BitstreamVeraSans-Roman-66"/>
     <use x="35.205078125" xlink:href="#BitstreamVeraSans-Roman-38"/>
    </g>
   </g>
   <g id="text_22">
    <!-- bbob -->
    <defs>
     <path d="
M48.6875 27.2969
Q48.6875 37.2031 44.6094 42.8438
Q40.5312 48.4844 33.4062 48.4844
Q26.2656 48.4844 22.1875 42.8438
Q18.1094 37.2031 18.1094 27.2969
Q18.1094 17.3906 22.1875 11.75
Q26.2656 6.10938 33.4062 6.10938
Q40.5312 6.10938 44.6094 11.75
Q48.6875 17.3906 48.6875 27.2969
M18.1094 46.3906
Q20.9531 51.2656 25.2656 53.625
Q29.5938 56 35.5938 56
Q45.5625 56 51.7812 48.0938
Q58.0156 40.1875 58.0156 27.2969
Q58.0156 14.4062 51.7812 6.48438
Q45.5625 -1.42188 35.5938 -1.42188
Q29.5938 -1.42188 25.2656 0.953125
Q20.9531 3.32812 18.1094 8.20312
L18.1094 0
L9.07812 0
L9.07812 75.9844
L18.1094 75.9844
z
" id="BitstreamVeraSans-Roman-62"/>
    </defs>
    <g transform="translate(89.664 33.0273396968)scale(0.1666 -0.1666)">
     <use xlink:href="#BitstreamVeraSans-Roman-62"/>
     <use x="63.4765625" xlink:href="#BitstreamVeraSans-Roman-62"/>
     <use x="126.953125" xlink:href="#BitstreamVeraSans-Roman-6f"/>
     <use x="188.134765625" xlink:href="#BitstreamVeraSans-Roman-62"/>
    </g>
    <!-- Misc. moderate functions, 20-D -->
    <defs>
     <path d="
M19.6719 64.7969
L19.6719 8.10938
L31.5938 8.10938
Q46.6875 8.10938 53.6875 14.9375
Q60.6875 21.7812 60.6875 36.5312
Q60.6875 51.1719 53.6875 57.9844
Q46.6875 64.7969 31.5938 64.7969
z

M9.8125 72.9062
L30.0781 72.9062
Q51.2656 72.9062 61.1719 64.0938
Q71.0938 55.2812 71.0938 36.5312
Q71.0938 17.6719 61.125 8.82812
Q51.1719 0 30.0781 0
L9.8125 0
z
" id="BitstreamVeraSans-Roman-44"/>
     <path d="
M11.7188 12.4062
L22.0156 12.4062
L22.0156 4
L14.0156 -11.625
L7.71875 -11.625
L11.7188 4
z
" id="BitstreamVeraSans-Roman-2c"/>
     <path d="
M9.8125 72.9062
L24.5156 72.9062
L43.1094 23.2969
L61.8125 72.9062
L76.5156 72.9062
L76.5156 0
L66.8906 0
L66.8906 64.0156
L48.0938 14.0156
L38.1875 14.0156
L19.3906 64.0156
L19.3906 0
L9.8125 0
z
" id="BitstreamVeraSans-Roman-4d"/>
    </defs>
    <g transform="translate(89.664 51.6828953218)scale(0.1666 -0.1666)">
     <use xlink:href="#BitstreamVeraSans-Roman-4d"/>
     <use x="86.279296875" xlink:href="#BitstreamVeraSans-Roman-69"/>
     <use x="114.0625" xlink:href="#BitstreamVeraSans-Roman-73"/>
     <use x="166.162109375" xlink:href="#BitstreamVeraSans-Roman-63"/>
     <use x="221.142578125" xlink:href="#BitstreamVeraSans-Roman-2e"/>
     <use x="252.9296875" xlink:href="#BitstreamVeraSans-Roman-20"/>
     <use x="284.716796875" xlink:href="#BitstreamVeraSans-Roman-6d"/>
     <use x="382.12890625" xlink:href="#BitstreamVeraSans-Roman-6f"/>
     <use x="443.310546875" xlink:href="#BitstreamVeraSans-Roman-64"/>
     <use x="506.787109375" xlink:href="#BitstreamVeraSans-Roman-65"/>
     <use x="568.310546875" xlink:href="#BitstreamVeraSans-Roman-72"/>
     <use x="609.423828125" xlink:href="#BitstreamVeraSans-Roman-61"/>
     <use x="670.703125" xlink:href="#BitstreamVeraSans-Roman-74"/>
     <use x="709.912109375" xlink:href="#BitstreamVeraSans-Roman-65"/>
     <use x="771.435546875" xlink:href="#BitstreamVeraSans-Roman-20"/>
     <use x="803.22265625" xlink:href="#BitstreamVeraSans-Roman-66"/>
     <use x="838.427734375" xlink:href="#BitstreamVeraSans-Roman-75"/>
     <use x="901.806640625" xlink:href="#BitstreamVeraSans-Roman-6e"/>
     <use x="965.185546875" xlink:href="#BitstreamVeraSans-Roman-63"/>
     <use x="1020.16601562" xlink:href="#BitstreamVeraSans-Roman-74"/>
     <use x="1059.375" xlink:href="#BitstreamVeraSans-Roman-69"/>
     <use x="1087.15820312" xlink:href="#BitstreamVeraSans-Roman-6f"/>
     <use x="1148.33984375" xlink:href="#BitstreamVeraSans-Roman-6e"/>
     <use x="1211.71875" xlink:href="#BitstreamVeraSans-Roman-73"/>
     <use x="1263.81835938" xlink:href="#BitstreamVeraSans-Roman-2c"/>
     <use x="1295.60546875" xlink:href="#BitstreamVeraSans-Roman-20"/>
     <use x="1327.39257812" xlink:href="#BitstreamVeraSans-Roman-32"/>
     <use x="1391.015625" xlink:href="#BitstreamVeraSans-Roman-30"/>
     <use x="1454.63867188" xlink:href="#BitstreamVeraSans-Roman-2d"/>
     <use x="1490.72265625" xlink:href="#BitstreamVeraSans-Roman-44"/>
    </g>
    <!-- 51 targets in 100..1e-08 -->
    <g transform="translate(89.664 70.3384509468)scale(0.1666 -0.1666)">
     <use xlink:href="#BitstreamVeraSans-Roman-35"/>
     <use x="63.623046875" xlink:href="#BitstreamVeraSans-Roman-31"/>
     <use x="127.24609375" xlink:href="#BitstreamVeraSans-Roman-20"/>
     <use x="159.033203125" xlink:href="#BitstreamVeraSans-Roman-74"/>
     <use x="198.2421875" xlink:href="#BitstreamVeraSans-Roman-61"/>
     <use x="259.521484375" xlink:href="#BitstreamVeraSans-Roman-72"/>
     <use x="298.884765625" xlink:href="#BitstreamVeraSans-Roman-67"/>
     <use x="362.361328125" xlink:href="#BitstreamVeraSans-Roman-65"/>
     <use x="423.884765625" xlink:href="#BitstreamVeraSans-Roman-74"/>
     <use x="463.09375" xlink:href="#BitstreamVeraSans-Roman-73"/>
     <use x="515.193359375" xlink:href="#BitstreamVeraSans-Roman-20"/>
     <use x="546.98046875" xlink:href="#BitstreamVeraSans-Roman-69"/>
     <use x="574.763671875" xlink:href="#BitstreamVeraSans-Roman-6e"/>
     <use x="638.142578125" xlink:href="#BitstreamVeraSans-Roman-20"/>
     <use x="669.9296875" xlink:href="#BitstreamVeraSans-Roman-31"/>
     <use x="733.552734375" xlink:href="#BitstreamVeraSans-Roman-30"/>
     <use x="797.17578125" xlink:href="#BitstreamVeraSans-Roman-30"/>
     <use x="860.798828125" xlink:href="#BitstreamVeraSans-Roman-2e"/>
     <use x="892.5859375" xlink:href="#BitstreamVeraSans-Roman-2e"/>
     <use x="924.373046875" xlink:href="#BitstreamVeraSans-Roman-31"/>
     <use x="987.99609375" xlink:href="#BitstreamVeraSans-Roman-65"/>
     <use x="1049.51953125" xlink:href="#BitstreamVeraSans-Roman-2d"/>
     <use x="1085.60351562" xlink:href="#BitstreamVeraSans-Roman-30"/>
     <use x="1149.2265625" xlink:href="#BitstreamVeraSans-Roman-38"/>
    </g>
    <!-- 15 instances -->
    <g transform="translate(89.664 88.9940065718)scale(0.1666 -0.1666)">
     <use xlink:href="#BitstreamVeraSans-Roman-31"/>
     <use x="63.623046875" xlink:href="#BitstreamVeraSans-Roman-35"/>
     <use x="127.24609375" xlink:href="#BitstreamVeraSans-Roman-20"/>
     <use x="159.033203125" xlink:href="#BitstreamVeraSans-Roman-69"/>
     <use x="186.81640625" xlink:href="#BitstreamVeraSans-Roman-6e"/>
     <use x="250.1953125" xlink:href="#BitstreamVeraSans-Roman-73"/>
     <use x="302.294921875" xlink:href="#BitstreamVeraSans-Roman-74"/>
     <use x="341.50390625" xlink:href="#BitstreamVeraSans-Roman-61"/>
     <use x="402.783203125" xlink:href="#BitstreamVeraSans-Roman-6e"/>
     <use x="466.162109375" xlink:href="#BitstreamVeraSans-Roman-63"/>
     <use x="521.142578125" xlink:href="#BitstreamVeraSans-Roman-65"/>
     <use x="582.666015625" xlink:href="#BitstreamVeraSans-Roman-73"/>
    </g>
   </g>
   <g id="text_23">
    <!-- 1.2.1 -->
    <g style="fill:#808080;" transform="translate(296.6890625 353.520655322)scale(0.1 -0.1)">
     <use xlink:href="#BitstreamVeraSans-Roman-31"/>
     <use x="63.623046875" xlink:href="#BitstreamVeraSans-Roman-2e"/>
     <use x="95.41015625" xlink:href="#BitstreamVeraSans-Roman-32"/>
     <use x="159.033203125" xlink:href="#BitstreamVeraSans-Roman-2e"/>
     <use x="190.8203125" xlink:href="#BitstreamVeraSans-Roman-31"/>
    </g>
   </g>
  </g>
 </g>
 <defs>
  <clipPath id="p54ce849065">
   <rect height="345.6" width="446.4" x="85.2" y="13.4563428218"/>
  </clipPath>
 </defs>
</svg>
