<?xml version="1.0" encoding="utf-8" standalone="no"?>
<!DOCTYPE svg PUBLIC "-//W3C//DTD SVG 1.1//EN"
  "http://www.w3.org/Graphics/SVG/1.1/DTD/svg11.dtd">
<!-- Created with matplotlib (http://matplotlib.org/) -->
<svg height="413pt" version="1.1" viewBox="0 0 520 413" width="520pt" xmlns="http://www.w3.org/2000/svg" xmlns:xlink="http://www.w3.org/1999/xlink">
 <defs>
  <style type="text/css">
*{stroke-linecap:butt;stroke-linejoin:round;stroke-miterlimit:100000;}
  </style>
 </defs>
 <g id="figure_1">
  <g id="patch_1">
   <path d="M 0 413.968843 
L 520.9625 413.968843 
L 520.9625 0 
L 0 0 
z
" style="fill:#ffffff;"/>
  </g>
  <g id="axes_1">
   <g id="patch_2">
    <path d="M 67.3625 359.056343 
L 513.7625 359.056343 
L 513.7625 13.456343 
L 67.3625 13.456343 
z
" style="fill:#ffffff;"/>
   </g>
   <g id="line2d_1">
    <path clip-path="url(#pa5eb1df482)" d="M 356.521844 359.056343 
L 356.521844 354.493967 
L 356.521844 354.493967 
L 356.521844 349.93159 
L 356.951716 349.93159 
L 356.951716 345.369214 
L 356.951716 345.369214 
L 356.951716 340.806838 
L 356.951716 340.806838 
L 356.951716 336.244462 
L 357.165658 336.244462 
L 357.165658 331.682085 
L 357.165658 331.682085 
L 357.165658 327.119709 
L 357.803556 327.119709 
L 357.803556 322.557333 
L 359.68282 322.557333 
L 359.68282 317.994957 
L 359.68282 317.994957 
L 359.68282 313.43258 
L 360.907983 313.43258 
L 360.907983 308.870204 
L 361.512551 308.870204 
L 361.512551 304.307828 
L 363.685318 304.307828 
L 363.685318 299.745452 
L 366.168426 299.745452 
L 366.168426 295.183075 
L 368.202301 295.183075 
L 368.202301 290.620699 
L 383.657393 290.620699 
L 383.657393 286.058323 
L 385.243475 286.058323 
L 385.243475 281.495947 
L 385.669827 281.495947 
L 385.669827 276.933571 
L 385.669827 276.933571 
L 385.669827 272.371194 
L 385.952614 272.371194 
L 385.952614 267.808818 
L 386.654583 267.808818 
L 386.654583 263.246442 
L 386.794129 263.246442 
L 386.794129 258.684066 
L 387.625565 258.684066 
L 387.625565 254.121689 
L 387.625565 254.121689 
L 387.625565 249.559313 
L 388.583154 249.559313 
L 388.583154 244.996937 
L 388.989541 244.996937 
L 388.989541 240.434561 
L 388.989541 240.434561 
L 388.989541 235.872184 
L 389.928625 235.872184 
L 389.928625 231.309808 
L 406.974997 231.309808 
L 406.974997 226.747432 
L 407.390712 226.747432 
L 407.390712 222.185056 
L 417.497844 222.185056 
L 417.497844 217.622679 
L 418.828699 217.622679 
L 418.828699 213.060303 
L 421.838265 213.060303 
L 421.838265 208.497927 
L 423.583308 208.497927 
L 423.583308 203.935551 
L 424.561128 203.935551 
L 424.561128 199.373175 
L 424.722768 199.373175 
L 424.722768 194.810798 
L 426.081718 194.810798 
L 426.081718 190.248422 
L 431.045423 190.248422 
L 431.045423 185.686046 
L 444.472491 185.686046 
L 444.472491 181.12367 
L 455.356243 181.12367 
L 455.356243 176.561293 
L 459.243596 176.561293 
L 459.243596 171.998917 
L 465.439586 171.998917 
L 465.439586 167.436541 
L 471.991063 167.436541 
L 471.991063 162.874165 
L 471.991063 162.874165 
L 471.991063 162.874165 
L 513.7625 162.874165 
" style="fill:none;stroke:#f5deb3;stroke-linecap:square;"/>
   </g>
   <g id="line2d_2">
    <path clip-path="url(#pa5eb1df482)" d="M 294.612912 359.056343 
L 294.612912 345.369214 
L 294.612912 345.369214 
L 294.612912 331.682085 
L 295.13687 331.682085 
L 295.13687 317.994957 
L 295.13687 317.994957 
L 295.13687 304.307828 
L 295.13687 304.307828 
L 295.13687 290.620699 
L 479.643951 290.620699 
L 479.643951 276.933571 
L 489.551758 276.933571 
L 489.551758 263.246442 
L 490.057583 263.246442 
L 490.057583 249.559313 
L 500.642262 249.559313 
L 500.642262 235.872184 
L 504.610435 235.872184 
L 504.610435 222.185056 
L 521.9625 222.185056 
" style="fill:none;stroke:#f5deb3;stroke-linecap:square;"/>
   </g>
   <g id="line2d_3">
    <path clip-path="url(#pa5eb1df482)" d="M 170.22159 359.056343 
L 170.22159 354.493967 
L 170.22159 354.493967 
L 170.22159 349.93159 
L 170.22159 349.93159 
L 170.22159 345.369214 
L 170.22159 345.369214 
L 170.22159 340.806838 
L 170.22159 340.806838 
L 170.22159 336.244462 
L 170.22159 336.244462 
L 170.22159 331.682085 
L 170.22159 331.682085 
L 170.22159 327.119709 
L 170.22159 327.119709 
L 170.22159 322.557333 
L 170.22159 322.557333 
L 170.22159 317.994957 
L 170.22159 317.994957 
L 170.22159 313.43258 
L 170.22159 313.43258 
L 170.22159 308.870204 
L 170.22159 308.870204 
L 170.22159 304.307828 
L 170.22159 304.307828 
L 170.22159 299.745452 
L 170.22159 299.745452 
L 170.22159 295.183075 
L 170.22159 295.183075 
L 170.22159 290.620699 
L 170.22159 290.620699 
L 170.22159 286.058323 
L 170.22159 286.058323 
L 170.22159 281.495947 
L 170.22159 281.495947 
L 170.22159 276.933571 
L 170.22159 276.933571 
L 170.22159 272.371194 
L 173.307614 272.371194 
L 173.307614 267.808818 
L 173.307614 267.808818 
L 173.307614 263.246442 
L 173.307614 263.246442 
L 173.307614 258.684066 
L 176.262278 258.684066 
L 176.262278 254.121689 
L 176.262278 254.121689 
L 176.262278 249.559313 
L 179.096309 249.559313 
L 179.096309 244.996937 
L 179.096309 244.996937 
L 179.096309 240.434561 
L 179.096309 240.434561 
L 179.096309 235.872184 
L 181.819172 235.872184 
L 181.819172 231.309808 
L 184.439261 231.309808 
L 184.439261 226.747432 
L 196.234352 226.747432 
L 196.234352 222.185056 
L 521.9625 222.185056 
" style="fill:none;stroke:#f5deb3;stroke-linecap:square;"/>
   </g>
   <g id="line2d_4">
    <path clip-path="url(#pa5eb1df482)" d="M 128.141146 359.056343 
L 128.141146 354.493967 
L 156.290203 354.493967 
L 156.290203 349.93159 
L 173.307614 349.93159 
L 173.307614 345.369214 
L 176.262278 345.369214 
L 176.262278 340.806838 
L 184.439261 340.806838 
L 184.439261 336.244462 
L 191.753822 336.244462 
L 191.753822 331.682085 
L 196.234352 331.682085 
L 196.234352 327.119709 
L 198.370647 327.119709 
L 198.370647 322.557333 
L 198.370647 322.557333 
L 198.370647 317.994957 
L 198.370647 317.994957 
L 198.370647 313.43258 
L 204.411336 313.43258 
L 204.411336 308.870204 
L 209.96823 308.870204 
L 209.96823 304.307828 
L 211.725897 304.307828 
L 211.725897 299.745452 
L 216.746695 299.745452 
L 216.746695 295.183075 
L 227.217441 295.183075 
L 227.217441 290.620699 
L 368.384278 290.620699 
L 368.384278 286.058323 
L 372.271631 286.058323 
L 372.271631 281.495947 
L 374.636671 281.495947 
L 374.636671 276.933571 
L 375.462176 276.933571 
L 375.462176 272.371194 
L 375.626105 272.371194 
L 375.626105 267.808818 
L 376.115584 267.808818 
L 376.115584 263.246442 
L 376.439996 263.246442 
L 376.439996 258.684066 
L 377.404236 258.684066 
L 377.404236 254.121689 
L 377.722695 254.121689 
L 377.722695 249.559313 
L 378.355266 249.559313 
L 378.355266 244.996937 
L 379.911926 244.996937 
L 379.911926 240.434561 
L 383.36508 240.434561 
L 383.36508 235.872184 
L 383.657393 235.872184 
L 383.657393 231.309808 
L 384.814488 231.309808 
L 384.814488 226.747432 
L 388.583154 226.747432 
L 388.583154 222.185056 
L 453.301033 222.185056 
L 453.301033 217.622679 
L 456.896782 217.622679 
L 456.896782 213.060303 
L 456.947549 213.060303 
L 456.947549 208.497927 
L 456.947549 208.497927 
L 456.947549 203.935551 
L 457.754816 203.935551 
L 457.754816 199.373175 
L 458.701409 199.373175 
L 458.701409 194.810798 
L 458.800304 194.810798 
L 458.800304 190.248422 
L 459.341722 190.248422 
L 459.341722 185.686046 
L 461.084678 185.686046 
L 461.084678 181.12367 
L 462.691571 181.12367 
L 462.691571 176.561293 
L 464.898616 176.561293 
L 464.898616 171.998917 
L 465.349717 171.998917 
L 465.349717 167.436541 
L 468.599763 167.436541 
L 468.599763 162.874165 
L 468.856731 162.874165 
L 468.856731 158.311788 
L 470.295186 158.311788 
L 470.295186 153.749412 
L 470.295186 153.749412 
L 470.295186 153.749412 
L 513.7625 153.749412 
" style="fill:none;stroke:#f5deb3;stroke-linecap:square;"/>
   </g>
   <g id="line2d_5">
    <path clip-path="url(#pa5eb1df482)" d="M 303.023254 359.056343 
L 303.023254 354.493967 
L 318.047294 354.493967 
L 318.047294 349.93159 
L 318.793797 349.93159 
L 318.793797 345.369214 
L 321.345102 345.369214 
L 321.345102 340.806838 
L 329.123324 340.806838 
L 329.123324 336.244462 
L 329.123324 336.244462 
L 329.123324 331.682085 
L 330.076531 331.682085 
L 330.076531 327.119709 
L 334.950399 327.119709 
L 334.950399 322.557333 
L 347.066495 322.557333 
L 347.066495 317.994957 
L 350.676882 317.994957 
L 350.676882 313.43258 
L 356.305905 313.43258 
L 356.305905 308.870204 
L 359.68282 308.870204 
L 359.68282 304.307828 
L 361.712909 304.307828 
L 361.712909 299.745452 
L 373.632931 299.745452 
L 373.632931 295.183075 
L 392.02857 295.183075 
L 392.02857 290.620699 
L 395.679999 290.620699 
L 395.679999 286.058323 
L 396.895864 286.058323 
L 396.895864 281.495947 
L 396.895864 281.495947 
L 396.895864 276.933571 
L 398.090801 276.933571 
L 398.090801 272.371194 
L 399.729895 272.371194 
L 399.729895 267.808818 
L 401.444158 267.808818 
L 401.444158 263.246442 
L 402.452759 263.246442 
L 402.452759 258.684066 
L 402.785729 258.684066 
L 402.785729 254.121689 
L 403.227219 254.121689 
L 403.227219 249.559313 
L 404.965629 249.559313 
L 404.965629 244.996937 
L 404.965629 244.996937 
L 404.965629 240.434561 
L 406.451829 240.434561 
L 406.451829 235.872184 
L 407.803952 235.872184 
L 407.803952 231.309808 
L 408.623125 231.309808 
L 408.623125 226.747432 
L 415.866393 226.747432 
L 415.866393 222.185056 
L 521.9625 222.185056 
" style="fill:none;stroke:#f5deb3;stroke-linecap:square;"/>
   </g>
   <g id="line2d_6"/>
   <g id="line2d_7">
    <path clip-path="url(#pa5eb1df482)" d="M 289.710349 359.056343 
L 289.710349 354.493967 
L 291.932111 354.493967 
L 291.932111 349.93159 
L 297.194031 349.93159 
L 297.194031 345.369214 
L 299.682617 345.369214 
L 299.682617 340.806838 
L 301.134046 340.806838 
L 301.134046 336.244462 
L 304.407169 336.244462 
L 304.407169 327.119709 
L 305.314687 327.119709 
L 305.314687 322.557333 
L 305.764036 322.557333 
L 305.764036 317.994957 
L 306.654101 317.994957 
L 306.654101 313.43258 
L 309.25781 313.43258 
L 309.25781 308.870204 
L 310.940902 308.870204 
L 310.940902 304.307828 
L 311.355375 304.307828 
L 311.355375 299.745452 
L 312.584153 299.745452 
L 312.584153 295.183075 
L 317.292677 295.183075 
L 317.292677 290.620699 
L 419.615135 290.620699 
L 419.615135 286.058323 
L 420.048225 286.058323 
L 420.048225 281.495947 
L 420.906384 281.495947 
L 420.906384 276.933571 
L 421.331517 276.933571 
L 421.331517 272.371194 
L 422.174053 272.371194 
L 422.174053 267.808818 
L 422.840797 267.808818 
L 422.840797 263.246442 
L 423.501198 263.246442 
L 423.501198 258.684066 
L 424.155376 258.684066 
L 424.155376 254.121689 
L 424.722768 254.121689 
L 424.722768 249.559313 
L 424.964524 249.559313 
L 424.964524 244.996937 
L 427.181218 244.996937 
L 427.181218 240.434561 
L 427.569714 240.434561 
L 427.569714 235.872184 
L 428.263575 235.872184 
L 428.263575 231.309808 
L 430.823974 231.309808 
L 430.823974 226.747432 
L 432.503966 226.747432 
L 432.503966 222.185056 
L 493.047674 222.185056 
L 493.047674 217.622679 
L 493.738168 217.622679 
L 493.738168 213.060303 
L 493.887371 213.060303 
L 493.887371 208.497927 
L 494.599115 208.497927 
L 494.599115 203.935551 
L 495.449517 203.935551 
L 495.449517 199.373175 
L 496.490898 199.373175 
L 496.490898 194.810798 
L 496.834582 194.810798 
L 496.834582 190.248422 
L 497.204997 190.248422 
L 497.204997 185.686046 
L 498.108455 185.686046 
L 498.108455 181.12367 
L 499.083333 181.12367 
L 499.083333 176.561293 
L 501.046754 176.561293 
L 501.046754 171.998917 
L 501.529054 171.998917 
L 501.529054 167.436541 
L 502.95617 167.436541 
L 502.95617 162.874165 
L 504.890834 162.874165 
L 504.890834 158.311788 
L 521.9625 158.311788 
L 521.9625 158.311788 
" style="fill:none;stroke:#f5deb3;stroke-linecap:square;"/>
   </g>
   <g id="line2d_8">
    <path clip-path="url(#pa5eb1df482)" d="M 483.418705 359.056343 
L 483.418705 354.493967 
L 485.096607 354.493967 
L 485.096607 349.93159 
L 485.970724 349.93159 
L 486.03751 340.806838 
L 486.17089 340.806838 
L 486.17089 336.244462 
L 486.569498 336.244462 
L 486.668794 327.119709 
L 486.734912 327.119709 
L 486.734912 322.557333 
L 488.044222 322.557333 
L 488.044222 317.994957 
L 488.270834 317.994957 
L 488.270834 313.43258 
L 489.36112 313.43258 
L 489.36112 308.870204 
L 489.58348 308.870204 
L 489.58348 304.307828 
L 491.522478 304.307828 
L 491.522478 299.745452 
L 511.556208 299.745452 
L 511.556208 295.183075 
L 511.740847 295.183075 
L 511.740847 290.620699 
L 521.9625 290.620699 
L 521.9625 290.620699 
" style="fill:none;stroke:#f5deb3;stroke-linecap:square;"/>
   </g>
   <g id="line2d_9">
    <path clip-path="url(#pa5eb1df482)" d="M 202.455597 359.056343 
L 202.455597 354.493967 
L 209.96823 354.493967 
L 209.96823 349.93159 
L 215.113111 349.93159 
L 215.113111 345.369214 
L 222.921796 345.369214 
L 222.921796 340.806838 
L 224.38341 340.806838 
L 224.38341 336.244462 
L 241.022487 336.244462 
L 241.022487 331.682085 
L 245.431849 331.682085 
L 245.431849 327.119709 
L 255.366499 327.119709 
L 255.366499 322.557333 
L 255.366499 322.557333 
L 255.366499 317.994957 
L 259.847029 317.994957 
L 259.847029 313.43258 
L 259.847029 313.43258 
L 259.847029 308.870204 
L 264.05584 308.870204 
L 264.05584 304.307828 
L 264.867827 304.307828 
L 264.867827 299.745452 
L 265.670427 299.745452 
L 265.670427 295.183075 
L 266.463854 295.183075 
L 266.463854 290.620699 
L 405.072848 290.620699 
L 405.072848 286.058323 
L 405.393514 286.058323 
L 405.393514 281.495947 
L 407.390712 281.495947 
L 407.390712 276.933571 
L 409.432745 276.933571 
L 409.432745 272.371194 
L 410.233032 272.371194 
L 410.233032 267.808818 
L 410.43167 267.808818 
L 410.43167 263.246442 
L 411.611712 263.246442 
L 411.611712 258.684066 
L 412.290919 258.684066 
L 412.290919 254.121689 
L 412.579986 254.121689 
L 412.579986 249.559313 
L 414.289558 249.559313 
L 414.289558 244.996937 
L 414.570439 244.996937 
L 414.570439 240.434561 
L 416.140978 240.434561 
L 416.140978 235.872184 
L 420.564392 235.872184 
L 420.564392 231.309808 
L 420.650048 231.309808 
L 420.650048 226.747432 
L 421.246699 226.747432 
L 421.246699 222.185056 
L 480.625098 222.185056 
L 480.625098 217.622679 
L 481.841214 217.622679 
L 481.841214 213.060303 
L 481.982896 213.060303 
L 481.982896 208.497927 
L 482.265395 208.497927 
L 482.265395 203.935551 
L 483.729946 203.935551 
L 483.729946 199.373175 
L 486.37048 199.373175 
L 486.37048 194.810798 
L 488.07664 194.810798 
L 488.07664 190.248422 
L 490.152016 190.248422 
L 490.152016 185.686046 
L 490.371862 185.686046 
L 490.371862 181.12367 
L 490.778309 181.12367 
L 490.778309 176.561293 
L 492.075417 176.561293 
L 492.075417 171.998917 
L 493.168254 171.998917 
L 493.168254 167.436541 
L 493.528744 167.436541 
L 493.528744 162.874165 
L 493.738168 162.874165 
L 493.738168 158.311788 
L 496.77742 158.311788 
L 496.77742 153.749412 
L 521.9625 153.749412 
" style="fill:none;stroke:#f5deb3;stroke-linecap:square;"/>
   </g>
   <g id="line2d_10">
    <path clip-path="url(#pa5eb1df482)" d="M 276.029366 359.056343 
L 276.029366 354.493967 
L 288.572224 354.493967 
L 288.572224 349.93159 
L 289.143619 349.93159 
L 289.143619 336.244462 
L 291.383301 336.244462 
L 291.383301 331.682085 
L 293.016885 331.682085 
L 293.016885 327.119709 
L 300.169806 327.119709 
L 300.169806 322.557333 
L 301.134046 322.557333 
L 301.134046 317.994957 
L 310.523939 317.994957 
L 310.523939 313.43258 
L 315.369448 313.43258 
L 315.369448 308.870204 
L 326.84692 308.870204 
L 326.84692 304.307828 
L 327.176726 304.307828 
L 327.176726 299.745452 
L 338.672996 299.745452 
L 338.672996 295.183075 
L 340.053243 295.183075 
L 340.053243 290.620699 
L 521.9625 290.620699 
L 521.9625 290.620699 
" style="fill:none;stroke:#f5deb3;stroke-linecap:square;"/>
   </g>
   <g id="line2d_11">
    <path clip-path="url(#pa5eb1df482)" d="M 143.63269 359.056343 
L 143.63269 354.493967 
L 163.604764 354.493967 
L 163.604764 349.93159 
L 166.991979 349.93159 
L 166.991979 345.369214 
L 166.991979 345.369214 
L 166.991979 340.806838 
L 166.991979 340.806838 
L 166.991979 336.244462 
L 170.22159 336.244462 
L 170.22159 331.682085 
L 170.22159 331.682085 
L 170.22159 327.119709 
L 173.307614 327.119709 
L 173.307614 322.557333 
L 173.307614 322.557333 
L 173.307614 317.994957 
L 184.439261 317.994957 
L 184.439261 313.43258 
L 184.439261 313.43258 
L 184.439261 308.870204 
L 198.370647 308.870204 
L 198.370647 304.307828 
L 198.370647 304.307828 
L 198.370647 299.745452 
L 206.313485 299.745452 
L 206.313485 295.183075 
L 208.164905 295.183075 
L 208.164905 290.620699 
L 358.014893 290.620699 
L 358.014893 286.058323 
L 363.49058 286.058323 
L 363.49058 281.495947 
L 363.49058 281.495947 
L 363.49058 276.933571 
L 364.073163 276.933571 
L 364.073163 272.371194 
L 365.413809 272.371194 
L 365.413809 267.808818 
L 366.542681 267.808818 
L 366.542681 263.246442 
L 366.729055 263.246442 
L 366.729055 258.684066 
L 368.019846 258.684066 
L 368.019846 254.121689 
L 368.384278 254.121689 
L 368.384278 249.559313 
L 371.754181 249.559313 
L 371.754181 244.996937 
L 371.754181 244.996937 
L 371.754181 240.434561 
L 373.125566 240.434561 
L 373.125566 235.872184 
L 373.464221 235.872184 
L 373.464221 231.309808 
L 376.439996 231.309808 
L 376.439996 226.747432 
L 376.92379 226.747432 
L 376.92379 222.185056 
L 521.9625 222.185056 
" style="fill:none;stroke:#f5deb3;stroke-linecap:square;"/>
   </g>
   <g id="line2d_12">
    <path clip-path="url(#pa5eb1df482)" d="M 133.69804 359.056343 
L 133.69804 354.493967 
L 133.69804 354.493967 
L 133.69804 349.93159 
L 133.69804 349.93159 
L 133.69804 345.369214 
L 133.69804 345.369214 
L 133.69804 340.806838 
L 133.69804 340.806838 
L 133.69804 336.244462 
L 133.69804 336.244462 
L 133.69804 331.682085 
L 133.69804 331.682085 
L 133.69804 327.119709 
L 133.69804 327.119709 
L 133.69804 322.557333 
L 133.69804 322.557333 
L 133.69804 317.994957 
L 133.69804 317.994957 
L 133.69804 313.43258 
L 133.69804 313.43258 
L 133.69804 308.870204 
L 133.69804 308.870204 
L 133.69804 304.307828 
L 133.69804 304.307828 
L 133.69804 299.745452 
L 133.69804 299.745452 
L 133.69804 295.183075 
L 133.69804 295.183075 
L 133.69804 290.620699 
L 160.043773 290.620699 
L 160.043773 286.058323 
L 160.043773 286.058323 
L 160.043773 281.495947 
L 179.096309 281.495947 
L 179.096309 276.933571 
L 194.030227 276.933571 
L 194.030227 272.371194 
L 194.030227 272.371194 
L 194.030227 267.808818 
L 194.030227 267.808818 
L 194.030227 263.246442 
L 194.030227 263.246442 
L 194.030227 258.684066 
L 194.030227 258.684066 
L 194.030227 254.121689 
L 194.030227 254.121689 
L 194.030227 249.559313 
L 194.030227 249.559313 
L 194.030227 244.996937 
L 194.030227 244.996937 
L 194.030227 240.434561 
L 206.313485 240.434561 
L 206.313485 235.872184 
L 206.313485 235.872184 
L 206.313485 231.309808 
L 206.313485 231.309808 
L 206.313485 226.747432 
L 216.746695 226.747432 
L 216.746695 222.185056 
L 388.583154 222.185056 
L 388.583154 217.622679 
L 390.194618 217.622679 
L 390.194618 213.060303 
L 391.769524 213.060303 
L 391.769524 208.497927 
L 392.543779 208.497927 
L 392.543779 203.935551 
L 395.557233 203.935551 
L 395.557233 199.373175 
L 404.535091 199.373175 
L 404.535091 194.810798 
L 405.818778 194.810798 
L 405.818778 190.248422 
L 410.033823 190.248422 
L 410.033823 185.686046 
L 410.728567 185.686046 
L 410.728567 181.12367 
L 410.728567 181.12367 
L 410.728567 176.561293 
L 418.033252 176.561293 
L 418.033252 171.998917 
L 419.615135 171.998917 
L 419.615135 167.436541 
L 420.048225 167.436541 
L 420.048225 162.874165 
L 430.675948 162.874165 
L 430.675948 158.311788 
L 431.119082 158.311788 
L 431.119082 153.749412 
L 431.119082 153.749412 
L 431.119082 153.749412 
L 513.7625 153.749412 
" style="fill:none;stroke:#f5deb3;stroke-linecap:square;"/>
   </g>
   <g id="line2d_13">
    <path clip-path="url(#pa5eb1df482)" d="M 360.298104 359.056343 
L 360.298104 354.493967 
L 360.298104 354.493967 
L 360.298104 349.93159 
L 360.298104 349.93159 
L 360.298104 345.369214 
L 366.168426 345.369214 
L 366.168426 340.806838 
L 366.168426 340.806838 
L 366.168426 336.244462 
L 366.168426 336.244462 
L 366.168426 331.682085 
L 366.729055 331.682085 
L 366.729055 327.119709 
L 366.729055 327.119709 
L 366.729055 322.557333 
L 366.729055 322.557333 
L 366.729055 317.994957 
L 379.137959 317.994957 
L 379.137959 313.43258 
L 379.137959 313.43258 
L 379.137959 308.870204 
L 379.137959 308.870204 
L 379.137959 304.307828 
L 386.933395 304.307828 
L 386.933395 299.745452 
L 386.933395 299.745452 
L 386.933395 295.183075 
L 386.933395 295.183075 
L 386.933395 290.620699 
L 505.875948 290.620699 
L 505.875948 286.058323 
L 507.853977 286.058323 
L 507.853977 281.495947 
L 507.853977 281.495947 
L 507.853977 276.933571 
L 508.822251 276.933571 
L 508.822251 272.371194 
L 511.80996 272.371194 
L 511.80996 267.808818 
L 511.80996 267.808818 
L 511.80996 263.246442 
L 514.319947 263.246442 
L 514.319947 258.684066 
L 514.319947 258.684066 
L 514.319947 254.121689 
L 514.36435 254.121689 
L 514.36435 249.559313 
L 514.36435 249.559313 
L 514.36435 244.996937 
L 514.36435 244.996937 
L 514.36435 240.434561 
L 515.443446 240.434561 
L 515.443446 235.872184 
L 515.443446 235.872184 
L 515.443446 231.309808 
L 518.667098 231.309808 
L 518.667098 226.747432 
L 521.9625 226.747432 
" style="fill:none;stroke:#f5deb3;stroke-linecap:square;"/>
   </g>
   <g id="line2d_14">
    <path clip-path="url(#pa5eb1df482)" d="M 202.455597 359.056343 
L 202.455597 354.493967 
L 202.455597 354.493967 
L 202.455597 349.93159 
L 204.411336 349.93159 
L 204.411336 345.369214 
L 208.164905 345.369214 
L 208.164905 340.806838 
L 213.440159 340.806838 
L 213.440159 336.244462 
L 213.440159 336.244462 
L 213.440159 331.682085 
L 213.440159 331.682085 
L 213.440159 327.119709 
L 218.342722 327.119709 
L 218.342722 322.557333 
L 221.428746 322.557333 
L 221.428746 317.994957 
L 221.428746 317.994957 
L 221.428746 313.43258 
L 221.428746 313.43258 
L 221.428746 308.870204 
L 221.428746 308.870204 
L 221.428746 304.307828 
L 221.428746 304.307828 
L 221.428746 299.745452 
L 221.428746 299.745452 
L 221.428746 295.183075 
L 221.428746 295.183075 
L 221.428746 290.620699 
L 306.210494 290.620699 
L 306.210494 286.058323 
L 310.940902 286.058323 
L 310.940902 281.495947 
L 314.978325 281.495947 
L 314.978325 276.933571 
L 317.292677 276.933571 
L 317.292677 272.371194 
L 317.292677 272.371194 
L 317.292677 267.808818 
L 318.793797 267.808818 
L 318.793797 263.246442 
L 319.532359 263.246442 
L 319.532359 258.684066 
L 320.263146 258.684066 
L 320.263146 254.121689 
L 323.111714 254.121689 
L 323.111714 249.559313 
L 324.493334 249.559313 
L 324.493334 244.996937 
L 327.504973 244.996937 
L 327.504973 240.434561 
L 328.480504 240.434561 
L 328.480504 235.872184 
L 330.704807 235.872184 
L 330.704807 231.309808 
L 330.704807 231.309808 
L 330.704807 226.747432 
L 341.674113 226.747432 
L 341.674113 222.185056 
L 490.871767 222.185056 
L 490.871767 217.622679 
L 501.448903 217.622679 
L 501.448903 213.060303 
L 520.519615 213.060303 
L 520.519615 208.497927 
L 521.9625 208.497927 
" style="fill:none;stroke:#f5deb3;stroke-linecap:square;"/>
   </g>
   <g id="line2d_15">
    <path clip-path="url(#pa5eb1df482)" style="fill:none;stroke:#f5deb3;stroke-linecap:square;"/>
   </g>
   <g id="line2d_16">
    <path clip-path="url(#pa5eb1df482)" d="M 389.393562 359.056343 
L 389.393562 354.493967 
L 396.412071 354.493967 
L 396.412071 345.369214 
L 403.337154 345.369214 
L 403.337154 340.806838 
L 407.700872 340.806838 
L 407.700872 336.244462 
L 409.633683 336.244462 
L 409.733935 322.557333 
L 409.834042 322.557333 
L 409.934004 313.43258 
L 410.43167 313.43258 
L 410.43167 308.870204 
L 412.579986 308.870204 
L 412.579986 304.307828 
L 412.772031 304.307828 
L 412.772031 299.745452 
L 417.676773 299.745452 
L 417.676773 295.183075 
L 425.044922 295.183075 
L 425.044922 290.620699 
L 473.766094 290.620699 
L 473.766094 286.058323 
L 476.307953 286.058323 
L 476.307953 281.495947 
L 477.601372 281.495947 
L 477.601372 276.933571 
L 477.902235 276.933571 
L 477.902235 272.371194 
L 478.462864 272.371194 
L 478.462864 267.808818 
L 481.414425 267.808818 
L 481.414425 263.246442 
L 484.279843 263.246442 
L 484.279843 258.684066 
L 484.689426 258.684066 
L 484.689426 254.121689 
L 486.800967 254.121689 
L 486.800967 249.559313 
L 487.946876 249.559313 
L 487.946876 244.996937 
L 488.657599 244.996937 
L 488.657599 240.434561 
L 489.520021 240.434561 
L 489.520021 235.872184 
L 490.026076 235.872184 
L 490.026076 231.309808 
L 491.584134 231.309808 
L 491.584134 226.747432 
L 491.83021 226.747432 
L 491.83021 222.185056 
L 492.014196 222.185056 
L 492.014196 217.622679 
L 493.017496 217.622679 
L 493.017496 213.060303 
L 493.5587 213.060303 
L 493.5587 208.497927 
L 496.375957 208.497927 
L 496.375957 203.935551 
L 498.052332 203.935551 
L 498.052332 199.373175 
L 499.496984 199.373175 
L 499.496984 194.810798 
L 500.912185 194.810798 
L 500.912185 190.248422 
L 502.087535 190.248422 
L 502.087535 185.686046 
L 504.86539 185.686046 
L 504.96711 176.561293 
L 505.068681 176.561293 
L 505.068681 171.998917 
L 506.151292 171.998917 
L 506.151292 167.436541 
L 506.748278 167.436541 
L 506.822542 158.311788 
L 507.536357 158.311788 
L 507.536357 153.749412 
L 508.170149 153.749412 
L 508.170149 149.187036 
L 509.229713 149.187036 
L 509.229713 144.62466 
L 510.414453 144.62466 
L 510.414453 140.062283 
L 511.440559 140.062283 
L 511.440559 135.499907 
L 511.78693 135.499907 
L 511.78693 130.937531 
L 513.896696 130.937531 
L 513.896696 126.375155 
L 514.563813 126.375155 
L 514.563813 121.812778 
L 515.224581 121.812778 
L 515.224581 117.250402 
L 517.8065 117.250402 
L 517.8065 112.688026 
L 521.9625 112.688026 
L 521.9625 112.688026 
" style="fill:none;stroke:#f5deb3;stroke-linecap:square;"/>
   </g>
   <g id="line2d_17">
    <path clip-path="url(#pa5eb1df482)" d="M 289.143619 359.056343 
L 289.143619 354.493967 
L 296.685427 354.493967 
L 296.685427 349.93159 
L 312.988959 349.93159 
L 312.988959 345.369214 
L 327.504973 345.369214 
L 327.504973 340.806838 
L 329.760247 340.806838 
L 329.760247 336.244462 
L 349.255178 336.244462 
L 349.255178 331.682085 
L 355.216022 331.682085 
L 355.216022 327.119709 
L 355.435372 327.119709 
L 355.435372 322.557333 
L 359.476507 322.557333 
L 359.476507 317.994957 
L 378.355266 317.994957 
L 378.355266 313.43258 
L 393.055193 313.43258 
L 393.055193 308.870204 
L 393.941201 308.870204 
L 393.941201 304.307828 
L 394.567211 304.307828 
L 394.567211 299.745452 
L 433.293293 299.745452 
L 433.293293 295.183075 
L 433.790959 295.183075 
L 433.790959 290.620699 
L 521.9625 290.620699 
" style="fill:none;stroke:#f5deb3;stroke-linecap:square;"/>
   </g>
   <g id="line2d_18">
    <path clip-path="url(#pa5eb1df482)" d="M 128.141146 359.056343 
L 128.141146 354.493967 
L 128.141146 354.493967 
L 128.141146 349.93159 
L 128.141146 349.93159 
L 128.141146 345.369214 
L 128.141146 345.369214 
L 128.141146 340.806838 
L 128.141146 340.806838 
L 128.141146 336.244462 
L 128.141146 336.244462 
L 128.141146 331.682085 
L 128.141146 331.682085 
L 128.141146 327.119709 
L 128.141146 327.119709 
L 128.141146 322.557333 
L 128.141146 322.557333 
L 128.141146 317.994957 
L 128.141146 317.994957 
L 128.141146 313.43258 
L 128.141146 313.43258 
L 128.141146 308.870204 
L 128.141146 308.870204 
L 128.141146 304.307828 
L 128.141146 304.307828 
L 128.141146 299.745452 
L 128.141146 299.745452 
L 128.141146 295.183075 
L 128.141146 295.183075 
L 128.141146 290.620699 
L 133.69804 290.620699 
L 133.69804 286.058323 
L 133.69804 286.058323 
L 133.69804 281.495947 
L 133.69804 281.495947 
L 133.69804 276.933571 
L 133.69804 276.933571 
L 133.69804 272.371194 
L 133.69804 272.371194 
L 133.69804 267.808818 
L 138.842921 267.808818 
L 138.842921 263.246442 
L 143.63269 263.246442 
L 143.63269 258.684066 
L 148.11322 258.684066 
L 148.11322 254.121689 
L 148.11322 254.121689 
L 148.11322 249.559313 
L 152.322031 249.559313 
L 152.322031 244.996937 
L 152.322031 244.996937 
L 152.322031 240.434561 
L 152.322031 240.434561 
L 152.322031 235.872184 
L 152.322031 235.872184 
L 152.322031 231.309808 
L 156.290203 231.309808 
L 156.290203 226.747432 
L 166.991979 226.747432 
L 166.991979 222.185056 
L 521.9625 222.185056 
" style="fill:none;stroke:#f5deb3;stroke-linecap:square;"/>
   </g>
   <g id="line2d_19">
    <path clip-path="url(#pa5eb1df482)" d="M 412.676075 359.056343 
L 412.676075 357.535551 
L 412.676075 357.535551 
L 412.676075 357.535551 
L 412.676075 356.014759 
L 412.676075 356.014759 
L 412.676075 356.014759 
L 412.676075 354.493967 
L 424.803447 354.493967 
L 424.803447 349.93159 
L 437.648847 349.93159 
L 437.648847 345.369214 
L 457.804959 345.369214 
L 457.804959 340.806838 
L 458.899058 340.806838 
L 458.899058 336.244462 
L 462.363767 336.244462 
L 462.363767 331.682085 
L 467.38784 331.682085 
L 467.38784 327.119709 
L 470.337045 327.119709 
L 470.337045 322.557333 
L 472.439094 322.557333 
L 472.439094 317.994957 
L 476.576222 317.994957 
L 476.576222 313.43258 
L 479.680538 313.43258 
L 479.680538 308.870204 
L 483.175659 308.870204 
L 483.175659 304.307828 
L 484.791446 304.307828 
L 484.791446 299.745452 
L 494.065992 299.745452 
L 494.065992 295.183075 
L 506.325944 295.183075 
L 506.325944 290.620699 
L 521.9625 290.620699 
L 521.9625 290.620699 
" style="fill:none;stroke:#f5deb3;stroke-linecap:square;"/>
   </g>
   <g id="line2d_20">
    <path clip-path="url(#pa5eb1df482)" d="M 143.63269 359.056343 
L 143.63269 354.493967 
L 152.322031 354.493967 
L 152.322031 349.93159 
L 156.290203 349.93159 
L 156.290203 345.369214 
L 156.290203 345.369214 
L 156.290203 340.806838 
L 166.991979 340.806838 
L 166.991979 336.244462 
L 173.307614 336.244462 
L 173.307614 331.682085 
L 176.262278 331.682085 
L 176.262278 327.119709 
L 181.819172 327.119709 
L 181.819172 322.557333 
L 184.439261 322.557333 
L 184.439261 317.994957 
L 184.439261 317.994957 
L 184.439261 313.43258 
L 186.964053 313.43258 
L 186.964053 308.870204 
L 191.753822 308.870204 
L 191.753822 304.307828 
L 196.234352 304.307828 
L 196.234352 299.745452 
L 198.370647 299.745452 
L 198.370647 295.183075 
L 204.411336 295.183075 
L 204.411336 290.620699 
L 320.625674 290.620699 
L 320.625674 286.058323 
L 326.84692 286.058323 
L 326.84692 281.495947 
L 327.176726 281.495947 
L 327.176726 276.933571 
L 328.156847 276.933571 
L 328.156847 272.371194 
L 329.442516 272.371194 
L 329.442516 267.808818 
L 331.016827 267.808818 
L 331.016827 263.246442 
L 332.251066 263.246442 
L 332.251066 258.684066 
L 333.162555 258.684066 
L 333.162555 254.121689 
L 335.827347 254.121689 
L 335.827347 249.559313 
L 336.405885 249.559313 
L 336.405885 244.996937 
L 339.504433 244.996937 
L 339.504433 240.434561 
L 341.138017 240.434561 
L 341.138017 235.872184 
L 344.036599 235.872184 
L 344.036599 231.309808 
L 347.80375 231.309808 
L 347.80375 226.747432 
L 348.047771 226.747432 
L 348.047771 222.185056 
L 376.115584 222.185056 
L 376.115584 217.622679 
L 395.063987 217.622679 
L 395.063987 213.060303 
L 399.614092 213.060303 
L 399.614092 208.497927 
L 402.229888 208.497927 
L 402.229888 203.935551 
L 412.000644 203.935551 
L 412.000644 199.373175 
L 412.772031 199.373175 
L 412.772031 194.810798 
L 416.59622 194.810798 
L 416.59622 190.248422 
L 424.561128 190.248422 
L 424.561128 185.686046 
L 426.868847 185.686046 
L 426.868847 181.12367 
L 441.367138 181.12367 
L 441.367138 176.561293 
L 445.974586 176.561293 
L 445.974586 171.998917 
L 452.277299 171.998917 
L 452.277299 167.436541 
L 459.341722 167.436541 
L 459.341722 162.874165 
L 473.286478 162.874165 
L 473.286478 158.311788 
L 482.861917 158.311788 
L 482.861917 153.749412 
L 521.9625 153.749412 
" style="fill:none;stroke:#f5deb3;stroke-linecap:square;"/>
   </g>
   <g id="line2d_21">
    <path clip-path="url(#pa5eb1df482)" d="M 453.674426 359.056343 
L 453.674426 354.493967 
L 453.674426 354.493967 
L 453.674426 354.493967 
L 453.674426 349.93159 
L 453.674426 349.93159 
L 453.674426 349.93159 
L 453.674426 345.369214 
L 453.674426 345.369214 
L 453.674426 345.369214 
L 453.780741 345.369214 
L 453.833838 327.119709 
L 453.93991 327.119709 
L 453.992886 317.994957 
L 454.098715 317.994957 
L 454.098715 308.870204 
L 467.866478 308.870204 
L 467.909828 240.434561 
L 468.513895 240.434561 
L 468.599763 171.998917 
L 469.112751 171.998917 
L 469.15533 158.311788 
L 469.240408 158.311788 
L 469.240408 153.749412 
L 469.45265 153.749412 
L 469.45265 149.187036 
L 469.621977 149.187036 
L 469.706486 135.499907 
L 469.748702 135.499907 
L 469.833057 126.375155 
L 469.917309 126.375155 
L 469.917309 121.812778 
L 470.043497 121.812778 
L 470.127494 112.688026 
L 470.420689 112.688026 
L 470.420689 108.12565 
L 470.629358 108.12565 
L 470.629358 94.438521 
L 471.003389 94.438521 
L 471.003389 89.876145 
L 471.127619 89.876145 
L 471.210316 80.751392 
L 478.12703 80.751392 
L 478.12703 76.189016 
L 478.27649 76.189016 
L 478.27649 67.064264 
L 481.343038 67.064264 
L 481.343038 62.501887 
L 481.55698 62.501887 
L 481.55698 48.814759 
L 482.124289 48.814759 
L 482.124289 39.690006 
L 482.441375 39.690006 
L 482.441375 30.565254 
L 482.441375 30.565254 
L 513.7625 30.565254 
L 513.7625 30.565254 
" style="fill:none;stroke:#f5deb3;stroke-linecap:square;"/>
   </g>
   <g id="line2d_22">
    <path clip-path="url(#pa5eb1df482)" d="M 156.290203 359.056343 
L 156.290203 354.493967 
L 156.290203 354.493967 
L 156.290203 349.93159 
L 166.991979 349.93159 
L 166.991979 345.369214 
L 170.22159 345.369214 
L 170.22159 340.806838 
L 179.096309 340.806838 
L 179.096309 336.244462 
L 179.096309 336.244462 
L 179.096309 331.682085 
L 179.096309 331.682085 
L 179.096309 327.119709 
L 186.964053 327.119709 
L 186.964053 322.557333 
L 204.411336 322.557333 
L 204.411336 317.994957 
L 213.440159 317.994957 
L 213.440159 313.43258 
L 215.113111 313.43258 
L 215.113111 308.870204 
L 222.921796 308.870204 
L 222.921796 304.307828 
L 225.814886 304.307828 
L 225.814886 299.745452 
L 281.955398 299.745452 
L 281.955398 295.183075 
L 293.552981 295.183075 
L 293.552981 290.620699 
L 325.847994 290.620699 
L 325.847994 286.058323 
L 327.176726 286.058323 
L 327.176726 281.495947 
L 328.156847 281.495947 
L 328.156847 276.933571 
L 330.076531 276.933571 
L 330.076531 272.371194 
L 331.636689 272.371194 
L 331.636689 267.808818 
L 332.860053 267.808818 
L 332.860053 263.246442 
L 333.162555 263.246442 
L 333.162555 258.684066 
L 333.763633 258.684066 
L 333.763633 254.121689 
L 334.062232 254.121689 
L 334.062232 249.559313 
L 336.979641 249.559313 
L 336.979641 244.996937 
L 337.548695 244.996937 
L 337.548695 240.434561 
L 339.504433 240.434561 
L 339.504433 235.872184 
L 339.77938 235.872184 
L 339.77938 231.309808 
L 341.940617 231.309808 
L 341.940617 226.747432 
L 346.321328 226.747432 
L 346.321328 222.185056 
L 391.248515 222.185056 
L 391.248515 217.622679 
L 398.563076 217.622679 
L 398.563076 213.060303 
L 401.331182 213.060303 
L 401.331182 208.497927 
L 402.674916 208.497927 
L 402.674916 203.935551 
L 406.451829 203.935551 
L 406.451829 199.373175 
L 409.633683 199.373175 
L 409.633683 194.810798 
L 419.091835 194.810798 
L 419.091835 190.248422 
L 424.884032 190.248422 
L 424.884032 185.686046 
L 425.843828 185.686046 
L 425.843828 181.12367 
L 427.569714 181.12367 
L 427.569714 176.561293 
L 429.931047 176.561293 
L 429.931047 171.998917 
L 429.931047 171.998917 
L 429.931047 167.436541 
L 430.971685 167.436541 
L 430.971685 162.874165 
L 431.412941 162.874165 
L 431.412941 158.311788 
L 471.127619 158.311788 
L 471.127619 153.749412 
L 521.9625 153.749412 
" style="fill:none;stroke:#f5deb3;stroke-linecap:square;"/>
   </g>
   <g id="line2d_23">
    <path clip-path="url(#pa5eb1df482)" d="M 260.709451 359.056343 
L 260.709451 354.493967 
L 285.642501 354.493967 
L 285.642501 349.93159 
L 288.572224 349.93159 
L 288.572224 345.369214 
L 290.272491 345.369214 
L 290.272491 340.806838 
L 299.191986 340.806838 
L 299.191986 336.244462 
L 299.191986 336.244462 
L 299.191986 331.682085 
L 306.654101 331.682085 
L 306.654101 327.119709 
L 307.09489 327.119709 
L 307.09489 322.557333 
L 308.830583 322.557333 
L 308.830583 317.994957 
L 309.25781 317.994957 
L 309.25781 313.43258 
L 309.682424 313.43258 
L 309.682424 308.870204 
L 321.345102 308.870204 
L 321.345102 304.307828 
L 329.123324 304.307828 
L 329.123324 299.745452 
L 334.359552 299.745452 
L 334.359552 295.183075 
L 347.066495 295.183075 
L 347.066495 290.620699 
L 521.9625 290.620699 
" style="fill:none;stroke:#f5deb3;stroke-linecap:square;"/>
   </g>
   <g id="line2d_24">
    <path clip-path="url(#pa5eb1df482)" d="M 324.493334 359.056343 
L 324.493334 354.493967 
L 324.493334 354.493967 
L 324.493334 349.93159 
L 324.834485 349.93159 
L 324.834485 345.369214 
L 338.113121 345.369214 
L 338.113121 340.806838 
L 338.113121 340.806838 
L 338.113121 336.244462 
L 338.393623 336.244462 
L 338.393623 331.682085 
L 350.676882 331.682085 
L 350.676882 327.119709 
L 350.676882 327.119709 
L 350.676882 322.557333 
L 350.911027 322.557333 
L 350.911027 317.994957 
L 351.144386 317.994957 
L 351.144386 313.43258 
L 361.311613 313.43258 
L 361.311613 308.870204 
L 361.311613 308.870204 
L 361.311613 304.307828 
L 361.512551 304.307828 
L 361.512551 299.745452 
L 361.712909 299.745452 
L 361.712909 295.183075 
L 378.669403 295.183075 
L 378.669403 290.620699 
L 450.573891 290.620699 
L 450.573891 286.058323 
L 457.45319 286.058323 
L 457.45319 281.495947 
L 457.553877 281.495947 
L 457.553877 276.933571 
L 462.504444 276.933571 
L 462.504444 272.371194 
L 463.249945 272.371194 
L 463.249945 267.808818 
L 463.941655 267.808818 
L 463.941655 263.246442 
L 464.26211 263.246442 
L 464.26211 258.684066 
L 468.728366 258.684066 
L 468.728366 254.121689 
L 469.367831 254.121689 
L 469.367831 249.559313 
L 470.169455 249.559313 
L 470.169455 244.996937 
L 471.827423 244.996937 
L 471.827423 240.434561 
L 472.479681 240.434561 
L 472.479681 235.872184 
L 473.566656 235.872184 
L 473.566656 231.309808 
L 481.982896 231.309808 
L 481.982896 226.747432 
L 484.074142 226.747432 
L 484.074142 222.185056 
L 485.970724 222.185056 
L 485.970724 217.622679 
L 486.635711 217.622679 
L 486.635711 213.060303 
L 491.738033 213.060303 
L 491.738033 208.497927 
L 495.391201 208.497927 
L 495.391201 203.935551 
L 495.682288 203.935551 
L 495.682288 199.373175 
L 499.249089 199.373175 
L 499.249089 194.810798 
L 499.496984 194.810798 
L 499.496984 190.248422 
L 500.099247 190.248422 
L 500.099247 185.686046 
L 502.720346 185.686046 
L 502.720346 181.12367 
L 504.071962 181.12367 
L 504.071962 176.561293 
L 504.533765 176.561293 
L 504.533765 171.998917 
L 505.523923 171.998917 
L 505.523923 167.436541 
L 505.750429 167.436541 
L 505.750429 162.874165 
L 506.051293 162.874165 
L 506.051293 158.311788 
L 509.563483 158.311788 
L 509.563483 153.749412 
L 521.9625 153.749412 
" style="fill:none;stroke:#f5deb3;stroke-linecap:square;"/>
   </g>
   <g id="line2d_25">
    <path clip-path="url(#pa5eb1df482)" d="M 277.390667 359.056343 
L 277.390667 354.493967 
L 289.143619 354.493967 
L 289.143619 349.93159 
L 291.932111 349.93159 
L 291.932111 345.369214 
L 298.697862 345.369214 
L 298.697862 340.806838 
L 300.169806 340.806838 
L 300.169806 336.244462 
L 308.830583 336.244462 
L 308.830583 331.682085 
L 309.25781 331.682085 
L 309.25781 327.119709 
L 310.104456 327.119709 
L 310.104456 322.557333 
L 310.104456 322.557333 
L 310.104456 317.994957 
L 311.355375 317.994957 
L 311.355375 313.43258 
L 314.189406 313.43258 
L 314.189406 308.870204 
L 315.75838 308.870204 
L 315.75838 304.307828 
L 331.327449 304.307828 
L 331.327449 299.745452 
L 332.251066 299.745452 
L 332.251066 295.183075 
L 333.463745 295.183075 
L 333.463745 290.620699 
L 521.9625 290.620699 
" style="fill:none;stroke:#f5deb3;stroke-linecap:square;"/>
   </g>
   <g id="line2d_26">
    <path clip-path="url(#pa5eb1df482)" d="M 402.896365 359.056343 
L 402.896365 354.493967 
L 403.337154 354.493967 
L 403.337154 349.93159 
L 403.66592 349.93159 
L 403.66592 345.369214 
L 406.766203 345.369214 
L 406.766203 340.806838 
L 409.332057 340.806838 
L 409.332057 336.244462 
L 409.733935 336.244462 
L 409.733935 331.682085 
L 409.934004 331.682085 
L 410.033823 317.994957 
L 412.867854 317.994957 
L 412.867854 313.43258 
L 413.534941 313.43258 
L 413.534941 308.870204 
L 416.140978 308.870204 
L 416.140978 304.307828 
L 416.686911 304.307828 
L 416.686911 299.745452 
L 418.210807 299.745452 
L 418.210807 295.183075 
L 418.476291 295.183075 
L 418.476291 290.620699 
L 471.457818 290.620699 
L 471.457818 286.058323 
L 471.950189 286.058323 
L 471.950189 281.495947 
L 472.439094 281.495947 
L 472.439094 276.933571 
L 473.045422 276.933571 
L 473.045422 272.371194 
L 475.380223 272.371194 
L 475.380223 267.808818 
L 476.461377 267.808818 
L 476.461377 263.246442 
L 478.462864 263.246442 
L 478.462864 254.121689 
L 478.611603 254.121689 
L 478.611603 249.559313 
L 479.092817 249.559313 
L 479.129696 235.872184 
L 479.350557 235.872184 
L 479.350557 231.309808 
L 480.408261 231.309808 
L 480.408261 226.747432 
L 481.020884 226.747432 
L 481.020884 222.185056 
L 481.663704 222.185056 
L 481.663704 217.622679 
L 501.981504 217.622679 
L 501.981504 213.060303 
L 507.683131 213.060303 
L 507.683131 208.497927 
L 507.902712 208.497927 
L 507.902712 203.935551 
L 508.918339 203.935551 
L 508.918339 199.373175 
L 521.9625 199.373175 
L 521.9625 199.373175 
" style="fill:none;stroke:#f5deb3;stroke-linecap:square;"/>
   </g>
   <g id="line2d_27">
    <path clip-path="url(#pa5eb1df482)" d="M 376.601636 359.056343 
L 376.601636 354.493967 
L 392.286652 354.493967 
L 392.286652 349.93159 
L 394.567211 349.93159 
L 394.567211 345.369214 
L 397.734475 345.369214 
L 397.734475 340.806838 
L 399.498095 340.806838 
L 399.498095 336.244462 
L 409.029115 336.244462 
L 409.029115 331.682085 
L 418.916522 331.682085 
L 418.916522 327.119709 
L 419.004234 327.119709 
L 419.004234 322.557333 
L 421.500845 322.557333 
L 421.500845 317.994957 
L 425.365588 317.994957 
L 425.365588 313.43258 
L 437.715826 313.43258 
L 437.715826 308.870204 
L 438.049757 308.870204 
L 438.049757 304.307828 
L 521.9625 304.307828 
" style="fill:none;stroke:#f5deb3;stroke-linecap:square;"/>
   </g>
   <g id="line2d_28">
    <path clip-path="url(#pa5eb1df482)" d="M 219.90288 359.056343 
L 219.90288 354.493967 
L 246.49178 354.493967 
L 246.49178 349.93159 
L 264.867827 349.93159 
L 264.867827 345.369214 
L 264.867827 345.369214 
L 264.867827 340.806838 
L 266.463854 340.806838 
L 266.463854 336.244462 
L 273.936018 336.244462 
L 273.936018 331.682085 
L 280.035715 331.682085 
L 280.035715 327.119709 
L 280.035715 327.119709 
L 280.035715 322.557333 
L 280.681526 322.557333 
L 280.681526 317.994957 
L 292.476617 317.994957 
L 292.476617 313.43258 
L 293.016885 313.43258 
L 293.016885 308.870204 
L 293.016885 308.870204 
L 293.016885 304.307828 
L 303.487631 304.307828 
L 303.487631 299.745452 
L 319.16406 299.745452 
L 319.16406 295.183075 
L 327.831675 295.183075 
L 327.831675 290.620699 
L 428.569746 290.620699 
L 428.569746 286.058323 
L 429.178067 286.058323 
L 429.178067 281.495947 
L 429.706009 281.495947 
L 429.706009 276.933571 
L 430.080668 276.933571 
L 430.080668 272.371194 
L 430.527606 272.371194 
L 430.527606 267.808818 
L 432.503966 267.808818 
L 432.503966 263.246442 
L 432.792034 263.246442 
L 432.792034 258.684066 
L 433.293293 258.684066 
L 433.293293 254.121689 
L 434.144263 254.121689 
L 434.144263 249.559313 
L 434.635888 249.559313 
L 434.635888 244.996937 
L 436.295507 244.996937 
L 436.295507 240.434561 
L 436.704287 240.434561 
L 436.704287 235.872184 
L 441.810339 235.872184 
L 441.810339 231.309808 
L 444.593862 231.309808 
L 444.593862 226.747432 
L 447.094829 226.747432 
L 447.094829 222.185056 
L 453.674426 222.185056 
L 453.674426 217.622679 
L 461.656073 217.622679 
L 461.656073 213.060303 
L 463.71185 213.060303 
L 463.71185 208.497927 
L 464.808043 208.497927 
L 464.808043 203.935551 
L 467.562272 203.935551 
L 467.562272 199.373175 
L 470.169455 199.373175 
L 470.169455 194.810798 
L 471.86837 194.810798 
L 471.86837 190.248422 
L 472.763127 190.248422 
L 472.763127 185.686046 
L 472.8439 185.686046 
L 472.8439 181.12367 
L 473.406693 181.12367 
L 473.406693 176.561293 
L 475.107283 176.561293 
L 475.107283 171.998917 
L 476.919624 171.998917 
L 476.919624 167.436541 
L 479.570719 167.436541 
L 479.570719 162.874165 
L 487.064562 162.874165 
L 487.064562 158.311788 
L 490.089075 158.311788 
L 490.089075 153.749412 
L 521.9625 153.749412 
" style="fill:none;stroke:#f5deb3;stroke-linecap:square;"/>
   </g>
   <g id="line2d_29">
    <path clip-path="url(#pa5eb1df482)" d="M 115.483632 359.056343 
L 115.483632 354.493967 
L 115.483632 354.493967 
L 115.483632 349.93159 
L 115.483632 349.93159 
L 115.483632 345.369214 
L 115.483632 345.369214 
L 115.483632 340.806838 
L 115.483632 340.806838 
L 115.483632 336.244462 
L 115.483632 336.244462 
L 115.483632 331.682085 
L 115.483632 331.682085 
L 115.483632 327.119709 
L 115.483632 327.119709 
L 115.483632 322.557333 
L 115.483632 322.557333 
L 115.483632 317.994957 
L 115.483632 317.994957 
L 115.483632 313.43258 
L 115.483632 313.43258 
L 115.483632 308.870204 
L 115.483632 308.870204 
L 115.483632 304.307828 
L 115.483632 304.307828 
L 115.483632 299.745452 
L 115.483632 299.745452 
L 115.483632 295.183075 
L 115.483632 295.183075 
L 115.483632 290.620699 
L 148.11322 290.620699 
L 148.11322 286.058323 
L 148.11322 286.058323 
L 148.11322 281.495947 
L 148.11322 281.495947 
L 148.11322 276.933571 
L 152.322031 276.933571 
L 152.322031 272.371194 
L 152.322031 272.371194 
L 152.322031 267.808818 
L 152.322031 267.808818 
L 152.322031 263.246442 
L 152.322031 263.246442 
L 152.322031 258.684066 
L 152.322031 258.684066 
L 152.322031 254.121689 
L 152.322031 254.121689 
L 152.322031 249.559313 
L 232.560393 249.559313 
L 232.560393 244.996937 
L 232.560393 244.996937 
L 232.560393 240.434561 
L 232.560393 240.434561 
L 232.560393 235.872184 
L 233.834266 235.872184 
L 233.834266 231.309808 
L 233.834266 231.309808 
L 233.834266 226.747432 
L 233.834266 226.747432 
L 233.834266 222.185056 
L 416.323433 222.185056 
L 416.323433 217.622679 
L 416.323433 217.622679 
L 416.323433 213.060303 
L 416.323433 213.060303 
L 416.323433 208.497927 
L 440.857133 208.497927 
L 440.857133 203.935551 
L 440.857133 203.935551 
L 440.857133 199.373175 
L 440.857133 199.373175 
L 440.857133 194.810798 
L 441.873424 194.810798 
L 441.873424 190.248422 
L 441.873424 190.248422 
L 441.873424 185.686046 
L 441.873424 185.686046 
L 441.873424 181.12367 
L 521.9625 181.12367 
" style="fill:none;stroke:#f5deb3;stroke-linecap:square;"/>
   </g>
   <g id="line2d_30">
    <path clip-path="url(#pa5eb1df482)" d="M 213.440159 359.056343 
L 213.440159 354.493967 
L 219.90288 354.493967 
L 219.90288 349.93159 
L 250.57673 349.93159 
L 250.57673 345.369214 
L 251.561485 345.369214 
L 251.561485 340.806838 
L 257.193555 340.806838 
L 257.193555 336.244462 
L 260.709451 336.244462 
L 260.709451 331.682085 
L 262.402806 331.682085 
L 262.402806 327.119709 
L 262.402806 327.119709 
L 262.402806 322.557333 
L 263.234243 322.557333 
L 263.234243 317.994957 
L 263.234243 317.994957 
L 263.234243 313.43258 
L 263.234243 313.43258 
L 263.234243 308.870204 
L 266.463854 308.870204 
L 266.463854 304.307828 
L 267.248316 304.307828 
L 267.248316 299.745452 
L 268.024012 299.745452 
L 268.024012 295.183075 
L 268.024012 295.183075 
L 268.024012 290.620699 
L 268.024012 290.620699 
L 268.024012 286.058323 
L 268.791137 286.058323 
L 268.791137 281.495947 
L 269.549878 281.495947 
L 269.549878 276.933571 
L 269.549878 276.933571 
L 269.549878 272.371194 
L 270.300417 272.371194 
L 270.300417 267.808818 
L 271.777581 267.808818 
L 271.777581 263.246442 
L 272.504542 263.246442 
L 272.504542 258.684066 
L 273.22397 258.684066 
L 273.22397 254.121689 
L 276.713353 254.121689 
L 276.713353 249.559313 
L 278.061437 249.559313 
L 278.061437 244.996937 
L 279.383841 244.996937 
L 279.383841 240.434561 
L 279.383841 240.434561 
L 279.383841 235.872184 
L 280.681526 235.872184 
L 280.681526 231.309808 
L 281.321384 231.309808 
L 281.321384 226.747432 
L 287.415128 226.747432 
L 287.415128 222.185056 
L 299.682617 222.185056 
L 299.682617 217.622679 
L 299.682617 217.622679 
L 299.682617 213.060303 
L 299.682617 213.060303 
L 299.682617 208.497927 
L 299.682617 208.497927 
L 299.682617 203.935551 
L 299.682617 203.935551 
L 299.682617 199.373175 
L 299.682617 199.373175 
L 299.682617 194.810798 
L 299.682617 194.810798 
L 299.682617 190.248422 
L 299.682617 190.248422 
L 299.682617 185.686046 
L 299.682617 185.686046 
L 299.682617 181.12367 
L 299.682617 181.12367 
L 299.682617 176.561293 
L 299.682617 176.561293 
L 299.682617 171.998917 
L 299.682617 171.998917 
L 299.682617 167.436541 
L 299.682617 167.436541 
L 299.682617 162.874165 
L 299.682617 162.874165 
L 299.682617 158.311788 
L 299.682617 158.311788 
L 299.682617 153.749412 
L 299.682617 153.749412 
L 299.682617 153.749412 
L 513.7625 153.749412 
" style="fill:none;stroke:#f5deb3;stroke-linecap:square;"/>
   </g>
   <g id="line2d_31">
    <path clip-path="url(#pa5eb1df482)" d="M -1 354.493967 
L 179.096309 354.493967 
L 179.096309 349.93159 
L 179.096309 349.93159 
L 179.096309 349.93159 
L 513.7625 349.93159 
" style="fill:none;stroke:#000000;stroke-linecap:square;"/>
   </g>
   <g id="line2d_32"/>
   <g id="line2d_33"/>
   <g id="line2d_34"/>
   <g id="line2d_35"/>
   <g id="line2d_36">
    <path clip-path="url(#pa5eb1df482)" d="M 513.7625 359.056343 
L 513.7625 13.456343 
" style="fill:none;stroke:#000000;stroke-linecap:square;"/>
   </g>
   <g id="patch_3">
    <path d="M 67.3625 13.456343 
L 513.7625 13.456343 
" style="fill:none;stroke:#000000;stroke-linecap:square;stroke-linejoin:miter;"/>
   </g>
   <g id="patch_4">
    <path d="M 513.7625 359.056343 
L 513.7625 13.456343 
" style="fill:none;stroke:#000000;stroke-linecap:square;stroke-linejoin:miter;"/>
   </g>
   <g id="patch_5">
    <path d="M 67.3625 359.056343 
L 513.7625 359.056343 
" style="fill:none;stroke:#000000;stroke-linecap:square;stroke-linejoin:miter;"/>
   </g>
   <g id="patch_6">
    <path d="M 67.3625 359.056343 
L 67.3625 13.456343 
" style="fill:none;stroke:#000000;stroke-linecap:square;stroke-linejoin:miter;"/>
   </g>
   <g id="matplotlib.axis_1">
    <g id="xtick_1">
     <g id="line2d_37">
      <path clip-path="url(#pa5eb1df482)" d="M 67.3625 359.056343 
L 67.3625 13.456343 
" style="fill:none;stroke:#000000;stroke-dasharray:1.000000,3.000000;stroke-dashoffset:0.0;stroke-width:0.5;"/>
     </g>
     <g id="line2d_38">
      <defs>
       <path d="M 0 0 
L 0 -4 
" id="mfc3527e249" style="stroke:#000000;stroke-width:0.5;"/>
      </defs>
      <g>
       <use style="stroke:#000000;stroke-width:0.5;" x="67.3625" xlink:href="#mfc3527e249" y="359.056342822"/>
      </g>
     </g>
     <g id="line2d_39">
      <defs>
       <path d="M 0 0 
L 0 4 
" id="mcbd6fc5adc" style="stroke:#000000;stroke-width:0.5;"/>
      </defs>
      <g>
       <use style="stroke:#000000;stroke-width:0.5;" x="67.3625" xlink:href="#mcbd6fc5adc" y="13.4563428218"/>
      </g>
     </g>
     <g id="text_1">
      <!-- 0 -->
      <defs>
       <path d="M 31.78125 66.40625 
Q 24.171875 66.40625 20.328125 58.90625 
Q 16.5 51.421875 16.5 36.375 
Q 16.5 21.390625 20.328125 13.890625 
Q 24.171875 6.390625 31.78125 6.390625 
Q 39.453125 6.390625 43.28125 13.890625 
Q 47.125 21.390625 47.125 36.375 
Q 47.125 51.421875 43.28125 58.90625 
Q 39.453125 66.40625 31.78125 66.40625 
M 31.78125 74.21875 
Q 44.046875 74.21875 50.515625 64.515625 
Q 56.984375 54.828125 56.984375 36.375 
Q 56.984375 17.96875 50.515625 8.265625 
Q 44.046875 -1.421875 31.78125 -1.421875 
Q 19.53125 -1.421875 13.0625 8.265625 
Q 6.59375 17.96875 6.59375 36.375 
Q 6.59375 54.828125 13.0625 64.515625 
Q 19.53125 74.21875 31.78125 74.21875 
" id="BitstreamVeraSans-Roman-30"/>
      </defs>
      <g transform="translate(61.0 378.253217822)scale(0.2 -0.2)">
       <use xlink:href="#BitstreamVeraSans-Roman-30"/>
      </g>
     </g>
    </g>
    <g id="xtick_2">
     <g id="line2d_40">
      <path clip-path="url(#pa5eb1df482)" d="M 227.217441 359.056343 
L 227.217441 13.456343 
" style="fill:none;stroke:#000000;stroke-dasharray:1.000000,3.000000;stroke-dashoffset:0.0;stroke-width:0.5;"/>
     </g>
     <g id="line2d_41">
      <g>
       <use style="stroke:#000000;stroke-width:0.5;" x="227.217440986" xlink:href="#mfc3527e249" y="359.056342822"/>
      </g>
     </g>
     <g id="line2d_42">
      <g>
       <use style="stroke:#000000;stroke-width:0.5;" x="227.217440986" xlink:href="#mcbd6fc5adc" y="13.4563428218"/>
      </g>
     </g>
     <g id="text_2">
      <!-- 1 -->
      <defs>
       <path d="M 12.40625 8.296875 
L 28.515625 8.296875 
L 28.515625 63.921875 
L 10.984375 60.40625 
L 10.984375 69.390625 
L 28.421875 72.90625 
L 38.28125 72.90625 
L 38.28125 8.296875 
L 54.390625 8.296875 
L 54.390625 0 
L 12.40625 0 
z
" id="BitstreamVeraSans-Roman-31"/>
      </defs>
      <g transform="translate(220.854940986 378.253217822)scale(0.2 -0.2)">
       <use xlink:href="#BitstreamVeraSans-Roman-31"/>
      </g>
     </g>
    </g>
    <g id="xtick_3">
     <g id="line2d_43">
      <path clip-path="url(#pa5eb1df482)" d="M 387.072382 359.056343 
L 387.072382 13.456343 
" style="fill:none;stroke:#000000;stroke-dasharray:1.000000,3.000000;stroke-dashoffset:0.0;stroke-width:0.5;"/>
     </g>
     <g id="line2d_44">
      <g>
       <use style="stroke:#000000;stroke-width:0.5;" x="387.072381972" xlink:href="#mfc3527e249" y="359.056342822"/>
      </g>
     </g>
     <g id="line2d_45">
      <g>
       <use style="stroke:#000000;stroke-width:0.5;" x="387.072381972" xlink:href="#mcbd6fc5adc" y="13.4563428218"/>
      </g>
     </g>
     <g id="text_3">
      <!-- 2 -->
      <defs>
       <path d="M 19.1875 8.296875 
L 53.609375 8.296875 
L 53.609375 0 
L 7.328125 0 
L 7.328125 8.296875 
Q 12.9375 14.109375 22.625 23.890625 
Q 32.328125 33.6875 34.8125 36.53125 
Q 39.546875 41.84375 41.421875 45.53125 
Q 43.3125 49.21875 43.3125 52.78125 
Q 43.3125 58.59375 39.234375 62.25 
Q 35.15625 65.921875 28.609375 65.921875 
Q 23.96875 65.921875 18.8125 64.3125 
Q 13.671875 62.703125 7.8125 59.421875 
L 7.8125 69.390625 
Q 13.765625 71.78125 18.9375 73 
Q 24.125 74.21875 28.421875 74.21875 
Q 39.75 74.21875 46.484375 68.546875 
Q 53.21875 62.890625 53.21875 53.421875 
Q 53.21875 48.921875 51.53125 44.890625 
Q 49.859375 40.875 45.40625 35.40625 
Q 44.1875 33.984375 37.640625 27.21875 
Q 31.109375 20.453125 19.1875 8.296875 
" id="BitstreamVeraSans-Roman-32"/>
      </defs>
      <g transform="translate(380.709881972 378.253217822)scale(0.2 -0.2)">
       <use xlink:href="#BitstreamVeraSans-Roman-32"/>
      </g>
     </g>
    </g>
    <g id="xtick_4">
     <g id="line2d_46">
      <defs>
       <path d="M 0 0 
L 0 -2 
" id="m12ce6ca5dd" style="stroke:#000000;stroke-width:0.5;"/>
      </defs>
      <g>
       <use style="stroke:#000000;stroke-width:0.5;" x="115.483632192" xlink:href="#m12ce6ca5dd" y="359.056342822"/>
      </g>
     </g>
     <g id="line2d_47">
      <defs>
       <path d="M 0 0 
L 0 2 
" id="madfcc170c3" style="stroke:#000000;stroke-width:0.5;"/>
      </defs>
      <g>
       <use style="stroke:#000000;stroke-width:0.5;" x="115.483632192" xlink:href="#madfcc170c3" y="13.4563428218"/>
      </g>
     </g>
    </g>
    <g id="xtick_5">
     <g id="line2d_48">
      <g>
       <use style="stroke:#000000;stroke-width:0.5;" x="143.632690016" xlink:href="#m12ce6ca5dd" y="359.056342822"/>
      </g>
     </g>
     <g id="line2d_49">
      <g>
       <use style="stroke:#000000;stroke-width:0.5;" x="143.632690016" xlink:href="#madfcc170c3" y="13.4563428218"/>
      </g>
     </g>
    </g>
    <g id="xtick_6">
     <g id="line2d_50">
      <g>
       <use style="stroke:#000000;stroke-width:0.5;" x="163.604764384" xlink:href="#m12ce6ca5dd" y="359.056342822"/>
      </g>
     </g>
     <g id="line2d_51">
      <g>
       <use style="stroke:#000000;stroke-width:0.5;" x="163.604764384" xlink:href="#madfcc170c3" y="13.4563428218"/>
      </g>
     </g>
    </g>
    <g id="xtick_7">
     <g id="line2d_52">
      <g>
       <use style="stroke:#000000;stroke-width:0.5;" x="179.096308794" xlink:href="#m12ce6ca5dd" y="359.056342822"/>
      </g>
     </g>
     <g id="line2d_53">
      <g>
       <use style="stroke:#000000;stroke-width:0.5;" x="179.096308794" xlink:href="#madfcc170c3" y="13.4563428218"/>
      </g>
     </g>
    </g>
    <g id="xtick_8">
     <g id="line2d_54">
      <g>
       <use style="stroke:#000000;stroke-width:0.5;" x="191.753822208" xlink:href="#m12ce6ca5dd" y="359.056342822"/>
      </g>
     </g>
     <g id="line2d_55">
      <g>
       <use style="stroke:#000000;stroke-width:0.5;" x="191.753822208" xlink:href="#madfcc170c3" y="13.4563428218"/>
      </g>
     </g>
    </g>
    <g id="xtick_9">
     <g id="line2d_56">
      <g>
       <use style="stroke:#000000;stroke-width:0.5;" x="202.455597314" xlink:href="#m12ce6ca5dd" y="359.056342822"/>
      </g>
     </g>
     <g id="line2d_57">
      <g>
       <use style="stroke:#000000;stroke-width:0.5;" x="202.455597314" xlink:href="#madfcc170c3" y="13.4563428218"/>
      </g>
     </g>
    </g>
    <g id="xtick_10">
     <g id="line2d_58">
      <g>
       <use style="stroke:#000000;stroke-width:0.5;" x="211.725896576" xlink:href="#m12ce6ca5dd" y="359.056342822"/>
      </g>
     </g>
     <g id="line2d_59">
      <g>
       <use style="stroke:#000000;stroke-width:0.5;" x="211.725896576" xlink:href="#madfcc170c3" y="13.4563428218"/>
      </g>
     </g>
    </g>
    <g id="xtick_11">
     <g id="line2d_60">
      <g>
       <use style="stroke:#000000;stroke-width:0.5;" x="219.902880033" xlink:href="#m12ce6ca5dd" y="359.056342822"/>
      </g>
     </g>
     <g id="line2d_61">
      <g>
       <use style="stroke:#000000;stroke-width:0.5;" x="219.902880033" xlink:href="#madfcc170c3" y="13.4563428218"/>
      </g>
     </g>
    </g>
    <g id="xtick_12">
     <g id="line2d_62">
      <g>
       <use style="stroke:#000000;stroke-width:0.5;" x="275.338573178" xlink:href="#m12ce6ca5dd" y="359.056342822"/>
      </g>
     </g>
     <g id="line2d_63">
      <g>
       <use style="stroke:#000000;stroke-width:0.5;" x="275.338573178" xlink:href="#madfcc170c3" y="13.4563428218"/>
      </g>
     </g>
    </g>
    <g id="xtick_13">
     <g id="line2d_64">
      <g>
       <use style="stroke:#000000;stroke-width:0.5;" x="303.487631002" xlink:href="#m12ce6ca5dd" y="359.056342822"/>
      </g>
     </g>
     <g id="line2d_65">
      <g>
       <use style="stroke:#000000;stroke-width:0.5;" x="303.487631002" xlink:href="#madfcc170c3" y="13.4563428218"/>
      </g>
     </g>
    </g>
    <g id="xtick_14">
     <g id="line2d_66">
      <g>
       <use style="stroke:#000000;stroke-width:0.5;" x="323.45970537" xlink:href="#m12ce6ca5dd" y="359.056342822"/>
      </g>
     </g>
     <g id="line2d_67">
      <g>
       <use style="stroke:#000000;stroke-width:0.5;" x="323.45970537" xlink:href="#madfcc170c3" y="13.4563428218"/>
      </g>
     </g>
    </g>
    <g id="xtick_15">
     <g id="line2d_68">
      <g>
       <use style="stroke:#000000;stroke-width:0.5;" x="338.95124978" xlink:href="#m12ce6ca5dd" y="359.056342822"/>
      </g>
     </g>
     <g id="line2d_69">
      <g>
       <use style="stroke:#000000;stroke-width:0.5;" x="338.95124978" xlink:href="#madfcc170c3" y="13.4563428218"/>
      </g>
     </g>
    </g>
    <g id="xtick_16">
     <g id="line2d_70">
      <g>
       <use style="stroke:#000000;stroke-width:0.5;" x="351.608763194" xlink:href="#m12ce6ca5dd" y="359.056342822"/>
      </g>
     </g>
     <g id="line2d_71">
      <g>
       <use style="stroke:#000000;stroke-width:0.5;" x="351.608763194" xlink:href="#madfcc170c3" y="13.4563428218"/>
      </g>
     </g>
    </g>
    <g id="xtick_17">
     <g id="line2d_72">
      <g>
       <use style="stroke:#000000;stroke-width:0.5;" x="362.3105383" xlink:href="#m12ce6ca5dd" y="359.056342822"/>
      </g>
     </g>
     <g id="line2d_73">
      <g>
       <use style="stroke:#000000;stroke-width:0.5;" x="362.3105383" xlink:href="#madfcc170c3" y="13.4563428218"/>
      </g>
     </g>
    </g>
    <g id="xtick_18">
     <g id="line2d_74">
      <g>
       <use style="stroke:#000000;stroke-width:0.5;" x="371.580837561" xlink:href="#m12ce6ca5dd" y="359.056342822"/>
      </g>
     </g>
     <g id="line2d_75">
      <g>
       <use style="stroke:#000000;stroke-width:0.5;" x="371.580837561" xlink:href="#madfcc170c3" y="13.4563428218"/>
      </g>
     </g>
    </g>
    <g id="xtick_19">
     <g id="line2d_76">
      <g>
       <use style="stroke:#000000;stroke-width:0.5;" x="379.757821019" xlink:href="#m12ce6ca5dd" y="359.056342822"/>
      </g>
     </g>
     <g id="line2d_77">
      <g>
       <use style="stroke:#000000;stroke-width:0.5;" x="379.757821019" xlink:href="#madfcc170c3" y="13.4563428218"/>
      </g>
     </g>
    </g>
    <g id="xtick_20">
     <g id="line2d_78">
      <g>
       <use style="stroke:#000000;stroke-width:0.5;" x="435.193514164" xlink:href="#m12ce6ca5dd" y="359.056342822"/>
      </g>
     </g>
     <g id="line2d_79">
      <g>
       <use style="stroke:#000000;stroke-width:0.5;" x="435.193514164" xlink:href="#madfcc170c3" y="13.4563428218"/>
      </g>
     </g>
    </g>
    <g id="xtick_21">
     <g id="line2d_80">
      <g>
       <use style="stroke:#000000;stroke-width:0.5;" x="463.342571988" xlink:href="#m12ce6ca5dd" y="359.056342822"/>
      </g>
     </g>
     <g id="line2d_81">
      <g>
       <use style="stroke:#000000;stroke-width:0.5;" x="463.342571988" xlink:href="#madfcc170c3" y="13.4563428218"/>
      </g>
     </g>
    </g>
    <g id="xtick_22">
     <g id="line2d_82">
      <g>
       <use style="stroke:#000000;stroke-width:0.5;" x="483.314646356" xlink:href="#m12ce6ca5dd" y="359.056342822"/>
      </g>
     </g>
     <g id="line2d_83">
      <g>
       <use style="stroke:#000000;stroke-width:0.5;" x="483.314646356" xlink:href="#madfcc170c3" y="13.4563428218"/>
      </g>
     </g>
    </g>
    <g id="xtick_23">
     <g id="line2d_84">
      <g>
       <use style="stroke:#000000;stroke-width:0.5;" x="498.806190766" xlink:href="#m12ce6ca5dd" y="359.056342822"/>
      </g>
     </g>
     <g id="line2d_85">
      <g>
       <use style="stroke:#000000;stroke-width:0.5;" x="498.806190766" xlink:href="#madfcc170c3" y="13.4563428218"/>
      </g>
     </g>
    </g>
    <g id="xtick_24">
     <g id="line2d_86">
      <g>
       <use style="stroke:#000000;stroke-width:0.5;" x="511.46370418" xlink:href="#m12ce6ca5dd" y="359.056342822"/>
      </g>
     </g>
     <g id="line2d_87">
      <g>
       <use style="stroke:#000000;stroke-width:0.5;" x="511.46370418" xlink:href="#madfcc170c3" y="13.4563428218"/>
      </g>
     </g>
    </g>
    <g id="text_4">
     <!-- log10 of FEvals / DIM -->
     <defs>
      <path id="BitstreamVeraSans-Roman-20"/>
      <path d="M 9.8125 72.90625 
L 24.515625 72.90625 
L 43.109375 23.296875 
L 61.8125 72.90625 
L 76.515625 72.90625 
L 76.515625 0 
L 66.890625 0 
L 66.890625 64.015625 
L 48.09375 14.015625 
L 38.1875 14.015625 
L 19.390625 64.015625 
L 19.390625 0 
L 9.8125 0 
z
" id="BitstreamVeraSans-Roman-4d"/>
      <path d="M 30.609375 48.390625 
Q 23.390625 48.390625 19.1875 42.75 
Q 14.984375 37.109375 14.984375 27.296875 
Q 14.984375 17.484375 19.15625 11.84375 
Q 23.34375 6.203125 30.609375 6.203125 
Q 37.796875 6.203125 41.984375 11.859375 
Q 46.1875 17.53125 46.1875 27.296875 
Q 46.1875 37.015625 41.984375 42.703125 
Q 37.796875 48.390625 30.609375 48.390625 
M 30.609375 56 
Q 42.328125 56 49.015625 48.375 
Q 55.71875 40.765625 55.71875 27.296875 
Q 55.71875 13.875 49.015625 6.21875 
Q 42.328125 -1.421875 30.609375 -1.421875 
Q 18.84375 -1.421875 12.171875 6.21875 
Q 5.515625 13.875 5.515625 27.296875 
Q 5.515625 40.765625 12.171875 48.375 
Q 18.84375 56 30.609375 56 
" id="BitstreamVeraSans-Roman-6f"/>
      <path d="M 9.421875 75.984375 
L 18.40625 75.984375 
L 18.40625 0 
L 9.421875 0 
z
" id="BitstreamVeraSans-Roman-6c"/>
      <path d="M 9.8125 72.90625 
L 51.703125 72.90625 
L 51.703125 64.59375 
L 19.671875 64.59375 
L 19.671875 43.109375 
L 48.578125 43.109375 
L 48.578125 34.8125 
L 19.671875 34.8125 
L 19.671875 0 
L 9.8125 0 
z
" id="BitstreamVeraSans-Roman-46"/>
      <path d="M 9.8125 72.90625 
L 55.90625 72.90625 
L 55.90625 64.59375 
L 19.671875 64.59375 
L 19.671875 43.015625 
L 54.390625 43.015625 
L 54.390625 34.71875 
L 19.671875 34.71875 
L 19.671875 8.296875 
L 56.78125 8.296875 
L 56.78125 0 
L 9.8125 0 
z
" id="BitstreamVeraSans-Roman-45"/>
      <path d="M 19.671875 64.796875 
L 19.671875 8.109375 
L 31.59375 8.109375 
Q 46.6875 8.109375 53.6875 14.9375 
Q 60.6875 21.78125 60.6875 36.53125 
Q 60.6875 51.171875 53.6875 57.984375 
Q 46.6875 64.796875 31.59375 64.796875 
z
M 9.8125 72.90625 
L 30.078125 72.90625 
Q 51.265625 72.90625 61.171875 64.09375 
Q 71.09375 55.28125 71.09375 36.53125 
Q 71.09375 17.671875 61.125 8.828125 
Q 51.171875 0 30.078125 0 
L 9.8125 0 
z
" id="BitstreamVeraSans-Roman-44"/>
      <path d="M 25.390625 72.90625 
L 33.6875 72.90625 
L 8.296875 -9.28125 
L 0 -9.28125 
z
" id="BitstreamVeraSans-Roman-2f"/>
      <path d="M 2.984375 54.6875 
L 12.5 54.6875 
L 29.59375 8.796875 
L 46.6875 54.6875 
L 56.203125 54.6875 
L 35.6875 0 
L 23.484375 0 
z
" id="BitstreamVeraSans-Roman-76"/>
      <path d="M 45.40625 27.984375 
Q 45.40625 37.75 41.375 43.109375 
Q 37.359375 48.484375 30.078125 48.484375 
Q 22.859375 48.484375 18.828125 43.109375 
Q 14.796875 37.75 14.796875 27.984375 
Q 14.796875 18.265625 18.828125 12.890625 
Q 22.859375 7.515625 30.078125 7.515625 
Q 37.359375 7.515625 41.375 12.890625 
Q 45.40625 18.265625 45.40625 27.984375 
M 54.390625 6.78125 
Q 54.390625 -7.171875 48.1875 -13.984375 
Q 42 -20.796875 29.203125 -20.796875 
Q 24.46875 -20.796875 20.265625 -20.09375 
Q 16.0625 -19.390625 12.109375 -17.921875 
L 12.109375 -9.1875 
Q 16.0625 -11.328125 19.921875 -12.34375 
Q 23.78125 -13.375 27.78125 -13.375 
Q 36.625 -13.375 41.015625 -8.765625 
Q 45.40625 -4.15625 45.40625 5.171875 
L 45.40625 9.625 
Q 42.625 4.78125 38.28125 2.390625 
Q 33.9375 0 27.875 0 
Q 17.828125 0 11.671875 7.65625 
Q 5.515625 15.328125 5.515625 27.984375 
Q 5.515625 40.671875 11.671875 48.328125 
Q 17.828125 56 27.875 56 
Q 33.9375 56 38.28125 53.609375 
Q 42.625 51.21875 45.40625 46.390625 
L 45.40625 54.6875 
L 54.390625 54.6875 
z
" id="BitstreamVeraSans-Roman-67"/>
      <path d="M 37.109375 75.984375 
L 37.109375 68.5 
L 28.515625 68.5 
Q 23.6875 68.5 21.796875 66.546875 
Q 19.921875 64.59375 19.921875 59.515625 
L 19.921875 54.6875 
L 34.71875 54.6875 
L 34.71875 47.703125 
L 19.921875 47.703125 
L 19.921875 0 
L 10.890625 0 
L 10.890625 47.703125 
L 2.296875 47.703125 
L 2.296875 54.6875 
L 10.890625 54.6875 
L 10.890625 58.5 
Q 10.890625 67.625 15.140625 71.796875 
Q 19.390625 75.984375 28.609375 75.984375 
z
" id="BitstreamVeraSans-Roman-66"/>
      <path d="M 34.28125 27.484375 
Q 23.390625 27.484375 19.1875 25 
Q 14.984375 22.515625 14.984375 16.5 
Q 14.984375 11.71875 18.140625 8.90625 
Q 21.296875 6.109375 26.703125 6.109375 
Q 34.1875 6.109375 38.703125 11.40625 
Q 43.21875 16.703125 43.21875 25.484375 
L 43.21875 27.484375 
z
M 52.203125 31.203125 
L 52.203125 0 
L 43.21875 0 
L 43.21875 8.296875 
Q 40.140625 3.328125 35.546875 0.953125 
Q 30.953125 -1.421875 24.3125 -1.421875 
Q 15.921875 -1.421875 10.953125 3.296875 
Q 6 8.015625 6 15.921875 
Q 6 25.140625 12.171875 29.828125 
Q 18.359375 34.515625 30.609375 34.515625 
L 43.21875 34.515625 
L 43.21875 35.40625 
Q 43.21875 41.609375 39.140625 45 
Q 35.0625 48.390625 27.6875 48.390625 
Q 23 48.390625 18.546875 47.265625 
Q 14.109375 46.140625 10.015625 43.890625 
L 10.015625 52.203125 
Q 14.9375 54.109375 19.578125 55.046875 
Q 24.21875 56 28.609375 56 
Q 40.484375 56 46.34375 49.84375 
Q 52.203125 43.703125 52.203125 31.203125 
" id="BitstreamVeraSans-Roman-61"/>
      <path d="M 44.28125 53.078125 
L 44.28125 44.578125 
Q 40.484375 46.53125 36.375 47.5 
Q 32.28125 48.484375 27.875 48.484375 
Q 21.1875 48.484375 17.84375 46.4375 
Q 14.5 44.390625 14.5 40.28125 
Q 14.5 37.15625 16.890625 35.375 
Q 19.28125 33.59375 26.515625 31.984375 
L 29.59375 31.296875 
Q 39.15625 29.25 43.1875 25.515625 
Q 47.21875 21.78125 47.21875 15.09375 
Q 47.21875 7.46875 41.1875 3.015625 
Q 35.15625 -1.421875 24.609375 -1.421875 
Q 20.21875 -1.421875 15.453125 -0.5625 
Q 10.6875 0.296875 5.421875 2 
L 5.421875 11.28125 
Q 10.40625 8.6875 15.234375 7.390625 
Q 20.0625 6.109375 24.8125 6.109375 
Q 31.15625 6.109375 34.5625 8.28125 
Q 37.984375 10.453125 37.984375 14.40625 
Q 37.984375 18.0625 35.515625 20.015625 
Q 33.0625 21.96875 24.703125 23.78125 
L 21.578125 24.515625 
Q 13.234375 26.265625 9.515625 29.90625 
Q 5.8125 33.546875 5.8125 39.890625 
Q 5.8125 47.609375 11.28125 51.796875 
Q 16.75 56 26.8125 56 
Q 31.78125 56 36.171875 55.265625 
Q 40.578125 54.546875 44.28125 53.078125 
" id="BitstreamVeraSans-Roman-73"/>
      <path d="M 9.8125 72.90625 
L 19.671875 72.90625 
L 19.671875 0 
L 9.8125 0 
z
" id="BitstreamVeraSans-Roman-49"/>
     </defs>
     <g transform="translate(185.4890625 402.609467822)scale(0.2 -0.2)">
      <use xlink:href="#BitstreamVeraSans-Roman-6c"/>
      <use x="27.783203125" xlink:href="#BitstreamVeraSans-Roman-6f"/>
      <use x="88.96484375" xlink:href="#BitstreamVeraSans-Roman-67"/>
      <use x="152.44140625" xlink:href="#BitstreamVeraSans-Roman-31"/>
      <use x="216.064453125" xlink:href="#BitstreamVeraSans-Roman-30"/>
      <use x="279.6875" xlink:href="#BitstreamVeraSans-Roman-20"/>
      <use x="311.474609375" xlink:href="#BitstreamVeraSans-Roman-6f"/>
      <use x="372.65625" xlink:href="#BitstreamVeraSans-Roman-66"/>
      <use x="407.861328125" xlink:href="#BitstreamVeraSans-Roman-20"/>
      <use x="439.6484375" xlink:href="#BitstreamVeraSans-Roman-46"/>
      <use x="497.16796875" xlink:href="#BitstreamVeraSans-Roman-45"/>
      <use x="560.3515625" xlink:href="#BitstreamVeraSans-Roman-76"/>
      <use x="619.53125" xlink:href="#BitstreamVeraSans-Roman-61"/>
      <use x="680.810546875" xlink:href="#BitstreamVeraSans-Roman-6c"/>
      <use x="708.59375" xlink:href="#BitstreamVeraSans-Roman-73"/>
      <use x="760.693359375" xlink:href="#BitstreamVeraSans-Roman-20"/>
      <use x="792.48046875" xlink:href="#BitstreamVeraSans-Roman-2f"/>
      <use x="826.171875" xlink:href="#BitstreamVeraSans-Roman-20"/>
      <use x="857.958984375" xlink:href="#BitstreamVeraSans-Roman-44"/>
      <use x="934.9609375" xlink:href="#BitstreamVeraSans-Roman-49"/>
      <use x="964.453125" xlink:href="#BitstreamVeraSans-Roman-4d"/>
     </g>
    </g>
   </g>
   <g id="matplotlib.axis_2">
    <g id="ytick_1">
     <g id="line2d_88">
      <path clip-path="url(#pa5eb1df482)" d="M 67.3625 359.056343 
L 513.7625 359.056343 
" style="fill:none;stroke:#000000;stroke-dasharray:1.000000,3.000000;stroke-dashoffset:0.0;stroke-width:0.5;"/>
     </g>
     <g id="line2d_89">
      <defs>
       <path d="M 0 0 
L 4 0 
" id="m61ea682073" style="stroke:#000000;stroke-width:0.5;"/>
      </defs>
      <g>
       <use style="stroke:#000000;stroke-width:0.5;" x="67.3625" xlink:href="#m61ea682073" y="359.056342822"/>
      </g>
     </g>
     <g id="line2d_90">
      <defs>
       <path d="M 0 0 
L -4 0 
" id="m5c20b3a7bc" style="stroke:#000000;stroke-width:0.5;"/>
      </defs>
      <g>
       <use style="stroke:#000000;stroke-width:0.5;" x="513.7625" xlink:href="#m5c20b3a7bc" y="359.056342822"/>
      </g>
     </g>
     <g id="text_5">
      <!-- 0.0 -->
      <defs>
       <path d="M 10.6875 12.40625 
L 21 12.40625 
L 21 0 
L 10.6875 0 
z
" id="BitstreamVeraSans-Roman-2e"/>
      </defs>
      <g transform="translate(31.55625 364.575092822)scale(0.2 -0.2)">
       <use xlink:href="#BitstreamVeraSans-Roman-30"/>
       <use x="63.623046875" xlink:href="#BitstreamVeraSans-Roman-2e"/>
       <use x="95.41015625" xlink:href="#BitstreamVeraSans-Roman-30"/>
      </g>
     </g>
    </g>
    <g id="ytick_2">
     <g id="line2d_91">
      <path clip-path="url(#pa5eb1df482)" d="M 67.3625 290.620699 
L 513.7625 290.620699 
" style="fill:none;stroke:#000000;stroke-dasharray:1.000000,3.000000;stroke-dashoffset:0.0;stroke-width:0.5;"/>
     </g>
     <g id="line2d_92">
      <g>
       <use style="stroke:#000000;stroke-width:0.5;" x="67.3625" xlink:href="#m61ea682073" y="290.620699257"/>
      </g>
     </g>
     <g id="line2d_93">
      <g>
       <use style="stroke:#000000;stroke-width:0.5;" x="513.7625" xlink:href="#m5c20b3a7bc" y="290.620699257"/>
      </g>
     </g>
     <g id="text_6">
      <!-- 0.2 -->
      <g transform="translate(31.55625 296.139449257)scale(0.2 -0.2)">
       <use xlink:href="#BitstreamVeraSans-Roman-30"/>
       <use x="63.623046875" xlink:href="#BitstreamVeraSans-Roman-2e"/>
       <use x="95.41015625" xlink:href="#BitstreamVeraSans-Roman-32"/>
      </g>
     </g>
    </g>
    <g id="ytick_3">
     <g id="line2d_94">
      <path clip-path="url(#pa5eb1df482)" d="M 67.3625 222.185056 
L 513.7625 222.185056 
" style="fill:none;stroke:#000000;stroke-dasharray:1.000000,3.000000;stroke-dashoffset:0.0;stroke-width:0.5;"/>
     </g>
     <g id="line2d_95">
      <g>
       <use style="stroke:#000000;stroke-width:0.5;" x="67.3625" xlink:href="#m61ea682073" y="222.185055693"/>
      </g>
     </g>
     <g id="line2d_96">
      <g>
       <use style="stroke:#000000;stroke-width:0.5;" x="513.7625" xlink:href="#m5c20b3a7bc" y="222.185055693"/>
      </g>
     </g>
     <g id="text_7">
      <!-- 0.4 -->
      <defs>
       <path d="M 37.796875 64.3125 
L 12.890625 25.390625 
L 37.796875 25.390625 
z
M 35.203125 72.90625 
L 47.609375 72.90625 
L 47.609375 25.390625 
L 58.015625 25.390625 
L 58.015625 17.1875 
L 47.609375 17.1875 
L 47.609375 0 
L 37.796875 0 
L 37.796875 17.1875 
L 4.890625 17.1875 
L 4.890625 26.703125 
z
" id="BitstreamVeraSans-Roman-34"/>
      </defs>
      <g transform="translate(31.55625 227.703805693)scale(0.2 -0.2)">
       <use xlink:href="#BitstreamVeraSans-Roman-30"/>
       <use x="63.623046875" xlink:href="#BitstreamVeraSans-Roman-2e"/>
       <use x="95.41015625" xlink:href="#BitstreamVeraSans-Roman-34"/>
      </g>
     </g>
    </g>
    <g id="ytick_4">
     <g id="line2d_97">
      <path clip-path="url(#pa5eb1df482)" d="M 67.3625 153.749412 
L 513.7625 153.749412 
" style="fill:none;stroke:#000000;stroke-dasharray:1.000000,3.000000;stroke-dashoffset:0.0;stroke-width:0.5;"/>
     </g>
     <g id="line2d_98">
      <g>
       <use style="stroke:#000000;stroke-width:0.5;" x="67.3625" xlink:href="#m61ea682073" y="153.749412129"/>
      </g>
     </g>
     <g id="line2d_99">
      <g>
       <use style="stroke:#000000;stroke-width:0.5;" x="513.7625" xlink:href="#m5c20b3a7bc" y="153.749412129"/>
      </g>
     </g>
     <g id="text_8">
      <!-- 0.6 -->
      <defs>
       <path d="M 33.015625 40.375 
Q 26.375 40.375 22.484375 35.828125 
Q 18.609375 31.296875 18.609375 23.390625 
Q 18.609375 15.53125 22.484375 10.953125 
Q 26.375 6.390625 33.015625 6.390625 
Q 39.65625 6.390625 43.53125 10.953125 
Q 47.40625 15.53125 47.40625 23.390625 
Q 47.40625 31.296875 43.53125 35.828125 
Q 39.65625 40.375 33.015625 40.375 
M 52.59375 71.296875 
L 52.59375 62.3125 
Q 48.875 64.0625 45.09375 64.984375 
Q 41.3125 65.921875 37.59375 65.921875 
Q 27.828125 65.921875 22.671875 59.328125 
Q 17.53125 52.734375 16.796875 39.40625 
Q 19.671875 43.65625 24.015625 45.921875 
Q 28.375 48.1875 33.59375 48.1875 
Q 44.578125 48.1875 50.953125 41.515625 
Q 57.328125 34.859375 57.328125 23.390625 
Q 57.328125 12.15625 50.6875 5.359375 
Q 44.046875 -1.421875 33.015625 -1.421875 
Q 20.359375 -1.421875 13.671875 8.265625 
Q 6.984375 17.96875 6.984375 36.375 
Q 6.984375 53.65625 15.1875 63.9375 
Q 23.390625 74.21875 37.203125 74.21875 
Q 40.921875 74.21875 44.703125 73.484375 
Q 48.484375 72.75 52.59375 71.296875 
" id="BitstreamVeraSans-Roman-36"/>
      </defs>
      <g transform="translate(31.55625 159.268162129)scale(0.2 -0.2)">
       <use xlink:href="#BitstreamVeraSans-Roman-30"/>
       <use x="63.623046875" xlink:href="#BitstreamVeraSans-Roman-2e"/>
       <use x="95.41015625" xlink:href="#BitstreamVeraSans-Roman-36"/>
      </g>
     </g>
    </g>
    <g id="ytick_5">
     <g id="line2d_100">
      <path clip-path="url(#pa5eb1df482)" d="M 67.3625 85.313769 
L 513.7625 85.313769 
" style="fill:none;stroke:#000000;stroke-dasharray:1.000000,3.000000;stroke-dashoffset:0.0;stroke-width:0.5;"/>
     </g>
     <g id="line2d_101">
      <g>
       <use style="stroke:#000000;stroke-width:0.5;" x="67.3625" xlink:href="#m61ea682073" y="85.3137685644"/>
      </g>
     </g>
     <g id="line2d_102">
      <g>
       <use style="stroke:#000000;stroke-width:0.5;" x="513.7625" xlink:href="#m5c20b3a7bc" y="85.3137685644"/>
      </g>
     </g>
     <g id="text_9">
      <!-- 0.8 -->
      <defs>
       <path d="M 31.78125 34.625 
Q 24.75 34.625 20.71875 30.859375 
Q 16.703125 27.09375 16.703125 20.515625 
Q 16.703125 13.921875 20.71875 10.15625 
Q 24.75 6.390625 31.78125 6.390625 
Q 38.8125 6.390625 42.859375 10.171875 
Q 46.921875 13.96875 46.921875 20.515625 
Q 46.921875 27.09375 42.890625 30.859375 
Q 38.875 34.625 31.78125 34.625 
M 21.921875 38.8125 
Q 15.578125 40.375 12.03125 44.71875 
Q 8.5 49.078125 8.5 55.328125 
Q 8.5 64.0625 14.71875 69.140625 
Q 20.953125 74.21875 31.78125 74.21875 
Q 42.671875 74.21875 48.875 69.140625 
Q 55.078125 64.0625 55.078125 55.328125 
Q 55.078125 49.078125 51.53125 44.71875 
Q 48 40.375 41.703125 38.8125 
Q 48.828125 37.15625 52.796875 32.3125 
Q 56.78125 27.484375 56.78125 20.515625 
Q 56.78125 9.90625 50.3125 4.234375 
Q 43.84375 -1.421875 31.78125 -1.421875 
Q 19.734375 -1.421875 13.25 4.234375 
Q 6.78125 9.90625 6.78125 20.515625 
Q 6.78125 27.484375 10.78125 32.3125 
Q 14.796875 37.15625 21.921875 38.8125 
M 18.3125 54.390625 
Q 18.3125 48.734375 21.84375 45.5625 
Q 25.390625 42.390625 31.78125 42.390625 
Q 38.140625 42.390625 41.71875 45.5625 
Q 45.3125 48.734375 45.3125 54.390625 
Q 45.3125 60.0625 41.71875 63.234375 
Q 38.140625 66.40625 31.78125 66.40625 
Q 25.390625 66.40625 21.84375 63.234375 
Q 18.3125 60.0625 18.3125 54.390625 
" id="BitstreamVeraSans-Roman-38"/>
      </defs>
      <g transform="translate(31.55625 90.8325185644)scale(0.2 -0.2)">
       <use xlink:href="#BitstreamVeraSans-Roman-30"/>
       <use x="63.623046875" xlink:href="#BitstreamVeraSans-Roman-2e"/>
       <use x="95.41015625" xlink:href="#BitstreamVeraSans-Roman-38"/>
      </g>
     </g>
    </g>
    <g id="ytick_6">
     <g id="line2d_103">
      <path clip-path="url(#pa5eb1df482)" d="M 67.3625 16.878125 
L 513.7625 16.878125 
" style="fill:none;stroke:#000000;stroke-dasharray:1.000000,3.000000;stroke-dashoffset:0.0;stroke-width:0.5;"/>
     </g>
     <g id="line2d_104">
      <g>
       <use style="stroke:#000000;stroke-width:0.5;" x="67.3625" xlink:href="#m61ea682073" y="16.878125"/>
      </g>
     </g>
     <g id="line2d_105">
      <g>
       <use style="stroke:#000000;stroke-width:0.5;" x="513.7625" xlink:href="#m5c20b3a7bc" y="16.878125"/>
      </g>
     </g>
     <g id="text_10">
      <!-- 1.0 -->
      <g transform="translate(31.55625 22.396875)scale(0.2 -0.2)">
       <use xlink:href="#BitstreamVeraSans-Roman-31"/>
       <use x="63.623046875" xlink:href="#BitstreamVeraSans-Roman-2e"/>
       <use x="95.41015625" xlink:href="#BitstreamVeraSans-Roman-30"/>
      </g>
     </g>
    </g>
    <g id="text_11">
     <!-- proportion of trials -->
     <defs>
      <path d="M 54.890625 33.015625 
L 54.890625 0 
L 45.90625 0 
L 45.90625 32.71875 
Q 45.90625 40.484375 42.875 44.328125 
Q 39.84375 48.1875 33.796875 48.1875 
Q 26.515625 48.1875 22.3125 43.546875 
Q 18.109375 38.921875 18.109375 30.90625 
L 18.109375 0 
L 9.078125 0 
L 9.078125 54.6875 
L 18.109375 54.6875 
L 18.109375 46.1875 
Q 21.34375 51.125 25.703125 53.5625 
Q 30.078125 56 35.796875 56 
Q 45.21875 56 50.046875 50.171875 
Q 54.890625 44.34375 54.890625 33.015625 
" id="BitstreamVeraSans-Roman-6e"/>
      <path d="M 9.421875 54.6875 
L 18.40625 54.6875 
L 18.40625 0 
L 9.421875 0 
z
M 9.421875 75.984375 
L 18.40625 75.984375 
L 18.40625 64.59375 
L 9.421875 64.59375 
z
" id="BitstreamVeraSans-Roman-69"/>
      <path d="M 18.3125 70.21875 
L 18.3125 54.6875 
L 36.8125 54.6875 
L 36.8125 47.703125 
L 18.3125 47.703125 
L 18.3125 18.015625 
Q 18.3125 11.328125 20.140625 9.421875 
Q 21.96875 7.515625 27.59375 7.515625 
L 36.8125 7.515625 
L 36.8125 0 
L 27.59375 0 
Q 17.1875 0 13.234375 3.875 
Q 9.28125 7.765625 9.28125 18.015625 
L 9.28125 47.703125 
L 2.6875 47.703125 
L 2.6875 54.6875 
L 9.28125 54.6875 
L 9.28125 70.21875 
z
" id="BitstreamVeraSans-Roman-74"/>
      <path d="M 41.109375 46.296875 
Q 39.59375 47.171875 37.8125 47.578125 
Q 36.03125 48 33.890625 48 
Q 26.265625 48 22.1875 43.046875 
Q 18.109375 38.09375 18.109375 28.8125 
L 18.109375 0 
L 9.078125 0 
L 9.078125 54.6875 
L 18.109375 54.6875 
L 18.109375 46.1875 
Q 20.953125 51.171875 25.484375 53.578125 
Q 30.03125 56 36.53125 56 
Q 37.453125 56 38.578125 55.875 
Q 39.703125 55.765625 41.0625 55.515625 
z
" id="BitstreamVeraSans-Roman-72"/>
      <path d="M 18.109375 8.203125 
L 18.109375 -20.796875 
L 9.078125 -20.796875 
L 9.078125 54.6875 
L 18.109375 54.6875 
L 18.109375 46.390625 
Q 20.953125 51.265625 25.265625 53.625 
Q 29.59375 56 35.59375 56 
Q 45.5625 56 51.78125 48.09375 
Q 58.015625 40.1875 58.015625 27.296875 
Q 58.015625 14.40625 51.78125 6.484375 
Q 45.5625 -1.421875 35.59375 -1.421875 
Q 29.59375 -1.421875 25.265625 0.953125 
Q 20.953125 3.328125 18.109375 8.203125 
M 48.6875 27.296875 
Q 48.6875 37.203125 44.609375 42.84375 
Q 40.53125 48.484375 33.40625 48.484375 
Q 26.265625 48.484375 22.1875 42.84375 
Q 18.109375 37.203125 18.109375 27.296875 
Q 18.109375 17.390625 22.1875 11.75 
Q 26.265625 6.109375 33.40625 6.109375 
Q 40.53125 6.109375 44.609375 11.75 
Q 48.6875 17.390625 48.6875 27.296875 
" id="BitstreamVeraSans-Roman-70"/>
     </defs>
     <g transform="translate(22.396875 279.484467822)rotate(-90.0)scale(0.2 -0.2)">
      <use xlink:href="#BitstreamVeraSans-Roman-70"/>
      <use x="63.4765625" xlink:href="#BitstreamVeraSans-Roman-72"/>
      <use x="104.55859375" xlink:href="#BitstreamVeraSans-Roman-6f"/>
      <use x="165.740234375" xlink:href="#BitstreamVeraSans-Roman-70"/>
      <use x="229.216796875" xlink:href="#BitstreamVeraSans-Roman-6f"/>
      <use x="290.3984375" xlink:href="#BitstreamVeraSans-Roman-72"/>
      <use x="331.51171875" xlink:href="#BitstreamVeraSans-Roman-74"/>
      <use x="370.720703125" xlink:href="#BitstreamVeraSans-Roman-69"/>
      <use x="398.50390625" xlink:href="#BitstreamVeraSans-Roman-6f"/>
      <use x="459.685546875" xlink:href="#BitstreamVeraSans-Roman-6e"/>
      <use x="523.064453125" xlink:href="#BitstreamVeraSans-Roman-20"/>
      <use x="554.8515625" xlink:href="#BitstreamVeraSans-Roman-6f"/>
      <use x="616.033203125" xlink:href="#BitstreamVeraSans-Roman-66"/>
      <use x="651.23828125" xlink:href="#BitstreamVeraSans-Roman-20"/>
      <use x="683.025390625" xlink:href="#BitstreamVeraSans-Roman-74"/>
      <use x="722.234375" xlink:href="#BitstreamVeraSans-Roman-72"/>
      <use x="763.34765625" xlink:href="#BitstreamVeraSans-Roman-69"/>
      <use x="791.130859375" xlink:href="#BitstreamVeraSans-Roman-61"/>
      <use x="852.41015625" xlink:href="#BitstreamVeraSans-Roman-6c"/>
      <use x="880.193359375" xlink:href="#BitstreamVeraSans-Roman-73"/>
     </g>
    </g>
   </g>
   <g id="text_12">
    <!-- {f1-f5}, 5-D -->
    <defs>
     <path d="M 11.71875 12.40625 
L 22.015625 12.40625 
L 22.015625 4 
L 14.015625 -11.625 
L 7.71875 -11.625 
L 11.71875 4 
z
" id="BitstreamVeraSans-Roman-2c"/>
     <path d="M 12.5 -9.28125 
L 15.921875 -9.28125 
Q 22.75 -9.28125 24.828125 -7.171875 
Q 26.90625 -5.078125 26.90625 1.90625 
L 26.90625 14.015625 
Q 26.90625 21.625 29.09375 25.09375 
Q 31.296875 28.5625 36.71875 29.890625 
Q 31.296875 31.109375 29.09375 34.5625 
Q 26.90625 38.03125 26.90625 45.703125 
L 26.90625 57.8125 
Q 26.90625 64.75 24.828125 66.875 
Q 22.75 69 15.921875 69 
L 12.5 69 
L 12.5 75.984375 
L 15.578125 75.984375 
Q 27.734375 75.984375 31.8125 72.390625 
Q 35.890625 68.796875 35.890625 58.015625 
L 35.890625 46.296875 
Q 35.890625 39.015625 38.515625 36.203125 
Q 41.15625 33.40625 48.09375 33.40625 
L 51.125 33.40625 
L 51.125 26.421875 
L 48.09375 26.421875 
Q 41.15625 26.421875 38.515625 23.578125 
Q 35.890625 20.75 35.890625 13.375 
L 35.890625 1.703125 
Q 35.890625 -9.078125 31.8125 -12.6875 
Q 27.734375 -16.3125 15.578125 -16.3125 
L 12.5 -16.3125 
z
" id="BitstreamVeraSans-Roman-7d"/>
     <path d="M 51.125 -9.28125 
L 51.125 -16.3125 
L 48.09375 -16.3125 
Q 35.9375 -16.3125 31.8125 -12.6875 
Q 27.6875 -9.078125 27.6875 1.703125 
L 27.6875 13.375 
Q 27.6875 20.75 25.046875 23.578125 
Q 22.40625 26.421875 15.484375 26.421875 
L 12.5 26.421875 
L 12.5 33.40625 
L 15.484375 33.40625 
Q 22.46875 33.40625 25.078125 36.203125 
Q 27.6875 39.015625 27.6875 46.296875 
L 27.6875 58.015625 
Q 27.6875 68.796875 31.8125 72.390625 
Q 35.9375 75.984375 48.09375 75.984375 
L 51.125 75.984375 
L 51.125 69 
L 47.796875 69 
Q 40.921875 69 38.8125 66.84375 
Q 36.71875 64.703125 36.71875 57.8125 
L 36.71875 45.703125 
Q 36.71875 38.03125 34.5 34.5625 
Q 32.28125 31.109375 26.90625 29.890625 
Q 32.328125 28.5625 34.515625 25.09375 
Q 36.71875 21.625 36.71875 14.015625 
L 36.71875 1.90625 
Q 36.71875 -4.984375 38.8125 -7.125 
Q 40.921875 -9.28125 47.796875 -9.28125 
z
" id="BitstreamVeraSans-Roman-7b"/>
     <path d="M 4.890625 31.390625 
L 31.203125 31.390625 
L 31.203125 23.390625 
L 4.890625 23.390625 
z
" id="BitstreamVeraSans-Roman-2d"/>
     <path d="M 10.796875 72.90625 
L 49.515625 72.90625 
L 49.515625 64.59375 
L 19.828125 64.59375 
L 19.828125 46.734375 
Q 21.96875 47.46875 24.109375 47.828125 
Q 26.265625 48.1875 28.421875 48.1875 
Q 40.625 48.1875 47.75 41.5 
Q 54.890625 34.8125 54.890625 23.390625 
Q 54.890625 11.625 47.5625 5.09375 
Q 40.234375 -1.421875 26.90625 -1.421875 
Q 22.3125 -1.421875 17.546875 -0.640625 
Q 12.796875 0.140625 7.71875 1.703125 
L 7.71875 11.625 
Q 12.109375 9.234375 16.796875 8.0625 
Q 21.484375 6.890625 26.703125 6.890625 
Q 35.15625 6.890625 40.078125 11.328125 
Q 45.015625 15.765625 45.015625 23.390625 
Q 45.015625 31 40.078125 35.4375 
Q 35.15625 39.890625 26.703125 39.890625 
Q 22.75 39.890625 18.8125 39.015625 
Q 14.890625 38.140625 10.796875 36.28125 
z
" id="BitstreamVeraSans-Roman-35"/>
    </defs>
    <g transform="translate(230.4375 35.5652178218)scale(0.2 -0.2)">
     <use xlink:href="#BitstreamVeraSans-Roman-7b"/>
     <use x="63.623046875" xlink:href="#BitstreamVeraSans-Roman-66"/>
     <use x="98.828125" xlink:href="#BitstreamVeraSans-Roman-31"/>
     <use x="162.451171875" xlink:href="#BitstreamVeraSans-Roman-2d"/>
     <use x="198.53515625" xlink:href="#BitstreamVeraSans-Roman-66"/>
     <use x="233.740234375" xlink:href="#BitstreamVeraSans-Roman-35"/>
     <use x="297.36328125" xlink:href="#BitstreamVeraSans-Roman-7d"/>
     <use x="360.986328125" xlink:href="#BitstreamVeraSans-Roman-2c"/>
     <use x="392.7734375" xlink:href="#BitstreamVeraSans-Roman-20"/>
     <use x="424.560546875" xlink:href="#BitstreamVeraSans-Roman-35"/>
     <use x="488.18359375" xlink:href="#BitstreamVeraSans-Roman-2d"/>
     <use x="524.267578125" xlink:href="#BitstreamVeraSans-Roman-44"/>
    </g>
   </g>
   <g id="text_13">
    <!-- absolute targets -->
    <defs>
     <path d="M 56.203125 29.59375 
L 56.203125 25.203125 
L 14.890625 25.203125 
Q 15.484375 15.921875 20.484375 11.0625 
Q 25.484375 6.203125 34.421875 6.203125 
Q 39.59375 6.203125 44.453125 7.46875 
Q 49.3125 8.734375 54.109375 11.28125 
L 54.109375 2.78125 
Q 49.265625 0.734375 44.1875 -0.34375 
Q 39.109375 -1.421875 33.890625 -1.421875 
Q 20.796875 -1.421875 13.15625 6.1875 
Q 5.515625 13.8125 5.515625 26.8125 
Q 5.515625 40.234375 12.765625 48.109375 
Q 20.015625 56 32.328125 56 
Q 43.359375 56 49.78125 48.890625 
Q 56.203125 41.796875 56.203125 29.59375 
M 47.21875 32.234375 
Q 47.125 39.59375 43.09375 43.984375 
Q 39.0625 48.390625 32.421875 48.390625 
Q 24.90625 48.390625 20.390625 44.140625 
Q 15.875 39.890625 15.1875 32.171875 
z
" id="BitstreamVeraSans-Roman-65"/>
     <path d="M 8.5 21.578125 
L 8.5 54.6875 
L 17.484375 54.6875 
L 17.484375 21.921875 
Q 17.484375 14.15625 20.5 10.265625 
Q 23.53125 6.390625 29.59375 6.390625 
Q 36.859375 6.390625 41.078125 11.03125 
Q 45.3125 15.671875 45.3125 23.6875 
L 45.3125 54.6875 
L 54.296875 54.6875 
L 54.296875 0 
L 45.3125 0 
L 45.3125 8.40625 
Q 42.046875 3.421875 37.71875 1 
Q 33.40625 -1.421875 27.6875 -1.421875 
Q 18.265625 -1.421875 13.375 4.4375 
Q 8.5 10.296875 8.5 21.578125 
" id="BitstreamVeraSans-Roman-75"/>
     <path d="M 48.6875 27.296875 
Q 48.6875 37.203125 44.609375 42.84375 
Q 40.53125 48.484375 33.40625 48.484375 
Q 26.265625 48.484375 22.1875 42.84375 
Q 18.109375 37.203125 18.109375 27.296875 
Q 18.109375 17.390625 22.1875 11.75 
Q 26.265625 6.109375 33.40625 6.109375 
Q 40.53125 6.109375 44.609375 11.75 
Q 48.6875 17.390625 48.6875 27.296875 
M 18.109375 46.390625 
Q 20.953125 51.265625 25.265625 53.625 
Q 29.59375 56 35.59375 56 
Q 45.5625 56 51.78125 48.09375 
Q 58.015625 40.1875 58.015625 27.296875 
Q 58.015625 14.40625 51.78125 6.484375 
Q 45.5625 -1.421875 35.59375 -1.421875 
Q 29.59375 -1.421875 25.265625 0.953125 
Q 20.953125 3.328125 18.109375 8.203125 
L 18.109375 0 
L 9.078125 0 
L 9.078125 75.984375 
L 18.109375 75.984375 
z
" id="BitstreamVeraSans-Roman-62"/>
    </defs>
    <g transform="translate(67.3625 359.056342822)scale(0.14 -0.14)">
     <use xlink:href="#BitstreamVeraSans-Roman-61"/>
     <use x="61.279296875" xlink:href="#BitstreamVeraSans-Roman-62"/>
     <use x="124.755859375" xlink:href="#BitstreamVeraSans-Roman-73"/>
     <use x="176.85546875" xlink:href="#BitstreamVeraSans-Roman-6f"/>
     <use x="238.037109375" xlink:href="#BitstreamVeraSans-Roman-6c"/>
     <use x="265.8203125" xlink:href="#BitstreamVeraSans-Roman-75"/>
     <use x="329.19921875" xlink:href="#BitstreamVeraSans-Roman-74"/>
     <use x="368.408203125" xlink:href="#BitstreamVeraSans-Roman-65"/>
     <use x="429.931640625" xlink:href="#BitstreamVeraSans-Roman-20"/>
     <use x="461.71875" xlink:href="#BitstreamVeraSans-Roman-74"/>
     <use x="500.927734375" xlink:href="#BitstreamVeraSans-Roman-61"/>
     <use x="562.20703125" xlink:href="#BitstreamVeraSans-Roman-72"/>
     <use x="603.3046875" xlink:href="#BitstreamVeraSans-Roman-67"/>
     <use x="666.78125" xlink:href="#BitstreamVeraSans-Roman-65"/>
     <use x="728.3046875" xlink:href="#BitstreamVeraSans-Roman-74"/>
     <use x="767.513671875" xlink:href="#BitstreamVeraSans-Roman-73"/>
    </g>
   </g>
   <g id="text_14">
    <!-- 1.2.1.2 -->
    <g style="fill:#808080;" transform="translate(273.0703125 353.520655322)scale(0.1 -0.1)">
     <use xlink:href="#BitstreamVeraSans-Roman-31"/>
     <use x="63.623046875" xlink:href="#BitstreamVeraSans-Roman-2e"/>
     <use x="95.41015625" xlink:href="#BitstreamVeraSans-Roman-32"/>
     <use x="159.033203125" xlink:href="#BitstreamVeraSans-Roman-2e"/>
     <use x="190.8203125" xlink:href="#BitstreamVeraSans-Roman-31"/>
     <use x="254.443359375" xlink:href="#BitstreamVeraSans-Roman-2e"/>
     <use x="286.23046875" xlink:href="#BitstreamVeraSans-Roman-32"/>
    </g>
   </g>
   <g id="legend_1">
    <g id="patch_7">
     <path d="M 77.3625 146.881343 
L 214.584375 146.881343 
L 214.584375 23.456343 
L 77.3625 23.456343 
z
" style="fill:#ffffff;opacity:0.2;stroke:#000000;stroke-linejoin:miter;"/>
    </g>
    <g id="line2d_106">
     <path d="M 91.3625 39.653218 
L 119.3625 39.653218 
" style="fill:none;stroke:#000000;stroke-linecap:square;"/>
    </g>
    <g id="line2d_107"/>
    <g id="text_15">
     <!-- 1: 1/5 -->
     <defs>
      <path d="M 11.71875 12.40625 
L 22.015625 12.40625 
L 22.015625 0 
L 11.71875 0 
z
M 11.71875 51.703125 
L 22.015625 51.703125 
L 22.015625 39.3125 
L 11.71875 39.3125 
z
" id="BitstreamVeraSans-Roman-3a"/>
     </defs>
     <g transform="translate(141.3625 46.6532178218)scale(0.2 -0.2)">
      <use xlink:href="#BitstreamVeraSans-Roman-31"/>
      <use x="63.623046875" xlink:href="#BitstreamVeraSans-Roman-3a"/>
      <use x="97.314453125" xlink:href="#BitstreamVeraSans-Roman-20"/>
      <use x="129.1015625" xlink:href="#BitstreamVeraSans-Roman-31"/>
      <use x="192.724609375" xlink:href="#BitstreamVeraSans-Roman-2f"/>
      <use x="226.416015625" xlink:href="#BitstreamVeraSans-Roman-35"/>
     </g>
    </g>
    <g id="line2d_108">
     <path d="M 91.3625 69.009468 
L 119.3625 69.009468 
" style="fill:none;stroke:#00bfbf;stroke-linecap:square;"/>
    </g>
    <g id="line2d_109"/>
    <g id="text_16">
     <!-- -1: 0/5 -->
     <g transform="translate(141.3625 76.0094678218)scale(0.2 -0.2)">
      <use xlink:href="#BitstreamVeraSans-Roman-2d"/>
      <use x="36.083984375" xlink:href="#BitstreamVeraSans-Roman-31"/>
      <use x="99.70703125" xlink:href="#BitstreamVeraSans-Roman-3a"/>
      <use x="133.3984375" xlink:href="#BitstreamVeraSans-Roman-20"/>
      <use x="165.185546875" xlink:href="#BitstreamVeraSans-Roman-30"/>
      <use x="228.80859375" xlink:href="#BitstreamVeraSans-Roman-2f"/>
      <use x="262.5" xlink:href="#BitstreamVeraSans-Roman-35"/>
     </g>
    </g>
    <g id="line2d_110">
     <path d="M 91.3625 98.365718 
L 119.3625 98.365718 
" style="fill:none;stroke:#bf00bf;stroke-linecap:square;"/>
    </g>
    <g id="line2d_111"/>
    <g id="text_17">
     <!-- -4: 0/5 -->
     <g transform="translate(141.3625 105.365717822)scale(0.2 -0.2)">
      <use xlink:href="#BitstreamVeraSans-Roman-2d"/>
      <use x="36.083984375" xlink:href="#BitstreamVeraSans-Roman-34"/>
      <use x="99.70703125" xlink:href="#BitstreamVeraSans-Roman-3a"/>
      <use x="133.3984375" xlink:href="#BitstreamVeraSans-Roman-20"/>
      <use x="165.185546875" xlink:href="#BitstreamVeraSans-Roman-30"/>
      <use x="228.80859375" xlink:href="#BitstreamVeraSans-Roman-2f"/>
      <use x="262.5" xlink:href="#BitstreamVeraSans-Roman-35"/>
     </g>
    </g>
    <g id="line2d_112">
     <path d="M 91.3625 127.721968 
L 119.3625 127.721968 
" style="fill:none;stroke:#ff0000;stroke-linecap:square;stroke-width:3.0;"/>
    </g>
    <g id="line2d_113"/>
    <g id="text_18">
     <!-- -8: 0/5 -->
     <g transform="translate(141.3625 134.721967822)scale(0.2 -0.2)">
      <use xlink:href="#BitstreamVeraSans-Roman-2d"/>
      <use x="36.083984375" xlink:href="#BitstreamVeraSans-Roman-38"/>
      <use x="99.70703125" xlink:href="#BitstreamVeraSans-Roman-3a"/>
      <use x="133.3984375" xlink:href="#BitstreamVeraSans-Roman-20"/>
      <use x="165.185546875" xlink:href="#BitstreamVeraSans-Roman-30"/>
      <use x="228.80859375" xlink:href="#BitstreamVeraSans-Roman-2f"/>
      <use x="262.5" xlink:href="#BitstreamVeraSans-Roman-35"/>
     </g>
    </g>
   </g>
  </g>
 </g>
 <defs>
  <clipPath id="pa5eb1df482">
   <rect height="345.6" width="446.4" x="67.3625" y="13.4563428218"/>
  </clipPath>
 </defs>
</svg>
