<?xml version="1.0" encoding="utf-8" standalone="no"?>
<!DOCTYPE svg PUBLIC "-//W3C//DTD SVG 1.1//EN"
  "http://www.w3.org/Graphics/SVG/1.1/DTD/svg11.dtd">
<!-- Created with matplotlib (http://matplotlib.org/) -->
<svg height="407pt" version="1.1" viewBox="0 0 460 407" width="460pt" xmlns="http://www.w3.org/2000/svg" xmlns:xlink="http://www.w3.org/1999/xlink">
 <defs>
  <style type="text/css">
*{stroke-linecap:butt;stroke-linejoin:round;}
  </style>
 </defs>
 <g id="figure_1">
  <g id="patch_1">
   <path d="
M0 407.712
L460.8 407.712
L460.8 0
L0 0
z
" style="fill:#ffffff;"/>
  </g>
  <g id="axes_1">
   <g id="patch_2">
    <path d="
M7.2 352.8
L453.6 352.8
L453.6 7.2
L7.2 7.2
z
" style="fill:#ffffff;"/>
   </g>
   <g id="line2d_1">
    <path clip-path="url(#p99b4b0da67)" d="
M-32.2358 352.8
M-1 210.226
L-0.688859 210.226
L-0.688859 204.523
L-0.579758 204.523
L-0.579758 198.82
L-0.562533 198.82
L-0.562533 193.117
L0.158605 193.117
L0.158605 187.414
L0.298542 187.414
L0.298542 181.711
L0.528953 181.711
L0.528953 176.008
L0.636203 176.008
L0.636203 170.305
L0.686541 170.305
L0.686541 164.602
L1.00981 164.602
L1.00981 158.899
L1.02885 158.899
L1.02885 153.196
L1.35603 153.196
L1.35603 147.493
L1.50302 147.493
L1.50302 141.79
L1.66737 141.79
L1.66737 136.087
L1.77345 136.087
L1.77345 130.384
L1.97361 130.384
L1.97361 124.681
L2.3 124.681
L2.3 118.978
L2.8596 118.978
L2.8596 113.275
L2.93339 113.275
L2.93339 107.572
L3.60343 107.572
L3.60343 101.869
L3.79178 101.869
L3.79178 96.1663
L3.81794 96.1663
L3.81794 90.4634
L4.0491 90.4634
L4.0491 84.7604
L4.09865 84.7604
L4.09865 79.0574
L4.15001 79.0574
L4.15001 73.3545
L4.53434 73.3545
L4.53434 67.6515
L4.72478 67.6515
L4.72478 61.9485
L4.91084 61.9485
L4.91084 56.2455
L5.19373 56.2455
L5.19373 50.5426
L5.22436 50.5426
L5.22436 44.8396
L5.399 44.8396
L5.399 39.1366
L5.48602 39.1366
L5.48602 33.4337
L5.75216 33.4337
L5.75216 27.7307
L6.07047 27.7307
L6.07047 22.0277
L6.24891 22.0277
L6.24891 16.3248
L6.82728 16.3248
L6.82728 10.6218
L6.82728 10.6218
L6.82728 10.6218
L453.6 10.6218" style="fill:none;stroke:#ff0000;stroke-linecap:square;stroke-width:3.0;"/>
   </g>
   <g id="line2d_2">
    <path clip-path="url(#p99b4b0da67)" d="
M255.62 352.8
L255.62 347.097
L274.232 347.097
L274.232 341.394
L274.911 341.394
L274.911 335.691
L275.103 335.691
L275.103 329.988
L278.335 329.988
L278.335 324.285
L279.926 324.285
L279.926 318.582
L279.965 318.582
L279.965 312.879
L280.136 312.879
L280.136 307.176
L280.977 307.176
L280.977 301.473
L281.607 301.473
L281.607 295.77
L285.632 295.77
L285.632 290.067
L286.368 290.067
L286.368 284.364
L290.04 284.364
L290.04 278.661
L291.54 278.661
L291.54 272.958
L297.916 272.958
L297.916 267.255
L300.614 267.255
L300.614 261.552
L306.028 261.552
L306.028 255.85
L308.477 255.85
L308.477 250.147
L310.357 250.147
L310.357 244.444
L310.863 244.444
L310.863 238.741
L314.243 238.741
L314.243 233.038
L315.844 233.038
L315.844 227.335
L316.136 227.335
L316.136 221.632
L316.35 221.632
L316.35 215.929
L324.544 215.929
L324.544 210.226
L331.408 210.226
L331.408 204.523
L332.023 204.523
L332.023 198.82
L332.084 198.82
L332.084 193.117
L333.047 193.117
L333.047 187.414
L334.977 187.414
L334.977 181.711
L335.322 181.711
L335.322 176.008
L335.72 176.008
L335.72 170.305
L336.019 170.305
L336.019 164.602
L336.358 164.602
L336.358 158.899
L337.323 158.899
L337.323 153.196
L339.475 153.196
L339.475 147.493
L339.499 147.493
L339.499 141.79
L342.844 141.79
L342.844 136.087
L345.685 136.087
L345.685 130.384
L346.313 130.384
L346.313 124.681
L346.613 124.681
L346.613 118.978
L346.627 118.978
L346.627 113.275
L347.352 113.275
L347.352 107.572
L347.496 107.572
L347.496 101.869
L350.13 101.869
L350.13 96.1663
L350.286 96.1663
L350.286 90.4634
L350.517 90.4634
L350.517 84.7604
L350.567 84.7604
L350.567 79.0574
L351.179 79.0574
L351.179 73.3545
L353.323 73.3545
L353.323 67.6515
L361.177 67.6515
L361.177 61.9485
L361.261 61.9485
L361.261 56.2455
L362.363 56.2455
L362.363 50.5426
L365.355 50.5426
L365.355 44.8396
L367.642 44.8396
L367.642 39.1366
L368.42 39.1366
L368.42 33.4337
L368.719 33.4337
L368.719 27.7307
L372.41 27.7307
L372.41 22.0277
L375.508 22.0277
L375.508 16.3248
L375.627 16.3248
L375.627 10.6218
L375.627 10.6218
L375.627 10.6218
L453.6 10.6218" style="fill:none;stroke:#00bfbf;stroke-linecap:square;"/>
   </g>
   <g id="line2d_3">
    <path clip-path="url(#p99b4b0da67)" d="
M255.62 352.8
L255.62 347.097
L264.434 347.097
L264.434 341.394
L266.738 341.394
L266.738 335.691
L267.146 335.691
L267.146 329.988
L267.807 329.988
L267.807 324.285
L270.314 324.285
L270.314 318.582
L271.081 318.582
L271.081 312.879
L275.136 312.879
L275.136 307.176
L275.299 307.176
L275.299 301.473
L275.545 301.473
L275.545 295.77
L277.389 295.77
L277.389 290.067
L278.335 290.067
L278.335 284.364
L278.454 284.364
L278.454 278.661
L280.136 278.661
L280.136 272.958
L284.16 272.958
L284.16 267.255
L286.368 267.255
L286.368 261.552
L290.344 261.552
L290.344 255.85
L290.947 255.85
L290.947 250.147
L296.674 250.147
L296.674 244.444
L303.119 244.444
L303.119 238.741
L305.069 238.741
L305.069 233.038
L305.575 233.038
L305.575 227.335
L305.721 227.335
L305.721 221.632
L306.028 221.632
L306.028 215.929
L307.577 215.929
L307.577 210.226
L308.477 210.226
L308.477 204.523
L310.357 204.523
L310.357 198.82
L310.466 198.82
L310.466 193.117
L310.863 193.117
L310.863 187.414
L311.844 187.414
L311.844 181.711
L312.982 181.711
L312.982 176.008
L313.474 176.008
L313.474 170.305
L314.243 170.305
L314.243 164.602
L314.304 164.602
L314.304 158.899
L319.761 158.899
L319.761 153.196
L324.768 153.196
L324.768 147.493
L329.542 147.493
L329.542 141.79
L333.047 141.79
L333.047 136.087
L334.977 136.087
L334.977 130.384
L335.909 130.384
L335.909 124.681
L337.72 124.681
L337.72 118.978
L340.229 118.978
L340.229 113.275
L340.95 113.275
L340.95 107.572
L341.738 107.572
L341.738 101.869
L343.381 101.869
L343.381 96.1663
L345.042 96.1663
L345.042 90.4634
L345.914 90.4634
L345.914 84.7604
L349.58 84.7604
L349.58 79.0574
L350.286 79.0574
L350.286 73.3545
L351.179 73.3545
L351.179 67.6515
L355.202 67.6515
L355.202 61.9485
L356.055 61.9485
L356.055 56.2455
L360.894 56.2455
L360.894 50.5426
L361.261 50.5426
L361.261 44.8396
L367.642 44.8396
L367.642 39.1366
L368.42 39.1366
L368.42 33.4337
L368.719 33.4337
L368.719 27.7307
L372.41 27.7307
L372.41 22.0277
L373.803 22.0277
L373.803 16.3248
L375.627 16.3248
L375.627 10.6218
L375.627 10.6218
L375.627 10.6218
L453.6 10.6218" style="fill:none;stroke:#bf00bf;stroke-linecap:square;"/>
   </g>
   <g id="line2d_4">
    <path clip-path="url(#p99b4b0da67)" d="
M250.122 352.8
L250.122 347.097
L253.136 347.097
L253.136 341.394
L256.307 341.394
L256.307 335.691
L257.456 335.691
L257.456 329.988
L257.561 329.988
L257.561 324.285
L264.434 324.285
L264.434 318.582
L264.463 318.582
L264.463 312.879
L266.273 312.879
L266.273 307.176
L266.552 307.176
L266.552 301.473
L267.146 301.473
L267.146 295.77
L267.807 295.77
L267.807 290.067
L268.047 290.067
L268.047 284.364
L268.491 284.364
L268.491 278.661
L273.039 278.661
L273.039 272.958
L275.136 272.958
L275.136 267.255
L275.545 267.255
L275.545 261.552
L276.767 261.552
L276.767 255.85
L277.389 255.85
L277.389 250.147
L277.819 250.147
L277.819 244.444
L278.048 244.444
L278.048 238.741
L278.947 238.741
L278.947 233.038
L284.871 233.038
L284.871 227.335
L285.678 227.335
L285.678 221.632
L290.947 221.632
L290.947 215.929
L292.444 215.929
L292.444 210.226
L294.784 210.226
L294.784 204.523
L295.971 204.523
L295.971 198.82
L297.19 198.82
L297.19 193.117
L302.02 193.117
L302.02 187.414
L303.119 187.414
L303.119 181.711
L304.618 181.711
L304.618 176.008
L305.069 176.008
L305.069 170.305
L305.721 170.305
L305.721 164.602
L307.577 164.602
L307.577 158.899
L308.897 158.899
L308.897 153.196
L310.466 153.196
L310.466 147.493
L312.119 147.493
L312.119 141.79
L312.344 141.79
L312.344 136.087
L312.982 136.087
L312.982 130.384
L314.304 130.384
L314.304 124.681
L315.46 124.681
L315.46 118.978
L318.173 118.978
L318.173 113.275
L324.768 113.275
L324.768 107.572
L325.534 107.572
L325.534 101.869
L327.168 101.869
L327.168 96.1663
L327.867 96.1663
L327.867 90.4634
L329.691 90.4634
L329.691 84.7604
L330.47 84.7604
L330.47 79.0574
L331.861 79.0574
L331.861 73.3545
L332.996 73.3545
L332.996 67.6515
L335.422 67.6515
L335.422 61.9485
L337.889 61.9485
L337.889 56.2455
L341.611 56.2455
L341.611 50.5426
L347.05 50.5426
L347.05 44.8396
L347.972 44.8396
L347.972 39.1366
L358.952 39.1366
L358.952 33.4337
L359.441 33.4337
L359.441 27.7307
L362.399 27.7307
L362.399 22.0277
L364.899 22.0277
L364.899 16.3248
L366.232 16.3248
L366.232 10.6218
L366.232 10.6218
L366.232 10.6218
L453.6 10.6218" style="fill:none;stroke:#000000;stroke-linecap:square;"/>
   </g>
   <g id="line2d_5">
    <path clip-path="url(#p99b4b0da67)" d="
M241.994 352.8
L241.994 347.097
L244.712 347.097
L244.712 341.394
L245.656 341.394
L245.656 335.691
L248.461 335.691
L248.461 329.988
L248.633 329.988
L248.633 324.285
L249.181 324.285
L249.181 318.582
L249.885 318.582
L249.885 312.879
L250.122 312.879
L250.122 307.176
L250.406 307.176
L250.406 301.473
L251.167 301.473
L251.167 295.77
L251.453 295.77
L251.453 290.067
L255.227 290.067
L255.227 284.364
L256.712 284.364
L256.712 278.661
L257.456 278.661
L257.456 272.958
L257.537 272.958
L257.537 267.255
L257.561 267.255
L257.561 261.552
L259.224 261.552
L259.224 255.85
L260.257 255.85
L260.257 250.147
L260.324 250.147
L260.324 244.444
L263.575 244.444
L263.575 238.741
L263.647 238.741
L263.647 233.038
L264.337 233.038
L264.337 227.335
L268.047 227.335
L268.047 221.632
L271.162 221.632
L271.162 215.929
L271.483 215.929
L271.483 210.226
L272.964 210.226
L272.964 204.523
L273.093 204.523
L273.093 198.82
L273.209 198.82
L273.209 193.117
L273.79 193.117
L273.79 187.414
L273.864 187.414
L273.864 181.711
L274.218 181.711
L274.218 176.008
L275.225 176.008
L275.225 170.305
L275.545 170.305
L275.545 164.602
L277.029 164.602
L277.029 158.899
L279.359 158.899
L279.359 153.196
L281.645 153.196
L281.645 147.493
L281.756 147.493
L281.756 141.79
L283.282 141.79
L283.282 136.087
L284.871 136.087
L284.871 130.384
L287.152 130.384
L287.152 124.681
L287.818 124.681
L287.818 118.978
L287.833 118.978
L287.833 113.275
L288.176 113.275
L288.176 107.572
L289.05 107.572
L289.05 101.869
L289.78 101.869
L289.78 96.1663
L290.507 96.1663
L290.507 90.4634
L290.947 90.4634
L290.947 84.7604
L292.823 84.7604
L292.823 79.0574
L292.936 79.0574
L292.936 73.3545
L297.19 73.3545
L297.19 67.6515
L297.793 67.6515
L297.793 61.9485
L298.661 61.9485
L298.661 56.2455
L299.799 56.2455
L299.799 50.5426
L299.858 50.5426
L299.858 44.8396
L302.34 44.8396
L302.34 39.1366
L310.719 39.1366
L310.719 33.4337
L314.695 33.4337
L314.695 27.7307
L318.906 27.7307
L318.906 22.0277
L320.79 22.0277
L320.79 16.3248
L335.95 16.3248
L335.95 10.6218
L335.95 10.6218
L335.95 10.6218
L453.6 10.6218" style="fill:none;stroke:#00bfbf;stroke-linecap:square;"/>
   </g>
   <g id="line2d_6">
    <path clip-path="url(#p99b4b0da67)" d="
M3.60343 352.8
L3.60343 347.097
L50.7848 347.097
L50.7848 341.394
L167.878 341.394
L167.878 335.691
L168.305 335.691
L168.305 329.988
L174.808 329.988
L174.808 324.285
L175.144 324.285
L175.144 318.582
L177.705 318.582
L177.705 312.879
L184.752 312.879
L184.752 307.176
L186.613 307.176
L186.613 301.473
L193.986 301.473
L193.986 295.77
L199.728 295.77
L199.728 290.067
L202.825 290.067
L202.825 284.364
L206.545 284.364
L206.545 278.661
L207.435 278.661
L207.435 272.958
L211.067 272.958
L211.067 267.255
L213.487 267.255
L213.487 261.552
L213.49 261.552
L213.49 255.85
L213.62 255.85
L213.62 250.147
L213.969 250.147
L213.969 244.444
L216.315 244.444
L216.315 238.741
L216.672 238.741
L216.672 233.038
L219.398 233.038
L219.398 227.335
L219.595 227.335
L219.595 221.632
L219.736 221.632
L219.736 215.929
L219.775 215.929
L219.775 210.226
L220.504 210.226
L220.504 204.523
L221.079 204.523
L221.079 198.82
L221.274 198.82
L221.274 193.117
L221.377 193.117
L221.377 187.414
L221.486 187.414
L221.486 181.711
L223.395 181.711
L223.395 176.008
L224.69 176.008
L224.69 170.305
L224.974 170.305
L224.974 164.602
L226.129 164.602
L226.129 158.899
L226.195 158.899
L226.195 153.196
L226.614 153.196
L226.614 147.493
L227.03 147.493
L227.03 141.79
L227.068 141.79
L227.068 136.087
L227.991 136.087
L227.991 130.384
L228.214 130.384
L228.214 124.681
L228.404 124.681
L228.404 118.978
L228.934 118.978
L228.934 113.275
L229.06 113.275
L229.06 107.572
L229.248 107.572
L229.248 101.869
L229.374 101.869
L229.374 96.1663
L229.685 96.1663
L229.685 90.4634
L230.089 90.4634
L230.089 84.7604
L230.292 84.7604
L230.292 79.0574
L230.706 79.0574
L230.706 73.3545
L230.939 73.3545
L230.939 67.6515
L230.986 67.6515
L230.986 61.9485
L231.583 61.9485
L231.583 56.2455
L233.178 56.2455
L233.178 50.5426
L233.349 50.5426
L233.349 44.8396
L233.77 44.8396
L233.77 39.1366
L234.089 39.1366
L234.089 33.4337
L234.192 33.4337
L234.192 27.7307
L234.578 27.7307
L234.578 22.0277
L238.773 22.0277
L238.773 16.3248
L273.082 16.3248
L273.082 10.6218
L273.082 10.6218
L273.082 10.6218
L453.6 10.6218" style="fill:none;stroke:#bf00bf;stroke-linecap:square;"/>
   </g>
   <g id="line2d_7">
    <path clip-path="url(#p99b4b0da67)" d="
M-32.2358 352.8
M-1 221.632
L-0.688859 221.632
L-0.688859 215.929
L-0.579758 215.929
L-0.579758 210.226
L-0.562533 210.226
L-0.562533 204.523
L0.158605 204.523
L0.158605 198.82
L0.298542 198.82
L0.298542 193.117
L0.528953 193.117
L0.528953 187.414
L0.636203 187.414
L0.636203 181.711
L0.686541 181.711
L0.686541 176.008
L1.00981 176.008
L1.00981 170.305
L1.02885 170.305
L1.02885 164.602
L1.35603 164.602
L1.35603 158.899
L1.50302 158.899
L1.50302 153.196
L1.66737 153.196
L1.66737 147.493
L1.77345 147.493
L1.77345 141.79
L1.97361 141.79
L1.97361 136.087
L2.3 136.087
L2.3 130.384
L2.8596 130.384
L2.8596 124.681
L2.93339 124.681
L2.93339 118.978
L3.60343 118.978
L3.60343 113.275
L3.79178 113.275
L3.79178 107.572
L3.81794 107.572
L3.81794 101.869
L4.0491 101.869
L4.0491 96.1663
L4.09865 96.1663
L4.09865 90.4634
L4.15001 90.4634
L4.15001 84.7604
L4.53434 84.7604
L4.53434 79.0574
L4.72478 79.0574
L4.72478 73.3545
L4.91084 73.3545
L4.91084 67.6515
L5.19373 67.6515
L5.19373 61.9485
L5.22436 61.9485
L5.22436 56.2455
L5.399 56.2455
L5.399 50.5426
L5.48602 50.5426
L5.48602 44.8396
L5.75216 44.8396
L5.75216 39.1366
L6.07047 39.1366
L6.07047 33.4337
L6.24891 33.4337
L6.24891 27.7307
L6.82728 27.7307
L6.82728 22.0277
L21.3807 22.0277
L21.3807 16.3248
L124.522 16.3248
L124.522 10.6218
L124.522 10.6218
L124.522 10.6218
L453.6 10.6218" style="fill:none;stroke:#000000;stroke-linecap:square;"/>
   </g>
   <g id="patch_3">
    <path d="
M7.2 7.2
L453.6 7.2" style="fill:none;stroke:#000000;stroke-linecap:square;stroke-linejoin:miter;"/>
   </g>
   <g id="patch_4">
    <path d="
M453.6 352.8
L453.6 7.2" style="fill:none;stroke:#000000;stroke-linecap:square;stroke-linejoin:miter;"/>
   </g>
   <g id="patch_5">
    <path d="
M7.2 352.8
L453.6 352.8" style="fill:none;stroke:#000000;stroke-linecap:square;stroke-linejoin:miter;"/>
   </g>
   <g id="patch_6">
    <path d="
M7.2 352.8
L7.2 7.2" style="fill:none;stroke:#000000;stroke-linecap:square;stroke-linejoin:miter;"/>
   </g>
   <g id="matplotlib.axis_1">
    <g id="xtick_1"/>
    <g id="xtick_2">
     <g id="line2d_8">
      <path clip-path="url(#p99b4b0da67)" d="
M59.6175 352.8
L59.6175 7.2" style="fill:none;stroke:#000000;stroke-dasharray:1.000000,3.000000;stroke-dashoffset:0.0;stroke-width:0.5;"/>
     </g>
     <g id="line2d_9">
      <defs>
       <path d="
M0 0
L0 -4" id="m93b0483c22" style="stroke:#000000;stroke-width:0.5;"/>
      </defs>
      <g>
       <use style="stroke:#000000;stroke-width:0.5;" x="59.6174973142" xlink:href="#m93b0483c22" y="352.8"/>
      </g>
     </g>
     <g id="line2d_10">
      <defs>
       <path d="
M0 0
L0 4" id="m741efc42ff" style="stroke:#000000;stroke-width:0.5;"/>
      </defs>
      <g>
       <use style="stroke:#000000;stroke-width:0.5;" x="59.6174973142" xlink:href="#m741efc42ff" y="7.2"/>
      </g>
     </g>
     <g id="text_1">
      <!-- -6 -->
      <defs>
       <path d="
M33.0156 40.375
Q26.375 40.375 22.4844 35.8281
Q18.6094 31.2969 18.6094 23.3906
Q18.6094 15.5312 22.4844 10.9531
Q26.375 6.39062 33.0156 6.39062
Q39.6562 6.39062 43.5312 10.9531
Q47.4062 15.5312 47.4062 23.3906
Q47.4062 31.2969 43.5312 35.8281
Q39.6562 40.375 33.0156 40.375
M52.5938 71.2969
L52.5938 62.3125
Q48.875 64.0625 45.0938 64.9844
Q41.3125 65.9219 37.5938 65.9219
Q27.8281 65.9219 22.6719 59.3281
Q17.5312 52.7344 16.7969 39.4062
Q19.6719 43.6562 24.0156 45.9219
Q28.375 48.1875 33.5938 48.1875
Q44.5781 48.1875 50.9531 41.5156
Q57.3281 34.8594 57.3281 23.3906
Q57.3281 12.1562 50.6875 5.35938
Q44.0469 -1.42188 33.0156 -1.42188
Q20.3594 -1.42188 13.6719 8.26562
Q6.98438 17.9688 6.98438 36.375
Q6.98438 53.6562 15.1875 63.9375
Q23.3906 74.2188 37.2031 74.2188
Q40.9219 74.2188 44.7031 73.4844
Q48.4844 72.75 52.5938 71.2969" id="BitstreamVeraSans-Roman-36"/>
       <path d="
M4.89062 31.3906
L31.2031 31.3906
L31.2031 23.3906
L4.89062 23.3906
z
" id="BitstreamVeraSans-Roman-2d"/>
      </defs>
      <g transform="translate(50.7659348142 371.996875)scale(0.2 -0.2)">
       <use xlink:href="#BitstreamVeraSans-Roman-2d"/>
       <use x="36.083984375" xlink:href="#BitstreamVeraSans-Roman-36"/>
      </g>
     </g>
    </g>
    <g id="xtick_3">
     <g id="line2d_11">
      <path clip-path="url(#p99b4b0da67)" d="
M112.148 352.8
L112.148 7.2" style="fill:none;stroke:#000000;stroke-dasharray:1.000000,3.000000;stroke-dashoffset:0.0;stroke-width:0.5;"/>
     </g>
     <g id="line2d_12">
      <g>
       <use style="stroke:#000000;stroke-width:0.5;" x="112.148497672" xlink:href="#m93b0483c22" y="352.8"/>
      </g>
     </g>
     <g id="line2d_13">
      <g>
       <use style="stroke:#000000;stroke-width:0.5;" x="112.148497672" xlink:href="#m741efc42ff" y="7.2"/>
      </g>
     </g>
     <g id="text_2">
      <!-- -4 -->
      <defs>
       <path d="
M37.7969 64.3125
L12.8906 25.3906
L37.7969 25.3906
z

M35.2031 72.9062
L47.6094 72.9062
L47.6094 25.3906
L58.0156 25.3906
L58.0156 17.1875
L47.6094 17.1875
L47.6094 0
L37.7969 0
L37.7969 17.1875
L4.89062 17.1875
L4.89062 26.7031
z
" id="BitstreamVeraSans-Roman-34"/>
      </defs>
      <g transform="translate(103.228185172 371.996875)scale(0.2 -0.2)">
       <use xlink:href="#BitstreamVeraSans-Roman-2d"/>
       <use x="36.083984375" xlink:href="#BitstreamVeraSans-Roman-34"/>
      </g>
     </g>
    </g>
    <g id="xtick_4">
     <g id="line2d_14">
      <path clip-path="url(#p99b4b0da67)" d="
M164.679 352.8
L164.679 7.2" style="fill:none;stroke:#000000;stroke-dasharray:1.000000,3.000000;stroke-dashoffset:0.0;stroke-width:0.5;"/>
     </g>
     <g id="line2d_15">
      <g>
       <use style="stroke:#000000;stroke-width:0.5;" x="164.67949803" xlink:href="#m93b0483c22" y="352.8"/>
      </g>
     </g>
     <g id="line2d_16">
      <g>
       <use style="stroke:#000000;stroke-width:0.5;" x="164.67949803" xlink:href="#m741efc42ff" y="7.2"/>
      </g>
     </g>
     <g id="text_3">
      <!-- -2 -->
      <defs>
       <path d="
M19.1875 8.29688
L53.6094 8.29688
L53.6094 0
L7.32812 0
L7.32812 8.29688
Q12.9375 14.1094 22.625 23.8906
Q32.3281 33.6875 34.8125 36.5312
Q39.5469 41.8438 41.4219 45.5312
Q43.3125 49.2188 43.3125 52.7812
Q43.3125 58.5938 39.2344 62.25
Q35.1562 65.9219 28.6094 65.9219
Q23.9688 65.9219 18.8125 64.3125
Q13.6719 62.7031 7.8125 59.4219
L7.8125 69.3906
Q13.7656 71.7812 18.9375 73
Q24.125 74.2188 28.4219 74.2188
Q39.75 74.2188 46.4844 68.5469
Q53.2188 62.8906 53.2188 53.4219
Q53.2188 48.9219 51.5312 44.8906
Q49.8594 40.875 45.4062 35.4062
Q44.1875 33.9844 37.6406 27.2188
Q31.1094 20.4531 19.1875 8.29688" id="BitstreamVeraSans-Roman-32"/>
      </defs>
      <g transform="translate(156.19981053 371.996875)scale(0.2 -0.2)">
       <use xlink:href="#BitstreamVeraSans-Roman-2d"/>
       <use x="36.083984375" xlink:href="#BitstreamVeraSans-Roman-32"/>
      </g>
     </g>
    </g>
    <g id="xtick_5">
     <g id="line2d_17">
      <path clip-path="url(#p99b4b0da67)" d="
M217.21 352.8
L217.21 7.2" style="fill:none;stroke:#000000;stroke-dasharray:1.000000,3.000000;stroke-dashoffset:0.0;stroke-width:0.5;"/>
     </g>
     <g id="line2d_18">
      <g>
       <use style="stroke:#000000;stroke-width:0.5;" x="217.210498389" xlink:href="#m93b0483c22" y="352.8"/>
      </g>
     </g>
     <g id="line2d_19">
      <g>
       <use style="stroke:#000000;stroke-width:0.5;" x="217.210498389" xlink:href="#m741efc42ff" y="7.2"/>
      </g>
     </g>
     <g id="text_4">
      <!-- 0 -->
      <defs>
       <path d="
M31.7812 66.4062
Q24.1719 66.4062 20.3281 58.9062
Q16.5 51.4219 16.5 36.375
Q16.5 21.3906 20.3281 13.8906
Q24.1719 6.39062 31.7812 6.39062
Q39.4531 6.39062 43.2812 13.8906
Q47.125 21.3906 47.125 36.375
Q47.125 51.4219 43.2812 58.9062
Q39.4531 66.4062 31.7812 66.4062
M31.7812 74.2188
Q44.0469 74.2188 50.5156 64.5156
Q56.9844 54.8281 56.9844 36.375
Q56.9844 17.9688 50.5156 8.26562
Q44.0469 -1.42188 31.7812 -1.42188
Q19.5312 -1.42188 13.0625 8.26562
Q6.59375 17.9688 6.59375 36.375
Q6.59375 54.8281 13.0625 64.5156
Q19.5312 74.2188 31.7812 74.2188" id="BitstreamVeraSans-Roman-30"/>
      </defs>
      <g transform="translate(212.171435889 371.996875)scale(0.2 -0.2)">
       <use xlink:href="#BitstreamVeraSans-Roman-30"/>
      </g>
     </g>
    </g>
    <g id="xtick_6">
     <g id="line2d_20">
      <path clip-path="url(#p99b4b0da67)" d="
M269.741 352.8
L269.741 7.2" style="fill:none;stroke:#000000;stroke-dasharray:1.000000,3.000000;stroke-dashoffset:0.0;stroke-width:0.5;"/>
     </g>
     <g id="line2d_21">
      <g>
       <use style="stroke:#000000;stroke-width:0.5;" x="269.741498747" xlink:href="#m93b0483c22" y="352.8"/>
      </g>
     </g>
     <g id="line2d_22">
      <g>
       <use style="stroke:#000000;stroke-width:0.5;" x="269.741498747" xlink:href="#m741efc42ff" y="7.2"/>
      </g>
     </g>
     <g id="text_5">
      <!-- 2 -->
      <g transform="translate(265.113373747 371.996875)scale(0.2 -0.2)">
       <use xlink:href="#BitstreamVeraSans-Roman-32"/>
      </g>
     </g>
    </g>
    <g id="xtick_7">
     <g id="line2d_23">
      <path clip-path="url(#p99b4b0da67)" d="
M322.272 352.8
L322.272 7.2" style="fill:none;stroke:#000000;stroke-dasharray:1.000000,3.000000;stroke-dashoffset:0.0;stroke-width:0.5;"/>
     </g>
     <g id="line2d_24">
      <g>
       <use style="stroke:#000000;stroke-width:0.5;" x="322.272499105" xlink:href="#m93b0483c22" y="352.8"/>
      </g>
     </g>
     <g id="line2d_25">
      <g>
       <use style="stroke:#000000;stroke-width:0.5;" x="322.272499105" xlink:href="#m741efc42ff" y="7.2"/>
      </g>
     </g>
     <g id="text_6">
      <!-- 4 -->
      <g transform="translate(316.959999105 371.996875)scale(0.2 -0.2)">
       <use xlink:href="#BitstreamVeraSans-Roman-34"/>
      </g>
     </g>
    </g>
    <g id="xtick_8">
     <g id="line2d_26">
      <path clip-path="url(#p99b4b0da67)" d="
M374.803 352.8
L374.803 7.2" style="fill:none;stroke:#000000;stroke-dasharray:1.000000,3.000000;stroke-dashoffset:0.0;stroke-width:0.5;"/>
     </g>
     <g id="line2d_27">
      <g>
       <use style="stroke:#000000;stroke-width:0.5;" x="374.803499463" xlink:href="#m93b0483c22" y="352.8"/>
      </g>
     </g>
     <g id="line2d_28">
      <g>
       <use style="stroke:#000000;stroke-width:0.5;" x="374.803499463" xlink:href="#m741efc42ff" y="7.2"/>
      </g>
     </g>
     <g id="text_7">
      <!-- 6 -->
      <g transform="translate(369.769124463 371.996875)scale(0.2 -0.2)">
       <use xlink:href="#BitstreamVeraSans-Roman-36"/>
      </g>
     </g>
    </g>
    <g id="xtick_9">
     <g id="line2d_29">
      <path clip-path="url(#p99b4b0da67)" d="
M427.334 352.8
L427.334 7.2" style="fill:none;stroke:#000000;stroke-dasharray:1.000000,3.000000;stroke-dashoffset:0.0;stroke-width:0.5;"/>
     </g>
     <g id="line2d_30">
      <g>
       <use style="stroke:#000000;stroke-width:0.5;" x="427.334499821" xlink:href="#m93b0483c22" y="352.8"/>
      </g>
     </g>
     <g id="line2d_31">
      <g>
       <use style="stroke:#000000;stroke-width:0.5;" x="427.334499821" xlink:href="#m741efc42ff" y="7.2"/>
      </g>
     </g>
     <g id="text_8">
      <!-- 8 -->
      <defs>
       <path d="
M31.7812 34.625
Q24.75 34.625 20.7188 30.8594
Q16.7031 27.0938 16.7031 20.5156
Q16.7031 13.9219 20.7188 10.1562
Q24.75 6.39062 31.7812 6.39062
Q38.8125 6.39062 42.8594 10.1719
Q46.9219 13.9688 46.9219 20.5156
Q46.9219 27.0938 42.8906 30.8594
Q38.875 34.625 31.7812 34.625
M21.9219 38.8125
Q15.5781 40.375 12.0312 44.7188
Q8.5 49.0781 8.5 55.3281
Q8.5 64.0625 14.7188 69.1406
Q20.9531 74.2188 31.7812 74.2188
Q42.6719 74.2188 48.875 69.1406
Q55.0781 64.0625 55.0781 55.3281
Q55.0781 49.0781 51.5312 44.7188
Q48 40.375 41.7031 38.8125
Q48.8281 37.1562 52.7969 32.3125
Q56.7812 27.4844 56.7812 20.5156
Q56.7812 9.90625 50.3125 4.23438
Q43.8438 -1.42188 31.7812 -1.42188
Q19.7344 -1.42188 13.25 4.23438
Q6.78125 9.90625 6.78125 20.5156
Q6.78125 27.4844 10.7812 32.3125
Q14.7969 37.1562 21.9219 38.8125
M18.3125 54.3906
Q18.3125 48.7344 21.8438 45.5625
Q25.3906 42.3906 31.7812 42.3906
Q38.1406 42.3906 41.7188 45.5625
Q45.3125 48.7344 45.3125 54.3906
Q45.3125 60.0625 41.7188 63.2344
Q38.1406 66.4062 31.7812 66.4062
Q25.3906 66.4062 21.8438 63.2344
Q18.3125 60.0625 18.3125 54.3906" id="BitstreamVeraSans-Roman-38"/>
      </defs>
      <g transform="translate(422.334499821 371.996875)scale(0.2 -0.2)">
       <use xlink:href="#BitstreamVeraSans-Roman-38"/>
      </g>
     </g>
    </g>
    <g id="xtick_10"/>
    <g id="xtick_11">
     <g id="line2d_32">
      <defs>
       <path d="
M0 0
L0 -2" id="m177f7580d0" style="stroke:#000000;stroke-width:0.5;"/>
      </defs>
      <g>
       <use style="stroke:#000000;stroke-width:0.5;" x="59.6174973142" xlink:href="#m177f7580d0" y="352.8"/>
      </g>
     </g>
     <g id="line2d_33">
      <defs>
       <path d="
M0 0
L0 2" id="m5284c7e2a0" style="stroke:#000000;stroke-width:0.5;"/>
      </defs>
      <g>
       <use style="stroke:#000000;stroke-width:0.5;" x="59.6174973142" xlink:href="#m5284c7e2a0" y="7.2"/>
      </g>
     </g>
    </g>
    <g id="xtick_12">
     <g id="line2d_34">
      <g>
       <use style="stroke:#000000;stroke-width:0.5;" x="112.148497672" xlink:href="#m177f7580d0" y="352.8"/>
      </g>
     </g>
     <g id="line2d_35">
      <g>
       <use style="stroke:#000000;stroke-width:0.5;" x="112.148497672" xlink:href="#m5284c7e2a0" y="7.2"/>
      </g>
     </g>
    </g>
    <g id="xtick_13">
     <g id="line2d_36">
      <g>
       <use style="stroke:#000000;stroke-width:0.5;" x="164.67949803" xlink:href="#m177f7580d0" y="352.8"/>
      </g>
     </g>
     <g id="line2d_37">
      <g>
       <use style="stroke:#000000;stroke-width:0.5;" x="164.67949803" xlink:href="#m5284c7e2a0" y="7.2"/>
      </g>
     </g>
    </g>
    <g id="xtick_14">
     <g id="line2d_38">
      <g>
       <use style="stroke:#000000;stroke-width:0.5;" x="217.210498389" xlink:href="#m177f7580d0" y="352.8"/>
      </g>
     </g>
     <g id="line2d_39">
      <g>
       <use style="stroke:#000000;stroke-width:0.5;" x="217.210498389" xlink:href="#m5284c7e2a0" y="7.2"/>
      </g>
     </g>
    </g>
    <g id="xtick_15">
     <g id="line2d_40">
      <g>
       <use style="stroke:#000000;stroke-width:0.5;" x="269.741498747" xlink:href="#m177f7580d0" y="352.8"/>
      </g>
     </g>
     <g id="line2d_41">
      <g>
       <use style="stroke:#000000;stroke-width:0.5;" x="269.741498747" xlink:href="#m5284c7e2a0" y="7.2"/>
      </g>
     </g>
    </g>
    <g id="xtick_16">
     <g id="line2d_42">
      <g>
       <use style="stroke:#000000;stroke-width:0.5;" x="322.272499105" xlink:href="#m177f7580d0" y="352.8"/>
      </g>
     </g>
     <g id="line2d_43">
      <g>
       <use style="stroke:#000000;stroke-width:0.5;" x="322.272499105" xlink:href="#m5284c7e2a0" y="7.2"/>
      </g>
     </g>
    </g>
    <g id="xtick_17">
     <g id="line2d_44">
      <g>
       <use style="stroke:#000000;stroke-width:0.5;" x="374.803499463" xlink:href="#m177f7580d0" y="352.8"/>
      </g>
     </g>
     <g id="line2d_45">
      <g>
       <use style="stroke:#000000;stroke-width:0.5;" x="374.803499463" xlink:href="#m5284c7e2a0" y="7.2"/>
      </g>
     </g>
    </g>
    <g id="xtick_18">
     <g id="line2d_46">
      <g>
       <use style="stroke:#000000;stroke-width:0.5;" x="427.334499821" xlink:href="#m177f7580d0" y="352.8"/>
      </g>
     </g>
     <g id="line2d_47">
      <g>
       <use style="stroke:#000000;stroke-width:0.5;" x="427.334499821" xlink:href="#m5284c7e2a0" y="7.2"/>
      </g>
     </g>
    </g>
    <g id="text_9">
     <!-- log10 of Df -->
     <defs>
      <path id="BitstreamVeraSans-Roman-20"/>
      <path d="
M12.4062 8.29688
L28.5156 8.29688
L28.5156 63.9219
L10.9844 60.4062
L10.9844 69.3906
L28.4219 72.9062
L38.2812 72.9062
L38.2812 8.29688
L54.3906 8.29688
L54.3906 0
L12.4062 0
z
" id="BitstreamVeraSans-Roman-31"/>
      <path d="
M30.6094 48.3906
Q23.3906 48.3906 19.1875 42.75
Q14.9844 37.1094 14.9844 27.2969
Q14.9844 17.4844 19.1562 11.8438
Q23.3438 6.20312 30.6094 6.20312
Q37.7969 6.20312 41.9844 11.8594
Q46.1875 17.5312 46.1875 27.2969
Q46.1875 37.0156 41.9844 42.7031
Q37.7969 48.3906 30.6094 48.3906
M30.6094 56
Q42.3281 56 49.0156 48.375
Q55.7188 40.7656 55.7188 27.2969
Q55.7188 13.875 49.0156 6.21875
Q42.3281 -1.42188 30.6094 -1.42188
Q18.8438 -1.42188 12.1719 6.21875
Q5.51562 13.875 5.51562 27.2969
Q5.51562 40.7656 12.1719 48.375
Q18.8438 56 30.6094 56" id="BitstreamVeraSans-Roman-6f"/>
      <path d="
M9.42188 75.9844
L18.4062 75.9844
L18.4062 0
L9.42188 0
z
" id="BitstreamVeraSans-Roman-6c"/>
      <path d="
M19.6719 64.7969
L19.6719 8.10938
L31.5938 8.10938
Q46.6875 8.10938 53.6875 14.9375
Q60.6875 21.7812 60.6875 36.5312
Q60.6875 51.1719 53.6875 57.9844
Q46.6875 64.7969 31.5938 64.7969
z

M9.8125 72.9062
L30.0781 72.9062
Q51.2656 72.9062 61.1719 64.0938
Q71.0938 55.2812 71.0938 36.5312
Q71.0938 17.6719 61.125 8.82812
Q51.1719 0 30.0781 0
L9.8125 0
z
" id="BitstreamVeraSans-Roman-44"/>
      <path d="
M45.4062 27.9844
Q45.4062 37.75 41.375 43.1094
Q37.3594 48.4844 30.0781 48.4844
Q22.8594 48.4844 18.8281 43.1094
Q14.7969 37.75 14.7969 27.9844
Q14.7969 18.2656 18.8281 12.8906
Q22.8594 7.51562 30.0781 7.51562
Q37.3594 7.51562 41.375 12.8906
Q45.4062 18.2656 45.4062 27.9844
M54.3906 6.78125
Q54.3906 -7.17188 48.1875 -13.9844
Q42 -20.7969 29.2031 -20.7969
Q24.4688 -20.7969 20.2656 -20.0938
Q16.0625 -19.3906 12.1094 -17.9219
L12.1094 -9.1875
Q16.0625 -11.3281 19.9219 -12.3438
Q23.7812 -13.375 27.7812 -13.375
Q36.625 -13.375 41.0156 -8.76562
Q45.4062 -4.15625 45.4062 5.17188
L45.4062 9.625
Q42.625 4.78125 38.2812 2.39062
Q33.9375 0 27.875 0
Q17.8281 0 11.6719 7.65625
Q5.51562 15.3281 5.51562 27.9844
Q5.51562 40.6719 11.6719 48.3281
Q17.8281 56 27.875 56
Q33.9375 56 38.2812 53.6094
Q42.625 51.2188 45.4062 46.3906
L45.4062 54.6875
L54.3906 54.6875
z
" id="BitstreamVeraSans-Roman-67"/>
      <path d="
M37.1094 75.9844
L37.1094 68.5
L28.5156 68.5
Q23.6875 68.5 21.7969 66.5469
Q19.9219 64.5938 19.9219 59.5156
L19.9219 54.6875
L34.7188 54.6875
L34.7188 47.7031
L19.9219 47.7031
L19.9219 0
L10.8906 0
L10.8906 47.7031
L2.29688 47.7031
L2.29688 54.6875
L10.8906 54.6875
L10.8906 58.5
Q10.8906 67.625 15.1406 71.7969
Q19.3906 75.9844 28.6094 75.9844
z
" id="BitstreamVeraSans-Roman-66"/>
     </defs>
     <g transform="translate(175.0234375 396.353125)scale(0.2 -0.2)">
      <use xlink:href="#BitstreamVeraSans-Roman-6c"/>
      <use x="27.783203125" xlink:href="#BitstreamVeraSans-Roman-6f"/>
      <use x="88.96484375" xlink:href="#BitstreamVeraSans-Roman-67"/>
      <use x="152.44140625" xlink:href="#BitstreamVeraSans-Roman-31"/>
      <use x="216.064453125" xlink:href="#BitstreamVeraSans-Roman-30"/>
      <use x="279.6875" xlink:href="#BitstreamVeraSans-Roman-20"/>
      <use x="311.474609375" xlink:href="#BitstreamVeraSans-Roman-6f"/>
      <use x="372.65625" xlink:href="#BitstreamVeraSans-Roman-66"/>
      <use x="407.861328125" xlink:href="#BitstreamVeraSans-Roman-20"/>
      <use x="439.6484375" xlink:href="#BitstreamVeraSans-Roman-44"/>
      <use x="516.650390625" xlink:href="#BitstreamVeraSans-Roman-66"/>
     </g>
    </g>
   </g>
   <g id="matplotlib.axis_2">
    <g id="ytick_1">
     <g id="line2d_48">
      <path clip-path="url(#p99b4b0da67)" d="
M7.2 352.8
L453.6 352.8" style="fill:none;stroke:#000000;stroke-dasharray:1.000000,3.000000;stroke-dashoffset:0.0;stroke-width:0.5;"/>
     </g>
     <g id="line2d_49">
      <defs>
       <path d="
M0 0
L4 0" id="m728421d6d4" style="stroke:#000000;stroke-width:0.5;"/>
      </defs>
      <g>
       <use style="stroke:#000000;stroke-width:0.5;" x="7.2" xlink:href="#m728421d6d4" y="352.8"/>
      </g>
     </g>
     <g id="line2d_50">
      <defs>
       <path d="
M0 0
L-4 0" id="mcb0005524f" style="stroke:#000000;stroke-width:0.5;"/>
      </defs>
      <g>
       <use style="stroke:#000000;stroke-width:0.5;" x="453.6" xlink:href="#mcb0005524f" y="352.8"/>
      </g>
     </g>
    </g>
    <g id="ytick_2">
     <g id="line2d_51">
      <path clip-path="url(#p99b4b0da67)" d="
M7.2 284.364
L453.6 284.364" style="fill:none;stroke:#000000;stroke-dasharray:1.000000,3.000000;stroke-dashoffset:0.0;stroke-width:0.5;"/>
     </g>
     <g id="line2d_52">
      <g>
       <use style="stroke:#000000;stroke-width:0.5;" x="7.2" xlink:href="#m728421d6d4" y="284.364356436"/>
      </g>
     </g>
     <g id="line2d_53">
      <g>
       <use style="stroke:#000000;stroke-width:0.5;" x="453.6" xlink:href="#mcb0005524f" y="284.364356436"/>
      </g>
     </g>
    </g>
    <g id="ytick_3">
     <g id="line2d_54">
      <path clip-path="url(#p99b4b0da67)" d="
M7.2 215.929
L453.6 215.929" style="fill:none;stroke:#000000;stroke-dasharray:1.000000,3.000000;stroke-dashoffset:0.0;stroke-width:0.5;"/>
     </g>
     <g id="line2d_55">
      <g>
       <use style="stroke:#000000;stroke-width:0.5;" x="7.2" xlink:href="#m728421d6d4" y="215.928712871"/>
      </g>
     </g>
     <g id="line2d_56">
      <g>
       <use style="stroke:#000000;stroke-width:0.5;" x="453.6" xlink:href="#mcb0005524f" y="215.928712871"/>
      </g>
     </g>
    </g>
    <g id="ytick_4">
     <g id="line2d_57">
      <path clip-path="url(#p99b4b0da67)" d="
M7.2 147.493
L453.6 147.493" style="fill:none;stroke:#000000;stroke-dasharray:1.000000,3.000000;stroke-dashoffset:0.0;stroke-width:0.5;"/>
     </g>
     <g id="line2d_58">
      <g>
       <use style="stroke:#000000;stroke-width:0.5;" x="7.2" xlink:href="#m728421d6d4" y="147.493069307"/>
      </g>
     </g>
     <g id="line2d_59">
      <g>
       <use style="stroke:#000000;stroke-width:0.5;" x="453.6" xlink:href="#mcb0005524f" y="147.493069307"/>
      </g>
     </g>
    </g>
    <g id="ytick_5">
     <g id="line2d_60">
      <path clip-path="url(#p99b4b0da67)" d="
M7.2 79.0574
L453.6 79.0574" style="fill:none;stroke:#000000;stroke-dasharray:1.000000,3.000000;stroke-dashoffset:0.0;stroke-width:0.5;"/>
     </g>
     <g id="line2d_61">
      <g>
       <use style="stroke:#000000;stroke-width:0.5;" x="7.2" xlink:href="#m728421d6d4" y="79.0574257426"/>
      </g>
     </g>
     <g id="line2d_62">
      <g>
       <use style="stroke:#000000;stroke-width:0.5;" x="453.6" xlink:href="#mcb0005524f" y="79.0574257426"/>
      </g>
     </g>
    </g>
    <g id="ytick_6">
     <g id="line2d_63">
      <path clip-path="url(#p99b4b0da67)" d="
M7.2 10.6218
L453.6 10.6218" style="fill:none;stroke:#000000;stroke-dasharray:1.000000,3.000000;stroke-dashoffset:0.0;stroke-width:0.5;"/>
     </g>
     <g id="line2d_64">
      <g>
       <use style="stroke:#000000;stroke-width:0.5;" x="7.2" xlink:href="#m728421d6d4" y="10.6217821782"/>
      </g>
     </g>
     <g id="line2d_65">
      <g>
       <use style="stroke:#000000;stroke-width:0.5;" x="453.6" xlink:href="#mcb0005524f" y="10.6217821782"/>
      </g>
     </g>
    </g>
   </g>
   <g id="text_10">
    <!-- {f6-f9}, 5-D -->
    <defs>
     <path d="
M12.5 -9.28125
L15.9219 -9.28125
Q22.75 -9.28125 24.8281 -7.17188
Q26.9062 -5.07812 26.9062 1.90625
L26.9062 14.0156
Q26.9062 21.625 29.0938 25.0938
Q31.2969 28.5625 36.7188 29.8906
Q31.2969 31.1094 29.0938 34.5625
Q26.9062 38.0312 26.9062 45.7031
L26.9062 57.8125
Q26.9062 64.75 24.8281 66.875
Q22.75 69 15.9219 69
L12.5 69
L12.5 75.9844
L15.5781 75.9844
Q27.7344 75.9844 31.8125 72.3906
Q35.8906 68.7969 35.8906 58.0156
L35.8906 46.2969
Q35.8906 39.0156 38.5156 36.2031
Q41.1562 33.4062 48.0938 33.4062
L51.125 33.4062
L51.125 26.4219
L48.0938 26.4219
Q41.1562 26.4219 38.5156 23.5781
Q35.8906 20.75 35.8906 13.375
L35.8906 1.70312
Q35.8906 -9.07812 31.8125 -12.6875
Q27.7344 -16.3125 15.5781 -16.3125
L12.5 -16.3125
z
" id="BitstreamVeraSans-Roman-7d"/>
     <path d="
M10.9844 1.51562
L10.9844 10.5
Q14.7031 8.73438 18.5 7.8125
Q22.3125 6.89062 25.9844 6.89062
Q35.75 6.89062 40.8906 13.4531
Q46.0469 20.0156 46.7812 33.4062
Q43.9531 29.2031 39.5938 26.9531
Q35.25 24.7031 29.9844 24.7031
Q19.0469 24.7031 12.6719 31.3125
Q6.29688 37.9375 6.29688 49.4219
Q6.29688 60.6406 12.9375 67.4219
Q19.5781 74.2188 30.6094 74.2188
Q43.2656 74.2188 49.9219 64.5156
Q56.5938 54.8281 56.5938 36.375
Q56.5938 19.1406 48.4062 8.85938
Q40.2344 -1.42188 26.4219 -1.42188
Q22.7031 -1.42188 18.8906 -0.6875
Q15.0938 0.046875 10.9844 1.51562
M30.6094 32.4219
Q37.25 32.4219 41.125 36.9531
Q45.0156 41.5 45.0156 49.4219
Q45.0156 57.2812 41.125 61.8438
Q37.25 66.4062 30.6094 66.4062
Q23.9688 66.4062 20.0938 61.8438
Q16.2188 57.2812 16.2188 49.4219
Q16.2188 41.5 20.0938 36.9531
Q23.9688 32.4219 30.6094 32.4219" id="BitstreamVeraSans-Roman-39"/>
     <path d="
M51.125 -9.28125
L51.125 -16.3125
L48.0938 -16.3125
Q35.9375 -16.3125 31.8125 -12.6875
Q27.6875 -9.07812 27.6875 1.70312
L27.6875 13.375
Q27.6875 20.75 25.0469 23.5781
Q22.4062 26.4219 15.4844 26.4219
L12.5 26.4219
L12.5 33.4062
L15.4844 33.4062
Q22.4688 33.4062 25.0781 36.2031
Q27.6875 39.0156 27.6875 46.2969
L27.6875 58.0156
Q27.6875 68.7969 31.8125 72.3906
Q35.9375 75.9844 48.0938 75.9844
L51.125 75.9844
L51.125 69
L47.7969 69
Q40.9219 69 38.8125 66.8438
Q36.7188 64.7031 36.7188 57.8125
L36.7188 45.7031
Q36.7188 38.0312 34.5 34.5625
Q32.2812 31.1094 26.9062 29.8906
Q32.3281 28.5625 34.5156 25.0938
Q36.7188 21.625 36.7188 14.0156
L36.7188 1.90625
Q36.7188 -4.98438 38.8125 -7.125
Q40.9219 -9.28125 47.7969 -9.28125
z
" id="BitstreamVeraSans-Roman-7b"/>
     <path d="
M11.7188 12.4062
L22.0156 12.4062
L22.0156 4
L14.0156 -11.625
L7.71875 -11.625
L11.7188 4
z
" id="BitstreamVeraSans-Roman-2c"/>
     <path d="
M10.7969 72.9062
L49.5156 72.9062
L49.5156 64.5938
L19.8281 64.5938
L19.8281 46.7344
Q21.9688 47.4688 24.1094 47.8281
Q26.2656 48.1875 28.4219 48.1875
Q40.625 48.1875 47.75 41.5
Q54.8906 34.8125 54.8906 23.3906
Q54.8906 11.625 47.5625 5.09375
Q40.2344 -1.42188 26.9062 -1.42188
Q22.3125 -1.42188 17.5469 -0.640625
Q12.7969 0.140625 7.71875 1.70312
L7.71875 11.625
Q12.1094 9.23438 16.7969 8.0625
Q21.4844 6.89062 26.7031 6.89062
Q35.1562 6.89062 40.0781 11.3281
Q45.0156 15.7656 45.0156 23.3906
Q45.0156 31 40.0781 35.4375
Q35.1562 39.8906 26.7031 39.8906
Q22.75 39.8906 18.8125 39.0156
Q14.8906 38.1406 10.7969 36.2812
z
" id="BitstreamVeraSans-Roman-35"/>
    </defs>
    <g transform="translate(325.60325 345.888)scale(0.2 -0.2)">
     <use xlink:href="#BitstreamVeraSans-Roman-7b"/>
     <use x="63.623046875" xlink:href="#BitstreamVeraSans-Roman-66"/>
     <use x="98.828125" xlink:href="#BitstreamVeraSans-Roman-36"/>
     <use x="162.451171875" xlink:href="#BitstreamVeraSans-Roman-2d"/>
     <use x="198.53515625" xlink:href="#BitstreamVeraSans-Roman-66"/>
     <use x="233.740234375" xlink:href="#BitstreamVeraSans-Roman-39"/>
     <use x="297.36328125" xlink:href="#BitstreamVeraSans-Roman-7d"/>
     <use x="360.986328125" xlink:href="#BitstreamVeraSans-Roman-2c"/>
     <use x="392.7734375" xlink:href="#BitstreamVeraSans-Roman-20"/>
     <use x="424.560546875" xlink:href="#BitstreamVeraSans-Roman-35"/>
     <use x="488.18359375" xlink:href="#BitstreamVeraSans-Roman-2d"/>
     <use x="524.267578125" xlink:href="#BitstreamVeraSans-Roman-44"/>
    </g>
   </g>
   <g id="text_11">
    <!-- 1.2.1 -->
    <defs>
     <path d="
M10.6875 12.4062
L21 12.4062
L21 0
L10.6875 0
z
" id="BitstreamVeraSans-Roman-2e"/>
    </defs>
    <g style="fill:#808080;" transform="translate(218.6890625 347.2643125)scale(0.1 -0.1)">
     <use xlink:href="#BitstreamVeraSans-Roman-31"/>
     <use x="63.623046875" xlink:href="#BitstreamVeraSans-Roman-2e"/>
     <use x="95.41015625" xlink:href="#BitstreamVeraSans-Roman-32"/>
     <use x="159.033203125" xlink:href="#BitstreamVeraSans-Roman-2e"/>
     <use x="190.8203125" xlink:href="#BitstreamVeraSans-Roman-31"/>
    </g>
   </g>
  </g>
 </g>
 <defs>
  <clipPath id="p99b4b0da67">
   <rect height="345.6" width="446.4" x="7.2" y="7.2"/>
  </clipPath>
 </defs>
</svg>
