<?xml version="1.0" encoding="utf-8" standalone="no"?>
<!DOCTYPE svg PUBLIC "-//W3C//DTD SVG 1.1//EN"
  "http://www.w3.org/Graphics/SVG/1.1/DTD/svg11.dtd">
<!-- Created with matplotlib (http://matplotlib.org/) -->
<svg height="407pt" version="1.1" viewBox="0 0 460 407" width="460pt" xmlns="http://www.w3.org/2000/svg" xmlns:xlink="http://www.w3.org/1999/xlink">
 <defs>
  <style type="text/css">
*{stroke-linecap:butt;stroke-linejoin:round;}
  </style>
 </defs>
 <g id="figure_1">
  <g id="patch_1">
   <path d="
M0 407.712
L460.8 407.712
L460.8 0
L0 0
z
" style="fill:#ffffff;"/>
  </g>
  <g id="axes_1">
   <g id="patch_2">
    <path d="
M7.2 352.8
L453.6 352.8
L453.6 7.2
L7.2 7.2
z
" style="fill:#ffffff;"/>
   </g>
   <g id="line2d_1">
    <path clip-path="url(#p99b4b0da67)" d="
M-1 83.6198
L-0.818649 83.6198
L-0.818649 79.0574
L-0.655528 79.0574
L-0.655528 74.495
L0.61524 74.495
L0.61524 69.9327
L1.58692 69.9327
L1.58692 65.3703
L2.36058 65.3703
L2.42684 56.2455
L2.741 56.2455
L2.741 51.6832
L3.15287 51.6832
L3.15287 47.1208
L3.38062 47.1208
L3.48386 37.996
L3.79035 37.996
L3.85055 28.8713
L4.42113 28.8713
L4.42113 24.3089
L5.20381 24.3089
L5.29112 15.1842
L6.44255 15.1842
L6.44255 10.6218
L6.44255 10.6218
L453.6 10.6218
L453.6 10.6218" style="fill:none;stroke:#ff0000;stroke-linecap:square;stroke-width:3.0;"/>
   </g>
   <g id="line2d_2">
    <path clip-path="url(#p99b4b0da67)" d="
M238.003 352.8
L238.003 348.238
L240.163 348.238
L240.163 343.675
L241.995 343.675
L241.995 339.113
L242.747 339.113
L242.747 334.55
L242.899 334.55
L242.899 329.988
L244.119 329.988
L244.119 325.426
L245.263 325.426
L245.263 320.863
L246.666 320.863
L246.666 316.301
L247.667 316.301
L247.667 311.739
L248.577 311.739
L248.577 307.176
L248.743 307.176
L248.743 302.614
L248.996 302.614
L248.996 298.051
L249.704 298.051
L249.761 288.927
L251.264 288.927
L251.264 284.364
L252.626 284.364
L252.626 279.802
L253.107 279.802
L253.107 275.24
L253.492 275.24
L253.581 266.115
L253.734 266.115
L253.734 261.552
L254.164 261.552
L254.164 256.99
L254.409 256.99
L254.409 252.428
L254.921 252.428
L254.921 247.865
L255.93 247.865
L255.93 243.303
L256.375 243.303
L256.375 238.741
L256.861 238.741
L256.915 225.053
L257.661 225.053
L257.661 220.491
L257.979 220.491
L257.979 215.929
L258.616 215.929
L258.616 211.366
L258.754 211.366
L258.765 202.242
L261.07 202.242
L261.07 197.679
L261.277 197.679
L261.277 193.117
L261.489 193.117
L261.489 188.554
L262.781 188.554
L262.789 179.43
L262.949 179.43
L263.009 170.305
L263.227 170.305
L263.227 165.743
L263.875 165.743
L263.875 161.18
L264.365 161.18
L264.365 156.618
L264.538 156.618
L264.538 152.055
L265.123 152.055
L265.217 142.931
L267.021 142.931
L267.08 129.244
L268.032 129.244
L268.032 124.681
L268.281 124.681
L268.281 120.119
L269.422 120.119
L269.422 115.556
L269.945 115.556
L269.945 110.994
L271.237 110.994
L271.257 101.869
L271.816 101.869
L271.853 92.7446
L272.186 92.7446
L272.19 83.6198
L272.995 83.6198
L272.995 79.0574
L273.535 79.0574
L273.535 74.495
L273.95 74.495
L273.95 69.9327
L274.898 69.9327
L274.898 65.3703
L277.718 65.3703
L277.718 60.8079
L277.938 60.8079
L277.938 56.2455
L278.353 56.2455
L278.353 51.6832
L278.77 51.6832
L278.77 47.1208
L279.523 47.1208
L279.584 37.996
L284.599 37.996
L284.599 33.4337
L286.052 33.4337
L286.052 28.8713
L286.866 28.8713
L286.866 24.3089
L287.445 24.3089
L287.445 19.7465
L288.867 19.7465
L288.867 15.1842
L292.514 15.1842
L292.514 10.6218
L292.514 10.6218
L453.6 10.6218
L453.6 10.6218" style="fill:none;stroke:#00bfbf;stroke-linecap:square;"/>
   </g>
   <g id="line2d_3">
    <path clip-path="url(#p99b4b0da67)" d="
M238.003 352.8
L238.003 348.238
L238.317 348.238
L238.317 343.675
L241.091 343.675
L241.091 339.113
L241.208 339.113
L241.208 334.55
L241.827 334.55
L241.827 329.988
L241.995 329.988
L241.995 325.426
L242.747 325.426
L242.747 320.863
L243.138 320.863
L243.138 316.301
L244.119 316.301
L244.119 311.739
L244.279 311.739
L244.279 307.176
L244.577 307.176
L244.577 302.614
L244.694 302.614
L244.694 298.051
L246.417 298.051
L246.483 288.927
L246.666 288.927
L246.666 284.364
L247.859 284.364
L247.859 279.802
L248.743 279.802
L248.76 270.677
L248.996 270.677
L248.996 266.115
L249.704 266.115
L249.704 261.552
L249.841 261.552
L249.841 256.99
L250.982 256.99
L250.982 252.428
L251.122 252.428
L251.122 247.865
L251.264 247.865
L251.264 243.303
L252.381 243.303
L252.381 238.741
L253.265 238.741
L253.265 234.178
L253.492 234.178
L253.581 225.053
L254.164 225.053
L254.164 220.491
L255.344 220.491
L255.344 215.929
L255.93 215.929
L255.93 211.366
L256.375 211.366
L256.391 202.242
L256.861 202.242
L256.861 197.679
L257.549 197.679
L257.549 193.117
L257.661 193.117
L257.661 188.554
L257.831 188.554
L257.831 183.992
L258.616 183.992
L258.616 179.43
L259.856 179.43
L259.856 174.867
L260.113 174.867
L260.113 170.305
L261.07 170.305
L261.07 165.743
L261.277 165.743
L261.277 161.18
L261.489 161.18
L261.489 156.618
L261.903 156.618
L261.929 147.493
L262.781 147.493
L262.789 138.368
L262.949 138.368
L263.009 124.681
L264.365 124.681
L264.377 115.556
L264.637 115.556
L264.637 110.994
L264.797 110.994
L264.797 106.432
L265.747 106.432
L265.747 101.869
L267.045 101.869
L267.045 97.3069
L268.426 97.3069
L268.426 92.7446
L270.158 92.7446
L270.158 88.1822
L271.237 88.1822
L271.257 79.0574
L272.19 79.0574
L272.225 69.9327
L272.687 69.9327
L272.687 65.3703
L272.843 65.3703
L272.843 60.8079
L272.995 60.8079
L272.995 56.2455
L273.535 56.2455
L273.535 51.6832
L278.353 51.6832
L278.353 47.1208
L278.77 47.1208
L278.77 42.5584
L279.584 42.5584
L279.584 37.996
L280.97 37.996
L280.97 33.4337
L282.039 33.4337
L282.039 28.8713
L282.378 28.8713
L282.378 24.3089
L282.821 24.3089
L282.821 19.7465
L285.126 19.7465
L285.126 15.1842
L287.835 15.1842
L287.835 10.6218
L287.835 10.6218
L453.6 10.6218
L453.6 10.6218" style="fill:none;stroke:#bf00bf;stroke-linecap:square;"/>
   </g>
   <g id="line2d_4">
    <path clip-path="url(#p99b4b0da67)" d="
M234.801 352.8
L234.801 348.238
L235.372 348.238
L235.372 343.675
L236.449 343.675
L236.449 339.113
L238.003 339.113
L238.102 329.988
L238.317 329.988
L238.317 325.426
L241.208 325.426
L241.208 320.863
L241.41 320.863
L241.41 316.301
L241.732 316.301
L241.827 307.176
L241.995 307.176
L241.995 302.614
L242.774 302.614
L242.774 298.051
L243.138 298.051
L243.138 293.489
L243.71 293.489
L243.71 288.927
L244.179 288.927
L244.179 284.364
L244.428 284.364
L244.428 279.802
L244.577 279.802
L244.577 275.24
L244.694 275.24
L244.694 270.677
L244.889 270.677
L244.889 266.115
L245.025 266.115
L245.025 261.552
L245.307 261.552
L245.384 252.428
L245.475 252.428
L245.475 247.865
L246.411 247.865
L246.417 238.741
L248.743 238.741
L248.743 234.178
L249.064 234.178
L249.064 229.616
L249.449 229.616
L249.449 225.053
L249.704 225.053
L249.704 220.491
L250.006 220.491
L250.006 215.929
L250.439 215.929
L250.439 211.366
L250.982 211.366
L250.982 206.804
L252.279 206.804
L252.381 197.679
L252.924 197.679
L252.924 193.117
L253.129 193.117
L253.129 188.554
L253.535 188.554
L253.581 179.43
L255.014 179.43
L255.056 170.305
L255.176 170.305
L255.191 161.18
L256.689 161.18
L256.689 156.618
L256.972 156.618
L256.972 152.055
L257.661 152.055
L257.757 142.931
L257.831 142.931
L257.831 138.368
L258.288 138.368
L258.288 133.806
L258.616 133.806
L258.616 129.244
L259.213 129.244
L259.285 120.119
L259.383 120.119
L259.383 115.556
L259.746 115.556
L259.746 110.994
L260.334 110.994
L260.334 106.432
L260.813 106.432
L260.813 101.869
L261.489 101.869
L261.489 97.3069
L262.781 97.3069
L262.836 88.1822
L263.009 88.1822
L263.009 83.6198
L263.774 83.6198
L263.774 79.0574
L264.637 79.0574
L264.637 74.495
L264.797 74.495
L264.797 69.9327
L265.05 69.9327
L265.05 65.3703
L266.679 65.3703
L266.679 60.8079
L267.389 60.8079
L267.389 56.2455
L268.387 56.2455
L268.387 51.6832
L272.225 51.6832
L272.225 47.1208
L272.995 47.1208
L272.995 42.5584
L273.469 42.5584
L273.479 33.4337
L276.37 33.4337
L276.37 28.8713
L278.776 28.8713
L278.776 24.3089
L279.561 24.3089
L279.561 19.7465
L280.408 19.7465
L280.408 15.1842
L281.578 15.1842
L281.578 10.6218
L281.578 10.6218
L453.6 10.6218
L453.6 10.6218" style="fill:none;stroke:#000000;stroke-linecap:square;"/>
   </g>
   <g id="line2d_5">
    <path clip-path="url(#p99b4b0da67)" d="
M226.857 352.8
L226.857 348.238
L228.26 348.238
L228.26 343.675
L230.431 343.675
L230.431 339.113
L230.897 339.113
L230.897 334.55
L231.66 334.55
L231.66 329.988
L231.801 329.988
L231.801 325.426
L232.253 325.426
L232.253 320.863
L232.967 320.863
L232.967 316.301
L233.21 316.301
L233.21 311.739
L233.748 311.739
L233.748 307.176
L234.801 307.176
L234.801 302.614
L234.927 302.614
L234.927 298.051
L235.772 298.051
L235.772 293.489
L236.544 293.489
L236.554 284.364
L236.922 284.364
L236.922 279.802
L237.274 279.802
L237.358 270.677
L237.515 270.677
L237.515 266.115
L237.642 266.115
L237.642 261.552
L238.135 261.552
L238.202 252.428
L239.621 252.428
L239.621 247.865
L240.332 247.865
L240.332 243.303
L240.555 243.303
L240.555 238.741
L240.708 238.741
L240.708 234.178
L240.864 234.178
L240.864 229.616
L241.156 229.616
L241.208 220.491
L241.41 220.491
L241.41 215.929
L241.995 215.929
L241.995 211.366
L242.186 211.366
L242.186 206.804
L243.388 206.804
L243.388 202.242
L243.953 202.242
L243.953 197.679
L244.694 197.679
L244.694 193.117
L245.725 193.117
L245.725 188.554
L247.624 188.554
L247.673 179.43
L247.798 179.43
L247.798 174.867
L248.024 174.867
L248.024 170.305
L248.357 170.305
L248.357 165.743
L249.095 165.743
L249.095 161.18
L249.214 161.18
L249.214 156.618
L249.557 156.618
L249.557 152.055
L249.704 152.055
L249.704 147.493
L250.006 147.493
L250.006 142.931
L250.387 142.931
L250.387 138.368
L251.924 138.368
L251.924 133.806
L252.156 133.806
L252.189 124.681
L253.129 124.681
L253.129 120.119
L253.392 120.119
L253.392 115.556
L253.977 115.556
L253.977 110.994
L254.155 110.994
L254.155 106.432
L254.554 106.432
L254.554 101.869
L254.837 101.869
L254.837 97.3069
L255.678 97.3069
L255.749 83.6198
L256.743 83.6198
L256.743 79.0574
L257.831 79.0574
L257.831 74.495
L259.829 74.495
L259.846 65.3703
L262.047 65.3703
L262.055 56.2455
L262.289 56.2455
L262.289 51.6832
L262.756 51.6832
L262.756 47.1208
L264.246 47.1208
L264.246 42.5584
L264.56 42.5584
L264.56 37.996
L266.743 37.996
L266.743 33.4337
L268.979 33.4337
L268.979 28.8713
L269.793 28.8713
L269.793 24.3089
L270.669 24.3089
L270.669 19.7465
L270.812 19.7465
L270.812 15.1842
L271.333 15.1842
L271.333 10.6218
L271.333 10.6218
L453.6 10.6218
L453.6 10.6218" style="fill:none;stroke:#00bfbf;stroke-linecap:square;"/>
   </g>
   <g id="line2d_6">
    <path clip-path="url(#p99b4b0da67)" d="
M162.539 352.8
L162.539 348.238
L165.053 348.238
L165.053 343.675
L175.383 343.675
L175.383 339.113
L175.851 339.113
L175.851 334.55
L178.982 334.55
L178.982 329.988
L183.294 329.988
L183.294 325.426
L184.858 325.426
L184.858 320.863
L189.758 320.863
L189.758 316.301
L190.129 316.301
L190.129 311.739
L191.185 311.739
L191.185 307.176
L194.183 307.176
L194.183 302.614
L194.389 302.614
L194.389 298.051
L195.081 298.051
L195.081 293.489
L197.591 293.489
L197.591 288.927
L198.085 288.927
L198.085 284.364
L200.373 284.364
L200.373 279.802
L200.712 279.802
L200.712 275.24
L201.202 275.24
L201.202 270.677
L203.023 270.677
L203.023 266.115
L204.725 266.115
L204.725 261.552
L204.991 261.552
L204.991 256.99
L209.362 256.99
L209.362 252.428
L210 252.428
L210 247.865
L211.024 247.865
L211.024 243.303
L212.612 243.303
L212.612 238.741
L213.47 238.741
L213.47 234.178
L216.131 234.178
L216.131 229.616
L216.989 229.616
L216.989 225.053
L217.324 225.053
L217.324 220.491
L217.811 220.491
L217.811 215.929
L218.239 215.929
L218.239 211.366
L218.829 211.366
L218.829 206.804
L219.954 206.804
L219.954 202.242
L220.191 202.242
L220.278 193.117
L221.075 193.117
L221.075 188.554
L221.245 188.554
L221.245 183.992
L221.927 183.992
L221.927 179.43
L222.06 179.43
L222.06 174.867
L222.223 174.867
L222.223 170.305
L222.959 170.305
L222.959 165.743
L223.349 165.743
L223.349 161.18
L225.622 161.18
L225.622 156.618
L227.113 156.618
L227.113 152.055
L228.158 152.055
L228.158 147.493
L229.132 147.493
L229.132 142.931
L229.881 142.931
L229.881 138.368
L230.897 138.368
L230.897 133.806
L232.217 133.806
L232.251 124.681
L234.196 124.681
L234.196 120.119
L235.79 120.119
L235.79 115.556
L237.235 115.556
L237.235 110.994
L237.414 110.994
L237.414 106.432
L238.313 106.432
L238.378 97.3069
L240.573 97.3069
L240.573 92.7446
L241.616 92.7446
L241.616 88.1822
L242.37 88.1822
L242.37 83.6198
L243.433 83.6198
L243.478 74.495
L244.694 74.495
L244.743 60.8079
L245.867 60.8079
L245.867 56.2455
L246.362 56.2455
L246.362 51.6832
L246.659 51.6832
L246.728 42.5584
L246.823 42.5584
L246.838 33.4337
L247.386 33.4337
L247.386 28.8713
L248.43 28.8713
L248.43 24.3089
L248.653 24.3089
L248.653 19.7465
L249.369 19.7465
L249.369 15.1842
L249.751 15.1842
L249.751 10.6218
L249.751 10.6218
L453.6 10.6218
L453.6 10.6218" style="fill:none;stroke:#bf00bf;stroke-linecap:square;"/>
   </g>
   <g id="line2d_7">
    <path clip-path="url(#p99b4b0da67)" d="
M-1 339.113
L-0.655528 339.113
L-0.655528 334.55
L2.36058 334.55
L2.36058 329.988
L51.5175 329.988
L51.5175 325.426
L54.2512 325.426
L54.2512 320.863
L58.4348 320.863
L58.4348 316.301
L75.9947 316.301
L75.9947 311.739
L78.9258 311.739
L78.9258 307.176
L84.7469 307.176
L84.7469 302.614
L90.8168 302.614
L90.8168 298.051
L96.7715 298.051
L96.7715 293.489
L97.5353 293.489
L97.5353 288.927
L108.426 288.927
L108.426 284.364
L120.044 284.364
L120.044 279.802
L121.884 279.802
L121.884 275.24
L123.642 275.24
L123.642 270.677
L128.988 270.677
L128.988 266.115
L138.783 266.115
L138.783 261.552
L140.243 261.552
L140.243 256.99
L144.113 256.99
L144.113 252.428
L156.8 252.428
L156.8 247.865
L165.38 247.865
L165.38 243.303
L166.426 243.303
L166.426 238.741
L174.985 238.741
L174.985 234.178
L180.471 234.178
L180.471 229.616
L182.896 229.616
L182.98 220.491
L183.415 220.491
L183.415 215.929
L184.586 215.929
L184.61 202.242
L186.261 202.242
L186.261 197.679
L186.637 197.679
L186.637 193.117
L187.969 193.117
L187.969 188.554
L188.664 188.554
L188.664 183.992
L189.367 183.992
L189.367 179.43
L199.595 179.43
L199.595 174.867
L200.476 174.867
L200.476 170.305
L202.474 170.305
L202.474 165.743
L203.244 165.743
L203.244 161.18
L204.263 161.18
L204.263 156.618
L204.828 156.618
L204.828 152.055
L205.418 152.055
L205.418 147.493
L206.548 147.493
L206.548 142.931
L206.7 142.931
L206.787 129.244
L207.829 129.244
L207.829 124.681
L209.065 124.681
L209.065 120.119
L209.525 120.119
L209.525 115.556
L209.719 115.556
L209.719 110.994
L210.284 110.994
L210.284 106.432
L211.812 106.432
L211.812 101.869
L212.739 101.869
L212.739 97.3069
L213.574 97.3069
L213.574 92.7446
L217.153 92.7446
L217.153 83.6198
L219.83 83.6198
L219.83 79.0574
L220.191 79.0574
L220.191 74.495
L224.948 74.495
L224.948 69.9327
L225.06 69.9327
L225.06 51.6832
L229.685 51.6832
L229.685 15.1842
L235.512 15.1842
L235.512 10.6218
L235.512 10.6218
L453.6 10.6218
L453.6 10.6218" style="fill:none;stroke:#000000;stroke-linecap:square;"/>
   </g>
   <g id="line2d_8">
    <path clip-path="url(#p99b4b0da67)" d="
M-1 142.931
L-0.818649 142.931
L-0.818649 138.368
L-0.655528 138.368
L-0.655528 133.806
L0.61524 133.806
L0.61524 129.244
L1.58692 129.244
L1.58692 124.681
L2.36058 124.681
L2.42684 115.556
L2.741 115.556
L2.741 110.994
L3.15287 110.994
L3.15287 106.432
L3.38062 106.432
L3.48386 97.3069
L3.79035 97.3069
L3.85055 88.1822
L4.42113 88.1822
L4.42113 83.6198
L5.20381 83.6198
L5.29112 74.495
L6.44255 74.495
L6.44255 69.9327
L53.9717 69.9327
L53.9717 65.3703
L162.051 65.3703
L162.051 60.8079
L172.407 60.8079
L172.407 56.2455
L172.774 56.2455
L172.774 51.6832
L177.737 51.6832
L177.737 47.1208
L179.081 47.1208
L179.081 42.5584
L183.276 42.5584
L183.276 37.996
L184.149 37.996
L184.149 33.4337
L187.98 33.4337
L187.98 28.8713
L194.586 28.8713
L194.586 24.3089
L195.561 24.3089
L195.561 19.7465
L197.78 19.7465
L197.78 15.1842
L199.853 15.1842
L199.853 10.6218
L199.853 10.6218
L453.6 10.6218
L453.6 10.6218" style="fill:none;stroke:#00bfbf;stroke-linecap:square;"/>
   </g>
   <g id="patch_3">
    <path d="
M7.2 7.2
L453.6 7.2" style="fill:none;stroke:#000000;stroke-linecap:square;stroke-linejoin:miter;"/>
   </g>
   <g id="patch_4">
    <path d="
M453.6 352.8
L453.6 7.2" style="fill:none;stroke:#000000;stroke-linecap:square;stroke-linejoin:miter;"/>
   </g>
   <g id="patch_5">
    <path d="
M7.2 352.8
L453.6 352.8" style="fill:none;stroke:#000000;stroke-linecap:square;stroke-linejoin:miter;"/>
   </g>
   <g id="patch_6">
    <path d="
M7.2 352.8
L7.2 7.2" style="fill:none;stroke:#000000;stroke-linecap:square;stroke-linejoin:miter;"/>
   </g>
   <g id="matplotlib.axis_1">
    <g id="xtick_1"/>
    <g id="xtick_2">
     <g id="line2d_9">
      <path clip-path="url(#p99b4b0da67)" d="
M59.6175 352.8
L59.6175 7.2" style="fill:none;stroke:#000000;stroke-dasharray:1.000000,3.000000;stroke-dashoffset:0.0;stroke-width:0.5;"/>
     </g>
     <g id="line2d_10">
      <defs>
       <path d="
M0 0
L0 -4" id="m93b0483c22" style="stroke:#000000;stroke-width:0.5;"/>
      </defs>
      <g>
       <use style="stroke:#000000;stroke-width:0.5;" x="59.6174973142" xlink:href="#m93b0483c22" y="352.8"/>
      </g>
     </g>
     <g id="line2d_11">
      <defs>
       <path d="
M0 0
L0 4" id="m741efc42ff" style="stroke:#000000;stroke-width:0.5;"/>
      </defs>
      <g>
       <use style="stroke:#000000;stroke-width:0.5;" x="59.6174973142" xlink:href="#m741efc42ff" y="7.2"/>
      </g>
     </g>
     <g id="text_1">
      <!-- -6 -->
      <defs>
       <path d="
M33.0156 40.375
Q26.375 40.375 22.4844 35.8281
Q18.6094 31.2969 18.6094 23.3906
Q18.6094 15.5312 22.4844 10.9531
Q26.375 6.39062 33.0156 6.39062
Q39.6562 6.39062 43.5312 10.9531
Q47.4062 15.5312 47.4062 23.3906
Q47.4062 31.2969 43.5312 35.8281
Q39.6562 40.375 33.0156 40.375
M52.5938 71.2969
L52.5938 62.3125
Q48.875 64.0625 45.0938 64.9844
Q41.3125 65.9219 37.5938 65.9219
Q27.8281 65.9219 22.6719 59.3281
Q17.5312 52.7344 16.7969 39.4062
Q19.6719 43.6562 24.0156 45.9219
Q28.375 48.1875 33.5938 48.1875
Q44.5781 48.1875 50.9531 41.5156
Q57.3281 34.8594 57.3281 23.3906
Q57.3281 12.1562 50.6875 5.35938
Q44.0469 -1.42188 33.0156 -1.42188
Q20.3594 -1.42188 13.6719 8.26562
Q6.98438 17.9688 6.98438 36.375
Q6.98438 53.6562 15.1875 63.9375
Q23.3906 74.2188 37.2031 74.2188
Q40.9219 74.2188 44.7031 73.4844
Q48.4844 72.75 52.5938 71.2969" id="BitstreamVeraSans-Roman-36"/>
       <path d="
M4.89062 31.3906
L31.2031 31.3906
L31.2031 23.3906
L4.89062 23.3906
z
" id="BitstreamVeraSans-Roman-2d"/>
      </defs>
      <g transform="translate(50.7659348142 371.996875)scale(0.2 -0.2)">
       <use xlink:href="#BitstreamVeraSans-Roman-2d"/>
       <use x="36.083984375" xlink:href="#BitstreamVeraSans-Roman-36"/>
      </g>
     </g>
    </g>
    <g id="xtick_3">
     <g id="line2d_12">
      <path clip-path="url(#p99b4b0da67)" d="
M112.148 352.8
L112.148 7.2" style="fill:none;stroke:#000000;stroke-dasharray:1.000000,3.000000;stroke-dashoffset:0.0;stroke-width:0.5;"/>
     </g>
     <g id="line2d_13">
      <g>
       <use style="stroke:#000000;stroke-width:0.5;" x="112.148497672" xlink:href="#m93b0483c22" y="352.8"/>
      </g>
     </g>
     <g id="line2d_14">
      <g>
       <use style="stroke:#000000;stroke-width:0.5;" x="112.148497672" xlink:href="#m741efc42ff" y="7.2"/>
      </g>
     </g>
     <g id="text_2">
      <!-- -4 -->
      <defs>
       <path d="
M37.7969 64.3125
L12.8906 25.3906
L37.7969 25.3906
z

M35.2031 72.9062
L47.6094 72.9062
L47.6094 25.3906
L58.0156 25.3906
L58.0156 17.1875
L47.6094 17.1875
L47.6094 0
L37.7969 0
L37.7969 17.1875
L4.89062 17.1875
L4.89062 26.7031
z
" id="BitstreamVeraSans-Roman-34"/>
      </defs>
      <g transform="translate(103.228185172 371.996875)scale(0.2 -0.2)">
       <use xlink:href="#BitstreamVeraSans-Roman-2d"/>
       <use x="36.083984375" xlink:href="#BitstreamVeraSans-Roman-34"/>
      </g>
     </g>
    </g>
    <g id="xtick_4">
     <g id="line2d_15">
      <path clip-path="url(#p99b4b0da67)" d="
M164.679 352.8
L164.679 7.2" style="fill:none;stroke:#000000;stroke-dasharray:1.000000,3.000000;stroke-dashoffset:0.0;stroke-width:0.5;"/>
     </g>
     <g id="line2d_16">
      <g>
       <use style="stroke:#000000;stroke-width:0.5;" x="164.67949803" xlink:href="#m93b0483c22" y="352.8"/>
      </g>
     </g>
     <g id="line2d_17">
      <g>
       <use style="stroke:#000000;stroke-width:0.5;" x="164.67949803" xlink:href="#m741efc42ff" y="7.2"/>
      </g>
     </g>
     <g id="text_3">
      <!-- -2 -->
      <defs>
       <path d="
M19.1875 8.29688
L53.6094 8.29688
L53.6094 0
L7.32812 0
L7.32812 8.29688
Q12.9375 14.1094 22.625 23.8906
Q32.3281 33.6875 34.8125 36.5312
Q39.5469 41.8438 41.4219 45.5312
Q43.3125 49.2188 43.3125 52.7812
Q43.3125 58.5938 39.2344 62.25
Q35.1562 65.9219 28.6094 65.9219
Q23.9688 65.9219 18.8125 64.3125
Q13.6719 62.7031 7.8125 59.4219
L7.8125 69.3906
Q13.7656 71.7812 18.9375 73
Q24.125 74.2188 28.4219 74.2188
Q39.75 74.2188 46.4844 68.5469
Q53.2188 62.8906 53.2188 53.4219
Q53.2188 48.9219 51.5312 44.8906
Q49.8594 40.875 45.4062 35.4062
Q44.1875 33.9844 37.6406 27.2188
Q31.1094 20.4531 19.1875 8.29688" id="BitstreamVeraSans-Roman-32"/>
      </defs>
      <g transform="translate(156.19981053 371.996875)scale(0.2 -0.2)">
       <use xlink:href="#BitstreamVeraSans-Roman-2d"/>
       <use x="36.083984375" xlink:href="#BitstreamVeraSans-Roman-32"/>
      </g>
     </g>
    </g>
    <g id="xtick_5">
     <g id="line2d_18">
      <path clip-path="url(#p99b4b0da67)" d="
M217.21 352.8
L217.21 7.2" style="fill:none;stroke:#000000;stroke-dasharray:1.000000,3.000000;stroke-dashoffset:0.0;stroke-width:0.5;"/>
     </g>
     <g id="line2d_19">
      <g>
       <use style="stroke:#000000;stroke-width:0.5;" x="217.210498389" xlink:href="#m93b0483c22" y="352.8"/>
      </g>
     </g>
     <g id="line2d_20">
      <g>
       <use style="stroke:#000000;stroke-width:0.5;" x="217.210498389" xlink:href="#m741efc42ff" y="7.2"/>
      </g>
     </g>
     <g id="text_4">
      <!-- 0 -->
      <defs>
       <path d="
M31.7812 66.4062
Q24.1719 66.4062 20.3281 58.9062
Q16.5 51.4219 16.5 36.375
Q16.5 21.3906 20.3281 13.8906
Q24.1719 6.39062 31.7812 6.39062
Q39.4531 6.39062 43.2812 13.8906
Q47.125 21.3906 47.125 36.375
Q47.125 51.4219 43.2812 58.9062
Q39.4531 66.4062 31.7812 66.4062
M31.7812 74.2188
Q44.0469 74.2188 50.5156 64.5156
Q56.9844 54.8281 56.9844 36.375
Q56.9844 17.9688 50.5156 8.26562
Q44.0469 -1.42188 31.7812 -1.42188
Q19.5312 -1.42188 13.0625 8.26562
Q6.59375 17.9688 6.59375 36.375
Q6.59375 54.8281 13.0625 64.5156
Q19.5312 74.2188 31.7812 74.2188" id="BitstreamVeraSans-Roman-30"/>
      </defs>
      <g transform="translate(212.171435889 371.996875)scale(0.2 -0.2)">
       <use xlink:href="#BitstreamVeraSans-Roman-30"/>
      </g>
     </g>
    </g>
    <g id="xtick_6">
     <g id="line2d_21">
      <path clip-path="url(#p99b4b0da67)" d="
M269.741 352.8
L269.741 7.2" style="fill:none;stroke:#000000;stroke-dasharray:1.000000,3.000000;stroke-dashoffset:0.0;stroke-width:0.5;"/>
     </g>
     <g id="line2d_22">
      <g>
       <use style="stroke:#000000;stroke-width:0.5;" x="269.741498747" xlink:href="#m93b0483c22" y="352.8"/>
      </g>
     </g>
     <g id="line2d_23">
      <g>
       <use style="stroke:#000000;stroke-width:0.5;" x="269.741498747" xlink:href="#m741efc42ff" y="7.2"/>
      </g>
     </g>
     <g id="text_5">
      <!-- 2 -->
      <g transform="translate(265.113373747 371.996875)scale(0.2 -0.2)">
       <use xlink:href="#BitstreamVeraSans-Roman-32"/>
      </g>
     </g>
    </g>
    <g id="xtick_7">
     <g id="line2d_24">
      <path clip-path="url(#p99b4b0da67)" d="
M322.272 352.8
L322.272 7.2" style="fill:none;stroke:#000000;stroke-dasharray:1.000000,3.000000;stroke-dashoffset:0.0;stroke-width:0.5;"/>
     </g>
     <g id="line2d_25">
      <g>
       <use style="stroke:#000000;stroke-width:0.5;" x="322.272499105" xlink:href="#m93b0483c22" y="352.8"/>
      </g>
     </g>
     <g id="line2d_26">
      <g>
       <use style="stroke:#000000;stroke-width:0.5;" x="322.272499105" xlink:href="#m741efc42ff" y="7.2"/>
      </g>
     </g>
     <g id="text_6">
      <!-- 4 -->
      <g transform="translate(316.959999105 371.996875)scale(0.2 -0.2)">
       <use xlink:href="#BitstreamVeraSans-Roman-34"/>
      </g>
     </g>
    </g>
    <g id="xtick_8">
     <g id="line2d_27">
      <path clip-path="url(#p99b4b0da67)" d="
M374.803 352.8
L374.803 7.2" style="fill:none;stroke:#000000;stroke-dasharray:1.000000,3.000000;stroke-dashoffset:0.0;stroke-width:0.5;"/>
     </g>
     <g id="line2d_28">
      <g>
       <use style="stroke:#000000;stroke-width:0.5;" x="374.803499463" xlink:href="#m93b0483c22" y="352.8"/>
      </g>
     </g>
     <g id="line2d_29">
      <g>
       <use style="stroke:#000000;stroke-width:0.5;" x="374.803499463" xlink:href="#m741efc42ff" y="7.2"/>
      </g>
     </g>
     <g id="text_7">
      <!-- 6 -->
      <g transform="translate(369.769124463 371.996875)scale(0.2 -0.2)">
       <use xlink:href="#BitstreamVeraSans-Roman-36"/>
      </g>
     </g>
    </g>
    <g id="xtick_9">
     <g id="line2d_30">
      <path clip-path="url(#p99b4b0da67)" d="
M427.334 352.8
L427.334 7.2" style="fill:none;stroke:#000000;stroke-dasharray:1.000000,3.000000;stroke-dashoffset:0.0;stroke-width:0.5;"/>
     </g>
     <g id="line2d_31">
      <g>
       <use style="stroke:#000000;stroke-width:0.5;" x="427.334499821" xlink:href="#m93b0483c22" y="352.8"/>
      </g>
     </g>
     <g id="line2d_32">
      <g>
       <use style="stroke:#000000;stroke-width:0.5;" x="427.334499821" xlink:href="#m741efc42ff" y="7.2"/>
      </g>
     </g>
     <g id="text_8">
      <!-- 8 -->
      <defs>
       <path d="
M31.7812 34.625
Q24.75 34.625 20.7188 30.8594
Q16.7031 27.0938 16.7031 20.5156
Q16.7031 13.9219 20.7188 10.1562
Q24.75 6.39062 31.7812 6.39062
Q38.8125 6.39062 42.8594 10.1719
Q46.9219 13.9688 46.9219 20.5156
Q46.9219 27.0938 42.8906 30.8594
Q38.875 34.625 31.7812 34.625
M21.9219 38.8125
Q15.5781 40.375 12.0312 44.7188
Q8.5 49.0781 8.5 55.3281
Q8.5 64.0625 14.7188 69.1406
Q20.9531 74.2188 31.7812 74.2188
Q42.6719 74.2188 48.875 69.1406
Q55.0781 64.0625 55.0781 55.3281
Q55.0781 49.0781 51.5312 44.7188
Q48 40.375 41.7031 38.8125
Q48.8281 37.1562 52.7969 32.3125
Q56.7812 27.4844 56.7812 20.5156
Q56.7812 9.90625 50.3125 4.23438
Q43.8438 -1.42188 31.7812 -1.42188
Q19.7344 -1.42188 13.25 4.23438
Q6.78125 9.90625 6.78125 20.5156
Q6.78125 27.4844 10.7812 32.3125
Q14.7969 37.1562 21.9219 38.8125
M18.3125 54.3906
Q18.3125 48.7344 21.8438 45.5625
Q25.3906 42.3906 31.7812 42.3906
Q38.1406 42.3906 41.7188 45.5625
Q45.3125 48.7344 45.3125 54.3906
Q45.3125 60.0625 41.7188 63.2344
Q38.1406 66.4062 31.7812 66.4062
Q25.3906 66.4062 21.8438 63.2344
Q18.3125 60.0625 18.3125 54.3906" id="BitstreamVeraSans-Roman-38"/>
      </defs>
      <g transform="translate(422.334499821 371.996875)scale(0.2 -0.2)">
       <use xlink:href="#BitstreamVeraSans-Roman-38"/>
      </g>
     </g>
    </g>
    <g id="xtick_10"/>
    <g id="xtick_11">
     <g id="line2d_33">
      <defs>
       <path d="
M0 0
L0 -2" id="m177f7580d0" style="stroke:#000000;stroke-width:0.5;"/>
      </defs>
      <g>
       <use style="stroke:#000000;stroke-width:0.5;" x="59.6174973142" xlink:href="#m177f7580d0" y="352.8"/>
      </g>
     </g>
     <g id="line2d_34">
      <defs>
       <path d="
M0 0
L0 2" id="m5284c7e2a0" style="stroke:#000000;stroke-width:0.5;"/>
      </defs>
      <g>
       <use style="stroke:#000000;stroke-width:0.5;" x="59.6174973142" xlink:href="#m5284c7e2a0" y="7.2"/>
      </g>
     </g>
    </g>
    <g id="xtick_12">
     <g id="line2d_35">
      <g>
       <use style="stroke:#000000;stroke-width:0.5;" x="112.148497672" xlink:href="#m177f7580d0" y="352.8"/>
      </g>
     </g>
     <g id="line2d_36">
      <g>
       <use style="stroke:#000000;stroke-width:0.5;" x="112.148497672" xlink:href="#m5284c7e2a0" y="7.2"/>
      </g>
     </g>
    </g>
    <g id="xtick_13">
     <g id="line2d_37">
      <g>
       <use style="stroke:#000000;stroke-width:0.5;" x="164.67949803" xlink:href="#m177f7580d0" y="352.8"/>
      </g>
     </g>
     <g id="line2d_38">
      <g>
       <use style="stroke:#000000;stroke-width:0.5;" x="164.67949803" xlink:href="#m5284c7e2a0" y="7.2"/>
      </g>
     </g>
    </g>
    <g id="xtick_14">
     <g id="line2d_39">
      <g>
       <use style="stroke:#000000;stroke-width:0.5;" x="217.210498389" xlink:href="#m177f7580d0" y="352.8"/>
      </g>
     </g>
     <g id="line2d_40">
      <g>
       <use style="stroke:#000000;stroke-width:0.5;" x="217.210498389" xlink:href="#m5284c7e2a0" y="7.2"/>
      </g>
     </g>
    </g>
    <g id="xtick_15">
     <g id="line2d_41">
      <g>
       <use style="stroke:#000000;stroke-width:0.5;" x="269.741498747" xlink:href="#m177f7580d0" y="352.8"/>
      </g>
     </g>
     <g id="line2d_42">
      <g>
       <use style="stroke:#000000;stroke-width:0.5;" x="269.741498747" xlink:href="#m5284c7e2a0" y="7.2"/>
      </g>
     </g>
    </g>
    <g id="xtick_16">
     <g id="line2d_43">
      <g>
       <use style="stroke:#000000;stroke-width:0.5;" x="322.272499105" xlink:href="#m177f7580d0" y="352.8"/>
      </g>
     </g>
     <g id="line2d_44">
      <g>
       <use style="stroke:#000000;stroke-width:0.5;" x="322.272499105" xlink:href="#m5284c7e2a0" y="7.2"/>
      </g>
     </g>
    </g>
    <g id="xtick_17">
     <g id="line2d_45">
      <g>
       <use style="stroke:#000000;stroke-width:0.5;" x="374.803499463" xlink:href="#m177f7580d0" y="352.8"/>
      </g>
     </g>
     <g id="line2d_46">
      <g>
       <use style="stroke:#000000;stroke-width:0.5;" x="374.803499463" xlink:href="#m5284c7e2a0" y="7.2"/>
      </g>
     </g>
    </g>
    <g id="xtick_18">
     <g id="line2d_47">
      <g>
       <use style="stroke:#000000;stroke-width:0.5;" x="427.334499821" xlink:href="#m177f7580d0" y="352.8"/>
      </g>
     </g>
     <g id="line2d_48">
      <g>
       <use style="stroke:#000000;stroke-width:0.5;" x="427.334499821" xlink:href="#m5284c7e2a0" y="7.2"/>
      </g>
     </g>
    </g>
    <g id="text_9">
     <!-- log10 of Df -->
     <defs>
      <path id="BitstreamVeraSans-Roman-20"/>
      <path d="
M12.4062 8.29688
L28.5156 8.29688
L28.5156 63.9219
L10.9844 60.4062
L10.9844 69.3906
L28.4219 72.9062
L38.2812 72.9062
L38.2812 8.29688
L54.3906 8.29688
L54.3906 0
L12.4062 0
z
" id="BitstreamVeraSans-Roman-31"/>
      <path d="
M30.6094 48.3906
Q23.3906 48.3906 19.1875 42.75
Q14.9844 37.1094 14.9844 27.2969
Q14.9844 17.4844 19.1562 11.8438
Q23.3438 6.20312 30.6094 6.20312
Q37.7969 6.20312 41.9844 11.8594
Q46.1875 17.5312 46.1875 27.2969
Q46.1875 37.0156 41.9844 42.7031
Q37.7969 48.3906 30.6094 48.3906
M30.6094 56
Q42.3281 56 49.0156 48.375
Q55.7188 40.7656 55.7188 27.2969
Q55.7188 13.875 49.0156 6.21875
Q42.3281 -1.42188 30.6094 -1.42188
Q18.8438 -1.42188 12.1719 6.21875
Q5.51562 13.875 5.51562 27.2969
Q5.51562 40.7656 12.1719 48.375
Q18.8438 56 30.6094 56" id="BitstreamVeraSans-Roman-6f"/>
      <path d="
M9.42188 75.9844
L18.4062 75.9844
L18.4062 0
L9.42188 0
z
" id="BitstreamVeraSans-Roman-6c"/>
      <path d="
M19.6719 64.7969
L19.6719 8.10938
L31.5938 8.10938
Q46.6875 8.10938 53.6875 14.9375
Q60.6875 21.7812 60.6875 36.5312
Q60.6875 51.1719 53.6875 57.9844
Q46.6875 64.7969 31.5938 64.7969
z

M9.8125 72.9062
L30.0781 72.9062
Q51.2656 72.9062 61.1719 64.0938
Q71.0938 55.2812 71.0938 36.5312
Q71.0938 17.6719 61.125 8.82812
Q51.1719 0 30.0781 0
L9.8125 0
z
" id="BitstreamVeraSans-Roman-44"/>
      <path d="
M45.4062 27.9844
Q45.4062 37.75 41.375 43.1094
Q37.3594 48.4844 30.0781 48.4844
Q22.8594 48.4844 18.8281 43.1094
Q14.7969 37.75 14.7969 27.9844
Q14.7969 18.2656 18.8281 12.8906
Q22.8594 7.51562 30.0781 7.51562
Q37.3594 7.51562 41.375 12.8906
Q45.4062 18.2656 45.4062 27.9844
M54.3906 6.78125
Q54.3906 -7.17188 48.1875 -13.9844
Q42 -20.7969 29.2031 -20.7969
Q24.4688 -20.7969 20.2656 -20.0938
Q16.0625 -19.3906 12.1094 -17.9219
L12.1094 -9.1875
Q16.0625 -11.3281 19.9219 -12.3438
Q23.7812 -13.375 27.7812 -13.375
Q36.625 -13.375 41.0156 -8.76562
Q45.4062 -4.15625 45.4062 5.17188
L45.4062 9.625
Q42.625 4.78125 38.2812 2.39062
Q33.9375 0 27.875 0
Q17.8281 0 11.6719 7.65625
Q5.51562 15.3281 5.51562 27.9844
Q5.51562 40.6719 11.6719 48.3281
Q17.8281 56 27.875 56
Q33.9375 56 38.2812 53.6094
Q42.625 51.2188 45.4062 46.3906
L45.4062 54.6875
L54.3906 54.6875
z
" id="BitstreamVeraSans-Roman-67"/>
      <path d="
M37.1094 75.9844
L37.1094 68.5
L28.5156 68.5
Q23.6875 68.5 21.7969 66.5469
Q19.9219 64.5938 19.9219 59.5156
L19.9219 54.6875
L34.7188 54.6875
L34.7188 47.7031
L19.9219 47.7031
L19.9219 0
L10.8906 0
L10.8906 47.7031
L2.29688 47.7031
L2.29688 54.6875
L10.8906 54.6875
L10.8906 58.5
Q10.8906 67.625 15.1406 71.7969
Q19.3906 75.9844 28.6094 75.9844
z
" id="BitstreamVeraSans-Roman-66"/>
     </defs>
     <g transform="translate(175.0234375 396.353125)scale(0.2 -0.2)">
      <use xlink:href="#BitstreamVeraSans-Roman-6c"/>
      <use x="27.783203125" xlink:href="#BitstreamVeraSans-Roman-6f"/>
      <use x="88.96484375" xlink:href="#BitstreamVeraSans-Roman-67"/>
      <use x="152.44140625" xlink:href="#BitstreamVeraSans-Roman-31"/>
      <use x="216.064453125" xlink:href="#BitstreamVeraSans-Roman-30"/>
      <use x="279.6875" xlink:href="#BitstreamVeraSans-Roman-20"/>
      <use x="311.474609375" xlink:href="#BitstreamVeraSans-Roman-6f"/>
      <use x="372.65625" xlink:href="#BitstreamVeraSans-Roman-66"/>
      <use x="407.861328125" xlink:href="#BitstreamVeraSans-Roman-20"/>
      <use x="439.6484375" xlink:href="#BitstreamVeraSans-Roman-44"/>
      <use x="516.650390625" xlink:href="#BitstreamVeraSans-Roman-66"/>
     </g>
    </g>
   </g>
   <g id="matplotlib.axis_2">
    <g id="ytick_1">
     <g id="line2d_49">
      <path clip-path="url(#p99b4b0da67)" d="
M7.2 352.8
L453.6 352.8" style="fill:none;stroke:#000000;stroke-dasharray:1.000000,3.000000;stroke-dashoffset:0.0;stroke-width:0.5;"/>
     </g>
     <g id="line2d_50">
      <defs>
       <path d="
M0 0
L4 0" id="m728421d6d4" style="stroke:#000000;stroke-width:0.5;"/>
      </defs>
      <g>
       <use style="stroke:#000000;stroke-width:0.5;" x="7.2" xlink:href="#m728421d6d4" y="352.8"/>
      </g>
     </g>
     <g id="line2d_51">
      <defs>
       <path d="
M0 0
L-4 0" id="mcb0005524f" style="stroke:#000000;stroke-width:0.5;"/>
      </defs>
      <g>
       <use style="stroke:#000000;stroke-width:0.5;" x="453.6" xlink:href="#mcb0005524f" y="352.8"/>
      </g>
     </g>
    </g>
    <g id="ytick_2">
     <g id="line2d_52">
      <path clip-path="url(#p99b4b0da67)" d="
M7.2 284.364
L453.6 284.364" style="fill:none;stroke:#000000;stroke-dasharray:1.000000,3.000000;stroke-dashoffset:0.0;stroke-width:0.5;"/>
     </g>
     <g id="line2d_53">
      <g>
       <use style="stroke:#000000;stroke-width:0.5;" x="7.2" xlink:href="#m728421d6d4" y="284.364356436"/>
      </g>
     </g>
     <g id="line2d_54">
      <g>
       <use style="stroke:#000000;stroke-width:0.5;" x="453.6" xlink:href="#mcb0005524f" y="284.364356436"/>
      </g>
     </g>
    </g>
    <g id="ytick_3">
     <g id="line2d_55">
      <path clip-path="url(#p99b4b0da67)" d="
M7.2 215.929
L453.6 215.929" style="fill:none;stroke:#000000;stroke-dasharray:1.000000,3.000000;stroke-dashoffset:0.0;stroke-width:0.5;"/>
     </g>
     <g id="line2d_56">
      <g>
       <use style="stroke:#000000;stroke-width:0.5;" x="7.2" xlink:href="#m728421d6d4" y="215.928712871"/>
      </g>
     </g>
     <g id="line2d_57">
      <g>
       <use style="stroke:#000000;stroke-width:0.5;" x="453.6" xlink:href="#mcb0005524f" y="215.928712871"/>
      </g>
     </g>
    </g>
    <g id="ytick_4">
     <g id="line2d_58">
      <path clip-path="url(#p99b4b0da67)" d="
M7.2 147.493
L453.6 147.493" style="fill:none;stroke:#000000;stroke-dasharray:1.000000,3.000000;stroke-dashoffset:0.0;stroke-width:0.5;"/>
     </g>
     <g id="line2d_59">
      <g>
       <use style="stroke:#000000;stroke-width:0.5;" x="7.2" xlink:href="#m728421d6d4" y="147.493069307"/>
      </g>
     </g>
     <g id="line2d_60">
      <g>
       <use style="stroke:#000000;stroke-width:0.5;" x="453.6" xlink:href="#mcb0005524f" y="147.493069307"/>
      </g>
     </g>
    </g>
    <g id="ytick_5">
     <g id="line2d_61">
      <path clip-path="url(#p99b4b0da67)" d="
M7.2 79.0574
L453.6 79.0574" style="fill:none;stroke:#000000;stroke-dasharray:1.000000,3.000000;stroke-dashoffset:0.0;stroke-width:0.5;"/>
     </g>
     <g id="line2d_62">
      <g>
       <use style="stroke:#000000;stroke-width:0.5;" x="7.2" xlink:href="#m728421d6d4" y="79.0574257426"/>
      </g>
     </g>
     <g id="line2d_63">
      <g>
       <use style="stroke:#000000;stroke-width:0.5;" x="453.6" xlink:href="#mcb0005524f" y="79.0574257426"/>
      </g>
     </g>
    </g>
    <g id="ytick_6">
     <g id="line2d_64">
      <path clip-path="url(#p99b4b0da67)" d="
M7.2 10.6218
L453.6 10.6218" style="fill:none;stroke:#000000;stroke-dasharray:1.000000,3.000000;stroke-dashoffset:0.0;stroke-width:0.5;"/>
     </g>
     <g id="line2d_65">
      <g>
       <use style="stroke:#000000;stroke-width:0.5;" x="7.2" xlink:href="#m728421d6d4" y="10.6217821782"/>
      </g>
     </g>
     <g id="line2d_66">
      <g>
       <use style="stroke:#000000;stroke-width:0.5;" x="453.6" xlink:href="#mcb0005524f" y="10.6217821782"/>
      </g>
     </g>
    </g>
   </g>
   <g id="text_10">
    <!-- {f15-f19}, 5-D -->
    <defs>
     <path d="
M12.5 -9.28125
L15.9219 -9.28125
Q22.75 -9.28125 24.8281 -7.17188
Q26.9062 -5.07812 26.9062 1.90625
L26.9062 14.0156
Q26.9062 21.625 29.0938 25.0938
Q31.2969 28.5625 36.7188 29.8906
Q31.2969 31.1094 29.0938 34.5625
Q26.9062 38.0312 26.9062 45.7031
L26.9062 57.8125
Q26.9062 64.75 24.8281 66.875
Q22.75 69 15.9219 69
L12.5 69
L12.5 75.9844
L15.5781 75.9844
Q27.7344 75.9844 31.8125 72.3906
Q35.8906 68.7969 35.8906 58.0156
L35.8906 46.2969
Q35.8906 39.0156 38.5156 36.2031
Q41.1562 33.4062 48.0938 33.4062
L51.125 33.4062
L51.125 26.4219
L48.0938 26.4219
Q41.1562 26.4219 38.5156 23.5781
Q35.8906 20.75 35.8906 13.375
L35.8906 1.70312
Q35.8906 -9.07812 31.8125 -12.6875
Q27.7344 -16.3125 15.5781 -16.3125
L12.5 -16.3125
z
" id="BitstreamVeraSans-Roman-7d"/>
     <path d="
M10.9844 1.51562
L10.9844 10.5
Q14.7031 8.73438 18.5 7.8125
Q22.3125 6.89062 25.9844 6.89062
Q35.75 6.89062 40.8906 13.4531
Q46.0469 20.0156 46.7812 33.4062
Q43.9531 29.2031 39.5938 26.9531
Q35.25 24.7031 29.9844 24.7031
Q19.0469 24.7031 12.6719 31.3125
Q6.29688 37.9375 6.29688 49.4219
Q6.29688 60.6406 12.9375 67.4219
Q19.5781 74.2188 30.6094 74.2188
Q43.2656 74.2188 49.9219 64.5156
Q56.5938 54.8281 56.5938 36.375
Q56.5938 19.1406 48.4062 8.85938
Q40.2344 -1.42188 26.4219 -1.42188
Q22.7031 -1.42188 18.8906 -0.6875
Q15.0938 0.046875 10.9844 1.51562
M30.6094 32.4219
Q37.25 32.4219 41.125 36.9531
Q45.0156 41.5 45.0156 49.4219
Q45.0156 57.2812 41.125 61.8438
Q37.25 66.4062 30.6094 66.4062
Q23.9688 66.4062 20.0938 61.8438
Q16.2188 57.2812 16.2188 49.4219
Q16.2188 41.5 20.0938 36.9531
Q23.9688 32.4219 30.6094 32.4219" id="BitstreamVeraSans-Roman-39"/>
     <path d="
M51.125 -9.28125
L51.125 -16.3125
L48.0938 -16.3125
Q35.9375 -16.3125 31.8125 -12.6875
Q27.6875 -9.07812 27.6875 1.70312
L27.6875 13.375
Q27.6875 20.75 25.0469 23.5781
Q22.4062 26.4219 15.4844 26.4219
L12.5 26.4219
L12.5 33.4062
L15.4844 33.4062
Q22.4688 33.4062 25.0781 36.2031
Q27.6875 39.0156 27.6875 46.2969
L27.6875 58.0156
Q27.6875 68.7969 31.8125 72.3906
Q35.9375 75.9844 48.0938 75.9844
L51.125 75.9844
L51.125 69
L47.7969 69
Q40.9219 69 38.8125 66.8438
Q36.7188 64.7031 36.7188 57.8125
L36.7188 45.7031
Q36.7188 38.0312 34.5 34.5625
Q32.2812 31.1094 26.9062 29.8906
Q32.3281 28.5625 34.5156 25.0938
Q36.7188 21.625 36.7188 14.0156
L36.7188 1.90625
Q36.7188 -4.98438 38.8125 -7.125
Q40.9219 -9.28125 47.7969 -9.28125
z
" id="BitstreamVeraSans-Roman-7b"/>
     <path d="
M11.7188 12.4062
L22.0156 12.4062
L22.0156 4
L14.0156 -11.625
L7.71875 -11.625
L11.7188 4
z
" id="BitstreamVeraSans-Roman-2c"/>
     <path d="
M10.7969 72.9062
L49.5156 72.9062
L49.5156 64.5938
L19.8281 64.5938
L19.8281 46.7344
Q21.9688 47.4688 24.1094 47.8281
Q26.2656 48.1875 28.4219 48.1875
Q40.625 48.1875 47.75 41.5
Q54.8906 34.8125 54.8906 23.3906
Q54.8906 11.625 47.5625 5.09375
Q40.2344 -1.42188 26.9062 -1.42188
Q22.3125 -1.42188 17.5469 -0.640625
Q12.7969 0.140625 7.71875 1.70312
L7.71875 11.625
Q12.1094 9.23438 16.7969 8.0625
Q21.4844 6.89062 26.7031 6.89062
Q35.1562 6.89062 40.0781 11.3281
Q45.0156 15.7656 45.0156 23.3906
Q45.0156 31 40.0781 35.4375
Q35.1562 39.8906 26.7031 39.8906
Q22.75 39.8906 18.8125 39.0156
Q14.8906 38.1406 10.7969 36.2812
z
" id="BitstreamVeraSans-Roman-35"/>
    </defs>
    <g transform="translate(300.15325 345.888)scale(0.2 -0.2)">
     <use xlink:href="#BitstreamVeraSans-Roman-7b"/>
     <use x="63.623046875" xlink:href="#BitstreamVeraSans-Roman-66"/>
     <use x="98.828125" xlink:href="#BitstreamVeraSans-Roman-31"/>
     <use x="162.451171875" xlink:href="#BitstreamVeraSans-Roman-35"/>
     <use x="226.07421875" xlink:href="#BitstreamVeraSans-Roman-2d"/>
     <use x="262.158203125" xlink:href="#BitstreamVeraSans-Roman-66"/>
     <use x="297.36328125" xlink:href="#BitstreamVeraSans-Roman-31"/>
     <use x="360.986328125" xlink:href="#BitstreamVeraSans-Roman-39"/>
     <use x="424.609375" xlink:href="#BitstreamVeraSans-Roman-7d"/>
     <use x="488.232421875" xlink:href="#BitstreamVeraSans-Roman-2c"/>
     <use x="520.01953125" xlink:href="#BitstreamVeraSans-Roman-20"/>
     <use x="551.806640625" xlink:href="#BitstreamVeraSans-Roman-35"/>
     <use x="615.4296875" xlink:href="#BitstreamVeraSans-Roman-2d"/>
     <use x="651.513671875" xlink:href="#BitstreamVeraSans-Roman-44"/>
    </g>
   </g>
   <g id="text_11">
    <!-- 1.2.1 -->
    <defs>
     <path d="
M10.6875 12.4062
L21 12.4062
L21 0
L10.6875 0
z
" id="BitstreamVeraSans-Roman-2e"/>
    </defs>
    <g style="fill:#808080;" transform="translate(218.6890625 347.2643125)scale(0.1 -0.1)">
     <use xlink:href="#BitstreamVeraSans-Roman-31"/>
     <use x="63.623046875" xlink:href="#BitstreamVeraSans-Roman-2e"/>
     <use x="95.41015625" xlink:href="#BitstreamVeraSans-Roman-32"/>
     <use x="159.033203125" xlink:href="#BitstreamVeraSans-Roman-2e"/>
     <use x="190.8203125" xlink:href="#BitstreamVeraSans-Roman-31"/>
    </g>
   </g>
  </g>
 </g>
 <defs>
  <clipPath id="p99b4b0da67">
   <rect height="345.6" width="446.4" x="7.2" y="7.2"/>
  </clipPath>
 </defs>
</svg>
