<?xml version="1.0" encoding="utf-8" standalone="no"?>
<!DOCTYPE svg PUBLIC "-//W3C//DTD SVG 1.1//EN"
  "http://www.w3.org/Graphics/SVG/1.1/DTD/svg11.dtd">
<!-- Created with matplotlib (http://matplotlib.org/) -->
<svg height="407pt" version="1.1" viewBox="0 0 460 407" width="460pt" xmlns="http://www.w3.org/2000/svg" xmlns:xlink="http://www.w3.org/1999/xlink">
 <defs>
  <style type="text/css">
*{stroke-linecap:butt;stroke-linejoin:round;}
  </style>
 </defs>
 <g id="figure_1">
  <g id="patch_1">
   <path d="
M0 407.712
L460.8 407.712
L460.8 0
L0 0
z
" style="fill:#ffffff;"/>
  </g>
  <g id="axes_1">
   <g id="patch_2">
    <path d="
M7.2 352.8
L453.6 352.8
L453.6 7.2
L7.2 7.2
z
" style="fill:#ffffff;"/>
   </g>
   <g id="line2d_1">
    <path clip-path="url(#p99b4b0da67)" d="
M-1 155.097
L-0.962073 155.097
L-0.962073 154.147
L-0.818649 154.147
L-0.72662 152.246
L-0.688859 152.246
L-0.579758 148.444
L-0.562533 148.444
L-0.562533 147.493
L-0.224818 147.493
L-0.224818 146.543
L-0.093869 146.543
L-0.093869 145.592
L0.121053 145.592
L0.158605 143.691
L0.298542 143.691
L0.298542 142.741
L0.528953 142.741
L0.636203 139.889
L0.686541 139.889
L0.686541 138.939
L0.997474 138.939
L1.02885 136.087
L1.19765 136.087
L1.19765 135.137
L1.35603 135.137
L1.35603 134.186
L1.50302 134.186
L1.58692 130.384
L1.63344 130.384
L1.66737 127.533
L1.77345 127.533
L1.77345 126.582
L1.97361 126.582
L1.97361 125.632
L2.13141 125.632
L2.21224 122.78
L2.3 122.78
L2.36058 120.879
L2.42684 120.879
L2.53201 118.028
L2.59027 118.028
L2.59161 116.127
L2.741 116.127
L2.84776 113.275
L2.8596 113.275
L2.93664 110.424
L3.08845 110.424
L3.15287 108.523
L3.22916 108.523
L3.32222 105.671
L3.37063 105.671
L3.41972 102.82
L3.48386 102.82
L3.48386 101.869
L3.60343 101.869
L3.71104 99.0178
L3.79035 99.0178
L3.85055 94.2653
L3.98649 94.2653
L4.0491 90.4634
L4.09865 90.4634
L4.15001 87.6119
L4.41859 87.6119
L4.42113 85.7109
L4.53434 85.7109
L4.57512 83.8099
L4.72478 83.8099
L4.75547 80.0079
L4.85726 80.0079
L4.91084 75.2554
L5.09492 75.2554
L5.20599 70.503
L5.21915 70.503
L5.29112 66.701
L5.34284 66.701
L5.399 64.8
L5.48602 64.8
L5.58796 61.9485
L5.61707 61.9485
L5.71873 59.097
L5.75216 59.097
L5.80595 55.295
L5.89424 55.295
L5.89424 54.3446
L6.07047 54.3446
L6.077 52.4436
L6.20194 52.4436
L6.24891 49.5921
L6.31687 49.5921
L6.40004 47.6911
L6.43131 47.6911
L6.54098 43.8891
L6.55052 43.8891
L6.57298 41.9881
L6.77774 41.9881
L6.82728 39.1366
L6.9672 39.1366
L7.04103 37.2356
L106.151 37.2356
L106.151 36.2851
L170.238 36.2851
L170.238 35.3347
L178.013 35.3347
L178.013 34.3842
L192.021 34.3842
L192.021 33.4337
L196.3 33.4337
L196.3 32.4832
L198.092 32.4832
L198.092 31.5327
L198.86 31.5327
L198.86 30.5822
L199.884 30.5822
L199.884 29.6317
L202.193 29.6317
L202.193 28.6812
L203.209 28.6812
L203.209 27.7307
L206.536 27.7307
L206.536 26.7802
L212.38 26.7802
L212.38 25.8297
L217.153 25.8297
L217.153 24.8792
L225.06 24.8792
L225.06 16.3248
L225.872 16.3248
L225.872 15.3743
L226.161 15.3743
L226.161 14.4238
L226.305 14.4238
L226.305 13.4733
L226.506 13.4733
L226.506 12.5228
L228.604 12.5228
L228.604 11.5723
L229.309 11.5723
L229.309 10.6218
L229.309 10.6218
L453.6 10.6218
L453.6 10.6218" style="fill:none;stroke:#ff0000;stroke-linecap:square;stroke-width:3.0;"/>
   </g>
   <g id="line2d_2">
    <path clip-path="url(#p99b4b0da67)" d="
M233.607 352.8
L233.607 351.85
L234.298 351.85
L234.298 350.899
L235.773 350.899
L235.773 349.949
L237.093 349.949
L237.093 348.998
L237.285 348.998
L237.285 348.048
L238.003 348.048
L238.003 347.097
L238.125 347.097
L238.125 346.147
L240.163 346.147
L240.163 345.196
L240.369 345.196
L240.369 344.246
L241.424 344.246
L241.424 343.295
L241.995 343.295
L241.995 342.345
L242.747 342.345
L242.747 341.394
L242.899 341.394
L242.899 340.444
L243.459 340.444
L243.462 338.543
L244.119 338.543
L244.119 337.592
L244.937 337.592
L244.937 336.642
L245.263 336.642
L245.316 334.741
L246.382 334.741
L246.382 333.79
L246.627 333.79
L246.666 331.889
L246.971 331.889
L246.971 330.939
L247.265 330.939
L247.265 329.988
L247.667 329.988
L247.667 329.038
L248.242 329.038
L248.343 327.137
L248.577 327.137
L248.577 326.186
L248.743 326.186
L248.743 325.236
L248.996 325.236
L249.083 323.335
L249.704 323.335
L249.761 321.434
L250.097 321.434
L250.097 320.483
L250.43 320.483
L250.43 319.533
L250.988 319.533
L250.988 318.582
L251.197 318.582
L251.264 316.681
L251.913 316.681
L251.913 315.731
L252.545 315.731
L252.626 313.83
L253.016 313.83
L253.107 311.929
L253.384 311.929
L253.492 310.028
L253.581 310.028
L253.581 309.077
L253.734 309.077
L253.734 308.127
L253.912 308.127
L253.912 307.176
L254.164 307.176
L254.164 306.226
L254.409 306.226
L254.471 304.325
L254.921 304.325
L254.921 303.374
L255.347 303.374
L255.347 302.424
L255.62 302.424
L255.62 301.473
L255.93 301.473
L255.93 300.523
L256.375 300.523
L256.375 299.572
L256.861 299.572
L256.915 296.721
L256.999 296.721
L257.017 294.82
L257.661 294.82
L257.674 292.919
L257.918 292.919
L257.979 290.067
L258.616 290.067
L258.616 289.117
L258.754 289.117
L258.765 287.216
L259.314 287.216
L259.383 284.364
L259.474 284.364
L259.474 283.414
L259.624 283.414
L259.624 282.463
L259.772 282.463
L259.772 281.513
L260.491 281.513
L260.556 279.612
L260.647 279.612
L260.746 277.711
L261.07 277.711
L261.07 276.76
L261.277 276.76
L261.277 275.81
L261.489 275.81
L261.489 274.859
L262.031 274.859
L262.031 273.909
L262.723 273.909
L262.789 271.057
L262.914 271.057
L263.009 268.206
L263.227 268.206
L263.25 266.305
L263.628 266.305
L263.628 265.354
L263.833 265.354
L263.899 262.503
L264.259 262.503
L264.365 259.651
L264.457 259.651
L264.538 256.8
L264.633 256.8
L264.672 254.899
L264.851 254.899
L264.915 252.998
L265.029 252.998
L265.123 249.196
L265.18 249.196
L265.217 247.295
L265.459 247.295
L265.459 246.345
L265.625 246.345
L265.625 245.394
L265.81 245.394
L265.822 243.493
L266.258 243.493
L266.306 241.592
L266.404 241.592
L266.494 237.79
L266.714 237.79
L266.821 234.939
L267.021 234.939
L267.08 231.137
L267.245 231.137
L267.245 230.186
L267.425 230.186
L267.531 228.285
L267.706 228.285
L267.706 227.335
L267.928 227.335
L268.032 225.434
L268.06 225.434
L268.06 224.483
L268.281 224.483
L268.281 223.533
L268.633 223.533
L268.633 222.582
L269.331 222.582
L269.422 219.731
L269.652 219.731
L269.652 218.78
L269.77 218.78
L269.77 217.83
L269.945 217.83
L270.049 215.929
L270.563 215.929
L270.58 214.028
L271.121 214.028
L271.121 213.077
L271.237 213.077
L271.257 211.176
L271.381 211.176
L271.381 210.226
L271.71 210.226
L271.816 208.325
L271.853 208.325
L271.853 207.374
L271.974 207.374
L272.051 204.523
L272.186 204.523
L272.19 202.622
L272.36 202.622
L272.36 201.671
L272.653 201.671
L272.703 199.77
L272.995 199.77
L273.027 197.869
L273.134 197.869
L273.134 196.919
L273.359 196.919
L273.359 195.968
L273.535 195.968
L273.535 195.018
L273.691 195.018
L273.691 194.067
L273.95 194.067
L273.988 192.166
L274.112 192.166
L274.112 191.216
L274.232 191.216
L274.232 190.265
L274.898 190.265
L274.977 187.414
L275.02 187.414
L275.103 185.513
L275.327 185.513
L275.409 183.612
L275.9 183.612
L275.9 182.661
L277.117 182.661
L277.117 181.711
L277.479 181.711
L277.479 180.76
L277.718 180.76
L277.728 178.859
L277.938 178.859
L277.938 177.909
L278.313 177.909
L278.353 175.057
L278.743 175.057
L278.77 173.156
L279.103 173.156
L279.103 172.206
L279.432 172.206
L279.523 170.305
L279.584 170.305
L279.584 169.354
L279.926 169.354
L279.965 167.453
L280.039 167.453
L280.136 165.552
L280.376 165.552
L280.376 164.602
L280.977 164.602
L280.977 163.651
L281.607 163.651
L281.607 162.701
L281.844 162.701
L281.844 161.75
L284.047 161.75
L284.047 160.8
L284.187 160.8
L284.187 159.85
L284.599 159.85
L284.599 158.899
L284.786 158.899
L284.786 157.949
L285.488 157.949
L285.488 156.998
L285.632 156.998
L285.632 156.048
L286.028 156.048
L286.052 154.147
L286.368 154.147
L286.368 153.196
L286.866 153.196
L286.866 152.246
L287.445 152.246
L287.445 151.295
L288.129 151.295
L288.129 150.345
L288.867 150.345
L288.867 149.394
L290.04 149.394
L290.04 148.444
L291.344 148.444
L291.344 147.493
L291.54 147.493
L291.54 146.543
L292.438 146.543
L292.514 144.642
L293.726 144.642
L293.726 143.691
L294.135 143.691
L294.135 142.741
L294.288 142.741
L294.288 141.79
L294.592 141.79
L294.651 139.889
L295.629 139.889
L295.629 138.939
L295.776 138.939
L295.776 137.988
L296.241 137.988
L296.241 137.038
L296.723 137.038
L296.723 136.087
L297.4 136.087
L297.4 135.137
L297.916 135.137
L297.916 134.186
L298.141 134.186
L298.141 133.236
L298.392 133.236
L298.392 132.285
L298.72 132.285
L298.72 131.335
L298.848 131.335
L298.848 130.384
L300.335 130.384
L300.335 129.434
L300.614 129.434
L300.617 127.533
L301.624 127.533
L301.624 126.582
L302.708 126.582
L302.708 125.632
L306.028 125.632
L306.028 124.681
L307.451 124.681
L307.451 123.731
L307.599 123.731
L307.599 122.78
L308.311 122.78
L308.311 121.83
L308.477 121.83
L308.477 120.879
L310.357 120.879
L310.357 119.929
L310.863 119.929
L310.863 118.978
L314.166 118.978
L314.243 117.077
L315.844 117.077
L315.94 115.176
L316.136 115.176
L316.136 114.226
L316.35 114.226
L316.35 113.275
L318.088 113.275
L318.088 112.325
L324.544 112.325
L324.544 111.374
L325.042 111.374
L325.042 110.424
L326.607 110.424
L326.607 109.473
L327.173 109.473
L327.173 108.523
L328.204 108.523
L328.204 107.572
L329.048 107.572
L329.048 106.622
L330.166 106.622
L330.166 105.671
L331.408 105.671
L331.408 104.721
L332.023 104.721
L332.084 102.82
L333.047 102.82
L333.086 100.919
L334.977 100.919
L334.977 99.9683
L335.322 99.9683
L335.38 98.0673
L335.72 98.0673
L335.72 97.1168
L336.019 97.1168
L336.019 96.1663
L336.301 96.1663
L336.358 94.2653
L337.323 94.2653
L337.323 93.3149
L339.475 93.3149
L339.499 91.4139
L339.693 91.4139
L339.693 90.4634
L342.844 90.4634
L342.844 89.5129
L345.685 89.5129
L345.685 88.5624
L346.313 88.5624
L346.313 87.6119
L346.613 87.6119
L346.627 85.7109
L347.352 85.7109
L347.352 84.7604
L347.496 84.7604
L347.602 82.8594
L350.13 82.8594
L350.13 81.9089
L350.286 81.9089
L350.286 80.9584
L350.517 80.9584
L350.567 79.0574
L351.136 79.0574
L351.179 77.1564
L351.531 77.1564
L351.531 76.2059
L352.035 76.2059
L352.035 75.2554
L353.323 75.2554
L353.323 74.305
L358.752 74.305
L358.752 73.3545
L361.177 73.3545
L361.261 71.4535
L361.698 71.4535
L361.698 70.503
L362.066 70.503
L362.066 69.5525
L362.278 69.5525
L362.363 67.6515
L362.569 67.6515
L362.569 66.701
L365.355 66.701
L365.355 65.7505
L367.642 65.7505
L367.642 64.8
L368.42 64.8
L368.42 63.8495
L368.719 63.8495
L368.719 62.899
L372.41 62.899
L372.41 61.9485
L374.217 61.9485
L374.217 60.998
L375.382 60.998
L375.382 60.0475
L375.508 60.0475
L375.508 59.097
L375.627 59.097
L375.627 58.1465
L376.247 58.1465
L376.247 57.196
L377.324 57.196
L377.324 56.2455
L379.589 56.2455
L379.589 55.295
L382.487 55.295
L382.487 54.3446
L382.699 54.3446
L382.783 52.4436
L385.04 52.4436
L385.04 51.4931
L385.408 51.4931
L385.408 50.5426
L387.419 50.5426
L387.419 49.5921
L388.556 49.5921
L388.631 47.6911
L389.577 47.6911
L389.577 46.7406
L390.055 46.7406
L390.055 45.7901
L390.707 45.7901
L390.788 43.8891
L392.255 43.8891
L392.255 42.9386
L393.222 42.9386
L393.222 41.9881
L394.38 41.9881
L394.38 41.0376
L394.816 41.0376
L394.816 40.0871
L395.631 40.0871
L395.631 39.1366
L397.582 39.1366
L397.582 38.1861
L399.299 38.1861
L399.299 37.2356
L402.999 37.2356
L402.999 36.2851
L403.275 36.2851
L403.275 35.3347
L404.385 35.3347
L404.385 34.3842
L405.614 34.3842
L405.614 33.4337
L406.695 33.4337
L406.695 32.4832
L409.489 32.4832
L409.549 29.6317
L410.524 29.6317
L410.524 28.6812
L410.747 28.6812
L410.76 26.7802
L411.436 26.7802
L411.436 25.8297
L412.368 25.8297
L412.405 23.9287
L412.701 23.9287
L412.701 22.9782
L415.55 22.9782
L415.55 22.0277
L417.202 22.0277
L417.202 21.0772
L417.645 21.0772
L417.645 20.1267
L419.485 20.1267
L419.485 19.1762
L420.066 19.1762
L420.066 18.2257
L420.415 18.2257
L420.415 17.2752
L421.73 17.2752
L421.73 16.3248
L423.089 16.3248
L423.089 15.3743
L431.387 15.3743
L431.387 14.4238
L434.36 14.4238
L434.36 13.4733
L448.606 13.4733
L448.606 12.5228
L449.233 12.5228
L449.233 11.5723
L451.354 11.5723
L451.354 10.6218
L451.354 10.6218
L453.6 10.6218
L453.6 10.6218" style="fill:none;stroke:#00bfbf;stroke-linecap:square;"/>
   </g>
   <g id="line2d_3">
    <path clip-path="url(#p99b4b0da67)" d="
M227.662 352.8
L227.662 351.85
L229.813 351.85
L229.813 350.899
L233.607 350.899
L233.607 349.949
L234.298 349.949
L234.298 348.998
L235.773 348.998
L235.773 348.048
L236.349 348.048
L236.349 347.097
L236.738 347.097
L236.832 345.196
L237.093 345.196
L237.093 344.246
L237.285 344.246
L237.285 343.295
L237.445 343.295
L237.445 342.345
L237.999 342.345
L238.003 340.444
L238.125 340.444
L238.125 339.493
L238.317 339.493
L238.317 338.543
L240.84 338.543
L240.84 337.592
L241.091 337.592
L241.091 336.642
L241.208 336.642
L241.208 335.691
L241.424 335.691
L241.424 334.741
L241.745 334.741
L241.827 332.84
L241.995 332.84
L241.995 331.889
L242.718 331.889
L242.818 329.038
L243.138 329.038
L243.138 328.087
L243.459 328.087
L243.546 325.236
L244.119 325.236
L244.119 324.285
L244.279 324.285
L244.279 323.335
L244.577 323.335
L244.577 322.384
L244.694 322.384
L244.694 321.434
L244.915 321.434
L244.915 320.483
L245.205 320.483
L245.291 318.582
L246.382 318.582
L246.483 315.731
L246.666 315.731
L246.666 314.78
L247.265 314.78
L247.265 313.83
L247.735 313.83
L247.735 312.879
L247.859 312.879
L247.934 310.978
L248.343 310.978
L248.343 310.028
L248.743 310.028
L248.76 308.127
L248.996 308.127
L248.996 307.176
L249.205 307.176
L249.205 306.226
L249.704 306.226
L249.704 305.275
L249.833 305.275
L249.841 303.374
L250.371 303.374
L250.43 301.473
L250.982 301.473
L250.982 300.523
L251.122 300.523
L251.122 299.572
L251.264 299.572
L251.264 298.622
L251.786 298.622
L251.786 297.671
L252.381 297.671
L252.381 296.721
L252.607 296.721
L252.607 295.77
L253.265 295.77
L253.265 294.82
L253.384 294.82
L253.492 291.968
L253.581 291.968
L253.581 291.018
L254.164 291.018
L254.164 290.067
L254.755 290.067
L254.755 289.117
L255.344 289.117
L255.347 287.216
L255.62 287.216
L255.664 285.315
L255.93 285.315
L255.972 283.414
L256.375 283.414
L256.391 281.513
L256.861 281.513
L256.861 280.562
L257.445 280.562
L257.549 278.661
L257.661 278.661
L257.711 275.81
L257.831 275.81
L257.918 273.909
L258.457 273.909
L258.457 272.958
L258.616 272.958
L258.616 272.008
L258.902 272.008
L258.902 271.057
L259.19 271.057
L259.19 270.107
L259.317 270.107
L259.317 269.156
L259.624 269.156
L259.624 268.206
L259.772 268.206
L259.856 266.305
L260.113 266.305
L260.113 265.354
L260.254 265.354
L260.254 264.404
L260.556 264.404
L260.556 263.453
L260.746 263.453
L260.746 262.503
L260.908 262.503
L260.908 261.552
L261.07 261.552
L261.07 260.602
L261.277 260.602
L261.277 259.651
L261.489 259.651
L261.489 258.701
L261.903 258.701
L261.929 256.8
L262.723 256.8
L262.789 253.949
L262.914 253.949
L263.009 250.147
L263.247 250.147
L263.247 249.196
L263.899 249.196
L263.997 247.295
L264.131 247.295
L264.204 245.394
L264.365 245.394
L264.457 241.592
L264.637 241.592
L264.672 239.691
L264.797 239.691
L264.851 237.79
L264.989 237.79
L265.091 233.988
L265.137 233.988
L265.18 232.087
L265.274 232.087
L265.274 231.137
L265.457 231.137
L265.457 230.186
L265.599 230.186
L265.601 228.285
L265.747 228.285
L265.747 227.335
L265.869 227.335
L265.869 226.384
L266.02 226.384
L266.02 225.434
L266.263 225.434
L266.263 224.483
L266.409 224.483
L266.45 222.582
L266.542 222.582
L266.548 220.681
L266.714 220.681
L266.738 216.879
L266.946 216.879
L267.045 214.028
L267.146 214.028
L267.146 213.077
L267.603 213.077
L267.706 211.176
L267.807 211.176
L267.807 210.226
L268.31 210.226
L268.31 209.275
L268.426 209.275
L268.443 207.374
L268.653 207.374
L268.653 206.424
L268.87 206.424
L268.87 205.473
L269.248 205.473
L269.342 201.671
L269.387 201.671
L269.458 198.82
L269.832 198.82
L269.832 197.869
L270.049 197.869
L270.158 195.968
L270.314 195.968
L270.314 195.018
L270.606 195.018
L270.606 194.067
L270.717 194.067
L270.717 193.117
L271.081 193.117
L271.081 192.166
L271.237 192.166
L271.257 190.265
L271.381 190.265
L271.442 188.364
L272.117 188.364
L272.225 185.513
L272.36 185.513
L272.36 184.562
L272.653 184.562
L272.703 181.711
L272.843 181.711
L272.91 179.81
L272.995 179.81
L272.995 178.859
L273.535 178.859
L273.535 177.909
L273.691 177.909
L273.691 176.958
L274.276 176.958
L274.276 176.008
L274.9 176.008
L274.977 174.107
L275.136 174.107
L275.136 173.156
L275.299 173.156
L275.299 172.206
L275.545 172.206
L275.545 171.255
L275.731 171.255
L275.731 170.305
L276.465 170.305
L276.465 169.354
L276.709 169.354
L276.709 168.404
L277.117 168.404
L277.117 167.453
L277.389 167.453
L277.479 165.552
L277.67 165.552
L277.67 164.602
L278.335 164.602
L278.353 162.701
L278.454 162.701
L278.454 161.75
L278.77 161.75
L278.77 160.8
L279.432 160.8
L279.432 159.85
L279.584 159.85
L279.584 158.899
L280.039 158.899
L280.136 156.998
L280.848 156.998
L280.848 156.048
L280.97 156.048
L280.97 155.097
L282.039 155.097
L282.039 154.147
L282.378 154.147
L282.378 153.196
L282.821 153.196
L282.821 152.246
L283.618 152.246
L283.618 151.295
L284.16 151.295
L284.187 149.394
L285.126 149.394
L285.126 148.444
L285.488 148.444
L285.536 146.543
L286.028 146.543
L286.028 145.592
L286.368 145.592
L286.368 144.642
L286.539 144.642
L286.539 143.691
L287.835 143.691
L287.835 142.741
L288.129 142.741
L288.129 141.79
L290.344 141.79
L290.344 140.84
L290.947 140.84
L290.947 139.889
L291.344 139.889
L291.344 138.939
L292.438 138.939
L292.438 137.988
L293.796 137.988
L293.87 136.087
L293.968 136.087
L293.968 135.137
L294.288 135.137
L294.288 134.186
L294.651 134.186
L294.651 133.236
L294.838 133.236
L294.838 132.285
L295.629 132.285
L295.629 131.335
L295.776 131.335
L295.776 130.384
L296.241 130.384
L296.241 129.434
L296.592 129.434
L296.692 126.582
L296.885 126.582
L296.885 125.632
L297.35 125.632
L297.35 124.681
L298.141 124.681
L298.141 123.731
L300.335 123.731
L300.335 122.78
L303.119 122.78
L303.119 121.83
L305.069 121.83
L305.069 120.879
L305.575 120.879
L305.575 119.929
L305.721 119.929
L305.789 118.028
L306.028 118.028
L306.028 117.077
L307.451 117.077
L307.451 116.127
L307.577 116.127
L307.577 115.176
L308.311 115.176
L308.311 114.226
L308.477 114.226
L308.477 113.275
L310.357 113.275
L310.466 111.374
L310.863 111.374
L310.959 109.473
L311.496 109.473
L311.496 108.523
L311.844 108.523
L311.844 107.572
L312.982 107.572
L312.982 106.622
L313.474 106.622
L313.474 105.671
L314.166 105.671
L314.243 103.77
L314.304 103.77
L314.304 102.82
L315.94 102.82
L315.94 101.869
L318.088 101.869
L318.145 99.9683
L319.761 99.9683
L319.761 99.0178
L324.168 99.0178
L324.168 98.0673
L324.768 98.0673
L324.857 96.1663
L325.992 96.1663
L325.992 95.2158
L326.607 95.2158
L326.607 94.2653
L327.173 94.2653
L327.173 93.3149
L329.048 93.3149
L329.048 92.3644
L329.542 92.3644
L329.542 91.4139
L329.749 91.4139
L329.749 90.4634
L330.166 90.4634
L330.166 89.5129
L333.047 89.5129
L333.086 87.6119
L333.554 87.6119
L333.554 86.6614
L334.977 86.6614
L334.977 85.7109
L335.909 85.7109
L335.909 84.7604
L337.72 84.7604
L337.72 83.8099
L338.901 83.8099
L338.901 82.8594
L340.229 82.8594
L340.229 81.9089
L340.95 81.9089
L340.95 80.9584
L341.299 80.9584
L341.299 80.0079
L341.738 80.0079
L341.738 79.0574
L343.381 79.0574
L343.381 78.1069
L345.042 78.1069
L345.042 77.1564
L345.914 77.1564
L345.914 76.2059
L348.277 76.2059
L348.277 75.2554
L349.58 75.2554
L349.58 74.305
L350.23 74.305
L350.286 72.404
L351.179 72.404
L351.179 71.4535
L352.035 71.4535
L352.035 70.503
L355.202 70.503
L355.202 69.5525
L356.055 69.5525
L356.055 68.602
L358.738 68.602
L358.752 66.701
L359.135 66.701
L359.135 65.7505
L359.387 65.7505
L359.387 64.8
L359.539 64.8
L359.539 63.8495
L360.894 63.8495
L360.896 61.9485
L361.261 61.9485
L361.261 60.998
L361.698 60.998
L361.698 60.0475
L361.973 60.0475
L361.973 59.097
L363.52 59.097
L363.52 58.1465
L366.076 58.1465
L366.076 57.196
L367.642 57.196
L367.741 55.295
L368.42 55.295
L368.42 54.3446
L368.719 54.3446
L368.719 53.3941
L372.41 53.3941
L372.41 52.4436
L373.803 52.4436
L373.803 51.4931
L374.018 51.4931
L374.089 49.5921
L374.217 49.5921
L374.217 48.6416
L375.627 48.6416
L375.627 47.6911
L376.247 47.6911
L376.247 46.7406
L377.834 46.7406
L377.834 45.7901
L378.797 45.7901
L378.797 44.8396
L379.128 44.8396
L379.128 43.8891
L379.791 43.8891
L379.791 42.9386
L382.783 42.9386
L382.783 41.9881
L383.788 41.9881
L383.788 41.0376
L390.017 41.0376
L390.055 39.1366
L393.222 39.1366
L393.222 38.1861
L394.38 38.1861
L394.38 37.2356
L397.582 37.2356
L397.582 36.2851
L398.269 36.2851
L398.269 35.3347
L400.634 35.3347
L400.634 34.3842
L401.78 34.3842
L401.78 33.4337
L402.506 33.4337
L402.506 32.4832
L403.275 32.4832
L403.275 31.5327
L405.968 31.5327
L405.968 30.5822
L408.471 30.5822
L408.471 29.6317
L409.222 29.6317
L409.222 28.6812
L409.549 28.6812
L409.549 27.7307
L410.747 27.7307
L410.76 25.8297
L411.436 25.8297
L411.436 24.8792
L412.34 24.8792
L412.405 22.0277
L412.686 22.0277
L412.686 21.0772
L413.666 21.0772
L413.666 20.1267
L414.654 20.1267
L414.654 19.1762
L417.202 19.1762
L417.202 18.2257
L419.485 18.2257
L419.485 17.2752
L420.066 17.2752
L420.066 16.3248
L421.73 16.3248
L421.73 15.3743
L427.502 15.3743
L427.502 14.4238
L434.36 14.4238
L434.36 13.4733
L438.109 13.4733
L438.109 12.5228
L445.715 12.5228
L445.715 11.5723
L448.606 11.5723
L448.606 10.6218
L448.606 10.6218
L453.6 10.6218
L453.6 10.6218" style="fill:none;stroke:#bf00bf;stroke-linecap:square;"/>
   </g>
   <g id="line2d_4">
    <path clip-path="url(#p99b4b0da67)" d="
M218.468 352.8
L218.468 351.85
L226.528 351.85
L226.528 350.899
L227.662 350.899
L227.662 349.949
L229.813 349.949
L229.813 348.998
L230.151 348.998
L230.151 348.048
L230.892 348.048
L230.892 347.097
L232.962 347.097
L232.962 346.147
L233.607 346.147
L233.607 345.196
L234.159 345.196
L234.159 344.246
L234.801 344.246
L234.801 343.295
L234.983 343.295
L234.983 342.345
L235.372 342.345
L235.461 340.444
L235.751 340.444
L235.773 338.543
L236.308 338.543
L236.308 337.592
L236.449 337.592
L236.449 336.642
L236.571 336.642
L236.597 334.741
L237.285 334.741
L237.285 333.79
L237.445 333.79
L237.445 332.84
L238.003 332.84
L238.102 330.939
L238.125 330.939
L238.125 329.988
L238.317 329.988
L238.317 329.038
L238.612 329.038
L238.612 328.087
L239.222 328.087
L239.222 327.137
L239.345 327.137
L239.345 326.186
L239.526 326.186
L239.526 325.236
L239.886 325.236
L239.886 324.285
L240.488 324.285
L240.488 323.335
L240.84 323.335
L240.84 322.384
L241.208 322.384
L241.208 321.434
L241.41 321.434
L241.41 320.483
L241.732 320.483
L241.827 317.632
L241.995 317.632
L241.995 316.681
L242.718 316.681
L242.774 314.78
L242.834 314.78
L242.854 312.879
L243.138 312.879
L243.138 311.929
L243.459 311.929
L243.459 310.978
L243.71 310.978
L243.71 310.028
L243.989 310.028
L243.989 309.077
L244.179 309.077
L244.179 308.127
L244.428 308.127
L244.428 307.176
L244.566 307.176
L244.577 305.275
L244.694 305.275
L244.694 304.325
L244.889 304.325
L244.889 303.374
L245.025 303.374
L245.025 302.424
L245.307 302.424
L245.384 300.523
L245.475 300.523
L245.475 299.572
L246.382 299.572
L246.417 296.721
L247.633 296.721
L247.735 294.82
L247.934 294.82
L247.934 293.869
L248.328 293.869
L248.328 292.919
L248.743 292.919
L248.743 291.968
L249.064 291.968
L249.064 291.018
L249.449 291.018
L249.449 290.067
L249.704 290.067
L249.704 289.117
L249.851 289.117
L249.868 287.216
L250.006 287.216
L250.006 286.265
L250.122 286.265
L250.122 285.315
L250.43 285.315
L250.439 283.414
L250.832 283.414
L250.832 282.463
L250.982 282.463
L250.982 281.513
L251.219 281.513
L251.219 280.562
L251.786 280.562
L251.786 279.612
L252.279 279.612
L252.381 277.711
L252.513 277.711
L252.624 274.859
L252.848 274.859
L252.924 272.958
L253.042 272.958
L253.136 270.107
L253.535 270.107
L253.581 267.255
L253.904 267.255
L253.904 266.305
L254.018 266.305
L254.018 265.354
L254.26 265.354
L254.26 264.404
L254.48 264.404
L254.48 263.453
L255.014 263.453
L255.056 261.552
L255.176 261.552
L255.229 258.701
L255.708 258.701
L255.708 257.75
L255.972 257.75
L255.972 256.8
L256.307 256.8
L256.307 255.85
L256.689 255.85
L256.689 254.899
L256.857 254.899
L256.857 253.949
L256.972 253.949
L256.972 252.998
L257.456 252.998
L257.561 250.147
L257.661 250.147
L257.757 247.295
L257.831 247.295
L257.831 246.345
L258.288 246.345
L258.318 244.444
L258.608 244.444
L258.623 241.592
L259.213 241.592
L259.285 239.691
L259.383 239.691
L259.383 238.741
L259.746 238.741
L259.746 237.79
L260.036 237.79
L260.036 236.84
L260.147 236.84
L260.147 235.889
L260.334 235.889
L260.334 234.939
L260.556 234.939
L260.663 233.038
L260.746 233.038
L260.813 231.137
L261.055 231.137
L261.055 230.186
L261.378 230.186
L261.489 227.335
L261.813 227.335
L261.851 225.434
L261.941 225.434
L261.999 223.533
L262.665 223.533
L262.665 222.582
L262.781 222.582
L262.836 220.681
L262.904 220.681
L263.009 217.83
L263.035 217.83
L263.035 216.879
L263.504 216.879
L263.543 214.978
L263.774 214.978
L263.848 213.077
L263.894 213.077
L263.894 212.127
L264.11 212.127
L264.177 209.275
L264.434 209.275
L264.463 207.374
L264.588 207.374
L264.637 205.473
L264.77 205.473
L264.851 202.622
L264.982 202.622
L265.05 200.721
L265.18 200.721
L265.242 198.82
L265.313 198.82
L265.313 197.869
L265.562 197.869
L265.613 195.968
L265.869 195.968
L265.886 194.067
L266.039 194.067
L266.039 193.117
L266.16 193.117
L266.213 191.216
L266.273 191.216
L266.273 190.265
L266.548 190.265
L266.552 188.364
L266.679 188.364
L266.679 187.414
L266.875 187.414
L266.875 186.463
L267.146 186.463
L267.155 184.562
L267.341 184.562
L267.389 182.661
L267.613 182.661
L267.613 181.711
L267.792 181.711
L267.869 177.909
L268.047 177.909
L268.047 176.958
L268.387 176.958
L268.491 174.107
L268.502 174.107
L268.502 173.156
L269.182 173.156
L269.182 172.206
L269.517 172.206
L269.517 171.255
L270.005 171.255
L270.005 170.305
L270.454 170.305
L270.454 169.354
L270.835 169.354
L270.835 168.404
L271.387 168.404
L271.483 165.552
L272.117 165.552
L272.225 163.651
L272.384 163.651
L272.384 162.701
L272.995 162.701
L273.039 160.8
L273.206 160.8
L273.206 159.85
L273.469 159.85
L273.479 157.949
L274.019 157.949
L274.019 156.998
L274.276 156.998
L274.282 155.097
L274.421 155.097
L274.529 153.196
L275.136 153.196
L275.136 152.246
L275.287 152.246
L275.287 151.295
L275.545 151.295
L275.545 150.345
L276.37 150.345
L276.37 149.394
L276.767 149.394
L276.767 148.444
L277.123 148.444
L277.123 147.493
L277.389 147.493
L277.389 146.543
L277.67 146.543
L277.67 145.592
L277.819 145.592
L277.819 144.642
L278.048 144.642
L278.048 143.691
L278.776 143.691
L278.776 142.741
L278.947 142.741
L278.947 141.79
L279.561 141.79
L279.561 140.84
L279.922 140.84
L279.922 139.889
L280.122 139.889
L280.122 138.939
L280.408 138.939
L280.408 137.988
L280.77 137.988
L280.77 137.038
L281.578 137.038
L281.687 135.137
L281.789 135.137
L281.789 134.186
L282.285 134.186
L282.285 133.236
L283.216 133.236
L283.216 132.285
L284.871 132.285
L284.871 131.335
L285.495 131.335
L285.495 130.384
L285.678 130.384
L285.739 128.483
L286.272 128.483
L286.272 127.533
L288.742 127.533
L288.742 126.582
L290.947 126.582
L290.947 125.632
L291.344 125.632
L291.447 123.731
L291.605 123.731
L291.605 122.78
L291.934 122.78
L291.934 121.83
L292.444 121.83
L292.444 120.879
L292.92 120.879
L292.92 119.929
L293.149 119.929
L293.149 118.978
L293.598 118.978
L293.598 118.028
L293.796 118.028
L293.796 117.077
L294.203 117.077
L294.203 116.127
L294.481 116.127
L294.481 115.176
L294.744 115.176
L294.784 113.275
L295.971 113.275
L295.971 112.325
L297.19 112.325
L297.19 111.374
L299.041 111.374
L299.041 110.424
L301.189 110.424
L301.189 109.473
L302.02 109.473
L302.02 108.523
L303.047 108.523
L303.119 106.622
L303.425 106.622
L303.425 105.671
L303.683 105.671
L303.683 104.721
L303.992 104.721
L303.992 103.77
L304.618 103.77
L304.618 102.82
L305.069 102.82
L305.069 101.869
L305.721 101.869
L305.721 100.919
L306.651 100.919
L306.651 99.9683
L306.813 99.9683
L306.813 99.0178
L307.198 99.0178
L307.198 98.0673
L307.577 98.0673
L307.577 97.1168
L307.804 97.1168
L307.804 96.1663
L308.897 96.1663
L308.897 95.2158
L310.466 95.2158
L310.466 94.2653
L310.959 94.2653
L310.959 93.3149
L311.496 93.3149
L311.496 92.3644
L312.119 92.3644
L312.119 91.4139
L312.344 91.4139
L312.344 90.4634
L312.5 90.4634
L312.5 89.5129
L312.982 89.5129
L312.982 88.5624
L314.106 88.5624
L314.106 87.6119
L314.304 87.6119
L314.304 86.6614
L315.46 86.6614
L315.46 85.7109
L318.173 85.7109
L318.173 84.7604
L319.632 84.7604
L319.632 83.8099
L320.788 83.8099
L320.788 82.8594
L324.768 82.8594
L324.768 81.9089
L325.534 81.9089
L325.534 80.9584
L325.992 80.9584
L325.992 80.0079
L327.168 80.0079
L327.173 78.1069
L327.867 78.1069
L327.867 77.1564
L329.134 77.1564
L329.239 75.2554
L329.691 75.2554
L329.691 74.305
L330.2 74.305
L330.2 73.3545
L330.47 73.3545
L330.47 72.404
L331.861 72.404
L331.861 71.4535
L332.996 71.4535
L332.996 70.503
L333.554 70.503
L333.554 69.5525
L334.584 69.5525
L334.584 68.602
L335.422 68.602
L335.422 67.6515
L335.54 67.6515
L335.54 66.701
L337.889 66.701
L337.889 65.7505
L338.901 65.7505
L338.901 64.8
L339.203 64.8
L339.203 63.8495
L341.611 63.8495
L341.611 62.899
L341.928 62.899
L342.022 60.998
L344.341 60.998
L344.341 60.0475
L347.05 60.0475
L347.05 59.097
L347.972 59.097
L347.972 58.1465
L352.425 58.1465
L352.425 57.196
L354.171 57.196
L354.171 56.2455
L357.157 56.2455
L357.258 53.3941
L358.952 53.3941
L359.056 51.4931
L359.387 51.4931
L359.441 49.5921
L359.659 49.5921
L359.659 48.6416
L361.698 48.6416
L361.698 47.6911
L361.973 47.6911
L361.973 46.7406
L362.399 46.7406
L362.399 45.7901
L364.899 45.7901
L364.899 44.8396
L366.232 44.8396
L366.291 42.9386
L367.075 42.9386
L367.075 41.9881
L369.572 41.9881
L369.648 40.0871
L369.868 40.0871
L369.868 39.1366
L370.978 39.1366
L370.978 38.1861
L371.201 38.1861
L371.201 37.2356
L376.247 37.2356
L376.247 36.2851
L378.595 36.2851
L378.595 35.3347
L382.822 35.3347
L382.822 34.3842
L385.506 34.3842
L385.576 32.4832
L385.944 32.4832
L385.944 31.5327
L386.142 31.5327
L386.142 30.5822
L387.505 30.5822
L387.505 29.6317
L388.312 29.6317
L388.312 28.6812
L390.21 28.6812
L390.21 27.7307
L392.333 27.7307
L392.333 26.7802
L394.38 26.7802
L394.38 25.8297
L396.958 25.8297
L396.958 24.8792
L397.454 24.8792
L397.454 23.9287
L398.893 23.9287
L398.893 22.9782
L400.385 22.9782
L400.385 22.0277
L400.753 22.0277
L400.753 21.0772
L403.275 21.0772
L403.275 20.1267
L403.831 20.1267
L403.831 19.1762
L405.397 19.1762
L405.397 18.2257
L407.489 18.2257
L407.489 17.2752
L412.721 17.2752
L412.721 16.3248
L413.882 16.3248
L413.882 15.3743
L417.202 15.3743
L417.202 14.4238
L425.683 14.4238
L425.683 13.4733
L429.924 13.4733
L429.924 12.5228
L431.407 12.5228
L431.407 11.5723
L435.749 11.5723
L435.749 10.6218
L435.749 10.6218
L453.6 10.6218
L453.6 10.6218" style="fill:none;stroke:#000000;stroke-linecap:square;"/>
   </g>
   <g id="line2d_5">
    <path clip-path="url(#p99b4b0da67)" d="
M7.0865 352.8
L7.0865 351.85
L7.0865 351.85
L7.0865 351.85
L7.0865 350.899
L7.0865 350.899
L7.0865 350.899
L7.0865 349.949
L7.0865 349.949
L7.0865 349.949
L7.0865 348.998
L7.0865 348.998
L7.0865 348.998
L7.0865 348.048
L205.769 348.048
L205.769 347.097
L217.977 347.097
L217.977 346.147
L220.103 346.147
L220.103 345.196
L223.565 345.196
L223.565 344.246
L225.626 344.246
L225.626 343.295
L226.02 343.295
L226.02 342.345
L226.491 342.345
L226.528 340.444
L226.857 340.444
L226.857 339.493
L227.348 339.493
L227.348 338.543
L227.662 338.543
L227.732 336.642
L228.26 336.642
L228.26 335.691
L229.813 335.691
L229.921 332.84
L230.151 332.84
L230.151 331.889
L230.431 331.889
L230.431 330.939
L230.897 330.939
L230.897 329.988
L231.011 329.988
L231.11 328.087
L231.519 328.087
L231.519 327.137
L231.66 327.137
L231.759 325.236
L231.801 325.236
L231.801 324.285
L232.018 324.285
L232.018 323.335
L232.253 323.335
L232.253 322.384
L232.436 322.384
L232.436 321.434
L232.771 321.434
L232.847 319.533
L232.917 319.533
L233.001 315.731
L233.196 315.731
L233.21 313.83
L233.465 313.83
L233.465 312.879
L233.743 312.879
L233.748 310.978
L234.159 310.978
L234.159 310.028
L234.424 310.028
L234.424 309.077
L234.801 309.077
L234.801 308.127
L234.927 308.127
L234.983 306.226
L235.411 306.226
L235.461 304.325
L235.684 304.325
L235.772 302.424
L236.055 302.424
L236.055 301.473
L236.22 301.473
L236.308 299.572
L236.47 299.572
L236.568 295.77
L236.922 295.77
L237.027 293.869
L237.059 293.869
L237.059 292.919
L237.274 292.919
L237.358 291.018
L237.389 291.018
L237.389 290.067
L237.515 290.067
L237.515 289.117
L237.642 289.117
L237.68 287.216
L238.036 287.216
L238.135 284.364
L238.202 284.364
L238.202 283.414
L238.333 283.414
L238.443 281.513
L238.612 281.513
L238.612 280.562
L239.15 280.562
L239.15 279.612
L239.265 279.612
L239.265 278.661
L239.621 278.661
L239.621 277.711
L240.32 277.711
L240.337 274.859
L240.515 274.859
L240.555 272.958
L240.708 272.958
L240.708 272.008
L240.864 272.008
L240.864 271.057
L241.105 271.057
L241.208 268.206
L241.41 268.206
L241.41 267.255
L241.831 267.255
L241.831 266.305
L241.99 266.305
L242.101 262.503
L242.186 262.503
L242.186 261.552
L242.961 261.552
L242.998 259.651
L243.388 259.651
L243.388 258.701
L243.953 258.701
L243.953 257.75
L244.112 257.75
L244.112 256.8
L244.34 256.8
L244.34 255.85
L244.694 255.85
L244.712 253.949
L245.105 253.949
L245.185 252.048
L245.235 252.048
L245.243 250.147
L245.656 250.147
L245.725 248.246
L246.684 248.246
L246.776 246.345
L246.943 246.345
L246.943 245.394
L247.624 245.394
L247.673 243.493
L247.798 243.493
L247.798 242.543
L247.934 242.543
L248.024 240.642
L248.357 240.642
L248.461 238.741
L248.633 238.741
L248.633 237.79
L248.966 237.79
L248.966 236.84
L249.095 236.84
L249.181 234.939
L249.214 234.939
L249.214 233.988
L249.476 233.988
L249.557 232.087
L249.704 232.087
L249.797 229.236
L249.851 229.236
L249.885 227.335
L250.006 227.335
L250.006 226.384
L250.122 226.384
L250.122 225.434
L250.387 225.434
L250.406 222.582
L251.167 222.582
L251.167 221.632
L251.453 221.632
L251.547 219.731
L251.744 219.731
L251.744 218.78
L251.924 218.78
L251.924 217.83
L252.156 217.83
L252.189 215.929
L252.483 215.929
L252.534 213.077
L252.906 213.077
L252.906 212.127
L253.129 212.127
L253.129 211.176
L253.259 211.176
L253.259 210.226
L253.392 210.226
L253.502 207.374
L253.552 207.374
L253.552 206.424
L253.962 206.424
L253.977 204.523
L254.155 204.523
L254.26 202.622
L254.554 202.622
L254.554 201.671
L254.837 201.671
L254.837 200.721
L255.065 200.721
L255.065 199.77
L255.227 199.77
L255.229 197.869
L255.678 197.869
L255.749 195.018
L256.712 195.018
L256.743 193.117
L257.104 193.117
L257.121 191.216
L257.456 191.216
L257.561 188.364
L257.831 188.364
L257.831 187.414
L258.242 187.414
L258.242 186.463
L258.468 186.463
L258.468 185.513
L258.989 185.513
L258.989 184.562
L259.224 184.562
L259.224 183.612
L259.829 183.612
L259.846 181.711
L260.257 181.711
L260.324 179.81
L260.433 179.81
L260.433 178.859
L260.663 178.859
L260.753 176.958
L260.86 176.958
L260.86 176.008
L260.972 176.008
L261.06 174.107
L261.129 174.107
L261.129 173.156
L261.313 173.156
L261.379 171.255
L261.714 171.255
L261.714 170.305
L261.838 170.305
L261.838 169.354
L262.047 169.354
L262.055 167.453
L262.289 167.453
L262.298 165.552
L262.756 165.552
L262.756 164.602
L262.924 164.602
L263.018 162.701
L263.156 162.701
L263.222 160.8
L263.41 160.8
L263.41 159.85
L263.575 159.85
L263.68 156.998
L263.792 156.998
L263.848 155.097
L263.947 155.097
L264.036 153.196
L264.246 153.196
L264.337 151.295
L264.56 151.295
L264.596 149.394
L264.77 149.394
L264.77 148.444
L265.054 148.444
L265.054 146.543
L265.262 146.543
L265.31 144.642
L265.472 144.642
L265.472 143.691
L265.759 143.691
L265.759 142.741
L265.89 142.741
L265.89 141.79
L266.039 141.79
L266.129 139.889
L266.323 139.889
L266.323 138.939
L266.443 138.939
L266.443 137.988
L266.743 137.988
L266.743 137.038
L267.824 137.038
L267.824 136.087
L268.047 136.087
L268.047 135.137
L268.979 135.137
L269.004 133.236
L269.785 133.236
L269.793 131.335
L269.945 131.335
L269.945 130.384
L270.669 130.384
L270.669 129.434
L270.797 129.434
L270.835 126.582
L271.162 126.582
L271.162 125.632
L271.333 125.632
L271.333 124.681
L271.483 124.681
L271.483 123.731
L271.673 123.731
L271.673 122.78
L271.95 122.78
L271.95 121.83
L272.964 121.83
L272.964 120.879
L273.093 120.879
L273.093 119.929
L273.209 119.929
L273.209 118.978
L273.79 118.978
L273.864 117.077
L274.023 117.077
L274.023 116.127
L274.218 116.127
L274.218 115.176
L274.529 115.176
L274.529 114.226
L274.728 114.226
L274.728 113.275
L275.225 113.275
L275.225 112.325
L275.545 112.325
L275.545 111.374
L276.185 111.374
L276.185 110.424
L277.029 110.424
L277.029 109.473
L277.815 109.473
L277.815 108.523
L278.095 108.523
L278.095 107.572
L278.575 107.572
L278.575 106.622
L278.924 106.622
L278.924 105.671
L279.359 105.671
L279.366 103.77
L280.878 103.77
L280.96 101.869
L281.101 101.869
L281.101 100.919
L281.645 100.919
L281.645 99.9683
L281.756 99.9683
L281.756 99.0178
L282.534 99.0178
L282.534 98.0673
L282.695 98.0673
L282.695 97.1168
L283.282 97.1168
L283.282 96.1663
L283.462 96.1663
L283.462 95.2158
L283.63 95.2158
L283.63 94.2653
L283.913 94.2653
L283.913 93.3149
L284.655 93.3149
L284.655 92.3644
L284.871 92.3644
L284.871 91.4139
L285.116 91.4139
L285.116 90.4634
L285.784 90.4634
L285.784 89.5129
L286.146 89.5129
L286.146 88.5624
L287.097 88.5624
L287.152 86.6614
L287.406 86.6614
L287.406 85.7109
L287.657 85.7109
L287.657 84.7604
L287.818 84.7604
L287.833 82.8594
L288.176 82.8594
L288.176 81.9089
L289.05 81.9089
L289.05 80.9584
L289.78 80.9584
L289.78 80.0079
L290.507 80.0079
L290.571 78.1069
L290.947 78.1069
L290.947 77.1564
L292.823 77.1564
L292.823 76.2059
L292.936 76.2059
L292.936 75.2554
L293.224 75.2554
L293.224 74.305
L294.432 74.305
L294.432 73.3545
L296.141 73.3545
L296.141 72.404
L297.19 72.404
L297.19 71.4535
L297.793 71.4535
L297.793 70.503
L298.661 70.503
L298.661 69.5525
L299.019 69.5525
L299.019 68.602
L299.799 68.602
L299.858 66.701
L302.34 66.701
L302.34 65.7505
L306.651 65.7505
L306.651 64.8
L310.719 64.8
L310.719 63.8495
L310.959 63.8495
L310.959 62.899
L311.759 62.899
L311.759 61.9485
L314.695 61.9485
L314.695 60.998
L315.159 60.998
L315.159 60.0475
L318.906 60.0475
L318.906 59.097
L319.116 59.097
L319.116 58.1465
L319.875 58.1465
L319.875 57.196
L320.79 57.196
L320.79 56.2455
L321.597 56.2455
L321.597 55.295
L323.947 55.295
L323.947 54.3446
L325.382 54.3446
L325.382 53.3941
L325.992 53.3941
L325.992 52.4436
L326.758 52.4436
L326.758 51.4931
L330.2 51.4931
L330.2 50.5426
L333.253 50.5426
L333.253 49.5921
L333.459 49.5921
L333.554 47.6911
L334.168 47.6911
L334.168 46.7406
L335.214 46.7406
L335.23 44.8396
L335.95 44.8396
L335.95 43.8891
L337.724 43.8891
L337.724 42.9386
L339.073 42.9386
L339.073 41.9881
L341.136 41.9881
L341.136 41.0376
L342.022 41.0376
L342.022 40.0871
L343.279 40.0871
L343.279 39.1366
L345.078 39.1366
L345.078 38.1861
L345.579 38.1861
L345.579 37.2356
L347.094 37.2356
L347.094 36.2851
L348.612 36.2851
L348.612 35.3347
L349.074 35.3347
L349.074 34.3842
L349.193 34.3842
L349.193 33.4337
L353.298 33.4337
L353.298 32.4832
L353.836 32.4832
L353.836 31.5327
L354.706 31.5327
L354.706 30.5822
L355.077 30.5822
L355.077 29.6317
L355.298 29.6317
L355.298 28.6812
L358.03 28.6812
L358.03 27.7307
L361.33 27.7307
L361.33 26.7802
L363.785 26.7802
L363.785 25.8297
L371.684 25.8297
L371.684 24.8792
L375.397 24.8792
L375.397 23.9287
L375.701 23.9287
L375.701 22.9782
L376.942 22.9782
L376.942 22.0277
L379.197 22.0277
L379.197 21.0772
L383.484 21.0772
L383.484 20.1267
L383.998 20.1267
L383.998 19.1762
L384.314 19.1762
L384.314 18.2257
L389.903 18.2257
L389.903 17.2752
L391.826 17.2752
L391.826 16.3248
L392.048 16.3248
L392.048 15.3743
L394.318 15.3743
L394.318 14.4238
L402.573 14.4238
L402.573 13.4733
L411.781 13.4733
L411.781 12.5228
L412.626 12.5228
L412.626 11.5723
L416.435 11.5723
L416.435 10.6218
L416.435 10.6218
L453.6 10.6218
L453.6 10.6218" style="fill:none;stroke:#00bfbf;stroke-linecap:square;"/>
   </g>
   <g id="line2d_6">
    <path clip-path="url(#p99b4b0da67)" d="
M-1 337.592
L3.60343 337.592
L3.60343 336.642
L39.0812 336.642
L39.0812 335.691
L50.7848 335.691
L50.7848 334.741
L55.9851 334.741
L55.9851 333.79
L57.9691 333.79
L57.9691 332.84
L69.6241 332.84
L69.6241 331.889
L71.7531 331.889
L71.7531 330.939
L74.9576 330.939
L74.9576 329.988
L80.4321 329.988
L80.4321 329.038
L80.7617 329.038
L80.7617 328.087
L82.3134 328.087
L82.3134 327.137
L83.9677 327.137
L83.9677 326.186
L84.8279 326.186
L84.8279 325.236
L89.6851 325.236
L89.6851 324.285
L92.6709 324.285
L92.6709 323.335
L94.8164 323.335
L94.8164 322.384
L96.621 322.384
L96.621 321.434
L103.408 321.434
L103.408 320.483
L116.263 320.483
L116.263 319.533
L136.611 319.533
L136.611 318.582
L138.905 318.582
L138.905 317.632
L139.08 317.632
L139.08 316.681
L140.006 316.681
L140.006 315.731
L141.277 315.731
L141.277 314.78
L142.596 314.78
L142.596 313.83
L143.405 313.83
L143.405 312.879
L143.549 312.879
L143.549 311.929
L143.884 311.929
L143.884 310.978
L152.87 310.978
L152.87 310.028
L154.33 310.028
L154.33 309.077
L156.896 309.077
L156.896 308.127
L157.054 308.127
L157.054 307.176
L157.858 307.176
L157.858 306.226
L160.756 306.226
L160.756 305.275
L162.539 305.275
L162.539 304.325
L164.071 304.325
L164.071 303.374
L165.053 303.374
L165.053 302.424
L167.878 302.424
L167.878 301.473
L168.305 301.473
L168.305 300.523
L174.808 300.523
L174.808 299.572
L175.144 299.572
L175.144 298.622
L175.383 298.622
L175.383 297.671
L175.851 297.671
L175.851 296.721
L177.705 296.721
L177.705 295.77
L178.982 295.77
L178.982 294.82
L183.294 294.82
L183.294 293.869
L184.752 293.869
L184.858 291.968
L186.613 291.968
L186.613 291.018
L189.758 291.018
L189.758 290.067
L190.129 290.067
L190.129 289.117
L191.185 289.117
L191.185 288.166
L193.986 288.166
L193.986 287.216
L194.183 287.216
L194.183 286.265
L194.389 286.265
L194.389 285.315
L195.081 285.315
L195.081 284.364
L197.591 284.364
L197.591 283.414
L198.085 283.414
L198.085 282.463
L199.728 282.463
L199.728 281.513
L200.373 281.513
L200.373 280.562
L200.712 280.562
L200.712 279.612
L201.202 279.612
L201.202 278.661
L202.825 278.661
L202.825 277.711
L203.023 277.711
L203.023 276.76
L204.725 276.76
L204.725 275.81
L204.991 275.81
L204.991 274.859
L206.545 274.859
L206.545 273.909
L207.435 273.909
L207.435 272.958
L209.362 272.958
L209.362 272.008
L210 272.008
L210 271.057
L211.024 271.057
L211.067 269.156
L211.434 269.156
L211.434 268.206
L212.612 268.206
L212.612 267.255
L212.839 267.255
L212.839 266.305
L213.009 266.305
L213.014 264.404
L213.47 264.404
L213.571 260.602
L213.62 260.602
L213.62 259.651
L213.969 259.651
L213.969 258.701
L214.31 258.701
L214.31 257.75
L215.954 257.75
L215.954 256.8
L216.131 256.8
L216.131 255.85
L216.315 255.85
L216.315 254.899
L216.672 254.899
L216.672 253.949
L216.916 253.949
L216.989 252.048
L217.324 252.048
L217.324 251.097
L217.811 251.097
L217.811 250.147
L218.239 250.147
L218.239 249.196
L218.673 249.196
L218.673 248.246
L218.829 248.246
L218.829 247.295
L219.398 247.295
L219.398 246.345
L219.595 246.345
L219.595 245.394
L219.736 245.394
L219.775 243.493
L219.954 243.493
L219.954 242.543
L220.191 242.543
L220.278 239.691
L220.408 239.691
L220.504 237.79
L220.878 237.79
L220.904 235.889
L221.075 235.889
L221.079 233.988
L221.245 233.988
L221.274 232.087
L221.377 232.087
L221.486 230.186
L221.927 230.186
L221.927 229.236
L222.06 229.236
L222.06 228.285
L222.223 228.285
L222.223 227.335
L222.808 227.335
L222.837 225.434
L222.959 225.434
L223.025 223.533
L223.217 223.533
L223.217 222.582
L223.349 222.582
L223.395 220.681
L223.763 220.681
L223.768 218.78
L223.936 218.78
L223.936 217.83
L224.058 217.83
L224.058 216.879
L224.299 216.879
L224.299 215.929
L224.545 215.929
L224.545 214.978
L224.69 214.978
L224.757 213.077
L224.812 213.077
L224.885 211.176
L224.974 211.176
L224.974 210.226
L225.114 210.226
L225.159 207.374
L225.589 207.374
L225.622 205.473
L225.727 205.473
L225.775 203.572
L225.875 203.572
L225.875 202.622
L226.02 202.622
L226.129 199.77
L226.195 199.77
L226.195 198.82
L226.614 198.82
L226.614 197.869
L227.03 197.869
L227.113 195.018
L227.264 195.018
L227.264 194.067
L227.375 194.067
L227.375 193.117
L227.539 193.117
L227.625 190.265
L227.662 190.265
L227.662 189.315
L227.854 189.315
L227.854 188.364
L227.991 188.364
L228.069 185.513
L228.123 185.513
L228.214 182.661
L228.404 182.661
L228.404 181.711
L228.857 181.711
L228.934 178.859
L228.989 178.859
L229.091 175.057
L229.132 175.057
L229.169 173.156
L229.248 173.156
L229.358 171.255
L229.374 171.255
L229.374 170.305
L229.685 170.305
L229.685 169.354
L229.869 169.354
L229.881 167.453
L230.089 167.453
L230.149 165.552
L230.292 165.552
L230.292 164.602
L230.546 164.602
L230.546 163.651
L230.706 163.651
L230.706 162.701
L230.897 162.701
L230.986 159.85
L231.583 159.85
L231.583 158.899
L231.759 158.899
L231.759 157.949
L231.946 157.949
L231.946 156.998
L232.217 156.998
L232.251 154.147
L233.178 154.147
L233.178 153.196
L233.334 153.196
L233.349 151.295
L233.531 151.295
L233.531 150.345
L233.697 150.345
L233.77 148.444
L234.089 148.444
L234.196 145.592
L234.578 145.592
L234.578 144.642
L235.712 144.642
L235.79 141.79
L236.48 141.79
L236.48 140.84
L237.235 140.84
L237.235 139.889
L237.355 139.889
L237.414 137.988
L237.47 137.988
L237.47 137.038
L238.194 137.038
L238.194 136.087
L238.313 136.087
L238.378 134.186
L238.773 134.186
L238.8 132.285
L239.28 132.285
L239.28 131.335
L239.409 131.335
L239.409 130.384
L239.842 130.384
L239.951 128.483
L240.068 128.483
L240.068 127.533
L240.336 127.533
L240.336 125.632
L240.573 125.632
L240.573 124.681
L241.171 124.681
L241.171 123.731
L241.382 123.731
L241.382 122.78
L241.616 122.78
L241.616 121.83
L241.734 121.83
L241.734 120.879
L242.37 120.879
L242.37 119.929
L242.495 119.929
L242.495 118.978
L242.707 118.978
L242.707 118.028
L242.871 118.028
L242.871 117.077
L243.328 117.077
L243.433 115.176
L243.478 115.176
L243.478 114.226
L243.806 114.226
L243.806 113.275
L244.293 113.275
L244.293 112.325
L244.663 112.325
L244.743 108.523
L244.817 108.523
L244.894 106.622
L244.979 106.622
L244.979 105.671
L245.298 105.671
L245.298 104.721
L245.503 104.721
L245.592 100.919
L245.867 100.919
L245.917 99.0178
L246.254 99.0178
L246.362 97.1168
L246.588 97.1168
L246.659 95.2158
L246.716 95.2158
L246.823 92.3644
L246.838 92.3644
L246.838 91.4139
L247.074 91.4139
L247.074 90.4634
L247.386 90.4634
L247.386 89.5129
L247.703 89.5129
L247.781 87.6119
L248.076 87.6119
L248.076 86.6614
L248.345 86.6614
L248.43 84.7604
L248.653 84.7604
L248.653 83.8099
L248.802 83.8099
L248.802 82.8594
L249.041 82.8594
L249.132 80.0079
L249.369 80.0079
L249.369 79.0574
L249.585 79.0574
L249.585 78.1069
L249.725 78.1069
L249.751 76.2059
L250.048 76.2059
L250.151 74.305
L250.296 74.305
L250.362 72.404
L250.465 72.404
L250.465 71.4535
L251.063 71.4535
L251.17 68.602
L251.183 68.602
L251.183 67.6515
L251.386 67.6515
L251.386 66.701
L251.837 66.701
L251.837 65.7505
L252.277 65.7505
L252.355 63.8495
L252.805 63.8495
L252.805 62.899
L253.318 62.899
L253.318 61.9485
L253.965 61.9485
L253.965 60.998
L254.508 60.998
L254.508 60.0475
L254.931 60.0475
L254.998 58.1465
L255.242 58.1465
L255.242 57.196
L255.657 57.196
L255.657 56.2455
L258.1 56.2455
L258.1 55.295
L258.418 55.295
L258.418 54.3446
L259.909 54.3446
L259.909 53.3941
L262.239 53.3941
L262.239 52.4436
L264.721 52.4436
L264.721 51.4931
L266.125 51.4931
L266.125 50.5426
L266.592 50.5426
L266.592 49.5921
L267.1 49.5921
L267.1 48.6416
L267.243 48.6416
L267.243 47.6911
L268.166 47.6911
L268.166 46.7406
L268.9 46.7406
L268.9 45.7901
L269.05 45.7901
L269.05 44.8396
L269.785 44.8396
L269.785 43.8891
L270.336 43.8891
L270.336 42.9386
L271.035 42.9386
L271.067 41.0376
L271.979 41.0376
L271.979 40.0871
L273.082 40.0871
L273.082 39.1366
L274.551 39.1366
L274.551 38.1861
L277.964 38.1861
L277.964 37.2356
L279.104 37.2356
L279.104 36.2851
L279.707 36.2851
L279.707 35.3347
L280.386 35.3347
L280.386 34.3842
L280.538 34.3842
L280.538 33.4337
L282.78 33.4337
L282.78 32.4832
L285.257 32.4832
L285.257 31.5327
L287.454 31.5327
L287.454 30.5822
L287.68 30.5822
L287.68 29.6317
L291.726 29.6317
L291.726 28.6812
L292.251 28.6812
L292.251 27.7307
L292.426 27.7307
L292.426 26.7802
L293.358 26.7802
L293.412 24.8792
L293.56 24.8792
L293.56 23.9287
L294.518 23.9287
L294.518 22.9782
L298.123 22.9782
L298.123 22.0277
L299.097 22.0277
L299.097 21.0772
L302.417 21.0772
L302.417 20.1267
L305.724 20.1267
L305.724 19.1762
L306.465 19.1762
L306.493 17.2752
L309.848 17.2752
L309.848 16.3248
L311.889 16.3248
L311.889 15.3743
L313.898 15.3743
L313.898 14.4238
L320.92 14.4238
L320.92 13.4733
L321.644 13.4733
L321.644 12.5228
L323.337 12.5228
L323.337 11.5723
L323.791 11.5723
L323.791 10.6218
L323.791 10.6218
L453.6 10.6218
L453.6 10.6218" style="fill:none;stroke:#bf00bf;stroke-linecap:square;"/>
   </g>
   <g id="line2d_7">
    <path clip-path="url(#p99b4b0da67)" d="
M-1 269.156
L-0.962073 269.156
L-0.962073 268.206
L-0.72662 268.206
L-0.643902 264.404
L-0.579758 264.404
L-0.562533 262.503
L-0.224818 262.503
L-0.224818 261.552
L-0.093869 261.552
L-0.093869 260.602
L0.121053 260.602
L0.158605 258.701
L0.298542 258.701
L0.298542 257.75
L0.528953 257.75
L0.636203 255.85
L0.686541 255.85
L0.686541 254.899
L1.00981 254.899
L1.02885 252.998
L1.19765 252.998
L1.19765 252.048
L1.35603 252.048
L1.35603 251.097
L1.50302 251.097
L1.56937 249.196
L1.63344 249.196
L1.66737 246.345
L1.77345 246.345
L1.77345 245.394
L1.97361 245.394
L1.97361 244.444
L2.13141 244.444
L2.21224 241.592
L2.3 241.592
L2.36058 239.691
L2.46413 239.691
L2.53201 237.79
L2.59161 237.79
L2.59161 236.84
L2.79917 236.84
L2.8596 233.988
L2.93339 233.988
L2.93664 232.087
L3.22916 232.087
L3.28594 230.186
L3.41972 230.186
L3.41972 229.236
L3.60343 229.236
L3.71104 226.384
L3.79178 226.384
L3.84822 223.533
L3.98649 223.533
L4.0491 219.731
L4.09865 219.731
L4.15001 216.879
L4.53434 216.879
L4.57512 214.978
L4.72478 214.978
L4.75547 212.127
L4.86992 212.127
L4.91084 208.325
L5.09492 208.325
L5.20599 204.523
L5.21915 204.523
L5.22436 202.622
L5.34284 202.622
L5.399 200.721
L5.48602 200.721
L5.58725 198.82
L5.61707 198.82
L5.71873 195.968
L5.75216 195.968
L5.80595 192.166
L5.89424 192.166
L5.89424 191.216
L6.07047 191.216
L6.07047 190.265
L6.22204 190.265
L6.31687 187.414
L6.40004 187.414
L6.44042 184.562
L6.55052 184.562
L6.55052 183.612
L6.77774 183.612
L6.82728 180.76
L6.9672 180.76
L7.04103 178.859
L18.0238 178.859
L18.0238 177.909
L21.3807 177.909
L21.3807 176.958
L23.0995 176.958
L23.0995 176.008
L28.6776 176.008
L28.6776 175.057
L36.1906 175.057
L36.1906 174.107
L39.107 174.107
L39.107 173.156
L51.5175 173.156
L51.5175 172.206
L54.2512 172.206
L54.2512 171.255
L57.6626 171.255
L57.6626 170.305
L58.4348 170.305
L58.4348 169.354
L75.9947 169.354
L75.9947 168.404
L78.9258 168.404
L78.9258 167.453
L84.7469 167.453
L84.7469 166.503
L90.8168 166.503
L90.8168 165.552
L96.7715 165.552
L96.7715 164.602
L97.0812 164.602
L97.0812 163.651
L97.5353 163.651
L97.5353 162.701
L108.426 162.701
L108.426 161.75
L112.78 161.75
L112.78 160.8
L120.044 160.8
L120.044 159.85
L121.884 159.85
L121.884 158.899
L123.642 158.899
L123.642 157.949
L124.522 157.949
L124.522 156.998
L127.235 156.998
L127.235 156.048
L128.988 156.048
L128.988 155.097
L131.645 155.097
L131.645 154.147
L138.783 154.147
L138.783 153.196
L140.243 153.196
L140.243 152.246
L144.113 152.246
L144.113 151.295
L156.8 151.295
L156.8 150.345
L165.204 150.345
L165.204 149.394
L165.38 149.394
L165.38 148.444
L166.426 148.444
L166.426 147.493
L174.985 147.493
L174.985 146.543
L180.471 146.543
L180.471 145.592
L182.896 145.592
L182.98 143.691
L183.415 143.691
L183.415 142.741
L184.586 142.741
L184.61 139.889
L186.261 139.889
L186.261 138.939
L186.637 138.939
L186.637 137.988
L187.969 137.988
L187.969 137.038
L188.664 137.038
L188.664 136.087
L189.367 136.087
L189.367 135.137
L192.428 135.137
L192.428 134.186
L196.282 134.186
L196.282 133.236
L199.595 133.236
L199.595 132.285
L200.476 132.285
L200.476 131.335
L200.782 131.335
L200.782 130.384
L202.474 130.384
L202.474 129.434
L203.244 129.434
L203.244 128.483
L204.263 128.483
L204.263 127.533
L204.828 127.533
L204.828 126.582
L205.418 126.582
L205.418 125.632
L206.548 125.632
L206.548 124.681
L206.7 124.681
L206.787 121.83
L207 121.83
L207 120.879
L207.696 120.879
L207.696 119.929
L207.829 119.929
L207.829 118.978
L208.689 118.978
L208.689 117.077
L209.065 117.077
L209.065 116.127
L209.525 116.127
L209.525 115.176
L209.719 115.176
L209.719 114.226
L210.087 114.226
L210.087 113.275
L210.284 113.275
L210.284 112.325
L211.235 112.325
L211.235 111.374
L211.812 111.374
L211.812 110.424
L212.676 110.424
L212.739 108.523
L213.008 108.523
L213.018 102.82
L213.314 102.82
L213.314 101.869
L213.513 101.869
L213.574 99.9683
L214.792 99.9683
L214.792 99.0178
L215.502 99.0178
L215.502 98.0673
L216.11 98.0673
L216.11 97.1168
L216.296 97.1168
L216.296 96.1663
L217.153 96.1663
L217.153 92.3644
L217.509 92.3644
L217.511 90.4634
L217.939 90.4634
L217.939 89.5129
L218.354 89.5129
L218.354 87.6119
L219.357 87.6119
L219.357 86.6614
L219.61 86.6614
L219.717 80.0079
L219.83 80.0079
L219.83 79.0574
L220.191 79.0574
L220.191 78.1069
L220.456 78.1069
L220.556 76.2059
L221.463 76.2059
L221.463 75.2554
L222.173 75.2554
L222.173 74.305
L222.305 74.305
L222.305 73.3545
L222.705 73.3545
L222.705 72.404
L222.989 72.404
L222.989 71.4535
L223.444 71.4535
L223.444 70.503
L223.763 70.503
L223.763 69.5525
L224.017 69.5525
L224.017 68.602
L224.756 68.602
L224.858 64.8
L224.948 64.8
L224.948 63.8495
L225.06 63.8495
L225.06 54.3446
L225.194 54.3446
L225.194 53.3941
L225.364 53.3941
L225.364 52.4436
L228.068 52.4436
L228.068 51.4931
L229.685 51.4931
L229.685 39.1366
L232.966 39.1366
L232.966 37.2356
L235.512 37.2356
L235.512 35.3347
L235.685 35.3347
L235.685 34.3842
L236.376 34.3842
L236.376 33.4337
L237.591 33.4337
L237.591 30.5822
L238.994 30.5822
L238.994 29.6317
L239.345 29.6317
L239.35 24.8792
L240.338 24.8792
L240.338 23.9287
L240.796 23.9287
L240.873 22.0277
L243.404 22.0277
L243.418 17.2752
L244.506 17.2752
L244.506 16.3248
L244.693 16.3248
L244.693 15.3743
L245.315 15.3743
L245.315 14.4238
L245.494 14.4238
L245.494 13.4733
L245.698 13.4733
L245.698 12.5228
L246.21 12.5228
L246.21 11.5723
L247.256 11.5723
L247.256 10.6218
L247.256 10.6218
L453.6 10.6218
L453.6 10.6218" style="fill:none;stroke:#000000;stroke-linecap:square;"/>
   </g>
   <g id="line2d_8">
    <path clip-path="url(#p99b4b0da67)" d="
M-1 207.374
L-0.962073 207.374
L-0.962073 206.424
L-0.818649 206.424
L-0.72662 204.523
L-0.688859 204.523
L-0.579758 200.721
L-0.562533 200.721
L-0.562533 199.77
L-0.224818 199.77
L-0.224818 198.82
L-0.093869 198.82
L-0.093869 197.869
L0.121053 197.869
L0.158605 195.968
L0.298542 195.968
L0.298542 195.018
L0.528953 195.018
L0.636203 192.166
L0.686541 192.166
L0.686541 191.216
L0.997474 191.216
L1.02885 188.364
L1.19765 188.364
L1.19765 187.414
L1.35603 187.414
L1.35603 186.463
L1.50302 186.463
L1.58692 182.661
L1.63344 182.661
L1.66737 179.81
L1.77345 179.81
L1.77345 178.859
L1.97361 178.859
L1.97361 177.909
L2.13141 177.909
L2.21224 175.057
L2.3 175.057
L2.36058 173.156
L2.42684 173.156
L2.53201 170.305
L2.59027 170.305
L2.59161 168.404
L2.741 168.404
L2.84776 165.552
L2.8596 165.552
L2.93664 162.701
L3.08845 162.701
L3.15287 160.8
L3.22916 160.8
L3.32222 157.949
L3.37063 157.949
L3.41972 155.097
L3.48386 155.097
L3.48386 154.147
L3.60343 154.147
L3.71104 151.295
L3.79035 151.295
L3.85055 146.543
L3.98649 146.543
L4.0491 142.741
L4.09865 142.741
L4.15001 139.889
L4.41859 139.889
L4.42113 137.988
L4.53434 137.988
L4.57512 136.087
L4.72478 136.087
L4.75547 132.285
L4.85726 132.285
L4.91084 127.533
L5.09492 127.533
L5.20599 122.78
L5.21915 122.78
L5.29112 118.978
L5.34284 118.978
L5.399 117.077
L5.48602 117.077
L5.58796 114.226
L5.61707 114.226
L5.71873 111.374
L5.75216 111.374
L5.80595 107.572
L5.89424 107.572
L5.89424 106.622
L6.07047 106.622
L6.077 104.721
L6.20194 104.721
L6.24891 101.869
L6.31687 101.869
L6.40004 99.9683
L6.43131 99.9683
L6.54098 96.1663
L6.55052 96.1663
L6.57298 94.2653
L6.77774 94.2653
L6.82728 91.4139
L6.9672 91.4139
L7.04103 89.5129
L53.9717 89.5129
L53.9717 88.5624
L162.051 88.5624
L162.051 87.6119
L172.407 87.6119
L172.407 86.6614
L172.774 86.6614
L172.774 85.7109
L177.737 85.7109
L177.737 84.7604
L179.081 84.7604
L179.081 83.8099
L183.276 83.8099
L183.276 82.8594
L184.149 82.8594
L184.149 81.9089
L185.397 81.9089
L185.397 80.9584
L187.98 80.9584
L187.98 80.0079
L193.048 80.0079
L193.048 79.0574
L194.586 79.0574
L194.586 78.1069
L195.561 78.1069
L195.561 77.1564
L195.778 77.1564
L195.778 75.2554
L197.78 75.2554
L197.882 73.3545
L199.853 73.3545
L199.853 72.404
L200.782 72.404
L200.782 64.8
L203.227 64.8
L203.227 63.8495
L203.785 63.8495
L203.785 62.899
L204.212 62.899
L204.212 61.9485
L206.208 61.9485
L206.208 60.998
L207.696 60.998
L207.696 59.097
L208.689 59.097
L208.689 55.295
L209.385 55.295
L209.385 54.3446
L210.279 54.3446
L210.279 53.3941
L210.403 53.3941
L210.403 52.4436
L211.21 52.4436
L211.21 51.4931
L215.384 51.4931
L215.384 50.5426
L216.383 50.5426
L216.383 49.5921
L217.153 49.5921
L217.153 41.9881
L217.869 41.9881
L217.869 41.0376
L218.179 41.0376
L218.179 40.0871
L220.456 40.0871
L220.456 39.1366
L222.124 39.1366
L222.124 38.1861
L222.305 38.1861
L222.355 36.2851
L223.221 36.2851
L223.221 35.3347
L223.444 35.3347
L223.444 34.3842
L224.858 34.3842
L224.858 33.4337
L225.06 33.4337
L225.16 28.6812
L229.685 28.6812
L229.685 20.1267
L230.448 20.1267
L230.448 19.1762
L232.966 19.1762
L232.966 16.3248
L234.08 16.3248
L234.08 15.3743
L235.685 15.3743
L235.685 14.4238
L236.236 14.4238
L236.312 12.5228
L236.486 12.5228
L236.486 11.5723
L237.729 11.5723
L237.729 10.6218
L237.729 10.6218
L453.6 10.6218
L453.6 10.6218" style="fill:none;stroke:#00bfbf;stroke-linecap:square;"/>
   </g>
   <g id="line2d_9">
    <path clip-path="url(#p99b4b0da67)" d="
M-1 156.998
L-0.962073 156.998
L-0.962073 156.048
L-0.818649 156.048
L-0.72662 154.147
L-0.688859 154.147
L-0.579758 150.345
L-0.562533 150.345
L-0.562533 149.394
L-0.224818 149.394
L-0.224818 148.444
L-0.093869 148.444
L-0.093869 147.493
L0.121053 147.493
L0.158605 145.592
L0.298542 145.592
L0.298542 144.642
L0.528953 144.642
L0.636203 141.79
L0.686541 141.79
L0.686541 140.84
L0.997474 140.84
L1.02885 137.988
L1.19765 137.988
L1.19765 137.038
L1.35603 137.038
L1.35603 136.087
L1.50302 136.087
L1.58692 132.285
L1.63344 132.285
L1.66737 129.434
L1.77345 129.434
L1.77345 128.483
L1.97361 128.483
L1.97361 127.533
L2.13141 127.533
L2.21224 124.681
L2.3 124.681
L2.36058 122.78
L2.42684 122.78
L2.53201 119.929
L2.59027 119.929
L2.59161 118.028
L2.741 118.028
L2.84776 115.176
L2.8596 115.176
L2.93664 112.325
L3.08845 112.325
L3.15287 110.424
L3.22916 110.424
L3.32222 107.572
L3.37063 107.572
L3.41972 104.721
L3.48386 104.721
L3.48386 103.77
L3.60343 103.77
L3.71104 100.919
L3.79035 100.919
L3.85055 96.1663
L3.98649 96.1663
L4.0491 92.3644
L4.09865 92.3644
L4.15001 89.5129
L4.41859 89.5129
L4.42113 87.6119
L4.53434 87.6119
L4.57512 85.7109
L4.72478 85.7109
L4.75547 81.9089
L4.85726 81.9089
L4.91084 77.1564
L5.09492 77.1564
L5.20599 72.404
L5.21915 72.404
L5.29112 68.602
L5.34284 68.602
L5.399 66.701
L5.48602 66.701
L5.58796 63.8495
L5.61707 63.8495
L5.71873 60.998
L5.75216 60.998
L5.80595 57.196
L5.89424 57.196
L5.89424 56.2455
L6.07047 56.2455
L6.077 54.3446
L6.20194 54.3446
L6.24891 51.4931
L6.31687 51.4931
L6.40004 49.5921
L6.43131 49.5921
L6.54098 45.7901
L6.55052 45.7901
L6.57298 43.8891
L6.77774 43.8891
L6.82728 41.0376
L6.9672 41.0376
L7.04103 39.1366
L196.386 39.1366
L196.386 38.1861
L198.86 38.1861
L198.86 37.2356
L203.209 37.2356
L203.209 36.2851
L204.214 36.2851
L204.214 35.3347
L204.859 35.3347
L204.859 34.3842
L208.871 34.3842
L208.871 33.4337
L212.32 33.4337
L212.32 32.4832
L213.283 32.4832
L213.283 31.5327
L215.064 31.5327
L215.133 29.6317
L215.637 29.6317
L215.637 28.6812
L217.153 28.6812
L217.153 27.7307
L217.966 27.7307
L217.966 26.7802
L219.445 26.7802
L219.445 25.8297
L222.124 25.8297
L222.124 24.8792
L225.06 24.8792
L225.06 19.1762
L228.172 19.1762
L228.172 18.2257
L228.604 18.2257
L228.604 17.2752
L229.685 17.2752
L229.685 10.6218
L229.685 10.6218
L453.6 10.6218
L453.6 10.6218" style="fill:none;stroke:#bf00bf;stroke-linecap:square;"/>
   </g>
   <g id="patch_3">
    <path d="
M7.2 7.2
L453.6 7.2" style="fill:none;stroke:#000000;stroke-linecap:square;stroke-linejoin:miter;"/>
   </g>
   <g id="patch_4">
    <path d="
M453.6 352.8
L453.6 7.2" style="fill:none;stroke:#000000;stroke-linecap:square;stroke-linejoin:miter;"/>
   </g>
   <g id="patch_5">
    <path d="
M7.2 352.8
L453.6 352.8" style="fill:none;stroke:#000000;stroke-linecap:square;stroke-linejoin:miter;"/>
   </g>
   <g id="patch_6">
    <path d="
M7.2 352.8
L7.2 7.2" style="fill:none;stroke:#000000;stroke-linecap:square;stroke-linejoin:miter;"/>
   </g>
   <g id="matplotlib.axis_1">
    <g id="xtick_1"/>
    <g id="xtick_2">
     <g id="line2d_10">
      <path clip-path="url(#p99b4b0da67)" d="
M59.6175 352.8
L59.6175 7.2" style="fill:none;stroke:#000000;stroke-dasharray:1.000000,3.000000;stroke-dashoffset:0.0;stroke-width:0.5;"/>
     </g>
     <g id="line2d_11">
      <defs>
       <path d="
M0 0
L0 -4" id="m93b0483c22" style="stroke:#000000;stroke-width:0.5;"/>
      </defs>
      <g>
       <use style="stroke:#000000;stroke-width:0.5;" x="59.6174973142" xlink:href="#m93b0483c22" y="352.8"/>
      </g>
     </g>
     <g id="line2d_12">
      <defs>
       <path d="
M0 0
L0 4" id="m741efc42ff" style="stroke:#000000;stroke-width:0.5;"/>
      </defs>
      <g>
       <use style="stroke:#000000;stroke-width:0.5;" x="59.6174973142" xlink:href="#m741efc42ff" y="7.2"/>
      </g>
     </g>
     <g id="text_1">
      <!-- -6 -->
      <defs>
       <path d="
M33.0156 40.375
Q26.375 40.375 22.4844 35.8281
Q18.6094 31.2969 18.6094 23.3906
Q18.6094 15.5312 22.4844 10.9531
Q26.375 6.39062 33.0156 6.39062
Q39.6562 6.39062 43.5312 10.9531
Q47.4062 15.5312 47.4062 23.3906
Q47.4062 31.2969 43.5312 35.8281
Q39.6562 40.375 33.0156 40.375
M52.5938 71.2969
L52.5938 62.3125
Q48.875 64.0625 45.0938 64.9844
Q41.3125 65.9219 37.5938 65.9219
Q27.8281 65.9219 22.6719 59.3281
Q17.5312 52.7344 16.7969 39.4062
Q19.6719 43.6562 24.0156 45.9219
Q28.375 48.1875 33.5938 48.1875
Q44.5781 48.1875 50.9531 41.5156
Q57.3281 34.8594 57.3281 23.3906
Q57.3281 12.1562 50.6875 5.35938
Q44.0469 -1.42188 33.0156 -1.42188
Q20.3594 -1.42188 13.6719 8.26562
Q6.98438 17.9688 6.98438 36.375
Q6.98438 53.6562 15.1875 63.9375
Q23.3906 74.2188 37.2031 74.2188
Q40.9219 74.2188 44.7031 73.4844
Q48.4844 72.75 52.5938 71.2969" id="BitstreamVeraSans-Roman-36"/>
       <path d="
M4.89062 31.3906
L31.2031 31.3906
L31.2031 23.3906
L4.89062 23.3906
z
" id="BitstreamVeraSans-Roman-2d"/>
      </defs>
      <g transform="translate(50.7659348142 371.996875)scale(0.2 -0.2)">
       <use xlink:href="#BitstreamVeraSans-Roman-2d"/>
       <use x="36.083984375" xlink:href="#BitstreamVeraSans-Roman-36"/>
      </g>
     </g>
    </g>
    <g id="xtick_3">
     <g id="line2d_13">
      <path clip-path="url(#p99b4b0da67)" d="
M112.148 352.8
L112.148 7.2" style="fill:none;stroke:#000000;stroke-dasharray:1.000000,3.000000;stroke-dashoffset:0.0;stroke-width:0.5;"/>
     </g>
     <g id="line2d_14">
      <g>
       <use style="stroke:#000000;stroke-width:0.5;" x="112.148497672" xlink:href="#m93b0483c22" y="352.8"/>
      </g>
     </g>
     <g id="line2d_15">
      <g>
       <use style="stroke:#000000;stroke-width:0.5;" x="112.148497672" xlink:href="#m741efc42ff" y="7.2"/>
      </g>
     </g>
     <g id="text_2">
      <!-- -4 -->
      <defs>
       <path d="
M37.7969 64.3125
L12.8906 25.3906
L37.7969 25.3906
z

M35.2031 72.9062
L47.6094 72.9062
L47.6094 25.3906
L58.0156 25.3906
L58.0156 17.1875
L47.6094 17.1875
L47.6094 0
L37.7969 0
L37.7969 17.1875
L4.89062 17.1875
L4.89062 26.7031
z
" id="BitstreamVeraSans-Roman-34"/>
      </defs>
      <g transform="translate(103.228185172 371.996875)scale(0.2 -0.2)">
       <use xlink:href="#BitstreamVeraSans-Roman-2d"/>
       <use x="36.083984375" xlink:href="#BitstreamVeraSans-Roman-34"/>
      </g>
     </g>
    </g>
    <g id="xtick_4">
     <g id="line2d_16">
      <path clip-path="url(#p99b4b0da67)" d="
M164.679 352.8
L164.679 7.2" style="fill:none;stroke:#000000;stroke-dasharray:1.000000,3.000000;stroke-dashoffset:0.0;stroke-width:0.5;"/>
     </g>
     <g id="line2d_17">
      <g>
       <use style="stroke:#000000;stroke-width:0.5;" x="164.67949803" xlink:href="#m93b0483c22" y="352.8"/>
      </g>
     </g>
     <g id="line2d_18">
      <g>
       <use style="stroke:#000000;stroke-width:0.5;" x="164.67949803" xlink:href="#m741efc42ff" y="7.2"/>
      </g>
     </g>
     <g id="text_3">
      <!-- -2 -->
      <defs>
       <path d="
M19.1875 8.29688
L53.6094 8.29688
L53.6094 0
L7.32812 0
L7.32812 8.29688
Q12.9375 14.1094 22.625 23.8906
Q32.3281 33.6875 34.8125 36.5312
Q39.5469 41.8438 41.4219 45.5312
Q43.3125 49.2188 43.3125 52.7812
Q43.3125 58.5938 39.2344 62.25
Q35.1562 65.9219 28.6094 65.9219
Q23.9688 65.9219 18.8125 64.3125
Q13.6719 62.7031 7.8125 59.4219
L7.8125 69.3906
Q13.7656 71.7812 18.9375 73
Q24.125 74.2188 28.4219 74.2188
Q39.75 74.2188 46.4844 68.5469
Q53.2188 62.8906 53.2188 53.4219
Q53.2188 48.9219 51.5312 44.8906
Q49.8594 40.875 45.4062 35.4062
Q44.1875 33.9844 37.6406 27.2188
Q31.1094 20.4531 19.1875 8.29688" id="BitstreamVeraSans-Roman-32"/>
      </defs>
      <g transform="translate(156.19981053 371.996875)scale(0.2 -0.2)">
       <use xlink:href="#BitstreamVeraSans-Roman-2d"/>
       <use x="36.083984375" xlink:href="#BitstreamVeraSans-Roman-32"/>
      </g>
     </g>
    </g>
    <g id="xtick_5">
     <g id="line2d_19">
      <path clip-path="url(#p99b4b0da67)" d="
M217.21 352.8
L217.21 7.2" style="fill:none;stroke:#000000;stroke-dasharray:1.000000,3.000000;stroke-dashoffset:0.0;stroke-width:0.5;"/>
     </g>
     <g id="line2d_20">
      <g>
       <use style="stroke:#000000;stroke-width:0.5;" x="217.210498389" xlink:href="#m93b0483c22" y="352.8"/>
      </g>
     </g>
     <g id="line2d_21">
      <g>
       <use style="stroke:#000000;stroke-width:0.5;" x="217.210498389" xlink:href="#m741efc42ff" y="7.2"/>
      </g>
     </g>
     <g id="text_4">
      <!-- 0 -->
      <defs>
       <path d="
M31.7812 66.4062
Q24.1719 66.4062 20.3281 58.9062
Q16.5 51.4219 16.5 36.375
Q16.5 21.3906 20.3281 13.8906
Q24.1719 6.39062 31.7812 6.39062
Q39.4531 6.39062 43.2812 13.8906
Q47.125 21.3906 47.125 36.375
Q47.125 51.4219 43.2812 58.9062
Q39.4531 66.4062 31.7812 66.4062
M31.7812 74.2188
Q44.0469 74.2188 50.5156 64.5156
Q56.9844 54.8281 56.9844 36.375
Q56.9844 17.9688 50.5156 8.26562
Q44.0469 -1.42188 31.7812 -1.42188
Q19.5312 -1.42188 13.0625 8.26562
Q6.59375 17.9688 6.59375 36.375
Q6.59375 54.8281 13.0625 64.5156
Q19.5312 74.2188 31.7812 74.2188" id="BitstreamVeraSans-Roman-30"/>
      </defs>
      <g transform="translate(212.171435889 371.996875)scale(0.2 -0.2)">
       <use xlink:href="#BitstreamVeraSans-Roman-30"/>
      </g>
     </g>
    </g>
    <g id="xtick_6">
     <g id="line2d_22">
      <path clip-path="url(#p99b4b0da67)" d="
M269.741 352.8
L269.741 7.2" style="fill:none;stroke:#000000;stroke-dasharray:1.000000,3.000000;stroke-dashoffset:0.0;stroke-width:0.5;"/>
     </g>
     <g id="line2d_23">
      <g>
       <use style="stroke:#000000;stroke-width:0.5;" x="269.741498747" xlink:href="#m93b0483c22" y="352.8"/>
      </g>
     </g>
     <g id="line2d_24">
      <g>
       <use style="stroke:#000000;stroke-width:0.5;" x="269.741498747" xlink:href="#m741efc42ff" y="7.2"/>
      </g>
     </g>
     <g id="text_5">
      <!-- 2 -->
      <g transform="translate(265.113373747 371.996875)scale(0.2 -0.2)">
       <use xlink:href="#BitstreamVeraSans-Roman-32"/>
      </g>
     </g>
    </g>
    <g id="xtick_7">
     <g id="line2d_25">
      <path clip-path="url(#p99b4b0da67)" d="
M322.272 352.8
L322.272 7.2" style="fill:none;stroke:#000000;stroke-dasharray:1.000000,3.000000;stroke-dashoffset:0.0;stroke-width:0.5;"/>
     </g>
     <g id="line2d_26">
      <g>
       <use style="stroke:#000000;stroke-width:0.5;" x="322.272499105" xlink:href="#m93b0483c22" y="352.8"/>
      </g>
     </g>
     <g id="line2d_27">
      <g>
       <use style="stroke:#000000;stroke-width:0.5;" x="322.272499105" xlink:href="#m741efc42ff" y="7.2"/>
      </g>
     </g>
     <g id="text_6">
      <!-- 4 -->
      <g transform="translate(316.959999105 371.996875)scale(0.2 -0.2)">
       <use xlink:href="#BitstreamVeraSans-Roman-34"/>
      </g>
     </g>
    </g>
    <g id="xtick_8">
     <g id="line2d_28">
      <path clip-path="url(#p99b4b0da67)" d="
M374.803 352.8
L374.803 7.2" style="fill:none;stroke:#000000;stroke-dasharray:1.000000,3.000000;stroke-dashoffset:0.0;stroke-width:0.5;"/>
     </g>
     <g id="line2d_29">
      <g>
       <use style="stroke:#000000;stroke-width:0.5;" x="374.803499463" xlink:href="#m93b0483c22" y="352.8"/>
      </g>
     </g>
     <g id="line2d_30">
      <g>
       <use style="stroke:#000000;stroke-width:0.5;" x="374.803499463" xlink:href="#m741efc42ff" y="7.2"/>
      </g>
     </g>
     <g id="text_7">
      <!-- 6 -->
      <g transform="translate(369.769124463 371.996875)scale(0.2 -0.2)">
       <use xlink:href="#BitstreamVeraSans-Roman-36"/>
      </g>
     </g>
    </g>
    <g id="xtick_9">
     <g id="line2d_31">
      <path clip-path="url(#p99b4b0da67)" d="
M427.334 352.8
L427.334 7.2" style="fill:none;stroke:#000000;stroke-dasharray:1.000000,3.000000;stroke-dashoffset:0.0;stroke-width:0.5;"/>
     </g>
     <g id="line2d_32">
      <g>
       <use style="stroke:#000000;stroke-width:0.5;" x="427.334499821" xlink:href="#m93b0483c22" y="352.8"/>
      </g>
     </g>
     <g id="line2d_33">
      <g>
       <use style="stroke:#000000;stroke-width:0.5;" x="427.334499821" xlink:href="#m741efc42ff" y="7.2"/>
      </g>
     </g>
     <g id="text_8">
      <!-- 8 -->
      <defs>
       <path d="
M31.7812 34.625
Q24.75 34.625 20.7188 30.8594
Q16.7031 27.0938 16.7031 20.5156
Q16.7031 13.9219 20.7188 10.1562
Q24.75 6.39062 31.7812 6.39062
Q38.8125 6.39062 42.8594 10.1719
Q46.9219 13.9688 46.9219 20.5156
Q46.9219 27.0938 42.8906 30.8594
Q38.875 34.625 31.7812 34.625
M21.9219 38.8125
Q15.5781 40.375 12.0312 44.7188
Q8.5 49.0781 8.5 55.3281
Q8.5 64.0625 14.7188 69.1406
Q20.9531 74.2188 31.7812 74.2188
Q42.6719 74.2188 48.875 69.1406
Q55.0781 64.0625 55.0781 55.3281
Q55.0781 49.0781 51.5312 44.7188
Q48 40.375 41.7031 38.8125
Q48.8281 37.1562 52.7969 32.3125
Q56.7812 27.4844 56.7812 20.5156
Q56.7812 9.90625 50.3125 4.23438
Q43.8438 -1.42188 31.7812 -1.42188
Q19.7344 -1.42188 13.25 4.23438
Q6.78125 9.90625 6.78125 20.5156
Q6.78125 27.4844 10.7812 32.3125
Q14.7969 37.1562 21.9219 38.8125
M18.3125 54.3906
Q18.3125 48.7344 21.8438 45.5625
Q25.3906 42.3906 31.7812 42.3906
Q38.1406 42.3906 41.7188 45.5625
Q45.3125 48.7344 45.3125 54.3906
Q45.3125 60.0625 41.7188 63.2344
Q38.1406 66.4062 31.7812 66.4062
Q25.3906 66.4062 21.8438 63.2344
Q18.3125 60.0625 18.3125 54.3906" id="BitstreamVeraSans-Roman-38"/>
      </defs>
      <g transform="translate(422.334499821 371.996875)scale(0.2 -0.2)">
       <use xlink:href="#BitstreamVeraSans-Roman-38"/>
      </g>
     </g>
    </g>
    <g id="xtick_10"/>
    <g id="xtick_11">
     <g id="line2d_34">
      <defs>
       <path d="
M0 0
L0 -2" id="m177f7580d0" style="stroke:#000000;stroke-width:0.5;"/>
      </defs>
      <g>
       <use style="stroke:#000000;stroke-width:0.5;" x="59.6174973142" xlink:href="#m177f7580d0" y="352.8"/>
      </g>
     </g>
     <g id="line2d_35">
      <defs>
       <path d="
M0 0
L0 2" id="m5284c7e2a0" style="stroke:#000000;stroke-width:0.5;"/>
      </defs>
      <g>
       <use style="stroke:#000000;stroke-width:0.5;" x="59.6174973142" xlink:href="#m5284c7e2a0" y="7.2"/>
      </g>
     </g>
    </g>
    <g id="xtick_12">
     <g id="line2d_36">
      <g>
       <use style="stroke:#000000;stroke-width:0.5;" x="112.148497672" xlink:href="#m177f7580d0" y="352.8"/>
      </g>
     </g>
     <g id="line2d_37">
      <g>
       <use style="stroke:#000000;stroke-width:0.5;" x="112.148497672" xlink:href="#m5284c7e2a0" y="7.2"/>
      </g>
     </g>
    </g>
    <g id="xtick_13">
     <g id="line2d_38">
      <g>
       <use style="stroke:#000000;stroke-width:0.5;" x="164.67949803" xlink:href="#m177f7580d0" y="352.8"/>
      </g>
     </g>
     <g id="line2d_39">
      <g>
       <use style="stroke:#000000;stroke-width:0.5;" x="164.67949803" xlink:href="#m5284c7e2a0" y="7.2"/>
      </g>
     </g>
    </g>
    <g id="xtick_14">
     <g id="line2d_40">
      <g>
       <use style="stroke:#000000;stroke-width:0.5;" x="217.210498389" xlink:href="#m177f7580d0" y="352.8"/>
      </g>
     </g>
     <g id="line2d_41">
      <g>
       <use style="stroke:#000000;stroke-width:0.5;" x="217.210498389" xlink:href="#m5284c7e2a0" y="7.2"/>
      </g>
     </g>
    </g>
    <g id="xtick_15">
     <g id="line2d_42">
      <g>
       <use style="stroke:#000000;stroke-width:0.5;" x="269.741498747" xlink:href="#m177f7580d0" y="352.8"/>
      </g>
     </g>
     <g id="line2d_43">
      <g>
       <use style="stroke:#000000;stroke-width:0.5;" x="269.741498747" xlink:href="#m5284c7e2a0" y="7.2"/>
      </g>
     </g>
    </g>
    <g id="xtick_16">
     <g id="line2d_44">
      <g>
       <use style="stroke:#000000;stroke-width:0.5;" x="322.272499105" xlink:href="#m177f7580d0" y="352.8"/>
      </g>
     </g>
     <g id="line2d_45">
      <g>
       <use style="stroke:#000000;stroke-width:0.5;" x="322.272499105" xlink:href="#m5284c7e2a0" y="7.2"/>
      </g>
     </g>
    </g>
    <g id="xtick_17">
     <g id="line2d_46">
      <g>
       <use style="stroke:#000000;stroke-width:0.5;" x="374.803499463" xlink:href="#m177f7580d0" y="352.8"/>
      </g>
     </g>
     <g id="line2d_47">
      <g>
       <use style="stroke:#000000;stroke-width:0.5;" x="374.803499463" xlink:href="#m5284c7e2a0" y="7.2"/>
      </g>
     </g>
    </g>
    <g id="xtick_18">
     <g id="line2d_48">
      <g>
       <use style="stroke:#000000;stroke-width:0.5;" x="427.334499821" xlink:href="#m177f7580d0" y="352.8"/>
      </g>
     </g>
     <g id="line2d_49">
      <g>
       <use style="stroke:#000000;stroke-width:0.5;" x="427.334499821" xlink:href="#m5284c7e2a0" y="7.2"/>
      </g>
     </g>
    </g>
    <g id="text_9">
     <!-- log10 of Df -->
     <defs>
      <path id="BitstreamVeraSans-Roman-20"/>
      <path d="
M12.4062 8.29688
L28.5156 8.29688
L28.5156 63.9219
L10.9844 60.4062
L10.9844 69.3906
L28.4219 72.9062
L38.2812 72.9062
L38.2812 8.29688
L54.3906 8.29688
L54.3906 0
L12.4062 0
z
" id="BitstreamVeraSans-Roman-31"/>
      <path d="
M30.6094 48.3906
Q23.3906 48.3906 19.1875 42.75
Q14.9844 37.1094 14.9844 27.2969
Q14.9844 17.4844 19.1562 11.8438
Q23.3438 6.20312 30.6094 6.20312
Q37.7969 6.20312 41.9844 11.8594
Q46.1875 17.5312 46.1875 27.2969
Q46.1875 37.0156 41.9844 42.7031
Q37.7969 48.3906 30.6094 48.3906
M30.6094 56
Q42.3281 56 49.0156 48.375
Q55.7188 40.7656 55.7188 27.2969
Q55.7188 13.875 49.0156 6.21875
Q42.3281 -1.42188 30.6094 -1.42188
Q18.8438 -1.42188 12.1719 6.21875
Q5.51562 13.875 5.51562 27.2969
Q5.51562 40.7656 12.1719 48.375
Q18.8438 56 30.6094 56" id="BitstreamVeraSans-Roman-6f"/>
      <path d="
M9.42188 75.9844
L18.4062 75.9844
L18.4062 0
L9.42188 0
z
" id="BitstreamVeraSans-Roman-6c"/>
      <path d="
M19.6719 64.7969
L19.6719 8.10938
L31.5938 8.10938
Q46.6875 8.10938 53.6875 14.9375
Q60.6875 21.7812 60.6875 36.5312
Q60.6875 51.1719 53.6875 57.9844
Q46.6875 64.7969 31.5938 64.7969
z

M9.8125 72.9062
L30.0781 72.9062
Q51.2656 72.9062 61.1719 64.0938
Q71.0938 55.2812 71.0938 36.5312
Q71.0938 17.6719 61.125 8.82812
Q51.1719 0 30.0781 0
L9.8125 0
z
" id="BitstreamVeraSans-Roman-44"/>
      <path d="
M45.4062 27.9844
Q45.4062 37.75 41.375 43.1094
Q37.3594 48.4844 30.0781 48.4844
Q22.8594 48.4844 18.8281 43.1094
Q14.7969 37.75 14.7969 27.9844
Q14.7969 18.2656 18.8281 12.8906
Q22.8594 7.51562 30.0781 7.51562
Q37.3594 7.51562 41.375 12.8906
Q45.4062 18.2656 45.4062 27.9844
M54.3906 6.78125
Q54.3906 -7.17188 48.1875 -13.9844
Q42 -20.7969 29.2031 -20.7969
Q24.4688 -20.7969 20.2656 -20.0938
Q16.0625 -19.3906 12.1094 -17.9219
L12.1094 -9.1875
Q16.0625 -11.3281 19.9219 -12.3438
Q23.7812 -13.375 27.7812 -13.375
Q36.625 -13.375 41.0156 -8.76562
Q45.4062 -4.15625 45.4062 5.17188
L45.4062 9.625
Q42.625 4.78125 38.2812 2.39062
Q33.9375 0 27.875 0
Q17.8281 0 11.6719 7.65625
Q5.51562 15.3281 5.51562 27.9844
Q5.51562 40.6719 11.6719 48.3281
Q17.8281 56 27.875 56
Q33.9375 56 38.2812 53.6094
Q42.625 51.2188 45.4062 46.3906
L45.4062 54.6875
L54.3906 54.6875
z
" id="BitstreamVeraSans-Roman-67"/>
      <path d="
M37.1094 75.9844
L37.1094 68.5
L28.5156 68.5
Q23.6875 68.5 21.7969 66.5469
Q19.9219 64.5938 19.9219 59.5156
L19.9219 54.6875
L34.7188 54.6875
L34.7188 47.7031
L19.9219 47.7031
L19.9219 0
L10.8906 0
L10.8906 47.7031
L2.29688 47.7031
L2.29688 54.6875
L10.8906 54.6875
L10.8906 58.5
Q10.8906 67.625 15.1406 71.7969
Q19.3906 75.9844 28.6094 75.9844
z
" id="BitstreamVeraSans-Roman-66"/>
     </defs>
     <g transform="translate(175.0234375 396.353125)scale(0.2 -0.2)">
      <use xlink:href="#BitstreamVeraSans-Roman-6c"/>
      <use x="27.783203125" xlink:href="#BitstreamVeraSans-Roman-6f"/>
      <use x="88.96484375" xlink:href="#BitstreamVeraSans-Roman-67"/>
      <use x="152.44140625" xlink:href="#BitstreamVeraSans-Roman-31"/>
      <use x="216.064453125" xlink:href="#BitstreamVeraSans-Roman-30"/>
      <use x="279.6875" xlink:href="#BitstreamVeraSans-Roman-20"/>
      <use x="311.474609375" xlink:href="#BitstreamVeraSans-Roman-6f"/>
      <use x="372.65625" xlink:href="#BitstreamVeraSans-Roman-66"/>
      <use x="407.861328125" xlink:href="#BitstreamVeraSans-Roman-20"/>
      <use x="439.6484375" xlink:href="#BitstreamVeraSans-Roman-44"/>
      <use x="516.650390625" xlink:href="#BitstreamVeraSans-Roman-66"/>
     </g>
    </g>
   </g>
   <g id="matplotlib.axis_2">
    <g id="ytick_1">
     <g id="line2d_50">
      <path clip-path="url(#p99b4b0da67)" d="
M7.2 352.8
L453.6 352.8" style="fill:none;stroke:#000000;stroke-dasharray:1.000000,3.000000;stroke-dashoffset:0.0;stroke-width:0.5;"/>
     </g>
     <g id="line2d_51">
      <defs>
       <path d="
M0 0
L4 0" id="m728421d6d4" style="stroke:#000000;stroke-width:0.5;"/>
      </defs>
      <g>
       <use style="stroke:#000000;stroke-width:0.5;" x="7.2" xlink:href="#m728421d6d4" y="352.8"/>
      </g>
     </g>
     <g id="line2d_52">
      <defs>
       <path d="
M0 0
L-4 0" id="mcb0005524f" style="stroke:#000000;stroke-width:0.5;"/>
      </defs>
      <g>
       <use style="stroke:#000000;stroke-width:0.5;" x="453.6" xlink:href="#mcb0005524f" y="352.8"/>
      </g>
     </g>
    </g>
    <g id="ytick_2">
     <g id="line2d_53">
      <path clip-path="url(#p99b4b0da67)" d="
M7.2 284.364
L453.6 284.364" style="fill:none;stroke:#000000;stroke-dasharray:1.000000,3.000000;stroke-dashoffset:0.0;stroke-width:0.5;"/>
     </g>
     <g id="line2d_54">
      <g>
       <use style="stroke:#000000;stroke-width:0.5;" x="7.2" xlink:href="#m728421d6d4" y="284.364356436"/>
      </g>
     </g>
     <g id="line2d_55">
      <g>
       <use style="stroke:#000000;stroke-width:0.5;" x="453.6" xlink:href="#mcb0005524f" y="284.364356436"/>
      </g>
     </g>
    </g>
    <g id="ytick_3">
     <g id="line2d_56">
      <path clip-path="url(#p99b4b0da67)" d="
M7.2 215.929
L453.6 215.929" style="fill:none;stroke:#000000;stroke-dasharray:1.000000,3.000000;stroke-dashoffset:0.0;stroke-width:0.5;"/>
     </g>
     <g id="line2d_57">
      <g>
       <use style="stroke:#000000;stroke-width:0.5;" x="7.2" xlink:href="#m728421d6d4" y="215.928712871"/>
      </g>
     </g>
     <g id="line2d_58">
      <g>
       <use style="stroke:#000000;stroke-width:0.5;" x="453.6" xlink:href="#mcb0005524f" y="215.928712871"/>
      </g>
     </g>
    </g>
    <g id="ytick_4">
     <g id="line2d_59">
      <path clip-path="url(#p99b4b0da67)" d="
M7.2 147.493
L453.6 147.493" style="fill:none;stroke:#000000;stroke-dasharray:1.000000,3.000000;stroke-dashoffset:0.0;stroke-width:0.5;"/>
     </g>
     <g id="line2d_60">
      <g>
       <use style="stroke:#000000;stroke-width:0.5;" x="7.2" xlink:href="#m728421d6d4" y="147.493069307"/>
      </g>
     </g>
     <g id="line2d_61">
      <g>
       <use style="stroke:#000000;stroke-width:0.5;" x="453.6" xlink:href="#mcb0005524f" y="147.493069307"/>
      </g>
     </g>
    </g>
    <g id="ytick_5">
     <g id="line2d_62">
      <path clip-path="url(#p99b4b0da67)" d="
M7.2 79.0574
L453.6 79.0574" style="fill:none;stroke:#000000;stroke-dasharray:1.000000,3.000000;stroke-dashoffset:0.0;stroke-width:0.5;"/>
     </g>
     <g id="line2d_63">
      <g>
       <use style="stroke:#000000;stroke-width:0.5;" x="7.2" xlink:href="#m728421d6d4" y="79.0574257426"/>
      </g>
     </g>
     <g id="line2d_64">
      <g>
       <use style="stroke:#000000;stroke-width:0.5;" x="453.6" xlink:href="#mcb0005524f" y="79.0574257426"/>
      </g>
     </g>
    </g>
    <g id="ytick_6">
     <g id="line2d_65">
      <path clip-path="url(#p99b4b0da67)" d="
M7.2 10.6218
L453.6 10.6218" style="fill:none;stroke:#000000;stroke-dasharray:1.000000,3.000000;stroke-dashoffset:0.0;stroke-width:0.5;"/>
     </g>
     <g id="line2d_66">
      <g>
       <use style="stroke:#000000;stroke-width:0.5;" x="7.2" xlink:href="#m728421d6d4" y="10.6217821782"/>
      </g>
     </g>
     <g id="line2d_67">
      <g>
       <use style="stroke:#000000;stroke-width:0.5;" x="453.6" xlink:href="#mcb0005524f" y="10.6217821782"/>
      </g>
     </g>
    </g>
   </g>
   <g id="text_10">
    <!-- {f1-f24}, 5-D -->
    <defs>
     <path d="
M12.5 -9.28125
L15.9219 -9.28125
Q22.75 -9.28125 24.8281 -7.17188
Q26.9062 -5.07812 26.9062 1.90625
L26.9062 14.0156
Q26.9062 21.625 29.0938 25.0938
Q31.2969 28.5625 36.7188 29.8906
Q31.2969 31.1094 29.0938 34.5625
Q26.9062 38.0312 26.9062 45.7031
L26.9062 57.8125
Q26.9062 64.75 24.8281 66.875
Q22.75 69 15.9219 69
L12.5 69
L12.5 75.9844
L15.5781 75.9844
Q27.7344 75.9844 31.8125 72.3906
Q35.8906 68.7969 35.8906 58.0156
L35.8906 46.2969
Q35.8906 39.0156 38.5156 36.2031
Q41.1562 33.4062 48.0938 33.4062
L51.125 33.4062
L51.125 26.4219
L48.0938 26.4219
Q41.1562 26.4219 38.5156 23.5781
Q35.8906 20.75 35.8906 13.375
L35.8906 1.70312
Q35.8906 -9.07812 31.8125 -12.6875
Q27.7344 -16.3125 15.5781 -16.3125
L12.5 -16.3125
z
" id="BitstreamVeraSans-Roman-7d"/>
     <path d="
M51.125 -9.28125
L51.125 -16.3125
L48.0938 -16.3125
Q35.9375 -16.3125 31.8125 -12.6875
Q27.6875 -9.07812 27.6875 1.70312
L27.6875 13.375
Q27.6875 20.75 25.0469 23.5781
Q22.4062 26.4219 15.4844 26.4219
L12.5 26.4219
L12.5 33.4062
L15.4844 33.4062
Q22.4688 33.4062 25.0781 36.2031
Q27.6875 39.0156 27.6875 46.2969
L27.6875 58.0156
Q27.6875 68.7969 31.8125 72.3906
Q35.9375 75.9844 48.0938 75.9844
L51.125 75.9844
L51.125 69
L47.7969 69
Q40.9219 69 38.8125 66.8438
Q36.7188 64.7031 36.7188 57.8125
L36.7188 45.7031
Q36.7188 38.0312 34.5 34.5625
Q32.2812 31.1094 26.9062 29.8906
Q32.3281 28.5625 34.5156 25.0938
Q36.7188 21.625 36.7188 14.0156
L36.7188 1.90625
Q36.7188 -4.98438 38.8125 -7.125
Q40.9219 -9.28125 47.7969 -9.28125
z
" id="BitstreamVeraSans-Roman-7b"/>
     <path d="
M11.7188 12.4062
L22.0156 12.4062
L22.0156 4
L14.0156 -11.625
L7.71875 -11.625
L11.7188 4
z
" id="BitstreamVeraSans-Roman-2c"/>
     <path d="
M10.7969 72.9062
L49.5156 72.9062
L49.5156 64.5938
L19.8281 64.5938
L19.8281 46.7344
Q21.9688 47.4688 24.1094 47.8281
Q26.2656 48.1875 28.4219 48.1875
Q40.625 48.1875 47.75 41.5
Q54.8906 34.8125 54.8906 23.3906
Q54.8906 11.625 47.5625 5.09375
Q40.2344 -1.42188 26.9062 -1.42188
Q22.3125 -1.42188 17.5469 -0.640625
Q12.7969 0.140625 7.71875 1.70312
L7.71875 11.625
Q12.1094 9.23438 16.7969 8.0625
Q21.4844 6.89062 26.7031 6.89062
Q35.1562 6.89062 40.0781 11.3281
Q45.0156 15.7656 45.0156 23.3906
Q45.0156 31 40.0781 35.4375
Q35.1562 39.8906 26.7031 39.8906
Q22.75 39.8906 18.8125 39.0156
Q14.8906 38.1406 10.7969 36.2812
z
" id="BitstreamVeraSans-Roman-35"/>
    </defs>
    <g transform="translate(312.87825 345.888)scale(0.2 -0.2)">
     <use xlink:href="#BitstreamVeraSans-Roman-7b"/>
     <use x="63.623046875" xlink:href="#BitstreamVeraSans-Roman-66"/>
     <use x="98.828125" xlink:href="#BitstreamVeraSans-Roman-31"/>
     <use x="162.451171875" xlink:href="#BitstreamVeraSans-Roman-2d"/>
     <use x="198.53515625" xlink:href="#BitstreamVeraSans-Roman-66"/>
     <use x="233.740234375" xlink:href="#BitstreamVeraSans-Roman-32"/>
     <use x="297.36328125" xlink:href="#BitstreamVeraSans-Roman-34"/>
     <use x="360.986328125" xlink:href="#BitstreamVeraSans-Roman-7d"/>
     <use x="424.609375" xlink:href="#BitstreamVeraSans-Roman-2c"/>
     <use x="456.396484375" xlink:href="#BitstreamVeraSans-Roman-20"/>
     <use x="488.18359375" xlink:href="#BitstreamVeraSans-Roman-35"/>
     <use x="551.806640625" xlink:href="#BitstreamVeraSans-Roman-2d"/>
     <use x="587.890625" xlink:href="#BitstreamVeraSans-Roman-44"/>
    </g>
   </g>
   <g id="text_11">
    <!-- 1.2.1 -->
    <defs>
     <path d="
M10.6875 12.4062
L21 12.4062
L21 0
L10.6875 0
z
" id="BitstreamVeraSans-Roman-2e"/>
    </defs>
    <g style="fill:#808080;" transform="translate(218.6890625 347.2643125)scale(0.1 -0.1)">
     <use xlink:href="#BitstreamVeraSans-Roman-31"/>
     <use x="63.623046875" xlink:href="#BitstreamVeraSans-Roman-2e"/>
     <use x="95.41015625" xlink:href="#BitstreamVeraSans-Roman-32"/>
     <use x="159.033203125" xlink:href="#BitstreamVeraSans-Roman-2e"/>
     <use x="190.8203125" xlink:href="#BitstreamVeraSans-Roman-31"/>
    </g>
   </g>
  </g>
 </g>
 <defs>
  <clipPath id="p99b4b0da67">
   <rect height="345.6" width="446.4" x="7.2" y="7.2"/>
  </clipPath>
 </defs>
</svg>
