<?xml version="1.0" encoding="utf-8" standalone="no"?>
<!DOCTYPE svg PUBLIC "-//W3C//DTD SVG 1.1//EN"
  "http://www.w3.org/Graphics/SVG/1.1/DTD/svg11.dtd">
<!-- Created with matplotlib (http://matplotlib.org/) -->
<svg height="407pt" version="1.1" viewBox="0 0 460 407" width="460pt" xmlns="http://www.w3.org/2000/svg" xmlns:xlink="http://www.w3.org/1999/xlink">
 <defs>
  <style type="text/css">
*{stroke-linecap:butt;stroke-linejoin:round;stroke-miterlimit:100000;}
  </style>
 </defs>
 <g id="figure_1">
  <g id="patch_1">
   <path d="M 0 407.7125 
L 460.8 407.7125 
L 460.8 0 
L 0 0 
z
" style="fill:#ffffff;"/>
  </g>
  <g id="axes_1">
   <g id="patch_2">
    <path d="M 7.2 352.8 
L 453.6 352.8 
L 453.6 7.2 
L 7.2 7.2 
z
" style="fill:#ffffff;"/>
   </g>
   <g id="line2d_1">
    <path clip-path="url(#p120a536876)" d="M 192.521204 352.8 
L 192.521204 348.237624 
L 231.981033 348.237624 
L 231.981033 343.675248 
L 234.672164 343.675248 
L 234.672164 339.112871 
L 236.101144 339.112871 
L 236.101144 334.550495 
L 236.818776 334.550495 
L 236.818776 329.988119 
L 239.637604 329.988119 
L 239.637604 325.425743 
L 243.992174 325.425743 
L 243.992174 320.863366 
L 245.203143 320.863366 
L 245.203143 316.30099 
L 247.20122 316.30099 
L 247.20122 311.738614 
L 247.633002 311.738614 
L 247.633002 307.176238 
L 251.770087 307.176238 
L 251.770087 302.613861 
L 251.896392 302.613861 
L 251.988805 293.489109 
L 252.635258 293.489109 
L 252.635258 288.926733 
L 252.811702 288.926733 
L 252.811702 284.364356 
L 257.848908 284.364356 
L 257.848908 279.80198 
L 258.997275 279.80198 
L 258.997275 275.239604 
L 259.436891 275.239604 
L 259.436891 270.677228 
L 280.852803 270.677228 
L 280.852803 266.114851 
L 282.166745 266.114851 
L 282.166745 261.552475 
L 288.083275 261.552475 
L 288.083275 256.990099 
L 288.561869 256.990099 
L 288.661488 247.865347 
L 289.935548 247.865347 
L 289.935548 243.30297 
L 291.775906 243.30297 
L 291.775906 238.740594 
L 292.76958 238.740594 
L 292.76958 234.178218 
L 294.335034 234.178218 
L 294.335034 229.615842 
L 295.355225 229.615842 
L 295.355225 225.053465 
L 296.410497 225.053465 
L 296.410497 220.491089 
L 296.776339 220.491089 
L 296.776339 215.928713 
L 298.759205 215.928713 
L 298.759205 211.366337 
L 299.082842 211.366337 
L 299.082842 206.80396 
L 300.709204 206.80396 
L 300.709204 202.241584 
L 303.415044 202.241584 
L 303.415044 197.679208 
L 305.96799 197.679208 
L 305.96799 193.116832 
L 335.66406 193.116832 
L 335.66406 188.554455 
L 336.193416 188.554455 
L 336.193416 183.992079 
L 344.680334 183.992079 
L 344.680334 179.429703 
L 356.660207 179.429703 
L 356.660207 174.867327 
L 363.618193 174.867327 
L 363.618193 170.30495 
L 365.870744 170.30495 
L 365.870744 165.742574 
L 373.806791 165.742574 
L 373.806791 161.180198 
L 375.893611 161.180198 
L 375.956827 152.055446 
L 381.081866 152.055446 
L 381.081866 147.493069 
L 381.853581 147.493069 
L 381.853581 142.930693 
L 382.548027 142.930693 
L 382.548027 138.368317 
L 383.628668 138.368317 
L 383.628668 133.805941 
L 388.706922 133.805941 
L 388.706922 129.243564 
L 389.620846 129.243564 
L 389.620846 124.681188 
L 394.053671 124.681188 
L 394.136297 115.556436 
L 394.2124 115.556436 
L 394.2124 110.994059 
L 394.350039 110.994059 
L 394.350039 106.431683 
L 394.476723 106.431683 
L 394.476723 101.869307 
L 394.614672 101.869307 
L 394.614672 97.306931 
L 399.274233 97.306931 
L 399.274233 92.744554 
L 400.434739 92.744554 
L 400.442721 83.619802 
L 400.930912 83.619802 
L 400.930912 79.057426 
L 401.105786 79.057426 
L 401.105786 74.49505 
L 403.960496 74.49505 
L 404.022357 65.370297 
L 407.776492 65.370297 
L 407.776492 60.807921 
L 409.161623 60.807921 
L 409.161623 56.245545 
L 409.481405 56.245545 
L 409.481405 51.683168 
L 409.876316 51.683168 
L 409.876316 47.120792 
L 410.445955 47.120792 
L 410.445955 42.558416 
L 410.649806 42.558416 
L 410.649806 37.99604 
L 412.282415 37.99604 
L 412.282415 33.433663 
L 414.545499 33.433663 
L 414.545499 28.871287 
L 415.888267 28.871287 
L 415.888267 24.308911 
L 422.896258 24.308911 
L 422.896258 19.746535 
L 426.085732 19.746535 
L 426.085732 15.184158 
L 427.511397 15.184158 
L 427.511397 10.621782 
L 427.511397 10.621782 
L 453.6 10.621782 
L 453.6 10.621782 
" style="fill:none;stroke:#ff0000;stroke-linecap:square;stroke-width:3.0;"/>
   </g>
   <g id="line2d_2">
    <path clip-path="url(#p120a536876)" d="M 214.022806 352.8 
L 214.022806 348.237624 
L 231.981033 348.237624 
L 231.981033 343.675248 
L 236.925717 343.675248 
L 236.925717 339.112871 
L 237.24321 339.112871 
L 237.24321 334.550495 
L 240.026548 334.550495 
L 240.026548 329.988119 
L 240.837157 329.988119 
L 240.837157 325.425743 
L 251.543827 325.425743 
L 251.543827 320.863366 
L 252.280427 320.863366 
L 252.280427 316.30099 
L 252.74943 316.30099 
L 252.74943 311.738614 
L 253.140643 311.738614 
L 253.140643 307.176238 
L 254.415928 307.176238 
L 254.415928 302.613861 
L 254.611637 302.613861 
L 254.611637 298.051485 
L 255.37428 298.051485 
L 255.37428 293.489109 
L 260.757513 293.489109 
L 260.757513 288.926733 
L 264.589382 288.926733 
L 264.589382 284.364356 
L 267.501557 284.364356 
L 267.501557 279.80198 
L 288.819458 279.80198 
L 288.819458 275.239604 
L 290.140324 275.239604 
L 290.140324 270.677228 
L 291.159499 270.677228 
L 291.159499 266.114851 
L 292.036214 266.114851 
L 292.036214 261.552475 
L 292.813195 261.552475 
L 292.813195 256.990099 
L 292.968285 256.990099 
L 292.968285 252.427723 
L 293.400267 252.427723 
L 293.400267 247.865347 
L 293.813675 247.865347 
L 293.813675 243.30297 
L 296.44848 243.30297 
L 296.543066 234.178218 
L 298.472826 234.178218 
L 298.472826 229.615842 
L 298.710461 229.615842 
L 298.759205 220.491089 
L 299.148098 220.491089 
L 299.148098 215.928713 
L 301.08393 215.928713 
L 301.08393 211.366337 
L 303.415044 211.366337 
L 303.415044 206.80396 
L 334.487422 206.80396 
L 334.487422 202.241584 
L 348.262929 202.241584 
L 348.262929 197.679208 
L 348.979502 197.679208 
L 348.979502 193.116832 
L 364.793435 193.116832 
L 364.793435 188.554455 
L 365.870744 188.554455 
L 365.870744 183.992079 
L 369.640908 183.992079 
L 369.714119 174.867327 
L 375.893611 174.867327 
L 375.893611 170.30495 
L 378.496665 170.30495 
L 378.496665 165.742574 
L 385.102668 165.742574 
L 385.102668 161.180198 
L 388.706922 161.180198 
L 388.706922 156.617822 
L 389.290092 156.617822 
L 389.290092 152.055446 
L 391.536998 152.055446 
L 391.536998 147.493069 
L 391.974319 147.493069 
L 391.974319 142.930693 
L 394.136297 142.930693 
L 394.136297 138.368317 
L 395.312009 138.368317 
L 395.312009 133.805941 
L 396.287109 133.805941 
L 396.287109 129.243564 
L 397.351262 129.243564 
L 397.351262 124.681188 
L 398.139769 124.681188 
L 398.139769 120.118812 
L 399.274233 120.118812 
L 399.274233 115.556436 
L 399.453597 115.556436 
L 399.453597 110.994059 
L 401.916107 110.994059 
L 401.916107 106.431683 
L 402.503252 106.431683 
L 402.503252 101.869307 
L 402.810049 101.869307 
L 402.810049 97.306931 
L 404.582165 97.306931 
L 404.582165 92.744554 
L 405.534758 92.744554 
L 405.534758 88.182178 
L 406.019333 88.182178 
L 406.019333 83.619802 
L 406.155654 83.619802 
L 406.155654 79.057426 
L 406.9493 79.057426 
L 406.9493 74.49505 
L 409.019899 74.49505 
L 409.019899 69.932673 
L 410.212784 69.932673 
L 410.212784 65.370297 
L 410.354248 65.370297 
L 410.354248 60.807921 
L 411.32178 60.807921 
L 411.32178 56.245545 
L 413.564899 56.245545 
L 413.564899 51.683168 
L 414.44525 51.683168 
L 414.545499 42.558416 
L 414.604156 42.558416 
L 414.604156 37.99604 
L 415.888267 37.99604 
L 415.888267 33.433663 
L 419.752453 33.433663 
L 419.752453 28.871287 
L 425.573727 28.871287 
L 425.573727 24.308911 
L 430.186375 24.308911 
L 430.186375 19.746535 
L 432.131419 19.746535 
L 432.185437 10.621782 
L 432.185437 10.621782 
L 453.6 10.621782 
L 453.6 10.621782 
" style="fill:none;stroke:#00bfbf;stroke-linecap:square;"/>
   </g>
   <g id="line2d_3">
    <path clip-path="url(#p120a536876)" d="M 213.596792 352.8 
L 213.596792 348.237624 
L 231.981033 348.237624 
L 231.981033 343.675248 
L 236.64863 343.675248 
L 236.64863 339.112871 
L 236.863629 339.112871 
L 236.863629 334.550495 
L 237.24321 334.550495 
L 237.24321 329.988119 
L 240.345342 329.988119 
L 240.345342 325.425743 
L 246.987856 325.425743 
L 247.091567 316.30099 
L 249.519968 316.30099 
L 249.519968 311.738614 
L 251.460891 311.738614 
L 251.460891 307.176238 
L 251.988805 307.176238 
L 251.988805 302.613861 
L 252.280427 302.613861 
L 252.280427 298.051485 
L 252.679587 298.051485 
L 252.679587 293.489109 
L 260.757513 293.489109 
L 260.757513 288.926733 
L 264.589382 288.926733 
L 264.589382 284.364356 
L 267.501557 284.364356 
L 267.501557 279.80198 
L 288.363973 279.80198 
L 288.363973 275.239604 
L 288.661488 275.239604 
L 288.661488 270.677228 
L 290.121625 270.677228 
L 290.121625 266.114851 
L 290.698178 266.114851 
L 290.698178 261.552475 
L 290.996591 261.552475 
L 290.996591 256.990099 
L 291.94841 256.990099 
L 291.94841 252.427723 
L 293.400267 252.427723 
L 293.400267 247.865347 
L 293.813675 247.865347 
L 293.813675 243.30297 
L 295.737289 243.30297 
L 295.737289 238.740594 
L 296.44848 238.740594 
L 296.44848 234.178218 
L 297.312653 234.178218 
L 297.312653 229.615842 
L 298.145539 229.615842 
L 298.145539 225.053465 
L 298.759205 225.053465 
L 298.759205 220.491089 
L 299.148098 220.491089 
L 299.148098 215.928713 
L 301.08393 215.928713 
L 301.08393 211.366337 
L 303.415044 211.366337 
L 303.415044 206.80396 
L 309.572567 206.80396 
L 309.572567 202.241584 
L 321.762566 202.241584 
L 321.762566 197.679208 
L 348.979502 197.679208 
L 348.979502 193.116832 
L 358.911812 193.116832 
L 358.911812 188.554455 
L 361.717775 188.554455 
L 361.717775 183.992079 
L 365.870744 183.992079 
L 365.870744 179.429703 
L 369.714119 179.429703 
L 369.714119 174.867327 
L 375.893611 174.867327 
L 375.893611 170.30495 
L 378.496665 170.30495 
L 378.496665 165.742574 
L 383.628668 165.742574 
L 383.628668 161.180198 
L 385.102668 161.180198 
L 385.102668 156.617822 
L 386.017535 156.617822 
L 386.017535 152.055446 
L 387.733071 152.055446 
L 387.733071 147.493069 
L 387.879999 147.493069 
L 387.879999 142.930693 
L 388.706922 142.930693 
L 388.706922 138.368317 
L 389.825466 138.368317 
L 389.825466 133.805941 
L 393.524581 133.805941 
L 393.524581 129.243564 
L 394.136297 129.243564 
L 394.2124 120.118812 
L 395.312009 120.118812 
L 395.312009 115.556436 
L 398.909705 115.556436 
L 398.909705 110.994059 
L 399.274233 110.994059 
L 399.274233 106.431683 
L 399.854398 106.431683 
L 399.854398 101.869307 
L 400.696851 101.869307 
L 400.696851 97.306931 
L 401.361379 97.306931 
L 401.361379 92.744554 
L 405.077913 92.744554 
L 405.077913 88.182178 
L 405.236089 88.182178 
L 405.236089 83.619802 
L 405.534758 83.619802 
L 405.534758 79.057426 
L 405.73841 79.057426 
L 405.73841 74.49505 
L 406.019333 74.49505 
L 406.019333 69.932673 
L 409.019899 69.932673 
L 409.019899 65.370297 
L 410.018835 65.370297 
L 410.018835 60.807921 
L 410.649806 60.807921 
L 410.649806 56.245545 
L 410.790173 56.245545 
L 410.790173 51.683168 
L 412.445501 51.683168 
L 412.445501 47.120792 
L 414.44525 47.120792 
L 414.545499 37.99604 
L 414.604156 37.99604 
L 414.604156 33.433663 
L 415.757468 33.433663 
L 415.757468 28.871287 
L 415.888267 28.871287 
L 415.888267 24.308911 
L 425.573727 24.308911 
L 425.573727 19.746535 
L 432.131419 19.746535 
L 432.185437 10.621782 
L 432.185437 10.621782 
L 453.6 10.621782 
L 453.6 10.621782 
" style="fill:none;stroke:#bf00bf;stroke-linecap:square;"/>
   </g>
   <g id="line2d_4">
    <path clip-path="url(#p120a536876)" d="M 200.534211 352.8 
L 200.534211 348.237624 
L 231.981033 348.237624 
L 231.981033 343.675248 
L 235.331827 343.675248 
L 235.331827 339.112871 
L 236.64863 339.112871 
L 236.64863 334.550495 
L 237.24321 334.550495 
L 237.24321 329.988119 
L 240.110923 329.988119 
L 240.110923 325.425743 
L 245.203143 325.425743 
L 245.203143 320.863366 
L 245.884643 320.863366 
L 245.884643 316.30099 
L 247.20122 316.30099 
L 247.20122 311.738614 
L 248.299997 311.738614 
L 248.299997 307.176238 
L 251.770087 307.176238 
L 251.770087 302.613861 
L 251.988805 302.613861 
L 251.988805 298.051485 
L 252.280427 298.051485 
L 252.280427 293.489109 
L 257.848908 293.489109 
L 257.848908 288.926733 
L 258.997275 288.926733 
L 258.997275 284.364356 
L 260.757513 284.364356 
L 260.757513 279.80198 
L 283.738626 279.80198 
L 283.738626 275.239604 
L 288.455947 275.239604 
L 288.455947 270.677228 
L 288.661488 270.677228 
L 288.661488 266.114851 
L 290.121625 266.114851 
L 290.121625 261.552475 
L 290.698178 261.552475 
L 290.698178 256.990099 
L 291.94841 256.990099 
L 291.94841 252.427723 
L 293.292728 252.427723 
L 293.292728 247.865347 
L 293.813675 247.865347 
L 293.813675 243.30297 
L 295.621964 243.30297 
L 295.621964 238.740594 
L 296.410497 238.740594 
L 296.410497 234.178218 
L 296.776339 234.178218 
L 296.776339 229.615842 
L 297.312653 229.615842 
L 297.312653 225.053465 
L 298.759205 225.053465 
L 298.759205 220.491089 
L 299.082842 220.491089 
L 299.082842 215.928713 
L 301.08393 215.928713 
L 301.08393 211.366337 
L 303.415044 211.366337 
L 303.415044 206.80396 
L 309.572567 206.80396 
L 309.572567 202.241584 
L 321.762566 202.241584 
L 321.762566 197.679208 
L 335.66406 197.679208 
L 335.66406 193.116832 
L 341.997689 193.116832 
L 341.997689 188.554455 
L 358.911812 188.554455 
L 358.911812 183.992079 
L 363.618193 183.992079 
L 363.618193 179.429703 
L 365.870744 179.429703 
L 365.870744 174.867327 
L 369.714119 174.867327 
L 369.714119 170.30495 
L 375.893611 170.30495 
L 375.893611 165.742574 
L 378.496665 165.742574 
L 378.496665 161.180198 
L 381.081866 161.180198 
L 381.081866 156.617822 
L 381.853581 156.617822 
L 381.853581 152.055446 
L 382.501892 152.055446 
L 382.501892 147.493069 
L 383.628668 147.493069 
L 383.628668 142.930693 
L 384.694861 142.930693 
L 384.694861 138.368317 
L 387.733071 138.368317 
L 387.733071 133.805941 
L 388.706922 133.805941 
L 388.706922 129.243564 
L 390.67518 129.243564 
L 390.67518 124.681188 
L 394.136297 124.681188 
L 394.2124 115.556436 
L 396.259026 115.556436 
L 396.259026 110.994059 
L 396.958492 110.994059 
L 396.958492 106.431683 
L 397.099117 106.431683 
L 397.099117 101.869307 
L 397.335539 101.869307 
L 397.335539 97.306931 
L 399.274233 97.306931 
L 399.274233 92.744554 
L 401.105786 92.744554 
L 401.105786 88.182178 
L 402.540819 88.182178 
L 402.540819 83.619802 
L 404.047319 83.619802 
L 404.047319 79.057426 
L 405.181132 79.057426 
L 405.236089 69.932673 
L 406.019333 69.932673 
L 406.019333 65.370297 
L 409.019899 65.370297 
L 409.019899 60.807921 
L 409.161623 60.807921 
L 409.161623 56.245545 
L 409.481405 56.245545 
L 409.481405 51.683168 
L 410.018835 51.683168 
L 410.018835 47.120792 
L 410.649806 47.120792 
L 410.649806 42.558416 
L 412.282415 42.558416 
L 412.282415 37.99604 
L 414.545499 37.99604 
L 414.604156 28.871287 
L 415.888267 28.871287 
L 415.888267 24.308911 
L 425.573727 24.308911 
L 425.573727 19.746535 
L 430.871386 19.746535 
L 430.871386 15.184158 
L 432.185437 15.184158 
L 432.185437 10.621782 
L 432.185437 10.621782 
L 453.6 10.621782 
L 453.6 10.621782 
" style="fill:none;stroke:#000000;stroke-linecap:square;"/>
   </g>
   <g id="line2d_5">
    <path clip-path="url(#p120a536876)" d="M 200.534211 352.8 
L 200.534211 348.237624 
L 231.981033 348.237624 
L 231.981033 343.675248 
L 234.672164 343.675248 
L 234.672164 339.112871 
L 236.101144 339.112871 
L 236.101144 334.550495 
L 236.818776 334.550495 
L 236.818776 329.988119 
L 239.637604 329.988119 
L 239.637604 325.425743 
L 243.992174 325.425743 
L 243.992174 320.863366 
L 245.203143 320.863366 
L 245.203143 316.30099 
L 247.20122 316.30099 
L 247.20122 311.738614 
L 247.633002 311.738614 
L 247.633002 307.176238 
L 251.770087 307.176238 
L 251.770087 302.613861 
L 251.988805 302.613861 
L 251.988805 298.051485 
L 252.280427 298.051485 
L 252.280427 293.489109 
L 257.848908 293.489109 
L 257.848908 288.926733 
L 258.997275 288.926733 
L 258.997275 284.364356 
L 259.685663 284.364356 
L 259.685663 279.80198 
L 261.133535 279.80198 
L 261.133535 275.239604 
L 282.166745 275.239604 
L 282.166745 270.677228 
L 284.945517 270.677228 
L 284.945517 266.114851 
L 288.455947 266.114851 
L 288.561869 256.990099 
L 288.661488 256.990099 
L 288.661488 252.427723 
L 289.935548 252.427723 
L 289.935548 247.865347 
L 291.94841 247.865347 
L 291.94841 243.30297 
L 293.060523 243.30297 
L 293.060523 238.740594 
L 294.430485 238.740594 
L 294.430485 234.178218 
L 295.355225 234.178218 
L 295.355225 229.615842 
L 296.410497 229.615842 
L 296.410497 225.053465 
L 296.776339 225.053465 
L 296.776339 220.491089 
L 298.759205 220.491089 
L 298.759205 215.928713 
L 299.082842 215.928713 
L 299.082842 211.366337 
L 300.893283 211.366337 
L 300.893283 206.80396 
L 303.415044 206.80396 
L 303.415044 202.241584 
L 305.96799 202.241584 
L 305.96799 197.679208 
L 308.289155 197.679208 
L 308.289155 193.116832 
L 335.66406 193.116832 
L 335.66406 188.554455 
L 336.193416 188.554455 
L 336.193416 183.992079 
L 344.680334 183.992079 
L 344.680334 179.429703 
L 356.660207 179.429703 
L 356.660207 174.867327 
L 363.618193 174.867327 
L 363.618193 170.30495 
L 365.870744 170.30495 
L 365.870744 165.742574 
L 373.806791 165.742574 
L 373.806791 161.180198 
L 375.893611 161.180198 
L 375.893611 156.617822 
L 381.081866 156.617822 
L 381.081866 152.055446 
L 381.853581 152.055446 
L 381.853581 147.493069 
L 382.548027 147.493069 
L 382.548027 142.930693 
L 383.628668 142.930693 
L 383.628668 138.368317 
L 384.447277 138.368317 
L 384.447277 133.805941 
L 388.706922 133.805941 
L 388.706922 129.243564 
L 389.620846 129.243564 
L 389.620846 124.681188 
L 394.136297 124.681188 
L 394.2124 115.556436 
L 394.350039 115.556436 
L 394.350039 110.994059 
L 394.476723 110.994059 
L 394.476723 106.431683 
L 394.614672 106.431683 
L 394.614672 101.869307 
L 395.906619 101.869307 
L 395.906619 97.306931 
L 399.274233 97.306931 
L 399.274233 92.744554 
L 400.434739 92.744554 
L 400.442721 83.619802 
L 400.930912 83.619802 
L 400.930912 79.057426 
L 401.105786 79.057426 
L 401.105786 74.49505 
L 403.960496 74.49505 
L 404.022357 65.370297 
L 407.776492 65.370297 
L 407.776492 60.807921 
L 409.161623 60.807921 
L 409.161623 56.245545 
L 409.481405 56.245545 
L 409.481405 51.683168 
L 409.876316 51.683168 
L 409.876316 47.120792 
L 410.445955 47.120792 
L 410.445955 42.558416 
L 410.649806 42.558416 
L 410.649806 37.99604 
L 412.282415 37.99604 
L 412.282415 33.433663 
L 414.545499 33.433663 
L 414.545499 28.871287 
L 415.888267 28.871287 
L 415.888267 24.308911 
L 422.896258 24.308911 
L 422.896258 19.746535 
L 426.085732 19.746535 
L 426.085732 15.184158 
L 427.511397 15.184158 
L 427.511397 10.621782 
L 427.511397 10.621782 
L 453.6 10.621782 
L 453.6 10.621782 
" style="fill:none;stroke:#00bfbf;stroke-linecap:square;"/>
   </g>
   <g id="line2d_6">
    <path clip-path="url(#p120a536876)" d="M 192.521204 352.8 
L 192.521204 348.237624 
L 231.981033 348.237624 
L 231.981033 343.675248 
L 234.672164 343.675248 
L 234.672164 339.112871 
L 236.101144 339.112871 
L 236.101144 334.550495 
L 236.818776 334.550495 
L 236.818776 329.988119 
L 239.637604 329.988119 
L 239.637604 325.425743 
L 243.992174 325.425743 
L 243.992174 320.863366 
L 245.203143 320.863366 
L 245.203143 316.30099 
L 247.20122 316.30099 
L 247.20122 311.738614 
L 247.633002 311.738614 
L 247.633002 307.176238 
L 251.770087 307.176238 
L 251.770087 302.613861 
L 251.896392 302.613861 
L 251.988805 293.489109 
L 252.635258 293.489109 
L 252.635258 288.926733 
L 252.811702 288.926733 
L 252.811702 284.364356 
L 257.848908 284.364356 
L 257.848908 279.80198 
L 258.997275 279.80198 
L 258.997275 275.239604 
L 259.436891 275.239604 
L 259.436891 270.677228 
L 280.852803 270.677228 
L 280.852803 266.114851 
L 282.166745 266.114851 
L 282.166745 261.552475 
L 288.083275 261.552475 
L 288.083275 256.990099 
L 288.561869 256.990099 
L 288.661488 247.865347 
L 289.935548 247.865347 
L 289.935548 243.30297 
L 291.775906 243.30297 
L 291.775906 238.740594 
L 292.76958 238.740594 
L 292.76958 234.178218 
L 294.335034 234.178218 
L 294.335034 229.615842 
L 295.355225 229.615842 
L 295.355225 225.053465 
L 296.410497 225.053465 
L 296.410497 220.491089 
L 296.776339 220.491089 
L 296.776339 215.928713 
L 298.759205 215.928713 
L 298.759205 211.366337 
L 299.082842 211.366337 
L 299.082842 206.80396 
L 300.709204 206.80396 
L 300.709204 202.241584 
L 303.415044 202.241584 
L 303.415044 197.679208 
L 305.96799 197.679208 
L 305.96799 193.116832 
L 335.66406 193.116832 
L 335.66406 188.554455 
L 336.193416 188.554455 
L 336.193416 183.992079 
L 344.680334 183.992079 
L 344.680334 179.429703 
L 356.660207 179.429703 
L 356.660207 174.867327 
L 363.618193 174.867327 
L 363.618193 170.30495 
L 365.870744 170.30495 
L 365.870744 165.742574 
L 373.806791 165.742574 
L 373.806791 161.180198 
L 375.893611 161.180198 
L 375.956827 152.055446 
L 381.081866 152.055446 
L 381.081866 147.493069 
L 381.853581 147.493069 
L 381.853581 142.930693 
L 382.548027 142.930693 
L 382.548027 138.368317 
L 383.628668 138.368317 
L 383.628668 133.805941 
L 388.706922 133.805941 
L 388.706922 129.243564 
L 389.620846 129.243564 
L 389.620846 124.681188 
L 394.053671 124.681188 
L 394.136297 115.556436 
L 394.2124 115.556436 
L 394.2124 110.994059 
L 394.350039 110.994059 
L 394.350039 106.431683 
L 394.476723 106.431683 
L 394.476723 101.869307 
L 394.614672 101.869307 
L 394.614672 97.306931 
L 399.274233 97.306931 
L 399.274233 92.744554 
L 400.434739 92.744554 
L 400.442721 83.619802 
L 400.930912 83.619802 
L 400.930912 79.057426 
L 401.105786 79.057426 
L 401.105786 74.49505 
L 403.960496 74.49505 
L 404.022357 65.370297 
L 407.776492 65.370297 
L 407.776492 60.807921 
L 409.161623 60.807921 
L 409.161623 56.245545 
L 409.481405 56.245545 
L 409.481405 51.683168 
L 409.876316 51.683168 
L 409.876316 47.120792 
L 410.445955 47.120792 
L 410.445955 42.558416 
L 410.649806 42.558416 
L 410.649806 37.99604 
L 412.282415 37.99604 
L 412.282415 33.433663 
L 414.545499 33.433663 
L 414.545499 28.871287 
L 415.888267 28.871287 
L 415.888267 24.308911 
L 422.896258 24.308911 
L 422.896258 19.746535 
L 426.085732 19.746535 
L 426.085732 15.184158 
L 427.511397 15.184158 
L 427.511397 10.621782 
L 427.511397 10.621782 
L 453.6 10.621782 
L 453.6 10.621782 
" style="fill:none;stroke:#bf00bf;stroke-linecap:square;"/>
   </g>
   <g id="patch_3">
    <path d="M 7.2 7.2 
L 453.6 7.2 
" style="fill:none;stroke:#000000;stroke-linecap:square;stroke-linejoin:miter;"/>
   </g>
   <g id="patch_4">
    <path d="M 453.6 352.8 
L 453.6 7.2 
" style="fill:none;stroke:#000000;stroke-linecap:square;stroke-linejoin:miter;"/>
   </g>
   <g id="patch_5">
    <path d="M 7.2 352.8 
L 453.6 352.8 
" style="fill:none;stroke:#000000;stroke-linecap:square;stroke-linejoin:miter;"/>
   </g>
   <g id="patch_6">
    <path d="M 7.2 352.8 
L 7.2 7.2 
" style="fill:none;stroke:#000000;stroke-linecap:square;stroke-linejoin:miter;"/>
   </g>
   <g id="matplotlib.axis_1">
    <g id="xtick_1">
     <g id="line2d_7">
      <path clip-path="url(#p120a536876)" d="M 59.617497 352.8 
L 59.617497 7.2 
" style="fill:none;stroke:#000000;stroke-dasharray:1.000000,3.000000;stroke-dashoffset:0.0;stroke-width:0.5;"/>
     </g>
     <g id="line2d_8">
      <defs>
       <path d="M 0 0 
L 0 -4 
" id="m6beae463f2" style="stroke:#000000;stroke-width:0.5;"/>
      </defs>
      <g>
       <use style="stroke:#000000;stroke-width:0.5;" x="59.6174973142" xlink:href="#m6beae463f2" y="352.8"/>
      </g>
     </g>
     <g id="line2d_9">
      <defs>
       <path d="M 0 0 
L 0 4 
" id="me665cdde7e" style="stroke:#000000;stroke-width:0.5;"/>
      </defs>
      <g>
       <use style="stroke:#000000;stroke-width:0.5;" x="59.6174973142" xlink:href="#me665cdde7e" y="7.2"/>
      </g>
     </g>
     <g id="text_1">
      <!-- -6 -->
      <defs>
       <path d="M 33.015625 40.375 
Q 26.375 40.375 22.484375 35.828125 
Q 18.609375 31.296875 18.609375 23.390625 
Q 18.609375 15.53125 22.484375 10.953125 
Q 26.375 6.390625 33.015625 6.390625 
Q 39.65625 6.390625 43.53125 10.953125 
Q 47.40625 15.53125 47.40625 23.390625 
Q 47.40625 31.296875 43.53125 35.828125 
Q 39.65625 40.375 33.015625 40.375 
M 52.59375 71.296875 
L 52.59375 62.3125 
Q 48.875 64.0625 45.09375 64.984375 
Q 41.3125 65.921875 37.59375 65.921875 
Q 27.828125 65.921875 22.671875 59.328125 
Q 17.53125 52.734375 16.796875 39.40625 
Q 19.671875 43.65625 24.015625 45.921875 
Q 28.375 48.1875 33.59375 48.1875 
Q 44.578125 48.1875 50.953125 41.515625 
Q 57.328125 34.859375 57.328125 23.390625 
Q 57.328125 12.15625 50.6875 5.359375 
Q 44.046875 -1.421875 33.015625 -1.421875 
Q 20.359375 -1.421875 13.671875 8.265625 
Q 6.984375 17.96875 6.984375 36.375 
Q 6.984375 53.65625 15.1875 63.9375 
Q 23.390625 74.21875 37.203125 74.21875 
Q 40.921875 74.21875 44.703125 73.484375 
Q 48.484375 72.75 52.59375 71.296875 
" id="BitstreamVeraSans-Roman-36"/>
       <path d="M 4.890625 31.390625 
L 31.203125 31.390625 
L 31.203125 23.390625 
L 4.890625 23.390625 
z
" id="BitstreamVeraSans-Roman-2d"/>
      </defs>
      <g transform="translate(49.6471848142 371.996875)scale(0.2 -0.2)">
       <use xlink:href="#BitstreamVeraSans-Roman-2d"/>
       <use x="36.083984375" xlink:href="#BitstreamVeraSans-Roman-36"/>
      </g>
     </g>
    </g>
    <g id="xtick_2">
     <g id="line2d_10">
      <path clip-path="url(#p120a536876)" d="M 112.148498 352.8 
L 112.148498 7.2 
" style="fill:none;stroke:#000000;stroke-dasharray:1.000000,3.000000;stroke-dashoffset:0.0;stroke-width:0.5;"/>
     </g>
     <g id="line2d_11">
      <g>
       <use style="stroke:#000000;stroke-width:0.5;" x="112.148497672" xlink:href="#m6beae463f2" y="352.8"/>
      </g>
     </g>
     <g id="line2d_12">
      <g>
       <use style="stroke:#000000;stroke-width:0.5;" x="112.148497672" xlink:href="#me665cdde7e" y="7.2"/>
      </g>
     </g>
     <g id="text_2">
      <!-- -4 -->
      <defs>
       <path d="M 37.796875 64.3125 
L 12.890625 25.390625 
L 37.796875 25.390625 
z
M 35.203125 72.90625 
L 47.609375 72.90625 
L 47.609375 25.390625 
L 58.015625 25.390625 
L 58.015625 17.1875 
L 47.609375 17.1875 
L 47.609375 0 
L 37.796875 0 
L 37.796875 17.1875 
L 4.890625 17.1875 
L 4.890625 26.703125 
z
" id="BitstreamVeraSans-Roman-34"/>
      </defs>
      <g transform="translate(102.178185172 371.996875)scale(0.2 -0.2)">
       <use xlink:href="#BitstreamVeraSans-Roman-2d"/>
       <use x="36.083984375" xlink:href="#BitstreamVeraSans-Roman-34"/>
      </g>
     </g>
    </g>
    <g id="xtick_3">
     <g id="line2d_13">
      <path clip-path="url(#p120a536876)" d="M 164.679498 352.8 
L 164.679498 7.2 
" style="fill:none;stroke:#000000;stroke-dasharray:1.000000,3.000000;stroke-dashoffset:0.0;stroke-width:0.5;"/>
     </g>
     <g id="line2d_14">
      <g>
       <use style="stroke:#000000;stroke-width:0.5;" x="164.67949803" xlink:href="#m6beae463f2" y="352.8"/>
      </g>
     </g>
     <g id="line2d_15">
      <g>
       <use style="stroke:#000000;stroke-width:0.5;" x="164.67949803" xlink:href="#me665cdde7e" y="7.2"/>
      </g>
     </g>
     <g id="text_3">
      <!-- -2 -->
      <defs>
       <path d="M 19.1875 8.296875 
L 53.609375 8.296875 
L 53.609375 0 
L 7.328125 0 
L 7.328125 8.296875 
Q 12.9375 14.109375 22.625 23.890625 
Q 32.328125 33.6875 34.8125 36.53125 
Q 39.546875 41.84375 41.421875 45.53125 
Q 43.3125 49.21875 43.3125 52.78125 
Q 43.3125 58.59375 39.234375 62.25 
Q 35.15625 65.921875 28.609375 65.921875 
Q 23.96875 65.921875 18.8125 64.3125 
Q 13.671875 62.703125 7.8125 59.421875 
L 7.8125 69.390625 
Q 13.765625 71.78125 18.9375 73 
Q 24.125 74.21875 28.421875 74.21875 
Q 39.75 74.21875 46.484375 68.546875 
Q 53.21875 62.890625 53.21875 53.421875 
Q 53.21875 48.921875 51.53125 44.890625 
Q 49.859375 40.875 45.40625 35.40625 
Q 44.1875 33.984375 37.640625 27.21875 
Q 31.109375 20.453125 19.1875 8.296875 
" id="BitstreamVeraSans-Roman-32"/>
      </defs>
      <g transform="translate(154.70918553 371.996875)scale(0.2 -0.2)">
       <use xlink:href="#BitstreamVeraSans-Roman-2d"/>
       <use x="36.083984375" xlink:href="#BitstreamVeraSans-Roman-32"/>
      </g>
     </g>
    </g>
    <g id="xtick_4">
     <g id="line2d_16">
      <path clip-path="url(#p120a536876)" d="M 217.210498 352.8 
L 217.210498 7.2 
" style="fill:none;stroke:#000000;stroke-dasharray:1.000000,3.000000;stroke-dashoffset:0.0;stroke-width:0.5;"/>
     </g>
     <g id="line2d_17">
      <g>
       <use style="stroke:#000000;stroke-width:0.5;" x="217.210498389" xlink:href="#m6beae463f2" y="352.8"/>
      </g>
     </g>
     <g id="line2d_18">
      <g>
       <use style="stroke:#000000;stroke-width:0.5;" x="217.210498389" xlink:href="#me665cdde7e" y="7.2"/>
      </g>
     </g>
     <g id="text_4">
      <!-- 0 -->
      <defs>
       <path d="M 31.78125 66.40625 
Q 24.171875 66.40625 20.328125 58.90625 
Q 16.5 51.421875 16.5 36.375 
Q 16.5 21.390625 20.328125 13.890625 
Q 24.171875 6.390625 31.78125 6.390625 
Q 39.453125 6.390625 43.28125 13.890625 
Q 47.125 21.390625 47.125 36.375 
Q 47.125 51.421875 43.28125 58.90625 
Q 39.453125 66.40625 31.78125 66.40625 
M 31.78125 74.21875 
Q 44.046875 74.21875 50.515625 64.515625 
Q 56.984375 54.828125 56.984375 36.375 
Q 56.984375 17.96875 50.515625 8.265625 
Q 44.046875 -1.421875 31.78125 -1.421875 
Q 19.53125 -1.421875 13.0625 8.265625 
Q 6.59375 17.96875 6.59375 36.375 
Q 6.59375 54.828125 13.0625 64.515625 
Q 19.53125 74.21875 31.78125 74.21875 
" id="BitstreamVeraSans-Roman-30"/>
      </defs>
      <g transform="translate(210.847998389 371.996875)scale(0.2 -0.2)">
       <use xlink:href="#BitstreamVeraSans-Roman-30"/>
      </g>
     </g>
    </g>
    <g id="xtick_5">
     <g id="line2d_19">
      <path clip-path="url(#p120a536876)" d="M 269.741499 352.8 
L 269.741499 7.2 
" style="fill:none;stroke:#000000;stroke-dasharray:1.000000,3.000000;stroke-dashoffset:0.0;stroke-width:0.5;"/>
     </g>
     <g id="line2d_20">
      <g>
       <use style="stroke:#000000;stroke-width:0.5;" x="269.741498747" xlink:href="#m6beae463f2" y="352.8"/>
      </g>
     </g>
     <g id="line2d_21">
      <g>
       <use style="stroke:#000000;stroke-width:0.5;" x="269.741498747" xlink:href="#me665cdde7e" y="7.2"/>
      </g>
     </g>
     <g id="text_5">
      <!-- 2 -->
      <g transform="translate(263.378998747 371.996875)scale(0.2 -0.2)">
       <use xlink:href="#BitstreamVeraSans-Roman-32"/>
      </g>
     </g>
    </g>
    <g id="xtick_6">
     <g id="line2d_22">
      <path clip-path="url(#p120a536876)" d="M 322.272499 352.8 
L 322.272499 7.2 
" style="fill:none;stroke:#000000;stroke-dasharray:1.000000,3.000000;stroke-dashoffset:0.0;stroke-width:0.5;"/>
     </g>
     <g id="line2d_23">
      <g>
       <use style="stroke:#000000;stroke-width:0.5;" x="322.272499105" xlink:href="#m6beae463f2" y="352.8"/>
      </g>
     </g>
     <g id="line2d_24">
      <g>
       <use style="stroke:#000000;stroke-width:0.5;" x="322.272499105" xlink:href="#me665cdde7e" y="7.2"/>
      </g>
     </g>
     <g id="text_6">
      <!-- 4 -->
      <g transform="translate(315.909999105 371.996875)scale(0.2 -0.2)">
       <use xlink:href="#BitstreamVeraSans-Roman-34"/>
      </g>
     </g>
    </g>
    <g id="xtick_7">
     <g id="line2d_25">
      <path clip-path="url(#p120a536876)" d="M 374.803499 352.8 
L 374.803499 7.2 
" style="fill:none;stroke:#000000;stroke-dasharray:1.000000,3.000000;stroke-dashoffset:0.0;stroke-width:0.5;"/>
     </g>
     <g id="line2d_26">
      <g>
       <use style="stroke:#000000;stroke-width:0.5;" x="374.803499463" xlink:href="#m6beae463f2" y="352.8"/>
      </g>
     </g>
     <g id="line2d_27">
      <g>
       <use style="stroke:#000000;stroke-width:0.5;" x="374.803499463" xlink:href="#me665cdde7e" y="7.2"/>
      </g>
     </g>
     <g id="text_7">
      <!-- 6 -->
      <g transform="translate(368.440999463 371.996875)scale(0.2 -0.2)">
       <use xlink:href="#BitstreamVeraSans-Roman-36"/>
      </g>
     </g>
    </g>
    <g id="xtick_8">
     <g id="line2d_28">
      <path clip-path="url(#p120a536876)" d="M 427.3345 352.8 
L 427.3345 7.2 
" style="fill:none;stroke:#000000;stroke-dasharray:1.000000,3.000000;stroke-dashoffset:0.0;stroke-width:0.5;"/>
     </g>
     <g id="line2d_29">
      <g>
       <use style="stroke:#000000;stroke-width:0.5;" x="427.334499821" xlink:href="#m6beae463f2" y="352.8"/>
      </g>
     </g>
     <g id="line2d_30">
      <g>
       <use style="stroke:#000000;stroke-width:0.5;" x="427.334499821" xlink:href="#me665cdde7e" y="7.2"/>
      </g>
     </g>
     <g id="text_8">
      <!-- 8 -->
      <defs>
       <path d="M 31.78125 34.625 
Q 24.75 34.625 20.71875 30.859375 
Q 16.703125 27.09375 16.703125 20.515625 
Q 16.703125 13.921875 20.71875 10.15625 
Q 24.75 6.390625 31.78125 6.390625 
Q 38.8125 6.390625 42.859375 10.171875 
Q 46.921875 13.96875 46.921875 20.515625 
Q 46.921875 27.09375 42.890625 30.859375 
Q 38.875 34.625 31.78125 34.625 
M 21.921875 38.8125 
Q 15.578125 40.375 12.03125 44.71875 
Q 8.5 49.078125 8.5 55.328125 
Q 8.5 64.0625 14.71875 69.140625 
Q 20.953125 74.21875 31.78125 74.21875 
Q 42.671875 74.21875 48.875 69.140625 
Q 55.078125 64.0625 55.078125 55.328125 
Q 55.078125 49.078125 51.53125 44.71875 
Q 48 40.375 41.703125 38.8125 
Q 48.828125 37.15625 52.796875 32.3125 
Q 56.78125 27.484375 56.78125 20.515625 
Q 56.78125 9.90625 50.3125 4.234375 
Q 43.84375 -1.421875 31.78125 -1.421875 
Q 19.734375 -1.421875 13.25 4.234375 
Q 6.78125 9.90625 6.78125 20.515625 
Q 6.78125 27.484375 10.78125 32.3125 
Q 14.796875 37.15625 21.921875 38.8125 
M 18.3125 54.390625 
Q 18.3125 48.734375 21.84375 45.5625 
Q 25.390625 42.390625 31.78125 42.390625 
Q 38.140625 42.390625 41.71875 45.5625 
Q 45.3125 48.734375 45.3125 54.390625 
Q 45.3125 60.0625 41.71875 63.234375 
Q 38.140625 66.40625 31.78125 66.40625 
Q 25.390625 66.40625 21.84375 63.234375 
Q 18.3125 60.0625 18.3125 54.390625 
" id="BitstreamVeraSans-Roman-38"/>
      </defs>
      <g transform="translate(420.971999821 371.996875)scale(0.2 -0.2)">
       <use xlink:href="#BitstreamVeraSans-Roman-38"/>
      </g>
     </g>
    </g>
    <g id="xtick_9">
     <g id="line2d_31">
      <defs>
       <path d="M 0 0 
L 0 -2 
" id="m3cf4a8e43f" style="stroke:#000000;stroke-width:0.5;"/>
      </defs>
      <g>
       <use style="stroke:#000000;stroke-width:0.5;" x="59.6174973142" xlink:href="#m3cf4a8e43f" y="352.8"/>
      </g>
     </g>
     <g id="line2d_32">
      <defs>
       <path d="M 0 0 
L 0 2 
" id="mfaa17a304c" style="stroke:#000000;stroke-width:0.5;"/>
      </defs>
      <g>
       <use style="stroke:#000000;stroke-width:0.5;" x="59.6174973142" xlink:href="#mfaa17a304c" y="7.2"/>
      </g>
     </g>
    </g>
    <g id="xtick_10">
     <g id="line2d_33">
      <g>
       <use style="stroke:#000000;stroke-width:0.5;" x="112.148497672" xlink:href="#m3cf4a8e43f" y="352.8"/>
      </g>
     </g>
     <g id="line2d_34">
      <g>
       <use style="stroke:#000000;stroke-width:0.5;" x="112.148497672" xlink:href="#mfaa17a304c" y="7.2"/>
      </g>
     </g>
    </g>
    <g id="xtick_11">
     <g id="line2d_35">
      <g>
       <use style="stroke:#000000;stroke-width:0.5;" x="164.67949803" xlink:href="#m3cf4a8e43f" y="352.8"/>
      </g>
     </g>
     <g id="line2d_36">
      <g>
       <use style="stroke:#000000;stroke-width:0.5;" x="164.67949803" xlink:href="#mfaa17a304c" y="7.2"/>
      </g>
     </g>
    </g>
    <g id="xtick_12">
     <g id="line2d_37">
      <g>
       <use style="stroke:#000000;stroke-width:0.5;" x="217.210498389" xlink:href="#m3cf4a8e43f" y="352.8"/>
      </g>
     </g>
     <g id="line2d_38">
      <g>
       <use style="stroke:#000000;stroke-width:0.5;" x="217.210498389" xlink:href="#mfaa17a304c" y="7.2"/>
      </g>
     </g>
    </g>
    <g id="xtick_13">
     <g id="line2d_39">
      <g>
       <use style="stroke:#000000;stroke-width:0.5;" x="269.741498747" xlink:href="#m3cf4a8e43f" y="352.8"/>
      </g>
     </g>
     <g id="line2d_40">
      <g>
       <use style="stroke:#000000;stroke-width:0.5;" x="269.741498747" xlink:href="#mfaa17a304c" y="7.2"/>
      </g>
     </g>
    </g>
    <g id="xtick_14">
     <g id="line2d_41">
      <g>
       <use style="stroke:#000000;stroke-width:0.5;" x="322.272499105" xlink:href="#m3cf4a8e43f" y="352.8"/>
      </g>
     </g>
     <g id="line2d_42">
      <g>
       <use style="stroke:#000000;stroke-width:0.5;" x="322.272499105" xlink:href="#mfaa17a304c" y="7.2"/>
      </g>
     </g>
    </g>
    <g id="xtick_15">
     <g id="line2d_43">
      <g>
       <use style="stroke:#000000;stroke-width:0.5;" x="374.803499463" xlink:href="#m3cf4a8e43f" y="352.8"/>
      </g>
     </g>
     <g id="line2d_44">
      <g>
       <use style="stroke:#000000;stroke-width:0.5;" x="374.803499463" xlink:href="#mfaa17a304c" y="7.2"/>
      </g>
     </g>
    </g>
    <g id="xtick_16">
     <g id="line2d_45">
      <g>
       <use style="stroke:#000000;stroke-width:0.5;" x="427.334499821" xlink:href="#m3cf4a8e43f" y="352.8"/>
      </g>
     </g>
     <g id="line2d_46">
      <g>
       <use style="stroke:#000000;stroke-width:0.5;" x="427.334499821" xlink:href="#mfaa17a304c" y="7.2"/>
      </g>
     </g>
    </g>
    <g id="text_9">
     <!-- log10 of Df -->
     <defs>
      <path id="BitstreamVeraSans-Roman-20"/>
      <path d="M 12.40625 8.296875 
L 28.515625 8.296875 
L 28.515625 63.921875 
L 10.984375 60.40625 
L 10.984375 69.390625 
L 28.421875 72.90625 
L 38.28125 72.90625 
L 38.28125 8.296875 
L 54.390625 8.296875 
L 54.390625 0 
L 12.40625 0 
z
" id="BitstreamVeraSans-Roman-31"/>
      <path d="M 30.609375 48.390625 
Q 23.390625 48.390625 19.1875 42.75 
Q 14.984375 37.109375 14.984375 27.296875 
Q 14.984375 17.484375 19.15625 11.84375 
Q 23.34375 6.203125 30.609375 6.203125 
Q 37.796875 6.203125 41.984375 11.859375 
Q 46.1875 17.53125 46.1875 27.296875 
Q 46.1875 37.015625 41.984375 42.703125 
Q 37.796875 48.390625 30.609375 48.390625 
M 30.609375 56 
Q 42.328125 56 49.015625 48.375 
Q 55.71875 40.765625 55.71875 27.296875 
Q 55.71875 13.875 49.015625 6.21875 
Q 42.328125 -1.421875 30.609375 -1.421875 
Q 18.84375 -1.421875 12.171875 6.21875 
Q 5.515625 13.875 5.515625 27.296875 
Q 5.515625 40.765625 12.171875 48.375 
Q 18.84375 56 30.609375 56 
" id="BitstreamVeraSans-Roman-6f"/>
      <path d="M 9.421875 75.984375 
L 18.40625 75.984375 
L 18.40625 0 
L 9.421875 0 
z
" id="BitstreamVeraSans-Roman-6c"/>
      <path d="M 19.671875 64.796875 
L 19.671875 8.109375 
L 31.59375 8.109375 
Q 46.6875 8.109375 53.6875 14.9375 
Q 60.6875 21.78125 60.6875 36.53125 
Q 60.6875 51.171875 53.6875 57.984375 
Q 46.6875 64.796875 31.59375 64.796875 
z
M 9.8125 72.90625 
L 30.078125 72.90625 
Q 51.265625 72.90625 61.171875 64.09375 
Q 71.09375 55.28125 71.09375 36.53125 
Q 71.09375 17.671875 61.125 8.828125 
Q 51.171875 0 30.078125 0 
L 9.8125 0 
z
" id="BitstreamVeraSans-Roman-44"/>
      <path d="M 45.40625 27.984375 
Q 45.40625 37.75 41.375 43.109375 
Q 37.359375 48.484375 30.078125 48.484375 
Q 22.859375 48.484375 18.828125 43.109375 
Q 14.796875 37.75 14.796875 27.984375 
Q 14.796875 18.265625 18.828125 12.890625 
Q 22.859375 7.515625 30.078125 7.515625 
Q 37.359375 7.515625 41.375 12.890625 
Q 45.40625 18.265625 45.40625 27.984375 
M 54.390625 6.78125 
Q 54.390625 -7.171875 48.1875 -13.984375 
Q 42 -20.796875 29.203125 -20.796875 
Q 24.46875 -20.796875 20.265625 -20.09375 
Q 16.0625 -19.390625 12.109375 -17.921875 
L 12.109375 -9.1875 
Q 16.0625 -11.328125 19.921875 -12.34375 
Q 23.78125 -13.375 27.78125 -13.375 
Q 36.625 -13.375 41.015625 -8.765625 
Q 45.40625 -4.15625 45.40625 5.171875 
L 45.40625 9.625 
Q 42.625 4.78125 38.28125 2.390625 
Q 33.9375 0 27.875 0 
Q 17.828125 0 11.671875 7.65625 
Q 5.515625 15.328125 5.515625 27.984375 
Q 5.515625 40.671875 11.671875 48.328125 
Q 17.828125 56 27.875 56 
Q 33.9375 56 38.28125 53.609375 
Q 42.625 51.21875 45.40625 46.390625 
L 45.40625 54.6875 
L 54.390625 54.6875 
z
" id="BitstreamVeraSans-Roman-67"/>
      <path d="M 37.109375 75.984375 
L 37.109375 68.5 
L 28.515625 68.5 
Q 23.6875 68.5 21.796875 66.546875 
Q 19.921875 64.59375 19.921875 59.515625 
L 19.921875 54.6875 
L 34.71875 54.6875 
L 34.71875 47.703125 
L 19.921875 47.703125 
L 19.921875 0 
L 10.890625 0 
L 10.890625 47.703125 
L 2.296875 47.703125 
L 2.296875 54.6875 
L 10.890625 54.6875 
L 10.890625 58.5 
Q 10.890625 67.625 15.140625 71.796875 
Q 19.390625 75.984375 28.609375 75.984375 
z
" id="BitstreamVeraSans-Roman-66"/>
     </defs>
     <g transform="translate(175.2140625 396.353125)scale(0.2 -0.2)">
      <use xlink:href="#BitstreamVeraSans-Roman-6c"/>
      <use x="27.783203125" xlink:href="#BitstreamVeraSans-Roman-6f"/>
      <use x="88.96484375" xlink:href="#BitstreamVeraSans-Roman-67"/>
      <use x="152.44140625" xlink:href="#BitstreamVeraSans-Roman-31"/>
      <use x="216.064453125" xlink:href="#BitstreamVeraSans-Roman-30"/>
      <use x="279.6875" xlink:href="#BitstreamVeraSans-Roman-20"/>
      <use x="311.474609375" xlink:href="#BitstreamVeraSans-Roman-6f"/>
      <use x="372.65625" xlink:href="#BitstreamVeraSans-Roman-66"/>
      <use x="407.861328125" xlink:href="#BitstreamVeraSans-Roman-20"/>
      <use x="439.6484375" xlink:href="#BitstreamVeraSans-Roman-44"/>
      <use x="516.650390625" xlink:href="#BitstreamVeraSans-Roman-66"/>
     </g>
    </g>
   </g>
   <g id="matplotlib.axis_2">
    <g id="ytick_1">
     <g id="line2d_47">
      <path clip-path="url(#p120a536876)" d="M 7.2 352.8 
L 453.6 352.8 
" style="fill:none;stroke:#000000;stroke-dasharray:1.000000,3.000000;stroke-dashoffset:0.0;stroke-width:0.5;"/>
     </g>
     <g id="line2d_48">
      <defs>
       <path d="M 0 0 
L 4 0 
" id="m5b0f084c4f" style="stroke:#000000;stroke-width:0.5;"/>
      </defs>
      <g>
       <use style="stroke:#000000;stroke-width:0.5;" x="7.2" xlink:href="#m5b0f084c4f" y="352.8"/>
      </g>
     </g>
     <g id="line2d_49">
      <defs>
       <path d="M 0 0 
L -4 0 
" id="md5112a2ec0" style="stroke:#000000;stroke-width:0.5;"/>
      </defs>
      <g>
       <use style="stroke:#000000;stroke-width:0.5;" x="453.6" xlink:href="#md5112a2ec0" y="352.8"/>
      </g>
     </g>
    </g>
    <g id="ytick_2">
     <g id="line2d_50">
      <path clip-path="url(#p120a536876)" d="M 7.2 284.364356 
L 453.6 284.364356 
" style="fill:none;stroke:#000000;stroke-dasharray:1.000000,3.000000;stroke-dashoffset:0.0;stroke-width:0.5;"/>
     </g>
     <g id="line2d_51">
      <g>
       <use style="stroke:#000000;stroke-width:0.5;" x="7.2" xlink:href="#m5b0f084c4f" y="284.364356436"/>
      </g>
     </g>
     <g id="line2d_52">
      <g>
       <use style="stroke:#000000;stroke-width:0.5;" x="453.6" xlink:href="#md5112a2ec0" y="284.364356436"/>
      </g>
     </g>
    </g>
    <g id="ytick_3">
     <g id="line2d_53">
      <path clip-path="url(#p120a536876)" d="M 7.2 215.928713 
L 453.6 215.928713 
" style="fill:none;stroke:#000000;stroke-dasharray:1.000000,3.000000;stroke-dashoffset:0.0;stroke-width:0.5;"/>
     </g>
     <g id="line2d_54">
      <g>
       <use style="stroke:#000000;stroke-width:0.5;" x="7.2" xlink:href="#m5b0f084c4f" y="215.928712871"/>
      </g>
     </g>
     <g id="line2d_55">
      <g>
       <use style="stroke:#000000;stroke-width:0.5;" x="453.6" xlink:href="#md5112a2ec0" y="215.928712871"/>
      </g>
     </g>
    </g>
    <g id="ytick_4">
     <g id="line2d_56">
      <path clip-path="url(#p120a536876)" d="M 7.2 147.493069 
L 453.6 147.493069 
" style="fill:none;stroke:#000000;stroke-dasharray:1.000000,3.000000;stroke-dashoffset:0.0;stroke-width:0.5;"/>
     </g>
     <g id="line2d_57">
      <g>
       <use style="stroke:#000000;stroke-width:0.5;" x="7.2" xlink:href="#m5b0f084c4f" y="147.493069307"/>
      </g>
     </g>
     <g id="line2d_58">
      <g>
       <use style="stroke:#000000;stroke-width:0.5;" x="453.6" xlink:href="#md5112a2ec0" y="147.493069307"/>
      </g>
     </g>
    </g>
    <g id="ytick_5">
     <g id="line2d_59">
      <path clip-path="url(#p120a536876)" d="M 7.2 79.057426 
L 453.6 79.057426 
" style="fill:none;stroke:#000000;stroke-dasharray:1.000000,3.000000;stroke-dashoffset:0.0;stroke-width:0.5;"/>
     </g>
     <g id="line2d_60">
      <g>
       <use style="stroke:#000000;stroke-width:0.5;" x="7.2" xlink:href="#m5b0f084c4f" y="79.0574257426"/>
      </g>
     </g>
     <g id="line2d_61">
      <g>
       <use style="stroke:#000000;stroke-width:0.5;" x="453.6" xlink:href="#md5112a2ec0" y="79.0574257426"/>
      </g>
     </g>
    </g>
    <g id="ytick_6">
     <g id="line2d_62">
      <path clip-path="url(#p120a536876)" d="M 7.2 10.621782 
L 453.6 10.621782 
" style="fill:none;stroke:#000000;stroke-dasharray:1.000000,3.000000;stroke-dashoffset:0.0;stroke-width:0.5;"/>
     </g>
     <g id="line2d_63">
      <g>
       <use style="stroke:#000000;stroke-width:0.5;" x="7.2" xlink:href="#m5b0f084c4f" y="10.6217821782"/>
      </g>
     </g>
     <g id="line2d_64">
      <g>
       <use style="stroke:#000000;stroke-width:0.5;" x="453.6" xlink:href="#md5112a2ec0" y="10.6217821782"/>
      </g>
     </g>
    </g>
   </g>
   <g id="text_10">
    <!-- {f10-f14}, 5-D -->
    <defs>
     <path d="M 12.5 -9.28125 
L 15.921875 -9.28125 
Q 22.75 -9.28125 24.828125 -7.171875 
Q 26.90625 -5.078125 26.90625 1.90625 
L 26.90625 14.015625 
Q 26.90625 21.625 29.09375 25.09375 
Q 31.296875 28.5625 36.71875 29.890625 
Q 31.296875 31.109375 29.09375 34.5625 
Q 26.90625 38.03125 26.90625 45.703125 
L 26.90625 57.8125 
Q 26.90625 64.75 24.828125 66.875 
Q 22.75 69 15.921875 69 
L 12.5 69 
L 12.5 75.984375 
L 15.578125 75.984375 
Q 27.734375 75.984375 31.8125 72.390625 
Q 35.890625 68.796875 35.890625 58.015625 
L 35.890625 46.296875 
Q 35.890625 39.015625 38.515625 36.203125 
Q 41.15625 33.40625 48.09375 33.40625 
L 51.125 33.40625 
L 51.125 26.421875 
L 48.09375 26.421875 
Q 41.15625 26.421875 38.515625 23.578125 
Q 35.890625 20.75 35.890625 13.375 
L 35.890625 1.703125 
Q 35.890625 -9.078125 31.8125 -12.6875 
Q 27.734375 -16.3125 15.578125 -16.3125 
L 12.5 -16.3125 
z
" id="BitstreamVeraSans-Roman-7d"/>
     <path d="M 51.125 -9.28125 
L 51.125 -16.3125 
L 48.09375 -16.3125 
Q 35.9375 -16.3125 31.8125 -12.6875 
Q 27.6875 -9.078125 27.6875 1.703125 
L 27.6875 13.375 
Q 27.6875 20.75 25.046875 23.578125 
Q 22.40625 26.421875 15.484375 26.421875 
L 12.5 26.421875 
L 12.5 33.40625 
L 15.484375 33.40625 
Q 22.46875 33.40625 25.078125 36.203125 
Q 27.6875 39.015625 27.6875 46.296875 
L 27.6875 58.015625 
Q 27.6875 68.796875 31.8125 72.390625 
Q 35.9375 75.984375 48.09375 75.984375 
L 51.125 75.984375 
L 51.125 69 
L 47.796875 69 
Q 40.921875 69 38.8125 66.84375 
Q 36.71875 64.703125 36.71875 57.8125 
L 36.71875 45.703125 
Q 36.71875 38.03125 34.5 34.5625 
Q 32.28125 31.109375 26.90625 29.890625 
Q 32.328125 28.5625 34.515625 25.09375 
Q 36.71875 21.625 36.71875 14.015625 
L 36.71875 1.90625 
Q 36.71875 -4.984375 38.8125 -7.125 
Q 40.921875 -9.28125 47.796875 -9.28125 
z
" id="BitstreamVeraSans-Roman-7b"/>
     <path d="M 11.71875 12.40625 
L 22.015625 12.40625 
L 22.015625 4 
L 14.015625 -11.625 
L 7.71875 -11.625 
L 11.71875 4 
z
" id="BitstreamVeraSans-Roman-2c"/>
     <path d="M 10.796875 72.90625 
L 49.515625 72.90625 
L 49.515625 64.59375 
L 19.828125 64.59375 
L 19.828125 46.734375 
Q 21.96875 47.46875 24.109375 47.828125 
Q 26.265625 48.1875 28.421875 48.1875 
Q 40.625 48.1875 47.75 41.5 
Q 54.890625 34.8125 54.890625 23.390625 
Q 54.890625 11.625 47.5625 5.09375 
Q 40.234375 -1.421875 26.90625 -1.421875 
Q 22.3125 -1.421875 17.546875 -0.640625 
Q 12.796875 0.140625 7.71875 1.703125 
L 7.71875 11.625 
Q 12.109375 9.234375 16.796875 8.0625 
Q 21.484375 6.890625 26.703125 6.890625 
Q 35.15625 6.890625 40.078125 11.328125 
Q 45.015625 15.765625 45.015625 23.390625 
Q 45.015625 31 40.078125 35.4375 
Q 35.15625 39.890625 26.703125 39.890625 
Q 22.75 39.890625 18.8125 39.015625 
Q 14.890625 38.140625 10.796875 36.28125 
z
" id="BitstreamVeraSans-Roman-35"/>
    </defs>
    <g transform="translate(298.972 345.888)scale(0.2 -0.2)">
     <use xlink:href="#BitstreamVeraSans-Roman-7b"/>
     <use x="63.623046875" xlink:href="#BitstreamVeraSans-Roman-66"/>
     <use x="98.828125" xlink:href="#BitstreamVeraSans-Roman-31"/>
     <use x="162.451171875" xlink:href="#BitstreamVeraSans-Roman-30"/>
     <use x="226.07421875" xlink:href="#BitstreamVeraSans-Roman-2d"/>
     <use x="262.158203125" xlink:href="#BitstreamVeraSans-Roman-66"/>
     <use x="297.36328125" xlink:href="#BitstreamVeraSans-Roman-31"/>
     <use x="360.986328125" xlink:href="#BitstreamVeraSans-Roman-34"/>
     <use x="424.609375" xlink:href="#BitstreamVeraSans-Roman-7d"/>
     <use x="488.232421875" xlink:href="#BitstreamVeraSans-Roman-2c"/>
     <use x="520.01953125" xlink:href="#BitstreamVeraSans-Roman-20"/>
     <use x="551.806640625" xlink:href="#BitstreamVeraSans-Roman-35"/>
     <use x="615.4296875" xlink:href="#BitstreamVeraSans-Roman-2d"/>
     <use x="651.513671875" xlink:href="#BitstreamVeraSans-Roman-44"/>
    </g>
   </g>
   <g id="text_11">
    <!-- 1.2.1.2 -->
    <defs>
     <path d="M 10.6875 12.40625 
L 21 12.40625 
L 21 0 
L 10.6875 0 
z
" id="BitstreamVeraSans-Roman-2e"/>
    </defs>
    <g style="fill:#808080;" transform="translate(212.9078125 347.2643125)scale(0.1 -0.1)">
     <use xlink:href="#BitstreamVeraSans-Roman-31"/>
     <use x="63.623046875" xlink:href="#BitstreamVeraSans-Roman-2e"/>
     <use x="95.41015625" xlink:href="#BitstreamVeraSans-Roman-32"/>
     <use x="159.033203125" xlink:href="#BitstreamVeraSans-Roman-2e"/>
     <use x="190.8203125" xlink:href="#BitstreamVeraSans-Roman-31"/>
     <use x="254.443359375" xlink:href="#BitstreamVeraSans-Roman-2e"/>
     <use x="286.23046875" xlink:href="#BitstreamVeraSans-Roman-32"/>
    </g>
   </g>
  </g>
 </g>
 <defs>
  <clipPath id="p120a536876">
   <rect height="345.6" width="446.4" x="7.2" y="7.2"/>
  </clipPath>
 </defs>
</svg>
