<?xml version="1.0" encoding="utf-8" standalone="no"?>
<!DOCTYPE svg PUBLIC "-//W3C//DTD SVG 1.1//EN"
  "http://www.w3.org/Graphics/SVG/1.1/DTD/svg11.dtd">
<!-- Created with matplotlib (http://matplotlib.org/) -->
<svg height="432pt" version="1.1" viewBox="0 0 538 432" width="538pt" xmlns="http://www.w3.org/2000/svg" xmlns:xlink="http://www.w3.org/1999/xlink">
 <defs>
  <style type="text/css">
*{stroke-linecap:butt;stroke-linejoin:round;stroke-miterlimit:100000;}
  </style>
 </defs>
 <g id="figure_1">
  <g id="patch_1">
   <path d="M 0 432.43625 
L 538.8 432.43625 
L 538.8 0 
L 0 0 
z
" style="fill:#ffffff;"/>
  </g>
  <g id="axes_1">
   <g id="patch_2">
    <path d="M 85.2 376.03625 
L 531.6 376.03625 
L 531.6 30.43625 
L 85.2 30.43625 
z
" style="fill:#ffffff;"/>
   </g>
   <g id="line2d_1">
    <defs>
     <path d="M 0 1.5 
C 0.397805 1.5 0.77937 1.341951 1.06066 1.06066 
C 1.341951 0.77937 1.5 0.397805 1.5 0 
C 1.5 -0.397805 1.341951 -0.77937 1.06066 -1.06066 
C 0.77937 -1.341951 0.397805 -1.5 0 -1.5 
C -0.397805 -1.5 -0.77937 -1.341951 -1.06066 -1.06066 
C -1.341951 -0.77937 -1.5 -0.397805 -1.5 0 
C -1.5 0.397805 -1.341951 0.77937 -1.06066 1.06066 
C -0.77937 1.341951 -0.397805 1.5 0 1.5 
z
" id="m13eb6f6ee8" style="stroke:#00bfbf;stroke-width:0.5;"/>
    </defs>
    <g>
     <use style="fill:#00bfbf;stroke:#00bfbf;stroke-width:0.5;" x="325.659174328" xlink:href="#m13eb6f6ee8" y="33.8580321782"/>
     <use style="fill:#00bfbf;stroke:#00bfbf;stroke-width:0.5;" x="325.659174328" xlink:href="#m13eb6f6ee8" y="33.8580321782"/>
    </g>
   </g>
   <g id="line2d_2">
    <path d="M 69.718457 376.03625 
L 69.718457 368.655935 
L 85.2 368.655935 
L 85.2 367.31406 
L 139.750175 367.31406 
L 139.750175 364.630309 
L 149.127671 364.630309 
L 149.127671 362.617496 
L 163.295003 362.617496 
L 163.295003 361.946559 
L 163.961773 361.946559 
L 163.961773 361.275621 
L 165.238414 361.275621 
L 165.238414 359.262808 
L 167.02618 359.262808 
L 167.02618 357.249995 
L 168.945716 357.249995 
L 168.945716 354.566244 
L 176.272389 354.566244 
L 176.272389 353.895306 
L 177.199292 353.895306 
L 177.199292 352.553431 
L 177.380144 352.553431 
L 177.380144 351.882493 
L 180.564311 351.882493 
L 180.564311 351.211556 
L 181.180492 351.211556 
L 181.180492 349.198743 
L 181.780129 349.198743 
L 181.780129 348.527805 
L 183.488106 348.527805 
L 183.488106 345.844054 
L 183.895445 345.844054 
L 183.895445 345.173117 
L 184.02959 345.173117 
L 184.02959 344.502179 
L 185.328511 344.502179 
L 185.328511 342.489366 
L 185.9507 342.489366 
L 185.9507 341.818428 
L 186.315861 341.818428 
L 186.315861 341.147491 
L 188.16854 341.147491 
L 188.16854 337.792802 
L 189.568309 337.792802 
L 189.672435 335.779989 
L 189.981934 335.779989 
L 189.981934 335.109051 
L 194.842592 335.109051 
L 194.842592 334.438114 
L 196.045853 334.438114 
L 196.045853 333.096238 
L 198.969648 333.096238 
L 198.969648 332.425301 
L 202.685009 332.425301 
L 202.685009 331.754363 
L 203.705574 331.754363 
L 203.705574 329.070612 
L 204.198886 329.070612 
L 204.198886 326.386862 
L 204.787391 326.386862 
L 204.787391 325.715924 
L 206.708791 325.715924 
L 206.708791 324.374048 
L 207.703734 324.374048 
L 207.750024 320.348422 
L 208.162377 320.348422 
L 208.162377 319.677485 
L 208.477914 319.677485 
L 208.477914 319.006547 
L 208.611791 319.006547 
L 208.611791 318.335609 
L 210.158689 318.335609 
L 210.241565 316.993734 
L 211.876087 316.993734 
L 211.876087 316.322796 
L 212.10556 316.322796 
L 212.10556 314.980921 
L 213.037102 314.980921 
L 213.037102 314.309983 
L 213.790648 314.309983 
L 213.790648 307.600606 
L 214.892142 307.600606 
L 214.892142 306.258731 
L 215.781057 306.258731 
L 215.781057 305.587793 
L 216.037785 305.587793 
L 216.037785 304.245918 
L 216.448776 304.245918 
L 216.448776 302.233105 
L 216.790726 302.233105 
L 216.790726 299.549354 
L 217.369311 299.549354 
L 217.369311 298.878417 
L 240.42605 298.878417 
L 240.42605 296.865604 
L 240.670967 296.865604 
L 240.670967 296.194666 
L 240.955093 296.194666 
L 241.038589 294.85279 
L 241.06982 294.85279 
L 241.08022 292.839977 
L 241.245973 292.839977 
L 241.245973 289.485289 
L 241.390005 289.485289 
L 241.390005 287.472476 
L 241.634776 287.472476 
L 241.634776 285.459663 
L 241.766249 285.459663 
L 241.806547 284.117788 
L 242.333743 284.117788 
L 242.373031 282.104975 
L 242.470949 282.104975 
L 242.480717 280.092161 
L 242.867986 280.092161 
L 242.867986 278.079348 
L 243.595087 278.079348 
L 243.678548 276.737473 
L 244.326254 276.737473 
L 244.407032 275.395598 
L 244.469658 275.395598 
L 244.496444 272.711847 
L 244.832983 272.711847 
L 244.859337 270.028096 
L 245.190492 270.028096 
L 245.190492 269.357159 
L 245.542369 269.357159 
L 245.63584 267.344346 
L 245.905551 267.344346 
L 245.905551 266.673408 
L 246.122317 266.673408 
L 246.196865 259.964031 
L 246.304106 259.964031 
L 246.394449 257.951218 
L 254.984002 257.951218 
L 254.984002 257.28028 
L 255.436906 257.28028 
L 255.436906 256.609343 
L 255.762576 256.609343 
L 255.870086 253.254654 
L 255.928997 253.254654 
L 255.971744 251.912779 
L 256.07294 251.912779 
L 256.147214 248.55809 
L 256.184258 248.55809 
L 256.184258 247.887153 
L 256.462762 247.887153 
L 256.520132 245.87434 
L 256.727516 245.87434 
L 256.727516 243.861527 
L 257.029936 243.861527 
L 257.029936 241.848714 
L 257.166977 241.848714 
L 257.232661 238.494025 
L 257.328315 238.494025 
L 257.413554 236.481212 
L 257.518403 236.481212 
L 257.602921 233.797461 
L 257.632675 233.797461 
L 257.632675 233.126524 
L 257.795616 233.126524 
L 257.805453 231.113711 
L 258.006164 231.113711 
L 258.006164 230.442773 
L 258.156733 230.442773 
L 258.258158 227.759022 
L 258.41183 227.759022 
L 258.41183 227.088085 
L 258.535914 227.088085 
L 258.640373 220.378708 
L 258.69242 220.378708 
L 258.69242 219.70777 
L 264.190267 219.70777 
L 264.190267 219.036832 
L 264.57126 219.036832 
L 264.632924 216.353082 
L 264.683579 216.353082 
L 264.770149 215.011206 
L 264.820494 215.011206 
L 264.845624 211.656518 
L 265.215691 211.656518 
L 265.215691 209.643705 
L 265.422938 209.643705 
L 265.517143 207.630892 
L 265.687098 207.630892 
L 265.793957 203.605266 
L 265.818016 203.605266 
L 265.818016 201.592453 
L 265.968652 201.592453 
L 265.968652 200.921515 
L 266.097934 200.921515 
L 266.20285 198.237764 
L 266.236588 198.237764 
L 266.273642 195.554014 
L 266.381088 195.554014 
L 266.468008 194.212138 
L 266.498017 194.212138 
L 266.577845 188.173699 
L 266.64084 188.173699 
L 266.64084 187.502761 
L 270.910246 187.502761 
L 270.94304 185.489948 
L 271.071019 185.489948 
L 271.071019 184.819011 
L 271.244119 184.819011 
L 271.351629 182.806198 
L 271.581038 182.806198 
L 271.581038 181.464322 
L 271.710701 181.464322 
L 271.810741 177.438696 
L 271.826496 177.438696 
L 271.826496 176.767758 
L 272.025101 176.767758 
L 272.105607 174.754945 
L 272.159979 174.754945 
L 272.242578 172.742132 
L 272.332571 172.742132 
L 272.442641 170.058382 
L 275.888172 170.058382 
L 275.934082 166.703693 
L 276.049532 166.703693 
L 276.073419 164.69088 
L 276.287257 164.69088 
L 276.373079 161.336192 
L 276.413729 161.336192 
L 276.516096 158.652441 
L 276.537364 158.652441 
L 276.617996 157.310566 
L 276.704669 157.310566 
L 276.814114 152.614002 
L 276.935558 152.614002 
L 277.04388 148.588376 
L 279.795245 148.588376 
L 279.81728 147.2465 
L 279.912518 147.2465 
L 279.925308 144.56275 
L 280.114467 144.56275 
L 280.114467 143.891812 
L 280.327167 143.891812 
L 280.436333 140.537124 
L 280.571601 140.537124 
L 280.663683 137.853373 
L 280.72016 137.853373 
L 280.823918 132.485871 
L 280.857229 132.485871 
L 280.857229 131.143996 
L 283.217478 131.143996 
L 283.304003 129.131183 
L 283.472937 129.131183 
L 283.472937 127.789308 
L 283.626678 127.789308 
L 283.682323 126.447432 
L 283.800878 126.447432 
L 283.86681 125.105557 
L 283.946284 125.105557 
L 284.048268 123.092744 
L 286.171926 123.092744 
L 286.239489 121.750869 
L 286.391789 121.750869 
L 286.47232 118.39618 
L 286.617632 118.39618 
L 286.631164 115.712429 
L 286.89743 115.712429 
L 286.954838 112.357741 
L 288.773455 112.357741 
L 288.845854 109.003053 
L 289.044661 109.003053 
L 289.136755 106.99024 
L 289.163343 106.99024 
L 289.174211 105.648364 
L 289.288605 105.648364 
L 289.343786 103.635551 
L 289.413169 103.635551 
L 289.423916 100.280863 
L 291.163049 100.280863 
L 291.167466 98.938987 
L 291.286399 98.938987 
L 291.392681 97.597112 
L 291.43418 97.597112 
L 291.457081 96.255237 
L 291.571233 96.255237 
L 291.621059 93.571486 
L 291.693434 93.571486 
L 291.693434 92.900548 
L 293.22203 92.900548 
L 293.271325 91.558673 
L 293.382592 91.558673 
L 293.46842 90.216797 
L 293.560864 90.216797 
L 293.643046 88.203984 
L 293.676624 88.203984 
L 293.777055 84.178358 
L 295.148734 84.178358 
L 295.19949 81.494608 
L 295.559757 81.494608 
L 295.661116 77.468982 
L 297.063563 77.468982 
L 297.063563 76.127106 
L 297.203888 76.127106 
L 297.30478 73.443355 
L 298.570187 73.443355 
L 298.570187 72.772418 
L 298.776908 72.772418 
L 298.83965 70.759605 
L 298.899091 70.759605 
L 299.001957 66.733979 
L 300.409782 66.733979 
L 300.513929 64.721166 
L 301.538556 64.721166 
L 301.538556 64.050228 
L 301.717589 64.050228 
L 301.798683 62.037415 
L 301.860337 62.037415 
L 301.935462 59.353664 
L 302.883878 59.353664 
L 302.917831 58.011789 
L 303.155366 58.011789 
L 303.247491 55.328038 
L 304.307786 55.328038 
L 304.41116 53.315225 
L 304.442871 53.315225 
L 304.462364 51.97335 
L 305.39139 51.97335 
L 305.422324 50.631474 
L 305.509641 50.631474 
L 305.576354 49.289599 
L 305.676339 49.289599 
L 305.676339 48.618661 
L 306.499446 48.618661 
L 306.499446 47.947724 
L 306.807446 47.947724 
L 306.807446 47.276786 
L 307.756719 47.276786 
L 307.803428 45.93491 
L 308.783998 45.93491 
L 308.88812 43.25116 
L 309.632694 43.25116 
L 309.632694 42.580222 
L 310.706828 42.580222 
L 310.80238 41.238347 
L 311.562173 41.238347 
L 311.659436 38.554596 
L 313.198167 38.554596 
L 313.308251 36.541783 
L 315.615883 36.541783 
L 315.615883 35.870845 
L 318.436208 35.870845 
L 318.436208 35.199908 
L 319.758653 35.199908 
L 319.758653 34.52897 
L 325.659174 34.52897 
L 325.659174 33.858032 
L 445.2 33.858032 
L 445.2 33.858032 
" style="fill:none;stroke:#00bfbf;stroke-linecap:square;stroke-width:1.5;"/>
   </g>
   <g id="line2d_3">
    <defs>
     <path d="M -6 0 
L 6 0 
M 0 6 
L 0 -6 
" id="me67d353dc6" style="stroke:#00bfbf;stroke-width:1.5;"/>
    </defs>
    <g>
     <use style="fill:none;stroke:#00bfbf;stroke-width:1.5;" x="213.790648167" xlink:href="#me67d353dc6" y="314.309983256"/>
     <use style="fill:none;stroke:#00bfbf;stroke-width:1.5;" x="265.687098108" xlink:href="#me67d353dc6" y="206.959954135"/>
     <use style="fill:none;stroke:#00bfbf;stroke-width:1.5;" x="304.442871408" xlink:href="#me67d353dc6" y="53.3152249563"/>
     <use style="fill:none;stroke:#00bfbf;stroke-width:1.5;" x="325.659174328" xlink:href="#me67d353dc6" y="33.8580321782"/>
     <use style="fill:none;stroke:#00bfbf;stroke-width:1.5;" x="325.659174328" xlink:href="#me67d353dc6" y="33.8580321782"/>
     <use style="fill:none;stroke:#00bfbf;stroke-width:1.5;" x="445.2" xlink:href="#me67d353dc6" y="33.8580321782"/>
    </g>
   </g>
   <g id="line2d_4"/>
   <g id="line2d_5">
    <path clip-path="url(#p2ce68e0910)" d="M 239.496879 298.878417 
" style="fill:none;stroke:#00bfbf;stroke-linecap:square;"/>
    <defs>
     <path d="M -12 12 
L 12 -12 
M -12 -12 
L 12 12 
" id="md8d261491a" style="stroke:#00bfbf;stroke-width:3.0;"/>
    </defs>
    <g clip-path="url(#p2ce68e0910)">
     <use style="fill:#00bfbf;stroke:#00bfbf;stroke-width:3.0;" x="239.496879067" xlink:href="#md8d261491a" y="298.87841657"/>
    </g>
   </g>
   <g id="line2d_6">
    <defs>
     <path d="M 0 1.5 
C 0.397805 1.5 0.77937 1.341951 1.06066 1.06066 
C 1.341951 0.77937 1.5 0.397805 1.5 0 
C 1.5 -0.397805 1.341951 -0.77937 1.06066 -1.06066 
C 0.77937 -1.341951 0.397805 -1.5 0 -1.5 
C -0.397805 -1.5 -0.77937 -1.341951 -1.06066 -1.06066 
C -1.341951 -0.77937 -1.5 -0.397805 -1.5 0 
C -1.5 0.397805 -1.341951 0.77937 -1.06066 1.06066 
C -0.77937 1.341951 -0.397805 1.5 0 1.5 
z
" id="ma8f39bc322" style="stroke:#008000;stroke-width:0.5;"/>
    </defs>
    <g>
     <use style="fill:#008000;stroke:#008000;stroke-width:0.5;" x="315.01692088" xlink:href="#ma8f39bc322" y="33.8580321782"/>
     <use style="fill:#008000;stroke:#008000;stroke-width:0.5;" x="315.01692088" xlink:href="#ma8f39bc322" y="33.8580321782"/>
    </g>
   </g>
   <g id="line2d_7">
    <path d="M 60.662335 376.03625 
L 60.662335 375.365312 
L 76.143878 375.365312 
L 76.143878 369.997811 
L 125.219207 369.997811 
L 125.219207 369.326873 
L 148.037936 369.326873 
L 148.037936 368.655935 
L 150.964471 368.655935 
L 150.964471 367.984998 
L 163.519478 367.984998 
L 163.519478 367.31406 
L 166.050691 367.31406 
L 166.050691 366.643122 
L 166.446014 366.643122 
L 166.446014 365.972185 
L 173.451601 365.972185 
L 173.451601 364.630309 
L 178.205283 364.630309 
L 178.205283 363.959372 
L 179.552534 363.959372 
L 179.552534 363.288434 
L 180.196862 363.288434 
L 180.196862 362.617496 
L 181.631722 362.617496 
L 181.631722 361.946559 
L 182.412069 361.946559 
L 182.412069 361.275621 
L 184.074127 361.275621 
L 184.074127 360.604683 
L 184.946704 360.604683 
L 184.946704 359.933746 
L 187.757338 359.933746 
L 187.757338 358.59187 
L 191.113913 358.59187 
L 191.113913 357.249995 
L 192.741281 357.249995 
L 192.741281 356.579057 
L 193.917087 356.579057 
L 193.917087 355.237182 
L 194.031333 355.237182 
L 194.031333 353.895306 
L 195.731269 353.895306 
L 195.784008 351.211556 
L 198.554742 351.211556 
L 198.554742 350.540618 
L 199.332093 350.540618 
L 199.332093 349.86968 
L 202.353823 349.86968 
L 202.353823 349.198743 
L 205.869582 349.198743 
L 205.869582 347.856867 
L 206.003325 347.856867 
L 206.003325 347.18593 
L 207.949515 347.18593 
L 207.949515 346.514992 
L 208.433109 346.514992 
L 208.433109 343.831241 
L 210.158689 343.831241 
L 210.158689 343.160304 
L 212.194166 343.160304 
L 212.194166 342.489366 
L 212.644386 342.489366 
L 212.644386 341.818428 
L 212.963992 341.818428 
L 212.963992 341.147491 
L 216.101509 341.147491 
L 216.101509 339.805615 
L 216.354601 339.805615 
L 216.354601 337.792802 
L 217.439343 337.792802 
L 217.479262 335.109051 
L 218.069653 335.109051 
L 218.069653 334.438114 
L 218.359097 334.438114 
L 218.359097 333.767176 
L 218.870829 333.767176 
L 218.870829 331.754363 
L 219.334422 331.754363 
L 219.334422 331.083425 
L 220.056721 331.083425 
L 220.056721 329.070612 
L 220.180756 329.070612 
L 220.180756 327.728737 
L 220.600866 327.728737 
L 220.600866 325.715924 
L 221.351124 325.715924 
L 221.351124 325.044986 
L 221.50153 325.044986 
L 221.50153 324.374048 
L 221.71701 324.374048 
L 221.71701 323.032173 
L 221.88136 323.032173 
L 221.946763 320.348422 
L 222.15801 320.348422 
L 222.15801 319.677485 
L 222.447247 319.677485 
L 222.447247 319.006547 
L 222.574603 319.006547 
L 222.574603 317.664672 
L 222.889854 317.664672 
L 222.9055 314.980921 
L 223.507313 314.980921 
L 223.507313 313.639046 
L 224.504783 313.639046 
L 224.54842 311.626233 
L 224.98017 311.626233 
L 224.98017 310.955295 
L 225.221173 310.955295 
L 225.221173 308.942482 
L 227.599782 308.942482 
L 227.599782 306.929669 
L 227.839337 306.929669 
L 227.926951 304.916856 
L 228.026661 304.916856 
L 228.101153 302.904043 
L 228.964278 302.904043 
L 228.964278 301.562167 
L 230.7291 301.562167 
L 230.7291 300.89123 
L 231.251838 300.89123 
L 231.251838 300.220292 
L 231.909425 300.220292 
L 231.909425 297.536541 
L 232.034494 297.536541 
L 232.0864 296.194666 
L 232.1692 296.194666 
L 232.231098 293.510915 
L 232.476992 293.510915 
L 232.497362 290.827164 
L 232.689951 290.827164 
L 232.689951 288.814351 
L 232.890898 288.814351 
L 232.890898 288.143414 
L 233.677082 288.143414 
L 233.677082 285.459663 
L 234.557539 285.459663 
L 234.557539 284.788725 
L 235.089572 284.788725 
L 235.089572 284.117788 
L 235.288108 284.117788 
L 235.288108 282.775912 
L 235.413536 282.775912 
L 235.413536 282.104975 
L 239.500599 282.104975 
L 239.508038 280.763099 
L 240.311547 280.763099 
L 240.311547 280.092161 
L 240.518653 280.092161 
L 240.518653 279.421224 
L 240.639173 279.421224 
L 240.639173 278.750286 
L 240.885274 278.750286 
L 240.885274 278.079348 
L 241.010792 278.079348 
L 241.010792 277.408411 
L 241.28722 277.408411 
L 241.28722 276.737473 
L 241.560269 276.737473 
L 241.560269 275.395598 
L 242.023573 275.395598 
L 242.089928 274.053722 
L 242.444879 274.053722 
L 242.444879 273.382785 
L 242.807114 273.382785 
L 242.807114 272.711847 
L 244.457743 272.711847 
L 244.457743 270.699034 
L 245.259588 270.699034 
L 245.259588 270.028096 
L 245.437102 270.028096 
L 245.437102 269.357159 
L 246.078024 269.357159 
L 246.078024 268.686221 
L 246.210642 268.686221 
L 246.276658 266.00247 
L 246.565913 266.00247 
L 246.565913 265.331532 
L 246.963614 265.331532 
L 246.963614 264.660595 
L 247.244164 264.660595 
L 247.343886 261.976844 
L 247.370055 261.976844 
L 247.370055 261.305906 
L 247.697182 261.305906 
L 247.697182 260.634969 
L 247.810298 260.634969 
L 247.881983 256.609343 
L 247.958535 256.609343 
L 248.039902 254.59653 
L 248.080474 254.59653 
L 248.186628 252.583717 
L 248.231968 252.583717 
L 248.231968 251.241841 
L 248.382441 251.241841 
L 248.382441 246.545277 
L 248.959787 246.545277 
L 248.959787 243.861527 
L 249.871358 243.861527 
L 249.93207 241.177776 
L 250.03444 241.177776 
L 250.03444 239.164963 
L 250.32502 239.164963 
L 250.32502 238.494025 
L 251.232018 238.494025 
L 251.232018 237.823088 
L 251.576953 237.823088 
L 251.637529 236.481212 
L 251.740992 236.481212 
L 251.749592 234.468399 
L 252.099386 234.468399 
L 252.099386 233.126524 
L 252.255444 233.126524 
L 252.255444 231.113711 
L 252.642949 231.113711 
L 252.642949 230.442773 
L 252.970991 230.442773 
L 253.027906 226.417147 
L 255.394949 226.417147 
L 255.493333 225.075272 
L 256.159569 225.075272 
L 256.159569 224.404334 
L 256.693085 224.404334 
L 256.693085 223.733396 
L 256.997668 223.733396 
L 256.997668 223.062459 
L 258.101804 223.062459 
L 258.101804 222.391521 
L 258.508929 222.391521 
L 258.559698 220.378708 
L 258.73963 220.378708 
L 258.789878 219.036832 
L 259.020815 219.036832 
L 259.098298 217.694957 
L 259.153919 217.694957 
L 259.153919 217.024019 
L 259.451296 217.024019 
L 259.560663 214.340269 
L 259.600026 214.340269 
L 259.606075 211.656518 
L 259.738754 211.656518 
L 259.768798 209.643705 
L 259.858691 209.643705 
L 259.858691 208.972767 
L 259.998798 208.972767 
L 260.058153 207.630892 
L 260.205853 207.630892 
L 260.205853 206.959954 
L 260.723877 206.959954 
L 260.798548 205.618079 
L 260.838652 205.618079 
L 260.861536 203.605266 
L 261.040936 203.605266 
L 261.040936 202.934328 
L 261.810324 202.934328 
L 261.810324 202.26339 
L 261.927842 202.26339 
L 261.933293 198.237764 
L 262.039321 198.237764 
L 262.039321 197.566827 
L 262.225684 197.566827 
L 262.255251 194.212138 
L 262.503674 194.212138 
L 262.604391 192.199325 
L 262.657218 192.199325 
L 262.751992 190.186512 
L 264.74133 190.186512 
L 264.74133 189.515574 
L 265.634054 189.515574 
L 265.634054 188.844637 
L 265.774462 188.844637 
L 265.811144 187.502761 
L 266.483573 187.502761 
L 266.527986 185.489948 
L 266.748735 185.489948 
L 266.807964 184.148073 
L 266.923776 184.148073 
L 266.949914 182.806198 
L 267.13203 182.806198 
L 267.218233 180.793385 
L 267.256916 180.793385 
L 267.338361 178.109634 
L 267.402451 178.109634 
L 267.502489 175.425883 
L 267.650657 175.425883 
L 267.650657 174.754945 
L 268.023057 174.754945 
L 268.122426 168.716506 
L 268.25218 168.716506 
L 268.25218 167.374631 
L 268.566219 167.374631 
L 268.566219 166.703693 
L 268.897861 166.703693 
L 268.97951 163.349005 
L 269.064823 163.349005 
L 269.137972 161.336192 
L 269.47685 161.336192 
L 269.50405 159.994316 
L 271.056534 159.994316 
L 271.056534 159.323379 
L 271.697505 159.323379 
L 271.804611 156.639628 
L 272.096965 156.639628 
L 272.096965 155.96869 
L 272.334282 155.96869 
L 272.334282 153.955877 
L 272.570797 153.955877 
L 272.680544 152.614002 
L 272.821577 152.614002 
L 272.86672 150.601189 
L 272.965051 150.601189 
L 273.06295 148.588376 
L 273.142282 148.588376 
L 273.22462 146.575563 
L 273.536389 146.575563 
L 273.59305 141.878999 
L 273.69468 141.878999 
L 273.69468 141.208061 
L 274.134544 141.208061 
L 274.205447 137.182435 
L 274.266715 137.182435 
L 274.374701 135.84056 
L 274.391868 135.84056 
L 274.391868 133.827747 
L 274.536483 133.827747 
L 274.607668 132.485871 
L 274.660138 132.485871 
L 274.681708 131.143996 
L 275.921703 131.143996 
L 275.984256 129.802121 
L 276.271487 129.802121 
L 276.271487 129.131183 
L 276.438653 129.131183 
L 276.525314 126.447432 
L 276.744018 126.447432 
L 276.744018 125.776495 
L 276.921632 125.776495 
L 276.921632 124.434619 
L 277.045265 124.434619 
L 277.089551 123.092744 
L 277.383475 123.092744 
L 277.470631 121.750869 
L 277.523575 121.750869 
L 277.523575 120.408993 
L 277.65876 120.408993 
L 277.68166 119.067118 
L 277.93735 119.067118 
L 277.983889 116.383367 
L 278.270283 116.383367 
L 278.33314 115.041492 
L 278.446619 115.041492 
L 278.538803 113.028679 
L 278.642219 113.028679 
L 278.642219 112.357741 
L 279.914346 112.357741 
L 279.914346 111.686803 
L 280.141015 111.686803 
L 280.141015 111.015866 
L 280.753627 111.015866 
L 280.839119 109.67399 
L 280.994043 109.67399 
L 281.027681 107.661177 
L 281.137521 107.661177 
L 281.215814 104.306489 
L 281.26174 104.306489 
L 281.315583 101.622738 
L 281.395535 101.622738 
L 281.395535 100.280863 
L 281.597562 100.280863 
L 281.651729 97.597112 
L 282.078194 97.597112 
L 282.078194 96.926174 
L 282.211598 96.926174 
L 282.211598 96.255237 
L 282.400959 96.255237 
L 282.416213 94.913361 
L 283.735776 94.913361 
L 283.735776 94.242424 
L 284.023449 94.242424 
L 284.097318 92.900548 
L 284.145756 92.900548 
L 284.253357 91.558673 
L 284.360442 91.558673 
L 284.463041 88.203984 
L 284.562202 88.203984 
L 284.562202 87.533047 
L 285.192392 87.533047 
L 285.252909 86.191171 
L 287.172006 86.191171 
L 287.262494 82.165545 
L 287.323782 82.165545 
L 287.323782 81.494608 
L 287.519648 81.494608 
L 287.530913 79.481795 
L 287.890964 79.481795 
L 287.890964 78.139919 
L 288.138494 78.139919 
L 288.138494 77.468982 
L 289.312614 77.468982 
L 289.312614 76.798044 
L 289.67204 76.798044 
L 289.67204 76.127106 
L 289.802316 76.127106 
L 289.802316 75.456168 
L 290.292997 75.456168 
L 290.40372 73.443355 
L 290.545709 73.443355 
L 290.545709 72.772418 
L 291.341247 72.772418 
L 291.341247 72.10148 
L 291.674733 72.10148 
L 291.738684 70.759605 
L 291.822477 70.759605 
L 291.907381 69.417729 
L 292.070573 69.417729 
L 292.070573 68.746792 
L 292.466466 68.746792 
L 292.52473 67.404916 
L 292.708922 67.404916 
L 292.708922 66.733979 
L 293.64074 66.733979 
L 293.64074 66.063041 
L 293.84278 66.063041 
L 293.905382 64.721166 
L 294.066942 64.721166 
L 294.066942 64.050228 
L 294.242742 64.050228 
L 294.242742 63.37929 
L 294.563072 63.37929 
L 294.563072 62.708353 
L 295.535556 62.708353 
L 295.554314 61.366477 
L 295.764414 61.366477 
L 295.834409 60.024602 
L 295.955334 60.024602 
L 295.955334 58.011789 
L 296.089195 58.011789 
L 296.089195 57.340851 
L 296.438408 57.340851 
L 296.438408 56.669913 
L 297.412735 56.669913 
L 297.412735 55.998976 
L 297.606133 55.998976 
L 297.606133 55.328038 
L 297.778716 55.328038 
L 297.794588 53.986163 
L 298.02483 53.986163 
L 298.02483 53.315225 
L 299.061744 53.315225 
L 299.147908 51.97335 
L 299.227584 51.97335 
L 299.227584 51.302412 
L 299.378953 51.302412 
L 299.378953 50.631474 
L 299.55359 50.631474 
L 299.572798 49.289599 
L 300.34545 49.289599 
L 300.34545 48.618661 
L 300.561592 48.618661 
L 300.646504 46.605848 
L 301.049741 46.605848 
L 301.091792 45.263973 
L 303.157087 45.263973 
L 303.170424 43.922097 
L 303.370802 43.922097 
L 303.370802 43.25116 
L 303.57869 43.25116 
L 303.57869 42.580222 
L 304.648509 42.580222 
L 304.648509 41.909284 
L 304.926539 41.909284 
L 304.986491 40.567409 
L 305.78181 40.567409 
L 305.78181 39.896471 
L 306.782947 39.896471 
L 306.782947 39.225534 
L 307.05639 39.225534 
L 307.05639 38.554596 
L 307.902123 38.554596 
L 307.902123 37.883658 
L 308.777976 37.883658 
L 308.777976 37.212721 
L 309.261545 37.212721 
L 309.301129 35.870845 
L 310.925806 35.870845 
L 310.925806 35.199908 
L 311.585791 35.199908 
L 311.585791 34.52897 
L 315.016921 34.52897 
L 315.016921 33.858032 
L 445.2 33.858032 
L 445.2 33.858032 
" style="fill:none;stroke:#008000;stroke-linecap:square;stroke-width:1.5;"/>
   </g>
   <g id="line2d_8">
    <defs>
     <path d="M -0 6 
L 6 -6 
L -6 -6 
z
" id="ma418fcab81" style="stroke:#008000;stroke-linejoin:miter;stroke-width:1.5;"/>
    </defs>
    <g>
     <use style="fill:none;stroke:#008000;stroke-linejoin:miter;stroke-width:1.5;" x="195.784008096" xlink:href="#ma418fcab81" y="352.55343113"/>
     <use style="fill:none;stroke:#008000;stroke-linejoin:miter;stroke-width:1.5;" x="245.25958809" xlink:href="#ma418fcab81" y="270.028096243"/>
     <use style="fill:none;stroke:#008000;stroke-linejoin:miter;stroke-width:1.5;" x="273.224620293" xlink:href="#ma418fcab81" y="146.575562755"/>
     <use style="fill:none;stroke:#008000;stroke-linejoin:miter;stroke-width:1.5;" x="315.01692088" xlink:href="#ma418fcab81" y="34.5289698602"/>
     <use style="fill:none;stroke:#008000;stroke-linejoin:miter;stroke-width:1.5;" x="315.01692088" xlink:href="#ma418fcab81" y="33.8580321782"/>
     <use style="fill:none;stroke:#008000;stroke-linejoin:miter;stroke-width:1.5;" x="445.2" xlink:href="#ma418fcab81" y="33.8580321782"/>
    </g>
   </g>
   <g id="line2d_9"/>
   <g id="line2d_10">
    <path clip-path="url(#p2ce68e0910)" d="M 239.493158 282.104975 
" style="fill:none;stroke:#008000;stroke-linecap:square;"/>
    <defs>
     <path d="M -12 12 
L 12 -12 
M -12 -12 
L 12 12 
" id="m666bc73caa" style="stroke:#008000;stroke-width:3.0;"/>
    </defs>
    <g clip-path="url(#p2ce68e0910)">
     <use style="fill:#008000;stroke:#008000;stroke-width:3.0;" x="239.493158093" xlink:href="#m666bc73caa" y="282.10497452"/>
    </g>
   </g>
   <g id="line2d_11">
    <defs>
     <path d="M 0 1.5 
C 0.397805 1.5 0.77937 1.341951 1.06066 1.06066 
C 1.341951 0.77937 1.5 0.397805 1.5 0 
C 1.5 -0.397805 1.341951 -0.77937 1.06066 -1.06066 
C 0.77937 -1.341951 0.397805 -1.5 0 -1.5 
C -0.397805 -1.5 -0.77937 -1.341951 -1.06066 -1.06066 
C -1.341951 -0.77937 -1.5 -0.397805 -1.5 0 
C -1.5 0.397805 -1.341951 0.77937 -1.06066 1.06066 
C -0.77937 1.341951 -0.397805 1.5 0 1.5 
z
" id="m7e210b27cf" style="stroke:#0000ff;stroke-width:0.5;"/>
    </defs>
    <g>
     <use style="fill:#0000ff;stroke:#0000ff;stroke-width:0.5;" x="321.176788165" xlink:href="#m7e210b27cf" y="302.23310498"/>
     <use style="fill:#0000ff;stroke:#0000ff;stroke-width:0.5;" x="321.176788165" xlink:href="#m7e210b27cf" y="302.23310498"/>
    </g>
   </g>
   <g id="line2d_12">
    <path d="M 49.252971 376.03625 
L 49.252971 375.365312 
L 144.772928 375.365312 
L 144.772928 374.694375 
L 166.32815 374.694375 
L 166.32815 374.023437 
L 174.704367 374.023437 
L 174.704367 372.681562 
L 174.946704 372.681562 
L 174.946704 372.010624 
L 176.044089 372.010624 
L 176.044089 371.339686 
L 177.016963 371.339686 
L 177.016963 368.655935 
L 180.090756 368.655935 
L 180.090756 367.984998 
L 180.344568 367.984998 
L 180.344568 367.31406 
L 181.927556 367.31406 
L 181.927556 365.972185 
L 182.277461 365.972185 
L 182.277461 365.301247 
L 182.735634 365.301247 
L 182.735634 364.630309 
L 183.515494 364.630309 
L 183.515494 363.288434 
L 185.201966 363.288434 
L 185.201966 362.617496 
L 189.061629 362.617496 
L 189.061629 361.946559 
L 190.786891 361.946559 
L 190.786891 360.604683 
L 191.678091 360.604683 
L 191.678091 359.933746 
L 192.166515 359.933746 
L 192.203648 357.920933 
L 192.498506 357.920933 
L 192.498506 357.249995 
L 193.041086 357.249995 
L 193.112445 355.90812 
L 193.360419 355.90812 
L 193.360419 354.566244 
L 195.250924 354.566244 
L 195.250924 353.895306 
L 195.476371 353.895306 
L 195.476371 351.211556 
L 195.636023 351.211556 
L 195.731269 349.86968 
L 195.951942 349.86968 
L 195.951942 349.198743 
L 200.013662 349.198743 
L 200.013662 348.527805 
L 200.247812 348.527805 
L 200.247812 347.856867 
L 200.986021 347.856867 
L 200.986021 347.18593 
L 203.110234 347.18593 
L 203.110234 346.514992 
L 203.871225 346.514992 
L 203.871225 345.173117 
L 204.436152 345.173117 
L 204.436152 343.831241 
L 204.713345 343.831241 
L 204.713345 342.489366 
L 205.401919 342.489366 
L 205.401919 341.147491 
L 206.968897 341.147491 
L 206.968897 339.805615 
L 211.037882 339.805615 
L 211.037882 339.134677 
L 211.370657 339.134677 
L 211.370657 337.792802 
L 213.226076 337.792802 
L 213.226076 337.121864 
L 215.403479 337.121864 
L 215.455939 335.109051 
L 216.126948 335.109051 
L 216.20309 333.767176 
L 219.396734 333.767176 
L 219.396734 331.754363 
L 220.216069 331.754363 
L 220.216069 330.412488 
L 221.290677 330.412488 
L 221.290677 329.74155 
L 221.670774 329.74155 
L 221.670774 329.070612 
L 226.860063 329.070612 
L 226.860063 327.728737 
L 229.307448 327.728737 
L 229.307448 326.386862 
L 232.687932 326.386862 
L 232.687932 325.044986 
L 234.579807 325.044986 
L 234.579807 324.374048 
L 247.112268 324.374048 
L 247.112268 323.703111 
L 247.729118 323.703111 
L 247.79388 322.361235 
L 250.431082 322.361235 
L 250.431082 321.690298 
L 253.13403 321.690298 
L 253.13403 321.01936 
L 257.276008 321.01936 
L 257.276008 320.348422 
L 261.120774 320.348422 
L 261.120774 319.677485 
L 261.637023 319.677485 
L 261.637023 319.006547 
L 262.141608 319.006547 
L 262.141608 318.335609 
L 266.867475 318.335609 
L 266.867475 316.993734 
L 268.309198 316.993734 
L 268.309198 315.651859 
L 273.738737 315.651859 
L 273.738737 314.980921 
L 274.324685 314.980921 
L 274.324685 313.639046 
L 277.183918 313.639046 
L 277.183918 312.968108 
L 278.345952 312.968108 
L 278.345952 312.29717 
L 281.752492 312.29717 
L 281.752492 311.626233 
L 281.958891 311.626233 
L 281.958891 310.955295 
L 289.552715 310.955295 
L 289.552715 310.284357 
L 296.357335 310.284357 
L 296.357335 308.942482 
L 299.073528 308.942482 
L 299.073528 308.271544 
L 300.572417 308.271544 
L 300.572417 307.600606 
L 304.546109 307.600606 
L 304.546109 306.929669 
L 310.187246 306.929669 
L 310.187246 306.258731 
L 311.166123 306.258731 
L 311.166123 304.245918 
L 312.901289 304.245918 
L 312.901289 303.57498 
L 314.463431 303.57498 
L 314.463431 302.904043 
L 321.176788 302.904043 
L 321.176788 302.233105 
L 445.2 302.233105 
L 445.2 302.233105 
" style="fill:none;stroke:#0000ff;stroke-linecap:square;stroke-width:1.5;"/>
   </g>
   <g id="line2d_13">
    <defs>
     <path d="M 0 -6 
L -1.347084 -1.854102 
L -5.706339 -1.854102 
L -2.179628 0.708204 
L -3.526712 4.854102 
L -0 2.291796 
L 3.526712 4.854102 
L 2.179628 0.708204 
L 5.706339 -1.854102 
L 1.347084 -1.854102 
z
" id="m9b4ba70fa4" style="stroke:#0000ff;stroke-linejoin:bevel;stroke-width:1.5;"/>
    </defs>
    <g>
     <use style="fill:none;stroke:#0000ff;stroke-linejoin:bevel;stroke-width:1.5;" x="144.772928165" xlink:href="#m9b4ba70fa4" y="375.365312318"/>
     <use style="fill:none;stroke:#0000ff;stroke-linejoin:bevel;stroke-width:1.5;" x="211.037882237" xlink:href="#m9b4ba70fa4" y="339.13467749"/>
     <use style="fill:none;stroke:#0000ff;stroke-linejoin:bevel;stroke-width:1.5;" x="299.073527586" xlink:href="#m9b4ba70fa4" y="308.271544118"/>
     <use style="fill:none;stroke:#0000ff;stroke-linejoin:bevel;stroke-width:1.5;" x="321.176788165" xlink:href="#m9b4ba70fa4" y="302.23310498"/>
     <use style="fill:none;stroke:#0000ff;stroke-linejoin:bevel;stroke-width:1.5;" x="321.176788165" xlink:href="#m9b4ba70fa4" y="302.23310498"/>
     <use style="fill:none;stroke:#0000ff;stroke-linejoin:bevel;stroke-width:1.5;" x="445.2" xlink:href="#m9b4ba70fa4" y="302.23310498"/>
    </g>
   </g>
   <g id="line2d_14"/>
   <g id="line2d_15">
    <path clip-path="url(#p2ce68e0910)" d="M 239.490181 324.374048 
" style="fill:none;stroke:#0000ff;stroke-linecap:square;"/>
    <defs>
     <path d="M -12 12 
L 12 -12 
M -12 -12 
L 12 12 
" id="m52899d3e9a" style="stroke:#0000ff;stroke-width:3.0;"/>
    </defs>
    <g clip-path="url(#p2ce68e0910)">
     <use style="fill:#0000ff;stroke:#0000ff;stroke-width:3.0;" x="239.490180868" xlink:href="#m52899d3e9a" y="324.374048486"/>
    </g>
   </g>
   <g id="line2d_16">
    <path d="M 445.2 302.233105 
L 484.8 369.192686 
" style="fill:none;stroke:#0000ff;stroke-linecap:square;stroke-width:1.5;"/>
    <g>
     <use style="fill:none;stroke:#0000ff;stroke-linejoin:bevel;stroke-width:1.5;" x="445.2" xlink:href="#m9b4ba70fa4" y="302.23310498"/>
     <use style="fill:none;stroke:#0000ff;stroke-linejoin:bevel;stroke-width:1.5;" x="484.8" xlink:href="#m9b4ba70fa4" y="369.192685644"/>
    </g>
   </g>
   <g id="line2d_17">
    <path d="M 445.2 33.858032 
L 484.8 204.947141 
" style="fill:none;stroke:#00bfbf;stroke-linecap:square;stroke-width:1.5;"/>
    <g>
     <use style="fill:none;stroke:#00bfbf;stroke-width:1.5;" x="445.2" xlink:href="#me67d353dc6" y="33.8580321782"/>
     <use style="fill:none;stroke:#00bfbf;stroke-width:1.5;" x="484.8" xlink:href="#me67d353dc6" y="204.947141089"/>
    </g>
   </g>
   <g id="line2d_18">
    <path d="M 445.2 33.858032 
L 484.8 40.701597 
" style="fill:none;stroke:#008000;stroke-linecap:square;stroke-width:1.5;"/>
    <g>
     <use style="fill:none;stroke:#008000;stroke-linejoin:miter;stroke-width:1.5;" x="445.2" xlink:href="#ma418fcab81" y="33.8580321782"/>
     <use style="fill:none;stroke:#008000;stroke-linejoin:miter;stroke-width:1.5;" x="484.8" xlink:href="#ma418fcab81" y="40.7015965347"/>
    </g>
   </g>
   <g id="line2d_19">
    <path d="M 445.2 376.03625 
L 445.2 33.858032 
" style="fill:none;stroke:#000000;stroke-linecap:square;"/>
   </g>
   <g id="patch_3">
    <path d="M 85.2 30.43625 
L 531.6 30.43625 
" style="fill:none;stroke:#000000;stroke-linecap:square;stroke-linejoin:miter;"/>
   </g>
   <g id="patch_4">
    <path d="M 531.6 376.03625 
L 531.6 30.43625 
" style="fill:none;stroke:#000000;stroke-linecap:square;stroke-linejoin:miter;"/>
   </g>
   <g id="patch_5">
    <path d="M 85.2 376.03625 
L 531.6 376.03625 
" style="fill:none;stroke:#000000;stroke-linecap:square;stroke-linejoin:miter;"/>
   </g>
   <g id="patch_6">
    <path d="M 85.2 376.03625 
L 85.2 30.43625 
" style="fill:none;stroke:#000000;stroke-linecap:square;stroke-linejoin:miter;"/>
   </g>
   <g id="matplotlib.axis_1">
    <g id="xtick_1">
     <g id="line2d_20">
      <path clip-path="url(#p2ce68e0910)" d="M 85.2 376.03625 
L 85.2 30.43625 
" style="fill:none;stroke:#000000;stroke-dasharray:1.000000,3.000000;stroke-dashoffset:0.0;stroke-width:0.5;"/>
     </g>
     <g id="line2d_21">
      <defs>
       <path d="M 0 0 
L 0 -4 
" id="m1dc36d4554" style="stroke:#000000;stroke-width:0.5;"/>
      </defs>
      <g>
       <use style="stroke:#000000;stroke-width:0.5;" x="85.2" xlink:href="#m1dc36d4554" y="376.03625"/>
      </g>
     </g>
     <g id="line2d_22">
      <defs>
       <path d="M 0 0 
L 0 4 
" id="mc4e0e9f5b5" style="stroke:#000000;stroke-width:0.5;"/>
      </defs>
      <g>
       <use style="stroke:#000000;stroke-width:0.5;" x="85.2" xlink:href="#mc4e0e9f5b5" y="30.43625"/>
      </g>
     </g>
     <g id="text_1">
      <!-- 0 -->
      <defs>
       <path d="M 31.78125 66.40625 
Q 24.171875 66.40625 20.328125 58.90625 
Q 16.5 51.421875 16.5 36.375 
Q 16.5 21.390625 20.328125 13.890625 
Q 24.171875 6.390625 31.78125 6.390625 
Q 39.453125 6.390625 43.28125 13.890625 
Q 47.125 21.390625 47.125 36.375 
Q 47.125 51.421875 43.28125 58.90625 
Q 39.453125 66.40625 31.78125 66.40625 
M 31.78125 74.21875 
Q 44.046875 74.21875 50.515625 64.515625 
Q 56.984375 54.828125 56.984375 36.375 
Q 56.984375 17.96875 50.515625 8.265625 
Q 44.046875 -1.421875 31.78125 -1.421875 
Q 19.53125 -1.421875 13.0625 8.265625 
Q 6.59375 17.96875 6.59375 36.375 
Q 6.59375 54.828125 13.0625 64.515625 
Q 19.53125 74.21875 31.78125 74.21875 
" id="BitstreamVeraSans-Roman-30"/>
      </defs>
      <g transform="translate(78.8375 395.233125)scale(0.2 -0.2)">
       <use xlink:href="#BitstreamVeraSans-Roman-30"/>
      </g>
     </g>
    </g>
    <g id="xtick_2">
     <g id="line2d_23">
      <path clip-path="url(#p2ce68e0910)" d="M 136.628571 376.03625 
L 136.628571 30.43625 
" style="fill:none;stroke:#000000;stroke-dasharray:1.000000,3.000000;stroke-dashoffset:0.0;stroke-width:0.5;"/>
     </g>
     <g id="line2d_24">
      <g>
       <use style="stroke:#000000;stroke-width:0.5;" x="136.628571429" xlink:href="#m1dc36d4554" y="376.03625"/>
      </g>
     </g>
     <g id="line2d_25">
      <g>
       <use style="stroke:#000000;stroke-width:0.5;" x="136.628571429" xlink:href="#mc4e0e9f5b5" y="30.43625"/>
      </g>
     </g>
     <g id="text_2">
      <!-- 1 -->
      <defs>
       <path d="M 12.40625 8.296875 
L 28.515625 8.296875 
L 28.515625 63.921875 
L 10.984375 60.40625 
L 10.984375 69.390625 
L 28.421875 72.90625 
L 38.28125 72.90625 
L 38.28125 8.296875 
L 54.390625 8.296875 
L 54.390625 0 
L 12.40625 0 
z
" id="BitstreamVeraSans-Roman-31"/>
      </defs>
      <g transform="translate(130.266071429 395.233125)scale(0.2 -0.2)">
       <use xlink:href="#BitstreamVeraSans-Roman-31"/>
      </g>
     </g>
    </g>
    <g id="xtick_3">
     <g id="line2d_26">
      <path clip-path="url(#p2ce68e0910)" d="M 188.057143 376.03625 
L 188.057143 30.43625 
" style="fill:none;stroke:#000000;stroke-dasharray:1.000000,3.000000;stroke-dashoffset:0.0;stroke-width:0.5;"/>
     </g>
     <g id="line2d_27">
      <g>
       <use style="stroke:#000000;stroke-width:0.5;" x="188.057142857" xlink:href="#m1dc36d4554" y="376.03625"/>
      </g>
     </g>
     <g id="line2d_28">
      <g>
       <use style="stroke:#000000;stroke-width:0.5;" x="188.057142857" xlink:href="#mc4e0e9f5b5" y="30.43625"/>
      </g>
     </g>
     <g id="text_3">
      <!-- 2 -->
      <defs>
       <path d="M 19.1875 8.296875 
L 53.609375 8.296875 
L 53.609375 0 
L 7.328125 0 
L 7.328125 8.296875 
Q 12.9375 14.109375 22.625 23.890625 
Q 32.328125 33.6875 34.8125 36.53125 
Q 39.546875 41.84375 41.421875 45.53125 
Q 43.3125 49.21875 43.3125 52.78125 
Q 43.3125 58.59375 39.234375 62.25 
Q 35.15625 65.921875 28.609375 65.921875 
Q 23.96875 65.921875 18.8125 64.3125 
Q 13.671875 62.703125 7.8125 59.421875 
L 7.8125 69.390625 
Q 13.765625 71.78125 18.9375 73 
Q 24.125 74.21875 28.421875 74.21875 
Q 39.75 74.21875 46.484375 68.546875 
Q 53.21875 62.890625 53.21875 53.421875 
Q 53.21875 48.921875 51.53125 44.890625 
Q 49.859375 40.875 45.40625 35.40625 
Q 44.1875 33.984375 37.640625 27.21875 
Q 31.109375 20.453125 19.1875 8.296875 
" id="BitstreamVeraSans-Roman-32"/>
      </defs>
      <g transform="translate(181.694642857 395.233125)scale(0.2 -0.2)">
       <use xlink:href="#BitstreamVeraSans-Roman-32"/>
      </g>
     </g>
    </g>
    <g id="xtick_4">
     <g id="line2d_29">
      <path clip-path="url(#p2ce68e0910)" d="M 239.485714 376.03625 
L 239.485714 30.43625 
" style="fill:none;stroke:#000000;stroke-dasharray:1.000000,3.000000;stroke-dashoffset:0.0;stroke-width:0.5;"/>
     </g>
     <g id="line2d_30">
      <g>
       <use style="stroke:#000000;stroke-width:0.5;" x="239.485714286" xlink:href="#m1dc36d4554" y="376.03625"/>
      </g>
     </g>
     <g id="line2d_31">
      <g>
       <use style="stroke:#000000;stroke-width:0.5;" x="239.485714286" xlink:href="#mc4e0e9f5b5" y="30.43625"/>
      </g>
     </g>
     <g id="text_4">
      <!-- 3 -->
      <defs>
       <path d="M 40.578125 39.3125 
Q 47.65625 37.796875 51.625 33 
Q 55.609375 28.21875 55.609375 21.1875 
Q 55.609375 10.40625 48.1875 4.484375 
Q 40.765625 -1.421875 27.09375 -1.421875 
Q 22.515625 -1.421875 17.65625 -0.515625 
Q 12.796875 0.390625 7.625 2.203125 
L 7.625 11.71875 
Q 11.71875 9.328125 16.59375 8.109375 
Q 21.484375 6.890625 26.8125 6.890625 
Q 36.078125 6.890625 40.9375 10.546875 
Q 45.796875 14.203125 45.796875 21.1875 
Q 45.796875 27.640625 41.28125 31.265625 
Q 36.765625 34.90625 28.71875 34.90625 
L 20.21875 34.90625 
L 20.21875 43.015625 
L 29.109375 43.015625 
Q 36.375 43.015625 40.234375 45.921875 
Q 44.09375 48.828125 44.09375 54.296875 
Q 44.09375 59.90625 40.109375 62.90625 
Q 36.140625 65.921875 28.71875 65.921875 
Q 24.65625 65.921875 20.015625 65.03125 
Q 15.375 64.15625 9.8125 62.3125 
L 9.8125 71.09375 
Q 15.4375 72.65625 20.34375 73.4375 
Q 25.25 74.21875 29.59375 74.21875 
Q 40.828125 74.21875 47.359375 69.109375 
Q 53.90625 64.015625 53.90625 55.328125 
Q 53.90625 49.265625 50.4375 45.09375 
Q 46.96875 40.921875 40.578125 39.3125 
" id="BitstreamVeraSans-Roman-33"/>
      </defs>
      <g transform="translate(233.123214286 395.233125)scale(0.2 -0.2)">
       <use xlink:href="#BitstreamVeraSans-Roman-33"/>
      </g>
     </g>
    </g>
    <g id="xtick_5">
     <g id="line2d_32">
      <path clip-path="url(#p2ce68e0910)" d="M 290.914286 376.03625 
L 290.914286 30.43625 
" style="fill:none;stroke:#000000;stroke-dasharray:1.000000,3.000000;stroke-dashoffset:0.0;stroke-width:0.5;"/>
     </g>
     <g id="line2d_33">
      <g>
       <use style="stroke:#000000;stroke-width:0.5;" x="290.914285714" xlink:href="#m1dc36d4554" y="376.03625"/>
      </g>
     </g>
     <g id="line2d_34">
      <g>
       <use style="stroke:#000000;stroke-width:0.5;" x="290.914285714" xlink:href="#mc4e0e9f5b5" y="30.43625"/>
      </g>
     </g>
     <g id="text_5">
      <!-- 4 -->
      <defs>
       <path d="M 37.796875 64.3125 
L 12.890625 25.390625 
L 37.796875 25.390625 
z
M 35.203125 72.90625 
L 47.609375 72.90625 
L 47.609375 25.390625 
L 58.015625 25.390625 
L 58.015625 17.1875 
L 47.609375 17.1875 
L 47.609375 0 
L 37.796875 0 
L 37.796875 17.1875 
L 4.890625 17.1875 
L 4.890625 26.703125 
z
" id="BitstreamVeraSans-Roman-34"/>
      </defs>
      <g transform="translate(284.551785714 395.233125)scale(0.2 -0.2)">
       <use xlink:href="#BitstreamVeraSans-Roman-34"/>
      </g>
     </g>
    </g>
    <g id="xtick_6">
     <g id="line2d_35">
      <path clip-path="url(#p2ce68e0910)" d="M 342.342857 376.03625 
L 342.342857 30.43625 
" style="fill:none;stroke:#000000;stroke-dasharray:1.000000,3.000000;stroke-dashoffset:0.0;stroke-width:0.5;"/>
     </g>
     <g id="line2d_36">
      <g>
       <use style="stroke:#000000;stroke-width:0.5;" x="342.342857143" xlink:href="#m1dc36d4554" y="376.03625"/>
      </g>
     </g>
     <g id="line2d_37">
      <g>
       <use style="stroke:#000000;stroke-width:0.5;" x="342.342857143" xlink:href="#mc4e0e9f5b5" y="30.43625"/>
      </g>
     </g>
     <g id="text_6">
      <!-- 5 -->
      <defs>
       <path d="M 10.796875 72.90625 
L 49.515625 72.90625 
L 49.515625 64.59375 
L 19.828125 64.59375 
L 19.828125 46.734375 
Q 21.96875 47.46875 24.109375 47.828125 
Q 26.265625 48.1875 28.421875 48.1875 
Q 40.625 48.1875 47.75 41.5 
Q 54.890625 34.8125 54.890625 23.390625 
Q 54.890625 11.625 47.5625 5.09375 
Q 40.234375 -1.421875 26.90625 -1.421875 
Q 22.3125 -1.421875 17.546875 -0.640625 
Q 12.796875 0.140625 7.71875 1.703125 
L 7.71875 11.625 
Q 12.109375 9.234375 16.796875 8.0625 
Q 21.484375 6.890625 26.703125 6.890625 
Q 35.15625 6.890625 40.078125 11.328125 
Q 45.015625 15.765625 45.015625 23.390625 
Q 45.015625 31 40.078125 35.4375 
Q 35.15625 39.890625 26.703125 39.890625 
Q 22.75 39.890625 18.8125 39.015625 
Q 14.890625 38.140625 10.796875 36.28125 
z
" id="BitstreamVeraSans-Roman-35"/>
      </defs>
      <g transform="translate(335.980357143 395.233125)scale(0.2 -0.2)">
       <use xlink:href="#BitstreamVeraSans-Roman-35"/>
      </g>
     </g>
    </g>
    <g id="xtick_7">
     <g id="line2d_38">
      <path clip-path="url(#p2ce68e0910)" d="M 393.771429 376.03625 
L 393.771429 30.43625 
" style="fill:none;stroke:#000000;stroke-dasharray:1.000000,3.000000;stroke-dashoffset:0.0;stroke-width:0.5;"/>
     </g>
     <g id="line2d_39">
      <g>
       <use style="stroke:#000000;stroke-width:0.5;" x="393.771428571" xlink:href="#m1dc36d4554" y="376.03625"/>
      </g>
     </g>
     <g id="line2d_40">
      <g>
       <use style="stroke:#000000;stroke-width:0.5;" x="393.771428571" xlink:href="#mc4e0e9f5b5" y="30.43625"/>
      </g>
     </g>
     <g id="text_7">
      <!-- 6 -->
      <defs>
       <path d="M 33.015625 40.375 
Q 26.375 40.375 22.484375 35.828125 
Q 18.609375 31.296875 18.609375 23.390625 
Q 18.609375 15.53125 22.484375 10.953125 
Q 26.375 6.390625 33.015625 6.390625 
Q 39.65625 6.390625 43.53125 10.953125 
Q 47.40625 15.53125 47.40625 23.390625 
Q 47.40625 31.296875 43.53125 35.828125 
Q 39.65625 40.375 33.015625 40.375 
M 52.59375 71.296875 
L 52.59375 62.3125 
Q 48.875 64.0625 45.09375 64.984375 
Q 41.3125 65.921875 37.59375 65.921875 
Q 27.828125 65.921875 22.671875 59.328125 
Q 17.53125 52.734375 16.796875 39.40625 
Q 19.671875 43.65625 24.015625 45.921875 
Q 28.375 48.1875 33.59375 48.1875 
Q 44.578125 48.1875 50.953125 41.515625 
Q 57.328125 34.859375 57.328125 23.390625 
Q 57.328125 12.15625 50.6875 5.359375 
Q 44.046875 -1.421875 33.015625 -1.421875 
Q 20.359375 -1.421875 13.671875 8.265625 
Q 6.984375 17.96875 6.984375 36.375 
Q 6.984375 53.65625 15.1875 63.9375 
Q 23.390625 74.21875 37.203125 74.21875 
Q 40.921875 74.21875 44.703125 73.484375 
Q 48.484375 72.75 52.59375 71.296875 
" id="BitstreamVeraSans-Roman-36"/>
      </defs>
      <g transform="translate(387.408928571 395.233125)scale(0.2 -0.2)">
       <use xlink:href="#BitstreamVeraSans-Roman-36"/>
      </g>
     </g>
    </g>
    <g id="xtick_8">
     <g id="line2d_41">
      <path clip-path="url(#p2ce68e0910)" d="M 445.2 376.03625 
L 445.2 30.43625 
" style="fill:none;stroke:#000000;stroke-dasharray:1.000000,3.000000;stroke-dashoffset:0.0;stroke-width:0.5;"/>
     </g>
     <g id="line2d_42">
      <g>
       <use style="stroke:#000000;stroke-width:0.5;" x="445.2" xlink:href="#m1dc36d4554" y="376.03625"/>
      </g>
     </g>
     <g id="line2d_43">
      <g>
       <use style="stroke:#000000;stroke-width:0.5;" x="445.2" xlink:href="#mc4e0e9f5b5" y="30.43625"/>
      </g>
     </g>
     <g id="text_8">
      <!-- 7 -->
      <defs>
       <path d="M 8.203125 72.90625 
L 55.078125 72.90625 
L 55.078125 68.703125 
L 28.609375 0 
L 18.3125 0 
L 43.21875 64.59375 
L 8.203125 64.59375 
z
" id="BitstreamVeraSans-Roman-37"/>
      </defs>
      <g transform="translate(438.8375 395.233125)scale(0.2 -0.2)">
       <use xlink:href="#BitstreamVeraSans-Roman-37"/>
      </g>
     </g>
    </g>
    <g id="xtick_9">
     <g id="line2d_44">
      <path clip-path="url(#p2ce68e0910)" d="M 496.628571 376.03625 
L 496.628571 30.43625 
" style="fill:none;stroke:#000000;stroke-dasharray:1.000000,3.000000;stroke-dashoffset:0.0;stroke-width:0.5;"/>
     </g>
     <g id="line2d_45">
      <g>
       <use style="stroke:#000000;stroke-width:0.5;" x="496.628571429" xlink:href="#m1dc36d4554" y="376.03625"/>
      </g>
     </g>
     <g id="line2d_46">
      <g>
       <use style="stroke:#000000;stroke-width:0.5;" x="496.628571429" xlink:href="#mc4e0e9f5b5" y="30.43625"/>
      </g>
     </g>
     <g id="text_9">
      <!-- 8 -->
      <defs>
       <path d="M 31.78125 34.625 
Q 24.75 34.625 20.71875 30.859375 
Q 16.703125 27.09375 16.703125 20.515625 
Q 16.703125 13.921875 20.71875 10.15625 
Q 24.75 6.390625 31.78125 6.390625 
Q 38.8125 6.390625 42.859375 10.171875 
Q 46.921875 13.96875 46.921875 20.515625 
Q 46.921875 27.09375 42.890625 30.859375 
Q 38.875 34.625 31.78125 34.625 
M 21.921875 38.8125 
Q 15.578125 40.375 12.03125 44.71875 
Q 8.5 49.078125 8.5 55.328125 
Q 8.5 64.0625 14.71875 69.140625 
Q 20.953125 74.21875 31.78125 74.21875 
Q 42.671875 74.21875 48.875 69.140625 
Q 55.078125 64.0625 55.078125 55.328125 
Q 55.078125 49.078125 51.53125 44.71875 
Q 48 40.375 41.703125 38.8125 
Q 48.828125 37.15625 52.796875 32.3125 
Q 56.78125 27.484375 56.78125 20.515625 
Q 56.78125 9.90625 50.3125 4.234375 
Q 43.84375 -1.421875 31.78125 -1.421875 
Q 19.734375 -1.421875 13.25 4.234375 
Q 6.78125 9.90625 6.78125 20.515625 
Q 6.78125 27.484375 10.78125 32.3125 
Q 14.796875 37.15625 21.921875 38.8125 
M 18.3125 54.390625 
Q 18.3125 48.734375 21.84375 45.5625 
Q 25.390625 42.390625 31.78125 42.390625 
Q 38.140625 42.390625 41.71875 45.5625 
Q 45.3125 48.734375 45.3125 54.390625 
Q 45.3125 60.0625 41.71875 63.234375 
Q 38.140625 66.40625 31.78125 66.40625 
Q 25.390625 66.40625 21.84375 63.234375 
Q 18.3125 60.0625 18.3125 54.390625 
" id="BitstreamVeraSans-Roman-38"/>
      </defs>
      <g transform="translate(490.266071429 395.233125)scale(0.2 -0.2)">
       <use xlink:href="#BitstreamVeraSans-Roman-38"/>
      </g>
     </g>
    </g>
    <g id="xtick_10">
     <g id="line2d_47">
      <defs>
       <path d="M 0 0 
L 0 -2 
" id="me9cebc1b94" style="stroke:#000000;stroke-width:0.5;"/>
      </defs>
      <g>
       <use style="stroke:#000000;stroke-width:0.5;" x="100.681542634" xlink:href="#me9cebc1b94" y="376.03625"/>
      </g>
     </g>
     <g id="line2d_48">
      <defs>
       <path d="M 0 0 
L 0 2 
" id="m766ba4dd38" style="stroke:#000000;stroke-width:0.5;"/>
      </defs>
      <g>
       <use style="stroke:#000000;stroke-width:0.5;" x="100.681542634" xlink:href="#m766ba4dd38" y="30.43625"/>
      </g>
     </g>
    </g>
    <g id="xtick_11">
     <g id="line2d_49">
      <g>
       <use style="stroke:#000000;stroke-width:0.5;" x="116.163085268" xlink:href="#me9cebc1b94" y="376.03625"/>
      </g>
     </g>
     <g id="line2d_50">
      <g>
       <use style="stroke:#000000;stroke-width:0.5;" x="116.163085268" xlink:href="#m766ba4dd38" y="30.43625"/>
      </g>
     </g>
    </g>
    <g id="xtick_12">
     <g id="line2d_51">
      <g>
       <use style="stroke:#000000;stroke-width:0.5;" x="125.219207163" xlink:href="#me9cebc1b94" y="376.03625"/>
      </g>
     </g>
     <g id="line2d_52">
      <g>
       <use style="stroke:#000000;stroke-width:0.5;" x="125.219207163" xlink:href="#m766ba4dd38" y="30.43625"/>
      </g>
     </g>
    </g>
    <g id="xtick_13">
     <g id="line2d_53">
      <g>
       <use style="stroke:#000000;stroke-width:0.5;" x="131.644627902" xlink:href="#me9cebc1b94" y="376.03625"/>
      </g>
     </g>
     <g id="line2d_54">
      <g>
       <use style="stroke:#000000;stroke-width:0.5;" x="131.644627902" xlink:href="#m766ba4dd38" y="30.43625"/>
      </g>
     </g>
    </g>
    <g id="xtick_14">
     <g id="line2d_55">
      <g>
       <use style="stroke:#000000;stroke-width:0.5;" x="152.110114063" xlink:href="#me9cebc1b94" y="376.03625"/>
      </g>
     </g>
     <g id="line2d_56">
      <g>
       <use style="stroke:#000000;stroke-width:0.5;" x="152.110114063" xlink:href="#m766ba4dd38" y="30.43625"/>
      </g>
     </g>
    </g>
    <g id="xtick_15">
     <g id="line2d_57">
      <g>
       <use style="stroke:#000000;stroke-width:0.5;" x="167.591656697" xlink:href="#me9cebc1b94" y="376.03625"/>
      </g>
     </g>
     <g id="line2d_58">
      <g>
       <use style="stroke:#000000;stroke-width:0.5;" x="167.591656697" xlink:href="#m766ba4dd38" y="30.43625"/>
      </g>
     </g>
    </g>
    <g id="xtick_16">
     <g id="line2d_59">
      <g>
       <use style="stroke:#000000;stroke-width:0.5;" x="176.647778591" xlink:href="#me9cebc1b94" y="376.03625"/>
      </g>
     </g>
     <g id="line2d_60">
      <g>
       <use style="stroke:#000000;stroke-width:0.5;" x="176.647778591" xlink:href="#m766ba4dd38" y="30.43625"/>
      </g>
     </g>
    </g>
    <g id="xtick_17">
     <g id="line2d_61">
      <g>
       <use style="stroke:#000000;stroke-width:0.5;" x="183.073199331" xlink:href="#me9cebc1b94" y="376.03625"/>
      </g>
     </g>
     <g id="line2d_62">
      <g>
       <use style="stroke:#000000;stroke-width:0.5;" x="183.073199331" xlink:href="#m766ba4dd38" y="30.43625"/>
      </g>
     </g>
    </g>
    <g id="xtick_18">
     <g id="line2d_63">
      <g>
       <use style="stroke:#000000;stroke-width:0.5;" x="203.538685491" xlink:href="#me9cebc1b94" y="376.03625"/>
      </g>
     </g>
     <g id="line2d_64">
      <g>
       <use style="stroke:#000000;stroke-width:0.5;" x="203.538685491" xlink:href="#m766ba4dd38" y="30.43625"/>
      </g>
     </g>
    </g>
    <g id="xtick_19">
     <g id="line2d_65">
      <g>
       <use style="stroke:#000000;stroke-width:0.5;" x="219.020228125" xlink:href="#me9cebc1b94" y="376.03625"/>
      </g>
     </g>
     <g id="line2d_66">
      <g>
       <use style="stroke:#000000;stroke-width:0.5;" x="219.020228125" xlink:href="#m766ba4dd38" y="30.43625"/>
      </g>
     </g>
    </g>
    <g id="xtick_20">
     <g id="line2d_67">
      <g>
       <use style="stroke:#000000;stroke-width:0.5;" x="228.07635002" xlink:href="#me9cebc1b94" y="376.03625"/>
      </g>
     </g>
     <g id="line2d_68">
      <g>
       <use style="stroke:#000000;stroke-width:0.5;" x="228.07635002" xlink:href="#m766ba4dd38" y="30.43625"/>
      </g>
     </g>
    </g>
    <g id="xtick_21">
     <g id="line2d_69">
      <g>
       <use style="stroke:#000000;stroke-width:0.5;" x="234.50177076" xlink:href="#me9cebc1b94" y="376.03625"/>
      </g>
     </g>
     <g id="line2d_70">
      <g>
       <use style="stroke:#000000;stroke-width:0.5;" x="234.50177076" xlink:href="#m766ba4dd38" y="30.43625"/>
      </g>
     </g>
    </g>
    <g id="xtick_22">
     <g id="line2d_71">
      <g>
       <use style="stroke:#000000;stroke-width:0.5;" x="254.96725692" xlink:href="#me9cebc1b94" y="376.03625"/>
      </g>
     </g>
     <g id="line2d_72">
      <g>
       <use style="stroke:#000000;stroke-width:0.5;" x="254.96725692" xlink:href="#m766ba4dd38" y="30.43625"/>
      </g>
     </g>
    </g>
    <g id="xtick_23">
     <g id="line2d_73">
      <g>
       <use style="stroke:#000000;stroke-width:0.5;" x="270.448799554" xlink:href="#me9cebc1b94" y="376.03625"/>
      </g>
     </g>
     <g id="line2d_74">
      <g>
       <use style="stroke:#000000;stroke-width:0.5;" x="270.448799554" xlink:href="#m766ba4dd38" y="30.43625"/>
      </g>
     </g>
    </g>
    <g id="xtick_24">
     <g id="line2d_75">
      <g>
       <use style="stroke:#000000;stroke-width:0.5;" x="279.504921448" xlink:href="#me9cebc1b94" y="376.03625"/>
      </g>
     </g>
     <g id="line2d_76">
      <g>
       <use style="stroke:#000000;stroke-width:0.5;" x="279.504921448" xlink:href="#m766ba4dd38" y="30.43625"/>
      </g>
     </g>
    </g>
    <g id="xtick_25">
     <g id="line2d_77">
      <g>
       <use style="stroke:#000000;stroke-width:0.5;" x="285.930342188" xlink:href="#me9cebc1b94" y="376.03625"/>
      </g>
     </g>
     <g id="line2d_78">
      <g>
       <use style="stroke:#000000;stroke-width:0.5;" x="285.930342188" xlink:href="#m766ba4dd38" y="30.43625"/>
      </g>
     </g>
    </g>
    <g id="xtick_26">
     <g id="line2d_79">
      <g>
       <use style="stroke:#000000;stroke-width:0.5;" x="306.395828348" xlink:href="#me9cebc1b94" y="376.03625"/>
      </g>
     </g>
     <g id="line2d_80">
      <g>
       <use style="stroke:#000000;stroke-width:0.5;" x="306.395828348" xlink:href="#m766ba4dd38" y="30.43625"/>
      </g>
     </g>
    </g>
    <g id="xtick_27">
     <g id="line2d_81">
      <g>
       <use style="stroke:#000000;stroke-width:0.5;" x="321.877370983" xlink:href="#me9cebc1b94" y="376.03625"/>
      </g>
     </g>
     <g id="line2d_82">
      <g>
       <use style="stroke:#000000;stroke-width:0.5;" x="321.877370983" xlink:href="#m766ba4dd38" y="30.43625"/>
      </g>
     </g>
    </g>
    <g id="xtick_28">
     <g id="line2d_83">
      <g>
       <use style="stroke:#000000;stroke-width:0.5;" x="330.933492877" xlink:href="#me9cebc1b94" y="376.03625"/>
      </g>
     </g>
     <g id="line2d_84">
      <g>
       <use style="stroke:#000000;stroke-width:0.5;" x="330.933492877" xlink:href="#m766ba4dd38" y="30.43625"/>
      </g>
     </g>
    </g>
    <g id="xtick_29">
     <g id="line2d_85">
      <g>
       <use style="stroke:#000000;stroke-width:0.5;" x="337.358913617" xlink:href="#me9cebc1b94" y="376.03625"/>
      </g>
     </g>
     <g id="line2d_86">
      <g>
       <use style="stroke:#000000;stroke-width:0.5;" x="337.358913617" xlink:href="#m766ba4dd38" y="30.43625"/>
      </g>
     </g>
    </g>
    <g id="xtick_30">
     <g id="line2d_87">
      <g>
       <use style="stroke:#000000;stroke-width:0.5;" x="357.824399777" xlink:href="#me9cebc1b94" y="376.03625"/>
      </g>
     </g>
     <g id="line2d_88">
      <g>
       <use style="stroke:#000000;stroke-width:0.5;" x="357.824399777" xlink:href="#m766ba4dd38" y="30.43625"/>
      </g>
     </g>
    </g>
    <g id="xtick_31">
     <g id="line2d_89">
      <g>
       <use style="stroke:#000000;stroke-width:0.5;" x="373.305942411" xlink:href="#me9cebc1b94" y="376.03625"/>
      </g>
     </g>
     <g id="line2d_90">
      <g>
       <use style="stroke:#000000;stroke-width:0.5;" x="373.305942411" xlink:href="#m766ba4dd38" y="30.43625"/>
      </g>
     </g>
    </g>
    <g id="xtick_32">
     <g id="line2d_91">
      <g>
       <use style="stroke:#000000;stroke-width:0.5;" x="382.362064305" xlink:href="#me9cebc1b94" y="376.03625"/>
      </g>
     </g>
     <g id="line2d_92">
      <g>
       <use style="stroke:#000000;stroke-width:0.5;" x="382.362064305" xlink:href="#m766ba4dd38" y="30.43625"/>
      </g>
     </g>
    </g>
    <g id="xtick_33">
     <g id="line2d_93">
      <g>
       <use style="stroke:#000000;stroke-width:0.5;" x="388.787485045" xlink:href="#me9cebc1b94" y="376.03625"/>
      </g>
     </g>
     <g id="line2d_94">
      <g>
       <use style="stroke:#000000;stroke-width:0.5;" x="388.787485045" xlink:href="#m766ba4dd38" y="30.43625"/>
      </g>
     </g>
    </g>
    <g id="xtick_34">
     <g id="line2d_95">
      <g>
       <use style="stroke:#000000;stroke-width:0.5;" x="409.252971206" xlink:href="#me9cebc1b94" y="376.03625"/>
      </g>
     </g>
     <g id="line2d_96">
      <g>
       <use style="stroke:#000000;stroke-width:0.5;" x="409.252971206" xlink:href="#m766ba4dd38" y="30.43625"/>
      </g>
     </g>
    </g>
    <g id="xtick_35">
     <g id="line2d_97">
      <g>
       <use style="stroke:#000000;stroke-width:0.5;" x="424.73451384" xlink:href="#me9cebc1b94" y="376.03625"/>
      </g>
     </g>
     <g id="line2d_98">
      <g>
       <use style="stroke:#000000;stroke-width:0.5;" x="424.73451384" xlink:href="#m766ba4dd38" y="30.43625"/>
      </g>
     </g>
    </g>
    <g id="xtick_36">
     <g id="line2d_99">
      <g>
       <use style="stroke:#000000;stroke-width:0.5;" x="433.790635734" xlink:href="#me9cebc1b94" y="376.03625"/>
      </g>
     </g>
     <g id="line2d_100">
      <g>
       <use style="stroke:#000000;stroke-width:0.5;" x="433.790635734" xlink:href="#m766ba4dd38" y="30.43625"/>
      </g>
     </g>
    </g>
    <g id="xtick_37">
     <g id="line2d_101">
      <g>
       <use style="stroke:#000000;stroke-width:0.5;" x="440.216056474" xlink:href="#me9cebc1b94" y="376.03625"/>
      </g>
     </g>
     <g id="line2d_102">
      <g>
       <use style="stroke:#000000;stroke-width:0.5;" x="440.216056474" xlink:href="#m766ba4dd38" y="30.43625"/>
      </g>
     </g>
    </g>
    <g id="xtick_38">
     <g id="line2d_103">
      <g>
       <use style="stroke:#000000;stroke-width:0.5;" x="460.681542634" xlink:href="#me9cebc1b94" y="376.03625"/>
      </g>
     </g>
     <g id="line2d_104">
      <g>
       <use style="stroke:#000000;stroke-width:0.5;" x="460.681542634" xlink:href="#m766ba4dd38" y="30.43625"/>
      </g>
     </g>
    </g>
    <g id="xtick_39">
     <g id="line2d_105">
      <g>
       <use style="stroke:#000000;stroke-width:0.5;" x="476.163085268" xlink:href="#me9cebc1b94" y="376.03625"/>
      </g>
     </g>
     <g id="line2d_106">
      <g>
       <use style="stroke:#000000;stroke-width:0.5;" x="476.163085268" xlink:href="#m766ba4dd38" y="30.43625"/>
      </g>
     </g>
    </g>
    <g id="xtick_40">
     <g id="line2d_107">
      <g>
       <use style="stroke:#000000;stroke-width:0.5;" x="485.219207163" xlink:href="#me9cebc1b94" y="376.03625"/>
      </g>
     </g>
     <g id="line2d_108">
      <g>
       <use style="stroke:#000000;stroke-width:0.5;" x="485.219207163" xlink:href="#m766ba4dd38" y="30.43625"/>
      </g>
     </g>
    </g>
    <g id="xtick_41">
     <g id="line2d_109">
      <g>
       <use style="stroke:#000000;stroke-width:0.5;" x="491.644627902" xlink:href="#me9cebc1b94" y="376.03625"/>
      </g>
     </g>
     <g id="line2d_110">
      <g>
       <use style="stroke:#000000;stroke-width:0.5;" x="491.644627902" xlink:href="#m766ba4dd38" y="30.43625"/>
      </g>
     </g>
    </g>
    <g id="xtick_42">
     <g id="line2d_111">
      <g>
       <use style="stroke:#000000;stroke-width:0.5;" x="512.110114063" xlink:href="#me9cebc1b94" y="376.03625"/>
      </g>
     </g>
     <g id="line2d_112">
      <g>
       <use style="stroke:#000000;stroke-width:0.5;" x="512.110114063" xlink:href="#m766ba4dd38" y="30.43625"/>
      </g>
     </g>
    </g>
    <g id="xtick_43">
     <g id="line2d_113">
      <g>
       <use style="stroke:#000000;stroke-width:0.5;" x="527.591656697" xlink:href="#me9cebc1b94" y="376.03625"/>
      </g>
     </g>
     <g id="line2d_114">
      <g>
       <use style="stroke:#000000;stroke-width:0.5;" x="527.591656697" xlink:href="#m766ba4dd38" y="30.43625"/>
      </g>
     </g>
    </g>
    <g id="text_10">
     <!-- log10 of (# f-evals / dimension) -->
     <defs>
      <path id="BitstreamVeraSans-Roman-20"/>
      <path d="M 51.125 44 
L 36.921875 44 
L 32.8125 27.6875 
L 47.125 27.6875 
z
M 43.796875 71.78125 
L 38.71875 51.515625 
L 52.984375 51.515625 
L 58.109375 71.78125 
L 65.921875 71.78125 
L 60.890625 51.515625 
L 76.125 51.515625 
L 76.125 44 
L 58.984375 44 
L 54.984375 27.6875 
L 70.515625 27.6875 
L 70.515625 20.21875 
L 53.078125 20.21875 
L 48 0 
L 40.1875 0 
L 45.21875 20.21875 
L 30.90625 20.21875 
L 25.875 0 
L 18.015625 0 
L 23.09375 20.21875 
L 7.71875 20.21875 
L 7.71875 27.6875 
L 24.90625 27.6875 
L 29 44 
L 13.28125 44 
L 13.28125 51.515625 
L 30.90625 51.515625 
L 35.890625 71.78125 
z
" id="BitstreamVeraSans-Roman-23"/>
      <path d="M 52 44.1875 
Q 55.375 50.25 60.0625 53.125 
Q 64.75 56 71.09375 56 
Q 79.640625 56 84.28125 50.015625 
Q 88.921875 44.046875 88.921875 33.015625 
L 88.921875 0 
L 79.890625 0 
L 79.890625 32.71875 
Q 79.890625 40.578125 77.09375 44.375 
Q 74.3125 48.1875 68.609375 48.1875 
Q 61.625 48.1875 57.5625 43.546875 
Q 53.515625 38.921875 53.515625 30.90625 
L 53.515625 0 
L 44.484375 0 
L 44.484375 32.71875 
Q 44.484375 40.625 41.703125 44.40625 
Q 38.921875 48.1875 33.109375 48.1875 
Q 26.21875 48.1875 22.15625 43.53125 
Q 18.109375 38.875 18.109375 30.90625 
L 18.109375 0 
L 9.078125 0 
L 9.078125 54.6875 
L 18.109375 54.6875 
L 18.109375 46.1875 
Q 21.1875 51.21875 25.484375 53.609375 
Q 29.78125 56 35.6875 56 
Q 41.65625 56 45.828125 52.96875 
Q 50 49.953125 52 44.1875 
" id="BitstreamVeraSans-Roman-6d"/>
      <path d="M 54.890625 33.015625 
L 54.890625 0 
L 45.90625 0 
L 45.90625 32.71875 
Q 45.90625 40.484375 42.875 44.328125 
Q 39.84375 48.1875 33.796875 48.1875 
Q 26.515625 48.1875 22.3125 43.546875 
Q 18.109375 38.921875 18.109375 30.90625 
L 18.109375 0 
L 9.078125 0 
L 9.078125 54.6875 
L 18.109375 54.6875 
L 18.109375 46.1875 
Q 21.34375 51.125 25.703125 53.5625 
Q 30.078125 56 35.796875 56 
Q 45.21875 56 50.046875 50.171875 
Q 54.890625 44.34375 54.890625 33.015625 
" id="BitstreamVeraSans-Roman-6e"/>
      <path d="M 31 75.875 
Q 24.46875 64.65625 21.28125 53.65625 
Q 18.109375 42.671875 18.109375 31.390625 
Q 18.109375 20.125 21.3125 9.0625 
Q 24.515625 -2 31 -13.1875 
L 23.1875 -13.1875 
Q 15.875 -1.703125 12.234375 9.375 
Q 8.59375 20.453125 8.59375 31.390625 
Q 8.59375 42.28125 12.203125 53.3125 
Q 15.828125 64.359375 23.1875 75.875 
z
" id="BitstreamVeraSans-Roman-28"/>
      <path d="M 30.609375 48.390625 
Q 23.390625 48.390625 19.1875 42.75 
Q 14.984375 37.109375 14.984375 27.296875 
Q 14.984375 17.484375 19.15625 11.84375 
Q 23.34375 6.203125 30.609375 6.203125 
Q 37.796875 6.203125 41.984375 11.859375 
Q 46.1875 17.53125 46.1875 27.296875 
Q 46.1875 37.015625 41.984375 42.703125 
Q 37.796875 48.390625 30.609375 48.390625 
M 30.609375 56 
Q 42.328125 56 49.015625 48.375 
Q 55.71875 40.765625 55.71875 27.296875 
Q 55.71875 13.875 49.015625 6.21875 
Q 42.328125 -1.421875 30.609375 -1.421875 
Q 18.84375 -1.421875 12.171875 6.21875 
Q 5.515625 13.875 5.515625 27.296875 
Q 5.515625 40.765625 12.171875 48.375 
Q 18.84375 56 30.609375 56 
" id="BitstreamVeraSans-Roman-6f"/>
      <path d="M 9.421875 75.984375 
L 18.40625 75.984375 
L 18.40625 0 
L 9.421875 0 
z
" id="BitstreamVeraSans-Roman-6c"/>
      <path d="M 2.984375 54.6875 
L 12.5 54.6875 
L 29.59375 8.796875 
L 46.6875 54.6875 
L 56.203125 54.6875 
L 35.6875 0 
L 23.484375 0 
z
" id="BitstreamVeraSans-Roman-76"/>
      <path d="M 9.421875 54.6875 
L 18.40625 54.6875 
L 18.40625 0 
L 9.421875 0 
z
M 9.421875 75.984375 
L 18.40625 75.984375 
L 18.40625 64.59375 
L 9.421875 64.59375 
z
" id="BitstreamVeraSans-Roman-69"/>
      <path d="M 4.890625 31.390625 
L 31.203125 31.390625 
L 31.203125 23.390625 
L 4.890625 23.390625 
z
" id="BitstreamVeraSans-Roman-2d"/>
      <path d="M 25.390625 72.90625 
L 33.6875 72.90625 
L 8.296875 -9.28125 
L 0 -9.28125 
z
" id="BitstreamVeraSans-Roman-2f"/>
      <path d="M 56.203125 29.59375 
L 56.203125 25.203125 
L 14.890625 25.203125 
Q 15.484375 15.921875 20.484375 11.0625 
Q 25.484375 6.203125 34.421875 6.203125 
Q 39.59375 6.203125 44.453125 7.46875 
Q 49.3125 8.734375 54.109375 11.28125 
L 54.109375 2.78125 
Q 49.265625 0.734375 44.1875 -0.34375 
Q 39.109375 -1.421875 33.890625 -1.421875 
Q 20.796875 -1.421875 13.15625 6.1875 
Q 5.515625 13.8125 5.515625 26.8125 
Q 5.515625 40.234375 12.765625 48.109375 
Q 20.015625 56 32.328125 56 
Q 43.359375 56 49.78125 48.890625 
Q 56.203125 41.796875 56.203125 29.59375 
M 47.21875 32.234375 
Q 47.125 39.59375 43.09375 43.984375 
Q 39.0625 48.390625 32.421875 48.390625 
Q 24.90625 48.390625 20.390625 44.140625 
Q 15.875 39.890625 15.1875 32.171875 
z
" id="BitstreamVeraSans-Roman-65"/>
      <path d="M 45.40625 46.390625 
L 45.40625 75.984375 
L 54.390625 75.984375 
L 54.390625 0 
L 45.40625 0 
L 45.40625 8.203125 
Q 42.578125 3.328125 38.25 0.953125 
Q 33.9375 -1.421875 27.875 -1.421875 
Q 17.96875 -1.421875 11.734375 6.484375 
Q 5.515625 14.40625 5.515625 27.296875 
Q 5.515625 40.1875 11.734375 48.09375 
Q 17.96875 56 27.875 56 
Q 33.9375 56 38.25 53.625 
Q 42.578125 51.265625 45.40625 46.390625 
M 14.796875 27.296875 
Q 14.796875 17.390625 18.875 11.75 
Q 22.953125 6.109375 30.078125 6.109375 
Q 37.203125 6.109375 41.296875 11.75 
Q 45.40625 17.390625 45.40625 27.296875 
Q 45.40625 37.203125 41.296875 42.84375 
Q 37.203125 48.484375 30.078125 48.484375 
Q 22.953125 48.484375 18.875 42.84375 
Q 14.796875 37.203125 14.796875 27.296875 
" id="BitstreamVeraSans-Roman-64"/>
      <path d="M 45.40625 27.984375 
Q 45.40625 37.75 41.375 43.109375 
Q 37.359375 48.484375 30.078125 48.484375 
Q 22.859375 48.484375 18.828125 43.109375 
Q 14.796875 37.75 14.796875 27.984375 
Q 14.796875 18.265625 18.828125 12.890625 
Q 22.859375 7.515625 30.078125 7.515625 
Q 37.359375 7.515625 41.375 12.890625 
Q 45.40625 18.265625 45.40625 27.984375 
M 54.390625 6.78125 
Q 54.390625 -7.171875 48.1875 -13.984375 
Q 42 -20.796875 29.203125 -20.796875 
Q 24.46875 -20.796875 20.265625 -20.09375 
Q 16.0625 -19.390625 12.109375 -17.921875 
L 12.109375 -9.1875 
Q 16.0625 -11.328125 19.921875 -12.34375 
Q 23.78125 -13.375 27.78125 -13.375 
Q 36.625 -13.375 41.015625 -8.765625 
Q 45.40625 -4.15625 45.40625 5.171875 
L 45.40625 9.625 
Q 42.625 4.78125 38.28125 2.390625 
Q 33.9375 0 27.875 0 
Q 17.828125 0 11.671875 7.65625 
Q 5.515625 15.328125 5.515625 27.984375 
Q 5.515625 40.671875 11.671875 48.328125 
Q 17.828125 56 27.875 56 
Q 33.9375 56 38.28125 53.609375 
Q 42.625 51.21875 45.40625 46.390625 
L 45.40625 54.6875 
L 54.390625 54.6875 
z
" id="BitstreamVeraSans-Roman-67"/>
      <path d="M 37.109375 75.984375 
L 37.109375 68.5 
L 28.515625 68.5 
Q 23.6875 68.5 21.796875 66.546875 
Q 19.921875 64.59375 19.921875 59.515625 
L 19.921875 54.6875 
L 34.71875 54.6875 
L 34.71875 47.703125 
L 19.921875 47.703125 
L 19.921875 0 
L 10.890625 0 
L 10.890625 47.703125 
L 2.296875 47.703125 
L 2.296875 54.6875 
L 10.890625 54.6875 
L 10.890625 58.5 
Q 10.890625 67.625 15.140625 71.796875 
Q 19.390625 75.984375 28.609375 75.984375 
z
" id="BitstreamVeraSans-Roman-66"/>
      <path d="M 34.28125 27.484375 
Q 23.390625 27.484375 19.1875 25 
Q 14.984375 22.515625 14.984375 16.5 
Q 14.984375 11.71875 18.140625 8.90625 
Q 21.296875 6.109375 26.703125 6.109375 
Q 34.1875 6.109375 38.703125 11.40625 
Q 43.21875 16.703125 43.21875 25.484375 
L 43.21875 27.484375 
z
M 52.203125 31.203125 
L 52.203125 0 
L 43.21875 0 
L 43.21875 8.296875 
Q 40.140625 3.328125 35.546875 0.953125 
Q 30.953125 -1.421875 24.3125 -1.421875 
Q 15.921875 -1.421875 10.953125 3.296875 
Q 6 8.015625 6 15.921875 
Q 6 25.140625 12.171875 29.828125 
Q 18.359375 34.515625 30.609375 34.515625 
L 43.21875 34.515625 
L 43.21875 35.40625 
Q 43.21875 41.609375 39.140625 45 
Q 35.0625 48.390625 27.6875 48.390625 
Q 23 48.390625 18.546875 47.265625 
Q 14.109375 46.140625 10.015625 43.890625 
L 10.015625 52.203125 
Q 14.9375 54.109375 19.578125 55.046875 
Q 24.21875 56 28.609375 56 
Q 40.484375 56 46.34375 49.84375 
Q 52.203125 43.703125 52.203125 31.203125 
" id="BitstreamVeraSans-Roman-61"/>
      <path d="M 44.28125 53.078125 
L 44.28125 44.578125 
Q 40.484375 46.53125 36.375 47.5 
Q 32.28125 48.484375 27.875 48.484375 
Q 21.1875 48.484375 17.84375 46.4375 
Q 14.5 44.390625 14.5 40.28125 
Q 14.5 37.15625 16.890625 35.375 
Q 19.28125 33.59375 26.515625 31.984375 
L 29.59375 31.296875 
Q 39.15625 29.25 43.1875 25.515625 
Q 47.21875 21.78125 47.21875 15.09375 
Q 47.21875 7.46875 41.1875 3.015625 
Q 35.15625 -1.421875 24.609375 -1.421875 
Q 20.21875 -1.421875 15.453125 -0.5625 
Q 10.6875 0.296875 5.421875 2 
L 5.421875 11.28125 
Q 10.40625 8.6875 15.234375 7.390625 
Q 20.0625 6.109375 24.8125 6.109375 
Q 31.15625 6.109375 34.5625 8.28125 
Q 37.984375 10.453125 37.984375 14.40625 
Q 37.984375 18.0625 35.515625 20.015625 
Q 33.0625 21.96875 24.703125 23.78125 
L 21.578125 24.515625 
Q 13.234375 26.265625 9.515625 29.90625 
Q 5.8125 33.546875 5.8125 39.890625 
Q 5.8125 47.609375 11.28125 51.796875 
Q 16.75 56 26.8125 56 
Q 31.78125 56 36.171875 55.265625 
Q 40.578125 54.546875 44.28125 53.078125 
" id="BitstreamVeraSans-Roman-73"/>
      <path d="M 8.015625 75.875 
L 15.828125 75.875 
Q 23.140625 64.359375 26.78125 53.3125 
Q 30.421875 42.28125 30.421875 31.390625 
Q 30.421875 20.453125 26.78125 9.375 
Q 23.140625 -1.703125 15.828125 -13.1875 
L 8.015625 -13.1875 
Q 14.5 -2 17.703125 9.0625 
Q 20.90625 20.125 20.90625 31.390625 
Q 20.90625 42.671875 17.703125 53.65625 
Q 14.5 64.65625 8.015625 75.875 
" id="BitstreamVeraSans-Roman-29"/>
     </defs>
     <g transform="translate(166.05515625 418.0696875)scale(0.18 -0.18)">
      <use xlink:href="#BitstreamVeraSans-Roman-6c"/>
      <use x="27.783203125" xlink:href="#BitstreamVeraSans-Roman-6f"/>
      <use x="88.96484375" xlink:href="#BitstreamVeraSans-Roman-67"/>
      <use x="152.44140625" xlink:href="#BitstreamVeraSans-Roman-31"/>
      <use x="216.064453125" xlink:href="#BitstreamVeraSans-Roman-30"/>
      <use x="279.6875" xlink:href="#BitstreamVeraSans-Roman-20"/>
      <use x="311.474609375" xlink:href="#BitstreamVeraSans-Roman-6f"/>
      <use x="372.65625" xlink:href="#BitstreamVeraSans-Roman-66"/>
      <use x="407.861328125" xlink:href="#BitstreamVeraSans-Roman-20"/>
      <use x="439.6484375" xlink:href="#BitstreamVeraSans-Roman-28"/>
      <use x="478.662109375" xlink:href="#BitstreamVeraSans-Roman-23"/>
      <use x="562.451171875" xlink:href="#BitstreamVeraSans-Roman-20"/>
      <use x="594.23828125" xlink:href="#BitstreamVeraSans-Roman-66"/>
      <use x="629.365234375" xlink:href="#BitstreamVeraSans-Roman-2d"/>
      <use x="665.44921875" xlink:href="#BitstreamVeraSans-Roman-65"/>
      <use x="726.97265625" xlink:href="#BitstreamVeraSans-Roman-76"/>
      <use x="786.15234375" xlink:href="#BitstreamVeraSans-Roman-61"/>
      <use x="847.431640625" xlink:href="#BitstreamVeraSans-Roman-6c"/>
      <use x="875.21484375" xlink:href="#BitstreamVeraSans-Roman-73"/>
      <use x="927.314453125" xlink:href="#BitstreamVeraSans-Roman-20"/>
      <use x="959.1015625" xlink:href="#BitstreamVeraSans-Roman-2f"/>
      <use x="992.79296875" xlink:href="#BitstreamVeraSans-Roman-20"/>
      <use x="1024.58007812" xlink:href="#BitstreamVeraSans-Roman-64"/>
      <use x="1088.05664062" xlink:href="#BitstreamVeraSans-Roman-69"/>
      <use x="1115.83984375" xlink:href="#BitstreamVeraSans-Roman-6d"/>
      <use x="1213.25195312" xlink:href="#BitstreamVeraSans-Roman-65"/>
      <use x="1274.77539062" xlink:href="#BitstreamVeraSans-Roman-6e"/>
      <use x="1338.15429688" xlink:href="#BitstreamVeraSans-Roman-73"/>
      <use x="1390.25390625" xlink:href="#BitstreamVeraSans-Roman-69"/>
      <use x="1418.03710938" xlink:href="#BitstreamVeraSans-Roman-6f"/>
      <use x="1479.21875" xlink:href="#BitstreamVeraSans-Roman-6e"/>
      <use x="1542.59765625" xlink:href="#BitstreamVeraSans-Roman-29"/>
     </g>
    </g>
   </g>
   <g id="matplotlib.axis_2">
    <g id="ytick_1">
     <g id="line2d_115">
      <path clip-path="url(#p2ce68e0910)" d="M 85.2 376.03625 
L 531.6 376.03625 
" style="fill:none;stroke:#000000;stroke-dasharray:1.000000,3.000000;stroke-dashoffset:0.0;stroke-width:0.5;"/>
     </g>
     <g id="line2d_116">
      <defs>
       <path d="M 0 0 
L 4 0 
" id="ma99fe35d57" style="stroke:#000000;stroke-width:0.5;"/>
      </defs>
      <g>
       <use style="stroke:#000000;stroke-width:0.5;" x="85.2" xlink:href="#ma99fe35d57" y="376.03625"/>
      </g>
     </g>
     <g id="line2d_117">
      <defs>
       <path d="M 0 0 
L -4 0 
" id="m070e941efb" style="stroke:#000000;stroke-width:0.5;"/>
      </defs>
      <g>
       <use style="stroke:#000000;stroke-width:0.5;" x="531.6" xlink:href="#m070e941efb" y="376.03625"/>
      </g>
     </g>
     <g id="text_11">
      <!-- 0.0 -->
      <defs>
       <path d="M 10.6875 12.40625 
L 21 12.40625 
L 21 0 
L 10.6875 0 
z
" id="BitstreamVeraSans-Roman-2e"/>
      </defs>
      <g transform="translate(49.39375 381.555)scale(0.2 -0.2)">
       <use xlink:href="#BitstreamVeraSans-Roman-30"/>
       <use x="63.623046875" xlink:href="#BitstreamVeraSans-Roman-2e"/>
       <use x="95.41015625" xlink:href="#BitstreamVeraSans-Roman-30"/>
      </g>
     </g>
    </g>
    <g id="ytick_2">
     <g id="line2d_118">
      <path clip-path="url(#p2ce68e0910)" d="M 85.2 307.600606 
L 531.6 307.600606 
" style="fill:none;stroke:#000000;stroke-dasharray:1.000000,3.000000;stroke-dashoffset:0.0;stroke-width:0.5;"/>
     </g>
     <g id="line2d_119">
      <g>
       <use style="stroke:#000000;stroke-width:0.5;" x="85.2" xlink:href="#ma99fe35d57" y="307.600606436"/>
      </g>
     </g>
     <g id="line2d_120">
      <g>
       <use style="stroke:#000000;stroke-width:0.5;" x="531.6" xlink:href="#m070e941efb" y="307.600606436"/>
      </g>
     </g>
     <g id="text_12">
      <!-- 0.2 -->
      <g transform="translate(49.39375 313.119356436)scale(0.2 -0.2)">
       <use xlink:href="#BitstreamVeraSans-Roman-30"/>
       <use x="63.623046875" xlink:href="#BitstreamVeraSans-Roman-2e"/>
       <use x="95.41015625" xlink:href="#BitstreamVeraSans-Roman-32"/>
      </g>
     </g>
    </g>
    <g id="ytick_3">
     <g id="line2d_121">
      <path clip-path="url(#p2ce68e0910)" d="M 85.2 239.164963 
L 531.6 239.164963 
" style="fill:none;stroke:#000000;stroke-dasharray:1.000000,3.000000;stroke-dashoffset:0.0;stroke-width:0.5;"/>
     </g>
     <g id="line2d_122">
      <g>
       <use style="stroke:#000000;stroke-width:0.5;" x="85.2" xlink:href="#ma99fe35d57" y="239.164962871"/>
      </g>
     </g>
     <g id="line2d_123">
      <g>
       <use style="stroke:#000000;stroke-width:0.5;" x="531.6" xlink:href="#m070e941efb" y="239.164962871"/>
      </g>
     </g>
     <g id="text_13">
      <!-- 0.4 -->
      <g transform="translate(49.39375 244.683712871)scale(0.2 -0.2)">
       <use xlink:href="#BitstreamVeraSans-Roman-30"/>
       <use x="63.623046875" xlink:href="#BitstreamVeraSans-Roman-2e"/>
       <use x="95.41015625" xlink:href="#BitstreamVeraSans-Roman-34"/>
      </g>
     </g>
    </g>
    <g id="ytick_4">
     <g id="line2d_124">
      <path clip-path="url(#p2ce68e0910)" d="M 85.2 170.729319 
L 531.6 170.729319 
" style="fill:none;stroke:#000000;stroke-dasharray:1.000000,3.000000;stroke-dashoffset:0.0;stroke-width:0.5;"/>
     </g>
     <g id="line2d_125">
      <g>
       <use style="stroke:#000000;stroke-width:0.5;" x="85.2" xlink:href="#ma99fe35d57" y="170.729319307"/>
      </g>
     </g>
     <g id="line2d_126">
      <g>
       <use style="stroke:#000000;stroke-width:0.5;" x="531.6" xlink:href="#m070e941efb" y="170.729319307"/>
      </g>
     </g>
     <g id="text_14">
      <!-- 0.6 -->
      <g transform="translate(49.39375 176.248069307)scale(0.2 -0.2)">
       <use xlink:href="#BitstreamVeraSans-Roman-30"/>
       <use x="63.623046875" xlink:href="#BitstreamVeraSans-Roman-2e"/>
       <use x="95.41015625" xlink:href="#BitstreamVeraSans-Roman-36"/>
      </g>
     </g>
    </g>
    <g id="ytick_5">
     <g id="line2d_127">
      <path clip-path="url(#p2ce68e0910)" d="M 85.2 102.293676 
L 531.6 102.293676 
" style="fill:none;stroke:#000000;stroke-dasharray:1.000000,3.000000;stroke-dashoffset:0.0;stroke-width:0.5;"/>
     </g>
     <g id="line2d_128">
      <g>
       <use style="stroke:#000000;stroke-width:0.5;" x="85.2" xlink:href="#ma99fe35d57" y="102.293675743"/>
      </g>
     </g>
     <g id="line2d_129">
      <g>
       <use style="stroke:#000000;stroke-width:0.5;" x="531.6" xlink:href="#m070e941efb" y="102.293675743"/>
      </g>
     </g>
     <g id="text_15">
      <!-- 0.8 -->
      <g transform="translate(49.39375 107.812425743)scale(0.2 -0.2)">
       <use xlink:href="#BitstreamVeraSans-Roman-30"/>
       <use x="63.623046875" xlink:href="#BitstreamVeraSans-Roman-2e"/>
       <use x="95.41015625" xlink:href="#BitstreamVeraSans-Roman-38"/>
      </g>
     </g>
    </g>
    <g id="ytick_6">
     <g id="line2d_130">
      <path clip-path="url(#p2ce68e0910)" d="M 85.2 33.858032 
L 531.6 33.858032 
" style="fill:none;stroke:#000000;stroke-dasharray:1.000000,3.000000;stroke-dashoffset:0.0;stroke-width:0.5;"/>
     </g>
     <g id="line2d_131">
      <g>
       <use style="stroke:#000000;stroke-width:0.5;" x="85.2" xlink:href="#ma99fe35d57" y="33.8580321782"/>
      </g>
     </g>
     <g id="line2d_132">
      <g>
       <use style="stroke:#000000;stroke-width:0.5;" x="531.6" xlink:href="#m070e941efb" y="33.8580321782"/>
      </g>
     </g>
     <g id="text_16">
      <!-- 1.0 -->
      <g transform="translate(49.39375 39.3767821782)scale(0.2 -0.2)">
       <use xlink:href="#BitstreamVeraSans-Roman-31"/>
       <use x="63.623046875" xlink:href="#BitstreamVeraSans-Roman-2e"/>
       <use x="95.41015625" xlink:href="#BitstreamVeraSans-Roman-30"/>
      </g>
     </g>
    </g>
    <g id="text_17">
     <!-- Proportion of function+target pairs -->
     <defs>
      <path d="M 19.671875 64.796875 
L 19.671875 37.40625 
L 32.078125 37.40625 
Q 38.96875 37.40625 42.71875 40.96875 
Q 46.484375 44.53125 46.484375 51.125 
Q 46.484375 57.671875 42.71875 61.234375 
Q 38.96875 64.796875 32.078125 64.796875 
z
M 9.8125 72.90625 
L 32.078125 72.90625 
Q 44.34375 72.90625 50.609375 67.359375 
Q 56.890625 61.8125 56.890625 51.125 
Q 56.890625 40.328125 50.609375 34.8125 
Q 44.34375 29.296875 32.078125 29.296875 
L 19.671875 29.296875 
L 19.671875 0 
L 9.8125 0 
z
" id="BitstreamVeraSans-Roman-50"/>
      <path d="M 46 62.703125 
L 46 35.5 
L 73.1875 35.5 
L 73.1875 27.203125 
L 46 27.203125 
L 46 0 
L 37.796875 0 
L 37.796875 27.203125 
L 10.59375 27.203125 
L 10.59375 35.5 
L 37.796875 35.5 
L 37.796875 62.703125 
z
" id="BitstreamVeraSans-Roman-2b"/>
      <path d="M 18.109375 8.203125 
L 18.109375 -20.796875 
L 9.078125 -20.796875 
L 9.078125 54.6875 
L 18.109375 54.6875 
L 18.109375 46.390625 
Q 20.953125 51.265625 25.265625 53.625 
Q 29.59375 56 35.59375 56 
Q 45.5625 56 51.78125 48.09375 
Q 58.015625 40.1875 58.015625 27.296875 
Q 58.015625 14.40625 51.78125 6.484375 
Q 45.5625 -1.421875 35.59375 -1.421875 
Q 29.59375 -1.421875 25.265625 0.953125 
Q 20.953125 3.328125 18.109375 8.203125 
M 48.6875 27.296875 
Q 48.6875 37.203125 44.609375 42.84375 
Q 40.53125 48.484375 33.40625 48.484375 
Q 26.265625 48.484375 22.1875 42.84375 
Q 18.109375 37.203125 18.109375 27.296875 
Q 18.109375 17.390625 22.1875 11.75 
Q 26.265625 6.109375 33.40625 6.109375 
Q 40.53125 6.109375 44.609375 11.75 
Q 48.6875 17.390625 48.6875 27.296875 
" id="BitstreamVeraSans-Roman-70"/>
      <path d="M 18.3125 70.21875 
L 18.3125 54.6875 
L 36.8125 54.6875 
L 36.8125 47.703125 
L 18.3125 47.703125 
L 18.3125 18.015625 
Q 18.3125 11.328125 20.140625 9.421875 
Q 21.96875 7.515625 27.59375 7.515625 
L 36.8125 7.515625 
L 36.8125 0 
L 27.59375 0 
Q 17.1875 0 13.234375 3.875 
Q 9.28125 7.765625 9.28125 18.015625 
L 9.28125 47.703125 
L 2.6875 47.703125 
L 2.6875 54.6875 
L 9.28125 54.6875 
L 9.28125 70.21875 
z
" id="BitstreamVeraSans-Roman-74"/>
      <path d="M 8.5 21.578125 
L 8.5 54.6875 
L 17.484375 54.6875 
L 17.484375 21.921875 
Q 17.484375 14.15625 20.5 10.265625 
Q 23.53125 6.390625 29.59375 6.390625 
Q 36.859375 6.390625 41.078125 11.03125 
Q 45.3125 15.671875 45.3125 23.6875 
L 45.3125 54.6875 
L 54.296875 54.6875 
L 54.296875 0 
L 45.3125 0 
L 45.3125 8.40625 
Q 42.046875 3.421875 37.71875 1 
Q 33.40625 -1.421875 27.6875 -1.421875 
Q 18.265625 -1.421875 13.375 4.4375 
Q 8.5 10.296875 8.5 21.578125 
" id="BitstreamVeraSans-Roman-75"/>
      <path d="M 41.109375 46.296875 
Q 39.59375 47.171875 37.8125 47.578125 
Q 36.03125 48 33.890625 48 
Q 26.265625 48 22.1875 43.046875 
Q 18.109375 38.09375 18.109375 28.8125 
L 18.109375 0 
L 9.078125 0 
L 9.078125 54.6875 
L 18.109375 54.6875 
L 18.109375 46.1875 
Q 20.953125 51.171875 25.484375 53.578125 
Q 30.03125 56 36.53125 56 
Q 37.453125 56 38.578125 55.875 
Q 39.703125 55.765625 41.0625 55.515625 
z
" id="BitstreamVeraSans-Roman-72"/>
      <path d="M 48.78125 52.59375 
L 48.78125 44.1875 
Q 44.96875 46.296875 41.140625 47.34375 
Q 37.3125 48.390625 33.40625 48.390625 
Q 24.65625 48.390625 19.8125 42.84375 
Q 14.984375 37.3125 14.984375 27.296875 
Q 14.984375 17.28125 19.8125 11.734375 
Q 24.65625 6.203125 33.40625 6.203125 
Q 37.3125 6.203125 41.140625 7.25 
Q 44.96875 8.296875 48.78125 10.40625 
L 48.78125 2.09375 
Q 45.015625 0.34375 40.984375 -0.53125 
Q 36.96875 -1.421875 32.421875 -1.421875 
Q 20.0625 -1.421875 12.78125 6.34375 
Q 5.515625 14.109375 5.515625 27.296875 
Q 5.515625 40.671875 12.859375 48.328125 
Q 20.21875 56 33.015625 56 
Q 37.15625 56 41.109375 55.140625 
Q 45.0625 54.296875 48.78125 52.59375 
" id="BitstreamVeraSans-Roman-63"/>
     </defs>
     <g transform="translate(40.6503125 361.225625)rotate(-90.0)scale(0.18 -0.18)">
      <use xlink:href="#BitstreamVeraSans-Roman-50"/>
      <use x="60.287109375" xlink:href="#BitstreamVeraSans-Roman-72"/>
      <use x="101.369140625" xlink:href="#BitstreamVeraSans-Roman-6f"/>
      <use x="162.55078125" xlink:href="#BitstreamVeraSans-Roman-70"/>
      <use x="226.02734375" xlink:href="#BitstreamVeraSans-Roman-6f"/>
      <use x="287.208984375" xlink:href="#BitstreamVeraSans-Roman-72"/>
      <use x="328.322265625" xlink:href="#BitstreamVeraSans-Roman-74"/>
      <use x="367.53125" xlink:href="#BitstreamVeraSans-Roman-69"/>
      <use x="395.314453125" xlink:href="#BitstreamVeraSans-Roman-6f"/>
      <use x="456.49609375" xlink:href="#BitstreamVeraSans-Roman-6e"/>
      <use x="519.875" xlink:href="#BitstreamVeraSans-Roman-20"/>
      <use x="551.662109375" xlink:href="#BitstreamVeraSans-Roman-6f"/>
      <use x="612.84375" xlink:href="#BitstreamVeraSans-Roman-66"/>
      <use x="648.048828125" xlink:href="#BitstreamVeraSans-Roman-20"/>
      <use x="679.8359375" xlink:href="#BitstreamVeraSans-Roman-66"/>
      <use x="715.041015625" xlink:href="#BitstreamVeraSans-Roman-75"/>
      <use x="778.419921875" xlink:href="#BitstreamVeraSans-Roman-6e"/>
      <use x="841.798828125" xlink:href="#BitstreamVeraSans-Roman-63"/>
      <use x="896.779296875" xlink:href="#BitstreamVeraSans-Roman-74"/>
      <use x="935.98828125" xlink:href="#BitstreamVeraSans-Roman-69"/>
      <use x="963.771484375" xlink:href="#BitstreamVeraSans-Roman-6f"/>
      <use x="1024.953125" xlink:href="#BitstreamVeraSans-Roman-6e"/>
      <use x="1088.33203125" xlink:href="#BitstreamVeraSans-Roman-2b"/>
      <use x="1172.12109375" xlink:href="#BitstreamVeraSans-Roman-74"/>
      <use x="1211.33007812" xlink:href="#BitstreamVeraSans-Roman-61"/>
      <use x="1272.609375" xlink:href="#BitstreamVeraSans-Roman-72"/>
      <use x="1313.70703125" xlink:href="#BitstreamVeraSans-Roman-67"/>
      <use x="1377.18359375" xlink:href="#BitstreamVeraSans-Roman-65"/>
      <use x="1438.70703125" xlink:href="#BitstreamVeraSans-Roman-74"/>
      <use x="1477.91601562" xlink:href="#BitstreamVeraSans-Roman-20"/>
      <use x="1509.703125" xlink:href="#BitstreamVeraSans-Roman-70"/>
      <use x="1573.1796875" xlink:href="#BitstreamVeraSans-Roman-61"/>
      <use x="1634.45898438" xlink:href="#BitstreamVeraSans-Roman-69"/>
      <use x="1662.2421875" xlink:href="#BitstreamVeraSans-Roman-72"/>
      <use x="1703.35546875" xlink:href="#BitstreamVeraSans-Roman-73"/>
     </g>
    </g>
   </g>
   <g id="text_18">
    <!-- 5-D -->
    <defs>
     <path d="M 19.671875 64.796875 
L 19.671875 8.109375 
L 31.59375 8.109375 
Q 46.6875 8.109375 53.6875 14.9375 
Q 60.6875 21.78125 60.6875 36.53125 
Q 60.6875 51.171875 53.6875 57.984375 
Q 46.6875 64.796875 31.59375 64.796875 
z
M 9.8125 72.90625 
L 30.078125 72.90625 
Q 51.265625 72.90625 61.171875 64.09375 
Q 71.09375 55.28125 71.09375 36.53125 
Q 71.09375 17.671875 61.125 8.828125 
Q 51.171875 0 30.078125 0 
L 9.8125 0 
z
" id="BitstreamVeraSans-Roman-44"/>
    </defs>
    <g transform="translate(492.0 373.331748144)scale(0.15 -0.15)">
     <use xlink:href="#BitstreamVeraSans-Roman-35"/>
     <use x="63.623046875" xlink:href="#BitstreamVeraSans-Roman-2d"/>
     <use x="99.70703125" xlink:href="#BitstreamVeraSans-Roman-44"/>
    </g>
   </g>
   <g id="text_19">
    <!-- 2-D -->
    <g transform="translate(492.0 209.086203589)scale(0.15 -0.15)">
     <use xlink:href="#BitstreamVeraSans-Roman-32"/>
     <use x="63.623046875" xlink:href="#BitstreamVeraSans-Roman-2d"/>
     <use x="99.70703125" xlink:href="#BitstreamVeraSans-Roman-44"/>
    </g>
   </g>
   <g id="text_20">
    <!-- 3-D -->
    <g transform="translate(492.0 44.8406590347)scale(0.15 -0.15)">
     <use xlink:href="#BitstreamVeraSans-Roman-33"/>
     <use x="63.623046875" xlink:href="#BitstreamVeraSans-Roman-2d"/>
     <use x="99.70703125" xlink:href="#BitstreamVeraSans-Roman-44"/>
    </g>
   </g>
   <g id="text_21">
    <!-- bbob - f3 -->
    <defs>
     <path d="M 48.6875 27.296875 
Q 48.6875 37.203125 44.609375 42.84375 
Q 40.53125 48.484375 33.40625 48.484375 
Q 26.265625 48.484375 22.1875 42.84375 
Q 18.109375 37.203125 18.109375 27.296875 
Q 18.109375 17.390625 22.1875 11.75 
Q 26.265625 6.109375 33.40625 6.109375 
Q 40.53125 6.109375 44.609375 11.75 
Q 48.6875 17.390625 48.6875 27.296875 
M 18.109375 46.390625 
Q 20.953125 51.265625 25.265625 53.625 
Q 29.59375 56 35.59375 56 
Q 45.5625 56 51.78125 48.09375 
Q 58.015625 40.1875 58.015625 27.296875 
Q 58.015625 14.40625 51.78125 6.484375 
Q 45.5625 -1.421875 35.59375 -1.421875 
Q 29.59375 -1.421875 25.265625 0.953125 
Q 20.953125 3.328125 18.109375 8.203125 
L 18.109375 0 
L 9.078125 0 
L 9.078125 75.984375 
L 18.109375 75.984375 
z
" id="BitstreamVeraSans-Roman-62"/>
    </defs>
    <g transform="translate(89.664 50.007246875)scale(0.1666 -0.1666)">
     <use xlink:href="#BitstreamVeraSans-Roman-62"/>
     <use x="63.4765625" xlink:href="#BitstreamVeraSans-Roman-62"/>
     <use x="126.953125" xlink:href="#BitstreamVeraSans-Roman-6f"/>
     <use x="188.134765625" xlink:href="#BitstreamVeraSans-Roman-62"/>
     <use x="251.611328125" xlink:href="#BitstreamVeraSans-Roman-20"/>
     <use x="283.3984375" xlink:href="#BitstreamVeraSans-Roman-2d"/>
     <use x="319.482421875" xlink:href="#BitstreamVeraSans-Roman-20"/>
     <use x="351.26953125" xlink:href="#BitstreamVeraSans-Roman-66"/>
     <use x="386.474609375" xlink:href="#BitstreamVeraSans-Roman-33"/>
    </g>
    <!-- 51 targets in 100..1e-08 -->
    <g transform="translate(89.664 68.6628025)scale(0.1666 -0.1666)">
     <use xlink:href="#BitstreamVeraSans-Roman-35"/>
     <use x="63.623046875" xlink:href="#BitstreamVeraSans-Roman-31"/>
     <use x="127.24609375" xlink:href="#BitstreamVeraSans-Roman-20"/>
     <use x="159.033203125" xlink:href="#BitstreamVeraSans-Roman-74"/>
     <use x="198.2421875" xlink:href="#BitstreamVeraSans-Roman-61"/>
     <use x="259.521484375" xlink:href="#BitstreamVeraSans-Roman-72"/>
     <use x="300.619140625" xlink:href="#BitstreamVeraSans-Roman-67"/>
     <use x="364.095703125" xlink:href="#BitstreamVeraSans-Roman-65"/>
     <use x="425.619140625" xlink:href="#BitstreamVeraSans-Roman-74"/>
     <use x="464.828125" xlink:href="#BitstreamVeraSans-Roman-73"/>
     <use x="516.927734375" xlink:href="#BitstreamVeraSans-Roman-20"/>
     <use x="548.71484375" xlink:href="#BitstreamVeraSans-Roman-69"/>
     <use x="576.498046875" xlink:href="#BitstreamVeraSans-Roman-6e"/>
     <use x="639.876953125" xlink:href="#BitstreamVeraSans-Roman-20"/>
     <use x="671.6640625" xlink:href="#BitstreamVeraSans-Roman-31"/>
     <use x="735.287109375" xlink:href="#BitstreamVeraSans-Roman-30"/>
     <use x="798.91015625" xlink:href="#BitstreamVeraSans-Roman-30"/>
     <use x="862.533203125" xlink:href="#BitstreamVeraSans-Roman-2e"/>
     <use x="894.3203125" xlink:href="#BitstreamVeraSans-Roman-2e"/>
     <use x="926.107421875" xlink:href="#BitstreamVeraSans-Roman-31"/>
     <use x="989.73046875" xlink:href="#BitstreamVeraSans-Roman-65"/>
     <use x="1051.25390625" xlink:href="#BitstreamVeraSans-Roman-2d"/>
     <use x="1087.33789062" xlink:href="#BitstreamVeraSans-Roman-30"/>
     <use x="1150.9609375" xlink:href="#BitstreamVeraSans-Roman-38"/>
    </g>
    <!-- 15 instances -->
    <g transform="translate(89.664 87.318358125)scale(0.1666 -0.1666)">
     <use xlink:href="#BitstreamVeraSans-Roman-31"/>
     <use x="63.623046875" xlink:href="#BitstreamVeraSans-Roman-35"/>
     <use x="127.24609375" xlink:href="#BitstreamVeraSans-Roman-20"/>
     <use x="159.033203125" xlink:href="#BitstreamVeraSans-Roman-69"/>
     <use x="186.81640625" xlink:href="#BitstreamVeraSans-Roman-6e"/>
     <use x="250.1953125" xlink:href="#BitstreamVeraSans-Roman-73"/>
     <use x="302.294921875" xlink:href="#BitstreamVeraSans-Roman-74"/>
     <use x="341.50390625" xlink:href="#BitstreamVeraSans-Roman-61"/>
     <use x="402.783203125" xlink:href="#BitstreamVeraSans-Roman-6e"/>
     <use x="466.162109375" xlink:href="#BitstreamVeraSans-Roman-63"/>
     <use x="521.142578125" xlink:href="#BitstreamVeraSans-Roman-65"/>
     <use x="582.666015625" xlink:href="#BitstreamVeraSans-Roman-73"/>
    </g>
   </g>
   <g id="text_22">
    <!-- 1.2.1 -->
    <g style="fill:#808080;" transform="translate(295.678125 370.5005625)scale(0.1 -0.1)">
     <use xlink:href="#BitstreamVeraSans-Roman-31"/>
     <use x="63.623046875" xlink:href="#BitstreamVeraSans-Roman-2e"/>
     <use x="95.41015625" xlink:href="#BitstreamVeraSans-Roman-32"/>
     <use x="159.033203125" xlink:href="#BitstreamVeraSans-Roman-2e"/>
     <use x="190.8203125" xlink:href="#BitstreamVeraSans-Roman-31"/>
    </g>
   </g>
   <g id="text_23">
    <!-- 3 Rastrigin separable -->
    <defs>
     <path d="M 44.390625 34.1875 
Q 47.5625 33.109375 50.5625 29.59375 
Q 53.5625 26.078125 56.59375 19.921875 
L 66.609375 0 
L 56 0 
L 46.6875 18.703125 
Q 43.0625 26.03125 39.671875 28.421875 
Q 36.28125 30.8125 30.421875 30.8125 
L 19.671875 30.8125 
L 19.671875 0 
L 9.8125 0 
L 9.8125 72.90625 
L 32.078125 72.90625 
Q 44.578125 72.90625 50.734375 67.671875 
Q 56.890625 62.453125 56.890625 51.90625 
Q 56.890625 45.015625 53.6875 40.46875 
Q 50.484375 35.9375 44.390625 34.1875 
M 19.671875 64.796875 
L 19.671875 38.921875 
L 32.078125 38.921875 
Q 39.203125 38.921875 42.84375 42.21875 
Q 46.484375 45.515625 46.484375 51.90625 
Q 46.484375 58.296875 42.84375 61.546875 
Q 39.203125 64.796875 32.078125 64.796875 
z
" id="BitstreamVeraSans-Roman-52"/>
    </defs>
    <g transform="translate(180.440625 25.43625)scale(0.24 -0.24)">
     <use xlink:href="#BitstreamVeraSans-Roman-33"/>
     <use x="63.623046875" xlink:href="#BitstreamVeraSans-Roman-20"/>
     <use x="95.41015625" xlink:href="#BitstreamVeraSans-Roman-52"/>
     <use x="164.861328125" xlink:href="#BitstreamVeraSans-Roman-61"/>
     <use x="226.140625" xlink:href="#BitstreamVeraSans-Roman-73"/>
     <use x="278.240234375" xlink:href="#BitstreamVeraSans-Roman-74"/>
     <use x="317.44921875" xlink:href="#BitstreamVeraSans-Roman-72"/>
     <use x="358.5625" xlink:href="#BitstreamVeraSans-Roman-69"/>
     <use x="386.345703125" xlink:href="#BitstreamVeraSans-Roman-67"/>
     <use x="449.822265625" xlink:href="#BitstreamVeraSans-Roman-69"/>
     <use x="477.60546875" xlink:href="#BitstreamVeraSans-Roman-6e"/>
     <use x="540.984375" xlink:href="#BitstreamVeraSans-Roman-20"/>
     <use x="572.771484375" xlink:href="#BitstreamVeraSans-Roman-73"/>
     <use x="624.87109375" xlink:href="#BitstreamVeraSans-Roman-65"/>
     <use x="686.39453125" xlink:href="#BitstreamVeraSans-Roman-70"/>
     <use x="749.87109375" xlink:href="#BitstreamVeraSans-Roman-61"/>
     <use x="811.150390625" xlink:href="#BitstreamVeraSans-Roman-72"/>
     <use x="852.263671875" xlink:href="#BitstreamVeraSans-Roman-61"/>
     <use x="913.54296875" xlink:href="#BitstreamVeraSans-Roman-62"/>
     <use x="977.01953125" xlink:href="#BitstreamVeraSans-Roman-6c"/>
     <use x="1004.80273438" xlink:href="#BitstreamVeraSans-Roman-65"/>
    </g>
   </g>
  </g>
 </g>
 <defs>
  <clipPath id="p2ce68e0910">
   <rect height="345.6" width="446.4" x="85.2" y="30.43625"/>
  </clipPath>
 </defs>
</svg>
