<?xml version="1.0" encoding="utf-8" standalone="no"?>
<!DOCTYPE svg PUBLIC "-//W3C//DTD SVG 1.1//EN"
  "http://www.w3.org/Graphics/SVG/1.1/DTD/svg11.dtd">
<!-- Created with matplotlib (http://matplotlib.org/) -->
<svg height="415pt" version="1.1" viewBox="0 0 538 415" width="538pt" xmlns="http://www.w3.org/2000/svg" xmlns:xlink="http://www.w3.org/1999/xlink">
 <defs>
  <style type="text/css">
*{stroke-linecap:butt;stroke-linejoin:round;}
  </style>
 </defs>
 <g id="figure_1">
  <g id="patch_1">
   <path d="
M0 415.456
L538.8 415.456
L538.8 0
L0 0
z
" style="fill:#ffffff;"/>
  </g>
  <g id="axes_1">
   <g id="patch_2">
    <path d="
M85.2 359.056
L531.6 359.056
L531.6 13.4563
L85.2 13.4563
z
" style="fill:#ffffff;"/>
   </g>
   <g id="line2d_1">
    <defs>
     <path d="
M0 1.5
C0.397805 1.5 0.77937 1.34195 1.06066 1.06066
C1.34195 0.77937 1.5 0.397805 1.5 0
C1.5 -0.397805 1.34195 -0.77937 1.06066 -1.06066
C0.77937 -1.34195 0.397805 -1.5 0 -1.5
C-0.397805 -1.5 -0.77937 -1.34195 -1.06066 -1.06066
C-1.34195 -0.77937 -1.5 -0.397805 -1.5 0
C-1.5 0.397805 -1.34195 0.77937 -1.06066 1.06066
C-0.77937 1.34195 -0.397805 1.5 0 1.5
z
" id="ma8fc8663ec" style="stroke:#000080;stroke-width:0.5;"/>
    </defs>
    <g>
     <use style="fill:#000080;stroke:#000080;stroke-width:0.5;" x="216.438331739" xlink:href="#ma8fc8663ec" y="16.878125"/>
     <use style="fill:#000080;stroke:#000080;stroke-width:0.5;" x="216.438331739" xlink:href="#ma8fc8663ec" y="16.878125"/>
    </g>
   </g>
   <g id="line2d_2">
    <path d="
M60.6623 359.056
L60.6623 328.193
L76.1439 328.193
L76.1439 322.826
L141.908 322.826
L141.908 322.155
L160.917 322.155
L160.917 321.484
L161.899 321.484
L161.899 320.142
L162.137 320.142
L162.137 319.471
L163.962 319.471
L163.962 316.116
L164.821 316.116
L164.821 312.762
L166.446 312.762
L166.446 311.42
L166.641 311.42
L166.641 310.749
L167.216 310.749
L167.216 307.394
L167.961 307.394
L167.961 306.723
L168.324 306.723
L168.324 306.052
L168.858 306.052
L168.858 305.381
L170.387 305.381
L170.387 303.369
L171.035 303.369
L171.035 302.027
L172.724 302.027
L172.724 301.356
L173.018 301.356
L173.018 300.685
L173.452 300.685
L173.452 298.672
L173.594 298.672
L173.594 298.001
L174.704 298.001
L174.704 297.33
L175.891 297.33
L175.891 293.975
L176.895 293.975
L176.895 293.304
L177.139 293.304
L177.139 291.292
L177.5 291.292
L177.5 288.608
L178.889 288.608
L178.889 287.266
L179.769 287.266
L179.769 285.924
L180.302 285.924
L180.302 283.911
L180.72 283.911
L180.72 283.24
L181.028 283.24
L181.028 281.228
L182.123 281.228
L182.123 279.886
L182.603 279.886
L182.603 277.873
L183.715 277.873
L183.715 276.531
L184.163 276.531
L184.251 273.176
L184.688 273.176
L184.688 272.505
L184.861 272.505
L184.861 271.834
L185.286 271.834
L185.286 270.493
L185.621 270.493
L185.621 269.822
L185.869 269.822
L185.951 260.429
L186.276 260.429
L186.276 259.758
L186.516 259.758
L186.516 257.074
L187.068 257.074
L187.145 254.39
L187.223 254.39
L187.3 253.048
L187.606 253.048
L187.606 244.997
L188.353 244.997
L188.426 240.971
L188.499 240.971
L188.572 237.617
L188.717 237.617
L188.79 235.604
L189.568 235.604
L189.638 230.236
L190.321 230.236
L190.388 228.894
L190.455 228.894
L190.455 227.553
L190.984 227.553
L190.984 226.882
L191.179 226.882
L191.243 223.527
L191.372 223.527
L191.436 222.185
L191.5 222.185
L191.5 219.501
L191.754 219.501
L191.754 218.159
L192.253 218.159
L192.253 217.488
L192.437 217.488
L192.499 216.147
L192.62 216.147
L192.62 215.476
L193.041 215.476
L193.041 214.134
L193.219 214.134
L193.219 212.121
L193.337 212.121
L193.337 210.779
L193.571 210.779
L193.629 208.095
L194.145 208.095
L194.145 204.741
L194.314 204.741
L194.314 203.399
L194.427 203.399
L194.427 202.057
L194.594 202.057
L194.594 200.715
L194.76 200.715
L194.87 199.373
L194.925 199.373
L195.034 194.677
L195.251 194.677
L195.251 193.335
L195.466 193.335
L195.572 189.98
L195.625 189.98
L195.731 186.625
L195.784 186.625
L195.784 185.283
L195.994 185.283
L196.098 183.271
L196.253 183.271
L196.253 181.929
L196.51 181.929
L196.51 181.258
L196.713 181.258
L196.813 177.903
L197.014 177.903
L197.113 173.878
L197.212 173.878
L197.212 168.51
L197.36 168.51
L197.409 165.826
L197.556 165.826
L197.556 165.155
L197.846 165.155
L197.846 164.484
L198.274 164.484
L198.274 160.459
L198.601 160.459
L198.694 157.775
L198.74 157.775
L198.74 156.433
L198.924 156.433
L198.924 153.749
L199.242 153.749
L199.242 151.066
L199.422 151.066
L199.422 149.724
L199.556 149.724
L199.644 148.382
L200.127 148.382
L200.17 138.318
L200.256 138.318
L200.256 136.976
L200.471 136.976
L200.471 135.634
L200.81 135.634
L200.852 134.292
L201.019 134.292
L201.061 132.279
L201.144 132.279
L201.185 130.267
L201.35 130.267
L201.391 127.583
L201.473 127.583
L201.473 126.241
L201.717 126.241
L201.717 125.57
L202.038 125.57
L202.077 122.886
L202.354 122.886
L202.354 120.203
L202.471 120.203
L202.471 118.19
L202.588 118.19
L202.588 117.519
L202.973 117.519
L202.973 116.848
L203.125 116.848
L203.125 116.177
L203.239 116.177
L203.239 114.164
L203.427 114.164
L203.501 111.48
L203.761 111.48
L203.871 109.468
L204.017 109.468
L204.017 108.797
L204.163 108.797
L204.163 105.442
L204.379 105.442
L204.45 103.429
L204.557 103.429
L204.557 102.758
L204.77 102.758
L204.84 100.074
L205.015 100.074
L205.119 98.0616
L205.189 98.0616
L205.292 94.7069
L205.463 94.7069
L205.463 93.365
L205.667 93.365
L205.735 89.3394
L205.802 89.3394
L205.836 87.3266
L206.103 87.3266
L206.103 86.6556
L206.4 86.6556
L206.4 85.3138
L206.757 85.3138
L206.854 83.301
L206.886 83.301
L206.886 82.63
L207.014 82.63
L207.014 81.9591
L207.141 81.9591
L207.204 79.2753
L207.393 79.2753
L207.393 78.6044
L207.642 78.6044
L207.642 77.9335
L208.193 77.9335
L208.193 75.9206
L208.373 75.9206
L208.373 74.5788
L208.493 74.5788
L208.552 68.5403
L208.848 68.5403
L208.877 63.8438
L209.023 63.8438
L209.081 61.8309
L209.168 61.8309
L209.197 60.4891
L209.513 60.4891
L209.513 59.1472
L209.88 59.1472
L209.88 57.1344
L209.992 57.1344
L209.992 56.4634
L210.159 56.4634
L210.186 54.4506
L210.324 54.4506
L210.406 51.7669
L210.461 51.7669
L210.543 50.425
L210.786 50.425
L210.786 46.3994
L211.213 46.3994
L211.292 44.3866
L211.527 44.3866
L211.631 41.0319
L212.042 41.0319
L212.042 39.69
L212.27 39.69
L212.32 37.0063
L212.395 37.0063
L212.395 31.6388
L213.231 31.6388
L213.327 28.2841
L213.423 28.2841
L213.423 26.9422
L213.896 26.9422
L213.896 24.2584
L214.588 24.2584
L214.678 22.2456
L214.791 22.2456
L214.791 20.2328
L216.08 20.2328
L216.08 18.22
L216.438 18.22
L216.438 16.8781
L445.2 16.8781
L445.2 16.8781" style="fill:none;stroke:#000080;stroke-linecap:square;stroke-width:1.5;"/>
   </g>
   <g id="line2d_3">
    <defs>
     <path d="
M0 6
C1.59122 6 3.11748 5.3678 4.24264 4.24264
C5.3678 3.11748 6 1.59122 6 0
C6 -1.59122 5.3678 -3.11748 4.24264 -4.24264
C3.11748 -5.3678 1.59122 -6 0 -6
C-1.59122 -6 -3.11748 -5.3678 -4.24264 -4.24264
C-5.3678 -3.11748 -6 -1.59122 -6 0
C-6 1.59122 -5.3678 3.11748 -4.24264 4.24264
C-3.11748 5.3678 -1.59122 6 0 6
z
" id="mae466deef1" style="stroke:#000080;stroke-width:1.5;"/>
    </defs>
    <g>
     <use style="fill:none;stroke:#000080;stroke-width:1.5;" x="185.286408988" xlink:href="#mae466deef1" y="271.834444161"/>
     <use style="fill:none;stroke:#000080;stroke-width:1.5;" x="200.170034412" xlink:href="#mae466deef1" y="147.040035309"/>
     <use style="fill:none;stroke:#000080;stroke-width:1.5;" x="216.438331739" xlink:href="#mae466deef1" y="18.220000364"/>
     <use style="fill:none;stroke:#000080;stroke-width:1.5;" x="216.438331739" xlink:href="#mae466deef1" y="16.878125"/>
     <use style="fill:none;stroke:#000080;stroke-width:1.5;" x="216.438331739" xlink:href="#mae466deef1" y="16.878125"/>
     <use style="fill:none;stroke:#000080;stroke-width:1.5;" x="445.2" xlink:href="#mae466deef1" y="16.878125"/>
    </g>
   </g>
   <g id="line2d_4"/>
   <g id="line2d_5">
    <defs>
     <path d="
M0 1.5
C0.397805 1.5 0.77937 1.34195 1.06066 1.06066
C1.34195 0.77937 1.5 0.397805 1.5 0
C1.5 -0.397805 1.34195 -0.77937 1.06066 -1.06066
C0.77937 -1.34195 0.397805 -1.5 0 -1.5
C-0.397805 -1.5 -0.77937 -1.34195 -1.06066 -1.06066
C-1.34195 -0.77937 -1.5 -0.397805 -1.5 0
C-1.5 0.397805 -1.34195 0.77937 -1.06066 1.06066
C-0.77937 1.34195 -0.397805 1.5 0 1.5
z
" id="m62d5190e8e" style="stroke:#ff00ff;stroke-width:0.5;"/>
    </defs>
    <g>
     <use style="fill:#ff00ff;stroke:#ff00ff;stroke-width:0.5;" x="221.165908949" xlink:href="#m62d5190e8e" y="16.878125"/>
     <use style="fill:#ff00ff;stroke:#ff00ff;stroke-width:0.5;" x="221.165908949" xlink:href="#m62d5190e8e" y="16.878125"/>
    </g>
   </g>
   <g id="line2d_6">
    <path d="
M180.091 359.056
L180.091 357.714
L180.408 357.714
L180.408 357.044
L181.13 357.044
L181.13 355.031
L181.432 355.031
L181.432 348.992
L182.508 348.992
L182.603 347.65
L183.442 347.65
L183.442 346.309
L184.427 346.309
L184.427 341.612
L184.602 341.612
L184.602 340.941
L185.202 340.941
L185.202 340.27
L185.951 340.27
L185.951 339.599
L186.114 339.599
L186.114 338.928
L186.356 338.928
L186.436 336.244
L186.516 336.244
L186.516 335.574
L186.911 335.574
L186.911 334.232
L187.682 334.232
L187.682 333.561
L187.908 333.561
L187.908 332.89
L188.572 332.89
L188.572 330.877
L189.776 330.877
L189.776 330.206
L190.721 330.206
L190.721 328.864
L191.179 328.864
L191.179 325.509
L192.315 325.509
L192.315 324.839
L193.16 324.839
L193.16 319.471
L193.278 319.471
L193.337 316.787
L193.454 316.787
L193.513 314.774
L193.802 314.774
L193.802 314.104
L194.031 314.104
L194.088 312.762
L194.145 312.762
L194.145 307.394
L194.258 307.394
L194.314 304.039
L194.483 304.039
L194.483 302.698
L194.815 302.698
L194.925 297.33
L194.98 297.33
L194.98 296.659
L195.143 296.659
L195.143 295.317
L195.678 295.317
L195.784 293.304
L196.046 293.304
L196.046 292.634
L196.459 292.634
L196.561 289.95
L196.611 289.95
L196.611 287.266
L196.914 287.266
L197.014 284.582
L197.212 284.582
L197.262 282.569
L197.458 282.569
L197.556 277.202
L198.037 277.202
L198.132 273.176
L198.274 273.176
L198.274 272.505
L198.461 272.505
L198.461 271.164
L198.648 271.164
L198.694 268.48
L198.786 268.48
L198.832 265.796
L199.242 265.796
L199.242 265.125
L199.377 265.125
L199.467 260.429
L199.777 260.429
L199.777 259.087
L200.04 259.087
L200.04 258.416
L200.17 258.416
L200.256 254.39
L200.599 254.39
L200.599 253.719
L200.726 253.719
L200.768 248.352
L200.894 248.352
L200.936 244.997
L201.144 244.997
L201.144 244.326
L201.268 244.326
L201.309 242.313
L201.391 242.313
L201.391 238.958
L201.514 238.958
L201.514 237.617
L201.636 237.617
L201.717 232.92
L201.838 232.92
L201.918 226.882
L201.998 226.882
L201.998 224.869
L202.432 224.869
L202.51 218.83
L202.627 218.83
L202.666 217.488
L203.087 217.488
L203.087 216.818
L203.501 216.818
L203.576 212.792
L203.613 212.792
L203.724 210.779
L203.835 210.779
L203.835 210.108
L203.981 210.108
L204.09 206.083
L204.235 206.083
L204.271 203.399
L204.379 203.399
L204.45 199.373
L204.735 199.373
L204.77 194.677
L204.875 194.677
L204.875 194.006
L205.189 194.006
L205.223 191.322
L205.395 191.322
L205.395 186.625
L205.532 186.625
L205.6 185.283
L205.735 185.283
L205.836 178.574
L205.903 178.574
L205.97 175.219
L206.235 175.219
L206.301 173.878
L206.367 173.878
L206.465 164.484
L206.563 164.484
L206.563 163.143
L206.757 163.143
L206.789 161.801
L206.918 161.801
L206.95 159.788
L207.077 159.788
L207.172 155.091
L207.204 155.091
L207.235 151.737
L207.361 151.737
L207.361 150.395
L207.486 150.395
L207.549 148.382
L207.673 148.382
L207.735 147.04
L207.827 147.04
L207.858 141.673
L207.95 141.673
L207.98 134.963
L208.162 134.963
L208.162 134.292
L208.343 134.292
L208.433 128.925
L208.582 128.925
L208.641 124.228
L208.789 124.228
L208.789 123.557
L209.052 123.557
L209.052 119.532
L209.197 119.532
L209.284 116.848
L209.313 116.848
L209.313 112.822
L209.456 112.822
L209.513 110.138
L209.627 110.138
L209.627 109.468
L209.768 109.468
L209.852 107.455
L209.88 107.455
L209.936 103.429
L209.992 103.429
L209.992 102.758
L210.186 102.758
L210.297 98.7325
L210.488 98.7325
L210.488 97.3906
L210.705 97.3906
L210.786 93.365
L210.84 93.365
L210.947 87.9975
L211.054 87.9975
L211.054 86.6556
L211.186 86.6556
L211.239 83.9719
L211.318 83.9719
L211.318 83.301
L211.475 83.301
L211.475 81.9591
L211.76 81.9591
L211.812 79.2753
L211.889 79.2753
L211.914 74.5788
L212.345 74.5788
L212.395 72.566
L212.47 72.566
L212.57 68.5403
L212.866 68.5403
L212.866 67.8694
L213.061 67.8694
L213.11 66.5275
L213.351 66.5275
L213.351 65.1856
L213.661 65.1856
L213.732 63.8438
L213.779 63.8438
L213.826 57.8053
L213.966 57.8053
L214.036 53.7797
L214.175 53.7797
L214.245 49.7541
L214.314 49.7541
L214.337 47.0703
L214.542 47.0703
L214.565 45.7284
L214.769 45.7284
L214.769 43.7156
L214.97 43.7156
L214.97 43.0447
L215.303 43.0447
L215.303 42.3738
L215.434 42.3738
L215.456 39.0191
L215.76 39.0191
L215.781 37.0063
L216.144 37.0063
L216.144 34.3225
L216.355 34.3225
L216.438 32.3097
L217.618 32.3097
L217.618 28.2841
L217.914 28.2841
L217.914 26.9422
L218.031 26.9422
L218.031 25.6003
L218.493 25.6003
L218.493 22.9166
L220.057 22.9166
L220.057 21.5747
L220.653 21.5747
L220.653 19.5619
L221.03 19.5619
L221.081 17.5491
L221.166 17.5491
L221.166 16.8781
L445.2 16.8781
L445.2 16.8781" style="fill:none;stroke:#ff00ff;stroke-linecap:square;stroke-width:1.5;"/>
   </g>
   <g id="line2d_7">
    <defs>
     <path d="
M-3.9968e-16 8.48528
L5.09117 0
L4.88498e-16 -8.48528
L-5.09117 -1.77636e-15
z
" id="mf6640c921f" style="stroke:#ff00ff;stroke-linejoin:miter;stroke-width:1.5;"/>
    </defs>
    <g>
     <use style="fill:none;stroke:#ff00ff;stroke-linejoin:miter;stroke-width:1.5;" x="207.949514858" xlink:href="#mf6640c921f" y="141.001596171"/>
     <use style="fill:none;stroke:#ff00ff;stroke-linejoin:miter;stroke-width:1.5;" x="221.165908949" xlink:href="#mf6640c921f" y="17.549062682"/>
     <use style="fill:none;stroke:#ff00ff;stroke-linejoin:miter;stroke-width:1.5;" x="221.165908949" xlink:href="#mf6640c921f" y="16.878125"/>
     <use style="fill:none;stroke:#ff00ff;stroke-linejoin:miter;stroke-width:1.5;" x="221.165908949" xlink:href="#mf6640c921f" y="16.878125"/>
     <use style="fill:none;stroke:#ff00ff;stroke-linejoin:miter;stroke-width:1.5;" x="445.2" xlink:href="#mf6640c921f" y="16.878125"/>
    </g>
   </g>
   <g id="line2d_8"/>
   <g id="line2d_9">
    <defs>
     <path d="
M0 1.5
C0.397805 1.5 0.77937 1.34195 1.06066 1.06066
C1.34195 0.77937 1.5 0.397805 1.5 0
C1.5 -0.397805 1.34195 -0.77937 1.06066 -1.06066
C0.77937 -1.34195 0.397805 -1.5 0 -1.5
C-0.397805 -1.5 -0.77937 -1.34195 -1.06066 -1.06066
C-1.34195 -0.77937 -1.5 -0.397805 -1.5 0
C-1.5 0.397805 -1.34195 0.77937 -1.06066 1.06066
C-0.77937 1.34195 -0.397805 1.5 0 1.5
z
" id="m3747452efa" style="stroke:#ffa500;stroke-width:0.5;"/>
    </defs>
    <g>
     <use style="fill:#ffa500;stroke:#ffa500;stroke-width:0.5;" x="312.739576667" xlink:href="#m3747452efa" y="16.878125"/>
     <use style="fill:#ffa500;stroke:#ffa500;stroke-width:0.5;" x="312.739576667" xlink:href="#m3747452efa" y="16.878125"/>
    </g>
   </g>
   <g id="line2d_10">
    <path d="
M60.6623 359.056
L60.6623 355.031
L143.606 355.031
L143.606 354.36
L162.137 354.36
L162.137 353.018
L162.839 353.018
L162.839 351.676
L166.446 351.676
L166.446 350.334
L167.405 350.334
L167.405 349.663
L168.143 349.663
L168.143 348.992
L168.324 348.992
L168.324 347.65
L169.72 347.65
L169.72 346.309
L171.664 346.309
L171.664 345.638
L172.871 345.638
L172.871 344.296
L173.452 344.296
L173.452 343.625
L174.017 343.625
L174.017 342.954
L174.295 342.954
L174.295 340.941
L175.239 340.941
L175.239 340.27
L178.205 340.27
L178.205 339.599
L178.663 339.599
L178.663 338.257
L179.334 338.257
L179.334 337.586
L179.769 337.586
L179.769 336.915
L180.616 336.915
L180.616 336.244
L181.532 336.244
L181.532 335.574
L182.123 335.574
L182.123 334.903
L182.508 334.903
L182.508 332.219
L183.259 332.219
L183.259 331.548
L185.032 331.548
L185.032 330.206
L187.068 330.206
L187.068 329.535
L187.757 329.535
L187.757 328.864
L189.147 328.864
L189.147 328.193
L189.638 328.193
L189.638 324.839
L190.05 324.839
L190.05 323.497
L190.455 323.497
L190.455 322.826
L191.564 322.826
L191.564 322.155
L192.62 322.155
L192.62 321.484
L194.145 321.484
L194.202 320.142
L195.678 320.142
L195.678 319.471
L196.407 319.471
L196.407 318.8
L197.311 318.8
L197.311 318.129
L199.422 318.129
L199.422 317.458
L200.083 317.458
L200.083 316.116
L200.641 316.116
L200.684 314.774
L200.936 314.774
L200.936 313.433
L202.666 313.433
L202.666 312.091
L202.82 312.091
L202.82 310.749
L203.163 310.749
L203.163 307.394
L204.017 307.394
L204.017 306.052
L206.66 306.052
L206.66 305.381
L208.011 305.381
L208.011 304.71
L209.052 304.71
L209.052 304.039
L209.796 304.039
L209.796 302.698
L210.269 302.698
L210.269 302.027
L210.461 302.027
L210.461 299.343
L212.042 299.343
L212.093 295.988
L212.792 295.988
L212.891 293.975
L214.036 293.975
L214.06 292.634
L215.543 292.634
L215.543 291.963
L216.334 291.963
L216.355 289.95
L217.559 289.95
L217.559 289.279
L217.717 289.279
L217.717 288.608
L218.964 288.608
L218.964 287.937
L222.827 287.937
L222.827 285.924
L223.216 285.924
L223.216 284.582
L224.823 284.582
L224.823 282.569
L225.585 282.569
L225.585 281.228
L226.957 281.228
L226.957 279.886
L227.152 279.886
L227.152 279.215
L227.549 279.215
L227.549 278.544
L227.802 278.544
L227.802 277.873
L227.914 277.873
L227.914 277.202
L228.47 277.202
L228.47 275.189
L229.213 275.189
L229.213 273.847
L230.092 273.847
L230.092 272.505
L230.228 272.505
L230.228 270.493
L230.751 270.493
L230.751 269.822
L231.003 269.822
L231.003 269.151
L231.133 269.151
L231.133 268.48
L232.426 268.48
L232.487 266.467
L232.579 266.467
L232.579 263.783
L232.71 263.783
L232.71 262.441
L232.831 262.441
L232.831 261.77
L233.209 261.77
L233.209 261.099
L235.035 261.099
L235.035 259.758
L236.966 259.758
L236.966 258.416
L241.301 258.416
L241.301 255.732
L243.7 255.732
L243.7 255.061
L243.829 255.061
L243.829 254.39
L244.523 254.39
L244.523 252.377
L244.906 252.377
L244.906 251.706
L245.54 251.706
L245.625 249.023
L245.709 249.023
L245.715 247.681
L246.111 247.681
L246.111 247.01
L246.75 247.01
L246.787 243.655
L247.049 243.655
L247.049 242.984
L247.291 242.984
L247.291 241.642
L247.63 241.642
L247.692 240.3
L247.841 240.3
L247.841 238.288
L248.387 238.288
L248.467 235.604
L248.542 235.604
L248.611 232.92
L248.818 232.92
L248.887 230.907
L249.221 230.907
L249.293 228.223
L249.48 228.223
L249.542 225.54
L250.275 225.54
L250.275 224.198
L250.421 224.198
L250.421 222.856
L250.544 222.856
L250.544 220.172
L250.72 220.172
L250.72 218.159
L250.85 218.159
L250.85 216.818
L251.046 216.818
L251.046 214.134
L251.245 214.134
L251.245 213.463
L251.767 213.463
L251.823 212.121
L252.209 212.121
L252.209 211.45
L252.394 211.45
L252.394 209.437
L252.738 209.437
L252.738 208.095
L253.032 208.095
L253.032 205.412
L253.782 205.412
L253.782 204.07
L254.005 204.07
L254.005 202.728
L254.626 202.728
L254.686 200.715
L254.911 200.715
L254.937 197.36
L255.208 197.36
L255.237 193.335
L255.968 193.335
L255.968 192.664
L256.149 192.664
L256.188 189.98
L256.398 189.98
L256.465 188.638
L256.741 188.638
L256.786 186.625
L256.878 186.625
L256.878 185.283
L257.076 185.283
L257.184 182.6
L257.389 182.6
L257.389 181.929
L257.72 181.929
L257.72 179.916
L258.034 179.916
L258.086 178.574
L258.372 178.574
L258.372 177.903
L258.614 177.903
L258.614 177.232
L258.831 177.232
L258.831 176.561
L261.933 176.561
L261.933 175.89
L263.698 175.89
L263.698 175.219
L263.921 175.219
L263.921 173.878
L264.522 173.878
L264.529 170.523
L266.464 170.523
L266.548 169.181
L267.054 169.181
L267.054 168.51
L267.184 168.51
L267.184 167.839
L267.311 167.839
L267.383 164.484
L267.451 164.484
L267.53 161.801
L267.64 161.801
L267.724 160.459
L267.848 160.459
L267.957 159.117
L268.054 159.117
L268.054 158.446
L268.176 158.446
L268.176 156.433
L268.293 156.433
L268.324 153.749
L268.574 153.749
L268.574 153.078
L268.834 153.078
L268.856 151.066
L269.029 151.066
L269.075 149.053
L269.203 149.053
L269.203 148.382
L269.549 148.382
L269.653 143.685
L269.874 143.685
L269.874 141.673
L270.183 141.673
L270.183 141.002
L272.416 141.002
L272.416 140.331
L275.575 140.331
L275.575 139.66
L275.751 139.66
L275.751 138.318
L280.474 138.318
L280.578 135.634
L280.606 135.634
L280.606 130.267
L280.864 130.267
L280.864 129.596
L281.451 129.596
L281.532 128.254
L281.628 128.254
L281.728 126.241
L281.806 126.241
L281.898 123.557
L282.004 123.557
L282.038 120.203
L282.428 120.203
L282.443 117.519
L282.58 117.519
L282.58 115.506
L287.147 115.506
L287.147 112.822
L288.005 112.822
L288.107 106.784
L288.425 106.784
L288.524 103.429
L288.559 103.429
L288.624 99.4035
L288.725 99.4035
L288.821 96.7197
L288.892 96.7197
L288.892 95.3778
L292.078 95.3778
L292.078 93.365
L296.96 93.365
L296.96 90.6813
L297.148 90.6813
L297.246 87.9975
L297.278 87.9975
L297.326 83.301
L297.454 83.301
L297.556 79.2753
L297.715 79.2753
L297.715 76.5916
L297.923 76.5916
L297.923 75.9206
L298.507 75.9206
L298.612 74.5788
L298.631 74.5788
L298.699 67.1985
L298.791 67.1985
L298.791 66.5275
L298.926 66.5275
L299.013 63.1728
L299.042 63.1728
L299.042 60.4891
L308.105 60.4891
L308.154 56.4634
L308.282 56.4634
L308.282 54.4506
L308.415 54.4506
L308.522 50.425
L308.597 50.425
L308.699 47.0703
L311.565 47.0703
L311.62 43.7156
L311.757 43.7156
L311.838 39.69
L311.879 39.69
L311.919 34.9934
L311.996 34.9934
L311.996 34.3225
L312.159 34.3225
L312.209 30.2969
L312.315 30.2969
L312.354 27.6131
L312.47 27.6131
L312.513 23.5875
L312.584 23.5875
L312.694 18.22
L312.74 18.22
L312.74 16.8781
L445.2 16.8781
L445.2 16.8781" style="fill:none;stroke:#ffa500;stroke-linecap:square;stroke-width:1.5;"/>
   </g>
   <g id="line2d_11">
    <defs>
     <path d="
M3.67394e-16 -6
L-1.34708 -1.8541
L-5.70634 -1.8541
L-2.17963 0.708204
L-3.52671 4.8541
L-4.20996e-16 2.2918
L3.52671 4.8541
L2.17963 0.708204
L5.70634 -1.8541
L1.34708 -1.8541
z
" id="m73d367cfb6" style="stroke:#ffa500;stroke-linejoin:bevel;stroke-width:1.5;"/>
    </defs>
    <g>
     <use style="fill:none;stroke:#ffa500;stroke-linejoin:bevel;stroke-width:1.5;" x="202.819965137" xlink:href="#m73d367cfb6" y="310.748829718"/>
     <use style="fill:none;stroke:#ffa500;stroke-linejoin:bevel;stroke-width:1.5;" x="254.625912099" xlink:href="#m73d367cfb6" y="202.727862915"/>
     <use style="fill:none;stroke:#ffa500;stroke-linejoin:bevel;stroke-width:1.5;" x="297.246262023" xlink:href="#m73d367cfb6" y="87.9975192924"/>
     <use style="fill:none;stroke:#ffa500;stroke-linejoin:bevel;stroke-width:1.5;" x="312.739576667" xlink:href="#m73d367cfb6" y="16.878125"/>
     <use style="fill:none;stroke:#ffa500;stroke-linejoin:bevel;stroke-width:1.5;" x="312.739576667" xlink:href="#m73d367cfb6" y="16.878125"/>
     <use style="fill:none;stroke:#ffa500;stroke-linejoin:bevel;stroke-width:1.5;" x="445.2" xlink:href="#m73d367cfb6" y="16.878125"/>
    </g>
   </g>
   <g id="line2d_12"/>
   <g id="line2d_13">
    <defs>
     <path d="
M0 1.5
C0.397805 1.5 0.77937 1.34195 1.06066 1.06066
C1.34195 0.77937 1.5 0.397805 1.5 0
C1.5 -0.397805 1.34195 -0.77937 1.06066 -1.06066
C0.77937 -1.34195 0.397805 -1.5 0 -1.5
C-0.397805 -1.5 -0.77937 -1.34195 -1.06066 -1.06066
C-1.34195 -0.77937 -1.5 -0.397805 -1.5 0
C-1.5 0.397805 -1.34195 0.77937 -1.06066 1.06066
C-0.77937 1.34195 -0.397805 1.5 0 1.5
z
" id="m03dd694df9" style="stroke:#6495ed;stroke-width:0.5;"/>
    </defs>
    <g>
     <use style="fill:#6495ed;stroke:#6495ed;stroke-width:0.5;" x="411.183161243" xlink:href="#m03dd694df9" y="278.543820981"/>
     <use style="fill:#6495ed;stroke:#6495ed;stroke-width:0.5;" x="411.183161243" xlink:href="#m03dd694df9" y="278.543820981"/>
    </g>
   </g>
   <g id="line2d_14">
    <path d="
M60.6623 359.056
L60.6623 353.018
L76.1439 353.018
L76.1439 351.005
L151.735 351.005
L151.735 350.334
L161.899 350.334
L161.899 349.663
L162.374 349.663
L162.374 348.321
L163.295 348.321
L163.295 347.65
L165.648 347.65
L165.648 346.979
L168.143 346.979
L168.143 344.967
L170.713 344.967
L170.713 344.296
L171.508 344.296
L171.508 343.625
L173.736 343.625
L173.736 342.283
L175.239 342.283
L175.239 340.941
L175.371 340.941
L175.371 339.599
L179.443 339.599
L179.443 338.928
L179.984 338.928
L179.984 338.257
L180.302 338.257
L180.302 337.586
L181.829 337.586
L181.829 336.915
L187.223 336.915
L187.223 335.574
L188.353 335.574
L188.353 334.903
L189.429 334.903
L189.429 334.232
L190.455 334.232
L190.455 333.561
L190.588 333.561
L190.588 330.206
L191.372 330.206
L191.372 329.535
L191.564 329.535
L191.564 328.193
L193.571 328.193
L193.571 327.522
L194.371 327.522
L194.371 326.18
L195.519 326.18
L195.519 325.509
L196.407 325.509
L196.407 324.839
L198.085 324.839
L198.085 323.497
L198.786 323.497
L198.786 322.826
L200.768 322.826
L200.768 322.155
L201.918 322.155
L201.918 321.484
L204.45 321.484
L204.45 320.142
L206.367 320.142
L206.367 318.8
L208.789 318.8
L208.789 318.129
L209.88 318.129
L209.88 317.458
L210.434 317.458
L210.434 316.787
L211.344 316.787
L211.344 316.116
L212.219 316.116
L212.219 315.445
L214.245 315.445
L214.245 314.774
L215.846 314.774
L215.846 314.104
L222.811 314.104
L222.811 312.762
L223.339 312.762
L223.339 312.091
L225.334 312.091
L225.334 310.749
L226.348 310.749
L226.348 309.407
L227.139 309.407
L227.139 308.736
L228.188 308.736
L228.188 308.065
L230.751 308.065
L230.751 307.394
L231.572 307.394
L231.572 306.723
L231.847 306.723
L231.847 306.052
L232.599 306.052
L232.599 305.381
L233.11 305.381
L233.11 304.039
L234.249 304.039
L234.249 303.369
L235.378 303.369
L235.378 302.027
L235.733 302.027
L235.733 301.356
L237.19 301.356
L237.19 300.685
L241.212 300.685
L241.212 300.014
L242.999 300.014
L242.999 298.672
L244.553 298.672
L244.553 298.001
L249.946 298.001
L249.946 297.33
L258.477 297.33
L258.477 295.988
L260.862 295.988
L260.862 295.317
L267.358 295.317
L267.358 294.646
L294.549 294.646
L294.549 292.634
L298.623 292.634
L298.623 291.963
L314.906 291.963
L314.906 291.292
L319.535 291.292
L319.535 290.621
L326.939 290.621
L327.031 287.937
L333.686 287.937
L333.686 287.266
L336.315 287.266
L336.315 286.595
L348.088 286.595
L348.088 285.924
L358.87 285.924
L358.87 285.253
L360.885 285.253
L360.885 284.582
L361.787 284.582
L361.787 283.911
L363.65 283.911
L363.65 283.24
L365.053 283.24
L365.058 281.899
L365.298 281.899
L365.298 281.228
L366.034 281.228
L366.034 280.557
L368.77 280.557
L368.77 279.886
L374.894 279.886
L374.894 279.215
L411.183 279.215
L411.183 278.544
L445.2 278.544
L445.2 278.544" style="fill:none;stroke:#6495ed;stroke-linecap:square;stroke-width:1.5;"/>
   </g>
   <g id="line2d_15">
    <defs>
     <path d="
M-7.34788e-16 6
L6 -6
L-6 -6
z
" id="md7b19447de" style="stroke:#6495ed;stroke-linejoin:miter;stroke-width:1.5;"/>
    </defs>
    <g>
     <use style="fill:none;stroke:#6495ed;stroke-linejoin:miter;stroke-width:1.5;" x="180.302465462" xlink:href="#md7b19447de" y="337.586336998"/>
     <use style="fill:none;stroke:#6495ed;stroke-linejoin:miter;stroke-width:1.5;" x="233.109872134" xlink:href="#md7b19447de" y="305.381328262"/>
     <use style="fill:none;stroke:#6495ed;stroke-linejoin:miter;stroke-width:1.5;" x="327.031306469" xlink:href="#md7b19447de" y="288.607886211"/>
     <use style="fill:none;stroke:#6495ed;stroke-linejoin:miter;stroke-width:1.5;" x="411.183161243" xlink:href="#md7b19447de" y="278.543820981"/>
     <use style="fill:none;stroke:#6495ed;stroke-linejoin:miter;stroke-width:1.5;" x="411.183161243" xlink:href="#md7b19447de" y="278.543820981"/>
     <use style="fill:none;stroke:#6495ed;stroke-linejoin:miter;stroke-width:1.5;" x="445.2" xlink:href="#md7b19447de" y="278.543820981"/>
    </g>
   </g>
   <g id="line2d_16"/>
   <g id="line2d_17">
    <path clip-path="url(#p54ce849065)" d="
M326.872 290.621" style="fill:none;stroke:#6495ed;stroke-linecap:square;"/>
    <defs>
     <path d="
M-12 12
L12 -12
M-12 -12
L12 12" id="mdd39a44969" style="stroke:#6495ed;stroke-width:3;"/>
    </defs>
    <g clip-path="url(#p54ce849065)">
     <use style="fill:#6495ed;stroke:#6495ed;stroke-width:3;" x="326.872032806" xlink:href="#mdd39a44969" y="290.620699257"/>
    </g>
   </g>
   <g id="line2d_18">
    <defs>
     <path d="
M0 1.5
C0.397805 1.5 0.77937 1.34195 1.06066 1.06066
C1.34195 0.77937 1.5 0.397805 1.5 0
C1.5 -0.397805 1.34195 -0.77937 1.06066 -1.06066
C0.77937 -1.34195 0.397805 -1.5 0 -1.5
C-0.397805 -1.5 -0.77937 -1.34195 -1.06066 -1.06066
C-1.34195 -0.77937 -1.5 -0.397805 -1.5 0
C-1.5 0.397805 -1.34195 0.77937 -1.06066 1.06066
C-0.77937 1.34195 -0.397805 1.5 0 1.5
z
" id="ma07bdd5909" style="stroke:#ff0000;stroke-width:0.5;"/>
    </defs>
    <g>
     <use style="fill:#ff0000;stroke:#ff0000;stroke-width:0.5;" x="195.412189727" xlink:href="#ma07bdd5909" y="16.878125"/>
     <use style="fill:#ff0000;stroke:#ff0000;stroke-width:0.5;" x="195.412189727" xlink:href="#ma07bdd5909" y="16.878125"/>
    </g>
   </g>
   <g id="line2d_19">
    <path d="
M60.6623 359.056
L60.6623 352.347
L76.1439 352.347
L76.1439 348.992
L154.239 348.992
L154.239 348.321
L158.536 348.321
L158.536 346.979
L158.813 346.979
L158.813 346.309
L159.625 346.309
L159.625 344.296
L160.151 344.296
L160.151 341.612
L161.899 341.612
L161.899 338.928
L162.137 338.928
L162.137 337.586
L162.374 337.586
L162.374 335.574
L162.608 335.574
L162.608 334.232
L163.068 334.232
L163.068 332.89
L165.444 332.89
L165.444 315.445
L166.641 315.445
L166.641 313.433
L167.405 313.433
L167.405 312.762
L167.777 312.762
L167.777 312.091
L168.143 312.091
L168.143 309.407
L168.681 309.407
L168.681 307.394
L169.207 307.394
L169.207 303.369
L170.056 303.369
L170.056 302.698
L170.222 302.698
L170.222 302.027
L170.875 302.027
L170.875 289.95
L171.194 289.95
L171.194 288.608
L171.351 288.608
L171.351 287.937
L171.818 287.937
L171.818 285.924
L171.972 285.924
L171.972 285.253
L172.576 285.253
L172.576 282.569
L172.724 282.569
L172.724 278.544
L172.871 278.544
L172.871 257.074
L173.018 257.074
L173.018 253.719
L173.877 253.719
L173.877 252.377
L174.156 252.377
L174.156 240.3
L174.569 240.3
L174.569 238.958
L174.973 238.958
L174.973 225.54
L176.019 225.54
L176.019 223.527
L177.017 223.527
L177.017 222.856
L177.26 222.856
L177.26 204.741
L177.38 204.741
L177.38 204.07
L178.55 204.07
L178.55 185.283
L179.112 185.283
L179.112 165.826
L179.334 165.826
L179.334 163.143
L180.616 163.143
L180.616 145.698
L180.823 145.698
L180.823 127.583
L181.829 127.583
L181.829 125.57
L183.351 125.57
L183.351 106.784
L184.427 106.784
L184.427 106.113
L184.515 106.113
L184.515 86.6556
L186.675 86.6556
L186.675 65.1856
L187.908 65.1856
L187.908 40.3609
L191.754 40.3609
L191.754 37.6772
L195.412 37.6772
L195.412 16.8781
L445.2 16.8781" style="fill:none;stroke:#ff0000;stroke-linecap:square;stroke-width:1.5;"/>
   </g>
   <g id="line2d_20">
    <defs>
     <path d="
M3.67394e-16 -6
L-5.19615 -3
L-5.19615 3
L-1.10218e-15 6
L5.19615 3
L5.19615 -3
z
" id="m98e028c2bf" style="stroke:#ff0000;stroke-linejoin:miter;stroke-width:1.5;"/>
    </defs>
    <g>
     <use style="fill:none;stroke:#ff0000;stroke-linejoin:miter;stroke-width:1.5;" x="165.444269651" xlink:href="#m98e028c2bf" y="332.889773224"/>
     <use style="fill:none;stroke:#ff0000;stroke-linejoin:miter;stroke-width:1.5;" x="180.823121784" xlink:href="#m98e028c2bf" y="127.582842531"/>
     <use style="fill:none;stroke:#ff0000;stroke-linejoin:miter;stroke-width:1.5;" x="195.412189727" xlink:href="#m98e028c2bf" y="37.6771931421"/>
     <use style="fill:none;stroke:#ff0000;stroke-linejoin:miter;stroke-width:1.5;" x="195.412189727" xlink:href="#m98e028c2bf" y="16.878125"/>
     <use style="fill:none;stroke:#ff0000;stroke-linejoin:miter;stroke-width:1.5;" x="195.412189727" xlink:href="#m98e028c2bf" y="16.878125"/>
     <use style="fill:none;stroke:#ff0000;stroke-linejoin:miter;stroke-width:1.5;" x="445.2" xlink:href="#m98e028c2bf" y="16.878125"/>
    </g>
   </g>
   <g id="line2d_21"/>
   <g id="line2d_22">
    <path d="
M445.2 278.544
L484.8 352.213" style="fill:none;stroke:#6495ed;stroke-linecap:square;stroke-width:1.5;"/>
    <g>
     <use style="fill:none;stroke:#6495ed;stroke-linejoin:miter;stroke-width:1.5;" x="445.2" xlink:href="#md7b19447de" y="278.543820981"/>
     <use style="fill:none;stroke:#6495ed;stroke-linejoin:miter;stroke-width:1.5;" x="484.8" xlink:href="#md7b19447de" y="352.212778465"/>
    </g>
   </g>
   <g id="line2d_23">
    <path d="
M445.2 16.8781
L484.8 270.09" style="fill:none;stroke:#ffa500;stroke-linecap:square;stroke-width:1.5;"/>
    <g>
     <use style="fill:none;stroke:#ffa500;stroke-linejoin:bevel;stroke-width:1.5;" x="445.2" xlink:href="#m73d367cfb6" y="16.878125"/>
     <use style="fill:none;stroke:#ffa500;stroke-linejoin:bevel;stroke-width:1.5;" x="484.8" xlink:href="#m73d367cfb6" y="270.090006188"/>
    </g>
   </g>
   <g id="line2d_24">
    <path d="
M445.2 16.8781
L484.8 187.967" style="fill:none;stroke:#ff00ff;stroke-linecap:square;stroke-width:1.5;"/>
    <g>
     <use style="fill:none;stroke:#ff00ff;stroke-linejoin:miter;stroke-width:1.5;" x="445.2" xlink:href="#mf6640c921f" y="16.878125"/>
     <use style="fill:none;stroke:#ff00ff;stroke-linejoin:miter;stroke-width:1.5;" x="484.8" xlink:href="#mf6640c921f" y="187.967233911"/>
    </g>
   </g>
   <g id="line2d_25">
    <path d="
M445.2 16.8781
L484.8 105.844" style="fill:none;stroke:#000080;stroke-linecap:square;stroke-width:1.5;"/>
    <g>
     <use style="fill:none;stroke:#000080;stroke-width:1.5;" x="445.2" xlink:href="#mae466deef1" y="16.878125"/>
     <use style="fill:none;stroke:#000080;stroke-width:1.5;" x="484.8" xlink:href="#mae466deef1" y="105.844461634"/>
    </g>
   </g>
   <g id="line2d_26">
    <path d="
M445.2 16.8781
L484.8 23.7217" style="fill:none;stroke:#ff0000;stroke-linecap:square;stroke-width:1.5;"/>
    <g>
     <use style="fill:none;stroke:#ff0000;stroke-linejoin:miter;stroke-width:1.5;" x="445.2" xlink:href="#m98e028c2bf" y="16.878125"/>
     <use style="fill:none;stroke:#ff0000;stroke-linejoin:miter;stroke-width:1.5;" x="484.8" xlink:href="#m98e028c2bf" y="23.7216893564"/>
    </g>
   </g>
   <g id="line2d_27">
    <path d="
M445.2 359.056
L445.2 16.8781" style="fill:none;stroke:#000000;stroke-linecap:square;"/>
   </g>
   <g id="patch_3">
    <path d="
M85.2 13.4563
L531.6 13.4563" style="fill:none;stroke:#000000;stroke-linecap:square;stroke-linejoin:miter;"/>
   </g>
   <g id="patch_4">
    <path d="
M531.6 359.056
L531.6 13.4563" style="fill:none;stroke:#000000;stroke-linecap:square;stroke-linejoin:miter;"/>
   </g>
   <g id="patch_5">
    <path d="
M85.2 359.056
L531.6 359.056" style="fill:none;stroke:#000000;stroke-linecap:square;stroke-linejoin:miter;"/>
   </g>
   <g id="patch_6">
    <path d="
M85.2 359.056
L85.2 13.4563" style="fill:none;stroke:#000000;stroke-linecap:square;stroke-linejoin:miter;"/>
   </g>
   <g id="matplotlib.axis_1">
    <g id="xtick_1">
     <g id="line2d_28">
      <path clip-path="url(#p54ce849065)" d="
M85.2 359.056
L85.2 13.4563" style="fill:none;stroke:#000000;stroke-dasharray:1.000000,3.000000;stroke-dashoffset:0.0;stroke-width:0.5;"/>
     </g>
     <g id="line2d_29">
      <defs>
       <path d="
M0 0
L0 -4" id="m93b0483c22" style="stroke:#000000;stroke-width:0.5;"/>
      </defs>
      <g>
       <use style="stroke:#000000;stroke-width:0.5;" x="85.2" xlink:href="#m93b0483c22" y="359.056342822"/>
      </g>
     </g>
     <g id="line2d_30">
      <defs>
       <path d="
M0 0
L0 4" id="m741efc42ff" style="stroke:#000000;stroke-width:0.5;"/>
      </defs>
      <g>
       <use style="stroke:#000000;stroke-width:0.5;" x="85.2" xlink:href="#m741efc42ff" y="13.4563428218"/>
      </g>
     </g>
     <g id="text_1">
      <!-- 0 -->
      <defs>
       <path d="
M31.7812 66.4062
Q24.1719 66.4062 20.3281 58.9062
Q16.5 51.4219 16.5 36.375
Q16.5 21.3906 20.3281 13.8906
Q24.1719 6.39062 31.7812 6.39062
Q39.4531 6.39062 43.2812 13.8906
Q47.125 21.3906 47.125 36.375
Q47.125 51.4219 43.2812 58.9062
Q39.4531 66.4062 31.7812 66.4062
M31.7812 74.2188
Q44.0469 74.2188 50.5156 64.5156
Q56.9844 54.8281 56.9844 36.375
Q56.9844 17.9688 50.5156 8.26562
Q44.0469 -1.42188 31.7812 -1.42188
Q19.5312 -1.42188 13.0625 8.26562
Q6.59375 17.9688 6.59375 36.375
Q6.59375 54.8281 13.0625 64.5156
Q19.5312 74.2188 31.7812 74.2188" id="BitstreamVeraSans-Roman-30"/>
      </defs>
      <g transform="translate(80.1609375 378.253217822)scale(0.2 -0.2)">
       <use xlink:href="#BitstreamVeraSans-Roman-30"/>
      </g>
     </g>
    </g>
    <g id="xtick_2">
     <g id="line2d_31">
      <path clip-path="url(#p54ce849065)" d="
M136.629 359.056
L136.629 13.4563" style="fill:none;stroke:#000000;stroke-dasharray:1.000000,3.000000;stroke-dashoffset:0.0;stroke-width:0.5;"/>
     </g>
     <g id="line2d_32">
      <g>
       <use style="stroke:#000000;stroke-width:0.5;" x="136.628571429" xlink:href="#m93b0483c22" y="359.056342822"/>
      </g>
     </g>
     <g id="line2d_33">
      <g>
       <use style="stroke:#000000;stroke-width:0.5;" x="136.628571429" xlink:href="#m741efc42ff" y="13.4563428218"/>
      </g>
     </g>
     <g id="text_2">
      <!-- 1 -->
      <defs>
       <path d="
M12.4062 8.29688
L28.5156 8.29688
L28.5156 63.9219
L10.9844 60.4062
L10.9844 69.3906
L28.4219 72.9062
L38.2812 72.9062
L38.2812 8.29688
L54.3906 8.29688
L54.3906 0
L12.4062 0
z
" id="BitstreamVeraSans-Roman-31"/>
      </defs>
      <g transform="translate(132.287946429 378.253217822)scale(0.2 -0.2)">
       <use xlink:href="#BitstreamVeraSans-Roman-31"/>
      </g>
     </g>
    </g>
    <g id="xtick_3">
     <g id="line2d_34">
      <path clip-path="url(#p54ce849065)" d="
M188.057 359.056
L188.057 13.4563" style="fill:none;stroke:#000000;stroke-dasharray:1.000000,3.000000;stroke-dashoffset:0.0;stroke-width:0.5;"/>
     </g>
     <g id="line2d_35">
      <g>
       <use style="stroke:#000000;stroke-width:0.5;" x="188.057142857" xlink:href="#m93b0483c22" y="359.056342822"/>
      </g>
     </g>
     <g id="line2d_36">
      <g>
       <use style="stroke:#000000;stroke-width:0.5;" x="188.057142857" xlink:href="#m741efc42ff" y="13.4563428218"/>
      </g>
     </g>
     <g id="text_3">
      <!-- 2 -->
      <defs>
       <path d="
M19.1875 8.29688
L53.6094 8.29688
L53.6094 0
L7.32812 0
L7.32812 8.29688
Q12.9375 14.1094 22.625 23.8906
Q32.3281 33.6875 34.8125 36.5312
Q39.5469 41.8438 41.4219 45.5312
Q43.3125 49.2188 43.3125 52.7812
Q43.3125 58.5938 39.2344 62.25
Q35.1562 65.9219 28.6094 65.9219
Q23.9688 65.9219 18.8125 64.3125
Q13.6719 62.7031 7.8125 59.4219
L7.8125 69.3906
Q13.7656 71.7812 18.9375 73
Q24.125 74.2188 28.4219 74.2188
Q39.75 74.2188 46.4844 68.5469
Q53.2188 62.8906 53.2188 53.4219
Q53.2188 48.9219 51.5312 44.8906
Q49.8594 40.875 45.4062 35.4062
Q44.1875 33.9844 37.6406 27.2188
Q31.1094 20.4531 19.1875 8.29688" id="BitstreamVeraSans-Roman-32"/>
      </defs>
      <g transform="translate(183.429017857 378.253217822)scale(0.2 -0.2)">
       <use xlink:href="#BitstreamVeraSans-Roman-32"/>
      </g>
     </g>
    </g>
    <g id="xtick_4">
     <g id="line2d_37">
      <path clip-path="url(#p54ce849065)" d="
M239.486 359.056
L239.486 13.4563" style="fill:none;stroke:#000000;stroke-dasharray:1.000000,3.000000;stroke-dashoffset:0.0;stroke-width:0.5;"/>
     </g>
     <g id="line2d_38">
      <g>
       <use style="stroke:#000000;stroke-width:0.5;" x="239.485714286" xlink:href="#m93b0483c22" y="359.056342822"/>
      </g>
     </g>
     <g id="line2d_39">
      <g>
       <use style="stroke:#000000;stroke-width:0.5;" x="239.485714286" xlink:href="#m741efc42ff" y="13.4563428218"/>
      </g>
     </g>
     <g id="text_4">
      <!-- 3 -->
      <defs>
       <path d="
M40.5781 39.3125
Q47.6562 37.7969 51.625 33
Q55.6094 28.2188 55.6094 21.1875
Q55.6094 10.4062 48.1875 4.48438
Q40.7656 -1.42188 27.0938 -1.42188
Q22.5156 -1.42188 17.6562 -0.515625
Q12.7969 0.390625 7.625 2.20312
L7.625 11.7188
Q11.7188 9.32812 16.5938 8.10938
Q21.4844 6.89062 26.8125 6.89062
Q36.0781 6.89062 40.9375 10.5469
Q45.7969 14.2031 45.7969 21.1875
Q45.7969 27.6406 41.2812 31.2656
Q36.7656 34.9062 28.7188 34.9062
L20.2188 34.9062
L20.2188 43.0156
L29.1094 43.0156
Q36.375 43.0156 40.2344 45.9219
Q44.0938 48.8281 44.0938 54.2969
Q44.0938 59.9062 40.1094 62.9062
Q36.1406 65.9219 28.7188 65.9219
Q24.6562 65.9219 20.0156 65.0312
Q15.375 64.1562 9.8125 62.3125
L9.8125 71.0938
Q15.4375 72.6562 20.3438 73.4375
Q25.25 74.2188 29.5938 74.2188
Q40.8281 74.2188 47.3594 69.1094
Q53.9062 64.0156 53.9062 55.3281
Q53.9062 49.2656 50.4375 45.0938
Q46.9688 40.9219 40.5781 39.3125" id="BitstreamVeraSans-Roman-33"/>
      </defs>
      <g transform="translate(234.687276786 378.253217822)scale(0.2 -0.2)">
       <use xlink:href="#BitstreamVeraSans-Roman-33"/>
      </g>
     </g>
    </g>
    <g id="xtick_5">
     <g id="line2d_40">
      <path clip-path="url(#p54ce849065)" d="
M290.914 359.056
L290.914 13.4563" style="fill:none;stroke:#000000;stroke-dasharray:1.000000,3.000000;stroke-dashoffset:0.0;stroke-width:0.5;"/>
     </g>
     <g id="line2d_41">
      <g>
       <use style="stroke:#000000;stroke-width:0.5;" x="290.914285714" xlink:href="#m93b0483c22" y="359.056342822"/>
      </g>
     </g>
     <g id="line2d_42">
      <g>
       <use style="stroke:#000000;stroke-width:0.5;" x="290.914285714" xlink:href="#m741efc42ff" y="13.4563428218"/>
      </g>
     </g>
     <g id="text_5">
      <!-- 4 -->
      <defs>
       <path d="
M37.7969 64.3125
L12.8906 25.3906
L37.7969 25.3906
z

M35.2031 72.9062
L47.6094 72.9062
L47.6094 25.3906
L58.0156 25.3906
L58.0156 17.1875
L47.6094 17.1875
L47.6094 0
L37.7969 0
L37.7969 17.1875
L4.89062 17.1875
L4.89062 26.7031
z
" id="BitstreamVeraSans-Roman-34"/>
      </defs>
      <g transform="translate(285.601785714 378.253217822)scale(0.2 -0.2)">
       <use xlink:href="#BitstreamVeraSans-Roman-34"/>
      </g>
     </g>
    </g>
    <g id="xtick_6">
     <g id="line2d_43">
      <path clip-path="url(#p54ce849065)" d="
M342.343 359.056
L342.343 13.4563" style="fill:none;stroke:#000000;stroke-dasharray:1.000000,3.000000;stroke-dashoffset:0.0;stroke-width:0.5;"/>
     </g>
     <g id="line2d_44">
      <g>
       <use style="stroke:#000000;stroke-width:0.5;" x="342.342857143" xlink:href="#m93b0483c22" y="359.056342822"/>
      </g>
     </g>
     <g id="line2d_45">
      <g>
       <use style="stroke:#000000;stroke-width:0.5;" x="342.342857143" xlink:href="#m741efc42ff" y="13.4563428218"/>
      </g>
     </g>
     <g id="text_6">
      <!-- 5 -->
      <defs>
       <path d="
M10.7969 72.9062
L49.5156 72.9062
L49.5156 64.5938
L19.8281 64.5938
L19.8281 46.7344
Q21.9688 47.4688 24.1094 47.8281
Q26.2656 48.1875 28.4219 48.1875
Q40.625 48.1875 47.75 41.5
Q54.8906 34.8125 54.8906 23.3906
Q54.8906 11.625 47.5625 5.09375
Q40.2344 -1.42188 26.9062 -1.42188
Q22.3125 -1.42188 17.5469 -0.640625
Q12.7969 0.140625 7.71875 1.70312
L7.71875 11.625
Q12.1094 9.23438 16.7969 8.0625
Q21.4844 6.89062 26.7031 6.89062
Q35.1562 6.89062 40.0781 11.3281
Q45.0156 15.7656 45.0156 23.3906
Q45.0156 31 40.0781 35.4375
Q35.1562 39.8906 26.7031 39.8906
Q22.75 39.8906 18.8125 39.0156
Q14.8906 38.1406 10.7969 36.2812
z
" id="BitstreamVeraSans-Roman-35"/>
      </defs>
      <g transform="translate(337.625669643 378.253217822)scale(0.2 -0.2)">
       <use xlink:href="#BitstreamVeraSans-Roman-35"/>
      </g>
     </g>
    </g>
    <g id="xtick_7">
     <g id="line2d_46">
      <path clip-path="url(#p54ce849065)" d="
M393.771 359.056
L393.771 13.4563" style="fill:none;stroke:#000000;stroke-dasharray:1.000000,3.000000;stroke-dashoffset:0.0;stroke-width:0.5;"/>
     </g>
     <g id="line2d_47">
      <g>
       <use style="stroke:#000000;stroke-width:0.5;" x="393.771428571" xlink:href="#m93b0483c22" y="359.056342822"/>
      </g>
     </g>
     <g id="line2d_48">
      <g>
       <use style="stroke:#000000;stroke-width:0.5;" x="393.771428571" xlink:href="#m741efc42ff" y="13.4563428218"/>
      </g>
     </g>
     <g id="text_7">
      <!-- 6 -->
      <defs>
       <path d="
M33.0156 40.375
Q26.375 40.375 22.4844 35.8281
Q18.6094 31.2969 18.6094 23.3906
Q18.6094 15.5312 22.4844 10.9531
Q26.375 6.39062 33.0156 6.39062
Q39.6562 6.39062 43.5312 10.9531
Q47.4062 15.5312 47.4062 23.3906
Q47.4062 31.2969 43.5312 35.8281
Q39.6562 40.375 33.0156 40.375
M52.5938 71.2969
L52.5938 62.3125
Q48.875 64.0625 45.0938 64.9844
Q41.3125 65.9219 37.5938 65.9219
Q27.8281 65.9219 22.6719 59.3281
Q17.5312 52.7344 16.7969 39.4062
Q19.6719 43.6562 24.0156 45.9219
Q28.375 48.1875 33.5938 48.1875
Q44.5781 48.1875 50.9531 41.5156
Q57.3281 34.8594 57.3281 23.3906
Q57.3281 12.1562 50.6875 5.35938
Q44.0469 -1.42188 33.0156 -1.42188
Q20.3594 -1.42188 13.6719 8.26562
Q6.98438 17.9688 6.98438 36.375
Q6.98438 53.6562 15.1875 63.9375
Q23.3906 74.2188 37.2031 74.2188
Q40.9219 74.2188 44.7031 73.4844
Q48.4844 72.75 52.5938 71.2969" id="BitstreamVeraSans-Roman-36"/>
      </defs>
      <g transform="translate(388.737053571 378.253217822)scale(0.2 -0.2)">
       <use xlink:href="#BitstreamVeraSans-Roman-36"/>
      </g>
     </g>
    </g>
    <g id="xtick_8">
     <g id="line2d_49">
      <path clip-path="url(#p54ce849065)" d="
M445.2 359.056
L445.2 13.4563" style="fill:none;stroke:#000000;stroke-dasharray:1.000000,3.000000;stroke-dashoffset:0.0;stroke-width:0.5;"/>
     </g>
     <g id="line2d_50">
      <g>
       <use style="stroke:#000000;stroke-width:0.5;" x="445.2" xlink:href="#m93b0483c22" y="359.056342822"/>
      </g>
     </g>
     <g id="line2d_51">
      <g>
       <use style="stroke:#000000;stroke-width:0.5;" x="445.2" xlink:href="#m741efc42ff" y="13.4563428218"/>
      </g>
     </g>
     <g id="text_8">
      <!-- 7 -->
      <defs>
       <path d="
M8.20312 72.9062
L55.0781 72.9062
L55.0781 68.7031
L28.6094 0
L18.3125 0
L43.2188 64.5938
L8.20312 64.5938
z
" id="BitstreamVeraSans-Roman-37"/>
      </defs>
      <g transform="translate(440.5125 378.253217822)scale(0.2 -0.2)">
       <use xlink:href="#BitstreamVeraSans-Roman-37"/>
      </g>
     </g>
    </g>
    <g id="xtick_9">
     <g id="line2d_52">
      <path clip-path="url(#p54ce849065)" d="
M496.629 359.056
L496.629 13.4563" style="fill:none;stroke:#000000;stroke-dasharray:1.000000,3.000000;stroke-dashoffset:0.0;stroke-width:0.5;"/>
     </g>
     <g id="line2d_53">
      <g>
       <use style="stroke:#000000;stroke-width:0.5;" x="496.628571429" xlink:href="#m93b0483c22" y="359.056342822"/>
      </g>
     </g>
     <g id="line2d_54">
      <g>
       <use style="stroke:#000000;stroke-width:0.5;" x="496.628571429" xlink:href="#m741efc42ff" y="13.4563428218"/>
      </g>
     </g>
     <g id="text_9">
      <!-- 8 -->
      <defs>
       <path d="
M31.7812 34.625
Q24.75 34.625 20.7188 30.8594
Q16.7031 27.0938 16.7031 20.5156
Q16.7031 13.9219 20.7188 10.1562
Q24.75 6.39062 31.7812 6.39062
Q38.8125 6.39062 42.8594 10.1719
Q46.9219 13.9688 46.9219 20.5156
Q46.9219 27.0938 42.8906 30.8594
Q38.875 34.625 31.7812 34.625
M21.9219 38.8125
Q15.5781 40.375 12.0312 44.7188
Q8.5 49.0781 8.5 55.3281
Q8.5 64.0625 14.7188 69.1406
Q20.9531 74.2188 31.7812 74.2188
Q42.6719 74.2188 48.875 69.1406
Q55.0781 64.0625 55.0781 55.3281
Q55.0781 49.0781 51.5312 44.7188
Q48 40.375 41.7031 38.8125
Q48.8281 37.1562 52.7969 32.3125
Q56.7812 27.4844 56.7812 20.5156
Q56.7812 9.90625 50.3125 4.23438
Q43.8438 -1.42188 31.7812 -1.42188
Q19.7344 -1.42188 13.25 4.23438
Q6.78125 9.90625 6.78125 20.5156
Q6.78125 27.4844 10.7812 32.3125
Q14.7969 37.1562 21.9219 38.8125
M18.3125 54.3906
Q18.3125 48.7344 21.8438 45.5625
Q25.3906 42.3906 31.7812 42.3906
Q38.1406 42.3906 41.7188 45.5625
Q45.3125 48.7344 45.3125 54.3906
Q45.3125 60.0625 41.7188 63.2344
Q38.1406 66.4062 31.7812 66.4062
Q25.3906 66.4062 21.8438 63.2344
Q18.3125 60.0625 18.3125 54.3906" id="BitstreamVeraSans-Roman-38"/>
      </defs>
      <g transform="translate(491.628571429 378.253217822)scale(0.2 -0.2)">
       <use xlink:href="#BitstreamVeraSans-Roman-38"/>
      </g>
     </g>
    </g>
    <g id="xtick_10">
     <g id="line2d_55">
      <defs>
       <path d="
M0 0
L0 -2" id="m177f7580d0" style="stroke:#000000;stroke-width:0.5;"/>
      </defs>
      <g>
       <use style="stroke:#000000;stroke-width:0.5;" x="100.681542634" xlink:href="#m177f7580d0" y="359.056342822"/>
      </g>
     </g>
     <g id="line2d_56">
      <defs>
       <path d="
M0 0
L0 2" id="m5284c7e2a0" style="stroke:#000000;stroke-width:0.5;"/>
      </defs>
      <g>
       <use style="stroke:#000000;stroke-width:0.5;" x="100.681542634" xlink:href="#m5284c7e2a0" y="13.4563428218"/>
      </g>
     </g>
    </g>
    <g id="xtick_11">
     <g id="line2d_57">
      <g>
       <use style="stroke:#000000;stroke-width:0.5;" x="116.163085268" xlink:href="#m177f7580d0" y="359.056342822"/>
      </g>
     </g>
     <g id="line2d_58">
      <g>
       <use style="stroke:#000000;stroke-width:0.5;" x="116.163085268" xlink:href="#m5284c7e2a0" y="13.4563428218"/>
      </g>
     </g>
    </g>
    <g id="xtick_12">
     <g id="line2d_59">
      <g>
       <use style="stroke:#000000;stroke-width:0.5;" x="125.219207163" xlink:href="#m177f7580d0" y="359.056342822"/>
      </g>
     </g>
     <g id="line2d_60">
      <g>
       <use style="stroke:#000000;stroke-width:0.5;" x="125.219207163" xlink:href="#m5284c7e2a0" y="13.4563428218"/>
      </g>
     </g>
    </g>
    <g id="xtick_13">
     <g id="line2d_61">
      <g>
       <use style="stroke:#000000;stroke-width:0.5;" x="131.644627902" xlink:href="#m177f7580d0" y="359.056342822"/>
      </g>
     </g>
     <g id="line2d_62">
      <g>
       <use style="stroke:#000000;stroke-width:0.5;" x="131.644627902" xlink:href="#m5284c7e2a0" y="13.4563428218"/>
      </g>
     </g>
    </g>
    <g id="xtick_14">
     <g id="line2d_63">
      <g>
       <use style="stroke:#000000;stroke-width:0.5;" x="152.110114063" xlink:href="#m177f7580d0" y="359.056342822"/>
      </g>
     </g>
     <g id="line2d_64">
      <g>
       <use style="stroke:#000000;stroke-width:0.5;" x="152.110114063" xlink:href="#m5284c7e2a0" y="13.4563428218"/>
      </g>
     </g>
    </g>
    <g id="xtick_15">
     <g id="line2d_65">
      <g>
       <use style="stroke:#000000;stroke-width:0.5;" x="167.591656697" xlink:href="#m177f7580d0" y="359.056342822"/>
      </g>
     </g>
     <g id="line2d_66">
      <g>
       <use style="stroke:#000000;stroke-width:0.5;" x="167.591656697" xlink:href="#m5284c7e2a0" y="13.4563428218"/>
      </g>
     </g>
    </g>
    <g id="xtick_16">
     <g id="line2d_67">
      <g>
       <use style="stroke:#000000;stroke-width:0.5;" x="176.647778591" xlink:href="#m177f7580d0" y="359.056342822"/>
      </g>
     </g>
     <g id="line2d_68">
      <g>
       <use style="stroke:#000000;stroke-width:0.5;" x="176.647778591" xlink:href="#m5284c7e2a0" y="13.4563428218"/>
      </g>
     </g>
    </g>
    <g id="xtick_17">
     <g id="line2d_69">
      <g>
       <use style="stroke:#000000;stroke-width:0.5;" x="183.073199331" xlink:href="#m177f7580d0" y="359.056342822"/>
      </g>
     </g>
     <g id="line2d_70">
      <g>
       <use style="stroke:#000000;stroke-width:0.5;" x="183.073199331" xlink:href="#m5284c7e2a0" y="13.4563428218"/>
      </g>
     </g>
    </g>
    <g id="xtick_18">
     <g id="line2d_71">
      <g>
       <use style="stroke:#000000;stroke-width:0.5;" x="203.538685491" xlink:href="#m177f7580d0" y="359.056342822"/>
      </g>
     </g>
     <g id="line2d_72">
      <g>
       <use style="stroke:#000000;stroke-width:0.5;" x="203.538685491" xlink:href="#m5284c7e2a0" y="13.4563428218"/>
      </g>
     </g>
    </g>
    <g id="xtick_19">
     <g id="line2d_73">
      <g>
       <use style="stroke:#000000;stroke-width:0.5;" x="219.020228125" xlink:href="#m177f7580d0" y="359.056342822"/>
      </g>
     </g>
     <g id="line2d_74">
      <g>
       <use style="stroke:#000000;stroke-width:0.5;" x="219.020228125" xlink:href="#m5284c7e2a0" y="13.4563428218"/>
      </g>
     </g>
    </g>
    <g id="xtick_20">
     <g id="line2d_75">
      <g>
       <use style="stroke:#000000;stroke-width:0.5;" x="228.07635002" xlink:href="#m177f7580d0" y="359.056342822"/>
      </g>
     </g>
     <g id="line2d_76">
      <g>
       <use style="stroke:#000000;stroke-width:0.5;" x="228.07635002" xlink:href="#m5284c7e2a0" y="13.4563428218"/>
      </g>
     </g>
    </g>
    <g id="xtick_21">
     <g id="line2d_77">
      <g>
       <use style="stroke:#000000;stroke-width:0.5;" x="234.50177076" xlink:href="#m177f7580d0" y="359.056342822"/>
      </g>
     </g>
     <g id="line2d_78">
      <g>
       <use style="stroke:#000000;stroke-width:0.5;" x="234.50177076" xlink:href="#m5284c7e2a0" y="13.4563428218"/>
      </g>
     </g>
    </g>
    <g id="xtick_22">
     <g id="line2d_79">
      <g>
       <use style="stroke:#000000;stroke-width:0.5;" x="254.96725692" xlink:href="#m177f7580d0" y="359.056342822"/>
      </g>
     </g>
     <g id="line2d_80">
      <g>
       <use style="stroke:#000000;stroke-width:0.5;" x="254.96725692" xlink:href="#m5284c7e2a0" y="13.4563428218"/>
      </g>
     </g>
    </g>
    <g id="xtick_23">
     <g id="line2d_81">
      <g>
       <use style="stroke:#000000;stroke-width:0.5;" x="270.448799554" xlink:href="#m177f7580d0" y="359.056342822"/>
      </g>
     </g>
     <g id="line2d_82">
      <g>
       <use style="stroke:#000000;stroke-width:0.5;" x="270.448799554" xlink:href="#m5284c7e2a0" y="13.4563428218"/>
      </g>
     </g>
    </g>
    <g id="xtick_24">
     <g id="line2d_83">
      <g>
       <use style="stroke:#000000;stroke-width:0.5;" x="279.504921448" xlink:href="#m177f7580d0" y="359.056342822"/>
      </g>
     </g>
     <g id="line2d_84">
      <g>
       <use style="stroke:#000000;stroke-width:0.5;" x="279.504921448" xlink:href="#m5284c7e2a0" y="13.4563428218"/>
      </g>
     </g>
    </g>
    <g id="xtick_25">
     <g id="line2d_85">
      <g>
       <use style="stroke:#000000;stroke-width:0.5;" x="285.930342188" xlink:href="#m177f7580d0" y="359.056342822"/>
      </g>
     </g>
     <g id="line2d_86">
      <g>
       <use style="stroke:#000000;stroke-width:0.5;" x="285.930342188" xlink:href="#m5284c7e2a0" y="13.4563428218"/>
      </g>
     </g>
    </g>
    <g id="xtick_26">
     <g id="line2d_87">
      <g>
       <use style="stroke:#000000;stroke-width:0.5;" x="306.395828348" xlink:href="#m177f7580d0" y="359.056342822"/>
      </g>
     </g>
     <g id="line2d_88">
      <g>
       <use style="stroke:#000000;stroke-width:0.5;" x="306.395828348" xlink:href="#m5284c7e2a0" y="13.4563428218"/>
      </g>
     </g>
    </g>
    <g id="xtick_27">
     <g id="line2d_89">
      <g>
       <use style="stroke:#000000;stroke-width:0.5;" x="321.877370983" xlink:href="#m177f7580d0" y="359.056342822"/>
      </g>
     </g>
     <g id="line2d_90">
      <g>
       <use style="stroke:#000000;stroke-width:0.5;" x="321.877370983" xlink:href="#m5284c7e2a0" y="13.4563428218"/>
      </g>
     </g>
    </g>
    <g id="xtick_28">
     <g id="line2d_91">
      <g>
       <use style="stroke:#000000;stroke-width:0.5;" x="330.933492877" xlink:href="#m177f7580d0" y="359.056342822"/>
      </g>
     </g>
     <g id="line2d_92">
      <g>
       <use style="stroke:#000000;stroke-width:0.5;" x="330.933492877" xlink:href="#m5284c7e2a0" y="13.4563428218"/>
      </g>
     </g>
    </g>
    <g id="xtick_29">
     <g id="line2d_93">
      <g>
       <use style="stroke:#000000;stroke-width:0.5;" x="337.358913617" xlink:href="#m177f7580d0" y="359.056342822"/>
      </g>
     </g>
     <g id="line2d_94">
      <g>
       <use style="stroke:#000000;stroke-width:0.5;" x="337.358913617" xlink:href="#m5284c7e2a0" y="13.4563428218"/>
      </g>
     </g>
    </g>
    <g id="xtick_30">
     <g id="line2d_95">
      <g>
       <use style="stroke:#000000;stroke-width:0.5;" x="357.824399777" xlink:href="#m177f7580d0" y="359.056342822"/>
      </g>
     </g>
     <g id="line2d_96">
      <g>
       <use style="stroke:#000000;stroke-width:0.5;" x="357.824399777" xlink:href="#m5284c7e2a0" y="13.4563428218"/>
      </g>
     </g>
    </g>
    <g id="xtick_31">
     <g id="line2d_97">
      <g>
       <use style="stroke:#000000;stroke-width:0.5;" x="373.305942411" xlink:href="#m177f7580d0" y="359.056342822"/>
      </g>
     </g>
     <g id="line2d_98">
      <g>
       <use style="stroke:#000000;stroke-width:0.5;" x="373.305942411" xlink:href="#m5284c7e2a0" y="13.4563428218"/>
      </g>
     </g>
    </g>
    <g id="xtick_32">
     <g id="line2d_99">
      <g>
       <use style="stroke:#000000;stroke-width:0.5;" x="382.362064305" xlink:href="#m177f7580d0" y="359.056342822"/>
      </g>
     </g>
     <g id="line2d_100">
      <g>
       <use style="stroke:#000000;stroke-width:0.5;" x="382.362064305" xlink:href="#m5284c7e2a0" y="13.4563428218"/>
      </g>
     </g>
    </g>
    <g id="xtick_33">
     <g id="line2d_101">
      <g>
       <use style="stroke:#000000;stroke-width:0.5;" x="388.787485045" xlink:href="#m177f7580d0" y="359.056342822"/>
      </g>
     </g>
     <g id="line2d_102">
      <g>
       <use style="stroke:#000000;stroke-width:0.5;" x="388.787485045" xlink:href="#m5284c7e2a0" y="13.4563428218"/>
      </g>
     </g>
    </g>
    <g id="xtick_34">
     <g id="line2d_103">
      <g>
       <use style="stroke:#000000;stroke-width:0.5;" x="409.252971206" xlink:href="#m177f7580d0" y="359.056342822"/>
      </g>
     </g>
     <g id="line2d_104">
      <g>
       <use style="stroke:#000000;stroke-width:0.5;" x="409.252971206" xlink:href="#m5284c7e2a0" y="13.4563428218"/>
      </g>
     </g>
    </g>
    <g id="xtick_35">
     <g id="line2d_105">
      <g>
       <use style="stroke:#000000;stroke-width:0.5;" x="424.73451384" xlink:href="#m177f7580d0" y="359.056342822"/>
      </g>
     </g>
     <g id="line2d_106">
      <g>
       <use style="stroke:#000000;stroke-width:0.5;" x="424.73451384" xlink:href="#m5284c7e2a0" y="13.4563428218"/>
      </g>
     </g>
    </g>
    <g id="xtick_36">
     <g id="line2d_107">
      <g>
       <use style="stroke:#000000;stroke-width:0.5;" x="433.790635734" xlink:href="#m177f7580d0" y="359.056342822"/>
      </g>
     </g>
     <g id="line2d_108">
      <g>
       <use style="stroke:#000000;stroke-width:0.5;" x="433.790635734" xlink:href="#m5284c7e2a0" y="13.4563428218"/>
      </g>
     </g>
    </g>
    <g id="xtick_37">
     <g id="line2d_109">
      <g>
       <use style="stroke:#000000;stroke-width:0.5;" x="440.216056474" xlink:href="#m177f7580d0" y="359.056342822"/>
      </g>
     </g>
     <g id="line2d_110">
      <g>
       <use style="stroke:#000000;stroke-width:0.5;" x="440.216056474" xlink:href="#m5284c7e2a0" y="13.4563428218"/>
      </g>
     </g>
    </g>
    <g id="xtick_38">
     <g id="line2d_111">
      <g>
       <use style="stroke:#000000;stroke-width:0.5;" x="460.681542634" xlink:href="#m177f7580d0" y="359.056342822"/>
      </g>
     </g>
     <g id="line2d_112">
      <g>
       <use style="stroke:#000000;stroke-width:0.5;" x="460.681542634" xlink:href="#m5284c7e2a0" y="13.4563428218"/>
      </g>
     </g>
    </g>
    <g id="xtick_39">
     <g id="line2d_113">
      <g>
       <use style="stroke:#000000;stroke-width:0.5;" x="476.163085268" xlink:href="#m177f7580d0" y="359.056342822"/>
      </g>
     </g>
     <g id="line2d_114">
      <g>
       <use style="stroke:#000000;stroke-width:0.5;" x="476.163085268" xlink:href="#m5284c7e2a0" y="13.4563428218"/>
      </g>
     </g>
    </g>
    <g id="xtick_40">
     <g id="line2d_115">
      <g>
       <use style="stroke:#000000;stroke-width:0.5;" x="485.219207163" xlink:href="#m177f7580d0" y="359.056342822"/>
      </g>
     </g>
     <g id="line2d_116">
      <g>
       <use style="stroke:#000000;stroke-width:0.5;" x="485.219207163" xlink:href="#m5284c7e2a0" y="13.4563428218"/>
      </g>
     </g>
    </g>
    <g id="xtick_41">
     <g id="line2d_117">
      <g>
       <use style="stroke:#000000;stroke-width:0.5;" x="491.644627902" xlink:href="#m177f7580d0" y="359.056342822"/>
      </g>
     </g>
     <g id="line2d_118">
      <g>
       <use style="stroke:#000000;stroke-width:0.5;" x="491.644627902" xlink:href="#m5284c7e2a0" y="13.4563428218"/>
      </g>
     </g>
    </g>
    <g id="xtick_42">
     <g id="line2d_119">
      <g>
       <use style="stroke:#000000;stroke-width:0.5;" x="512.110114063" xlink:href="#m177f7580d0" y="359.056342822"/>
      </g>
     </g>
     <g id="line2d_120">
      <g>
       <use style="stroke:#000000;stroke-width:0.5;" x="512.110114063" xlink:href="#m5284c7e2a0" y="13.4563428218"/>
      </g>
     </g>
    </g>
    <g id="xtick_43">
     <g id="line2d_121">
      <g>
       <use style="stroke:#000000;stroke-width:0.5;" x="527.591656697" xlink:href="#m177f7580d0" y="359.056342822"/>
      </g>
     </g>
     <g id="line2d_122">
      <g>
       <use style="stroke:#000000;stroke-width:0.5;" x="527.591656697" xlink:href="#m5284c7e2a0" y="13.4563428218"/>
      </g>
     </g>
    </g>
    <g id="text_10">
     <!-- log10 of (# f-evals / dimension) -->
     <defs>
      <path id="BitstreamVeraSans-Roman-20"/>
      <path d="
M51.125 44
L36.9219 44
L32.8125 27.6875
L47.125 27.6875
z

M43.7969 71.7812
L38.7188 51.5156
L52.9844 51.5156
L58.1094 71.7812
L65.9219 71.7812
L60.8906 51.5156
L76.125 51.5156
L76.125 44
L58.9844 44
L54.9844 27.6875
L70.5156 27.6875
L70.5156 20.2188
L53.0781 20.2188
L48 0
L40.1875 0
L45.2188 20.2188
L30.9062 20.2188
L25.875 0
L18.0156 0
L23.0938 20.2188
L7.71875 20.2188
L7.71875 27.6875
L24.9062 27.6875
L29 44
L13.2812 44
L13.2812 51.5156
L30.9062 51.5156
L35.8906 71.7812
z
" id="BitstreamVeraSans-Roman-23"/>
      <path d="
M52 44.1875
Q55.375 50.25 60.0625 53.125
Q64.75 56 71.0938 56
Q79.6406 56 84.2812 50.0156
Q88.9219 44.0469 88.9219 33.0156
L88.9219 0
L79.8906 0
L79.8906 32.7188
Q79.8906 40.5781 77.0938 44.375
Q74.3125 48.1875 68.6094 48.1875
Q61.625 48.1875 57.5625 43.5469
Q53.5156 38.9219 53.5156 30.9062
L53.5156 0
L44.4844 0
L44.4844 32.7188
Q44.4844 40.625 41.7031 44.4062
Q38.9219 48.1875 33.1094 48.1875
Q26.2188 48.1875 22.1562 43.5312
Q18.1094 38.875 18.1094 30.9062
L18.1094 0
L9.07812 0
L9.07812 54.6875
L18.1094 54.6875
L18.1094 46.1875
Q21.1875 51.2188 25.4844 53.6094
Q29.7812 56 35.6875 56
Q41.6562 56 45.8281 52.9688
Q50 49.9531 52 44.1875" id="BitstreamVeraSans-Roman-6d"/>
      <path d="
M54.8906 33.0156
L54.8906 0
L45.9062 0
L45.9062 32.7188
Q45.9062 40.4844 42.875 44.3281
Q39.8438 48.1875 33.7969 48.1875
Q26.5156 48.1875 22.3125 43.5469
Q18.1094 38.9219 18.1094 30.9062
L18.1094 0
L9.07812 0
L9.07812 54.6875
L18.1094 54.6875
L18.1094 46.1875
Q21.3438 51.125 25.7031 53.5625
Q30.0781 56 35.7969 56
Q45.2188 56 50.0469 50.1719
Q54.8906 44.3438 54.8906 33.0156" id="BitstreamVeraSans-Roman-6e"/>
      <path d="
M31 75.875
Q24.4688 64.6562 21.2812 53.6562
Q18.1094 42.6719 18.1094 31.3906
Q18.1094 20.125 21.3125 9.0625
Q24.5156 -2 31 -13.1875
L23.1875 -13.1875
Q15.875 -1.70312 12.2344 9.375
Q8.59375 20.4531 8.59375 31.3906
Q8.59375 42.2812 12.2031 53.3125
Q15.8281 64.3594 23.1875 75.875
z
" id="BitstreamVeraSans-Roman-28"/>
      <path d="
M30.6094 48.3906
Q23.3906 48.3906 19.1875 42.75
Q14.9844 37.1094 14.9844 27.2969
Q14.9844 17.4844 19.1562 11.8438
Q23.3438 6.20312 30.6094 6.20312
Q37.7969 6.20312 41.9844 11.8594
Q46.1875 17.5312 46.1875 27.2969
Q46.1875 37.0156 41.9844 42.7031
Q37.7969 48.3906 30.6094 48.3906
M30.6094 56
Q42.3281 56 49.0156 48.375
Q55.7188 40.7656 55.7188 27.2969
Q55.7188 13.875 49.0156 6.21875
Q42.3281 -1.42188 30.6094 -1.42188
Q18.8438 -1.42188 12.1719 6.21875
Q5.51562 13.875 5.51562 27.2969
Q5.51562 40.7656 12.1719 48.375
Q18.8438 56 30.6094 56" id="BitstreamVeraSans-Roman-6f"/>
      <path d="
M9.42188 75.9844
L18.4062 75.9844
L18.4062 0
L9.42188 0
z
" id="BitstreamVeraSans-Roman-6c"/>
      <path d="
M2.98438 54.6875
L12.5 54.6875
L29.5938 8.79688
L46.6875 54.6875
L56.2031 54.6875
L35.6875 0
L23.4844 0
z
" id="BitstreamVeraSans-Roman-76"/>
      <path d="
M9.42188 54.6875
L18.4062 54.6875
L18.4062 0
L9.42188 0
z

M9.42188 75.9844
L18.4062 75.9844
L18.4062 64.5938
L9.42188 64.5938
z
" id="BitstreamVeraSans-Roman-69"/>
      <path d="
M4.89062 31.3906
L31.2031 31.3906
L31.2031 23.3906
L4.89062 23.3906
z
" id="BitstreamVeraSans-Roman-2d"/>
      <path d="
M25.3906 72.9062
L33.6875 72.9062
L8.29688 -9.28125
L0 -9.28125
z
" id="BitstreamVeraSans-Roman-2f"/>
      <path d="
M56.2031 29.5938
L56.2031 25.2031
L14.8906 25.2031
Q15.4844 15.9219 20.4844 11.0625
Q25.4844 6.20312 34.4219 6.20312
Q39.5938 6.20312 44.4531 7.46875
Q49.3125 8.73438 54.1094 11.2812
L54.1094 2.78125
Q49.2656 0.734375 44.1875 -0.34375
Q39.1094 -1.42188 33.8906 -1.42188
Q20.7969 -1.42188 13.1562 6.1875
Q5.51562 13.8125 5.51562 26.8125
Q5.51562 40.2344 12.7656 48.1094
Q20.0156 56 32.3281 56
Q43.3594 56 49.7812 48.8906
Q56.2031 41.7969 56.2031 29.5938
M47.2188 32.2344
Q47.125 39.5938 43.0938 43.9844
Q39.0625 48.3906 32.4219 48.3906
Q24.9062 48.3906 20.3906 44.1406
Q15.875 39.8906 15.1875 32.1719
z
" id="BitstreamVeraSans-Roman-65"/>
      <path d="
M45.4062 46.3906
L45.4062 75.9844
L54.3906 75.9844
L54.3906 0
L45.4062 0
L45.4062 8.20312
Q42.5781 3.32812 38.25 0.953125
Q33.9375 -1.42188 27.875 -1.42188
Q17.9688 -1.42188 11.7344 6.48438
Q5.51562 14.4062 5.51562 27.2969
Q5.51562 40.1875 11.7344 48.0938
Q17.9688 56 27.875 56
Q33.9375 56 38.25 53.625
Q42.5781 51.2656 45.4062 46.3906
M14.7969 27.2969
Q14.7969 17.3906 18.875 11.75
Q22.9531 6.10938 30.0781 6.10938
Q37.2031 6.10938 41.2969 11.75
Q45.4062 17.3906 45.4062 27.2969
Q45.4062 37.2031 41.2969 42.8438
Q37.2031 48.4844 30.0781 48.4844
Q22.9531 48.4844 18.875 42.8438
Q14.7969 37.2031 14.7969 27.2969" id="BitstreamVeraSans-Roman-64"/>
      <path d="
M45.4062 27.9844
Q45.4062 37.75 41.375 43.1094
Q37.3594 48.4844 30.0781 48.4844
Q22.8594 48.4844 18.8281 43.1094
Q14.7969 37.75 14.7969 27.9844
Q14.7969 18.2656 18.8281 12.8906
Q22.8594 7.51562 30.0781 7.51562
Q37.3594 7.51562 41.375 12.8906
Q45.4062 18.2656 45.4062 27.9844
M54.3906 6.78125
Q54.3906 -7.17188 48.1875 -13.9844
Q42 -20.7969 29.2031 -20.7969
Q24.4688 -20.7969 20.2656 -20.0938
Q16.0625 -19.3906 12.1094 -17.9219
L12.1094 -9.1875
Q16.0625 -11.3281 19.9219 -12.3438
Q23.7812 -13.375 27.7812 -13.375
Q36.625 -13.375 41.0156 -8.76562
Q45.4062 -4.15625 45.4062 5.17188
L45.4062 9.625
Q42.625 4.78125 38.2812 2.39062
Q33.9375 0 27.875 0
Q17.8281 0 11.6719 7.65625
Q5.51562 15.3281 5.51562 27.9844
Q5.51562 40.6719 11.6719 48.3281
Q17.8281 56 27.875 56
Q33.9375 56 38.2812 53.6094
Q42.625 51.2188 45.4062 46.3906
L45.4062 54.6875
L54.3906 54.6875
z
" id="BitstreamVeraSans-Roman-67"/>
      <path d="
M37.1094 75.9844
L37.1094 68.5
L28.5156 68.5
Q23.6875 68.5 21.7969 66.5469
Q19.9219 64.5938 19.9219 59.5156
L19.9219 54.6875
L34.7188 54.6875
L34.7188 47.7031
L19.9219 47.7031
L19.9219 0
L10.8906 0
L10.8906 47.7031
L2.29688 47.7031
L2.29688 54.6875
L10.8906 54.6875
L10.8906 58.5
Q10.8906 67.625 15.1406 71.7969
Q19.3906 75.9844 28.6094 75.9844
z
" id="BitstreamVeraSans-Roman-66"/>
      <path d="
M34.2812 27.4844
Q23.3906 27.4844 19.1875 25
Q14.9844 22.5156 14.9844 16.5
Q14.9844 11.7188 18.1406 8.90625
Q21.2969 6.10938 26.7031 6.10938
Q34.1875 6.10938 38.7031 11.4062
Q43.2188 16.7031 43.2188 25.4844
L43.2188 27.4844
z

M52.2031 31.2031
L52.2031 0
L43.2188 0
L43.2188 8.29688
Q40.1406 3.32812 35.5469 0.953125
Q30.9531 -1.42188 24.3125 -1.42188
Q15.9219 -1.42188 10.9531 3.29688
Q6 8.01562 6 15.9219
Q6 25.1406 12.1719 29.8281
Q18.3594 34.5156 30.6094 34.5156
L43.2188 34.5156
L43.2188 35.4062
Q43.2188 41.6094 39.1406 45
Q35.0625 48.3906 27.6875 48.3906
Q23 48.3906 18.5469 47.2656
Q14.1094 46.1406 10.0156 43.8906
L10.0156 52.2031
Q14.9375 54.1094 19.5781 55.0469
Q24.2188 56 28.6094 56
Q40.4844 56 46.3438 49.8438
Q52.2031 43.7031 52.2031 31.2031" id="BitstreamVeraSans-Roman-61"/>
      <path d="
M44.2812 53.0781
L44.2812 44.5781
Q40.4844 46.5312 36.375 47.5
Q32.2812 48.4844 27.875 48.4844
Q21.1875 48.4844 17.8438 46.4375
Q14.5 44.3906 14.5 40.2812
Q14.5 37.1562 16.8906 35.375
Q19.2812 33.5938 26.5156 31.9844
L29.5938 31.2969
Q39.1562 29.25 43.1875 25.5156
Q47.2188 21.7812 47.2188 15.0938
Q47.2188 7.46875 41.1875 3.01562
Q35.1562 -1.42188 24.6094 -1.42188
Q20.2188 -1.42188 15.4531 -0.5625
Q10.6875 0.296875 5.42188 2
L5.42188 11.2812
Q10.4062 8.6875 15.2344 7.39062
Q20.0625 6.10938 24.8125 6.10938
Q31.1562 6.10938 34.5625 8.28125
Q37.9844 10.4531 37.9844 14.4062
Q37.9844 18.0625 35.5156 20.0156
Q33.0625 21.9688 24.7031 23.7812
L21.5781 24.5156
Q13.2344 26.2656 9.51562 29.9062
Q5.8125 33.5469 5.8125 39.8906
Q5.8125 47.6094 11.2812 51.7969
Q16.75 56 26.8125 56
Q31.7812 56 36.1719 55.2656
Q40.5781 54.5469 44.2812 53.0781" id="BitstreamVeraSans-Roman-73"/>
      <path d="
M8.01562 75.875
L15.8281 75.875
Q23.1406 64.3594 26.7812 53.3125
Q30.4219 42.2812 30.4219 31.3906
Q30.4219 20.4531 26.7812 9.375
Q23.1406 -1.70312 15.8281 -13.1875
L8.01562 -13.1875
Q14.5 -2 17.7031 9.0625
Q20.9062 20.125 20.9062 31.3906
Q20.9062 42.6719 17.7031 53.6562
Q14.5 64.6562 8.01562 75.875" id="BitstreamVeraSans-Roman-29"/>
     </defs>
     <g transform="translate(167.3165625 401.089780322)scale(0.18 -0.18)">
      <use xlink:href="#BitstreamVeraSans-Roman-6c"/>
      <use x="27.783203125" xlink:href="#BitstreamVeraSans-Roman-6f"/>
      <use x="88.96484375" xlink:href="#BitstreamVeraSans-Roman-67"/>
      <use x="152.44140625" xlink:href="#BitstreamVeraSans-Roman-31"/>
      <use x="216.064453125" xlink:href="#BitstreamVeraSans-Roman-30"/>
      <use x="279.6875" xlink:href="#BitstreamVeraSans-Roman-20"/>
      <use x="311.474609375" xlink:href="#BitstreamVeraSans-Roman-6f"/>
      <use x="372.65625" xlink:href="#BitstreamVeraSans-Roman-66"/>
      <use x="407.861328125" xlink:href="#BitstreamVeraSans-Roman-20"/>
      <use x="439.6484375" xlink:href="#BitstreamVeraSans-Roman-28"/>
      <use x="478.662109375" xlink:href="#BitstreamVeraSans-Roman-23"/>
      <use x="562.451171875" xlink:href="#BitstreamVeraSans-Roman-20"/>
      <use x="594.23828125" xlink:href="#BitstreamVeraSans-Roman-66"/>
      <use x="623.943359375" xlink:href="#BitstreamVeraSans-Roman-2d"/>
      <use x="660.02734375" xlink:href="#BitstreamVeraSans-Roman-65"/>
      <use x="721.55078125" xlink:href="#BitstreamVeraSans-Roman-76"/>
      <use x="780.73046875" xlink:href="#BitstreamVeraSans-Roman-61"/>
      <use x="842.009765625" xlink:href="#BitstreamVeraSans-Roman-6c"/>
      <use x="869.79296875" xlink:href="#BitstreamVeraSans-Roman-73"/>
      <use x="921.892578125" xlink:href="#BitstreamVeraSans-Roman-20"/>
      <use x="953.6796875" xlink:href="#BitstreamVeraSans-Roman-2f"/>
      <use x="987.37109375" xlink:href="#BitstreamVeraSans-Roman-20"/>
      <use x="1019.15820312" xlink:href="#BitstreamVeraSans-Roman-64"/>
      <use x="1082.63476562" xlink:href="#BitstreamVeraSans-Roman-69"/>
      <use x="1110.41796875" xlink:href="#BitstreamVeraSans-Roman-6d"/>
      <use x="1207.83007812" xlink:href="#BitstreamVeraSans-Roman-65"/>
      <use x="1269.35351562" xlink:href="#BitstreamVeraSans-Roman-6e"/>
      <use x="1332.73242188" xlink:href="#BitstreamVeraSans-Roman-73"/>
      <use x="1384.83203125" xlink:href="#BitstreamVeraSans-Roman-69"/>
      <use x="1412.61523438" xlink:href="#BitstreamVeraSans-Roman-6f"/>
      <use x="1473.796875" xlink:href="#BitstreamVeraSans-Roman-6e"/>
      <use x="1537.17578125" xlink:href="#BitstreamVeraSans-Roman-29"/>
     </g>
    </g>
   </g>
   <g id="matplotlib.axis_2">
    <g id="ytick_1">
     <g id="line2d_123">
      <path clip-path="url(#p54ce849065)" d="
M85.2 359.056
L531.6 359.056" style="fill:none;stroke:#000000;stroke-dasharray:1.000000,3.000000;stroke-dashoffset:0.0;stroke-width:0.5;"/>
     </g>
     <g id="line2d_124">
      <defs>
       <path d="
M0 0
L4 0" id="m728421d6d4" style="stroke:#000000;stroke-width:0.5;"/>
      </defs>
      <g>
       <use style="stroke:#000000;stroke-width:0.5;" x="85.2" xlink:href="#m728421d6d4" y="359.056342822"/>
      </g>
     </g>
     <g id="line2d_125">
      <defs>
       <path d="
M0 0
L-4 0" id="mcb0005524f" style="stroke:#000000;stroke-width:0.5;"/>
      </defs>
      <g>
       <use style="stroke:#000000;stroke-width:0.5;" x="531.6" xlink:href="#mcb0005524f" y="359.056342822"/>
      </g>
     </g>
     <g id="text_11">
      <!-- 0.0 -->
      <defs>
       <path d="
M10.6875 12.4062
L21 12.4062
L21 0
L10.6875 0
z
" id="BitstreamVeraSans-Roman-2e"/>
      </defs>
      <g transform="translate(52.040625 364.575092822)scale(0.2 -0.2)">
       <use xlink:href="#BitstreamVeraSans-Roman-30"/>
       <use x="63.623046875" xlink:href="#BitstreamVeraSans-Roman-2e"/>
       <use x="95.41015625" xlink:href="#BitstreamVeraSans-Roman-30"/>
      </g>
     </g>
    </g>
    <g id="ytick_2">
     <g id="line2d_126">
      <path clip-path="url(#p54ce849065)" d="
M85.2 290.621
L531.6 290.621" style="fill:none;stroke:#000000;stroke-dasharray:1.000000,3.000000;stroke-dashoffset:0.0;stroke-width:0.5;"/>
     </g>
     <g id="line2d_127">
      <g>
       <use style="stroke:#000000;stroke-width:0.5;" x="85.2" xlink:href="#m728421d6d4" y="290.620699257"/>
      </g>
     </g>
     <g id="line2d_128">
      <g>
       <use style="stroke:#000000;stroke-width:0.5;" x="531.6" xlink:href="#mcb0005524f" y="290.620699257"/>
      </g>
     </g>
     <g id="text_12">
      <!-- 0.2 -->
      <g transform="translate(52.715625 296.139449257)scale(0.2 -0.2)">
       <use xlink:href="#BitstreamVeraSans-Roman-30"/>
       <use x="63.623046875" xlink:href="#BitstreamVeraSans-Roman-2e"/>
       <use x="95.41015625" xlink:href="#BitstreamVeraSans-Roman-32"/>
      </g>
     </g>
    </g>
    <g id="ytick_3">
     <g id="line2d_129">
      <path clip-path="url(#p54ce849065)" d="
M85.2 222.185
L531.6 222.185" style="fill:none;stroke:#000000;stroke-dasharray:1.000000,3.000000;stroke-dashoffset:0.0;stroke-width:0.5;"/>
     </g>
     <g id="line2d_130">
      <g>
       <use style="stroke:#000000;stroke-width:0.5;" x="85.2" xlink:href="#m728421d6d4" y="222.185055693"/>
      </g>
     </g>
     <g id="line2d_131">
      <g>
       <use style="stroke:#000000;stroke-width:0.5;" x="531.6" xlink:href="#mcb0005524f" y="222.185055693"/>
      </g>
     </g>
     <g id="text_13">
      <!-- 0.4 -->
      <g transform="translate(51.834375 227.703805693)scale(0.2 -0.2)">
       <use xlink:href="#BitstreamVeraSans-Roman-30"/>
       <use x="63.623046875" xlink:href="#BitstreamVeraSans-Roman-2e"/>
       <use x="95.41015625" xlink:href="#BitstreamVeraSans-Roman-34"/>
      </g>
     </g>
    </g>
    <g id="ytick_4">
     <g id="line2d_132">
      <path clip-path="url(#p54ce849065)" d="
M85.2 153.749
L531.6 153.749" style="fill:none;stroke:#000000;stroke-dasharray:1.000000,3.000000;stroke-dashoffset:0.0;stroke-width:0.5;"/>
     </g>
     <g id="line2d_133">
      <g>
       <use style="stroke:#000000;stroke-width:0.5;" x="85.2" xlink:href="#m728421d6d4" y="153.749412129"/>
      </g>
     </g>
     <g id="line2d_134">
      <g>
       <use style="stroke:#000000;stroke-width:0.5;" x="531.6" xlink:href="#mcb0005524f" y="153.749412129"/>
      </g>
     </g>
     <g id="text_14">
      <!-- 0.6 -->
      <g transform="translate(51.971875 159.268162129)scale(0.2 -0.2)">
       <use xlink:href="#BitstreamVeraSans-Roman-30"/>
       <use x="63.623046875" xlink:href="#BitstreamVeraSans-Roman-2e"/>
       <use x="95.41015625" xlink:href="#BitstreamVeraSans-Roman-36"/>
      </g>
     </g>
    </g>
    <g id="ytick_5">
     <g id="line2d_135">
      <path clip-path="url(#p54ce849065)" d="
M85.2 85.3138
L531.6 85.3138" style="fill:none;stroke:#000000;stroke-dasharray:1.000000,3.000000;stroke-dashoffset:0.0;stroke-width:0.5;"/>
     </g>
     <g id="line2d_136">
      <g>
       <use style="stroke:#000000;stroke-width:0.5;" x="85.2" xlink:href="#m728421d6d4" y="85.3137685644"/>
      </g>
     </g>
     <g id="line2d_137">
      <g>
       <use style="stroke:#000000;stroke-width:0.5;" x="531.6" xlink:href="#mcb0005524f" y="85.3137685644"/>
      </g>
     </g>
     <g id="text_15">
      <!-- 0.8 -->
      <g transform="translate(52.08125 90.8325185644)scale(0.2 -0.2)">
       <use xlink:href="#BitstreamVeraSans-Roman-30"/>
       <use x="63.623046875" xlink:href="#BitstreamVeraSans-Roman-2e"/>
       <use x="95.41015625" xlink:href="#BitstreamVeraSans-Roman-38"/>
      </g>
     </g>
    </g>
    <g id="ytick_6">
     <g id="line2d_138">
      <path clip-path="url(#p54ce849065)" d="
M85.2 16.8781
L531.6 16.8781" style="fill:none;stroke:#000000;stroke-dasharray:1.000000,3.000000;stroke-dashoffset:0.0;stroke-width:0.5;"/>
     </g>
     <g id="line2d_139">
      <g>
       <use style="stroke:#000000;stroke-width:0.5;" x="85.2" xlink:href="#m728421d6d4" y="16.878125"/>
      </g>
     </g>
     <g id="line2d_140">
      <g>
       <use style="stroke:#000000;stroke-width:0.5;" x="531.6" xlink:href="#mcb0005524f" y="16.878125"/>
      </g>
     </g>
     <g id="text_16">
      <!-- 1.0 -->
      <g transform="translate(52.91875 22.396875)scale(0.2 -0.2)">
       <use xlink:href="#BitstreamVeraSans-Roman-31"/>
       <use x="63.623046875" xlink:href="#BitstreamVeraSans-Roman-2e"/>
       <use x="95.41015625" xlink:href="#BitstreamVeraSans-Roman-30"/>
      </g>
     </g>
    </g>
    <g id="text_17">
     <!-- Proportion of function+target pairs -->
     <defs>
      <path d="
M19.6719 64.7969
L19.6719 37.4062
L32.0781 37.4062
Q38.9688 37.4062 42.7188 40.9688
Q46.4844 44.5312 46.4844 51.125
Q46.4844 57.6719 42.7188 61.2344
Q38.9688 64.7969 32.0781 64.7969
z

M9.8125 72.9062
L32.0781 72.9062
Q44.3438 72.9062 50.6094 67.3594
Q56.8906 61.8125 56.8906 51.125
Q56.8906 40.3281 50.6094 34.8125
Q44.3438 29.2969 32.0781 29.2969
L19.6719 29.2969
L19.6719 0
L9.8125 0
z
" id="BitstreamVeraSans-Roman-50"/>
      <path d="
M46 62.7031
L46 35.5
L73.1875 35.5
L73.1875 27.2031
L46 27.2031
L46 0
L37.7969 0
L37.7969 27.2031
L10.5938 27.2031
L10.5938 35.5
L37.7969 35.5
L37.7969 62.7031
z
" id="BitstreamVeraSans-Roman-2b"/>
      <path d="
M18.1094 8.20312
L18.1094 -20.7969
L9.07812 -20.7969
L9.07812 54.6875
L18.1094 54.6875
L18.1094 46.3906
Q20.9531 51.2656 25.2656 53.625
Q29.5938 56 35.5938 56
Q45.5625 56 51.7812 48.0938
Q58.0156 40.1875 58.0156 27.2969
Q58.0156 14.4062 51.7812 6.48438
Q45.5625 -1.42188 35.5938 -1.42188
Q29.5938 -1.42188 25.2656 0.953125
Q20.9531 3.32812 18.1094 8.20312
M48.6875 27.2969
Q48.6875 37.2031 44.6094 42.8438
Q40.5312 48.4844 33.4062 48.4844
Q26.2656 48.4844 22.1875 42.8438
Q18.1094 37.2031 18.1094 27.2969
Q18.1094 17.3906 22.1875 11.75
Q26.2656 6.10938 33.4062 6.10938
Q40.5312 6.10938 44.6094 11.75
Q48.6875 17.3906 48.6875 27.2969" id="BitstreamVeraSans-Roman-70"/>
      <path d="
M18.3125 70.2188
L18.3125 54.6875
L36.8125 54.6875
L36.8125 47.7031
L18.3125 47.7031
L18.3125 18.0156
Q18.3125 11.3281 20.1406 9.42188
Q21.9688 7.51562 27.5938 7.51562
L36.8125 7.51562
L36.8125 0
L27.5938 0
Q17.1875 0 13.2344 3.875
Q9.28125 7.76562 9.28125 18.0156
L9.28125 47.7031
L2.6875 47.7031
L2.6875 54.6875
L9.28125 54.6875
L9.28125 70.2188
z
" id="BitstreamVeraSans-Roman-74"/>
      <path d="
M8.5 21.5781
L8.5 54.6875
L17.4844 54.6875
L17.4844 21.9219
Q17.4844 14.1562 20.5 10.2656
Q23.5312 6.39062 29.5938 6.39062
Q36.8594 6.39062 41.0781 11.0312
Q45.3125 15.6719 45.3125 23.6875
L45.3125 54.6875
L54.2969 54.6875
L54.2969 0
L45.3125 0
L45.3125 8.40625
Q42.0469 3.42188 37.7188 1
Q33.4062 -1.42188 27.6875 -1.42188
Q18.2656 -1.42188 13.375 4.4375
Q8.5 10.2969 8.5 21.5781" id="BitstreamVeraSans-Roman-75"/>
      <path d="
M41.1094 46.2969
Q39.5938 47.1719 37.8125 47.5781
Q36.0312 48 33.8906 48
Q26.2656 48 22.1875 43.0469
Q18.1094 38.0938 18.1094 28.8125
L18.1094 0
L9.07812 0
L9.07812 54.6875
L18.1094 54.6875
L18.1094 46.1875
Q20.9531 51.1719 25.4844 53.5781
Q30.0312 56 36.5312 56
Q37.4531 56 38.5781 55.875
Q39.7031 55.7656 41.0625 55.5156
z
" id="BitstreamVeraSans-Roman-72"/>
      <path d="
M48.7812 52.5938
L48.7812 44.1875
Q44.9688 46.2969 41.1406 47.3438
Q37.3125 48.3906 33.4062 48.3906
Q24.6562 48.3906 19.8125 42.8438
Q14.9844 37.3125 14.9844 27.2969
Q14.9844 17.2812 19.8125 11.7344
Q24.6562 6.20312 33.4062 6.20312
Q37.3125 6.20312 41.1406 7.25
Q44.9688 8.29688 48.7812 10.4062
L48.7812 2.09375
Q45.0156 0.34375 40.9844 -0.53125
Q36.9688 -1.42188 32.4219 -1.42188
Q20.0625 -1.42188 12.7812 6.34375
Q5.51562 14.1094 5.51562 27.2969
Q5.51562 40.6719 12.8594 48.3281
Q20.2188 56 33.0156 56
Q37.1562 56 41.1094 55.1406
Q45.0625 54.2969 48.7812 52.5938" id="BitstreamVeraSans-Roman-63"/>
     </defs>
     <g transform="translate(43.0909375 343.295092822)rotate(-90.0)scale(0.18 -0.18)">
      <use xlink:href="#BitstreamVeraSans-Roman-50"/>
      <use x="58.552734375" xlink:href="#BitstreamVeraSans-Roman-72"/>
      <use x="97.416015625" xlink:href="#BitstreamVeraSans-Roman-6f"/>
      <use x="158.59765625" xlink:href="#BitstreamVeraSans-Roman-70"/>
      <use x="222.07421875" xlink:href="#BitstreamVeraSans-Roman-6f"/>
      <use x="283.255859375" xlink:href="#BitstreamVeraSans-Roman-72"/>
      <use x="324.369140625" xlink:href="#BitstreamVeraSans-Roman-74"/>
      <use x="363.578125" xlink:href="#BitstreamVeraSans-Roman-69"/>
      <use x="391.361328125" xlink:href="#BitstreamVeraSans-Roman-6f"/>
      <use x="452.54296875" xlink:href="#BitstreamVeraSans-Roman-6e"/>
      <use x="515.921875" xlink:href="#BitstreamVeraSans-Roman-20"/>
      <use x="547.708984375" xlink:href="#BitstreamVeraSans-Roman-6f"/>
      <use x="608.890625" xlink:href="#BitstreamVeraSans-Roman-66"/>
      <use x="644.095703125" xlink:href="#BitstreamVeraSans-Roman-20"/>
      <use x="675.8828125" xlink:href="#BitstreamVeraSans-Roman-66"/>
      <use x="711.087890625" xlink:href="#BitstreamVeraSans-Roman-75"/>
      <use x="774.466796875" xlink:href="#BitstreamVeraSans-Roman-6e"/>
      <use x="837.845703125" xlink:href="#BitstreamVeraSans-Roman-63"/>
      <use x="892.826171875" xlink:href="#BitstreamVeraSans-Roman-74"/>
      <use x="932.03515625" xlink:href="#BitstreamVeraSans-Roman-69"/>
      <use x="959.818359375" xlink:href="#BitstreamVeraSans-Roman-6f"/>
      <use x="1021.0" xlink:href="#BitstreamVeraSans-Roman-6e"/>
      <use x="1084.37890625" xlink:href="#BitstreamVeraSans-Roman-2b"/>
      <use x="1168.16796875" xlink:href="#BitstreamVeraSans-Roman-74"/>
      <use x="1207.37695312" xlink:href="#BitstreamVeraSans-Roman-61"/>
      <use x="1268.65625" xlink:href="#BitstreamVeraSans-Roman-72"/>
      <use x="1308.01953125" xlink:href="#BitstreamVeraSans-Roman-67"/>
      <use x="1371.49609375" xlink:href="#BitstreamVeraSans-Roman-65"/>
      <use x="1433.01953125" xlink:href="#BitstreamVeraSans-Roman-74"/>
      <use x="1472.22851562" xlink:href="#BitstreamVeraSans-Roman-20"/>
      <use x="1504.015625" xlink:href="#BitstreamVeraSans-Roman-70"/>
      <use x="1567.4921875" xlink:href="#BitstreamVeraSans-Roman-61"/>
      <use x="1628.77148438" xlink:href="#BitstreamVeraSans-Roman-69"/>
      <use x="1656.5546875" xlink:href="#BitstreamVeraSans-Roman-72"/>
      <use x="1697.66796875" xlink:href="#BitstreamVeraSans-Roman-73"/>
     </g>
    </g>
   </g>
   <g id="text_18">
    <!-- f4 -->
    <g transform="translate(492.0 356.351840965)scale(0.15 -0.15)">
     <use xlink:href="#BitstreamVeraSans-Roman-66"/>
     <use x="35.205078125" xlink:href="#BitstreamVeraSans-Roman-34"/>
    </g>
   </g>
   <g id="text_19">
    <!-- f3 -->
    <g transform="translate(492.0 274.229068688)scale(0.15 -0.15)">
     <use xlink:href="#BitstreamVeraSans-Roman-66"/>
     <use x="35.205078125" xlink:href="#BitstreamVeraSans-Roman-33"/>
    </g>
   </g>
   <g id="text_20">
    <!-- f2 -->
    <g transform="translate(492.0 192.106296411)scale(0.15 -0.15)">
     <use xlink:href="#BitstreamVeraSans-Roman-66"/>
     <use x="35.205078125" xlink:href="#BitstreamVeraSans-Roman-32"/>
    </g>
   </g>
   <g id="text_21">
    <!-- f1 -->
    <g transform="translate(492.0 109.983524134)scale(0.15 -0.15)">
     <use xlink:href="#BitstreamVeraSans-Roman-66"/>
     <use x="35.205078125" xlink:href="#BitstreamVeraSans-Roman-31"/>
    </g>
   </g>
   <g id="text_22">
    <!-- f5 -->
    <g transform="translate(492.0 27.8607518564)scale(0.15 -0.15)">
     <use xlink:href="#BitstreamVeraSans-Roman-66"/>
     <use x="35.205078125" xlink:href="#BitstreamVeraSans-Roman-35"/>
    </g>
   </g>
   <g id="text_23">
    <!-- bbob -->
    <defs>
     <path d="
M48.6875 27.2969
Q48.6875 37.2031 44.6094 42.8438
Q40.5312 48.4844 33.4062 48.4844
Q26.2656 48.4844 22.1875 42.8438
Q18.1094 37.2031 18.1094 27.2969
Q18.1094 17.3906 22.1875 11.75
Q26.2656 6.10938 33.4062 6.10938
Q40.5312 6.10938 44.6094 11.75
Q48.6875 17.3906 48.6875 27.2969
M18.1094 46.3906
Q20.9531 51.2656 25.2656 53.625
Q29.5938 56 35.5938 56
Q45.5625 56 51.7812 48.0938
Q58.0156 40.1875 58.0156 27.2969
Q58.0156 14.4062 51.7812 6.48438
Q45.5625 -1.42188 35.5938 -1.42188
Q29.5938 -1.42188 25.2656 0.953125
Q20.9531 3.32812 18.1094 8.20312
L18.1094 0
L9.07812 0
L9.07812 75.9844
L18.1094 75.9844
z
" id="BitstreamVeraSans-Roman-62"/>
    </defs>
    <g transform="translate(89.664 33.0273396968)scale(0.1666 -0.1666)">
     <use xlink:href="#BitstreamVeraSans-Roman-62"/>
     <use x="63.4765625" xlink:href="#BitstreamVeraSans-Roman-62"/>
     <use x="126.953125" xlink:href="#BitstreamVeraSans-Roman-6f"/>
     <use x="188.134765625" xlink:href="#BitstreamVeraSans-Roman-62"/>
    </g>
    <!-- Separable functions, 3-D -->
    <defs>
     <path d="
M19.6719 64.7969
L19.6719 8.10938
L31.5938 8.10938
Q46.6875 8.10938 53.6875 14.9375
Q60.6875 21.7812 60.6875 36.5312
Q60.6875 51.1719 53.6875 57.9844
Q46.6875 64.7969 31.5938 64.7969
z

M9.8125 72.9062
L30.0781 72.9062
Q51.2656 72.9062 61.1719 64.0938
Q71.0938 55.2812 71.0938 36.5312
Q71.0938 17.6719 61.125 8.82812
Q51.1719 0 30.0781 0
L9.8125 0
z
" id="BitstreamVeraSans-Roman-44"/>
     <path d="
M11.7188 12.4062
L22.0156 12.4062
L22.0156 4
L14.0156 -11.625
L7.71875 -11.625
L11.7188 4
z
" id="BitstreamVeraSans-Roman-2c"/>
     <path d="
M53.5156 70.5156
L53.5156 60.8906
Q47.9062 63.5781 42.9219 64.8906
Q37.9375 66.2188 33.2969 66.2188
Q25.25 66.2188 20.875 63.0938
Q16.5 59.9688 16.5 54.2031
Q16.5 49.3594 19.4062 46.8906
Q22.3125 44.4375 30.4219 42.9219
L36.375 41.7031
Q47.4062 39.5938 52.6562 34.2969
Q57.9062 29 57.9062 20.125
Q57.9062 9.51562 50.7969 4.04688
Q43.7031 -1.42188 29.9844 -1.42188
Q24.8125 -1.42188 18.9688 -0.25
Q13.1406 0.921875 6.89062 3.21875
L6.89062 13.375
Q12.8906 10.0156 18.6562 8.29688
Q24.4219 6.59375 29.9844 6.59375
Q38.4219 6.59375 43.0156 9.90625
Q47.6094 13.2344 47.6094 19.3906
Q47.6094 24.75 44.3125 27.7812
Q41.0156 30.8125 33.5 32.3281
L27.4844 33.5
Q16.4531 35.6875 11.5156 40.375
Q6.59375 45.0625 6.59375 53.4219
Q6.59375 63.0938 13.4062 68.6562
Q20.2188 74.2188 32.1719 74.2188
Q37.3125 74.2188 42.625 73.2812
Q47.9531 72.3594 53.5156 70.5156" id="BitstreamVeraSans-Roman-53"/>
    </defs>
    <g transform="translate(89.664 51.6828953218)scale(0.1666 -0.1666)">
     <use xlink:href="#BitstreamVeraSans-Roman-53"/>
     <use x="63.4765625" xlink:href="#BitstreamVeraSans-Roman-65"/>
     <use x="125.0" xlink:href="#BitstreamVeraSans-Roman-70"/>
     <use x="188.4765625" xlink:href="#BitstreamVeraSans-Roman-61"/>
     <use x="249.755859375" xlink:href="#BitstreamVeraSans-Roman-72"/>
     <use x="290.869140625" xlink:href="#BitstreamVeraSans-Roman-61"/>
     <use x="352.1484375" xlink:href="#BitstreamVeraSans-Roman-62"/>
     <use x="415.625" xlink:href="#BitstreamVeraSans-Roman-6c"/>
     <use x="443.408203125" xlink:href="#BitstreamVeraSans-Roman-65"/>
     <use x="504.931640625" xlink:href="#BitstreamVeraSans-Roman-20"/>
     <use x="536.71875" xlink:href="#BitstreamVeraSans-Roman-66"/>
     <use x="571.923828125" xlink:href="#BitstreamVeraSans-Roman-75"/>
     <use x="635.302734375" xlink:href="#BitstreamVeraSans-Roman-6e"/>
     <use x="698.681640625" xlink:href="#BitstreamVeraSans-Roman-63"/>
     <use x="753.662109375" xlink:href="#BitstreamVeraSans-Roman-74"/>
     <use x="792.87109375" xlink:href="#BitstreamVeraSans-Roman-69"/>
     <use x="820.654296875" xlink:href="#BitstreamVeraSans-Roman-6f"/>
     <use x="881.8359375" xlink:href="#BitstreamVeraSans-Roman-6e"/>
     <use x="945.21484375" xlink:href="#BitstreamVeraSans-Roman-73"/>
     <use x="997.314453125" xlink:href="#BitstreamVeraSans-Roman-2c"/>
     <use x="1029.1015625" xlink:href="#BitstreamVeraSans-Roman-20"/>
     <use x="1060.88867188" xlink:href="#BitstreamVeraSans-Roman-33"/>
     <use x="1124.51171875" xlink:href="#BitstreamVeraSans-Roman-2d"/>
     <use x="1160.59570312" xlink:href="#BitstreamVeraSans-Roman-44"/>
    </g>
    <!-- 51 targets in 100..1e-08 -->
    <g transform="translate(89.664 70.3384509468)scale(0.1666 -0.1666)">
     <use xlink:href="#BitstreamVeraSans-Roman-35"/>
     <use x="63.623046875" xlink:href="#BitstreamVeraSans-Roman-31"/>
     <use x="127.24609375" xlink:href="#BitstreamVeraSans-Roman-20"/>
     <use x="159.033203125" xlink:href="#BitstreamVeraSans-Roman-74"/>
     <use x="198.2421875" xlink:href="#BitstreamVeraSans-Roman-61"/>
     <use x="259.521484375" xlink:href="#BitstreamVeraSans-Roman-72"/>
     <use x="298.884765625" xlink:href="#BitstreamVeraSans-Roman-67"/>
     <use x="362.361328125" xlink:href="#BitstreamVeraSans-Roman-65"/>
     <use x="423.884765625" xlink:href="#BitstreamVeraSans-Roman-74"/>
     <use x="463.09375" xlink:href="#BitstreamVeraSans-Roman-73"/>
     <use x="515.193359375" xlink:href="#BitstreamVeraSans-Roman-20"/>
     <use x="546.98046875" xlink:href="#BitstreamVeraSans-Roman-69"/>
     <use x="574.763671875" xlink:href="#BitstreamVeraSans-Roman-6e"/>
     <use x="638.142578125" xlink:href="#BitstreamVeraSans-Roman-20"/>
     <use x="669.9296875" xlink:href="#BitstreamVeraSans-Roman-31"/>
     <use x="733.552734375" xlink:href="#BitstreamVeraSans-Roman-30"/>
     <use x="797.17578125" xlink:href="#BitstreamVeraSans-Roman-30"/>
     <use x="860.798828125" xlink:href="#BitstreamVeraSans-Roman-2e"/>
     <use x="892.5859375" xlink:href="#BitstreamVeraSans-Roman-2e"/>
     <use x="924.373046875" xlink:href="#BitstreamVeraSans-Roman-31"/>
     <use x="987.99609375" xlink:href="#BitstreamVeraSans-Roman-65"/>
     <use x="1049.51953125" xlink:href="#BitstreamVeraSans-Roman-2d"/>
     <use x="1085.60351562" xlink:href="#BitstreamVeraSans-Roman-30"/>
     <use x="1149.2265625" xlink:href="#BitstreamVeraSans-Roman-38"/>
    </g>
    <!-- 15 instances -->
    <g transform="translate(89.664 88.9940065718)scale(0.1666 -0.1666)">
     <use xlink:href="#BitstreamVeraSans-Roman-31"/>
     <use x="63.623046875" xlink:href="#BitstreamVeraSans-Roman-35"/>
     <use x="127.24609375" xlink:href="#BitstreamVeraSans-Roman-20"/>
     <use x="159.033203125" xlink:href="#BitstreamVeraSans-Roman-69"/>
     <use x="186.81640625" xlink:href="#BitstreamVeraSans-Roman-6e"/>
     <use x="250.1953125" xlink:href="#BitstreamVeraSans-Roman-73"/>
     <use x="302.294921875" xlink:href="#BitstreamVeraSans-Roman-74"/>
     <use x="341.50390625" xlink:href="#BitstreamVeraSans-Roman-61"/>
     <use x="402.783203125" xlink:href="#BitstreamVeraSans-Roman-6e"/>
     <use x="466.162109375" xlink:href="#BitstreamVeraSans-Roman-63"/>
     <use x="521.142578125" xlink:href="#BitstreamVeraSans-Roman-65"/>
     <use x="582.666015625" xlink:href="#BitstreamVeraSans-Roman-73"/>
    </g>
   </g>
   <g id="text_24">
    <!-- 1.2.1 -->
    <g style="fill:#808080;" transform="translate(296.6890625 353.520655322)scale(0.1 -0.1)">
     <use xlink:href="#BitstreamVeraSans-Roman-31"/>
     <use x="63.623046875" xlink:href="#BitstreamVeraSans-Roman-2e"/>
     <use x="95.41015625" xlink:href="#BitstreamVeraSans-Roman-32"/>
     <use x="159.033203125" xlink:href="#BitstreamVeraSans-Roman-2e"/>
     <use x="190.8203125" xlink:href="#BitstreamVeraSans-Roman-31"/>
    </g>
   </g>
  </g>
 </g>
 <defs>
  <clipPath id="p54ce849065">
   <rect height="345.6" width="446.4" x="85.2" y="13.4563428218"/>
  </clipPath>
 </defs>
</svg>
