<?xml version="1.0" encoding="utf-8" standalone="no"?>
<!DOCTYPE svg PUBLIC "-//W3C//DTD SVG 1.1//EN"
  "http://www.w3.org/Graphics/SVG/1.1/DTD/svg11.dtd">
<!-- Created with matplotlib (http://matplotlib.org/) -->
<svg height="413pt" version="1.1" viewBox="0 0 520 413" width="520pt" xmlns="http://www.w3.org/2000/svg" xmlns:xlink="http://www.w3.org/1999/xlink">
 <defs>
  <style type="text/css">
*{stroke-linecap:butt;stroke-linejoin:round;stroke-miterlimit:100000;}
  </style>
 </defs>
 <g id="figure_1">
  <g id="patch_1">
   <path d="M 0 413.968843 
L 520.9625 413.968843 
L 520.9625 0 
L 0 0 
z
" style="fill:#ffffff;"/>
  </g>
  <g id="axes_1">
   <g id="patch_2">
    <path d="M 67.3625 359.056343 
L 513.7625 359.056343 
L 513.7625 13.456343 
L 67.3625 13.456343 
z
" style="fill:#ffffff;"/>
   </g>
   <g id="line2d_1"/>
   <g id="line2d_2">
    <path clip-path="url(#pe518cbe7f4)" d="M 467.635021 359.056343 
L 467.635021 345.369214 
L 472.806335 345.369214 
L 472.806335 331.682085 
L 472.806335 331.682085 
L 472.806335 331.682085 
L 513.7625 331.682085 
" style="fill:none;stroke:#f5deb3;stroke-linecap:square;"/>
   </g>
   <g id="line2d_3"/>
   <g id="line2d_4"/>
   <g id="line2d_5"/>
   <g id="line2d_6"/>
   <g id="line2d_7">
    <path clip-path="url(#pe518cbe7f4)" d="M 422.795509 359.056343 
L 422.795509 354.493967 
L 453.609013 354.493967 
L 453.609013 349.93159 
L 461.167109 349.93159 
L 461.167109 345.369214 
L 461.818548 345.369214 
L 461.818548 340.806838 
L 462.685288 340.806838 
L 462.685288 336.244462 
L 468.386842 336.244462 
L 468.386842 331.682085 
L 468.658079 331.682085 
L 468.658079 327.119709 
L 471.533745 327.119709 
L 471.533745 322.557333 
L 478.70801 322.557333 
L 478.70801 317.994957 
L 485.252337 317.994957 
L 485.252337 313.43258 
L 485.727493 313.43258 
L 485.727493 308.870204 
L 487.381114 308.870204 
L 487.381114 304.307828 
L 500.423205 304.307828 
L 500.423205 299.745452 
L 506.312508 299.745452 
L 506.312508 295.183075 
L 510.156114 295.183075 
L 510.156114 290.620699 
L 514.784156 290.620699 
L 514.784156 286.058323 
L 516.960643 286.058323 
L 516.960643 281.495947 
L 518.674283 281.495947 
L 518.674283 276.933571 
L 521.9625 276.933571 
L 521.9625 276.933571 
" style="fill:none;stroke:#f5deb3;stroke-linecap:square;"/>
   </g>
   <g id="line2d_8">
    <path clip-path="url(#pe518cbe7f4)" d="M 445.417635 359.056343 
L 445.417635 354.493967 
L 447.188539 354.493967 
L 447.188539 349.93159 
L 447.732641 349.93159 
L 447.732641 345.369214 
L 447.959351 345.369214 
L 447.959351 340.806838 
L 448.608889 340.806838 
L 448.608889 336.244462 
L 448.628098 336.244462 
L 448.628098 331.682085 
L 467.08211 331.682085 
L 467.08211 327.119709 
L 468.186596 327.119709 
L 468.186596 322.557333 
L 468.969108 322.557333 
L 468.969108 317.994957 
L 469.062839 317.994957 
L 469.062839 313.43258 
L 469.618392 313.43258 
L 469.618392 308.870204 
L 470.145669 308.870204 
L 470.145669 304.307828 
L 470.153268 304.307828 
L 470.153268 299.745452 
L 470.616074 299.745452 
L 470.616074 295.183075 
L 470.637201 295.183075 
L 470.637201 290.620699 
L 471.014256 290.620699 
L 471.014256 286.058323 
L 472.94327 286.058323 
L 472.94327 281.495947 
L 519.305565 281.495947 
L 519.305565 276.933571 
L 520.008833 276.933571 
L 520.008833 272.371194 
L 520.008833 272.371194 
" style="fill:none;stroke:#f5deb3;stroke-linecap:square;"/>
   </g>
   <g id="line2d_9">
    <path clip-path="url(#pe518cbe7f4)" d="M 296.561021 359.056343 
L 296.561021 354.493967 
L 345.529461 354.493967 
L 345.529461 349.93159 
L 346.272516 349.93159 
L 346.272516 345.369214 
L 347.189919 345.369214 
L 347.189919 340.806838 
L 351.087326 340.806838 
L 351.087326 336.244462 
L 356.345783 336.244462 
L 356.345783 331.682085 
L 356.955588 331.682085 
L 356.955588 327.119709 
L 357.161767 327.119709 
L 357.161767 322.557333 
L 358.277693 322.557333 
L 358.291989 313.43258 
L 358.619433 313.43258 
L 358.619433 308.870204 
L 359.028627 308.870204 
L 359.028627 304.307828 
L 368.317786 304.307828 
L 368.317786 299.745452 
L 374.716914 299.745452 
L 374.716914 295.183075 
L 375.708039 295.183075 
L 375.708039 290.620699 
L 376.863147 290.620699 
L 376.863147 286.058323 
L 377.795693 286.058323 
L 377.795693 281.495947 
L 379.227197 281.495947 
L 379.295982 272.371194 
L 385.160179 272.371194 
L 385.160179 267.808818 
L 386.483914 267.808818 
L 386.483914 263.246442 
L 387.566614 263.246442 
L 387.566614 258.684066 
L 387.878285 258.684066 
L 387.878285 254.121689 
L 388.222232 254.121689 
L 388.222232 249.559313 
L 388.384522 249.559313 
L 388.487778 240.434561 
L 388.628478 240.434561 
L 388.628478 235.872184 
L 388.93226 235.872184 
L 388.93226 231.309808 
L 390.204715 231.309808 
L 390.204715 226.747432 
L 390.329828 226.747432 
L 390.329828 222.185056 
L 390.552773 222.185056 
L 390.552773 217.622679 
L 391.108146 217.622679 
L 391.108146 213.060303 
L 391.925854 213.060303 
L 391.925854 208.497927 
L 393.132025 208.497927 
L 393.184209 199.373175 
L 393.750895 199.373175 
L 393.750895 194.810798 
L 394.96734 194.810798 
L 395.075902 185.686046 
L 399.906705 185.686046 
L 399.906705 181.12367 
L 406.933298 181.12367 
L 406.933298 176.561293 
L 407.268275 176.561293 
L 407.316218 167.436541 
L 408.718696 167.436541 
L 408.718696 162.874165 
L 413.668351 162.874165 
L 413.668351 158.311788 
L 415.915747 158.311788 
L 415.915747 153.749412 
L 417.233031 153.749412 
L 417.233031 149.187036 
L 420.017592 149.187036 
L 420.017592 144.62466 
L 420.593077 144.62466 
L 420.593077 140.062283 
L 421.823304 140.062283 
L 421.823304 135.499907 
L 422.759574 135.499907 
L 422.759574 130.937531 
L 422.985145 130.937531 
L 422.985145 126.375155 
L 428.850911 126.375155 
L 428.850911 121.812778 
L 430.918925 121.812778 
L 430.953327 112.688026 
L 431.561656 112.688026 
L 431.561656 108.12565 
L 432.005804 108.12565 
L 432.005804 103.563274 
L 432.187377 103.563274 
L 432.187377 99.000897 
L 434.843834 99.000897 
L 434.843834 94.438521 
L 437.656038 94.438521 
L 437.656038 89.876145 
L 437.896493 89.876145 
L 437.896493 85.313769 
L 441.441907 85.313769 
L 441.441907 80.751392 
L 444.330919 80.751392 
L 444.330919 76.189016 
L 447.6991 76.189016 
L 447.6991 71.62664 
L 448.433193 71.62664 
L 448.433193 67.064264 
L 466.240687 67.064264 
L 466.240687 62.501887 
L 473.871505 62.501887 
L 473.871505 57.939511 
L 474.034793 57.939511 
L 474.034793 53.377135 
L 477.881518 53.377135 
L 477.881518 48.814759 
L 488.740718 48.814759 
L 488.740718 44.252382 
L 490.672066 44.252382 
L 490.672066 39.690006 
L 496.184233 39.690006 
L 496.184233 35.12763 
L 502.307231 35.12763 
L 502.307231 30.565254 
L 504.335439 30.565254 
L 504.446453 21.440501 
L 520.63079 21.440501 
L 520.63079 16.878125 
L 520.63079 16.878125 
" style="fill:none;stroke:#f5deb3;stroke-linecap:square;"/>
   </g>
   <g id="line2d_10"/>
   <g id="line2d_11">
    <path clip-path="url(#pe518cbe7f4)" d="M 489.27178 359.056343 
L 489.27178 354.493967 
L 521.9625 354.493967 
" style="fill:none;stroke:#f5deb3;stroke-linecap:square;"/>
   </g>
   <g id="line2d_12"/>
   <g id="line2d_13"/>
   <g id="line2d_14"/>
   <g id="line2d_15"/>
   <g id="line2d_16"/>
   <g id="line2d_17">
    <path clip-path="url(#pe518cbe7f4)" d="M 437.40262 359.056343 
L 437.40262 354.493967 
L 440.194594 354.493967 
L 440.194594 349.93159 
L 441.417136 349.93159 
L 441.417136 345.369214 
L 443.074972 345.369214 
L 443.074972 340.806838 
L 446.291423 340.806838 
L 446.291423 336.244462 
L 446.440194 336.244462 
L 446.440194 331.682085 
L 447.977239 331.682085 
L 447.977239 327.119709 
L 448.401826 327.119709 
L 448.401826 322.557333 
L 448.568842 322.557333 
L 448.568842 317.994957 
L 452.485388 317.994957 
L 452.485388 313.43258 
L 453.057854 313.43258 
L 453.057854 308.870204 
L 461.962441 308.870204 
L 461.962441 304.307828 
L 469.533148 304.307828 
L 469.533148 299.745452 
L 469.63138 299.745452 
L 469.63138 295.183075 
L 469.689054 295.183075 
L 469.689054 290.620699 
L 472.963682 290.620699 
L 472.963682 286.058323 
L 473.812876 286.058323 
L 473.812876 281.495947 
L 476.733154 281.495947 
L 476.733154 276.933571 
L 478.169549 276.933571 
L 478.169549 272.371194 
L 479.298172 272.371194 
L 479.298172 267.808818 
L 480.809259 267.808818 
L 480.809259 263.246442 
L 482.637418 263.246442 
L 482.637418 258.684066 
L 487.87858 258.684066 
L 487.87858 254.121689 
L 488.97642 254.121689 
L 488.97642 249.559313 
L 491.475196 249.559313 
L 491.475196 244.996937 
L 492.680211 244.996937 
L 492.680211 240.434561 
L 495.736561 240.434561 
L 495.736561 235.872184 
L 497.108526 235.872184 
L 497.108526 231.309808 
L 497.108526 231.309808 
L 497.108526 231.309808 
L 513.7625 231.309808 
" style="fill:none;stroke:#f5deb3;stroke-linecap:square;"/>
   </g>
   <g id="line2d_18"/>
   <g id="line2d_19">
    <path clip-path="url(#pe518cbe7f4)" d="M 457.378767 359.056343 
L 457.378767 357.535551 
L 457.378767 357.535551 
L 457.378767 357.535551 
L 457.378767 356.014759 
L 457.378767 356.014759 
L 457.378767 356.014759 
L 457.378767 354.493967 
L 496.229188 354.493967 
L 496.229188 349.93159 
L 507.505164 349.93159 
L 507.505164 345.369214 
L 511.25003 345.369214 
L 511.25003 340.806838 
L 520.937734 340.806838 
L 520.937734 336.244462 
L 521.9625 336.244462 
L 521.9625 336.244462 
" style="fill:none;stroke:#f5deb3;stroke-linecap:square;"/>
   </g>
   <g id="line2d_20">
    <path clip-path="url(#pe518cbe7f4)" d="M 439.162823 359.056343 
L 439.162823 354.493967 
L 439.162823 354.493967 
L 439.162823 354.493967 
L 513.7625 354.493967 
" style="fill:none;stroke:#f5deb3;stroke-linecap:square;"/>
   </g>
   <g id="line2d_21"/>
   <g id="line2d_22">
    <path clip-path="url(#pe518cbe7f4)" d="M 457.548646 359.056343 
L 457.548646 354.493967 
L 482.300928 354.493967 
L 482.300928 349.93159 
L 507.394391 349.93159 
L 507.394391 345.369214 
L 519.558582 345.369214 
L 519.558582 340.806838 
L 521.9625 340.806838 
" style="fill:none;stroke:#f5deb3;stroke-linecap:square;"/>
   </g>
   <g id="line2d_23">
    <path clip-path="url(#pe518cbe7f4)" d="M 479.432269 359.056343 
L 479.432269 354.493967 
L 488.545953 354.493967 
L 488.545953 349.93159 
L 488.545953 349.93159 
L 488.545953 349.93159 
L 513.7625 349.93159 
" style="fill:none;stroke:#f5deb3;stroke-linecap:square;"/>
   </g>
   <g id="line2d_24">
    <path clip-path="url(#pe518cbe7f4)" d="M 332.598388 359.056343 
L 332.598388 354.493967 
L 336.230447 354.493967 
L 336.230447 349.93159 
L 338.450866 349.93159 
L 338.450866 345.369214 
L 343.860246 345.369214 
L 343.860246 340.806838 
L 347.357937 340.806838 
L 347.357937 336.244462 
L 412.12362 336.244462 
L 412.12362 331.682085 
L 414.208161 331.682085 
L 414.208161 327.119709 
L 414.691849 327.119709 
L 414.691849 322.557333 
L 414.862712 322.557333 
L 414.862712 317.994957 
L 416.49517 317.994957 
L 416.49517 313.43258 
L 416.856245 313.43258 
L 416.961541 304.307828 
L 418.660381 304.307828 
L 418.660381 299.745452 
L 419.055542 299.745452 
L 419.150474 290.620699 
L 419.364089 290.620699 
L 419.364089 286.058323 
L 419.759043 286.058323 
L 419.759043 281.495947 
L 422.595975 281.495947 
L 422.595975 276.933571 
L 425.17269 276.933571 
L 425.17269 272.371194 
L 425.810576 272.371194 
L 425.810576 267.808818 
L 426.050548 267.808818 
L 426.050548 263.246442 
L 426.995366 263.246442 
L 426.995366 258.684066 
L 427.197637 258.684066 
L 427.197637 254.121689 
L 427.47248 254.121689 
L 427.575242 244.996937 
L 428.060228 244.996937 
L 428.060228 240.434561 
L 428.19963 240.434561 
L 428.19963 235.872184 
L 428.738324 235.872184 
L 428.738324 231.309808 
L 429.184275 231.309808 
L 429.184275 226.747432 
L 429.314825 226.747432 
L 429.314825 222.185056 
L 429.617846 222.185056 
L 429.617846 217.622679 
L 429.924954 217.622679 
L 429.969 208.497927 
L 431.70662 208.497927 
L 431.72832 199.373175 
L 432.333726 199.373175 
L 432.333726 194.810798 
L 433.180141 194.810798 
L 433.180141 190.248422 
L 434.460957 190.248422 
L 434.460957 185.686046 
L 434.795749 185.686046 
L 434.795749 181.12367 
L 438.264343 181.12367 
L 438.264343 176.561293 
L 440.452946 176.561293 
L 440.452946 171.998917 
L 445.87096 171.998917 
L 445.87096 167.436541 
L 453.150465 167.436541 
L 453.150465 162.874165 
L 453.340778 162.874165 
L 453.340778 158.311788 
L 454.244491 158.311788 
L 454.244491 153.749412 
L 456.4969 153.749412 
L 456.4969 149.187036 
L 457.62657 149.187036 
L 457.62657 144.62466 
L 459.629554 144.62466 
L 459.629554 140.062283 
L 460.792825 140.062283 
L 460.792825 135.499907 
L 466.143453 135.499907 
L 466.143453 130.937531 
L 471.22441 130.937531 
L 471.22441 126.375155 
L 472.133323 126.375155 
L 472.133323 121.812778 
L 476.583881 121.812778 
L 476.583881 117.250402 
L 483.274985 117.250402 
L 483.274985 112.688026 
L 484.352665 112.688026 
L 484.352665 108.12565 
L 486.608826 108.12565 
L 486.656605 99.000897 
L 486.944966 99.000897 
L 486.944966 94.438521 
L 489.646545 94.438521 
L 489.646545 89.876145 
L 490.977655 89.876145 
L 490.977655 85.313769 
L 513.625462 85.313769 
L 513.625462 80.751392 
L 514.534343 80.751392 
L 514.534343 76.189016 
L 515.960825 76.189016 
L 515.960825 71.62664 
L 520.545052 71.62664 
L 520.545052 67.064264 
L 521.9625 67.064264 
L 521.9625 67.064264 
" style="fill:none;stroke:#f5deb3;stroke-linecap:square;"/>
   </g>
   <g id="line2d_25">
    <path clip-path="url(#pe518cbe7f4)" d="M 458.153342 359.056343 
L 458.153342 354.493967 
L 461.606437 354.493967 
L 461.606437 349.93159 
L 461.816223 349.93159 
L 461.816223 345.369214 
L 463.285333 345.369214 
L 463.285333 340.806838 
L 465.174369 340.806838 
L 465.174369 336.244462 
L 465.910414 336.244462 
L 465.910414 331.682085 
L 466.224498 331.682085 
L 466.224498 327.119709 
L 467.109217 327.119709 
L 467.109217 322.557333 
L 467.15112 322.557333 
L 467.15112 317.994957 
L 469.483462 317.994957 
L 469.483462 313.43258 
L 470.751101 313.43258 
L 470.751101 308.870204 
L 494.453339 308.870204 
L 494.453339 304.307828 
L 495.17847 304.307828 
L 495.17847 299.745452 
L 495.751375 299.745452 
L 495.751375 295.183075 
L 496.243321 295.183075 
L 496.243321 290.620699 
L 496.360742 290.620699 
L 496.360742 286.058323 
L 496.650842 286.058323 
L 496.650842 281.495947 
L 497.06254 281.495947 
L 497.06254 276.933571 
L 497.103337 276.933571 
L 497.103337 272.371194 
L 497.191714 272.371194 
L 497.191714 267.808818 
L 497.19344 267.808818 
L 497.19344 263.246442 
L 497.227456 263.246442 
L 497.227456 258.684066 
L 497.238788 258.684066 
L 497.238788 254.121689 
L 497.309667 254.121689 
L 497.309667 249.559313 
L 497.493434 249.559313 
L 497.493434 244.996937 
L 497.522555 244.996937 
L 497.522555 240.434561 
L 497.662491 240.434561 
L 497.662491 235.872184 
L 498.074164 235.872184 
L 498.074164 231.309808 
L 498.260091 231.309808 
L 498.260091 226.747432 
L 498.298761 226.747432 
L 498.298761 222.185056 
L 498.40306 222.185056 
L 498.40306 217.622679 
L 498.46647 217.622679 
L 498.46647 213.060303 
L 498.792977 213.060303 
L 498.792977 208.497927 
L 498.922766 208.497927 
L 498.922766 203.935551 
L 499.163026 203.935551 
L 499.163026 199.373175 
L 505.922206 199.373175 
L 505.922206 194.810798 
L 521.9625 194.810798 
" style="fill:none;stroke:#f5deb3;stroke-linecap:square;"/>
   </g>
   <g id="line2d_26">
    <path clip-path="url(#pe518cbe7f4)" d="M 397.083293 359.056343 
L 397.083293 354.493967 
L 400.298416 354.493967 
L 400.298416 349.93159 
L 409.04163 349.93159 
L 409.04163 345.369214 
L 410.397698 345.369214 
L 410.397698 340.806838 
L 411.845488 340.806838 
L 411.845488 336.244462 
L 413.673952 336.244462 
L 413.673952 331.682085 
L 416.740282 331.682085 
L 416.740282 327.119709 
L 424.99003 327.119709 
L 424.99003 322.557333 
L 429.11756 322.557333 
L 429.11756 317.994957 
L 439.85155 317.994957 
L 439.85155 313.43258 
L 442.151995 313.43258 
L 442.151995 308.870204 
L 453.796521 308.870204 
L 453.796521 304.307828 
L 460.675274 304.307828 
L 460.675274 299.745452 
L 461.722534 299.745452 
L 461.722534 295.183075 
L 468.399233 295.183075 
L 468.399233 290.620699 
L 474.458394 290.620699 
L 474.458394 286.058323 
L 477.07027 286.058323 
L 477.07027 281.495947 
L 480.263519 281.495947 
L 480.263519 276.933571 
L 482.900812 276.933571 
L 482.900812 272.371194 
L 483.856542 272.371194 
L 483.856542 267.808818 
L 483.856542 267.808818 
L 483.856542 267.808818 
L 513.7625 267.808818 
" style="fill:none;stroke:#f5deb3;stroke-linecap:square;"/>
   </g>
   <g id="line2d_27"/>
   <g id="line2d_28">
    <path clip-path="url(#pe518cbe7f4)" d="M 321.941341 359.056343 
L 321.941341 354.493967 
L 336.871992 354.493967 
L 336.871992 349.93159 
L 384.623844 349.93159 
L 384.623844 345.369214 
L 398.896153 345.369214 
L 398.896153 340.806838 
L 402.98936 340.806838 
L 402.98936 336.244462 
L 405.408417 336.244462 
L 405.408417 331.682085 
L 424.920435 331.682085 
L 424.920435 327.119709 
L 425.788311 327.119709 
L 425.788311 322.557333 
L 427.892586 322.557333 
L 427.892586 317.994957 
L 428.781066 317.994957 
L 428.781066 313.43258 
L 429.961452 313.43258 
L 429.961452 308.870204 
L 432.362221 308.870204 
L 432.362221 304.307828 
L 433.51275 304.307828 
L 433.51275 299.745452 
L 434.703895 299.745452 
L 434.703895 295.183075 
L 435.40771 295.183075 
L 435.40771 290.620699 
L 441.935167 290.620699 
L 441.935167 286.058323 
L 442.183813 286.058323 
L 442.183813 281.495947 
L 442.819682 281.495947 
L 442.911695 272.371194 
L 443.274976 272.371194 
L 443.274976 267.808818 
L 451.995676 267.808818 
L 451.995676 263.246442 
L 454.159904 263.246442 
L 454.159904 258.684066 
L 455.132249 258.684066 
L 455.132249 254.121689 
L 455.890735 254.121689 
L 455.890735 249.559313 
L 456.493594 249.559313 
L 456.599925 240.434561 
L 459.000236 240.434561 
L 459.000236 235.872184 
L 459.180315 235.872184 
L 459.180315 231.309808 
L 459.781273 231.309808 
L 459.781273 226.747432 
L 463.450475 226.747432 
L 463.450475 222.185056 
L 465.033207 222.185056 
L 465.033207 217.622679 
L 465.227917 217.622679 
L 465.227917 213.060303 
L 465.477599 213.060303 
L 465.477599 208.497927 
L 466.342902 208.497927 
L 466.342902 203.935551 
L 467.548609 203.935551 
L 467.548609 199.373175 
L 469.032595 199.373175 
L 469.035523 190.248422 
L 469.364551 190.248422 
L 469.364551 185.686046 
L 470.63016 185.686046 
L 470.63016 181.12367 
L 471.109027 181.12367 
L 471.109027 176.561293 
L 471.874499 176.561293 
L 471.874499 171.998917 
L 472.394582 171.998917 
L 472.394582 167.436541 
L 473.108939 167.436541 
L 473.108939 162.874165 
L 473.525039 162.874165 
L 473.525039 158.311788 
L 475.457637 158.311788 
L 475.457637 153.749412 
L 477.272184 153.749412 
L 477.272184 149.187036 
L 477.473911 149.187036 
L 477.473911 144.62466 
L 478.137079 144.62466 
L 478.137079 140.062283 
L 479.770317 140.062283 
L 479.770317 135.499907 
L 480.807058 135.499907 
L 480.807058 130.937531 
L 490.061342 130.937531 
L 490.061342 126.375155 
L 493.643004 126.375155 
L 493.643004 121.812778 
L 498.898402 121.812778 
L 498.898402 117.250402 
L 499.353249 117.250402 
L 499.353249 112.688026 
L 499.788318 112.688026 
L 499.788318 108.12565 
L 503.000437 108.12565 
L 503.000437 103.563274 
L 503.616818 103.563274 
L 503.616818 99.000897 
L 509.105443 99.000897 
L 509.105443 94.438521 
L 510.512797 94.438521 
L 510.512797 89.876145 
L 515.588005 89.876145 
L 515.588005 85.313769 
L 515.791336 85.313769 
L 515.791336 80.751392 
L 521.9625 80.751392 
L 521.9625 80.751392 
" style="fill:none;stroke:#f5deb3;stroke-linecap:square;"/>
   </g>
   <g id="line2d_29"/>
   <g id="line2d_30"/>
   <g id="line2d_31">
    <path clip-path="url(#pe518cbe7f4)" d="M 0.960694 359.056343 
L 0.960694 354.493967 
L 0.960694 354.493967 
L 0.960694 354.493967 
L 0.960694 349.93159 
L 0.960694 349.93159 
L 0.960694 349.93159 
L 0.960694 345.369214 
L 0.960694 345.369214 
L 0.960694 345.369214 
L 0.960694 340.806838 
L 0.960694 340.806838 
L 0.960694 340.806838 
L 0.960694 336.244462 
L 0.960694 336.244462 
L 0.960694 336.244462 
L 0.960694 331.682085 
L 0.960694 331.682085 
L 0.960694 331.682085 
L 0.960694 327.119709 
L 0.960694 327.119709 
L 0.960694 327.119709 
L 0.960694 322.557333 
L 0.960694 322.557333 
L 0.960694 322.557333 
L 0.960694 317.994957 
L 0.960694 317.994957 
L 0.960694 317.994957 
L 0.960694 313.43258 
L 0.960694 313.43258 
L 0.960694 313.43258 
L 0.960694 308.870204 
L 0.960694 308.870204 
L 0.960694 308.870204 
L 0.960694 304.307828 
L 0.960694 304.307828 
L 0.960694 304.307828 
L 0.960694 299.745452 
L 0.960694 299.745452 
L 0.960694 299.745452 
L 0.960694 295.183075 
L 0.960694 295.183075 
L 0.960694 295.183075 
L 0.960694 290.620699 
L 0.960694 290.620699 
L 0.960694 290.620699 
L 0.960694 286.058323 
L 0.960694 286.058323 
L 0.960694 286.058323 
L 0.960694 281.495947 
L 0.960694 281.495947 
L 0.960694 281.495947 
L 0.960694 276.933571 
L 148.808665 276.933571 
L 148.808665 272.371194 
L 160.677783 272.371194 
L 160.677783 267.808818 
L 171.89716 267.808818 
L 171.89716 263.246442 
L 190.959708 263.246442 
L 190.959708 258.684066 
L 217.441163 258.684066 
L 217.441163 254.121689 
L 221.373448 254.121689 
L 221.373448 249.559313 
L 227.079589 249.559313 
L 227.079589 244.996937 
L 230.381972 244.996937 
L 230.381972 240.434561 
L 231.478068 240.434561 
L 231.478068 235.872184 
L 235.029314 235.872184 
L 235.029314 231.309808 
L 237.103005 231.309808 
L 237.103005 226.747432 
L 241.084289 226.747432 
L 241.084289 222.185056 
L 241.328419 222.185056 
L 241.328419 217.622679 
L 245.930148 217.622679 
L 245.930148 213.060303 
L 246.255441 213.060303 
L 246.255441 208.497927 
L 250.559156 208.497927 
L 250.559156 203.935551 
L 254.544482 203.935551 
L 254.544482 199.373175 
L 255.934349 199.373175 
L 255.934349 194.810798 
L 256.189816 194.810798 
L 256.189816 190.248422 
L 260.460281 190.248422 
L 260.460281 185.686046 
L 269.127359 185.686046 
L 269.127359 181.12367 
L 269.743158 181.12367 
L 269.743158 176.561293 
L 269.865223 176.561293 
L 269.865223 171.998917 
L 279.975777 171.998917 
L 279.975777 167.436541 
L 283.142184 167.436541 
L 283.142184 162.874165 
L 284.231992 162.874165 
L 284.231992 158.311788 
L 284.999204 158.311788 
L 284.999204 153.749412 
L 286.937707 153.749412 
L 286.937707 149.187036 
L 290.003868 149.187036 
L 290.003868 144.62466 
L 292.682945 144.62466 
L 292.682945 140.062283 
L 299.664108 140.062283 
L 299.664108 135.499907 
L 312.069861 135.499907 
L 312.069861 130.937531 
L 313.36399 130.937531 
L 313.36399 126.375155 
L 315.996169 126.375155 
L 315.996169 121.812778 
L 321.958585 121.812778 
L 321.958585 117.250402 
L 324.483141 117.250402 
L 324.483141 112.688026 
L 328.143253 112.688026 
L 328.143253 108.12565 
L 329.357019 108.12565 
L 329.357019 103.563274 
L 332.048545 103.563274 
L 332.048545 99.000897 
L 339.613454 99.000897 
L 339.613454 94.438521 
L 340.842476 94.438521 
L 340.842476 89.876145 
L 343.728221 89.876145 
L 343.728221 85.313769 
L 350.236088 85.313769 
L 350.236088 80.751392 
L 351.485382 80.751392 
L 351.485382 76.189016 
L 377.545483 76.189016 
L 377.545483 71.62664 
L 377.545483 71.62664 
L 513.7625 71.62664 
L 513.7625 71.62664 
" style="fill:none;stroke:#000000;stroke-linecap:square;"/>
   </g>
   <g id="line2d_32"/>
   <g id="line2d_33">
    <path clip-path="url(#pe518cbe7f4)" d="M 296.688458 359.056343 
L 296.688458 354.493967 
L 305.453529 354.493967 
L 305.453529 349.93159 
L 314.906126 349.93159 
L 314.906126 345.369214 
L 317.232523 345.369214 
L 317.232523 340.806838 
L 324.677296 340.806838 
L 324.677296 336.244462 
L 326.307249 336.244462 
L 326.307249 331.682085 
L 512.254797 331.682085 
L 512.254797 327.119709 
L 512.254797 327.119709 
L 512.254797 327.119709 
L 513.7625 327.119709 
" style="fill:none;stroke:#00bfbf;stroke-linecap:square;"/>
   </g>
   <g id="line2d_34"/>
   <g id="line2d_35">
    <path clip-path="url(#pe518cbe7f4)" d="M 338.358281 359.056343 
L 338.358281 354.493967 
L 339.161433 354.493967 
L 339.161433 349.93159 
L 339.161433 349.93159 
L 339.161433 349.93159 
L 513.7625 349.93159 
" style="fill:none;stroke:#bf00bf;stroke-linecap:square;"/>
   </g>
   <g id="line2d_36"/>
   <g id="line2d_37">
    <path clip-path="url(#pe518cbe7f4)" d="M 358.782186 359.056343 
L 358.782186 354.493967 
L 358.782186 354.493967 
L 358.782186 354.493967 
L 513.7625 354.493967 
" style="fill:none;stroke:#ff0000;stroke-linecap:square;stroke-width:3.0;"/>
   </g>
   <g id="line2d_38"/>
   <g id="line2d_39">
    <path clip-path="url(#pe518cbe7f4)" d="M 513.7625 359.056343 
L 513.7625 13.456343 
" style="fill:none;stroke:#000000;stroke-linecap:square;"/>
   </g>
   <g id="patch_3">
    <path d="M 67.3625 13.456343 
L 513.7625 13.456343 
" style="fill:none;stroke:#000000;stroke-linecap:square;stroke-linejoin:miter;"/>
   </g>
   <g id="patch_4">
    <path d="M 513.7625 359.056343 
L 513.7625 13.456343 
" style="fill:none;stroke:#000000;stroke-linecap:square;stroke-linejoin:miter;"/>
   </g>
   <g id="patch_5">
    <path d="M 67.3625 359.056343 
L 513.7625 359.056343 
" style="fill:none;stroke:#000000;stroke-linecap:square;stroke-linejoin:miter;"/>
   </g>
   <g id="patch_6">
    <path d="M 67.3625 359.056343 
L 67.3625 13.456343 
" style="fill:none;stroke:#000000;stroke-linecap:square;stroke-linejoin:miter;"/>
   </g>
   <g id="matplotlib.axis_1">
    <g id="xtick_1">
     <g id="line2d_40">
      <path clip-path="url(#pe518cbe7f4)" d="M 67.3625 359.056343 
L 67.3625 13.456343 
" style="fill:none;stroke:#000000;stroke-dasharray:1.000000,3.000000;stroke-dashoffset:0.0;stroke-width:0.5;"/>
     </g>
     <g id="line2d_41">
      <defs>
       <path d="M 0 0 
L 0 -4 
" id="me01c918afd" style="stroke:#000000;stroke-width:0.5;"/>
      </defs>
      <g>
       <use style="stroke:#000000;stroke-width:0.5;" x="67.3625" xlink:href="#me01c918afd" y="359.056342822"/>
      </g>
     </g>
     <g id="line2d_42">
      <defs>
       <path d="M 0 0 
L 0 4 
" id="mc4a484155c" style="stroke:#000000;stroke-width:0.5;"/>
      </defs>
      <g>
       <use style="stroke:#000000;stroke-width:0.5;" x="67.3625" xlink:href="#mc4a484155c" y="13.4563428218"/>
      </g>
     </g>
     <g id="text_1">
      <!-- 0 -->
      <defs>
       <path d="M 31.78125 66.40625 
Q 24.171875 66.40625 20.328125 58.90625 
Q 16.5 51.421875 16.5 36.375 
Q 16.5 21.390625 20.328125 13.890625 
Q 24.171875 6.390625 31.78125 6.390625 
Q 39.453125 6.390625 43.28125 13.890625 
Q 47.125 21.390625 47.125 36.375 
Q 47.125 51.421875 43.28125 58.90625 
Q 39.453125 66.40625 31.78125 66.40625 
M 31.78125 74.21875 
Q 44.046875 74.21875 50.515625 64.515625 
Q 56.984375 54.828125 56.984375 36.375 
Q 56.984375 17.96875 50.515625 8.265625 
Q 44.046875 -1.421875 31.78125 -1.421875 
Q 19.53125 -1.421875 13.0625 8.265625 
Q 6.59375 17.96875 6.59375 36.375 
Q 6.59375 54.828125 13.0625 64.515625 
Q 19.53125 74.21875 31.78125 74.21875 
" id="BitstreamVeraSans-Roman-30"/>
      </defs>
      <g transform="translate(61.0 378.253217822)scale(0.2 -0.2)">
       <use xlink:href="#BitstreamVeraSans-Roman-30"/>
      </g>
     </g>
    </g>
    <g id="xtick_2">
     <g id="line2d_43">
      <path clip-path="url(#pe518cbe7f4)" d="M 162.362007 359.056343 
L 162.362007 13.456343 
" style="fill:none;stroke:#000000;stroke-dasharray:1.000000,3.000000;stroke-dashoffset:0.0;stroke-width:0.5;"/>
     </g>
     <g id="line2d_44">
      <g>
       <use style="stroke:#000000;stroke-width:0.5;" x="162.362007245" xlink:href="#me01c918afd" y="359.056342822"/>
      </g>
     </g>
     <g id="line2d_45">
      <g>
       <use style="stroke:#000000;stroke-width:0.5;" x="162.362007245" xlink:href="#mc4a484155c" y="13.4563428218"/>
      </g>
     </g>
     <g id="text_2">
      <!-- 1 -->
      <defs>
       <path d="M 12.40625 8.296875 
L 28.515625 8.296875 
L 28.515625 63.921875 
L 10.984375 60.40625 
L 10.984375 69.390625 
L 28.421875 72.90625 
L 38.28125 72.90625 
L 38.28125 8.296875 
L 54.390625 8.296875 
L 54.390625 0 
L 12.40625 0 
z
" id="BitstreamVeraSans-Roman-31"/>
      </defs>
      <g transform="translate(155.999507245 378.253217822)scale(0.2 -0.2)">
       <use xlink:href="#BitstreamVeraSans-Roman-31"/>
      </g>
     </g>
    </g>
    <g id="xtick_3">
     <g id="line2d_46">
      <path clip-path="url(#pe518cbe7f4)" d="M 257.361514 359.056343 
L 257.361514 13.456343 
" style="fill:none;stroke:#000000;stroke-dasharray:1.000000,3.000000;stroke-dashoffset:0.0;stroke-width:0.5;"/>
     </g>
     <g id="line2d_47">
      <g>
       <use style="stroke:#000000;stroke-width:0.5;" x="257.361514489" xlink:href="#me01c918afd" y="359.056342822"/>
      </g>
     </g>
     <g id="line2d_48">
      <g>
       <use style="stroke:#000000;stroke-width:0.5;" x="257.361514489" xlink:href="#mc4a484155c" y="13.4563428218"/>
      </g>
     </g>
     <g id="text_3">
      <!-- 2 -->
      <defs>
       <path d="M 19.1875 8.296875 
L 53.609375 8.296875 
L 53.609375 0 
L 7.328125 0 
L 7.328125 8.296875 
Q 12.9375 14.109375 22.625 23.890625 
Q 32.328125 33.6875 34.8125 36.53125 
Q 39.546875 41.84375 41.421875 45.53125 
Q 43.3125 49.21875 43.3125 52.78125 
Q 43.3125 58.59375 39.234375 62.25 
Q 35.15625 65.921875 28.609375 65.921875 
Q 23.96875 65.921875 18.8125 64.3125 
Q 13.671875 62.703125 7.8125 59.421875 
L 7.8125 69.390625 
Q 13.765625 71.78125 18.9375 73 
Q 24.125 74.21875 28.421875 74.21875 
Q 39.75 74.21875 46.484375 68.546875 
Q 53.21875 62.890625 53.21875 53.421875 
Q 53.21875 48.921875 51.53125 44.890625 
Q 49.859375 40.875 45.40625 35.40625 
Q 44.1875 33.984375 37.640625 27.21875 
Q 31.109375 20.453125 19.1875 8.296875 
" id="BitstreamVeraSans-Roman-32"/>
      </defs>
      <g transform="translate(250.999014489 378.253217822)scale(0.2 -0.2)">
       <use xlink:href="#BitstreamVeraSans-Roman-32"/>
      </g>
     </g>
    </g>
    <g id="xtick_4">
     <g id="line2d_49">
      <path clip-path="url(#pe518cbe7f4)" d="M 352.361022 359.056343 
L 352.361022 13.456343 
" style="fill:none;stroke:#000000;stroke-dasharray:1.000000,3.000000;stroke-dashoffset:0.0;stroke-width:0.5;"/>
     </g>
     <g id="line2d_50">
      <g>
       <use style="stroke:#000000;stroke-width:0.5;" x="352.361021734" xlink:href="#me01c918afd" y="359.056342822"/>
      </g>
     </g>
     <g id="line2d_51">
      <g>
       <use style="stroke:#000000;stroke-width:0.5;" x="352.361021734" xlink:href="#mc4a484155c" y="13.4563428218"/>
      </g>
     </g>
     <g id="text_4">
      <!-- 3 -->
      <defs>
       <path d="M 40.578125 39.3125 
Q 47.65625 37.796875 51.625 33 
Q 55.609375 28.21875 55.609375 21.1875 
Q 55.609375 10.40625 48.1875 4.484375 
Q 40.765625 -1.421875 27.09375 -1.421875 
Q 22.515625 -1.421875 17.65625 -0.515625 
Q 12.796875 0.390625 7.625 2.203125 
L 7.625 11.71875 
Q 11.71875 9.328125 16.59375 8.109375 
Q 21.484375 6.890625 26.8125 6.890625 
Q 36.078125 6.890625 40.9375 10.546875 
Q 45.796875 14.203125 45.796875 21.1875 
Q 45.796875 27.640625 41.28125 31.265625 
Q 36.765625 34.90625 28.71875 34.90625 
L 20.21875 34.90625 
L 20.21875 43.015625 
L 29.109375 43.015625 
Q 36.375 43.015625 40.234375 45.921875 
Q 44.09375 48.828125 44.09375 54.296875 
Q 44.09375 59.90625 40.109375 62.90625 
Q 36.140625 65.921875 28.71875 65.921875 
Q 24.65625 65.921875 20.015625 65.03125 
Q 15.375 64.15625 9.8125 62.3125 
L 9.8125 71.09375 
Q 15.4375 72.65625 20.34375 73.4375 
Q 25.25 74.21875 29.59375 74.21875 
Q 40.828125 74.21875 47.359375 69.109375 
Q 53.90625 64.015625 53.90625 55.328125 
Q 53.90625 49.265625 50.4375 45.09375 
Q 46.96875 40.921875 40.578125 39.3125 
" id="BitstreamVeraSans-Roman-33"/>
      </defs>
      <g transform="translate(345.998521734 378.253217822)scale(0.2 -0.2)">
       <use xlink:href="#BitstreamVeraSans-Roman-33"/>
      </g>
     </g>
    </g>
    <g id="xtick_5">
     <g id="line2d_52">
      <path clip-path="url(#pe518cbe7f4)" d="M 447.360529 359.056343 
L 447.360529 13.456343 
" style="fill:none;stroke:#000000;stroke-dasharray:1.000000,3.000000;stroke-dashoffset:0.0;stroke-width:0.5;"/>
     </g>
     <g id="line2d_53">
      <g>
       <use style="stroke:#000000;stroke-width:0.5;" x="447.360528979" xlink:href="#me01c918afd" y="359.056342822"/>
      </g>
     </g>
     <g id="line2d_54">
      <g>
       <use style="stroke:#000000;stroke-width:0.5;" x="447.360528979" xlink:href="#mc4a484155c" y="13.4563428218"/>
      </g>
     </g>
     <g id="text_5">
      <!-- 4 -->
      <defs>
       <path d="M 37.796875 64.3125 
L 12.890625 25.390625 
L 37.796875 25.390625 
z
M 35.203125 72.90625 
L 47.609375 72.90625 
L 47.609375 25.390625 
L 58.015625 25.390625 
L 58.015625 17.1875 
L 47.609375 17.1875 
L 47.609375 0 
L 37.796875 0 
L 37.796875 17.1875 
L 4.890625 17.1875 
L 4.890625 26.703125 
z
" id="BitstreamVeraSans-Roman-34"/>
      </defs>
      <g transform="translate(440.998028979 378.253217822)scale(0.2 -0.2)">
       <use xlink:href="#BitstreamVeraSans-Roman-34"/>
      </g>
     </g>
    </g>
    <g id="xtick_6">
     <g id="line2d_55">
      <defs>
       <path d="M 0 0 
L 0 -2 
" id="m694ba55518" style="stroke:#000000;stroke-width:0.5;"/>
      </defs>
      <g>
       <use style="stroke:#000000;stroke-width:0.5;" x="95.9602012539" xlink:href="#m694ba55518" y="359.056342822"/>
      </g>
     </g>
     <g id="line2d_56">
      <defs>
       <path d="M 0 0 
L 0 2 
" id="m1c5f92edcf" style="stroke:#000000;stroke-width:0.5;"/>
      </defs>
      <g>
       <use style="stroke:#000000;stroke-width:0.5;" x="95.9602012539" xlink:href="#m1c5f92edcf" y="13.4563428218"/>
      </g>
     </g>
    </g>
    <g id="xtick_7">
     <g id="line2d_57">
      <g>
       <use style="stroke:#000000;stroke-width:0.5;" x="112.688784094" xlink:href="#m694ba55518" y="359.056342822"/>
      </g>
     </g>
     <g id="line2d_58">
      <g>
       <use style="stroke:#000000;stroke-width:0.5;" x="112.688784094" xlink:href="#m1c5f92edcf" y="13.4563428218"/>
      </g>
     </g>
    </g>
    <g id="xtick_8">
     <g id="line2d_59">
      <g>
       <use style="stroke:#000000;stroke-width:0.5;" x="124.557902508" xlink:href="#m694ba55518" y="359.056342822"/>
      </g>
     </g>
     <g id="line2d_60">
      <g>
       <use style="stroke:#000000;stroke-width:0.5;" x="124.557902508" xlink:href="#m1c5f92edcf" y="13.4563428218"/>
      </g>
     </g>
    </g>
    <g id="xtick_9">
     <g id="line2d_61">
      <g>
       <use style="stroke:#000000;stroke-width:0.5;" x="133.764305991" xlink:href="#m694ba55518" y="359.056342822"/>
      </g>
     </g>
     <g id="line2d_62">
      <g>
       <use style="stroke:#000000;stroke-width:0.5;" x="133.764305991" xlink:href="#m1c5f92edcf" y="13.4563428218"/>
      </g>
     </g>
    </g>
    <g id="xtick_10">
     <g id="line2d_63">
      <g>
       <use style="stroke:#000000;stroke-width:0.5;" x="141.286485348" xlink:href="#m694ba55518" y="359.056342822"/>
      </g>
     </g>
     <g id="line2d_64">
      <g>
       <use style="stroke:#000000;stroke-width:0.5;" x="141.286485348" xlink:href="#m1c5f92edcf" y="13.4563428218"/>
      </g>
     </g>
    </g>
    <g id="xtick_11">
     <g id="line2d_65">
      <g>
       <use style="stroke:#000000;stroke-width:0.5;" x="147.646397375" xlink:href="#m694ba55518" y="359.056342822"/>
      </g>
     </g>
     <g id="line2d_66">
      <g>
       <use style="stroke:#000000;stroke-width:0.5;" x="147.646397375" xlink:href="#m1c5f92edcf" y="13.4563428218"/>
      </g>
     </g>
    </g>
    <g id="xtick_12">
     <g id="line2d_67">
      <g>
       <use style="stroke:#000000;stroke-width:0.5;" x="153.155603762" xlink:href="#m694ba55518" y="359.056342822"/>
      </g>
     </g>
     <g id="line2d_68">
      <g>
       <use style="stroke:#000000;stroke-width:0.5;" x="153.155603762" xlink:href="#m1c5f92edcf" y="13.4563428218"/>
      </g>
     </g>
    </g>
    <g id="xtick_13">
     <g id="line2d_69">
      <g>
       <use style="stroke:#000000;stroke-width:0.5;" x="158.015068189" xlink:href="#m694ba55518" y="359.056342822"/>
      </g>
     </g>
     <g id="line2d_70">
      <g>
       <use style="stroke:#000000;stroke-width:0.5;" x="158.015068189" xlink:href="#m1c5f92edcf" y="13.4563428218"/>
      </g>
     </g>
    </g>
    <g id="xtick_14">
     <g id="line2d_71">
      <g>
       <use style="stroke:#000000;stroke-width:0.5;" x="190.959708499" xlink:href="#m694ba55518" y="359.056342822"/>
      </g>
     </g>
     <g id="line2d_72">
      <g>
       <use style="stroke:#000000;stroke-width:0.5;" x="190.959708499" xlink:href="#m1c5f92edcf" y="13.4563428218"/>
      </g>
     </g>
    </g>
    <g id="xtick_15">
     <g id="line2d_73">
      <g>
       <use style="stroke:#000000;stroke-width:0.5;" x="207.688291339" xlink:href="#m694ba55518" y="359.056342822"/>
      </g>
     </g>
     <g id="line2d_74">
      <g>
       <use style="stroke:#000000;stroke-width:0.5;" x="207.688291339" xlink:href="#m1c5f92edcf" y="13.4563428218"/>
      </g>
     </g>
    </g>
    <g id="xtick_16">
     <g id="line2d_75">
      <g>
       <use style="stroke:#000000;stroke-width:0.5;" x="219.557409753" xlink:href="#m694ba55518" y="359.056342822"/>
      </g>
     </g>
     <g id="line2d_76">
      <g>
       <use style="stroke:#000000;stroke-width:0.5;" x="219.557409753" xlink:href="#m1c5f92edcf" y="13.4563428218"/>
      </g>
     </g>
    </g>
    <g id="xtick_17">
     <g id="line2d_77">
      <g>
       <use style="stroke:#000000;stroke-width:0.5;" x="228.763813235" xlink:href="#m694ba55518" y="359.056342822"/>
      </g>
     </g>
     <g id="line2d_78">
      <g>
       <use style="stroke:#000000;stroke-width:0.5;" x="228.763813235" xlink:href="#m1c5f92edcf" y="13.4563428218"/>
      </g>
     </g>
    </g>
    <g id="xtick_18">
     <g id="line2d_79">
      <g>
       <use style="stroke:#000000;stroke-width:0.5;" x="236.285992593" xlink:href="#m694ba55518" y="359.056342822"/>
      </g>
     </g>
     <g id="line2d_80">
      <g>
       <use style="stroke:#000000;stroke-width:0.5;" x="236.285992593" xlink:href="#m1c5f92edcf" y="13.4563428218"/>
      </g>
     </g>
    </g>
    <g id="xtick_19">
     <g id="line2d_81">
      <g>
       <use style="stroke:#000000;stroke-width:0.5;" x="242.645904619" xlink:href="#m694ba55518" y="359.056342822"/>
      </g>
     </g>
     <g id="line2d_82">
      <g>
       <use style="stroke:#000000;stroke-width:0.5;" x="242.645904619" xlink:href="#m1c5f92edcf" y="13.4563428218"/>
      </g>
     </g>
    </g>
    <g id="xtick_20">
     <g id="line2d_83">
      <g>
       <use style="stroke:#000000;stroke-width:0.5;" x="248.155111006" xlink:href="#m694ba55518" y="359.056342822"/>
      </g>
     </g>
     <g id="line2d_84">
      <g>
       <use style="stroke:#000000;stroke-width:0.5;" x="248.155111006" xlink:href="#m1c5f92edcf" y="13.4563428218"/>
      </g>
     </g>
    </g>
    <g id="xtick_21">
     <g id="line2d_85">
      <g>
       <use style="stroke:#000000;stroke-width:0.5;" x="253.014575433" xlink:href="#m694ba55518" y="359.056342822"/>
      </g>
     </g>
     <g id="line2d_86">
      <g>
       <use style="stroke:#000000;stroke-width:0.5;" x="253.014575433" xlink:href="#m1c5f92edcf" y="13.4563428218"/>
      </g>
     </g>
    </g>
    <g id="xtick_22">
     <g id="line2d_87">
      <g>
       <use style="stroke:#000000;stroke-width:0.5;" x="285.959215743" xlink:href="#m694ba55518" y="359.056342822"/>
      </g>
     </g>
     <g id="line2d_88">
      <g>
       <use style="stroke:#000000;stroke-width:0.5;" x="285.959215743" xlink:href="#m1c5f92edcf" y="13.4563428218"/>
      </g>
     </g>
    </g>
    <g id="xtick_23">
     <g id="line2d_89">
      <g>
       <use style="stroke:#000000;stroke-width:0.5;" x="302.687798584" xlink:href="#m694ba55518" y="359.056342822"/>
      </g>
     </g>
     <g id="line2d_90">
      <g>
       <use style="stroke:#000000;stroke-width:0.5;" x="302.687798584" xlink:href="#m1c5f92edcf" y="13.4563428218"/>
      </g>
     </g>
    </g>
    <g id="xtick_24">
     <g id="line2d_91">
      <g>
       <use style="stroke:#000000;stroke-width:0.5;" x="314.556916997" xlink:href="#m694ba55518" y="359.056342822"/>
      </g>
     </g>
     <g id="line2d_92">
      <g>
       <use style="stroke:#000000;stroke-width:0.5;" x="314.556916997" xlink:href="#m1c5f92edcf" y="13.4563428218"/>
      </g>
     </g>
    </g>
    <g id="xtick_25">
     <g id="line2d_93">
      <g>
       <use style="stroke:#000000;stroke-width:0.5;" x="323.76332048" xlink:href="#m694ba55518" y="359.056342822"/>
      </g>
     </g>
     <g id="line2d_94">
      <g>
       <use style="stroke:#000000;stroke-width:0.5;" x="323.76332048" xlink:href="#m1c5f92edcf" y="13.4563428218"/>
      </g>
     </g>
    </g>
    <g id="xtick_26">
     <g id="line2d_95">
      <g>
       <use style="stroke:#000000;stroke-width:0.5;" x="331.285499838" xlink:href="#m694ba55518" y="359.056342822"/>
      </g>
     </g>
     <g id="line2d_96">
      <g>
       <use style="stroke:#000000;stroke-width:0.5;" x="331.285499838" xlink:href="#m1c5f92edcf" y="13.4563428218"/>
      </g>
     </g>
    </g>
    <g id="xtick_27">
     <g id="line2d_97">
      <g>
       <use style="stroke:#000000;stroke-width:0.5;" x="337.645411864" xlink:href="#m694ba55518" y="359.056342822"/>
      </g>
     </g>
     <g id="line2d_98">
      <g>
       <use style="stroke:#000000;stroke-width:0.5;" x="337.645411864" xlink:href="#m1c5f92edcf" y="13.4563428218"/>
      </g>
     </g>
    </g>
    <g id="xtick_28">
     <g id="line2d_99">
      <g>
       <use style="stroke:#000000;stroke-width:0.5;" x="343.154618251" xlink:href="#m694ba55518" y="359.056342822"/>
      </g>
     </g>
     <g id="line2d_100">
      <g>
       <use style="stroke:#000000;stroke-width:0.5;" x="343.154618251" xlink:href="#m1c5f92edcf" y="13.4563428218"/>
      </g>
     </g>
    </g>
    <g id="xtick_29">
     <g id="line2d_101">
      <g>
       <use style="stroke:#000000;stroke-width:0.5;" x="348.014082678" xlink:href="#m694ba55518" y="359.056342822"/>
      </g>
     </g>
     <g id="line2d_102">
      <g>
       <use style="stroke:#000000;stroke-width:0.5;" x="348.014082678" xlink:href="#m1c5f92edcf" y="13.4563428218"/>
      </g>
     </g>
    </g>
    <g id="xtick_30">
     <g id="line2d_103">
      <g>
       <use style="stroke:#000000;stroke-width:0.5;" x="380.958722988" xlink:href="#m694ba55518" y="359.056342822"/>
      </g>
     </g>
     <g id="line2d_104">
      <g>
       <use style="stroke:#000000;stroke-width:0.5;" x="380.958722988" xlink:href="#m1c5f92edcf" y="13.4563428218"/>
      </g>
     </g>
    </g>
    <g id="xtick_31">
     <g id="line2d_105">
      <g>
       <use style="stroke:#000000;stroke-width:0.5;" x="397.687305828" xlink:href="#m694ba55518" y="359.056342822"/>
      </g>
     </g>
     <g id="line2d_106">
      <g>
       <use style="stroke:#000000;stroke-width:0.5;" x="397.687305828" xlink:href="#m1c5f92edcf" y="13.4563428218"/>
      </g>
     </g>
    </g>
    <g id="xtick_32">
     <g id="line2d_107">
      <g>
       <use style="stroke:#000000;stroke-width:0.5;" x="409.556424242" xlink:href="#m694ba55518" y="359.056342822"/>
      </g>
     </g>
     <g id="line2d_108">
      <g>
       <use style="stroke:#000000;stroke-width:0.5;" x="409.556424242" xlink:href="#m1c5f92edcf" y="13.4563428218"/>
      </g>
     </g>
    </g>
    <g id="xtick_33">
     <g id="line2d_109">
      <g>
       <use style="stroke:#000000;stroke-width:0.5;" x="418.762827725" xlink:href="#m694ba55518" y="359.056342822"/>
      </g>
     </g>
     <g id="line2d_110">
      <g>
       <use style="stroke:#000000;stroke-width:0.5;" x="418.762827725" xlink:href="#m1c5f92edcf" y="13.4563428218"/>
      </g>
     </g>
    </g>
    <g id="xtick_34">
     <g id="line2d_111">
      <g>
       <use style="stroke:#000000;stroke-width:0.5;" x="426.285007082" xlink:href="#m694ba55518" y="359.056342822"/>
      </g>
     </g>
     <g id="line2d_112">
      <g>
       <use style="stroke:#000000;stroke-width:0.5;" x="426.285007082" xlink:href="#m1c5f92edcf" y="13.4563428218"/>
      </g>
     </g>
    </g>
    <g id="xtick_35">
     <g id="line2d_113">
      <g>
       <use style="stroke:#000000;stroke-width:0.5;" x="432.644919109" xlink:href="#m694ba55518" y="359.056342822"/>
      </g>
     </g>
     <g id="line2d_114">
      <g>
       <use style="stroke:#000000;stroke-width:0.5;" x="432.644919109" xlink:href="#m1c5f92edcf" y="13.4563428218"/>
      </g>
     </g>
    </g>
    <g id="xtick_36">
     <g id="line2d_115">
      <g>
       <use style="stroke:#000000;stroke-width:0.5;" x="438.154125496" xlink:href="#m694ba55518" y="359.056342822"/>
      </g>
     </g>
     <g id="line2d_116">
      <g>
       <use style="stroke:#000000;stroke-width:0.5;" x="438.154125496" xlink:href="#m1c5f92edcf" y="13.4563428218"/>
      </g>
     </g>
    </g>
    <g id="xtick_37">
     <g id="line2d_117">
      <g>
       <use style="stroke:#000000;stroke-width:0.5;" x="443.013589923" xlink:href="#m694ba55518" y="359.056342822"/>
      </g>
     </g>
     <g id="line2d_118">
      <g>
       <use style="stroke:#000000;stroke-width:0.5;" x="443.013589923" xlink:href="#m1c5f92edcf" y="13.4563428218"/>
      </g>
     </g>
    </g>
    <g id="xtick_38">
     <g id="line2d_119">
      <g>
       <use style="stroke:#000000;stroke-width:0.5;" x="475.958230233" xlink:href="#m694ba55518" y="359.056342822"/>
      </g>
     </g>
     <g id="line2d_120">
      <g>
       <use style="stroke:#000000;stroke-width:0.5;" x="475.958230233" xlink:href="#m1c5f92edcf" y="13.4563428218"/>
      </g>
     </g>
    </g>
    <g id="xtick_39">
     <g id="line2d_121">
      <g>
       <use style="stroke:#000000;stroke-width:0.5;" x="492.686813073" xlink:href="#m694ba55518" y="359.056342822"/>
      </g>
     </g>
     <g id="line2d_122">
      <g>
       <use style="stroke:#000000;stroke-width:0.5;" x="492.686813073" xlink:href="#m1c5f92edcf" y="13.4563428218"/>
      </g>
     </g>
    </g>
    <g id="xtick_40">
     <g id="line2d_123">
      <g>
       <use style="stroke:#000000;stroke-width:0.5;" x="504.555931486" xlink:href="#m694ba55518" y="359.056342822"/>
      </g>
     </g>
     <g id="line2d_124">
      <g>
       <use style="stroke:#000000;stroke-width:0.5;" x="504.555931486" xlink:href="#m1c5f92edcf" y="13.4563428218"/>
      </g>
     </g>
    </g>
    <g id="xtick_41">
     <g id="line2d_125">
      <g>
       <use style="stroke:#000000;stroke-width:0.5;" x="513.762334969" xlink:href="#m694ba55518" y="359.056342822"/>
      </g>
     </g>
     <g id="line2d_126">
      <g>
       <use style="stroke:#000000;stroke-width:0.5;" x="513.762334969" xlink:href="#m1c5f92edcf" y="13.4563428218"/>
      </g>
     </g>
    </g>
    <g id="text_6">
     <!-- log10 of FEvals / DIM -->
     <defs>
      <path id="BitstreamVeraSans-Roman-20"/>
      <path d="M 9.8125 72.90625 
L 24.515625 72.90625 
L 43.109375 23.296875 
L 61.8125 72.90625 
L 76.515625 72.90625 
L 76.515625 0 
L 66.890625 0 
L 66.890625 64.015625 
L 48.09375 14.015625 
L 38.1875 14.015625 
L 19.390625 64.015625 
L 19.390625 0 
L 9.8125 0 
z
" id="BitstreamVeraSans-Roman-4d"/>
      <path d="M 30.609375 48.390625 
Q 23.390625 48.390625 19.1875 42.75 
Q 14.984375 37.109375 14.984375 27.296875 
Q 14.984375 17.484375 19.15625 11.84375 
Q 23.34375 6.203125 30.609375 6.203125 
Q 37.796875 6.203125 41.984375 11.859375 
Q 46.1875 17.53125 46.1875 27.296875 
Q 46.1875 37.015625 41.984375 42.703125 
Q 37.796875 48.390625 30.609375 48.390625 
M 30.609375 56 
Q 42.328125 56 49.015625 48.375 
Q 55.71875 40.765625 55.71875 27.296875 
Q 55.71875 13.875 49.015625 6.21875 
Q 42.328125 -1.421875 30.609375 -1.421875 
Q 18.84375 -1.421875 12.171875 6.21875 
Q 5.515625 13.875 5.515625 27.296875 
Q 5.515625 40.765625 12.171875 48.375 
Q 18.84375 56 30.609375 56 
" id="BitstreamVeraSans-Roman-6f"/>
      <path d="M 9.421875 75.984375 
L 18.40625 75.984375 
L 18.40625 0 
L 9.421875 0 
z
" id="BitstreamVeraSans-Roman-6c"/>
      <path d="M 9.8125 72.90625 
L 51.703125 72.90625 
L 51.703125 64.59375 
L 19.671875 64.59375 
L 19.671875 43.109375 
L 48.578125 43.109375 
L 48.578125 34.8125 
L 19.671875 34.8125 
L 19.671875 0 
L 9.8125 0 
z
" id="BitstreamVeraSans-Roman-46"/>
      <path d="M 9.8125 72.90625 
L 55.90625 72.90625 
L 55.90625 64.59375 
L 19.671875 64.59375 
L 19.671875 43.015625 
L 54.390625 43.015625 
L 54.390625 34.71875 
L 19.671875 34.71875 
L 19.671875 8.296875 
L 56.78125 8.296875 
L 56.78125 0 
L 9.8125 0 
z
" id="BitstreamVeraSans-Roman-45"/>
      <path d="M 19.671875 64.796875 
L 19.671875 8.109375 
L 31.59375 8.109375 
Q 46.6875 8.109375 53.6875 14.9375 
Q 60.6875 21.78125 60.6875 36.53125 
Q 60.6875 51.171875 53.6875 57.984375 
Q 46.6875 64.796875 31.59375 64.796875 
z
M 9.8125 72.90625 
L 30.078125 72.90625 
Q 51.265625 72.90625 61.171875 64.09375 
Q 71.09375 55.28125 71.09375 36.53125 
Q 71.09375 17.671875 61.125 8.828125 
Q 51.171875 0 30.078125 0 
L 9.8125 0 
z
" id="BitstreamVeraSans-Roman-44"/>
      <path d="M 25.390625 72.90625 
L 33.6875 72.90625 
L 8.296875 -9.28125 
L 0 -9.28125 
z
" id="BitstreamVeraSans-Roman-2f"/>
      <path d="M 2.984375 54.6875 
L 12.5 54.6875 
L 29.59375 8.796875 
L 46.6875 54.6875 
L 56.203125 54.6875 
L 35.6875 0 
L 23.484375 0 
z
" id="BitstreamVeraSans-Roman-76"/>
      <path d="M 45.40625 27.984375 
Q 45.40625 37.75 41.375 43.109375 
Q 37.359375 48.484375 30.078125 48.484375 
Q 22.859375 48.484375 18.828125 43.109375 
Q 14.796875 37.75 14.796875 27.984375 
Q 14.796875 18.265625 18.828125 12.890625 
Q 22.859375 7.515625 30.078125 7.515625 
Q 37.359375 7.515625 41.375 12.890625 
Q 45.40625 18.265625 45.40625 27.984375 
M 54.390625 6.78125 
Q 54.390625 -7.171875 48.1875 -13.984375 
Q 42 -20.796875 29.203125 -20.796875 
Q 24.46875 -20.796875 20.265625 -20.09375 
Q 16.0625 -19.390625 12.109375 -17.921875 
L 12.109375 -9.1875 
Q 16.0625 -11.328125 19.921875 -12.34375 
Q 23.78125 -13.375 27.78125 -13.375 
Q 36.625 -13.375 41.015625 -8.765625 
Q 45.40625 -4.15625 45.40625 5.171875 
L 45.40625 9.625 
Q 42.625 4.78125 38.28125 2.390625 
Q 33.9375 0 27.875 0 
Q 17.828125 0 11.671875 7.65625 
Q 5.515625 15.328125 5.515625 27.984375 
Q 5.515625 40.671875 11.671875 48.328125 
Q 17.828125 56 27.875 56 
Q 33.9375 56 38.28125 53.609375 
Q 42.625 51.21875 45.40625 46.390625 
L 45.40625 54.6875 
L 54.390625 54.6875 
z
" id="BitstreamVeraSans-Roman-67"/>
      <path d="M 37.109375 75.984375 
L 37.109375 68.5 
L 28.515625 68.5 
Q 23.6875 68.5 21.796875 66.546875 
Q 19.921875 64.59375 19.921875 59.515625 
L 19.921875 54.6875 
L 34.71875 54.6875 
L 34.71875 47.703125 
L 19.921875 47.703125 
L 19.921875 0 
L 10.890625 0 
L 10.890625 47.703125 
L 2.296875 47.703125 
L 2.296875 54.6875 
L 10.890625 54.6875 
L 10.890625 58.5 
Q 10.890625 67.625 15.140625 71.796875 
Q 19.390625 75.984375 28.609375 75.984375 
z
" id="BitstreamVeraSans-Roman-66"/>
      <path d="M 34.28125 27.484375 
Q 23.390625 27.484375 19.1875 25 
Q 14.984375 22.515625 14.984375 16.5 
Q 14.984375 11.71875 18.140625 8.90625 
Q 21.296875 6.109375 26.703125 6.109375 
Q 34.1875 6.109375 38.703125 11.40625 
Q 43.21875 16.703125 43.21875 25.484375 
L 43.21875 27.484375 
z
M 52.203125 31.203125 
L 52.203125 0 
L 43.21875 0 
L 43.21875 8.296875 
Q 40.140625 3.328125 35.546875 0.953125 
Q 30.953125 -1.421875 24.3125 -1.421875 
Q 15.921875 -1.421875 10.953125 3.296875 
Q 6 8.015625 6 15.921875 
Q 6 25.140625 12.171875 29.828125 
Q 18.359375 34.515625 30.609375 34.515625 
L 43.21875 34.515625 
L 43.21875 35.40625 
Q 43.21875 41.609375 39.140625 45 
Q 35.0625 48.390625 27.6875 48.390625 
Q 23 48.390625 18.546875 47.265625 
Q 14.109375 46.140625 10.015625 43.890625 
L 10.015625 52.203125 
Q 14.9375 54.109375 19.578125 55.046875 
Q 24.21875 56 28.609375 56 
Q 40.484375 56 46.34375 49.84375 
Q 52.203125 43.703125 52.203125 31.203125 
" id="BitstreamVeraSans-Roman-61"/>
      <path d="M 44.28125 53.078125 
L 44.28125 44.578125 
Q 40.484375 46.53125 36.375 47.5 
Q 32.28125 48.484375 27.875 48.484375 
Q 21.1875 48.484375 17.84375 46.4375 
Q 14.5 44.390625 14.5 40.28125 
Q 14.5 37.15625 16.890625 35.375 
Q 19.28125 33.59375 26.515625 31.984375 
L 29.59375 31.296875 
Q 39.15625 29.25 43.1875 25.515625 
Q 47.21875 21.78125 47.21875 15.09375 
Q 47.21875 7.46875 41.1875 3.015625 
Q 35.15625 -1.421875 24.609375 -1.421875 
Q 20.21875 -1.421875 15.453125 -0.5625 
Q 10.6875 0.296875 5.421875 2 
L 5.421875 11.28125 
Q 10.40625 8.6875 15.234375 7.390625 
Q 20.0625 6.109375 24.8125 6.109375 
Q 31.15625 6.109375 34.5625 8.28125 
Q 37.984375 10.453125 37.984375 14.40625 
Q 37.984375 18.0625 35.515625 20.015625 
Q 33.0625 21.96875 24.703125 23.78125 
L 21.578125 24.515625 
Q 13.234375 26.265625 9.515625 29.90625 
Q 5.8125 33.546875 5.8125 39.890625 
Q 5.8125 47.609375 11.28125 51.796875 
Q 16.75 56 26.8125 56 
Q 31.78125 56 36.171875 55.265625 
Q 40.578125 54.546875 44.28125 53.078125 
" id="BitstreamVeraSans-Roman-73"/>
      <path d="M 9.8125 72.90625 
L 19.671875 72.90625 
L 19.671875 0 
L 9.8125 0 
z
" id="BitstreamVeraSans-Roman-49"/>
     </defs>
     <g transform="translate(185.4890625 402.609467822)scale(0.2 -0.2)">
      <use xlink:href="#BitstreamVeraSans-Roman-6c"/>
      <use x="27.783203125" xlink:href="#BitstreamVeraSans-Roman-6f"/>
      <use x="88.96484375" xlink:href="#BitstreamVeraSans-Roman-67"/>
      <use x="152.44140625" xlink:href="#BitstreamVeraSans-Roman-31"/>
      <use x="216.064453125" xlink:href="#BitstreamVeraSans-Roman-30"/>
      <use x="279.6875" xlink:href="#BitstreamVeraSans-Roman-20"/>
      <use x="311.474609375" xlink:href="#BitstreamVeraSans-Roman-6f"/>
      <use x="372.65625" xlink:href="#BitstreamVeraSans-Roman-66"/>
      <use x="407.861328125" xlink:href="#BitstreamVeraSans-Roman-20"/>
      <use x="439.6484375" xlink:href="#BitstreamVeraSans-Roman-46"/>
      <use x="497.16796875" xlink:href="#BitstreamVeraSans-Roman-45"/>
      <use x="560.3515625" xlink:href="#BitstreamVeraSans-Roman-76"/>
      <use x="619.53125" xlink:href="#BitstreamVeraSans-Roman-61"/>
      <use x="680.810546875" xlink:href="#BitstreamVeraSans-Roman-6c"/>
      <use x="708.59375" xlink:href="#BitstreamVeraSans-Roman-73"/>
      <use x="760.693359375" xlink:href="#BitstreamVeraSans-Roman-20"/>
      <use x="792.48046875" xlink:href="#BitstreamVeraSans-Roman-2f"/>
      <use x="826.171875" xlink:href="#BitstreamVeraSans-Roman-20"/>
      <use x="857.958984375" xlink:href="#BitstreamVeraSans-Roman-44"/>
      <use x="934.9609375" xlink:href="#BitstreamVeraSans-Roman-49"/>
      <use x="964.453125" xlink:href="#BitstreamVeraSans-Roman-4d"/>
     </g>
    </g>
   </g>
   <g id="matplotlib.axis_2">
    <g id="ytick_1">
     <g id="line2d_127">
      <path clip-path="url(#pe518cbe7f4)" d="M 67.3625 359.056343 
L 513.7625 359.056343 
" style="fill:none;stroke:#000000;stroke-dasharray:1.000000,3.000000;stroke-dashoffset:0.0;stroke-width:0.5;"/>
     </g>
     <g id="line2d_128">
      <defs>
       <path d="M 0 0 
L 4 0 
" id="mfcc87a63cf" style="stroke:#000000;stroke-width:0.5;"/>
      </defs>
      <g>
       <use style="stroke:#000000;stroke-width:0.5;" x="67.3625" xlink:href="#mfcc87a63cf" y="359.056342822"/>
      </g>
     </g>
     <g id="line2d_129">
      <defs>
       <path d="M 0 0 
L -4 0 
" id="m7ea8d332d3" style="stroke:#000000;stroke-width:0.5;"/>
      </defs>
      <g>
       <use style="stroke:#000000;stroke-width:0.5;" x="513.7625" xlink:href="#m7ea8d332d3" y="359.056342822"/>
      </g>
     </g>
     <g id="text_7">
      <!-- 0.0 -->
      <defs>
       <path d="M 10.6875 12.40625 
L 21 12.40625 
L 21 0 
L 10.6875 0 
z
" id="BitstreamVeraSans-Roman-2e"/>
      </defs>
      <g transform="translate(31.55625 364.575092822)scale(0.2 -0.2)">
       <use xlink:href="#BitstreamVeraSans-Roman-30"/>
       <use x="63.623046875" xlink:href="#BitstreamVeraSans-Roman-2e"/>
       <use x="95.41015625" xlink:href="#BitstreamVeraSans-Roman-30"/>
      </g>
     </g>
    </g>
    <g id="ytick_2">
     <g id="line2d_130">
      <path clip-path="url(#pe518cbe7f4)" d="M 67.3625 290.620699 
L 513.7625 290.620699 
" style="fill:none;stroke:#000000;stroke-dasharray:1.000000,3.000000;stroke-dashoffset:0.0;stroke-width:0.5;"/>
     </g>
     <g id="line2d_131">
      <g>
       <use style="stroke:#000000;stroke-width:0.5;" x="67.3625" xlink:href="#mfcc87a63cf" y="290.620699257"/>
      </g>
     </g>
     <g id="line2d_132">
      <g>
       <use style="stroke:#000000;stroke-width:0.5;" x="513.7625" xlink:href="#m7ea8d332d3" y="290.620699257"/>
      </g>
     </g>
     <g id="text_8">
      <!-- 0.2 -->
      <g transform="translate(31.55625 296.139449257)scale(0.2 -0.2)">
       <use xlink:href="#BitstreamVeraSans-Roman-30"/>
       <use x="63.623046875" xlink:href="#BitstreamVeraSans-Roman-2e"/>
       <use x="95.41015625" xlink:href="#BitstreamVeraSans-Roman-32"/>
      </g>
     </g>
    </g>
    <g id="ytick_3">
     <g id="line2d_133">
      <path clip-path="url(#pe518cbe7f4)" d="M 67.3625 222.185056 
L 513.7625 222.185056 
" style="fill:none;stroke:#000000;stroke-dasharray:1.000000,3.000000;stroke-dashoffset:0.0;stroke-width:0.5;"/>
     </g>
     <g id="line2d_134">
      <g>
       <use style="stroke:#000000;stroke-width:0.5;" x="67.3625" xlink:href="#mfcc87a63cf" y="222.185055693"/>
      </g>
     </g>
     <g id="line2d_135">
      <g>
       <use style="stroke:#000000;stroke-width:0.5;" x="513.7625" xlink:href="#m7ea8d332d3" y="222.185055693"/>
      </g>
     </g>
     <g id="text_9">
      <!-- 0.4 -->
      <g transform="translate(31.55625 227.703805693)scale(0.2 -0.2)">
       <use xlink:href="#BitstreamVeraSans-Roman-30"/>
       <use x="63.623046875" xlink:href="#BitstreamVeraSans-Roman-2e"/>
       <use x="95.41015625" xlink:href="#BitstreamVeraSans-Roman-34"/>
      </g>
     </g>
    </g>
    <g id="ytick_4">
     <g id="line2d_136">
      <path clip-path="url(#pe518cbe7f4)" d="M 67.3625 153.749412 
L 513.7625 153.749412 
" style="fill:none;stroke:#000000;stroke-dasharray:1.000000,3.000000;stroke-dashoffset:0.0;stroke-width:0.5;"/>
     </g>
     <g id="line2d_137">
      <g>
       <use style="stroke:#000000;stroke-width:0.5;" x="67.3625" xlink:href="#mfcc87a63cf" y="153.749412129"/>
      </g>
     </g>
     <g id="line2d_138">
      <g>
       <use style="stroke:#000000;stroke-width:0.5;" x="513.7625" xlink:href="#m7ea8d332d3" y="153.749412129"/>
      </g>
     </g>
     <g id="text_10">
      <!-- 0.6 -->
      <defs>
       <path d="M 33.015625 40.375 
Q 26.375 40.375 22.484375 35.828125 
Q 18.609375 31.296875 18.609375 23.390625 
Q 18.609375 15.53125 22.484375 10.953125 
Q 26.375 6.390625 33.015625 6.390625 
Q 39.65625 6.390625 43.53125 10.953125 
Q 47.40625 15.53125 47.40625 23.390625 
Q 47.40625 31.296875 43.53125 35.828125 
Q 39.65625 40.375 33.015625 40.375 
M 52.59375 71.296875 
L 52.59375 62.3125 
Q 48.875 64.0625 45.09375 64.984375 
Q 41.3125 65.921875 37.59375 65.921875 
Q 27.828125 65.921875 22.671875 59.328125 
Q 17.53125 52.734375 16.796875 39.40625 
Q 19.671875 43.65625 24.015625 45.921875 
Q 28.375 48.1875 33.59375 48.1875 
Q 44.578125 48.1875 50.953125 41.515625 
Q 57.328125 34.859375 57.328125 23.390625 
Q 57.328125 12.15625 50.6875 5.359375 
Q 44.046875 -1.421875 33.015625 -1.421875 
Q 20.359375 -1.421875 13.671875 8.265625 
Q 6.984375 17.96875 6.984375 36.375 
Q 6.984375 53.65625 15.1875 63.9375 
Q 23.390625 74.21875 37.203125 74.21875 
Q 40.921875 74.21875 44.703125 73.484375 
Q 48.484375 72.75 52.59375 71.296875 
" id="BitstreamVeraSans-Roman-36"/>
      </defs>
      <g transform="translate(31.55625 159.268162129)scale(0.2 -0.2)">
       <use xlink:href="#BitstreamVeraSans-Roman-30"/>
       <use x="63.623046875" xlink:href="#BitstreamVeraSans-Roman-2e"/>
       <use x="95.41015625" xlink:href="#BitstreamVeraSans-Roman-36"/>
      </g>
     </g>
    </g>
    <g id="ytick_5">
     <g id="line2d_139">
      <path clip-path="url(#pe518cbe7f4)" d="M 67.3625 85.313769 
L 513.7625 85.313769 
" style="fill:none;stroke:#000000;stroke-dasharray:1.000000,3.000000;stroke-dashoffset:0.0;stroke-width:0.5;"/>
     </g>
     <g id="line2d_140">
      <g>
       <use style="stroke:#000000;stroke-width:0.5;" x="67.3625" xlink:href="#mfcc87a63cf" y="85.3137685644"/>
      </g>
     </g>
     <g id="line2d_141">
      <g>
       <use style="stroke:#000000;stroke-width:0.5;" x="513.7625" xlink:href="#m7ea8d332d3" y="85.3137685644"/>
      </g>
     </g>
     <g id="text_11">
      <!-- 0.8 -->
      <defs>
       <path d="M 31.78125 34.625 
Q 24.75 34.625 20.71875 30.859375 
Q 16.703125 27.09375 16.703125 20.515625 
Q 16.703125 13.921875 20.71875 10.15625 
Q 24.75 6.390625 31.78125 6.390625 
Q 38.8125 6.390625 42.859375 10.171875 
Q 46.921875 13.96875 46.921875 20.515625 
Q 46.921875 27.09375 42.890625 30.859375 
Q 38.875 34.625 31.78125 34.625 
M 21.921875 38.8125 
Q 15.578125 40.375 12.03125 44.71875 
Q 8.5 49.078125 8.5 55.328125 
Q 8.5 64.0625 14.71875 69.140625 
Q 20.953125 74.21875 31.78125 74.21875 
Q 42.671875 74.21875 48.875 69.140625 
Q 55.078125 64.0625 55.078125 55.328125 
Q 55.078125 49.078125 51.53125 44.71875 
Q 48 40.375 41.703125 38.8125 
Q 48.828125 37.15625 52.796875 32.3125 
Q 56.78125 27.484375 56.78125 20.515625 
Q 56.78125 9.90625 50.3125 4.234375 
Q 43.84375 -1.421875 31.78125 -1.421875 
Q 19.734375 -1.421875 13.25 4.234375 
Q 6.78125 9.90625 6.78125 20.515625 
Q 6.78125 27.484375 10.78125 32.3125 
Q 14.796875 37.15625 21.921875 38.8125 
M 18.3125 54.390625 
Q 18.3125 48.734375 21.84375 45.5625 
Q 25.390625 42.390625 31.78125 42.390625 
Q 38.140625 42.390625 41.71875 45.5625 
Q 45.3125 48.734375 45.3125 54.390625 
Q 45.3125 60.0625 41.71875 63.234375 
Q 38.140625 66.40625 31.78125 66.40625 
Q 25.390625 66.40625 21.84375 63.234375 
Q 18.3125 60.0625 18.3125 54.390625 
" id="BitstreamVeraSans-Roman-38"/>
      </defs>
      <g transform="translate(31.55625 90.8325185644)scale(0.2 -0.2)">
       <use xlink:href="#BitstreamVeraSans-Roman-30"/>
       <use x="63.623046875" xlink:href="#BitstreamVeraSans-Roman-2e"/>
       <use x="95.41015625" xlink:href="#BitstreamVeraSans-Roman-38"/>
      </g>
     </g>
    </g>
    <g id="ytick_6">
     <g id="line2d_142">
      <path clip-path="url(#pe518cbe7f4)" d="M 67.3625 16.878125 
L 513.7625 16.878125 
" style="fill:none;stroke:#000000;stroke-dasharray:1.000000,3.000000;stroke-dashoffset:0.0;stroke-width:0.5;"/>
     </g>
     <g id="line2d_143">
      <g>
       <use style="stroke:#000000;stroke-width:0.5;" x="67.3625" xlink:href="#mfcc87a63cf" y="16.878125"/>
      </g>
     </g>
     <g id="line2d_144">
      <g>
       <use style="stroke:#000000;stroke-width:0.5;" x="513.7625" xlink:href="#m7ea8d332d3" y="16.878125"/>
      </g>
     </g>
     <g id="text_12">
      <!-- 1.0 -->
      <g transform="translate(31.55625 22.396875)scale(0.2 -0.2)">
       <use xlink:href="#BitstreamVeraSans-Roman-31"/>
       <use x="63.623046875" xlink:href="#BitstreamVeraSans-Roman-2e"/>
       <use x="95.41015625" xlink:href="#BitstreamVeraSans-Roman-30"/>
      </g>
     </g>
    </g>
    <g id="text_13">
     <!-- proportion of trials -->
     <defs>
      <path d="M 54.890625 33.015625 
L 54.890625 0 
L 45.90625 0 
L 45.90625 32.71875 
Q 45.90625 40.484375 42.875 44.328125 
Q 39.84375 48.1875 33.796875 48.1875 
Q 26.515625 48.1875 22.3125 43.546875 
Q 18.109375 38.921875 18.109375 30.90625 
L 18.109375 0 
L 9.078125 0 
L 9.078125 54.6875 
L 18.109375 54.6875 
L 18.109375 46.1875 
Q 21.34375 51.125 25.703125 53.5625 
Q 30.078125 56 35.796875 56 
Q 45.21875 56 50.046875 50.171875 
Q 54.890625 44.34375 54.890625 33.015625 
" id="BitstreamVeraSans-Roman-6e"/>
      <path d="M 9.421875 54.6875 
L 18.40625 54.6875 
L 18.40625 0 
L 9.421875 0 
z
M 9.421875 75.984375 
L 18.40625 75.984375 
L 18.40625 64.59375 
L 9.421875 64.59375 
z
" id="BitstreamVeraSans-Roman-69"/>
      <path d="M 18.3125 70.21875 
L 18.3125 54.6875 
L 36.8125 54.6875 
L 36.8125 47.703125 
L 18.3125 47.703125 
L 18.3125 18.015625 
Q 18.3125 11.328125 20.140625 9.421875 
Q 21.96875 7.515625 27.59375 7.515625 
L 36.8125 7.515625 
L 36.8125 0 
L 27.59375 0 
Q 17.1875 0 13.234375 3.875 
Q 9.28125 7.765625 9.28125 18.015625 
L 9.28125 47.703125 
L 2.6875 47.703125 
L 2.6875 54.6875 
L 9.28125 54.6875 
L 9.28125 70.21875 
z
" id="BitstreamVeraSans-Roman-74"/>
      <path d="M 41.109375 46.296875 
Q 39.59375 47.171875 37.8125 47.578125 
Q 36.03125 48 33.890625 48 
Q 26.265625 48 22.1875 43.046875 
Q 18.109375 38.09375 18.109375 28.8125 
L 18.109375 0 
L 9.078125 0 
L 9.078125 54.6875 
L 18.109375 54.6875 
L 18.109375 46.1875 
Q 20.953125 51.171875 25.484375 53.578125 
Q 30.03125 56 36.53125 56 
Q 37.453125 56 38.578125 55.875 
Q 39.703125 55.765625 41.0625 55.515625 
z
" id="BitstreamVeraSans-Roman-72"/>
      <path d="M 18.109375 8.203125 
L 18.109375 -20.796875 
L 9.078125 -20.796875 
L 9.078125 54.6875 
L 18.109375 54.6875 
L 18.109375 46.390625 
Q 20.953125 51.265625 25.265625 53.625 
Q 29.59375 56 35.59375 56 
Q 45.5625 56 51.78125 48.09375 
Q 58.015625 40.1875 58.015625 27.296875 
Q 58.015625 14.40625 51.78125 6.484375 
Q 45.5625 -1.421875 35.59375 -1.421875 
Q 29.59375 -1.421875 25.265625 0.953125 
Q 20.953125 3.328125 18.109375 8.203125 
M 48.6875 27.296875 
Q 48.6875 37.203125 44.609375 42.84375 
Q 40.53125 48.484375 33.40625 48.484375 
Q 26.265625 48.484375 22.1875 42.84375 
Q 18.109375 37.203125 18.109375 27.296875 
Q 18.109375 17.390625 22.1875 11.75 
Q 26.265625 6.109375 33.40625 6.109375 
Q 40.53125 6.109375 44.609375 11.75 
Q 48.6875 17.390625 48.6875 27.296875 
" id="BitstreamVeraSans-Roman-70"/>
     </defs>
     <g transform="translate(22.396875 279.484467822)rotate(-90.0)scale(0.2 -0.2)">
      <use xlink:href="#BitstreamVeraSans-Roman-70"/>
      <use x="63.4765625" xlink:href="#BitstreamVeraSans-Roman-72"/>
      <use x="104.55859375" xlink:href="#BitstreamVeraSans-Roman-6f"/>
      <use x="165.740234375" xlink:href="#BitstreamVeraSans-Roman-70"/>
      <use x="229.216796875" xlink:href="#BitstreamVeraSans-Roman-6f"/>
      <use x="290.3984375" xlink:href="#BitstreamVeraSans-Roman-72"/>
      <use x="331.51171875" xlink:href="#BitstreamVeraSans-Roman-74"/>
      <use x="370.720703125" xlink:href="#BitstreamVeraSans-Roman-69"/>
      <use x="398.50390625" xlink:href="#BitstreamVeraSans-Roman-6f"/>
      <use x="459.685546875" xlink:href="#BitstreamVeraSans-Roman-6e"/>
      <use x="523.064453125" xlink:href="#BitstreamVeraSans-Roman-20"/>
      <use x="554.8515625" xlink:href="#BitstreamVeraSans-Roman-6f"/>
      <use x="616.033203125" xlink:href="#BitstreamVeraSans-Roman-66"/>
      <use x="651.23828125" xlink:href="#BitstreamVeraSans-Roman-20"/>
      <use x="683.025390625" xlink:href="#BitstreamVeraSans-Roman-74"/>
      <use x="722.234375" xlink:href="#BitstreamVeraSans-Roman-72"/>
      <use x="763.34765625" xlink:href="#BitstreamVeraSans-Roman-69"/>
      <use x="791.130859375" xlink:href="#BitstreamVeraSans-Roman-61"/>
      <use x="852.41015625" xlink:href="#BitstreamVeraSans-Roman-6c"/>
      <use x="880.193359375" xlink:href="#BitstreamVeraSans-Roman-73"/>
     </g>
    </g>
   </g>
   <g id="text_14">
    <!-- {f15-f19}, 5-D -->
    <defs>
     <path d="M 10.796875 72.90625 
L 49.515625 72.90625 
L 49.515625 64.59375 
L 19.828125 64.59375 
L 19.828125 46.734375 
Q 21.96875 47.46875 24.109375 47.828125 
Q 26.265625 48.1875 28.421875 48.1875 
Q 40.625 48.1875 47.75 41.5 
Q 54.890625 34.8125 54.890625 23.390625 
Q 54.890625 11.625 47.5625 5.09375 
Q 40.234375 -1.421875 26.90625 -1.421875 
Q 22.3125 -1.421875 17.546875 -0.640625 
Q 12.796875 0.140625 7.71875 1.703125 
L 7.71875 11.625 
Q 12.109375 9.234375 16.796875 8.0625 
Q 21.484375 6.890625 26.703125 6.890625 
Q 35.15625 6.890625 40.078125 11.328125 
Q 45.015625 15.765625 45.015625 23.390625 
Q 45.015625 31 40.078125 35.4375 
Q 35.15625 39.890625 26.703125 39.890625 
Q 22.75 39.890625 18.8125 39.015625 
Q 14.890625 38.140625 10.796875 36.28125 
z
" id="BitstreamVeraSans-Roman-35"/>
     <path d="M 12.5 -9.28125 
L 15.921875 -9.28125 
Q 22.75 -9.28125 24.828125 -7.171875 
Q 26.90625 -5.078125 26.90625 1.90625 
L 26.90625 14.015625 
Q 26.90625 21.625 29.09375 25.09375 
Q 31.296875 28.5625 36.71875 29.890625 
Q 31.296875 31.109375 29.09375 34.5625 
Q 26.90625 38.03125 26.90625 45.703125 
L 26.90625 57.8125 
Q 26.90625 64.75 24.828125 66.875 
Q 22.75 69 15.921875 69 
L 12.5 69 
L 12.5 75.984375 
L 15.578125 75.984375 
Q 27.734375 75.984375 31.8125 72.390625 
Q 35.890625 68.796875 35.890625 58.015625 
L 35.890625 46.296875 
Q 35.890625 39.015625 38.515625 36.203125 
Q 41.15625 33.40625 48.09375 33.40625 
L 51.125 33.40625 
L 51.125 26.421875 
L 48.09375 26.421875 
Q 41.15625 26.421875 38.515625 23.578125 
Q 35.890625 20.75 35.890625 13.375 
L 35.890625 1.703125 
Q 35.890625 -9.078125 31.8125 -12.6875 
Q 27.734375 -16.3125 15.578125 -16.3125 
L 12.5 -16.3125 
z
" id="BitstreamVeraSans-Roman-7d"/>
     <path d="M 10.984375 1.515625 
L 10.984375 10.5 
Q 14.703125 8.734375 18.5 7.8125 
Q 22.3125 6.890625 25.984375 6.890625 
Q 35.75 6.890625 40.890625 13.453125 
Q 46.046875 20.015625 46.78125 33.40625 
Q 43.953125 29.203125 39.59375 26.953125 
Q 35.25 24.703125 29.984375 24.703125 
Q 19.046875 24.703125 12.671875 31.3125 
Q 6.296875 37.9375 6.296875 49.421875 
Q 6.296875 60.640625 12.9375 67.421875 
Q 19.578125 74.21875 30.609375 74.21875 
Q 43.265625 74.21875 49.921875 64.515625 
Q 56.59375 54.828125 56.59375 36.375 
Q 56.59375 19.140625 48.40625 8.859375 
Q 40.234375 -1.421875 26.421875 -1.421875 
Q 22.703125 -1.421875 18.890625 -0.6875 
Q 15.09375 0.046875 10.984375 1.515625 
M 30.609375 32.421875 
Q 37.25 32.421875 41.125 36.953125 
Q 45.015625 41.5 45.015625 49.421875 
Q 45.015625 57.28125 41.125 61.84375 
Q 37.25 66.40625 30.609375 66.40625 
Q 23.96875 66.40625 20.09375 61.84375 
Q 16.21875 57.28125 16.21875 49.421875 
Q 16.21875 41.5 20.09375 36.953125 
Q 23.96875 32.421875 30.609375 32.421875 
" id="BitstreamVeraSans-Roman-39"/>
     <path d="M 51.125 -9.28125 
L 51.125 -16.3125 
L 48.09375 -16.3125 
Q 35.9375 -16.3125 31.8125 -12.6875 
Q 27.6875 -9.078125 27.6875 1.703125 
L 27.6875 13.375 
Q 27.6875 20.75 25.046875 23.578125 
Q 22.40625 26.421875 15.484375 26.421875 
L 12.5 26.421875 
L 12.5 33.40625 
L 15.484375 33.40625 
Q 22.46875 33.40625 25.078125 36.203125 
Q 27.6875 39.015625 27.6875 46.296875 
L 27.6875 58.015625 
Q 27.6875 68.796875 31.8125 72.390625 
Q 35.9375 75.984375 48.09375 75.984375 
L 51.125 75.984375 
L 51.125 69 
L 47.796875 69 
Q 40.921875 69 38.8125 66.84375 
Q 36.71875 64.703125 36.71875 57.8125 
L 36.71875 45.703125 
Q 36.71875 38.03125 34.5 34.5625 
Q 32.28125 31.109375 26.90625 29.890625 
Q 32.328125 28.5625 34.515625 25.09375 
Q 36.71875 21.625 36.71875 14.015625 
L 36.71875 1.90625 
Q 36.71875 -4.984375 38.8125 -7.125 
Q 40.921875 -9.28125 47.796875 -9.28125 
z
" id="BitstreamVeraSans-Roman-7b"/>
     <path d="M 11.71875 12.40625 
L 22.015625 12.40625 
L 22.015625 4 
L 14.015625 -11.625 
L 7.71875 -11.625 
L 11.71875 4 
z
" id="BitstreamVeraSans-Roman-2c"/>
     <path d="M 4.890625 31.390625 
L 31.203125 31.390625 
L 31.203125 23.390625 
L 4.890625 23.390625 
z
" id="BitstreamVeraSans-Roman-2d"/>
    </defs>
    <g transform="translate(217.7125 35.5652178218)scale(0.2 -0.2)">
     <use xlink:href="#BitstreamVeraSans-Roman-7b"/>
     <use x="63.623046875" xlink:href="#BitstreamVeraSans-Roman-66"/>
     <use x="98.828125" xlink:href="#BitstreamVeraSans-Roman-31"/>
     <use x="162.451171875" xlink:href="#BitstreamVeraSans-Roman-35"/>
     <use x="226.07421875" xlink:href="#BitstreamVeraSans-Roman-2d"/>
     <use x="262.158203125" xlink:href="#BitstreamVeraSans-Roman-66"/>
     <use x="297.36328125" xlink:href="#BitstreamVeraSans-Roman-31"/>
     <use x="360.986328125" xlink:href="#BitstreamVeraSans-Roman-39"/>
     <use x="424.609375" xlink:href="#BitstreamVeraSans-Roman-7d"/>
     <use x="488.232421875" xlink:href="#BitstreamVeraSans-Roman-2c"/>
     <use x="520.01953125" xlink:href="#BitstreamVeraSans-Roman-20"/>
     <use x="551.806640625" xlink:href="#BitstreamVeraSans-Roman-35"/>
     <use x="615.4296875" xlink:href="#BitstreamVeraSans-Roman-2d"/>
     <use x="651.513671875" xlink:href="#BitstreamVeraSans-Roman-44"/>
    </g>
   </g>
   <g id="text_15">
    <!-- absolute targets -->
    <defs>
     <path d="M 56.203125 29.59375 
L 56.203125 25.203125 
L 14.890625 25.203125 
Q 15.484375 15.921875 20.484375 11.0625 
Q 25.484375 6.203125 34.421875 6.203125 
Q 39.59375 6.203125 44.453125 7.46875 
Q 49.3125 8.734375 54.109375 11.28125 
L 54.109375 2.78125 
Q 49.265625 0.734375 44.1875 -0.34375 
Q 39.109375 -1.421875 33.890625 -1.421875 
Q 20.796875 -1.421875 13.15625 6.1875 
Q 5.515625 13.8125 5.515625 26.8125 
Q 5.515625 40.234375 12.765625 48.109375 
Q 20.015625 56 32.328125 56 
Q 43.359375 56 49.78125 48.890625 
Q 56.203125 41.796875 56.203125 29.59375 
M 47.21875 32.234375 
Q 47.125 39.59375 43.09375 43.984375 
Q 39.0625 48.390625 32.421875 48.390625 
Q 24.90625 48.390625 20.390625 44.140625 
Q 15.875 39.890625 15.1875 32.171875 
z
" id="BitstreamVeraSans-Roman-65"/>
     <path d="M 8.5 21.578125 
L 8.5 54.6875 
L 17.484375 54.6875 
L 17.484375 21.921875 
Q 17.484375 14.15625 20.5 10.265625 
Q 23.53125 6.390625 29.59375 6.390625 
Q 36.859375 6.390625 41.078125 11.03125 
Q 45.3125 15.671875 45.3125 23.6875 
L 45.3125 54.6875 
L 54.296875 54.6875 
L 54.296875 0 
L 45.3125 0 
L 45.3125 8.40625 
Q 42.046875 3.421875 37.71875 1 
Q 33.40625 -1.421875 27.6875 -1.421875 
Q 18.265625 -1.421875 13.375 4.4375 
Q 8.5 10.296875 8.5 21.578125 
" id="BitstreamVeraSans-Roman-75"/>
     <path d="M 48.6875 27.296875 
Q 48.6875 37.203125 44.609375 42.84375 
Q 40.53125 48.484375 33.40625 48.484375 
Q 26.265625 48.484375 22.1875 42.84375 
Q 18.109375 37.203125 18.109375 27.296875 
Q 18.109375 17.390625 22.1875 11.75 
Q 26.265625 6.109375 33.40625 6.109375 
Q 40.53125 6.109375 44.609375 11.75 
Q 48.6875 17.390625 48.6875 27.296875 
M 18.109375 46.390625 
Q 20.953125 51.265625 25.265625 53.625 
Q 29.59375 56 35.59375 56 
Q 45.5625 56 51.78125 48.09375 
Q 58.015625 40.1875 58.015625 27.296875 
Q 58.015625 14.40625 51.78125 6.484375 
Q 45.5625 -1.421875 35.59375 -1.421875 
Q 29.59375 -1.421875 25.265625 0.953125 
Q 20.953125 3.328125 18.109375 8.203125 
L 18.109375 0 
L 9.078125 0 
L 9.078125 75.984375 
L 18.109375 75.984375 
z
" id="BitstreamVeraSans-Roman-62"/>
    </defs>
    <g transform="translate(67.3625 359.056342822)scale(0.14 -0.14)">
     <use xlink:href="#BitstreamVeraSans-Roman-61"/>
     <use x="61.279296875" xlink:href="#BitstreamVeraSans-Roman-62"/>
     <use x="124.755859375" xlink:href="#BitstreamVeraSans-Roman-73"/>
     <use x="176.85546875" xlink:href="#BitstreamVeraSans-Roman-6f"/>
     <use x="238.037109375" xlink:href="#BitstreamVeraSans-Roman-6c"/>
     <use x="265.8203125" xlink:href="#BitstreamVeraSans-Roman-75"/>
     <use x="329.19921875" xlink:href="#BitstreamVeraSans-Roman-74"/>
     <use x="368.408203125" xlink:href="#BitstreamVeraSans-Roman-65"/>
     <use x="429.931640625" xlink:href="#BitstreamVeraSans-Roman-20"/>
     <use x="461.71875" xlink:href="#BitstreamVeraSans-Roman-74"/>
     <use x="500.927734375" xlink:href="#BitstreamVeraSans-Roman-61"/>
     <use x="562.20703125" xlink:href="#BitstreamVeraSans-Roman-72"/>
     <use x="603.3046875" xlink:href="#BitstreamVeraSans-Roman-67"/>
     <use x="666.78125" xlink:href="#BitstreamVeraSans-Roman-65"/>
     <use x="728.3046875" xlink:href="#BitstreamVeraSans-Roman-74"/>
     <use x="767.513671875" xlink:href="#BitstreamVeraSans-Roman-73"/>
    </g>
   </g>
   <g id="text_16">
    <!-- 1.2.1.2 -->
    <g style="fill:#808080;" transform="translate(273.0703125 353.520655322)scale(0.1 -0.1)">
     <use xlink:href="#BitstreamVeraSans-Roman-31"/>
     <use x="63.623046875" xlink:href="#BitstreamVeraSans-Roman-2e"/>
     <use x="95.41015625" xlink:href="#BitstreamVeraSans-Roman-32"/>
     <use x="159.033203125" xlink:href="#BitstreamVeraSans-Roman-2e"/>
     <use x="190.8203125" xlink:href="#BitstreamVeraSans-Roman-31"/>
     <use x="254.443359375" xlink:href="#BitstreamVeraSans-Roman-2e"/>
     <use x="286.23046875" xlink:href="#BitstreamVeraSans-Roman-32"/>
    </g>
   </g>
   <g id="legend_1">
    <g id="patch_7">
     <path d="M 77.3625 146.881343 
L 214.584375 146.881343 
L 214.584375 23.456343 
L 77.3625 23.456343 
z
" style="fill:#ffffff;opacity:0.2;stroke:#000000;stroke-linejoin:miter;"/>
    </g>
    <g id="line2d_145">
     <path d="M 91.3625 39.653218 
L 119.3625 39.653218 
" style="fill:none;stroke:#000000;stroke-linecap:square;"/>
    </g>
    <g id="line2d_146"/>
    <g id="text_17">
     <!-- 1: 5/5 -->
     <defs>
      <path d="M 11.71875 12.40625 
L 22.015625 12.40625 
L 22.015625 0 
L 11.71875 0 
z
M 11.71875 51.703125 
L 22.015625 51.703125 
L 22.015625 39.3125 
L 11.71875 39.3125 
z
" id="BitstreamVeraSans-Roman-3a"/>
     </defs>
     <g transform="translate(141.3625 46.6532178218)scale(0.2 -0.2)">
      <use xlink:href="#BitstreamVeraSans-Roman-31"/>
      <use x="63.623046875" xlink:href="#BitstreamVeraSans-Roman-3a"/>
      <use x="97.314453125" xlink:href="#BitstreamVeraSans-Roman-20"/>
      <use x="129.1015625" xlink:href="#BitstreamVeraSans-Roman-35"/>
      <use x="192.724609375" xlink:href="#BitstreamVeraSans-Roman-2f"/>
      <use x="226.416015625" xlink:href="#BitstreamVeraSans-Roman-35"/>
     </g>
    </g>
    <g id="line2d_147">
     <path d="M 91.3625 69.009468 
L 119.3625 69.009468 
" style="fill:none;stroke:#00bfbf;stroke-linecap:square;"/>
    </g>
    <g id="line2d_148"/>
    <g id="text_18">
     <!-- -1: 3/5 -->
     <g transform="translate(141.3625 76.0094678218)scale(0.2 -0.2)">
      <use xlink:href="#BitstreamVeraSans-Roman-2d"/>
      <use x="36.083984375" xlink:href="#BitstreamVeraSans-Roman-31"/>
      <use x="99.70703125" xlink:href="#BitstreamVeraSans-Roman-3a"/>
      <use x="133.3984375" xlink:href="#BitstreamVeraSans-Roman-20"/>
      <use x="165.185546875" xlink:href="#BitstreamVeraSans-Roman-33"/>
      <use x="228.80859375" xlink:href="#BitstreamVeraSans-Roman-2f"/>
      <use x="262.5" xlink:href="#BitstreamVeraSans-Roman-35"/>
     </g>
    </g>
    <g id="line2d_149">
     <path d="M 91.3625 98.365718 
L 119.3625 98.365718 
" style="fill:none;stroke:#bf00bf;stroke-linecap:square;"/>
    </g>
    <g id="line2d_150"/>
    <g id="text_19">
     <!-- -4: 1/5 -->
     <g transform="translate(141.3625 105.365717822)scale(0.2 -0.2)">
      <use xlink:href="#BitstreamVeraSans-Roman-2d"/>
      <use x="36.083984375" xlink:href="#BitstreamVeraSans-Roman-34"/>
      <use x="99.70703125" xlink:href="#BitstreamVeraSans-Roman-3a"/>
      <use x="133.3984375" xlink:href="#BitstreamVeraSans-Roman-20"/>
      <use x="165.185546875" xlink:href="#BitstreamVeraSans-Roman-31"/>
      <use x="228.80859375" xlink:href="#BitstreamVeraSans-Roman-2f"/>
      <use x="262.5" xlink:href="#BitstreamVeraSans-Roman-35"/>
     </g>
    </g>
    <g id="line2d_151">
     <path d="M 91.3625 127.721968 
L 119.3625 127.721968 
" style="fill:none;stroke:#ff0000;stroke-linecap:square;stroke-width:3.0;"/>
    </g>
    <g id="line2d_152"/>
    <g id="text_20">
     <!-- -8: 1/5 -->
     <g transform="translate(141.3625 134.721967822)scale(0.2 -0.2)">
      <use xlink:href="#BitstreamVeraSans-Roman-2d"/>
      <use x="36.083984375" xlink:href="#BitstreamVeraSans-Roman-38"/>
      <use x="99.70703125" xlink:href="#BitstreamVeraSans-Roman-3a"/>
      <use x="133.3984375" xlink:href="#BitstreamVeraSans-Roman-20"/>
      <use x="165.185546875" xlink:href="#BitstreamVeraSans-Roman-31"/>
      <use x="228.80859375" xlink:href="#BitstreamVeraSans-Roman-2f"/>
      <use x="262.5" xlink:href="#BitstreamVeraSans-Roman-35"/>
     </g>
    </g>
   </g>
  </g>
 </g>
 <defs>
  <clipPath id="pe518cbe7f4">
   <rect height="345.6" width="446.4" x="67.3625" y="13.4563428218"/>
  </clipPath>
 </defs>
</svg>
