<?xml version="1.0" encoding="utf-8" standalone="no"?>
<!DOCTYPE svg PUBLIC "-//W3C//DTD SVG 1.1//EN"
  "http://www.w3.org/Graphics/SVG/1.1/DTD/svg11.dtd">
<!-- Created with matplotlib (http://matplotlib.org/) -->
<svg height="413pt" version="1.1" viewBox="0 0 520 413" width="520pt" xmlns="http://www.w3.org/2000/svg" xmlns:xlink="http://www.w3.org/1999/xlink">
 <defs>
  <style type="text/css">
*{stroke-linecap:butt;stroke-linejoin:round;stroke-miterlimit:100000;}
  </style>
 </defs>
 <g id="figure_1">
  <g id="patch_1">
   <path d="M 0 413.968843 
L 520.9625 413.968843 
L 520.9625 0 
L 0 0 
z
" style="fill:#ffffff;"/>
  </g>
  <g id="axes_1">
   <g id="patch_2">
    <path d="M 67.3625 359.056343 
L 513.7625 359.056343 
L 513.7625 13.456343 
L 67.3625 13.456343 
z
" style="fill:#ffffff;"/>
   </g>
   <g id="line2d_1">
    <path clip-path="url(#p5c6a467eb7)" d="M 270.790965 359.056343 
L 270.790965 354.493967 
L 275.109958 354.493967 
L 275.109958 349.93159 
L 276.46472 349.93159 
L 276.46472 345.369214 
L 278.079609 345.369214 
L 278.079609 340.806838 
L 278.277577 340.806838 
L 278.277577 336.244462 
L 278.670998 336.244462 
L 278.670998 331.682085 
L 284.029934 331.682085 
L 284.029934 327.119709 
L 286.411142 327.119709 
L 286.411142 322.557333 
L 289.614024 322.557333 
L 289.614024 317.994957 
L 294.319149 317.994957 
L 294.319149 313.43258 
L 295.628878 313.43258 
L 295.628878 308.870204 
L 303.545892 308.870204 
L 303.545892 304.307828 
L 312.626648 304.307828 
L 312.626648 299.745452 
L 319.002029 299.745452 
L 319.002029 295.183075 
L 319.937441 295.183075 
L 319.937441 290.620699 
L 320.814885 290.620699 
L 320.814885 286.058323 
L 321.714819 286.058323 
L 321.714819 281.495947 
L 322.062272 281.495947 
L 322.062272 276.933571 
L 325.436633 276.933571 
L 325.436633 272.371194 
L 326.532325 272.371194 
L 326.532325 267.808818 
L 342.436072 267.808818 
L 342.436072 263.246442 
L 343.635583 263.246442 
L 343.635583 258.684066 
L 345.11022 258.684066 
L 345.11022 254.121689 
L 348.233437 254.121689 
L 348.233437 249.559313 
L 359.421176 249.559313 
L 359.421176 244.996937 
L 364.39142 244.996937 
L 364.39142 240.434561 
L 368.188038 240.434561 
L 368.188038 235.872184 
L 382.119906 235.872184 
L 382.119906 231.309808 
L 382.119906 231.309808 
L 382.119906 231.309808 
L 513.7625 231.309808 
" style="fill:none;stroke:#f5deb3;stroke-linecap:square;"/>
   </g>
   <g id="line2d_2">
    <path clip-path="url(#p5c6a467eb7)" d="M 361.473558 359.056343 
L 361.473558 345.369214 
L 383.255671 345.369214 
L 383.255671 331.682085 
L 399.518396 331.682085 
L 399.518396 317.994957 
L 451.627901 317.994957 
L 451.627901 304.307828 
L 489.461922 304.307828 
L 489.461922 290.620699 
L 489.461922 290.620699 
L 489.461922 290.620699 
L 513.7625 290.620699 
" style="fill:none;stroke:#f5deb3;stroke-linecap:square;"/>
   </g>
   <g id="line2d_3">
    <path clip-path="url(#p5c6a467eb7)" d="M 224.947036 359.056343 
L 224.947036 354.493967 
L 230.518661 354.493967 
L 230.518661 349.93159 
L 274.363757 349.93159 
L 274.363757 345.369214 
L 276.155574 345.369214 
L 276.155574 340.806838 
L 278.866465 340.806838 
L 278.866465 336.244462 
L 286.741559 336.244462 
L 286.741559 331.682085 
L 291.509119 331.682085 
L 291.509119 327.119709 
L 295.628878 327.119709 
L 295.628878 322.557333 
L 299.098341 322.557333 
L 299.098341 317.994957 
L 299.662576 317.994957 
L 299.662576 313.43258 
L 304.901415 313.43258 
L 304.901415 308.870204 
L 307.499205 308.870204 
L 307.499205 304.307828 
L 315.149032 304.307828 
L 315.149032 299.745452 
L 317.371504 299.745452 
L 317.371504 295.183075 
L 325.508108 295.183075 
L 325.508108 290.620699 
L 335.234391 290.620699 
L 335.234391 286.058323 
L 345.714942 286.058323 
L 345.714942 281.495947 
L 358.675612 281.495947 
L 358.675612 276.933571 
L 359.455564 276.933571 
L 359.455564 272.371194 
L 361.915767 272.371194 
L 361.915767 267.808818 
L 366.53558 267.808818 
L 366.53558 263.246442 
L 371.60498 263.246442 
L 371.60498 258.684066 
L 372.677342 258.684066 
L 372.677342 254.121689 
L 388.441347 254.121689 
L 388.441347 249.559313 
L 392.502184 249.559313 
L 392.502184 244.996937 
L 428.168628 244.996937 
L 428.168628 240.434561 
L 431.002584 240.434561 
L 431.002584 235.872184 
L 431.685749 235.872184 
L 431.685749 231.309808 
L 444.275797 231.309808 
L 444.275797 226.747432 
L 463.952746 226.747432 
L 463.952746 222.185056 
L 463.952746 222.185056 
L 463.952746 222.185056 
L 513.7625 222.185056 
" style="fill:none;stroke:#f5deb3;stroke-linecap:square;"/>
   </g>
   <g id="line2d_4">
    <path clip-path="url(#p5c6a467eb7)" d="M 260.86508 359.056343 
L 260.86508 354.493967 
L 284.980027 354.493967 
L 284.980027 349.93159 
L 285.065443 349.93159 
L 285.065443 345.369214 
L 288.359262 345.369214 
L 288.359262 340.806838 
L 325.077595 340.806838 
L 325.077595 336.244462 
L 326.427413 336.244462 
L 326.427413 331.682085 
L 331.433994 331.682085 
L 331.433994 327.119709 
L 331.747243 327.119709 
L 331.747243 322.557333 
L 336.406833 322.557333 
L 336.406833 317.994957 
L 349.571006 317.994957 
L 349.571006 313.43258 
L 351.303345 313.43258 
L 351.303345 308.870204 
L 354.965585 308.870204 
L 354.965585 304.307828 
L 355.097926 304.307828 
L 355.097926 299.745452 
L 359.763912 299.745452 
L 359.763912 295.183075 
L 360.643361 295.183075 
L 360.643361 290.620699 
L 362.369947 290.620699 
L 362.369947 286.058323 
L 368.073976 286.058323 
L 368.073976 281.495947 
L 385.867393 281.495947 
L 385.867393 276.933571 
L 398.313671 276.933571 
L 398.313671 272.371194 
L 398.853785 272.371194 
L 398.853785 267.808818 
L 405.164806 267.808818 
L 405.164806 263.246442 
L 407.273611 263.246442 
L 407.273611 258.684066 
L 419.141837 258.684066 
L 419.141837 254.121689 
L 423.058285 254.121689 
L 423.058285 249.559313 
L 427.589977 249.559313 
L 427.589977 244.996937 
L 432.06858 244.996937 
L 432.06858 240.434561 
L 446.867642 240.434561 
L 446.867642 235.872184 
L 452.597157 235.872184 
L 452.597157 231.309808 
L 471.241901 231.309808 
L 471.241901 226.747432 
L 472.309222 226.747432 
L 472.309222 222.185056 
L 474.361385 222.185056 
L 474.361385 217.622679 
L 478.12283 217.622679 
L 478.12283 213.060303 
L 485.390733 213.060303 
L 485.390733 208.497927 
L 485.390733 208.497927 
L 485.390733 208.497927 
L 513.7625 208.497927 
" style="fill:none;stroke:#f5deb3;stroke-linecap:square;"/>
   </g>
   <g id="line2d_5">
    <path clip-path="url(#p5c6a467eb7)" d="M 272.387996 359.056343 
L 272.387996 354.493967 
L 283.326536 354.493967 
L 283.326536 349.93159 
L 325.113624 349.93159 
L 325.113624 345.369214 
L 340.512037 345.369214 
L 340.512037 340.806838 
L 369.438433 340.806838 
L 369.438433 336.244462 
L 387.820445 336.244462 
L 387.820445 331.682085 
L 394.00426 331.682085 
L 394.00426 327.119709 
L 395.165509 327.119709 
L 395.165509 322.557333 
L 395.648802 322.557333 
L 395.648802 317.994957 
L 405.720093 317.994957 
L 405.720093 313.43258 
L 408.883622 313.43258 
L 408.883622 308.870204 
L 408.895474 308.870204 
L 408.895474 304.307828 
L 412.408976 304.307828 
L 412.408976 299.745452 
L 416.138771 299.745452 
L 416.138771 295.183075 
L 419.122826 295.183075 
L 419.122826 290.620699 
L 422.389679 290.620699 
L 422.389679 286.058323 
L 422.526823 286.058323 
L 422.526823 281.495947 
L 424.371531 281.495947 
L 424.371531 276.933571 
L 428.531024 276.933571 
L 428.531024 272.371194 
L 433.746354 272.371194 
L 433.746354 267.808818 
L 439.864171 267.808818 
L 439.864171 263.246442 
L 443.9595 263.246442 
L 443.9595 258.684066 
L 444.433141 258.684066 
L 444.433141 254.121689 
L 458.856191 254.121689 
L 458.856191 249.559313 
L 459.382389 249.559313 
L 459.382389 244.996937 
L 460.759688 244.996937 
L 460.759688 240.434561 
L 464.050373 240.434561 
L 464.050373 235.872184 
L 466.950426 235.872184 
L 466.950426 231.309808 
L 468.22889 231.309808 
L 468.22889 226.747432 
L 474.065398 226.747432 
L 474.065398 222.185056 
L 521.9625 222.185056 
" style="fill:none;stroke:#f5deb3;stroke-linecap:square;"/>
   </g>
   <g id="line2d_6"/>
   <g id="line2d_7">
    <path clip-path="url(#p5c6a467eb7)" d="M 288.990882 359.056343 
L 288.990882 354.493967 
L 297.100636 354.493967 
L 297.100636 349.93159 
L 299.475258 349.93159 
L 299.475258 345.369214 
L 304.397721 345.369214 
L 304.397721 340.806838 
L 314.6554 340.806838 
L 314.6554 336.244462 
L 381.589469 336.244462 
L 381.589469 331.682085 
L 398.76543 331.682085 
L 398.76543 327.119709 
L 403.002744 327.119709 
L 403.002744 322.557333 
L 404.020739 322.557333 
L 404.020739 317.994957 
L 409.131876 317.994957 
L 409.131876 313.43258 
L 421.980267 313.43258 
L 421.980267 308.870204 
L 424.878203 308.870204 
L 424.878203 304.307828 
L 426.378061 304.307828 
L 426.378061 299.745452 
L 426.645632 299.745452 
L 426.645632 295.183075 
L 428.422213 295.183075 
L 428.422213 290.620699 
L 430.599687 290.620699 
L 430.599687 286.058323 
L 436.323844 286.058323 
L 436.323844 281.495947 
L 437.790341 281.495947 
L 437.790341 276.933571 
L 439.313581 276.933571 
L 439.313581 272.371194 
L 446.85195 272.371194 
L 446.85195 267.808818 
L 448.750916 267.808818 
L 448.750916 263.246442 
L 450.625918 263.246442 
L 450.625918 258.684066 
L 455.831001 258.684066 
L 455.831001 254.121689 
L 460.133166 254.121689 
L 460.133166 249.559313 
L 464.596178 249.559313 
L 464.596178 244.996937 
L 478.621625 244.996937 
L 478.621625 240.434561 
L 478.787583 240.434561 
L 478.787583 235.872184 
L 485.046181 235.872184 
L 485.046181 231.309808 
L 504.354993 231.309808 
L 504.354993 226.747432 
L 507.058817 226.747432 
L 507.058817 222.185056 
L 509.160148 222.185056 
L 509.160148 217.622679 
L 518.033648 217.622679 
L 518.033648 213.060303 
L 521.030238 213.060303 
L 521.030238 208.497927 
L 521.87098 208.497927 
L 521.87098 203.935551 
L 521.9625 203.935551 
" style="fill:none;stroke:#f5deb3;stroke-linecap:square;"/>
   </g>
   <g id="line2d_8">
    <path clip-path="url(#p5c6a467eb7)" d="M 444.181688 359.056343 
L 444.181688 354.493967 
L 452.286399 354.493967 
L 452.286399 349.93159 
L 455.634406 349.93159 
L 455.634406 345.369214 
L 458.540027 345.369214 
L 458.540027 340.806838 
L 459.282429 340.806838 
L 459.282429 336.244462 
L 460.407456 336.244462 
L 460.407456 331.682085 
L 465.35214 331.682085 
L 465.35214 327.119709 
L 494.275531 327.119709 
L 494.275531 322.557333 
L 494.496329 322.557333 
L 494.496329 317.994957 
L 494.519756 317.994957 
L 494.519756 313.43258 
L 495.648884 313.43258 
L 495.648884 308.870204 
L 496.65914 308.870204 
L 496.65914 304.307828 
L 497.490843 304.307828 
L 497.490843 299.745452 
L 521.9625 299.745452 
" style="fill:none;stroke:#f5deb3;stroke-linecap:square;"/>
   </g>
   <g id="line2d_9">
    <path clip-path="url(#p5c6a467eb7)" d="M 277.980308 359.056343 
L 277.980308 354.493967 
L 283.591561 354.493967 
L 283.591561 349.93159 
L 298.590977 349.93159 
L 298.590977 345.369214 
L 299.787035 345.369214 
L 299.787035 340.806838 
L 345.039935 340.806838 
L 345.039935 336.244462 
L 350.51824 336.244462 
L 350.51824 331.682085 
L 356.050905 331.682085 
L 356.050905 327.119709 
L 360.290202 327.119709 
L 360.290202 322.557333 
L 367.39814 322.557333 
L 367.39814 317.994957 
L 385.003129 317.994957 
L 385.003129 313.43258 
L 386.572328 313.43258 
L 386.572328 308.870204 
L 386.610646 308.870204 
L 386.610646 304.307828 
L 400.209362 304.307828 
L 400.209362 299.745452 
L 403.776596 299.745452 
L 403.776596 295.183075 
L 416.577706 295.183075 
L 416.577706 290.620699 
L 421.693315 290.620699 
L 421.693315 286.058323 
L 424.760474 286.058323 
L 424.760474 281.495947 
L 426.629459 281.495947 
L 426.629459 276.933571 
L 431.489502 276.933571 
L 431.489502 272.371194 
L 434.503349 272.371194 
L 434.503349 267.808818 
L 438.584785 267.808818 
L 438.584785 263.246442 
L 438.58791 263.246442 
L 438.58791 258.684066 
L 442.049903 258.684066 
L 442.049903 254.121689 
L 448.476407 254.121689 
L 448.476407 249.559313 
L 451.604294 249.559313 
L 451.604294 244.996937 
L 454.791116 244.996937 
L 454.791116 240.434561 
L 458.991322 240.434561 
L 458.991322 235.872184 
L 469.124692 235.872184 
L 469.124692 231.309808 
L 470.889436 231.309808 
L 470.889436 226.747432 
L 472.615081 226.747432 
L 472.615081 222.185056 
L 482.22539 222.185056 
L 482.22539 217.622679 
L 484.605193 217.622679 
L 484.605193 213.060303 
L 490.689779 213.060303 
L 490.689779 208.497927 
L 504.04546 208.497927 
L 504.04546 203.935551 
L 504.244194 203.935551 
L 504.244194 199.373175 
L 506.158402 199.373175 
L 506.158402 194.810798 
L 510.723264 194.810798 
L 510.723264 190.248422 
L 514.161246 190.248422 
L 514.161246 185.686046 
L 515.53972 185.686046 
L 515.53972 181.12367 
L 515.751309 181.12367 
L 515.751309 176.561293 
L 521.023357 176.561293 
L 521.023357 171.998917 
L 521.315161 171.998917 
L 521.315161 167.436541 
L 521.9625 167.436541 
" style="fill:none;stroke:#f5deb3;stroke-linecap:square;"/>
   </g>
   <g id="line2d_10">
    <path clip-path="url(#p5c6a467eb7)" d="M 424.15451 359.056343 
L 424.15451 354.493967 
L 444.295149 354.493967 
L 444.295149 349.93159 
L 449.810919 349.93159 
L 449.810919 345.369214 
L 454.102593 345.369214 
L 454.102593 340.806838 
L 467.684328 340.806838 
L 467.684328 336.244462 
L 470.576662 336.244462 
L 470.576662 331.682085 
L 472.116842 331.682085 
L 472.116842 327.119709 
L 473.277112 327.119709 
L 473.277112 322.557333 
L 477.545751 322.557333 
L 477.545751 317.994957 
L 512.730458 317.994957 
L 512.730458 313.43258 
L 521.9625 313.43258 
" style="fill:none;stroke:#f5deb3;stroke-linecap:square;"/>
   </g>
   <g id="line2d_11">
    <path clip-path="url(#p5c6a467eb7)" d="M 357.68634 359.056343 
L 357.68634 354.493967 
L 396.770119 354.493967 
L 396.770119 349.93159 
L 414.403502 349.93159 
L 414.403502 345.369214 
L 422.764757 345.369214 
L 422.764757 340.806838 
L 426.778841 340.806838 
L 426.778841 336.244462 
L 430.98786 336.244462 
L 430.98786 331.682085 
L 432.572973 331.682085 
L 432.572973 327.119709 
L 434.08853 327.119709 
L 434.08853 322.557333 
L 445.863169 322.557333 
L 445.863169 317.994957 
L 447.914801 317.994957 
L 447.914801 313.43258 
L 447.986332 313.43258 
L 447.986332 308.870204 
L 450.837656 308.870204 
L 450.837656 304.307828 
L 458.55426 304.307828 
L 458.55426 299.745452 
L 459.0899 299.745452 
L 459.0899 295.183075 
L 462.750067 295.183075 
L 462.750067 290.620699 
L 463.598485 290.620699 
L 463.598485 286.058323 
L 464.277374 286.058323 
L 464.277374 281.495947 
L 464.820532 281.495947 
L 464.820532 276.933571 
L 465.820396 276.933571 
L 465.820396 272.371194 
L 471.357768 272.371194 
L 471.357768 267.808818 
L 485.610321 267.808818 
L 485.610321 263.246442 
L 486.403729 263.246442 
L 486.403729 258.684066 
L 488.954569 258.684066 
L 488.954569 254.121689 
L 494.048 254.121689 
L 494.048 249.559313 
L 495.681789 249.559313 
L 495.681789 244.996937 
L 498.04641 244.996937 
L 498.04641 240.434561 
L 509.928121 240.434561 
L 509.928121 235.872184 
L 511.363795 235.872184 
L 511.363795 231.309808 
L 511.503066 231.309808 
L 511.503066 226.747432 
L 514.778152 226.747432 
L 514.778152 222.185056 
L 519.929126 222.185056 
L 519.929126 217.622679 
L 521.9625 217.622679 
" style="fill:none;stroke:#f5deb3;stroke-linecap:square;"/>
   </g>
   <g id="line2d_12">
    <path clip-path="url(#p5c6a467eb7)" d="M 282.160284 359.056343 
L 282.160284 354.493967 
L 286.328169 354.493967 
L 286.328169 349.93159 
L 288.279702 349.93159 
L 288.279702 345.369214 
L 305.289434 345.369214 
L 305.289434 340.806838 
L 305.619459 340.806838 
L 305.619459 336.244462 
L 323.426649 336.244462 
L 323.426649 331.682085 
L 325.828393 331.682085 
L 325.828393 327.119709 
L 327.500234 327.119709 
L 327.500234 322.557333 
L 328.515362 322.557333 
L 328.515362 317.994957 
L 334.357349 317.994957 
L 334.357349 313.43258 
L 342.460864 313.43258 
L 342.460864 308.870204 
L 344.922556 308.870204 
L 344.922556 304.307828 
L 346.720706 304.307828 
L 346.720706 299.745452 
L 348.97171 299.745452 
L 348.97171 295.183075 
L 349.100784 295.183075 
L 349.100784 290.620699 
L 349.357859 290.620699 
L 349.357859 286.058323 
L 351.609636 286.058323 
L 351.609636 281.495947 
L 356.803088 281.495947 
L 356.803088 276.933571 
L 366.697616 276.933571 
L 366.697616 272.371194 
L 376.876946 272.371194 
L 376.876946 267.808818 
L 387.417535 267.808818 
L 387.417535 263.246442 
L 392.796456 263.246442 
L 392.796456 258.684066 
L 397.343584 258.684066 
L 397.343584 254.121689 
L 400.430307 254.121689 
L 400.430307 249.559313 
L 415.118887 249.559313 
L 415.118887 244.996937 
L 421.499518 244.996937 
L 421.499518 240.434561 
L 428.713099 240.434561 
L 428.713099 235.872184 
L 429.54081 235.872184 
L 429.54081 231.309808 
L 444.159517 231.309808 
L 444.159517 226.747432 
L 444.75445 226.747432 
L 444.75445 222.185056 
L 444.75445 222.185056 
L 444.75445 222.185056 
L 513.7625 222.185056 
" style="fill:none;stroke:#f5deb3;stroke-linecap:square;"/>
   </g>
   <g id="line2d_13">
    <path clip-path="url(#p5c6a467eb7)" d="M 357.882332 359.056343 
L 357.882332 354.493967 
L 373.93986 354.493967 
L 373.93986 349.93159 
L 380.027048 349.93159 
L 380.027048 345.369214 
L 381.407731 345.369214 
L 381.407731 340.806838 
L 387.689648 340.806838 
L 387.689648 336.244462 
L 392.746141 336.244462 
L 392.746141 331.682085 
L 396.908398 331.682085 
L 396.908398 327.119709 
L 397.237074 327.119709 
L 397.237074 322.557333 
L 397.237074 322.557333 
L 397.237074 317.994957 
L 400.187924 317.994957 
L 400.187924 313.43258 
L 417.04734 313.43258 
L 417.04734 308.870204 
L 417.04734 308.870204 
L 417.04734 308.870204 
L 513.7625 308.870204 
" style="fill:none;stroke:#f5deb3;stroke-linecap:square;"/>
   </g>
   <g id="line2d_14">
    <path clip-path="url(#p5c6a467eb7)" d="M 239.984953 359.056343 
L 239.984953 354.493967 
L 253.057573 354.493967 
L 253.057573 349.93159 
L 322.521534 349.93159 
L 322.521534 345.369214 
L 366.844433 345.369214 
L 366.844433 340.806838 
L 377.684737 340.806838 
L 377.684737 336.244462 
L 383.152623 336.244462 
L 383.152623 331.682085 
L 384.614897 331.682085 
L 384.614897 327.119709 
L 393.453892 327.119709 
L 393.453892 322.557333 
L 394.515884 322.557333 
L 394.515884 317.994957 
L 400.26648 317.994957 
L 400.26648 313.43258 
L 403.477924 313.43258 
L 403.477924 308.870204 
L 404.119351 308.870204 
L 404.119351 304.307828 
L 404.479148 304.307828 
L 404.479148 299.745452 
L 406.860682 299.745452 
L 406.860682 295.183075 
L 410.410998 295.183075 
L 410.410998 290.620699 
L 415.004748 290.620699 
L 415.004748 286.058323 
L 419.440228 286.058323 
L 419.440228 281.495947 
L 441.755982 281.495947 
L 441.755982 276.933571 
L 442.413987 276.933571 
L 442.413987 272.371194 
L 444.059616 272.371194 
L 444.059616 267.808818 
L 445.117017 267.808818 
L 445.117017 263.246442 
L 457.818618 263.246442 
L 457.818618 258.684066 
L 462.119897 258.684066 
L 462.119897 254.121689 
L 467.428108 254.121689 
L 467.428108 249.559313 
L 470.452533 249.559313 
L 470.452533 244.996937 
L 474.479831 244.996937 
L 474.479831 240.434561 
L 486.844617 240.434561 
L 486.844617 235.872184 
L 486.844617 235.872184 
L 486.844617 235.872184 
L 513.7625 235.872184 
" style="fill:none;stroke:#f5deb3;stroke-linecap:square;"/>
   </g>
   <g id="line2d_15">
    <path clip-path="url(#p5c6a467eb7)" d="M 508.934743 359.056343 
L 508.934743 354.493967 
L 511.036102 354.493967 
L 511.036102 349.93159 
L 514.339478 349.93159 
L 514.339478 345.369214 
L 518.137409 345.369214 
L 518.137409 340.806838 
L 521.168697 340.806838 
L 521.168697 336.244462 
L 521.9625 336.244462 
" style="fill:none;stroke:#f5deb3;stroke-linecap:square;"/>
   </g>
   <g id="line2d_16">
    <path clip-path="url(#p5c6a467eb7)" d="M 364.80681 359.056343 
L 364.80681 354.493967 
L 459.428298 354.493967 
L 459.428298 349.93159 
L 490.020596 349.93159 
L 490.020596 345.369214 
L 491.069756 345.369214 
L 491.069756 340.806838 
L 500.512636 340.806838 
L 500.512636 336.244462 
L 509.08696 336.244462 
L 509.08696 331.682085 
L 521.9625 331.682085 
" style="fill:none;stroke:#f5deb3;stroke-linecap:square;"/>
   </g>
   <g id="line2d_17">
    <path clip-path="url(#p5c6a467eb7)" d="M 375.886257 359.056343 
L 375.886257 354.493967 
L 378.660898 354.493967 
L 378.660898 349.93159 
L 400.699716 349.93159 
L 400.699716 345.369214 
L 484.835445 345.369214 
L 484.835445 340.806838 
L 521.9625 340.806838 
" style="fill:none;stroke:#f5deb3;stroke-linecap:square;"/>
   </g>
   <g id="line2d_18">
    <path clip-path="url(#p5c6a467eb7)" d="M 251.851703 359.056343 
L 251.851703 354.493967 
L 273.823316 354.493967 
L 273.823316 349.93159 
L 282.9708 349.93159 
L 282.9708 345.369214 
L 284.894454 345.369214 
L 284.894454 340.806838 
L 285.320751 340.806838 
L 285.320751 336.244462 
L 299.475258 336.244462 
L 299.475258 331.682085 
L 308.178456 331.682085 
L 308.178456 327.119709 
L 309.859354 327.119709 
L 309.859354 322.557333 
L 313.235334 322.557333 
L 313.235334 317.994957 
L 317.963431 317.994957 
L 317.963431 313.43258 
L 328.010573 313.43258 
L 328.010573 308.870204 
L 329.047823 308.870204 
L 329.047823 304.307828 
L 331.023584 304.307828 
L 331.023584 299.745452 
L 331.716013 299.745452 
L 331.716013 295.183075 
L 345.297128 295.183075 
L 345.297128 290.620699 
L 347.349577 290.620699 
L 347.349577 286.058323 
L 347.837781 286.058323 
L 347.837781 281.495947 
L 348.408208 281.495947 
L 348.408208 276.933571 
L 349.571006 276.933571 
L 349.571006 272.371194 
L 363.138352 272.371194 
L 363.138352 267.808818 
L 363.987871 267.808818 
L 363.987871 263.246442 
L 370.696522 263.246442 
L 370.696522 258.684066 
L 374.190798 258.684066 
L 374.190798 254.121689 
L 381.940237 254.121689 
L 381.940237 249.559313 
L 393.889795 249.559313 
L 393.889795 244.996937 
L 398.321113 244.996937 
L 398.321113 240.434561 
L 402.133596 240.434561 
L 402.133596 235.872184 
L 407.48176 235.872184 
L 407.48176 231.309808 
L 426.422763 231.309808 
L 426.422763 226.747432 
L 433.843387 226.747432 
L 433.843387 222.185056 
L 433.843387 222.185056 
L 433.843387 222.185056 
L 513.7625 222.185056 
" style="fill:none;stroke:#f5deb3;stroke-linecap:square;"/>
   </g>
   <g id="line2d_19">
    <path clip-path="url(#p5c6a467eb7)" d="M 421.935548 359.056343 
L 421.935548 357.387181 
L 421.935548 357.387181 
L 421.935548 357.387181 
L 421.935548 355.718019 
L 421.935548 355.718019 
L 421.935548 355.718019 
L 421.935548 354.048857 
L 426.170241 354.048857 
L 426.170241 349.041371 
L 430.223214 349.041371 
L 430.223214 344.033884 
L 435.248197 344.033884 
L 435.248197 339.026398 
L 436.47783 339.026398 
L 436.47783 334.018912 
L 436.862196 334.018912 
L 436.862196 329.011426 
L 440.645124 329.011426 
L 440.645124 324.00394 
L 440.821202 324.00394 
L 440.821202 318.996454 
L 441.680017 318.996454 
L 441.680017 313.988968 
L 443.587742 313.988968 
L 443.587742 308.981482 
L 445.988591 308.981482 
L 445.988591 303.973996 
L 446.807459 303.973996 
L 446.807459 298.966509 
L 447.008636 298.966509 
L 447.008636 293.959023 
L 447.506506 293.959023 
L 447.506506 288.951537 
L 449.970176 288.951537 
L 449.970176 283.944051 
L 458.053485 283.944051 
L 458.053485 278.936565 
L 459.825608 278.936565 
L 459.825608 273.929079 
L 466.412885 273.929079 
L 466.412885 268.921593 
L 471.141248 268.921593 
L 471.141248 263.914107 
L 472.619586 263.914107 
L 472.619586 258.906621 
L 473.506021 258.906621 
L 473.506021 253.899134 
L 473.942971 253.899134 
L 473.945889 243.884162 
L 477.11023 243.884162 
L 477.19875 233.86919 
L 478.87559 233.86919 
L 478.87559 228.861704 
L 482.438562 228.861704 
L 482.438562 223.854218 
L 486.084621 223.854218 
L 486.084621 218.846732 
L 487.601072 218.846732 
L 487.601072 213.839246 
L 487.79748 213.839246 
L 487.79748 208.831759 
L 498.996131 208.831759 
L 498.996131 203.824273 
L 500.964128 203.824273 
L 501.001622 193.809301 
L 502.532325 193.809301 
L 502.532325 188.801815 
L 504.294314 188.801815 
L 504.294314 183.794329 
L 506.050367 183.794329 
L 506.050367 178.786843 
L 506.464348 178.786843 
L 506.464348 173.779357 
L 509.600931 173.779357 
L 509.600931 168.77187 
L 510.102577 168.77187 
L 510.102577 163.764384 
L 511.480317 163.764384 
L 511.480317 158.756898 
L 511.732536 158.756898 
L 511.732536 153.749412 
L 521.9625 153.749412 
L 521.9625 153.749412 
" style="fill:none;stroke:#f5deb3;stroke-linecap:square;"/>
   </g>
   <g id="line2d_20">
    <path clip-path="url(#p5c6a467eb7)" d="M 246.296473 359.056343 
L 246.296473 354.493967 
L 246.296473 354.493967 
L 246.296473 349.93159 
L 251.148305 349.93159 
L 251.148305 345.369214 
L 253.732834 345.369214 
L 253.732834 340.806838 
L 269.016608 340.806838 
L 269.016608 336.244462 
L 290.228912 336.244462 
L 290.228912 331.682085 
L 295.560859 331.682085 
L 295.560859 327.119709 
L 303.717513 327.119709 
L 303.717513 322.557333 
L 313.744215 322.557333 
L 313.744215 317.994957 
L 325.185598 317.994957 
L 325.185598 313.43258 
L 326.741439 313.43258 
L 326.741439 308.870204 
L 329.146983 308.870204 
L 329.146983 304.307828 
L 331.023584 304.307828 
L 331.023584 299.745452 
L 335.002128 299.745452 
L 335.002128 295.183075 
L 335.118405 295.183075 
L 335.118405 290.620699 
L 342.953948 290.620699 
L 342.953948 286.058323 
L 346.652819 286.058323 
L 346.652819 281.495947 
L 347.483233 281.495947 
L 347.483233 276.933571 
L 348.320905 276.933571 
L 348.320905 272.371194 
L 349.507165 272.371194 
L 349.507165 267.808818 
L 353.229569 267.808818 
L 353.229569 263.246442 
L 357.579085 263.246442 
L 357.579085 258.684066 
L 364.898617 258.684066 
L 364.898617 254.121689 
L 364.9139 254.121689 
L 364.9139 249.559313 
L 366.800437 249.559313 
L 366.800437 244.996937 
L 379.639215 244.996937 
L 379.639215 240.434561 
L 380.977284 240.434561 
L 380.977284 235.872184 
L 382.758938 235.872184 
L 382.758938 231.309808 
L 405.65025 231.309808 
L 405.65025 226.747432 
L 407.646393 226.747432 
L 407.646393 222.185056 
L 521.9625 222.185056 
" style="fill:none;stroke:#f5deb3;stroke-linecap:square;"/>
   </g>
   <g id="line2d_21">
    <path clip-path="url(#p5c6a467eb7)" d="M 448.743382 359.056343 
L 448.743382 354.493967 
L 473.067894 354.493967 
L 473.067894 349.93159 
L 481.228246 349.93159 
L 481.228246 345.369214 
L 481.228246 345.369214 
L 481.228246 345.369214 
L 513.7625 345.369214 
" style="fill:none;stroke:#f5deb3;stroke-linecap:square;"/>
   </g>
   <g id="line2d_22">
    <path clip-path="url(#p5c6a467eb7)" d="M 229.116036 359.056343 
L 229.116036 354.493967 
L 236.231526 354.493967 
L 236.231526 349.93159 
L 245.502892 349.93159 
L 245.502892 345.369214 
L 246.688234 345.369214 
L 246.688234 340.806838 
L 253.732834 340.806838 
L 253.732834 336.244462 
L 257.59028 336.244462 
L 257.59028 331.682085 
L 315.945639 331.682085 
L 315.945639 327.119709 
L 345.11022 327.119709 
L 345.11022 322.557333 
L 347.483233 322.557333 
L 347.483233 317.994957 
L 351.873463 317.994957 
L 351.873463 313.43258 
L 354.642606 313.43258 
L 354.642606 308.870204 
L 363.375893 308.870204 
L 363.375893 304.307828 
L 367.354665 304.307828 
L 367.354665 299.745452 
L 376.330503 299.745452 
L 376.330503 295.183075 
L 381.429149 295.183075 
L 381.429149 290.620699 
L 386.887517 290.620699 
L 386.887517 286.058323 
L 409.862968 286.058323 
L 409.862968 281.495947 
L 410.536993 281.495947 
L 410.536993 276.933571 
L 414.398239 276.933571 
L 414.398239 272.371194 
L 415.91519 272.371194 
L 415.91519 267.808818 
L 419.60988 267.808818 
L 419.60988 263.246442 
L 430.42115 263.246442 
L 430.42115 258.684066 
L 442.157113 258.684066 
L 442.157113 254.121689 
L 449.695422 254.121689 
L 449.695422 249.559313 
L 450.676535 249.559313 
L 450.676535 244.996937 
L 451.540494 244.996937 
L 451.540494 240.434561 
L 467.614133 240.434561 
L 467.614133 235.872184 
L 479.791652 235.872184 
L 479.791652 231.309808 
L 487.468216 231.309808 
L 487.468216 226.747432 
L 499.224418 226.747432 
L 499.224418 222.185056 
L 502.915453 222.185056 
L 502.915453 217.622679 
L 508.083614 217.622679 
L 508.083614 213.060303 
L 515.093784 213.060303 
L 515.093784 208.497927 
L 519.126078 208.497927 
L 519.126078 203.935551 
L 521.9625 203.935551 
" style="fill:none;stroke:#f5deb3;stroke-linecap:square;"/>
   </g>
   <g id="line2d_23">
    <path clip-path="url(#p5c6a467eb7)" d="M 367.542761 359.056343 
L 367.542761 354.493967 
L 374.824616 354.493967 
L 374.824616 349.93159 
L 378.158154 349.93159 
L 378.158154 345.369214 
L 379.056956 345.369214 
L 379.056956 340.806838 
L 380.760554 340.806838 
L 380.760554 336.244462 
L 384.162864 336.244462 
L 384.162864 331.682085 
L 401.64438 331.682085 
L 401.64438 327.119709 
L 406.130671 327.119709 
L 406.130671 322.557333 
L 406.387795 322.557333 
L 406.387795 317.994957 
L 408.287142 317.994957 
L 408.287142 313.43258 
L 416.87802 313.43258 
L 416.87802 308.870204 
L 420.143058 308.870204 
L 420.143058 304.307828 
L 427.459078 304.307828 
L 427.459078 299.745452 
L 434.799333 299.745452 
L 434.799333 295.183075 
L 437.822127 295.183075 
L 437.822127 290.620699 
L 443.551245 290.620699 
L 443.551245 286.058323 
L 458.977222 286.058323 
L 458.977222 281.495947 
L 459.019509 281.495947 
L 459.019509 276.933571 
L 462.202662 276.933571 
L 462.202662 272.371194 
L 467.829393 272.371194 
L 467.829393 267.808818 
L 487.175026 267.808818 
L 487.175026 263.246442 
L 487.175026 263.246442 
L 487.175026 263.246442 
L 513.7625 263.246442 
" style="fill:none;stroke:#f5deb3;stroke-linecap:square;"/>
   </g>
   <g id="line2d_24">
    <path clip-path="url(#p5c6a467eb7)" d="M 318.131176 359.056343 
L 318.131176 354.493967 
L 319.695232 354.493967 
L 319.695232 349.93159 
L 327.087884 349.93159 
L 327.087884 345.369214 
L 328.347708 345.369214 
L 328.347708 340.806838 
L 335.407828 340.806838 
L 335.407828 336.244462 
L 336.463274 336.244462 
L 336.463274 331.682085 
L 347.05866 331.682085 
L 347.05866 327.119709 
L 374.812271 327.119709 
L 374.812271 322.557333 
L 405.433705 322.557333 
L 405.433705 317.994957 
L 406.500231 317.994957 
L 406.500231 313.43258 
L 408.082581 313.43258 
L 408.082581 308.870204 
L 409.653591 308.870204 
L 409.653591 304.307828 
L 411.750634 304.307828 
L 411.750634 299.745452 
L 412.737406 299.745452 
L 412.737406 295.183075 
L 413.003911 295.183075 
L 413.003911 290.620699 
L 416.067748 290.620699 
L 416.067748 286.058323 
L 426.292601 286.058323 
L 426.292601 281.495947 
L 427.132208 281.495947 
L 427.132208 276.933571 
L 428.414431 276.933571 
L 428.414431 272.371194 
L 439.525413 272.371194 
L 439.525413 267.808818 
L 445.900564 267.808818 
L 445.900564 263.246442 
L 447.195964 263.246442 
L 447.195964 258.684066 
L 448.685584 258.684066 
L 448.685584 254.121689 
L 448.89132 254.121689 
L 448.89132 249.559313 
L 451.863314 249.559313 
L 451.863314 244.996937 
L 459.402355 244.996937 
L 459.402355 240.434561 
L 461.389343 240.434561 
L 461.389343 235.872184 
L 462.133074 235.872184 
L 462.133074 231.309808 
L 468.978753 231.309808 
L 468.978753 226.747432 
L 473.284514 226.747432 
L 473.284514 222.185056 
L 475.327515 222.185056 
L 475.327515 217.622679 
L 480.403899 217.622679 
L 480.403899 213.060303 
L 482.255903 213.060303 
L 482.255903 208.497927 
L 487.463853 208.497927 
L 487.463853 203.935551 
L 494.607738 203.935551 
L 494.607738 199.373175 
L 496.291772 199.373175 
L 496.291772 194.810798 
L 502.456582 194.810798 
L 502.456582 190.248422 
L 520.858972 190.248422 
L 520.858972 185.686046 
L 521.9625 185.686046 
" style="fill:none;stroke:#f5deb3;stroke-linecap:square;"/>
   </g>
   <g id="line2d_25">
    <path clip-path="url(#p5c6a467eb7)" d="M 471.679134 359.056343 
L 471.679134 354.493967 
L 474.841954 354.493967 
L 474.841954 349.93159 
L 479.499956 349.93159 
L 479.499956 345.369214 
L 480.71522 345.369214 
L 480.71522 340.806838 
L 480.753044 340.806838 
L 480.753044 336.244462 
L 481.741834 336.244462 
L 481.741834 331.682085 
L 481.928981 331.682085 
L 481.928981 327.119709 
L 482.643501 327.119709 
L 482.643501 322.557333 
L 483.95811 322.557333 
L 483.95811 317.994957 
L 485.341668 317.994957 
L 485.341668 313.43258 
L 485.872914 313.43258 
L 485.872914 308.870204 
L 485.945093 308.870204 
L 485.945093 304.307828 
L 486.011533 304.307828 
L 486.011533 299.745452 
L 486.089115 299.745452 
L 486.089115 295.183075 
L 486.541887 295.183075 
L 486.541887 290.620699 
L 487.16405 290.620699 
L 487.16405 286.058323 
L 487.466035 286.058323 
L 487.466035 281.495947 
L 488.192116 281.495947 
L 488.192116 276.933571 
L 489.467145 276.933571 
L 489.467145 272.371194 
L 489.935878 272.371194 
L 489.935878 267.808818 
L 491.370512 267.808818 
L 491.370512 263.246442 
L 491.487671 263.246442 
L 491.487671 258.684066 
L 493.679324 258.684066 
L 493.679324 254.121689 
L 493.913412 254.121689 
L 493.913412 249.559313 
L 507.038074 249.559313 
L 507.038074 244.996937 
L 508.342404 244.996937 
L 508.342404 240.434561 
L 509.512837 240.434561 
L 509.512837 235.872184 
L 509.903242 235.872184 
L 509.903242 231.309808 
L 510.495379 231.309808 
L 510.495379 226.747432 
L 511.132491 226.747432 
L 511.132491 222.185056 
L 511.160649 222.185056 
L 511.160649 217.622679 
L 511.503716 217.622679 
L 511.503716 213.060303 
L 512.331945 213.060303 
L 512.331945 208.497927 
L 512.342157 208.497927 
L 512.342157 203.935551 
L 512.454341 203.935551 
L 512.454341 199.373175 
L 514.173517 199.373175 
L 514.173517 194.810798 
L 514.555378 194.810798 
L 514.555378 190.248422 
L 514.555378 190.248422 
" style="fill:none;stroke:#f5deb3;stroke-linecap:square;"/>
   </g>
   <g id="line2d_26">
    <path clip-path="url(#p5c6a467eb7)" d="M 336.406833 359.056343 
L 336.406833 354.493967 
L 338.098167 354.493967 
L 338.098167 349.93159 
L 338.504798 349.93159 
L 338.504798 345.369214 
L 339.04149 345.369214 
L 339.04149 340.806838 
L 339.254442 340.806838 
L 339.254442 336.244462 
L 340.460311 336.244462 
L 340.460311 331.682085 
L 341.331897 331.682085 
L 341.331897 327.119709 
L 341.635649 327.119709 
L 341.635649 322.557333 
L 345.367026 322.557333 
L 345.367026 317.994957 
L 356.382634 317.994957 
L 356.382634 313.43258 
L 357.453641 313.43258 
L 357.453641 308.870204 
L 358.762923 308.870204 
L 358.762923 304.307828 
L 359.248855 304.307828 
L 359.248855 299.745452 
L 362.70769 299.745452 
L 362.70769 295.183075 
L 371.881978 295.183075 
L 371.881978 290.620699 
L 372.741936 290.620699 
L 372.741936 286.058323 
L 372.767748 286.058323 
L 372.767748 281.495947 
L 373.421158 281.495947 
L 373.421158 276.933571 
L 375.437718 276.933571 
L 375.437718 272.371194 
L 375.741259 272.371194 
L 375.741259 267.808818 
L 376.817861 267.808818 
L 376.817861 263.246442 
L 389.837781 263.246442 
L 389.837781 258.684066 
L 392.988824 258.684066 
L 392.988824 254.121689 
L 393.105528 254.121689 
L 393.105528 249.559313 
L 394.207961 249.559313 
L 394.207961 244.996937 
L 396.049039 244.996937 
L 396.049039 240.434561 
L 402.325117 240.434561 
L 402.325117 235.872184 
L 402.563413 235.872184 
L 402.563413 231.309808 
L 406.419055 231.309808 
L 406.419055 226.747432 
L 407.609858 226.747432 
L 407.609858 222.185056 
L 419.236772 222.185056 
L 419.236772 217.622679 
L 420.637986 217.622679 
L 420.637986 213.060303 
L 425.267106 213.060303 
L 425.267106 208.497927 
L 428.472764 208.497927 
L 428.472764 203.935551 
L 450.601796 203.935551 
L 450.601796 199.373175 
L 453.194251 199.373175 
L 453.194251 194.810798 
L 484.077928 194.810798 
L 484.077928 190.248422 
L 484.497196 190.248422 
L 484.497196 185.686046 
L 502.947499 185.686046 
L 502.947499 181.12367 
L 508.249796 181.12367 
L 508.249796 176.561293 
L 511.832653 176.561293 
L 511.832653 171.998917 
L 512.406569 171.998917 
L 512.406569 167.436541 
L 516.032721 167.436541 
L 516.032721 162.874165 
L 516.539201 162.874165 
L 516.539201 158.311788 
L 517.015985 158.311788 
L 517.015985 153.749412 
L 519.817348 153.749412 
L 519.817348 149.187036 
L 521.82782 149.187036 
L 521.82782 144.62466 
L 521.915657 144.62466 
L 521.915657 140.062283 
L 521.9625 140.062283 
" style="fill:none;stroke:#f5deb3;stroke-linecap:square;"/>
   </g>
   <g id="line2d_27">
    <path clip-path="url(#p5c6a467eb7)" d="M 391.037008 359.056343 
L 391.037008 354.493967 
L 391.037008 354.493967 
L 391.037008 354.493967 
L 513.7625 354.493967 
" style="fill:none;stroke:#f5deb3;stroke-linecap:square;"/>
   </g>
   <g id="line2d_28">
    <path clip-path="url(#p5c6a467eb7)" d="M 291.360326 359.056343 
L 291.360326 354.493967 
L 292.099567 354.493967 
L 292.099567 349.93159 
L 301.793859 349.93159 
L 301.793859 345.369214 
L 312.861703 345.369214 
L 312.861703 340.806838 
L 335.292275 340.806838 
L 335.292275 336.244462 
L 363.281022 336.244462 
L 363.281022 331.682085 
L 379.949741 331.682085 
L 379.949741 327.119709 
L 407.002848 327.119709 
L 407.002848 322.557333 
L 409.723489 322.557333 
L 409.723489 317.994957 
L 412.10586 317.994957 
L 412.10586 313.43258 
L 412.144549 313.43258 
L 412.144549 308.870204 
L 414.282313 308.870204 
L 414.282313 304.307828 
L 414.723393 304.307828 
L 414.723393 299.745452 
L 417.674392 299.745452 
L 417.674392 295.183075 
L 423.622578 295.183075 
L 423.622578 290.620699 
L 425.242113 290.620699 
L 425.242113 286.058323 
L 445.455214 286.058323 
L 445.455214 281.495947 
L 446.85195 281.495947 
L 446.85195 276.933571 
L 447.550332 276.933571 
L 447.550332 272.371194 
L 447.945471 272.371194 
L 447.945471 267.808818 
L 448.735848 267.808818 
L 448.735848 263.246442 
L 449.977513 263.246442 
L 449.977513 258.684066 
L 451.229699 258.684066 
L 451.229699 254.121689 
L 451.818677 254.121689 
L 451.818677 249.559313 
L 452.580975 249.559313 
L 452.580975 244.996937 
L 458.05554 244.996937 
L 458.05554 240.434561 
L 458.158174 240.434561 
L 458.158174 235.872184 
L 463.274568 235.872184 
L 463.274568 231.309808 
L 464.55332 231.309808 
L 464.55332 226.747432 
L 464.717392 226.747432 
L 464.717392 222.185056 
L 468.876321 222.185056 
L 468.876321 217.622679 
L 469.208804 217.622679 
L 469.208804 213.060303 
L 483.837983 213.060303 
L 483.837983 208.497927 
L 488.613227 208.497927 
L 488.613227 203.935551 
L 492.658883 203.935551 
L 492.658883 199.373175 
L 494.88742 199.373175 
L 494.88742 194.810798 
L 495.773981 194.810798 
L 495.773981 190.248422 
L 498.842744 190.248422 
L 498.842744 185.686046 
L 508.79236 185.686046 
L 508.79236 181.12367 
L 516.099277 181.12367 
L 516.099277 176.561293 
L 519.687869 176.561293 
L 519.687869 171.998917 
L 521.319895 171.998917 
L 521.319895 167.436541 
L 521.9625 167.436541 
" style="fill:none;stroke:#f5deb3;stroke-linecap:square;"/>
   </g>
   <g id="line2d_29">
    <path clip-path="url(#p5c6a467eb7)" d="M 286.659175 359.056343 
L 286.659175 354.493967 
L 286.659175 354.493967 
L 286.659175 349.93159 
L 286.659175 349.93159 
L 286.659175 345.369214 
L 319.206989 345.369214 
L 319.206989 340.806838 
L 319.206989 340.806838 
L 319.206989 336.244462 
L 319.206989 336.244462 
L 319.206989 331.682085 
L 326.040696 331.682085 
L 326.040696 327.119709 
L 326.040696 327.119709 
L 326.040696 322.557333 
L 326.040696 322.557333 
L 326.040696 317.994957 
L 366.756399 317.994957 
L 366.756399 313.43258 
L 366.756399 313.43258 
L 366.756399 308.870204 
L 366.756399 308.870204 
L 366.756399 304.307828 
L 410.929955 304.307828 
L 410.929955 299.745452 
L 410.929955 299.745452 
L 410.929955 295.183075 
L 410.929955 295.183075 
L 410.929955 290.620699 
L 428.58921 290.620699 
L 428.58921 286.058323 
L 428.58921 286.058323 
L 428.58921 281.495947 
L 428.58921 281.495947 
L 428.58921 276.933571 
L 437.828482 276.933571 
L 437.828482 272.371194 
L 437.828482 272.371194 
L 437.828482 267.808818 
L 437.828482 267.808818 
L 437.828482 263.246442 
L 440.779481 263.246442 
L 440.779481 258.684066 
L 441.755982 258.684066 
L 441.755982 254.121689 
L 454.408136 254.121689 
L 454.408136 249.559313 
L 455.675522 249.559313 
L 455.675522 244.996937 
L 455.977366 244.996937 
L 455.977366 240.434561 
L 465.620044 240.434561 
L 465.620044 235.872184 
L 469.074476 235.872184 
L 469.074476 231.309808 
L 473.494234 231.309808 
L 473.494234 226.747432 
L 490.843157 226.747432 
L 490.843157 222.185056 
L 490.843157 222.185056 
L 490.843157 222.185056 
L 513.7625 222.185056 
" style="fill:none;stroke:#f5deb3;stroke-linecap:square;"/>
   </g>
   <g id="line2d_30">
    <path clip-path="url(#p5c6a467eb7)" d="M 400.685576 359.056343 
L 400.685576 354.493967 
L 403.584339 354.493967 
L 403.584339 349.93159 
L 452.504611 349.93159 
L 452.504611 345.369214 
L 466.066601 345.369214 
L 466.066601 340.806838 
L 485.119655 340.806838 
L 485.119655 336.244462 
L 491.763874 336.244462 
L 491.763874 331.682085 
L 493.206615 331.682085 
L 493.206615 327.119709 
L 493.581917 327.119709 
L 493.581917 322.557333 
L 493.964639 322.557333 
L 493.964639 317.994957 
L 494.364916 317.994957 
L 494.364916 313.43258 
L 494.364916 313.43258 
L 494.364916 313.43258 
L 513.7625 313.43258 
" style="fill:none;stroke:#f5deb3;stroke-linecap:square;"/>
   </g>
   <g id="line2d_31">
    <path clip-path="url(#p5c6a467eb7)" d="M -7.35304 359.056343 
M -1 349.93159 
L 43.648251 349.93159 
L 43.648251 345.369214 
L 43.648251 345.369214 
L 43.648251 340.806838 
L 57.003423 340.806838 
L 57.003423 336.244462 
L 75.826482 336.244462 
L 75.826482 331.682085 
L 82.982677 331.682085 
L 82.982677 327.119709 
L 89.181655 327.119709 
L 89.181655 322.557333 
L 94.649541 322.557333 
L 94.649541 317.994957 
L 99.540731 317.994957 
L 99.540731 313.43258 
L 126.827772 313.43258 
L 126.827772 308.870204 
L 142.07804 308.870204 
L 142.07804 304.307828 
L 145.650831 304.307828 
L 145.650831 299.745452 
L 179.517371 299.745452 
L 179.517371 295.183075 
L 180.339045 295.183075 
L 180.339045 290.620699 
L 231.068057 290.620699 
L 231.068057 286.058323 
L 239.074662 286.058323 
L 239.074662 281.495947 
L 240.209764 281.495947 
L 240.209764 276.933571 
L 243.247891 276.933571 
L 243.247891 272.371194 
L 244.491449 272.371194 
L 244.491449 267.808818 
L 245.100955 267.808818 
L 245.100955 263.246442 
L 248.411361 263.246442 
L 248.411361 258.684066 
L 251.148305 258.684066 
L 251.148305 254.121689 
L 253.227311 254.121689 
L 253.227311 249.559313 
L 260.721132 249.559313 
L 260.721132 244.996937 
L 261.436452 244.996937 
L 261.436452 240.434561 
L 263.382627 240.434561 
L 263.382627 235.872184 
L 264.724437 235.872184 
L 264.724437 231.309808 
L 269.257144 231.309808 
L 269.257144 226.747432 
L 270.207016 226.747432 
L 270.207016 222.185056 
L 272.611723 222.185056 
L 272.611723 217.622679 
L 273.05597 217.622679 
L 273.05597 213.060303 
L 275.109958 213.060303 
L 275.109958 208.497927 
L 276.567314 208.497927 
L 276.567314 203.935551 
L 282.612317 203.935551 
L 282.612317 199.373175 
L 283.326536 199.373175 
L 283.326536 194.810798 
L 283.591561 194.810798 
L 283.591561 190.248422 
L 283.679568 190.248422 
L 283.679568 185.686046 
L 284.029934 185.686046 
L 284.029934 181.12367 
L 284.636785 181.12367 
L 284.636785 176.561293 
L 284.808723 176.561293 
L 284.808723 171.998917 
L 290.228912 171.998917 
L 290.228912 167.436541 
L 291.731418 167.436541 
L 291.731418 162.874165 
L 296.034916 162.874165 
L 296.034916 158.311788 
L 302.502626 158.311788 
L 302.502626 153.749412 
L 302.561205 153.749412 
L 302.561205 149.187036 
L 303.08511 149.187036 
L 303.08511 144.62466 
L 310.947066 144.62466 
L 310.947066 140.062283 
L 320.178394 140.062283 
L 320.178394 135.499907 
L 324.679419 135.499907 
L 324.679419 130.937531 
L 324.824606 130.937531 
L 324.824606 126.375155 
L 339.227876 126.375155 
L 339.227876 121.812778 
L 361.817862 121.812778 
L 361.817862 117.250402 
L 367.296636 117.250402 
L 367.296636 112.688026 
L 412.770122 112.688026 
L 412.770122 108.12565 
L 413.714322 108.12565 
L 413.714322 103.563274 
L 466.030273 103.563274 
L 466.030273 99.000897 
L 490.518535 99.000897 
L 490.518535 94.438521 
L 494.574998 94.438521 
L 494.574998 89.876145 
L 506.425218 89.876145 
L 506.425218 85.313769 
L 512.011681 85.313769 
L 512.011681 80.751392 
L 512.011681 80.751392 
L 512.011681 80.751392 
L 513.7625 80.751392 
" style="fill:none;stroke:#000000;stroke-linecap:square;"/>
   </g>
   <g id="line2d_32"/>
   <g id="line2d_33">
    <path clip-path="url(#p5c6a467eb7)" d="M 258.958007 359.056343 
L 258.958007 354.493967 
L 278.963891 354.493967 
L 278.963891 349.93159 
L 318.464859 349.93159 
L 318.464859 345.369214 
L 337.190841 345.369214 
L 337.190841 340.806838 
L 337.190841 340.806838 
L 337.190841 340.806838 
L 513.7625 340.806838 
" style="fill:none;stroke:#00bfbf;stroke-linecap:square;"/>
   </g>
   <g id="line2d_34"/>
   <g id="line2d_35">
    <path clip-path="url(#p5c6a467eb7)" d="M 321.286592 359.056343 
L 321.286592 354.493967 
L 340.252832 354.493967 
L 340.252832 349.93159 
L 386.648934 349.93159 
L 386.648934 345.369214 
L 428.406647 345.369214 
L 428.406647 340.806838 
L 428.406647 340.806838 
L 428.406647 340.806838 
L 513.7625 340.806838 
" style="fill:none;stroke:#bf00bf;stroke-linecap:square;"/>
   </g>
   <g id="line2d_36"/>
   <g id="line2d_37">
    <path clip-path="url(#p5c6a467eb7)" d="M 359.145154 359.056343 
L 359.145154 354.493967 
L 461.29745 354.493967 
L 461.29745 349.93159 
L 462.014347 349.93159 
L 462.014347 345.369214 
L 471.093167 345.369214 
L 471.093167 340.806838 
L 471.093167 340.806838 
L 471.093167 340.806838 
L 513.7625 340.806838 
" style="fill:none;stroke:#ff0000;stroke-linecap:square;stroke-width:3.0;"/>
   </g>
   <g id="line2d_38"/>
   <g id="line2d_39">
    <path clip-path="url(#p5c6a467eb7)" d="M 513.761262 359.056343 
L 513.761262 13.456343 
" style="fill:none;stroke:#000000;stroke-linecap:square;"/>
   </g>
   <g id="patch_3">
    <path d="M 67.3625 13.456343 
L 513.7625 13.456343 
" style="fill:none;stroke:#000000;stroke-linecap:square;stroke-linejoin:miter;"/>
   </g>
   <g id="patch_4">
    <path d="M 513.7625 359.056343 
L 513.7625 13.456343 
" style="fill:none;stroke:#000000;stroke-linecap:square;stroke-linejoin:miter;"/>
   </g>
   <g id="patch_5">
    <path d="M 67.3625 359.056343 
L 513.7625 359.056343 
" style="fill:none;stroke:#000000;stroke-linecap:square;stroke-linejoin:miter;"/>
   </g>
   <g id="patch_6">
    <path d="M 67.3625 359.056343 
L 67.3625 13.456343 
" style="fill:none;stroke:#000000;stroke-linecap:square;stroke-linejoin:miter;"/>
   </g>
   <g id="matplotlib.axis_1">
    <g id="xtick_1">
     <g id="line2d_40">
      <path clip-path="url(#p5c6a467eb7)" d="M 67.3625 359.056343 
L 67.3625 13.456343 
" style="fill:none;stroke:#000000;stroke-dasharray:1.000000,3.000000;stroke-dashoffset:0.0;stroke-width:0.5;"/>
     </g>
     <g id="line2d_41">
      <defs>
       <path d="M 0 0 
L 0 -4 
" id="m69a98ab1ae" style="stroke:#000000;stroke-width:0.5;"/>
      </defs>
      <g>
       <use style="stroke:#000000;stroke-width:0.5;" x="67.3625" xlink:href="#m69a98ab1ae" y="359.056342822"/>
      </g>
     </g>
     <g id="line2d_42">
      <defs>
       <path d="M 0 0 
L 0 4 
" id="m77834b4bfa" style="stroke:#000000;stroke-width:0.5;"/>
      </defs>
      <g>
       <use style="stroke:#000000;stroke-width:0.5;" x="67.3625" xlink:href="#m77834b4bfa" y="13.4563428218"/>
      </g>
     </g>
     <g id="text_1">
      <!-- 0 -->
      <defs>
       <path d="M 31.78125 66.40625 
Q 24.171875 66.40625 20.328125 58.90625 
Q 16.5 51.421875 16.5 36.375 
Q 16.5 21.390625 20.328125 13.890625 
Q 24.171875 6.390625 31.78125 6.390625 
Q 39.453125 6.390625 43.28125 13.890625 
Q 47.125 21.390625 47.125 36.375 
Q 47.125 51.421875 43.28125 58.90625 
Q 39.453125 66.40625 31.78125 66.40625 
M 31.78125 74.21875 
Q 44.046875 74.21875 50.515625 64.515625 
Q 56.984375 54.828125 56.984375 36.375 
Q 56.984375 17.96875 50.515625 8.265625 
Q 44.046875 -1.421875 31.78125 -1.421875 
Q 19.53125 -1.421875 13.0625 8.265625 
Q 6.59375 17.96875 6.59375 36.375 
Q 6.59375 54.828125 13.0625 64.515625 
Q 19.53125 74.21875 31.78125 74.21875 
" id="BitstreamVeraSans-Roman-30"/>
      </defs>
      <g transform="translate(61.0 378.253217822)scale(0.2 -0.2)">
       <use xlink:href="#BitstreamVeraSans-Roman-30"/>
      </g>
     </g>
    </g>
    <g id="xtick_2">
     <g id="line2d_43">
      <path clip-path="url(#p5c6a467eb7)" d="M 174.256271 359.056343 
L 174.256271 13.456343 
" style="fill:none;stroke:#000000;stroke-dasharray:1.000000,3.000000;stroke-dashoffset:0.0;stroke-width:0.5;"/>
     </g>
     <g id="line2d_44">
      <g>
       <use style="stroke:#000000;stroke-width:0.5;" x="174.256271091" xlink:href="#m69a98ab1ae" y="359.056342822"/>
      </g>
     </g>
     <g id="line2d_45">
      <g>
       <use style="stroke:#000000;stroke-width:0.5;" x="174.256271091" xlink:href="#m77834b4bfa" y="13.4563428218"/>
      </g>
     </g>
     <g id="text_2">
      <!-- 1 -->
      <defs>
       <path d="M 12.40625 8.296875 
L 28.515625 8.296875 
L 28.515625 63.921875 
L 10.984375 60.40625 
L 10.984375 69.390625 
L 28.421875 72.90625 
L 38.28125 72.90625 
L 38.28125 8.296875 
L 54.390625 8.296875 
L 54.390625 0 
L 12.40625 0 
z
" id="BitstreamVeraSans-Roman-31"/>
      </defs>
      <g transform="translate(167.893771091 378.253217822)scale(0.2 -0.2)">
       <use xlink:href="#BitstreamVeraSans-Roman-31"/>
      </g>
     </g>
    </g>
    <g id="xtick_3">
     <g id="line2d_46">
      <path clip-path="url(#p5c6a467eb7)" d="M 281.150042 359.056343 
L 281.150042 13.456343 
" style="fill:none;stroke:#000000;stroke-dasharray:1.000000,3.000000;stroke-dashoffset:0.0;stroke-width:0.5;"/>
     </g>
     <g id="line2d_47">
      <g>
       <use style="stroke:#000000;stroke-width:0.5;" x="281.150042183" xlink:href="#m69a98ab1ae" y="359.056342822"/>
      </g>
     </g>
     <g id="line2d_48">
      <g>
       <use style="stroke:#000000;stroke-width:0.5;" x="281.150042183" xlink:href="#m77834b4bfa" y="13.4563428218"/>
      </g>
     </g>
     <g id="text_3">
      <!-- 2 -->
      <defs>
       <path d="M 19.1875 8.296875 
L 53.609375 8.296875 
L 53.609375 0 
L 7.328125 0 
L 7.328125 8.296875 
Q 12.9375 14.109375 22.625 23.890625 
Q 32.328125 33.6875 34.8125 36.53125 
Q 39.546875 41.84375 41.421875 45.53125 
Q 43.3125 49.21875 43.3125 52.78125 
Q 43.3125 58.59375 39.234375 62.25 
Q 35.15625 65.921875 28.609375 65.921875 
Q 23.96875 65.921875 18.8125 64.3125 
Q 13.671875 62.703125 7.8125 59.421875 
L 7.8125 69.390625 
Q 13.765625 71.78125 18.9375 73 
Q 24.125 74.21875 28.421875 74.21875 
Q 39.75 74.21875 46.484375 68.546875 
Q 53.21875 62.890625 53.21875 53.421875 
Q 53.21875 48.921875 51.53125 44.890625 
Q 49.859375 40.875 45.40625 35.40625 
Q 44.1875 33.984375 37.640625 27.21875 
Q 31.109375 20.453125 19.1875 8.296875 
" id="BitstreamVeraSans-Roman-32"/>
      </defs>
      <g transform="translate(274.787542183 378.253217822)scale(0.2 -0.2)">
       <use xlink:href="#BitstreamVeraSans-Roman-32"/>
      </g>
     </g>
    </g>
    <g id="xtick_4">
     <g id="line2d_49">
      <path clip-path="url(#p5c6a467eb7)" d="M 388.043813 359.056343 
L 388.043813 13.456343 
" style="fill:none;stroke:#000000;stroke-dasharray:1.000000,3.000000;stroke-dashoffset:0.0;stroke-width:0.5;"/>
     </g>
     <g id="line2d_50">
      <g>
       <use style="stroke:#000000;stroke-width:0.5;" x="388.043813274" xlink:href="#m69a98ab1ae" y="359.056342822"/>
      </g>
     </g>
     <g id="line2d_51">
      <g>
       <use style="stroke:#000000;stroke-width:0.5;" x="388.043813274" xlink:href="#m77834b4bfa" y="13.4563428218"/>
      </g>
     </g>
     <g id="text_4">
      <!-- 3 -->
      <defs>
       <path d="M 40.578125 39.3125 
Q 47.65625 37.796875 51.625 33 
Q 55.609375 28.21875 55.609375 21.1875 
Q 55.609375 10.40625 48.1875 4.484375 
Q 40.765625 -1.421875 27.09375 -1.421875 
Q 22.515625 -1.421875 17.65625 -0.515625 
Q 12.796875 0.390625 7.625 2.203125 
L 7.625 11.71875 
Q 11.71875 9.328125 16.59375 8.109375 
Q 21.484375 6.890625 26.8125 6.890625 
Q 36.078125 6.890625 40.9375 10.546875 
Q 45.796875 14.203125 45.796875 21.1875 
Q 45.796875 27.640625 41.28125 31.265625 
Q 36.765625 34.90625 28.71875 34.90625 
L 20.21875 34.90625 
L 20.21875 43.015625 
L 29.109375 43.015625 
Q 36.375 43.015625 40.234375 45.921875 
Q 44.09375 48.828125 44.09375 54.296875 
Q 44.09375 59.90625 40.109375 62.90625 
Q 36.140625 65.921875 28.71875 65.921875 
Q 24.65625 65.921875 20.015625 65.03125 
Q 15.375 64.15625 9.8125 62.3125 
L 9.8125 71.09375 
Q 15.4375 72.65625 20.34375 73.4375 
Q 25.25 74.21875 29.59375 74.21875 
Q 40.828125 74.21875 47.359375 69.109375 
Q 53.90625 64.015625 53.90625 55.328125 
Q 53.90625 49.265625 50.4375 45.09375 
Q 46.96875 40.921875 40.578125 39.3125 
" id="BitstreamVeraSans-Roman-33"/>
      </defs>
      <g transform="translate(381.681313274 378.253217822)scale(0.2 -0.2)">
       <use xlink:href="#BitstreamVeraSans-Roman-33"/>
      </g>
     </g>
    </g>
    <g id="xtick_5">
     <g id="line2d_52">
      <path clip-path="url(#p5c6a467eb7)" d="M 494.937584 359.056343 
L 494.937584 13.456343 
" style="fill:none;stroke:#000000;stroke-dasharray:1.000000,3.000000;stroke-dashoffset:0.0;stroke-width:0.5;"/>
     </g>
     <g id="line2d_53">
      <g>
       <use style="stroke:#000000;stroke-width:0.5;" x="494.937584365" xlink:href="#m69a98ab1ae" y="359.056342822"/>
      </g>
     </g>
     <g id="line2d_54">
      <g>
       <use style="stroke:#000000;stroke-width:0.5;" x="494.937584365" xlink:href="#m77834b4bfa" y="13.4563428218"/>
      </g>
     </g>
     <g id="text_5">
      <!-- 4 -->
      <defs>
       <path d="M 37.796875 64.3125 
L 12.890625 25.390625 
L 37.796875 25.390625 
z
M 35.203125 72.90625 
L 47.609375 72.90625 
L 47.609375 25.390625 
L 58.015625 25.390625 
L 58.015625 17.1875 
L 47.609375 17.1875 
L 47.609375 0 
L 37.796875 0 
L 37.796875 17.1875 
L 4.890625 17.1875 
L 4.890625 26.703125 
z
" id="BitstreamVeraSans-Roman-34"/>
      </defs>
      <g transform="translate(488.575084365 378.253217822)scale(0.2 -0.2)">
       <use xlink:href="#BitstreamVeraSans-Roman-34"/>
      </g>
     </g>
    </g>
    <g id="xtick_6">
     <g id="line2d_55">
      <defs>
       <path d="M 0 0 
L 0 -2 
" id="m74095f686d" style="stroke:#000000;stroke-width:0.5;"/>
      </defs>
      <g>
       <use style="stroke:#000000;stroke-width:0.5;" x="99.5407314481" xlink:href="#m74095f686d" y="359.056342822"/>
      </g>
     </g>
     <g id="line2d_56">
      <defs>
       <path d="M 0 0 
L 0 2 
" id="m3d4c76de98" style="stroke:#000000;stroke-width:0.5;"/>
      </defs>
      <g>
       <use style="stroke:#000000;stroke-width:0.5;" x="99.5407314481" xlink:href="#m3d4c76de98" y="13.4563428218"/>
      </g>
     </g>
    </g>
    <g id="xtick_7">
     <g id="line2d_57">
      <g>
       <use style="stroke:#000000;stroke-width:0.5;" x="118.363790185" xlink:href="#m74095f686d" y="359.056342822"/>
      </g>
     </g>
     <g id="line2d_58">
      <g>
       <use style="stroke:#000000;stroke-width:0.5;" x="118.363790185" xlink:href="#m3d4c76de98" y="13.4563428218"/>
      </g>
     </g>
    </g>
    <g id="xtick_8">
     <g id="line2d_59">
      <g>
       <use style="stroke:#000000;stroke-width:0.5;" x="131.718962896" xlink:href="#m74095f686d" y="359.056342822"/>
      </g>
     </g>
     <g id="line2d_60">
      <g>
       <use style="stroke:#000000;stroke-width:0.5;" x="131.718962896" xlink:href="#m3d4c76de98" y="13.4563428218"/>
      </g>
     </g>
    </g>
    <g id="xtick_9">
     <g id="line2d_61">
      <g>
       <use style="stroke:#000000;stroke-width:0.5;" x="142.078039643" xlink:href="#m74095f686d" y="359.056342822"/>
      </g>
     </g>
     <g id="line2d_62">
      <g>
       <use style="stroke:#000000;stroke-width:0.5;" x="142.078039643" xlink:href="#m3d4c76de98" y="13.4563428218"/>
      </g>
     </g>
    </g>
    <g id="xtick_10">
     <g id="line2d_63">
      <g>
       <use style="stroke:#000000;stroke-width:0.5;" x="150.542021633" xlink:href="#m74095f686d" y="359.056342822"/>
      </g>
     </g>
     <g id="line2d_64">
      <g>
       <use style="stroke:#000000;stroke-width:0.5;" x="150.542021633" xlink:href="#m3d4c76de98" y="13.4563428218"/>
      </g>
     </g>
    </g>
    <g id="xtick_11">
     <g id="line2d_65">
      <g>
       <use style="stroke:#000000;stroke-width:0.5;" x="157.698216439" xlink:href="#m74095f686d" y="359.056342822"/>
      </g>
     </g>
     <g id="line2d_66">
      <g>
       <use style="stroke:#000000;stroke-width:0.5;" x="157.698216439" xlink:href="#m3d4c76de98" y="13.4563428218"/>
      </g>
     </g>
    </g>
    <g id="xtick_12">
     <g id="line2d_67">
      <g>
       <use style="stroke:#000000;stroke-width:0.5;" x="163.897194344" xlink:href="#m74095f686d" y="359.056342822"/>
      </g>
     </g>
     <g id="line2d_68">
      <g>
       <use style="stroke:#000000;stroke-width:0.5;" x="163.897194344" xlink:href="#m3d4c76de98" y="13.4563428218"/>
      </g>
     </g>
    </g>
    <g id="xtick_13">
     <g id="line2d_69">
      <g>
       <use style="stroke:#000000;stroke-width:0.5;" x="169.36508037" xlink:href="#m74095f686d" y="359.056342822"/>
      </g>
     </g>
     <g id="line2d_70">
      <g>
       <use style="stroke:#000000;stroke-width:0.5;" x="169.36508037" xlink:href="#m3d4c76de98" y="13.4563428218"/>
      </g>
     </g>
    </g>
    <g id="xtick_14">
     <g id="line2d_71">
      <g>
       <use style="stroke:#000000;stroke-width:0.5;" x="206.43450254" xlink:href="#m74095f686d" y="359.056342822"/>
      </g>
     </g>
     <g id="line2d_72">
      <g>
       <use style="stroke:#000000;stroke-width:0.5;" x="206.43450254" xlink:href="#m3d4c76de98" y="13.4563428218"/>
      </g>
     </g>
    </g>
    <g id="xtick_15">
     <g id="line2d_73">
      <g>
       <use style="stroke:#000000;stroke-width:0.5;" x="225.257561276" xlink:href="#m74095f686d" y="359.056342822"/>
      </g>
     </g>
     <g id="line2d_74">
      <g>
       <use style="stroke:#000000;stroke-width:0.5;" x="225.257561276" xlink:href="#m3d4c76de98" y="13.4563428218"/>
      </g>
     </g>
    </g>
    <g id="xtick_16">
     <g id="line2d_75">
      <g>
       <use style="stroke:#000000;stroke-width:0.5;" x="238.612733988" xlink:href="#m74095f686d" y="359.056342822"/>
      </g>
     </g>
     <g id="line2d_76">
      <g>
       <use style="stroke:#000000;stroke-width:0.5;" x="238.612733988" xlink:href="#m3d4c76de98" y="13.4563428218"/>
      </g>
     </g>
    </g>
    <g id="xtick_17">
     <g id="line2d_77">
      <g>
       <use style="stroke:#000000;stroke-width:0.5;" x="248.971810735" xlink:href="#m74095f686d" y="359.056342822"/>
      </g>
     </g>
     <g id="line2d_78">
      <g>
       <use style="stroke:#000000;stroke-width:0.5;" x="248.971810735" xlink:href="#m3d4c76de98" y="13.4563428218"/>
      </g>
     </g>
    </g>
    <g id="xtick_18">
     <g id="line2d_79">
      <g>
       <use style="stroke:#000000;stroke-width:0.5;" x="257.435792724" xlink:href="#m74095f686d" y="359.056342822"/>
      </g>
     </g>
     <g id="line2d_80">
      <g>
       <use style="stroke:#000000;stroke-width:0.5;" x="257.435792724" xlink:href="#m3d4c76de98" y="13.4563428218"/>
      </g>
     </g>
    </g>
    <g id="xtick_19">
     <g id="line2d_81">
      <g>
       <use style="stroke:#000000;stroke-width:0.5;" x="264.59198753" xlink:href="#m74095f686d" y="359.056342822"/>
      </g>
     </g>
     <g id="line2d_82">
      <g>
       <use style="stroke:#000000;stroke-width:0.5;" x="264.59198753" xlink:href="#m3d4c76de98" y="13.4563428218"/>
      </g>
     </g>
    </g>
    <g id="xtick_20">
     <g id="line2d_83">
      <g>
       <use style="stroke:#000000;stroke-width:0.5;" x="270.790965436" xlink:href="#m74095f686d" y="359.056342822"/>
      </g>
     </g>
     <g id="line2d_84">
      <g>
       <use style="stroke:#000000;stroke-width:0.5;" x="270.790965436" xlink:href="#m3d4c76de98" y="13.4563428218"/>
      </g>
     </g>
    </g>
    <g id="xtick_21">
     <g id="line2d_85">
      <g>
       <use style="stroke:#000000;stroke-width:0.5;" x="276.258851461" xlink:href="#m74095f686d" y="359.056342822"/>
      </g>
     </g>
     <g id="line2d_86">
      <g>
       <use style="stroke:#000000;stroke-width:0.5;" x="276.258851461" xlink:href="#m3d4c76de98" y="13.4563428218"/>
      </g>
     </g>
    </g>
    <g id="xtick_22">
     <g id="line2d_87">
      <g>
       <use style="stroke:#000000;stroke-width:0.5;" x="313.328273631" xlink:href="#m74095f686d" y="359.056342822"/>
      </g>
     </g>
     <g id="line2d_88">
      <g>
       <use style="stroke:#000000;stroke-width:0.5;" x="313.328273631" xlink:href="#m3d4c76de98" y="13.4563428218"/>
      </g>
     </g>
    </g>
    <g id="xtick_23">
     <g id="line2d_89">
      <g>
       <use style="stroke:#000000;stroke-width:0.5;" x="332.151332368" xlink:href="#m74095f686d" y="359.056342822"/>
      </g>
     </g>
     <g id="line2d_90">
      <g>
       <use style="stroke:#000000;stroke-width:0.5;" x="332.151332368" xlink:href="#m3d4c76de98" y="13.4563428218"/>
      </g>
     </g>
    </g>
    <g id="xtick_24">
     <g id="line2d_91">
      <g>
       <use style="stroke:#000000;stroke-width:0.5;" x="345.506505079" xlink:href="#m74095f686d" y="359.056342822"/>
      </g>
     </g>
     <g id="line2d_92">
      <g>
       <use style="stroke:#000000;stroke-width:0.5;" x="345.506505079" xlink:href="#m3d4c76de98" y="13.4563428218"/>
      </g>
     </g>
    </g>
    <g id="xtick_25">
     <g id="line2d_93">
      <g>
       <use style="stroke:#000000;stroke-width:0.5;" x="355.865581826" xlink:href="#m74095f686d" y="359.056342822"/>
      </g>
     </g>
     <g id="line2d_94">
      <g>
       <use style="stroke:#000000;stroke-width:0.5;" x="355.865581826" xlink:href="#m3d4c76de98" y="13.4563428218"/>
      </g>
     </g>
    </g>
    <g id="xtick_26">
     <g id="line2d_95">
      <g>
       <use style="stroke:#000000;stroke-width:0.5;" x="364.329563816" xlink:href="#m74095f686d" y="359.056342822"/>
      </g>
     </g>
     <g id="line2d_96">
      <g>
       <use style="stroke:#000000;stroke-width:0.5;" x="364.329563816" xlink:href="#m3d4c76de98" y="13.4563428218"/>
      </g>
     </g>
    </g>
    <g id="xtick_27">
     <g id="line2d_97">
      <g>
       <use style="stroke:#000000;stroke-width:0.5;" x="371.485758622" xlink:href="#m74095f686d" y="359.056342822"/>
      </g>
     </g>
     <g id="line2d_98">
      <g>
       <use style="stroke:#000000;stroke-width:0.5;" x="371.485758622" xlink:href="#m3d4c76de98" y="13.4563428218"/>
      </g>
     </g>
    </g>
    <g id="xtick_28">
     <g id="line2d_99">
      <g>
       <use style="stroke:#000000;stroke-width:0.5;" x="377.684736527" xlink:href="#m74095f686d" y="359.056342822"/>
      </g>
     </g>
     <g id="line2d_100">
      <g>
       <use style="stroke:#000000;stroke-width:0.5;" x="377.684736527" xlink:href="#m3d4c76de98" y="13.4563428218"/>
      </g>
     </g>
    </g>
    <g id="xtick_29">
     <g id="line2d_101">
      <g>
       <use style="stroke:#000000;stroke-width:0.5;" x="383.152622552" xlink:href="#m74095f686d" y="359.056342822"/>
      </g>
     </g>
     <g id="line2d_102">
      <g>
       <use style="stroke:#000000;stroke-width:0.5;" x="383.152622552" xlink:href="#m3d4c76de98" y="13.4563428218"/>
      </g>
     </g>
    </g>
    <g id="xtick_30">
     <g id="line2d_103">
      <g>
       <use style="stroke:#000000;stroke-width:0.5;" x="420.222044722" xlink:href="#m74095f686d" y="359.056342822"/>
      </g>
     </g>
     <g id="line2d_104">
      <g>
       <use style="stroke:#000000;stroke-width:0.5;" x="420.222044722" xlink:href="#m3d4c76de98" y="13.4563428218"/>
      </g>
     </g>
    </g>
    <g id="xtick_31">
     <g id="line2d_105">
      <g>
       <use style="stroke:#000000;stroke-width:0.5;" x="439.045103459" xlink:href="#m74095f686d" y="359.056342822"/>
      </g>
     </g>
     <g id="line2d_106">
      <g>
       <use style="stroke:#000000;stroke-width:0.5;" x="439.045103459" xlink:href="#m3d4c76de98" y="13.4563428218"/>
      </g>
     </g>
    </g>
    <g id="xtick_32">
     <g id="line2d_107">
      <g>
       <use style="stroke:#000000;stroke-width:0.5;" x="452.40027617" xlink:href="#m74095f686d" y="359.056342822"/>
      </g>
     </g>
     <g id="line2d_108">
      <g>
       <use style="stroke:#000000;stroke-width:0.5;" x="452.40027617" xlink:href="#m3d4c76de98" y="13.4563428218"/>
      </g>
     </g>
    </g>
    <g id="xtick_33">
     <g id="line2d_109">
      <g>
       <use style="stroke:#000000;stroke-width:0.5;" x="462.759352917" xlink:href="#m74095f686d" y="359.056342822"/>
      </g>
     </g>
     <g id="line2d_110">
      <g>
       <use style="stroke:#000000;stroke-width:0.5;" x="462.759352917" xlink:href="#m3d4c76de98" y="13.4563428218"/>
      </g>
     </g>
    </g>
    <g id="xtick_34">
     <g id="line2d_111">
      <g>
       <use style="stroke:#000000;stroke-width:0.5;" x="471.223334907" xlink:href="#m74095f686d" y="359.056342822"/>
      </g>
     </g>
     <g id="line2d_112">
      <g>
       <use style="stroke:#000000;stroke-width:0.5;" x="471.223334907" xlink:href="#m3d4c76de98" y="13.4563428218"/>
      </g>
     </g>
    </g>
    <g id="xtick_35">
     <g id="line2d_113">
      <g>
       <use style="stroke:#000000;stroke-width:0.5;" x="478.379529713" xlink:href="#m74095f686d" y="359.056342822"/>
      </g>
     </g>
     <g id="line2d_114">
      <g>
       <use style="stroke:#000000;stroke-width:0.5;" x="478.379529713" xlink:href="#m3d4c76de98" y="13.4563428218"/>
      </g>
     </g>
    </g>
    <g id="xtick_36">
     <g id="line2d_115">
      <g>
       <use style="stroke:#000000;stroke-width:0.5;" x="484.578507619" xlink:href="#m74095f686d" y="359.056342822"/>
      </g>
     </g>
     <g id="line2d_116">
      <g>
       <use style="stroke:#000000;stroke-width:0.5;" x="484.578507619" xlink:href="#m3d4c76de98" y="13.4563428218"/>
      </g>
     </g>
    </g>
    <g id="xtick_37">
     <g id="line2d_117">
      <g>
       <use style="stroke:#000000;stroke-width:0.5;" x="490.046393644" xlink:href="#m74095f686d" y="359.056342822"/>
      </g>
     </g>
     <g id="line2d_118">
      <g>
       <use style="stroke:#000000;stroke-width:0.5;" x="490.046393644" xlink:href="#m3d4c76de98" y="13.4563428218"/>
      </g>
     </g>
    </g>
    <g id="text_6">
     <!-- log10 of FEvals / DIM -->
     <defs>
      <path id="BitstreamVeraSans-Roman-20"/>
      <path d="M 9.8125 72.90625 
L 24.515625 72.90625 
L 43.109375 23.296875 
L 61.8125 72.90625 
L 76.515625 72.90625 
L 76.515625 0 
L 66.890625 0 
L 66.890625 64.015625 
L 48.09375 14.015625 
L 38.1875 14.015625 
L 19.390625 64.015625 
L 19.390625 0 
L 9.8125 0 
z
" id="BitstreamVeraSans-Roman-4d"/>
      <path d="M 30.609375 48.390625 
Q 23.390625 48.390625 19.1875 42.75 
Q 14.984375 37.109375 14.984375 27.296875 
Q 14.984375 17.484375 19.15625 11.84375 
Q 23.34375 6.203125 30.609375 6.203125 
Q 37.796875 6.203125 41.984375 11.859375 
Q 46.1875 17.53125 46.1875 27.296875 
Q 46.1875 37.015625 41.984375 42.703125 
Q 37.796875 48.390625 30.609375 48.390625 
M 30.609375 56 
Q 42.328125 56 49.015625 48.375 
Q 55.71875 40.765625 55.71875 27.296875 
Q 55.71875 13.875 49.015625 6.21875 
Q 42.328125 -1.421875 30.609375 -1.421875 
Q 18.84375 -1.421875 12.171875 6.21875 
Q 5.515625 13.875 5.515625 27.296875 
Q 5.515625 40.765625 12.171875 48.375 
Q 18.84375 56 30.609375 56 
" id="BitstreamVeraSans-Roman-6f"/>
      <path d="M 9.421875 75.984375 
L 18.40625 75.984375 
L 18.40625 0 
L 9.421875 0 
z
" id="BitstreamVeraSans-Roman-6c"/>
      <path d="M 9.8125 72.90625 
L 51.703125 72.90625 
L 51.703125 64.59375 
L 19.671875 64.59375 
L 19.671875 43.109375 
L 48.578125 43.109375 
L 48.578125 34.8125 
L 19.671875 34.8125 
L 19.671875 0 
L 9.8125 0 
z
" id="BitstreamVeraSans-Roman-46"/>
      <path d="M 9.8125 72.90625 
L 55.90625 72.90625 
L 55.90625 64.59375 
L 19.671875 64.59375 
L 19.671875 43.015625 
L 54.390625 43.015625 
L 54.390625 34.71875 
L 19.671875 34.71875 
L 19.671875 8.296875 
L 56.78125 8.296875 
L 56.78125 0 
L 9.8125 0 
z
" id="BitstreamVeraSans-Roman-45"/>
      <path d="M 19.671875 64.796875 
L 19.671875 8.109375 
L 31.59375 8.109375 
Q 46.6875 8.109375 53.6875 14.9375 
Q 60.6875 21.78125 60.6875 36.53125 
Q 60.6875 51.171875 53.6875 57.984375 
Q 46.6875 64.796875 31.59375 64.796875 
z
M 9.8125 72.90625 
L 30.078125 72.90625 
Q 51.265625 72.90625 61.171875 64.09375 
Q 71.09375 55.28125 71.09375 36.53125 
Q 71.09375 17.671875 61.125 8.828125 
Q 51.171875 0 30.078125 0 
L 9.8125 0 
z
" id="BitstreamVeraSans-Roman-44"/>
      <path d="M 25.390625 72.90625 
L 33.6875 72.90625 
L 8.296875 -9.28125 
L 0 -9.28125 
z
" id="BitstreamVeraSans-Roman-2f"/>
      <path d="M 2.984375 54.6875 
L 12.5 54.6875 
L 29.59375 8.796875 
L 46.6875 54.6875 
L 56.203125 54.6875 
L 35.6875 0 
L 23.484375 0 
z
" id="BitstreamVeraSans-Roman-76"/>
      <path d="M 45.40625 27.984375 
Q 45.40625 37.75 41.375 43.109375 
Q 37.359375 48.484375 30.078125 48.484375 
Q 22.859375 48.484375 18.828125 43.109375 
Q 14.796875 37.75 14.796875 27.984375 
Q 14.796875 18.265625 18.828125 12.890625 
Q 22.859375 7.515625 30.078125 7.515625 
Q 37.359375 7.515625 41.375 12.890625 
Q 45.40625 18.265625 45.40625 27.984375 
M 54.390625 6.78125 
Q 54.390625 -7.171875 48.1875 -13.984375 
Q 42 -20.796875 29.203125 -20.796875 
Q 24.46875 -20.796875 20.265625 -20.09375 
Q 16.0625 -19.390625 12.109375 -17.921875 
L 12.109375 -9.1875 
Q 16.0625 -11.328125 19.921875 -12.34375 
Q 23.78125 -13.375 27.78125 -13.375 
Q 36.625 -13.375 41.015625 -8.765625 
Q 45.40625 -4.15625 45.40625 5.171875 
L 45.40625 9.625 
Q 42.625 4.78125 38.28125 2.390625 
Q 33.9375 0 27.875 0 
Q 17.828125 0 11.671875 7.65625 
Q 5.515625 15.328125 5.515625 27.984375 
Q 5.515625 40.671875 11.671875 48.328125 
Q 17.828125 56 27.875 56 
Q 33.9375 56 38.28125 53.609375 
Q 42.625 51.21875 45.40625 46.390625 
L 45.40625 54.6875 
L 54.390625 54.6875 
z
" id="BitstreamVeraSans-Roman-67"/>
      <path d="M 37.109375 75.984375 
L 37.109375 68.5 
L 28.515625 68.5 
Q 23.6875 68.5 21.796875 66.546875 
Q 19.921875 64.59375 19.921875 59.515625 
L 19.921875 54.6875 
L 34.71875 54.6875 
L 34.71875 47.703125 
L 19.921875 47.703125 
L 19.921875 0 
L 10.890625 0 
L 10.890625 47.703125 
L 2.296875 47.703125 
L 2.296875 54.6875 
L 10.890625 54.6875 
L 10.890625 58.5 
Q 10.890625 67.625 15.140625 71.796875 
Q 19.390625 75.984375 28.609375 75.984375 
z
" id="BitstreamVeraSans-Roman-66"/>
      <path d="M 34.28125 27.484375 
Q 23.390625 27.484375 19.1875 25 
Q 14.984375 22.515625 14.984375 16.5 
Q 14.984375 11.71875 18.140625 8.90625 
Q 21.296875 6.109375 26.703125 6.109375 
Q 34.1875 6.109375 38.703125 11.40625 
Q 43.21875 16.703125 43.21875 25.484375 
L 43.21875 27.484375 
z
M 52.203125 31.203125 
L 52.203125 0 
L 43.21875 0 
L 43.21875 8.296875 
Q 40.140625 3.328125 35.546875 0.953125 
Q 30.953125 -1.421875 24.3125 -1.421875 
Q 15.921875 -1.421875 10.953125 3.296875 
Q 6 8.015625 6 15.921875 
Q 6 25.140625 12.171875 29.828125 
Q 18.359375 34.515625 30.609375 34.515625 
L 43.21875 34.515625 
L 43.21875 35.40625 
Q 43.21875 41.609375 39.140625 45 
Q 35.0625 48.390625 27.6875 48.390625 
Q 23 48.390625 18.546875 47.265625 
Q 14.109375 46.140625 10.015625 43.890625 
L 10.015625 52.203125 
Q 14.9375 54.109375 19.578125 55.046875 
Q 24.21875 56 28.609375 56 
Q 40.484375 56 46.34375 49.84375 
Q 52.203125 43.703125 52.203125 31.203125 
" id="BitstreamVeraSans-Roman-61"/>
      <path d="M 44.28125 53.078125 
L 44.28125 44.578125 
Q 40.484375 46.53125 36.375 47.5 
Q 32.28125 48.484375 27.875 48.484375 
Q 21.1875 48.484375 17.84375 46.4375 
Q 14.5 44.390625 14.5 40.28125 
Q 14.5 37.15625 16.890625 35.375 
Q 19.28125 33.59375 26.515625 31.984375 
L 29.59375 31.296875 
Q 39.15625 29.25 43.1875 25.515625 
Q 47.21875 21.78125 47.21875 15.09375 
Q 47.21875 7.46875 41.1875 3.015625 
Q 35.15625 -1.421875 24.609375 -1.421875 
Q 20.21875 -1.421875 15.453125 -0.5625 
Q 10.6875 0.296875 5.421875 2 
L 5.421875 11.28125 
Q 10.40625 8.6875 15.234375 7.390625 
Q 20.0625 6.109375 24.8125 6.109375 
Q 31.15625 6.109375 34.5625 8.28125 
Q 37.984375 10.453125 37.984375 14.40625 
Q 37.984375 18.0625 35.515625 20.015625 
Q 33.0625 21.96875 24.703125 23.78125 
L 21.578125 24.515625 
Q 13.234375 26.265625 9.515625 29.90625 
Q 5.8125 33.546875 5.8125 39.890625 
Q 5.8125 47.609375 11.28125 51.796875 
Q 16.75 56 26.8125 56 
Q 31.78125 56 36.171875 55.265625 
Q 40.578125 54.546875 44.28125 53.078125 
" id="BitstreamVeraSans-Roman-73"/>
      <path d="M 9.8125 72.90625 
L 19.671875 72.90625 
L 19.671875 0 
L 9.8125 0 
z
" id="BitstreamVeraSans-Roman-49"/>
     </defs>
     <g transform="translate(185.4890625 402.609467822)scale(0.2 -0.2)">
      <use xlink:href="#BitstreamVeraSans-Roman-6c"/>
      <use x="27.783203125" xlink:href="#BitstreamVeraSans-Roman-6f"/>
      <use x="88.96484375" xlink:href="#BitstreamVeraSans-Roman-67"/>
      <use x="152.44140625" xlink:href="#BitstreamVeraSans-Roman-31"/>
      <use x="216.064453125" xlink:href="#BitstreamVeraSans-Roman-30"/>
      <use x="279.6875" xlink:href="#BitstreamVeraSans-Roman-20"/>
      <use x="311.474609375" xlink:href="#BitstreamVeraSans-Roman-6f"/>
      <use x="372.65625" xlink:href="#BitstreamVeraSans-Roman-66"/>
      <use x="407.861328125" xlink:href="#BitstreamVeraSans-Roman-20"/>
      <use x="439.6484375" xlink:href="#BitstreamVeraSans-Roman-46"/>
      <use x="497.16796875" xlink:href="#BitstreamVeraSans-Roman-45"/>
      <use x="560.3515625" xlink:href="#BitstreamVeraSans-Roman-76"/>
      <use x="619.53125" xlink:href="#BitstreamVeraSans-Roman-61"/>
      <use x="680.810546875" xlink:href="#BitstreamVeraSans-Roman-6c"/>
      <use x="708.59375" xlink:href="#BitstreamVeraSans-Roman-73"/>
      <use x="760.693359375" xlink:href="#BitstreamVeraSans-Roman-20"/>
      <use x="792.48046875" xlink:href="#BitstreamVeraSans-Roman-2f"/>
      <use x="826.171875" xlink:href="#BitstreamVeraSans-Roman-20"/>
      <use x="857.958984375" xlink:href="#BitstreamVeraSans-Roman-44"/>
      <use x="934.9609375" xlink:href="#BitstreamVeraSans-Roman-49"/>
      <use x="964.453125" xlink:href="#BitstreamVeraSans-Roman-4d"/>
     </g>
    </g>
   </g>
   <g id="matplotlib.axis_2">
    <g id="ytick_1">
     <g id="line2d_119">
      <path clip-path="url(#p5c6a467eb7)" d="M 67.3625 359.056343 
L 513.7625 359.056343 
" style="fill:none;stroke:#000000;stroke-dasharray:1.000000,3.000000;stroke-dashoffset:0.0;stroke-width:0.5;"/>
     </g>
     <g id="line2d_120">
      <defs>
       <path d="M 0 0 
L 4 0 
" id="m813dafc429" style="stroke:#000000;stroke-width:0.5;"/>
      </defs>
      <g>
       <use style="stroke:#000000;stroke-width:0.5;" x="67.3625" xlink:href="#m813dafc429" y="359.056342822"/>
      </g>
     </g>
     <g id="line2d_121">
      <defs>
       <path d="M 0 0 
L -4 0 
" id="m0968a333ee" style="stroke:#000000;stroke-width:0.5;"/>
      </defs>
      <g>
       <use style="stroke:#000000;stroke-width:0.5;" x="513.7625" xlink:href="#m0968a333ee" y="359.056342822"/>
      </g>
     </g>
     <g id="text_7">
      <!-- 0.0 -->
      <defs>
       <path d="M 10.6875 12.40625 
L 21 12.40625 
L 21 0 
L 10.6875 0 
z
" id="BitstreamVeraSans-Roman-2e"/>
      </defs>
      <g transform="translate(31.55625 364.575092822)scale(0.2 -0.2)">
       <use xlink:href="#BitstreamVeraSans-Roman-30"/>
       <use x="63.623046875" xlink:href="#BitstreamVeraSans-Roman-2e"/>
       <use x="95.41015625" xlink:href="#BitstreamVeraSans-Roman-30"/>
      </g>
     </g>
    </g>
    <g id="ytick_2">
     <g id="line2d_122">
      <path clip-path="url(#p5c6a467eb7)" d="M 67.3625 290.620699 
L 513.7625 290.620699 
" style="fill:none;stroke:#000000;stroke-dasharray:1.000000,3.000000;stroke-dashoffset:0.0;stroke-width:0.5;"/>
     </g>
     <g id="line2d_123">
      <g>
       <use style="stroke:#000000;stroke-width:0.5;" x="67.3625" xlink:href="#m813dafc429" y="290.620699257"/>
      </g>
     </g>
     <g id="line2d_124">
      <g>
       <use style="stroke:#000000;stroke-width:0.5;" x="513.7625" xlink:href="#m0968a333ee" y="290.620699257"/>
      </g>
     </g>
     <g id="text_8">
      <!-- 0.2 -->
      <g transform="translate(31.55625 296.139449257)scale(0.2 -0.2)">
       <use xlink:href="#BitstreamVeraSans-Roman-30"/>
       <use x="63.623046875" xlink:href="#BitstreamVeraSans-Roman-2e"/>
       <use x="95.41015625" xlink:href="#BitstreamVeraSans-Roman-32"/>
      </g>
     </g>
    </g>
    <g id="ytick_3">
     <g id="line2d_125">
      <path clip-path="url(#p5c6a467eb7)" d="M 67.3625 222.185056 
L 513.7625 222.185056 
" style="fill:none;stroke:#000000;stroke-dasharray:1.000000,3.000000;stroke-dashoffset:0.0;stroke-width:0.5;"/>
     </g>
     <g id="line2d_126">
      <g>
       <use style="stroke:#000000;stroke-width:0.5;" x="67.3625" xlink:href="#m813dafc429" y="222.185055693"/>
      </g>
     </g>
     <g id="line2d_127">
      <g>
       <use style="stroke:#000000;stroke-width:0.5;" x="513.7625" xlink:href="#m0968a333ee" y="222.185055693"/>
      </g>
     </g>
     <g id="text_9">
      <!-- 0.4 -->
      <g transform="translate(31.55625 227.703805693)scale(0.2 -0.2)">
       <use xlink:href="#BitstreamVeraSans-Roman-30"/>
       <use x="63.623046875" xlink:href="#BitstreamVeraSans-Roman-2e"/>
       <use x="95.41015625" xlink:href="#BitstreamVeraSans-Roman-34"/>
      </g>
     </g>
    </g>
    <g id="ytick_4">
     <g id="line2d_128">
      <path clip-path="url(#p5c6a467eb7)" d="M 67.3625 153.749412 
L 513.7625 153.749412 
" style="fill:none;stroke:#000000;stroke-dasharray:1.000000,3.000000;stroke-dashoffset:0.0;stroke-width:0.5;"/>
     </g>
     <g id="line2d_129">
      <g>
       <use style="stroke:#000000;stroke-width:0.5;" x="67.3625" xlink:href="#m813dafc429" y="153.749412129"/>
      </g>
     </g>
     <g id="line2d_130">
      <g>
       <use style="stroke:#000000;stroke-width:0.5;" x="513.7625" xlink:href="#m0968a333ee" y="153.749412129"/>
      </g>
     </g>
     <g id="text_10">
      <!-- 0.6 -->
      <defs>
       <path d="M 33.015625 40.375 
Q 26.375 40.375 22.484375 35.828125 
Q 18.609375 31.296875 18.609375 23.390625 
Q 18.609375 15.53125 22.484375 10.953125 
Q 26.375 6.390625 33.015625 6.390625 
Q 39.65625 6.390625 43.53125 10.953125 
Q 47.40625 15.53125 47.40625 23.390625 
Q 47.40625 31.296875 43.53125 35.828125 
Q 39.65625 40.375 33.015625 40.375 
M 52.59375 71.296875 
L 52.59375 62.3125 
Q 48.875 64.0625 45.09375 64.984375 
Q 41.3125 65.921875 37.59375 65.921875 
Q 27.828125 65.921875 22.671875 59.328125 
Q 17.53125 52.734375 16.796875 39.40625 
Q 19.671875 43.65625 24.015625 45.921875 
Q 28.375 48.1875 33.59375 48.1875 
Q 44.578125 48.1875 50.953125 41.515625 
Q 57.328125 34.859375 57.328125 23.390625 
Q 57.328125 12.15625 50.6875 5.359375 
Q 44.046875 -1.421875 33.015625 -1.421875 
Q 20.359375 -1.421875 13.671875 8.265625 
Q 6.984375 17.96875 6.984375 36.375 
Q 6.984375 53.65625 15.1875 63.9375 
Q 23.390625 74.21875 37.203125 74.21875 
Q 40.921875 74.21875 44.703125 73.484375 
Q 48.484375 72.75 52.59375 71.296875 
" id="BitstreamVeraSans-Roman-36"/>
      </defs>
      <g transform="translate(31.55625 159.268162129)scale(0.2 -0.2)">
       <use xlink:href="#BitstreamVeraSans-Roman-30"/>
       <use x="63.623046875" xlink:href="#BitstreamVeraSans-Roman-2e"/>
       <use x="95.41015625" xlink:href="#BitstreamVeraSans-Roman-36"/>
      </g>
     </g>
    </g>
    <g id="ytick_5">
     <g id="line2d_131">
      <path clip-path="url(#p5c6a467eb7)" d="M 67.3625 85.313769 
L 513.7625 85.313769 
" style="fill:none;stroke:#000000;stroke-dasharray:1.000000,3.000000;stroke-dashoffset:0.0;stroke-width:0.5;"/>
     </g>
     <g id="line2d_132">
      <g>
       <use style="stroke:#000000;stroke-width:0.5;" x="67.3625" xlink:href="#m813dafc429" y="85.3137685644"/>
      </g>
     </g>
     <g id="line2d_133">
      <g>
       <use style="stroke:#000000;stroke-width:0.5;" x="513.7625" xlink:href="#m0968a333ee" y="85.3137685644"/>
      </g>
     </g>
     <g id="text_11">
      <!-- 0.8 -->
      <defs>
       <path d="M 31.78125 34.625 
Q 24.75 34.625 20.71875 30.859375 
Q 16.703125 27.09375 16.703125 20.515625 
Q 16.703125 13.921875 20.71875 10.15625 
Q 24.75 6.390625 31.78125 6.390625 
Q 38.8125 6.390625 42.859375 10.171875 
Q 46.921875 13.96875 46.921875 20.515625 
Q 46.921875 27.09375 42.890625 30.859375 
Q 38.875 34.625 31.78125 34.625 
M 21.921875 38.8125 
Q 15.578125 40.375 12.03125 44.71875 
Q 8.5 49.078125 8.5 55.328125 
Q 8.5 64.0625 14.71875 69.140625 
Q 20.953125 74.21875 31.78125 74.21875 
Q 42.671875 74.21875 48.875 69.140625 
Q 55.078125 64.0625 55.078125 55.328125 
Q 55.078125 49.078125 51.53125 44.71875 
Q 48 40.375 41.703125 38.8125 
Q 48.828125 37.15625 52.796875 32.3125 
Q 56.78125 27.484375 56.78125 20.515625 
Q 56.78125 9.90625 50.3125 4.234375 
Q 43.84375 -1.421875 31.78125 -1.421875 
Q 19.734375 -1.421875 13.25 4.234375 
Q 6.78125 9.90625 6.78125 20.515625 
Q 6.78125 27.484375 10.78125 32.3125 
Q 14.796875 37.15625 21.921875 38.8125 
M 18.3125 54.390625 
Q 18.3125 48.734375 21.84375 45.5625 
Q 25.390625 42.390625 31.78125 42.390625 
Q 38.140625 42.390625 41.71875 45.5625 
Q 45.3125 48.734375 45.3125 54.390625 
Q 45.3125 60.0625 41.71875 63.234375 
Q 38.140625 66.40625 31.78125 66.40625 
Q 25.390625 66.40625 21.84375 63.234375 
Q 18.3125 60.0625 18.3125 54.390625 
" id="BitstreamVeraSans-Roman-38"/>
      </defs>
      <g transform="translate(31.55625 90.8325185644)scale(0.2 -0.2)">
       <use xlink:href="#BitstreamVeraSans-Roman-30"/>
       <use x="63.623046875" xlink:href="#BitstreamVeraSans-Roman-2e"/>
       <use x="95.41015625" xlink:href="#BitstreamVeraSans-Roman-38"/>
      </g>
     </g>
    </g>
    <g id="ytick_6">
     <g id="line2d_134">
      <path clip-path="url(#p5c6a467eb7)" d="M 67.3625 16.878125 
L 513.7625 16.878125 
" style="fill:none;stroke:#000000;stroke-dasharray:1.000000,3.000000;stroke-dashoffset:0.0;stroke-width:0.5;"/>
     </g>
     <g id="line2d_135">
      <g>
       <use style="stroke:#000000;stroke-width:0.5;" x="67.3625" xlink:href="#m813dafc429" y="16.878125"/>
      </g>
     </g>
     <g id="line2d_136">
      <g>
       <use style="stroke:#000000;stroke-width:0.5;" x="513.7625" xlink:href="#m0968a333ee" y="16.878125"/>
      </g>
     </g>
     <g id="text_12">
      <!-- 1.0 -->
      <g transform="translate(31.55625 22.396875)scale(0.2 -0.2)">
       <use xlink:href="#BitstreamVeraSans-Roman-31"/>
       <use x="63.623046875" xlink:href="#BitstreamVeraSans-Roman-2e"/>
       <use x="95.41015625" xlink:href="#BitstreamVeraSans-Roman-30"/>
      </g>
     </g>
    </g>
    <g id="text_13">
     <!-- proportion of trials -->
     <defs>
      <path d="M 54.890625 33.015625 
L 54.890625 0 
L 45.90625 0 
L 45.90625 32.71875 
Q 45.90625 40.484375 42.875 44.328125 
Q 39.84375 48.1875 33.796875 48.1875 
Q 26.515625 48.1875 22.3125 43.546875 
Q 18.109375 38.921875 18.109375 30.90625 
L 18.109375 0 
L 9.078125 0 
L 9.078125 54.6875 
L 18.109375 54.6875 
L 18.109375 46.1875 
Q 21.34375 51.125 25.703125 53.5625 
Q 30.078125 56 35.796875 56 
Q 45.21875 56 50.046875 50.171875 
Q 54.890625 44.34375 54.890625 33.015625 
" id="BitstreamVeraSans-Roman-6e"/>
      <path d="M 9.421875 54.6875 
L 18.40625 54.6875 
L 18.40625 0 
L 9.421875 0 
z
M 9.421875 75.984375 
L 18.40625 75.984375 
L 18.40625 64.59375 
L 9.421875 64.59375 
z
" id="BitstreamVeraSans-Roman-69"/>
      <path d="M 18.3125 70.21875 
L 18.3125 54.6875 
L 36.8125 54.6875 
L 36.8125 47.703125 
L 18.3125 47.703125 
L 18.3125 18.015625 
Q 18.3125 11.328125 20.140625 9.421875 
Q 21.96875 7.515625 27.59375 7.515625 
L 36.8125 7.515625 
L 36.8125 0 
L 27.59375 0 
Q 17.1875 0 13.234375 3.875 
Q 9.28125 7.765625 9.28125 18.015625 
L 9.28125 47.703125 
L 2.6875 47.703125 
L 2.6875 54.6875 
L 9.28125 54.6875 
L 9.28125 70.21875 
z
" id="BitstreamVeraSans-Roman-74"/>
      <path d="M 41.109375 46.296875 
Q 39.59375 47.171875 37.8125 47.578125 
Q 36.03125 48 33.890625 48 
Q 26.265625 48 22.1875 43.046875 
Q 18.109375 38.09375 18.109375 28.8125 
L 18.109375 0 
L 9.078125 0 
L 9.078125 54.6875 
L 18.109375 54.6875 
L 18.109375 46.1875 
Q 20.953125 51.171875 25.484375 53.578125 
Q 30.03125 56 36.53125 56 
Q 37.453125 56 38.578125 55.875 
Q 39.703125 55.765625 41.0625 55.515625 
z
" id="BitstreamVeraSans-Roman-72"/>
      <path d="M 18.109375 8.203125 
L 18.109375 -20.796875 
L 9.078125 -20.796875 
L 9.078125 54.6875 
L 18.109375 54.6875 
L 18.109375 46.390625 
Q 20.953125 51.265625 25.265625 53.625 
Q 29.59375 56 35.59375 56 
Q 45.5625 56 51.78125 48.09375 
Q 58.015625 40.1875 58.015625 27.296875 
Q 58.015625 14.40625 51.78125 6.484375 
Q 45.5625 -1.421875 35.59375 -1.421875 
Q 29.59375 -1.421875 25.265625 0.953125 
Q 20.953125 3.328125 18.109375 8.203125 
M 48.6875 27.296875 
Q 48.6875 37.203125 44.609375 42.84375 
Q 40.53125 48.484375 33.40625 48.484375 
Q 26.265625 48.484375 22.1875 42.84375 
Q 18.109375 37.203125 18.109375 27.296875 
Q 18.109375 17.390625 22.1875 11.75 
Q 26.265625 6.109375 33.40625 6.109375 
Q 40.53125 6.109375 44.609375 11.75 
Q 48.6875 17.390625 48.6875 27.296875 
" id="BitstreamVeraSans-Roman-70"/>
     </defs>
     <g transform="translate(22.396875 279.484467822)rotate(-90.0)scale(0.2 -0.2)">
      <use xlink:href="#BitstreamVeraSans-Roman-70"/>
      <use x="63.4765625" xlink:href="#BitstreamVeraSans-Roman-72"/>
      <use x="104.55859375" xlink:href="#BitstreamVeraSans-Roman-6f"/>
      <use x="165.740234375" xlink:href="#BitstreamVeraSans-Roman-70"/>
      <use x="229.216796875" xlink:href="#BitstreamVeraSans-Roman-6f"/>
      <use x="290.3984375" xlink:href="#BitstreamVeraSans-Roman-72"/>
      <use x="331.51171875" xlink:href="#BitstreamVeraSans-Roman-74"/>
      <use x="370.720703125" xlink:href="#BitstreamVeraSans-Roman-69"/>
      <use x="398.50390625" xlink:href="#BitstreamVeraSans-Roman-6f"/>
      <use x="459.685546875" xlink:href="#BitstreamVeraSans-Roman-6e"/>
      <use x="523.064453125" xlink:href="#BitstreamVeraSans-Roman-20"/>
      <use x="554.8515625" xlink:href="#BitstreamVeraSans-Roman-6f"/>
      <use x="616.033203125" xlink:href="#BitstreamVeraSans-Roman-66"/>
      <use x="651.23828125" xlink:href="#BitstreamVeraSans-Roman-20"/>
      <use x="683.025390625" xlink:href="#BitstreamVeraSans-Roman-74"/>
      <use x="722.234375" xlink:href="#BitstreamVeraSans-Roman-72"/>
      <use x="763.34765625" xlink:href="#BitstreamVeraSans-Roman-69"/>
      <use x="791.130859375" xlink:href="#BitstreamVeraSans-Roman-61"/>
      <use x="852.41015625" xlink:href="#BitstreamVeraSans-Roman-6c"/>
      <use x="880.193359375" xlink:href="#BitstreamVeraSans-Roman-73"/>
     </g>
    </g>
   </g>
   <g id="text_14">
    <!-- {f20-f24}, 5-D -->
    <defs>
     <path d="M 11.71875 12.40625 
L 22.015625 12.40625 
L 22.015625 4 
L 14.015625 -11.625 
L 7.71875 -11.625 
L 11.71875 4 
z
" id="BitstreamVeraSans-Roman-2c"/>
     <path d="M 12.5 -9.28125 
L 15.921875 -9.28125 
Q 22.75 -9.28125 24.828125 -7.171875 
Q 26.90625 -5.078125 26.90625 1.90625 
L 26.90625 14.015625 
Q 26.90625 21.625 29.09375 25.09375 
Q 31.296875 28.5625 36.71875 29.890625 
Q 31.296875 31.109375 29.09375 34.5625 
Q 26.90625 38.03125 26.90625 45.703125 
L 26.90625 57.8125 
Q 26.90625 64.75 24.828125 66.875 
Q 22.75 69 15.921875 69 
L 12.5 69 
L 12.5 75.984375 
L 15.578125 75.984375 
Q 27.734375 75.984375 31.8125 72.390625 
Q 35.890625 68.796875 35.890625 58.015625 
L 35.890625 46.296875 
Q 35.890625 39.015625 38.515625 36.203125 
Q 41.15625 33.40625 48.09375 33.40625 
L 51.125 33.40625 
L 51.125 26.421875 
L 48.09375 26.421875 
Q 41.15625 26.421875 38.515625 23.578125 
Q 35.890625 20.75 35.890625 13.375 
L 35.890625 1.703125 
Q 35.890625 -9.078125 31.8125 -12.6875 
Q 27.734375 -16.3125 15.578125 -16.3125 
L 12.5 -16.3125 
z
" id="BitstreamVeraSans-Roman-7d"/>
     <path d="M 51.125 -9.28125 
L 51.125 -16.3125 
L 48.09375 -16.3125 
Q 35.9375 -16.3125 31.8125 -12.6875 
Q 27.6875 -9.078125 27.6875 1.703125 
L 27.6875 13.375 
Q 27.6875 20.75 25.046875 23.578125 
Q 22.40625 26.421875 15.484375 26.421875 
L 12.5 26.421875 
L 12.5 33.40625 
L 15.484375 33.40625 
Q 22.46875 33.40625 25.078125 36.203125 
Q 27.6875 39.015625 27.6875 46.296875 
L 27.6875 58.015625 
Q 27.6875 68.796875 31.8125 72.390625 
Q 35.9375 75.984375 48.09375 75.984375 
L 51.125 75.984375 
L 51.125 69 
L 47.796875 69 
Q 40.921875 69 38.8125 66.84375 
Q 36.71875 64.703125 36.71875 57.8125 
L 36.71875 45.703125 
Q 36.71875 38.03125 34.5 34.5625 
Q 32.28125 31.109375 26.90625 29.890625 
Q 32.328125 28.5625 34.515625 25.09375 
Q 36.71875 21.625 36.71875 14.015625 
L 36.71875 1.90625 
Q 36.71875 -4.984375 38.8125 -7.125 
Q 40.921875 -9.28125 47.796875 -9.28125 
z
" id="BitstreamVeraSans-Roman-7b"/>
     <path d="M 4.890625 31.390625 
L 31.203125 31.390625 
L 31.203125 23.390625 
L 4.890625 23.390625 
z
" id="BitstreamVeraSans-Roman-2d"/>
     <path d="M 10.796875 72.90625 
L 49.515625 72.90625 
L 49.515625 64.59375 
L 19.828125 64.59375 
L 19.828125 46.734375 
Q 21.96875 47.46875 24.109375 47.828125 
Q 26.265625 48.1875 28.421875 48.1875 
Q 40.625 48.1875 47.75 41.5 
Q 54.890625 34.8125 54.890625 23.390625 
Q 54.890625 11.625 47.5625 5.09375 
Q 40.234375 -1.421875 26.90625 -1.421875 
Q 22.3125 -1.421875 17.546875 -0.640625 
Q 12.796875 0.140625 7.71875 1.703125 
L 7.71875 11.625 
Q 12.109375 9.234375 16.796875 8.0625 
Q 21.484375 6.890625 26.703125 6.890625 
Q 35.15625 6.890625 40.078125 11.328125 
Q 45.015625 15.765625 45.015625 23.390625 
Q 45.015625 31 40.078125 35.4375 
Q 35.15625 39.890625 26.703125 39.890625 
Q 22.75 39.890625 18.8125 39.015625 
Q 14.890625 38.140625 10.796875 36.28125 
z
" id="BitstreamVeraSans-Roman-35"/>
    </defs>
    <g transform="translate(217.7125 35.5652178218)scale(0.2 -0.2)">
     <use xlink:href="#BitstreamVeraSans-Roman-7b"/>
     <use x="63.623046875" xlink:href="#BitstreamVeraSans-Roman-66"/>
     <use x="98.828125" xlink:href="#BitstreamVeraSans-Roman-32"/>
     <use x="162.451171875" xlink:href="#BitstreamVeraSans-Roman-30"/>
     <use x="226.07421875" xlink:href="#BitstreamVeraSans-Roman-2d"/>
     <use x="262.158203125" xlink:href="#BitstreamVeraSans-Roman-66"/>
     <use x="297.36328125" xlink:href="#BitstreamVeraSans-Roman-32"/>
     <use x="360.986328125" xlink:href="#BitstreamVeraSans-Roman-34"/>
     <use x="424.609375" xlink:href="#BitstreamVeraSans-Roman-7d"/>
     <use x="488.232421875" xlink:href="#BitstreamVeraSans-Roman-2c"/>
     <use x="520.01953125" xlink:href="#BitstreamVeraSans-Roman-20"/>
     <use x="551.806640625" xlink:href="#BitstreamVeraSans-Roman-35"/>
     <use x="615.4296875" xlink:href="#BitstreamVeraSans-Roman-2d"/>
     <use x="651.513671875" xlink:href="#BitstreamVeraSans-Roman-44"/>
    </g>
   </g>
   <g id="text_15">
    <!-- absolute targets -->
    <defs>
     <path d="M 56.203125 29.59375 
L 56.203125 25.203125 
L 14.890625 25.203125 
Q 15.484375 15.921875 20.484375 11.0625 
Q 25.484375 6.203125 34.421875 6.203125 
Q 39.59375 6.203125 44.453125 7.46875 
Q 49.3125 8.734375 54.109375 11.28125 
L 54.109375 2.78125 
Q 49.265625 0.734375 44.1875 -0.34375 
Q 39.109375 -1.421875 33.890625 -1.421875 
Q 20.796875 -1.421875 13.15625 6.1875 
Q 5.515625 13.8125 5.515625 26.8125 
Q 5.515625 40.234375 12.765625 48.109375 
Q 20.015625 56 32.328125 56 
Q 43.359375 56 49.78125 48.890625 
Q 56.203125 41.796875 56.203125 29.59375 
M 47.21875 32.234375 
Q 47.125 39.59375 43.09375 43.984375 
Q 39.0625 48.390625 32.421875 48.390625 
Q 24.90625 48.390625 20.390625 44.140625 
Q 15.875 39.890625 15.1875 32.171875 
z
" id="BitstreamVeraSans-Roman-65"/>
     <path d="M 8.5 21.578125 
L 8.5 54.6875 
L 17.484375 54.6875 
L 17.484375 21.921875 
Q 17.484375 14.15625 20.5 10.265625 
Q 23.53125 6.390625 29.59375 6.390625 
Q 36.859375 6.390625 41.078125 11.03125 
Q 45.3125 15.671875 45.3125 23.6875 
L 45.3125 54.6875 
L 54.296875 54.6875 
L 54.296875 0 
L 45.3125 0 
L 45.3125 8.40625 
Q 42.046875 3.421875 37.71875 1 
Q 33.40625 -1.421875 27.6875 -1.421875 
Q 18.265625 -1.421875 13.375 4.4375 
Q 8.5 10.296875 8.5 21.578125 
" id="BitstreamVeraSans-Roman-75"/>
     <path d="M 48.6875 27.296875 
Q 48.6875 37.203125 44.609375 42.84375 
Q 40.53125 48.484375 33.40625 48.484375 
Q 26.265625 48.484375 22.1875 42.84375 
Q 18.109375 37.203125 18.109375 27.296875 
Q 18.109375 17.390625 22.1875 11.75 
Q 26.265625 6.109375 33.40625 6.109375 
Q 40.53125 6.109375 44.609375 11.75 
Q 48.6875 17.390625 48.6875 27.296875 
M 18.109375 46.390625 
Q 20.953125 51.265625 25.265625 53.625 
Q 29.59375 56 35.59375 56 
Q 45.5625 56 51.78125 48.09375 
Q 58.015625 40.1875 58.015625 27.296875 
Q 58.015625 14.40625 51.78125 6.484375 
Q 45.5625 -1.421875 35.59375 -1.421875 
Q 29.59375 -1.421875 25.265625 0.953125 
Q 20.953125 3.328125 18.109375 8.203125 
L 18.109375 0 
L 9.078125 0 
L 9.078125 75.984375 
L 18.109375 75.984375 
z
" id="BitstreamVeraSans-Roman-62"/>
    </defs>
    <g transform="translate(67.3625 359.056342822)scale(0.14 -0.14)">
     <use xlink:href="#BitstreamVeraSans-Roman-61"/>
     <use x="61.279296875" xlink:href="#BitstreamVeraSans-Roman-62"/>
     <use x="124.755859375" xlink:href="#BitstreamVeraSans-Roman-73"/>
     <use x="176.85546875" xlink:href="#BitstreamVeraSans-Roman-6f"/>
     <use x="238.037109375" xlink:href="#BitstreamVeraSans-Roman-6c"/>
     <use x="265.8203125" xlink:href="#BitstreamVeraSans-Roman-75"/>
     <use x="329.19921875" xlink:href="#BitstreamVeraSans-Roman-74"/>
     <use x="368.408203125" xlink:href="#BitstreamVeraSans-Roman-65"/>
     <use x="429.931640625" xlink:href="#BitstreamVeraSans-Roman-20"/>
     <use x="461.71875" xlink:href="#BitstreamVeraSans-Roman-74"/>
     <use x="500.927734375" xlink:href="#BitstreamVeraSans-Roman-61"/>
     <use x="562.20703125" xlink:href="#BitstreamVeraSans-Roman-72"/>
     <use x="603.3046875" xlink:href="#BitstreamVeraSans-Roman-67"/>
     <use x="666.78125" xlink:href="#BitstreamVeraSans-Roman-65"/>
     <use x="728.3046875" xlink:href="#BitstreamVeraSans-Roman-74"/>
     <use x="767.513671875" xlink:href="#BitstreamVeraSans-Roman-73"/>
    </g>
   </g>
   <g id="text_16">
    <!-- 1.2.1 -->
    <g style="fill:#808080;" transform="translate(277.840625 353.520655322)scale(0.1 -0.1)">
     <use xlink:href="#BitstreamVeraSans-Roman-31"/>
     <use x="63.623046875" xlink:href="#BitstreamVeraSans-Roman-2e"/>
     <use x="95.41015625" xlink:href="#BitstreamVeraSans-Roman-32"/>
     <use x="159.033203125" xlink:href="#BitstreamVeraSans-Roman-2e"/>
     <use x="190.8203125" xlink:href="#BitstreamVeraSans-Roman-31"/>
    </g>
   </g>
   <g id="legend_1">
    <g id="patch_7">
     <path d="M 77.3625 146.881343 
L 214.584375 146.881343 
L 214.584375 23.456343 
L 77.3625 23.456343 
z
" style="fill:#ffffff;opacity:0.2;stroke:#000000;stroke-linejoin:miter;"/>
    </g>
    <g id="line2d_137">
     <path d="M 91.3625 39.653218 
L 119.3625 39.653218 
" style="fill:none;stroke:#000000;stroke-linecap:square;"/>
    </g>
    <g id="line2d_138"/>
    <g id="text_17">
     <!-- 1: 5/5 -->
     <defs>
      <path d="M 11.71875 12.40625 
L 22.015625 12.40625 
L 22.015625 0 
L 11.71875 0 
z
M 11.71875 51.703125 
L 22.015625 51.703125 
L 22.015625 39.3125 
L 11.71875 39.3125 
z
" id="BitstreamVeraSans-Roman-3a"/>
     </defs>
     <g transform="translate(141.3625 46.6532178218)scale(0.2 -0.2)">
      <use xlink:href="#BitstreamVeraSans-Roman-31"/>
      <use x="63.623046875" xlink:href="#BitstreamVeraSans-Roman-3a"/>
      <use x="97.314453125" xlink:href="#BitstreamVeraSans-Roman-20"/>
      <use x="129.1015625" xlink:href="#BitstreamVeraSans-Roman-35"/>
      <use x="192.724609375" xlink:href="#BitstreamVeraSans-Roman-2f"/>
      <use x="226.416015625" xlink:href="#BitstreamVeraSans-Roman-35"/>
     </g>
    </g>
    <g id="line2d_139">
     <path d="M 91.3625 69.009468 
L 119.3625 69.009468 
" style="fill:none;stroke:#00bfbf;stroke-linecap:square;"/>
    </g>
    <g id="line2d_140"/>
    <g id="text_18">
     <!-- -1: 2/5 -->
     <g transform="translate(141.3625 76.0094678218)scale(0.2 -0.2)">
      <use xlink:href="#BitstreamVeraSans-Roman-2d"/>
      <use x="36.083984375" xlink:href="#BitstreamVeraSans-Roman-31"/>
      <use x="99.70703125" xlink:href="#BitstreamVeraSans-Roman-3a"/>
      <use x="133.3984375" xlink:href="#BitstreamVeraSans-Roman-20"/>
      <use x="165.185546875" xlink:href="#BitstreamVeraSans-Roman-32"/>
      <use x="228.80859375" xlink:href="#BitstreamVeraSans-Roman-2f"/>
      <use x="262.5" xlink:href="#BitstreamVeraSans-Roman-35"/>
     </g>
    </g>
    <g id="line2d_141">
     <path d="M 91.3625 98.365718 
L 119.3625 98.365718 
" style="fill:none;stroke:#bf00bf;stroke-linecap:square;"/>
    </g>
    <g id="line2d_142"/>
    <g id="text_19">
     <!-- -4: 2/5 -->
     <g transform="translate(141.3625 105.365717822)scale(0.2 -0.2)">
      <use xlink:href="#BitstreamVeraSans-Roman-2d"/>
      <use x="36.083984375" xlink:href="#BitstreamVeraSans-Roman-34"/>
      <use x="99.70703125" xlink:href="#BitstreamVeraSans-Roman-3a"/>
      <use x="133.3984375" xlink:href="#BitstreamVeraSans-Roman-20"/>
      <use x="165.185546875" xlink:href="#BitstreamVeraSans-Roman-32"/>
      <use x="228.80859375" xlink:href="#BitstreamVeraSans-Roman-2f"/>
      <use x="262.5" xlink:href="#BitstreamVeraSans-Roman-35"/>
     </g>
    </g>
    <g id="line2d_143">
     <path d="M 91.3625 127.721968 
L 119.3625 127.721968 
" style="fill:none;stroke:#ff0000;stroke-linecap:square;stroke-width:3.0;"/>
    </g>
    <g id="line2d_144"/>
    <g id="text_20">
     <!-- -8: 2/5 -->
     <g transform="translate(141.3625 134.721967822)scale(0.2 -0.2)">
      <use xlink:href="#BitstreamVeraSans-Roman-2d"/>
      <use x="36.083984375" xlink:href="#BitstreamVeraSans-Roman-38"/>
      <use x="99.70703125" xlink:href="#BitstreamVeraSans-Roman-3a"/>
      <use x="133.3984375" xlink:href="#BitstreamVeraSans-Roman-20"/>
      <use x="165.185546875" xlink:href="#BitstreamVeraSans-Roman-32"/>
      <use x="228.80859375" xlink:href="#BitstreamVeraSans-Roman-2f"/>
      <use x="262.5" xlink:href="#BitstreamVeraSans-Roman-35"/>
     </g>
    </g>
   </g>
  </g>
 </g>
 <defs>
  <clipPath id="p5c6a467eb7">
   <rect height="345.6" width="446.4" x="67.3625" y="13.4563428218"/>
  </clipPath>
 </defs>
</svg>
