<?xml version="1.0" encoding="utf-8" standalone="no"?>
<!DOCTYPE svg PUBLIC "-//W3C//DTD SVG 1.1//EN"
  "http://www.w3.org/Graphics/SVG/1.1/DTD/svg11.dtd">
<!-- Created with matplotlib (http://matplotlib.org/) -->
<svg height="407pt" version="1.1" viewBox="0 0 460 407" width="460pt" xmlns="http://www.w3.org/2000/svg" xmlns:xlink="http://www.w3.org/1999/xlink">
 <defs>
  <style type="text/css">
*{stroke-linecap:butt;stroke-linejoin:round;}
  </style>
 </defs>
 <g id="figure_1">
  <g id="patch_1">
   <path d="
M0 407.712
L460.8 407.712
L460.8 0
L0 0
z
" style="fill:#ffffff;"/>
  </g>
  <g id="axes_1">
   <g id="patch_2">
    <path d="
M7.2 352.8
L453.6 352.8
L453.6 7.2
L7.2 7.2
z
" style="fill:#ffffff;"/>
   </g>
   <g id="line2d_1">
    <path clip-path="url(#p99b4b0da67)" d="
M179.161 352.8
L179.161 348.238
L189.224 348.238
L189.224 343.675
L193.202 343.675
L193.202 339.113
L196.098 339.113
L196.098 334.55
L196.228 334.55
L196.228 329.988
L197.701 329.988
L197.701 325.426
L198.13 325.426
L198.13 320.863
L200.33 320.863
L200.33 311.739
L201.376 311.739
L201.376 307.176
L201.622 307.176
L201.622 302.614
L202.258 302.614
L202.258 298.051
L203.098 298.051
L203.098 293.489
L203.986 293.489
L204.006 284.364
L206.251 284.364
L206.251 279.802
L206.752 279.802
L206.752 275.24
L207.555 275.24
L207.555 270.677
L210.095 270.677
L210.095 266.115
L211.329 266.115
L211.329 261.552
L211.519 261.552
L211.519 256.99
L211.934 256.99
L211.934 252.428
L212.348 252.428
L212.418 243.303
L212.746 243.303
L212.819 234.178
L213.285 234.178
L213.285 229.616
L213.724 229.616
L213.724 225.053
L214.38 225.053
L214.38 220.491
L215.873 220.491
L215.873 215.929
L216.279 215.929
L216.279 211.366
L216.499 211.366
L216.499 202.242
L216.936 202.242
L216.936 197.679
L218.709 197.679
L218.709 193.117
L218.904 193.117
L218.904 188.554
L219.246 188.554
L219.246 183.992
L219.993 183.992
L219.993 179.43
L221.193 179.43
L221.195 170.305
L221.386 170.305
L221.386 165.743
L221.755 165.743
L221.755 161.18
L221.947 161.18
L221.947 156.618
L222.26 156.618
L222.26 152.055
L222.698 152.055
L222.698 147.493
L223.098 147.493
L223.098 142.931
L226.449 142.931
L226.471 129.244
L226.742 129.244
L226.742 124.681
L227.528 124.681
L227.528 120.119
L227.695 120.119
L227.695 115.556
L227.835 115.556
L227.888 106.432
L228.195 106.432
L228.195 101.869
L228.722 101.869
L228.722 97.3069
L229.123 97.3069
L229.157 88.1822
L229.396 88.1822
L229.396 83.6198
L229.563 83.6198
L229.563 79.0574
L230.067 79.0574
L230.067 74.495
L230.257 74.495
L230.323 60.8079
L230.677 60.8079
L230.677 56.2455
L232.256 56.2455
L232.256 51.6832
L233.118 51.6832
L233.118 42.5584
L235.355 42.5584
L235.355 33.4337
L236.008 33.4337
L236.008 28.8713
L238.285 28.8713
L238.285 19.7465
L238.786 19.7465
L238.786 15.1842
L240.586 15.1842
L240.586 10.6218
L240.586 10.6218
L453.6 10.6218
L453.6 10.6218" style="fill:none;stroke:#ff0000;stroke-linecap:square;stroke-width:3.0;"/>
   </g>
   <g id="line2d_2">
    <path clip-path="url(#p99b4b0da67)" d="
M229.557 352.8
L229.557 348.238
L231.51 348.238
L231.51 343.675
L233.589 343.675
L233.589 339.113
L233.996 339.113
L233.996 334.55
L234.181 334.55
L234.271 325.426
L235.432 325.426
L235.432 320.863
L236.174 320.863
L236.174 316.301
L237.504 316.301
L237.504 311.739
L237.728 311.739
L237.728 307.176
L238.465 307.176
L238.465 302.614
L239.076 302.614
L239.076 298.051
L240.047 298.051
L240.047 293.489
L241.615 293.489
L241.615 288.927
L241.866 288.927
L241.866 284.364
L242.194 284.364
L242.194 279.802
L242.479 279.802
L242.547 270.677
L243.601 270.677
L243.712 261.552
L244.615 261.552
L244.615 256.99
L245.685 256.99
L245.685 252.428
L246.394 252.428
L246.394 247.865
L246.954 247.865
L246.954 243.303
L250.247 243.303
L250.296 234.178
L250.876 234.178
L250.876 229.616
L251.044 229.616
L251.044 225.053
L251.257 225.053
L251.271 215.929
L251.494 215.929
L251.494 211.366
L251.736 211.366
L251.736 206.804
L252.032 206.804
L252.032 202.242
L252.277 202.242
L252.277 197.679
L253.884 197.679
L253.884 193.117
L254.395 193.117
L254.395 188.554
L254.822 188.554
L254.822 183.992
L255.464 183.992
L255.464 179.43
L255.838 179.43
L255.938 170.305
L256.274 170.305
L256.274 165.743
L256.833 165.743
L256.833 161.18
L257.715 161.18
L257.715 156.618
L258.527 156.618
L258.527 152.055
L259.014 152.055
L259.061 142.931
L259.54 142.931
L259.54 138.368
L259.698 138.368
L259.698 133.806
L260.16 133.806
L260.16 129.244
L260.314 129.244
L260.314 124.681
L260.643 124.681
L260.643 120.119
L260.89 120.119
L260.962 110.994
L261.612 110.994
L261.612 106.432
L263.806 106.432
L263.829 97.3069
L265.659 97.3069
L265.659 92.7446
L266.141 92.7446
L266.189 83.6198
L266.276 83.6198
L266.276 79.0574
L266.7 79.0574
L266.7 74.495
L267.19 74.495
L267.19 69.9327
L267.313 69.9327
L267.313 65.3703
L271.482 65.3703
L271.482 60.8079
L272.04 60.8079
L272.04 56.2455
L272.515 56.2455
L272.515 51.6832
L274.008 51.6832
L274.008 47.1208
L274.864 47.1208
L274.864 42.5584
L276.474 42.5584
L276.474 37.996
L278.589 37.996
L278.592 28.8713
L280.535 28.8713
L280.535 24.3089
L281.968 24.3089
L281.968 19.7465
L286.712 19.7465
L286.712 15.1842
L290.232 15.1842
L290.232 10.6218
L290.232 10.6218
L453.6 10.6218
L453.6 10.6218" style="fill:none;stroke:#00bfbf;stroke-linecap:square;"/>
   </g>
   <g id="line2d_3">
    <path clip-path="url(#p99b4b0da67)" d="
M229.557 352.8
L229.557 348.238
L231.51 348.238
L231.51 343.675
L233.589 343.675
L233.589 339.113
L233.996 339.113
L233.996 334.55
L234.181 334.55
L234.271 325.426
L235.432 325.426
L235.432 320.863
L236.174 320.863
L236.174 316.301
L237.504 316.301
L237.504 311.739
L237.728 311.739
L237.728 307.176
L238.465 307.176
L238.465 302.614
L239.076 302.614
L239.076 298.051
L240.047 298.051
L240.047 293.489
L241.615 293.489
L241.615 288.927
L241.865 288.927
L241.865 284.364
L242.193 284.364
L242.193 279.802
L242.479 279.802
L242.547 270.677
L243.601 270.677
L243.712 261.552
L244.615 261.552
L244.615 256.99
L245.685 256.99
L245.685 252.428
L246.394 252.428
L246.394 247.865
L246.954 247.865
L246.954 243.303
L250.247 243.303
L250.296 234.178
L250.876 234.178
L250.876 229.616
L251.044 229.616
L251.044 225.053
L251.257 225.053
L251.271 215.929
L251.494 215.929
L251.494 211.366
L251.736 211.366
L251.736 206.804
L252.032 206.804
L252.032 202.242
L252.277 202.242
L252.277 197.679
L253.884 197.679
L253.884 193.117
L254.395 193.117
L254.395 188.554
L254.822 188.554
L254.822 183.992
L255.464 183.992
L255.464 179.43
L255.838 179.43
L255.938 170.305
L256.274 170.305
L256.274 165.743
L256.833 165.743
L256.833 161.18
L257.715 161.18
L257.715 156.618
L258.527 156.618
L258.527 152.055
L259.014 152.055
L259.061 142.931
L259.54 142.931
L259.54 138.368
L259.698 138.368
L259.698 133.806
L260.16 133.806
L260.16 129.244
L260.314 129.244
L260.314 124.681
L260.643 124.681
L260.643 120.119
L260.89 120.119
L260.962 110.994
L261.612 110.994
L261.612 106.432
L263.806 106.432
L263.829 97.3069
L265.659 97.3069
L265.659 92.7446
L266.141 92.7446
L266.189 83.6198
L266.276 83.6198
L266.276 79.0574
L266.7 79.0574
L266.7 74.495
L267.19 74.495
L267.19 69.9327
L267.313 69.9327
L267.313 65.3703
L271.482 65.3703
L271.482 60.8079
L272.04 60.8079
L272.04 56.2455
L272.515 56.2455
L272.515 51.6832
L274.008 51.6832
L274.008 47.1208
L274.864 47.1208
L274.864 42.5584
L276.474 42.5584
L276.474 37.996
L278.589 37.996
L278.592 28.8713
L280.535 28.8713
L280.535 24.3089
L281.968 24.3089
L281.968 19.7465
L286.712 19.7465
L286.712 15.1842
L290.232 15.1842
L290.232 10.6218
L290.232 10.6218
L453.6 10.6218
L453.6 10.6218" style="fill:none;stroke:#bf00bf;stroke-linecap:square;"/>
   </g>
   <g id="line2d_4">
    <path clip-path="url(#p99b4b0da67)" d="
M225.33 352.8
L225.33 348.238
L227.703 348.238
L227.703 343.675
L230.348 343.675
L230.348 339.113
L231.679 339.113
L231.679 334.55
L231.973 334.55
L231.991 325.426
L233.678 325.426
L233.678 320.863
L233.996 320.863
L234.002 311.739
L234.271 311.739
L234.271 307.176
L234.531 307.176
L234.531 302.614
L234.895 302.614
L234.954 293.489
L236.502 293.489
L236.502 288.927
L236.96 288.927
L237.048 279.802
L237.836 279.802
L237.86 270.677
L240.135 270.677
L240.135 266.115
L240.34 266.115
L240.34 261.552
L240.883 261.552
L240.883 256.99
L241.865 256.99
L241.865 252.428
L242.003 252.428
L242.003 247.865
L242.193 247.865
L242.193 243.303
L242.479 243.303
L242.479 238.741
L242.961 238.741
L242.961 234.178
L243.412 234.178
L243.412 229.616
L243.601 229.616
L243.712 220.491
L244.34 220.491
L244.34 215.929
L246.705 215.929
L246.705 211.366
L246.954 211.366
L247.054 202.242
L247.108 202.242
L247.108 197.679
L247.694 197.679
L247.694 193.117
L248.308 193.117
L248.308 188.554
L248.773 188.554
L248.773 183.992
L249.273 183.992
L249.273 179.43
L250.123 179.43
L250.123 174.867
L250.247 174.867
L250.296 165.743
L250.68 165.743
L250.68 161.18
L251.005 161.18
L251.044 152.055
L252.032 152.055
L252.124 142.931
L252.644 142.931
L252.644 138.368
L253.202 138.368
L253.202 133.806
L254.123 133.806
L254.123 129.244
L254.395 129.244
L254.395 124.681
L256.065 124.681
L256.065 120.119
L256.184 120.119
L256.184 115.556
L256.79 115.556
L256.79 110.994
L257.715 110.994
L257.715 106.432
L258.136 106.432
L258.136 101.869
L258.938 101.869
L258.938 97.3069
L260.643 97.3069
L260.643 92.7446
L261.612 92.7446
L261.688 83.6198
L263.001 83.6198
L263.044 74.495
L263.687 74.495
L263.687 69.9327
L263.822 69.9327
L263.822 65.3703
L265.293 65.3703
L265.369 56.2455
L266.475 56.2455
L266.475 51.6832
L266.7 51.6832
L266.7 47.1208
L269.098 47.1208
L269.098 42.5584
L270.659 42.5584
L270.659 37.996
L271.482 37.996
L271.482 33.4337
L275.711 33.4337
L275.777 24.3089
L276.474 24.3089
L276.474 19.7465
L277.256 19.7465
L277.256 15.1842
L279.317 15.1842
L279.317 10.6218
L279.317 10.6218
L453.6 10.6218
L453.6 10.6218" style="fill:none;stroke:#000000;stroke-linecap:square;"/>
   </g>
   <g id="line2d_5">
    <path clip-path="url(#p99b4b0da67)" d="
M224.498 352.8
L224.498 348.238
L224.906 348.238
L224.906 343.675
L226.834 343.675
L226.834 339.113
L227.393 339.113
L227.393 334.55
L228.744 334.55
L228.744 329.988
L229.68 329.988
L229.68 325.426
L230.623 325.426
L230.722 316.301
L231.885 316.301
L231.885 311.739
L232.209 311.739
L232.209 307.176
L232.612 307.176
L232.612 302.614
L232.947 302.614
L232.947 298.051
L233.507 298.051
L233.507 293.489
L233.777 293.489
L233.777 288.927
L234.002 288.927
L234.002 284.364
L234.35 284.364
L234.35 279.802
L237.836 279.802
L237.86 270.677
L238.031 270.677
L238.031 266.115
L238.822 266.115
L238.822 261.552
L240.135 261.552
L240.206 252.428
L240.301 252.428
L240.34 243.303
L240.883 243.303
L240.883 238.741
L241.023 238.741
L241.023 234.178
L242.051 234.178
L242.051 229.616
L242.48 229.616
L242.48 225.053
L242.598 225.053
L242.598 220.491
L242.842 220.491
L242.859 211.366
L243.995 211.366
L243.995 206.804
L244.222 206.804
L244.222 202.242
L244.567 202.242
L244.567 197.679
L245.963 197.679
L245.963 193.117
L246.705 193.117
L246.768 183.992
L248.51 183.992
L248.51 179.43
L248.773 179.43
L248.773 174.867
L248.996 174.867
L248.996 170.305
L249.199 170.305
L249.273 161.18
L250.095 161.18
L250.095 156.618
L250.513 156.618
L250.513 152.055
L250.68 152.055
L250.68 147.493
L250.9 147.493
L250.937 138.368
L252.032 138.368
L252.124 129.244
L252.644 129.244
L252.644 124.681
L253.558 124.681
L253.657 115.556
L253.778 115.556
L253.888 106.432
L253.895 106.432
L253.895 101.869
L254.042 101.869
L254.042 97.3069
L258.798 97.3069
L258.798 92.7446
L259.167 92.7446
L259.181 83.6198
L259.292 83.6198
L259.292 79.0574
L259.598 79.0574
L259.598 74.495
L260.659 74.495
L260.659 69.9327
L262.343 69.9327
L262.343 65.3703
L263.395 65.3703
L263.395 60.8079
L263.822 60.8079
L263.822 56.2455
L264.229 56.2455
L264.229 51.6832
L264.763 51.6832
L264.763 47.1208
L265.165 47.1208
L265.27 37.996
L268.908 37.996
L268.908 33.4337
L269.024 33.4337
L269.024 28.8713
L270.764 28.8713
L270.764 24.3089
L271.381 24.3089
L271.381 19.7465
L276.229 19.7465
L276.229 15.1842
L278.733 15.1842
L278.733 10.6218
L278.733 10.6218
L453.6 10.6218
L453.6 10.6218" style="fill:none;stroke:#00bfbf;stroke-linecap:square;"/>
   </g>
   <g id="line2d_6">
    <path clip-path="url(#p99b4b0da67)" d="
M208.366 352.8
L208.366 348.238
L211.6 348.238
L211.6 343.675
L212.262 343.675
L212.262 339.113
L217.213 339.113
L217.213 334.55
L220.604 334.55
L220.604 329.988
L221.166 329.988
L221.166 325.426
L221.974 325.426
L221.974 320.863
L222.435 320.863
L222.435 316.301
L223.036 316.301
L223.036 311.739
L224.716 311.739
L224.773 302.614
L226.128 302.614
L226.128 298.051
L226.436 298.051
L226.436 293.489
L227.208 293.489
L227.208 288.927
L228.082 288.927
L228.082 284.364
L228.498 284.364
L228.498 279.802
L230.533 279.802
L230.533 275.24
L231.205 275.24
L231.205 270.677
L231.724 270.677
L231.724 266.115
L232.063 266.115
L232.063 261.552
L232.179 261.552
L232.179 256.99
L232.304 256.99
L232.304 252.428
L232.445 252.428
L232.445 247.865
L233.615 247.865
L233.615 243.303
L234.002 243.303
L234.067 229.616
L234.564 229.616
L234.564 225.053
L235.367 225.053
L235.43 215.929
L235.854 215.929
L235.854 211.366
L236.283 211.366
L236.283 206.804
L237.379 206.804
L237.379 202.242
L237.836 202.242
L237.86 193.117
L238.617 193.117
L238.69 183.992
L238.822 183.992
L238.88 174.867
L239.367 174.867
L239.428 165.743
L239.987 165.743
L239.987 161.18
L240.34 161.18
L240.34 156.618
L240.729 156.618
L240.729 152.055
L240.883 152.055
L240.883 147.493
L242.116 147.493
L242.116 142.931
L243.952 142.931
L243.952 138.368
L244.248 138.368
L244.269 129.244
L244.387 129.244
L244.387 120.119
L244.831 120.119
L244.831 115.556
L244.963 115.556
L244.963 110.994
L246.705 110.994
L246.705 106.432
L247.844 106.432
L247.844 101.869
L248.657 101.869
L248.73 92.7446
L249.589 92.7446
L249.589 88.1822
L249.948 88.1822
L249.948 83.6198
L250.928 83.6198
L251.031 74.495
L251.769 74.495
L251.769 69.9327
L252.421 69.9327
L252.421 65.3703
L255.146 65.3703
L255.146 60.8079
L255.371 60.8079
L255.371 56.2455
L256.603 56.2455
L256.603 51.6832
L256.789 51.6832
L256.789 47.1208
L257.289 47.1208
L257.289 42.5584
L258.331 42.5584
L258.331 37.996
L258.567 37.996
L258.567 33.4337
L258.715 33.4337
L258.715 28.8713
L259.248 28.8713
L259.248 24.3089
L260.558 24.3089
L260.558 19.7465
L261.065 19.7465
L261.065 15.1842
L267.854 15.1842
L267.854 10.6218
L267.854 10.6218
L453.6 10.6218
L453.6 10.6218" style="fill:none;stroke:#bf00bf;stroke-linecap:square;"/>
   </g>
   <g id="line2d_7">
    <path clip-path="url(#p99b4b0da67)" d="
M203.412 352.8
L203.412 348.238
L204.255 348.238
L204.255 343.675
L206.139 343.675
L206.139 339.113
L208.069 339.113
L208.069 334.55
L208.366 334.55
L208.366 329.988
L209.565 329.988
L209.565 325.426
L210.095 325.426
L210.095 320.863
L211.674 320.863
L211.674 316.301
L211.934 316.301
L211.934 311.739
L212.262 311.739
L212.262 307.176
L212.597 307.176
L212.597 302.614
L212.819 302.614
L212.819 298.051
L214.482 298.051
L214.482 293.489
L215.667 293.489
L215.667 288.927
L216.089 288.927
L216.089 284.364
L217.146 284.364
L217.23 270.677
L218.739 270.677
L218.739 266.115
L220.068 266.115
L220.068 261.552
L220.973 261.552
L220.973 256.99
L221.362 256.99
L221.459 238.741
L221.612 238.741
L221.612 234.178
L221.755 234.178
L221.755 229.616
L222.185 229.616
L222.26 215.929
L222.698 215.929
L222.698 211.366
L223.678 211.366
L223.678 206.804
L224.049 206.804
L224.049 202.242
L226.056 202.242
L226.056 197.679
L226.411 197.679
L226.411 193.117
L226.575 193.117
L226.575 188.554
L227.991 188.554
L228.081 179.43
L229.188 179.43
L229.188 174.867
L229.396 174.867
L229.396 170.305
L230.323 170.305
L230.323 165.743
L230.657 165.743
L230.657 161.18
L231.103 161.18
L231.135 147.493
L231.73 147.493
L231.77 138.368
L232.179 138.368
L232.179 133.806
L233.118 133.806
L233.17 120.119
L234.243 120.119
L234.243 115.556
L234.66 115.556
L234.66 110.994
L234.902 110.994
L234.902 106.432
L235.355 106.432
L235.359 92.7446
L235.569 92.7446
L235.625 83.6198
L235.69 83.6198
L235.69 79.0574
L236.233 79.0574
L236.233 74.495
L236.392 74.495
L236.392 69.9327
L237.086 69.9327
L237.086 65.3703
L238.692 65.3703
L238.786 51.6832
L239.569 51.6832
L239.569 47.1208
L240.992 47.1208
L240.992 42.5584
L241.384 42.5584
L241.384 33.4337
L241.762 33.4337
L241.762 28.8713
L243.154 28.8713
L243.154 19.7465
L244.954 19.7465
L244.954 10.6218
L244.954 10.6218
L453.6 10.6218
L453.6 10.6218" style="fill:none;stroke:#000000;stroke-linecap:square;"/>
   </g>
   <g id="patch_3">
    <path d="
M7.2 7.2
L453.6 7.2" style="fill:none;stroke:#000000;stroke-linecap:square;stroke-linejoin:miter;"/>
   </g>
   <g id="patch_4">
    <path d="
M453.6 352.8
L453.6 7.2" style="fill:none;stroke:#000000;stroke-linecap:square;stroke-linejoin:miter;"/>
   </g>
   <g id="patch_5">
    <path d="
M7.2 352.8
L453.6 352.8" style="fill:none;stroke:#000000;stroke-linecap:square;stroke-linejoin:miter;"/>
   </g>
   <g id="patch_6">
    <path d="
M7.2 352.8
L7.2 7.2" style="fill:none;stroke:#000000;stroke-linecap:square;stroke-linejoin:miter;"/>
   </g>
   <g id="matplotlib.axis_1">
    <g id="xtick_1"/>
    <g id="xtick_2">
     <g id="line2d_8">
      <path clip-path="url(#p99b4b0da67)" d="
M56.7047 352.8
L56.7047 7.2" style="fill:none;stroke:#000000;stroke-dasharray:1.000000,3.000000;stroke-dashoffset:0.0;stroke-width:0.5;"/>
     </g>
     <g id="line2d_9">
      <defs>
       <path d="
M0 0
L0 -4" id="m93b0483c22" style="stroke:#000000;stroke-width:0.5;"/>
      </defs>
      <g>
       <use style="stroke:#000000;stroke-width:0.5;" x="56.70471484" xlink:href="#m93b0483c22" y="352.8"/>
      </g>
     </g>
     <g id="line2d_10">
      <defs>
       <path d="
M0 0
L0 4" id="m741efc42ff" style="stroke:#000000;stroke-width:0.5;"/>
      </defs>
      <g>
       <use style="stroke:#000000;stroke-width:0.5;" x="56.70471484" xlink:href="#m741efc42ff" y="7.2"/>
      </g>
     </g>
     <g id="text_1">
      <!-- -6 -->
      <defs>
       <path d="
M33.0156 40.375
Q26.375 40.375 22.4844 35.8281
Q18.6094 31.2969 18.6094 23.3906
Q18.6094 15.5312 22.4844 10.9531
Q26.375 6.39062 33.0156 6.39062
Q39.6562 6.39062 43.5312 10.9531
Q47.4062 15.5312 47.4062 23.3906
Q47.4062 31.2969 43.5312 35.8281
Q39.6562 40.375 33.0156 40.375
M52.5938 71.2969
L52.5938 62.3125
Q48.875 64.0625 45.0938 64.9844
Q41.3125 65.9219 37.5938 65.9219
Q27.8281 65.9219 22.6719 59.3281
Q17.5312 52.7344 16.7969 39.4062
Q19.6719 43.6562 24.0156 45.9219
Q28.375 48.1875 33.5938 48.1875
Q44.5781 48.1875 50.9531 41.5156
Q57.3281 34.8594 57.3281 23.3906
Q57.3281 12.1562 50.6875 5.35938
Q44.0469 -1.42188 33.0156 -1.42188
Q20.3594 -1.42188 13.6719 8.26562
Q6.98438 17.9688 6.98438 36.375
Q6.98438 53.6562 15.1875 63.9375
Q23.3906 74.2188 37.2031 74.2188
Q40.9219 74.2188 44.7031 73.4844
Q48.4844 72.75 52.5938 71.2969" id="BitstreamVeraSans-Roman-36"/>
       <path d="
M4.89062 31.3906
L31.2031 31.3906
L31.2031 23.3906
L4.89062 23.3906
z
" id="BitstreamVeraSans-Roman-2d"/>
      </defs>
      <g transform="translate(47.85315234 371.996875)scale(0.2 -0.2)">
       <use xlink:href="#BitstreamVeraSans-Roman-2d"/>
       <use x="36.083984375" xlink:href="#BitstreamVeraSans-Roman-36"/>
      </g>
     </g>
    </g>
    <g id="xtick_3">
     <g id="line2d_11">
      <path clip-path="url(#p99b4b0da67)" d="
M106.317 352.8
L106.317 7.2" style="fill:none;stroke:#000000;stroke-dasharray:1.000000,3.000000;stroke-dashoffset:0.0;stroke-width:0.5;"/>
     </g>
     <g id="line2d_12">
      <g>
       <use style="stroke:#000000;stroke-width:0.5;" x="106.316625485" xlink:href="#m93b0483c22" y="352.8"/>
      </g>
     </g>
     <g id="line2d_13">
      <g>
       <use style="stroke:#000000;stroke-width:0.5;" x="106.316625485" xlink:href="#m741efc42ff" y="7.2"/>
      </g>
     </g>
     <g id="text_2">
      <!-- -4 -->
      <defs>
       <path d="
M37.7969 64.3125
L12.8906 25.3906
L37.7969 25.3906
z

M35.2031 72.9062
L47.6094 72.9062
L47.6094 25.3906
L58.0156 25.3906
L58.0156 17.1875
L47.6094 17.1875
L47.6094 0
L37.7969 0
L37.7969 17.1875
L4.89062 17.1875
L4.89062 26.7031
z
" id="BitstreamVeraSans-Roman-34"/>
      </defs>
      <g transform="translate(97.396312985 371.996875)scale(0.2 -0.2)">
       <use xlink:href="#BitstreamVeraSans-Roman-2d"/>
       <use x="36.083984375" xlink:href="#BitstreamVeraSans-Roman-34"/>
      </g>
     </g>
    </g>
    <g id="xtick_4">
     <g id="line2d_14">
      <path clip-path="url(#p99b4b0da67)" d="
M155.929 352.8
L155.929 7.2" style="fill:none;stroke:#000000;stroke-dasharray:1.000000,3.000000;stroke-dashoffset:0.0;stroke-width:0.5;"/>
     </g>
     <g id="line2d_15">
      <g>
       <use style="stroke:#000000;stroke-width:0.5;" x="155.92853613" xlink:href="#m93b0483c22" y="352.8"/>
      </g>
     </g>
     <g id="line2d_16">
      <g>
       <use style="stroke:#000000;stroke-width:0.5;" x="155.92853613" xlink:href="#m741efc42ff" y="7.2"/>
      </g>
     </g>
     <g id="text_3">
      <!-- -2 -->
      <defs>
       <path d="
M19.1875 8.29688
L53.6094 8.29688
L53.6094 0
L7.32812 0
L7.32812 8.29688
Q12.9375 14.1094 22.625 23.8906
Q32.3281 33.6875 34.8125 36.5312
Q39.5469 41.8438 41.4219 45.5312
Q43.3125 49.2188 43.3125 52.7812
Q43.3125 58.5938 39.2344 62.25
Q35.1562 65.9219 28.6094 65.9219
Q23.9688 65.9219 18.8125 64.3125
Q13.6719 62.7031 7.8125 59.4219
L7.8125 69.3906
Q13.7656 71.7812 18.9375 73
Q24.125 74.2188 28.4219 74.2188
Q39.75 74.2188 46.4844 68.5469
Q53.2188 62.8906 53.2188 53.4219
Q53.2188 48.9219 51.5312 44.8906
Q49.8594 40.875 45.4062 35.4062
Q44.1875 33.9844 37.6406 27.2188
Q31.1094 20.4531 19.1875 8.29688" id="BitstreamVeraSans-Roman-32"/>
      </defs>
      <g transform="translate(147.44884863 371.996875)scale(0.2 -0.2)">
       <use xlink:href="#BitstreamVeraSans-Roman-2d"/>
       <use x="36.083984375" xlink:href="#BitstreamVeraSans-Roman-32"/>
      </g>
     </g>
    </g>
    <g id="xtick_5">
     <g id="line2d_17">
      <path clip-path="url(#p99b4b0da67)" d="
M205.54 352.8
L205.54 7.2" style="fill:none;stroke:#000000;stroke-dasharray:1.000000,3.000000;stroke-dashoffset:0.0;stroke-width:0.5;"/>
     </g>
     <g id="line2d_18">
      <g>
       <use style="stroke:#000000;stroke-width:0.5;" x="205.540446775" xlink:href="#m93b0483c22" y="352.8"/>
      </g>
     </g>
     <g id="line2d_19">
      <g>
       <use style="stroke:#000000;stroke-width:0.5;" x="205.540446775" xlink:href="#m741efc42ff" y="7.2"/>
      </g>
     </g>
     <g id="text_4">
      <!-- 0 -->
      <defs>
       <path d="
M31.7812 66.4062
Q24.1719 66.4062 20.3281 58.9062
Q16.5 51.4219 16.5 36.375
Q16.5 21.3906 20.3281 13.8906
Q24.1719 6.39062 31.7812 6.39062
Q39.4531 6.39062 43.2812 13.8906
Q47.125 21.3906 47.125 36.375
Q47.125 51.4219 43.2812 58.9062
Q39.4531 66.4062 31.7812 66.4062
M31.7812 74.2188
Q44.0469 74.2188 50.5156 64.5156
Q56.9844 54.8281 56.9844 36.375
Q56.9844 17.9688 50.5156 8.26562
Q44.0469 -1.42188 31.7812 -1.42188
Q19.5312 -1.42188 13.0625 8.26562
Q6.59375 17.9688 6.59375 36.375
Q6.59375 54.8281 13.0625 64.5156
Q19.5312 74.2188 31.7812 74.2188" id="BitstreamVeraSans-Roman-30"/>
      </defs>
      <g transform="translate(200.501384275 371.996875)scale(0.2 -0.2)">
       <use xlink:href="#BitstreamVeraSans-Roman-30"/>
      </g>
     </g>
    </g>
    <g id="xtick_6">
     <g id="line2d_20">
      <path clip-path="url(#p99b4b0da67)" d="
M255.152 352.8
L255.152 7.2" style="fill:none;stroke:#000000;stroke-dasharray:1.000000,3.000000;stroke-dashoffset:0.0;stroke-width:0.5;"/>
     </g>
     <g id="line2d_21">
      <g>
       <use style="stroke:#000000;stroke-width:0.5;" x="255.15235742" xlink:href="#m93b0483c22" y="352.8"/>
      </g>
     </g>
     <g id="line2d_22">
      <g>
       <use style="stroke:#000000;stroke-width:0.5;" x="255.15235742" xlink:href="#m741efc42ff" y="7.2"/>
      </g>
     </g>
     <g id="text_5">
      <!-- 2 -->
      <g transform="translate(250.52423242 371.996875)scale(0.2 -0.2)">
       <use xlink:href="#BitstreamVeraSans-Roman-32"/>
      </g>
     </g>
    </g>
    <g id="xtick_7">
     <g id="line2d_23">
      <path clip-path="url(#p99b4b0da67)" d="
M304.764 352.8
L304.764 7.2" style="fill:none;stroke:#000000;stroke-dasharray:1.000000,3.000000;stroke-dashoffset:0.0;stroke-width:0.5;"/>
     </g>
     <g id="line2d_24">
      <g>
       <use style="stroke:#000000;stroke-width:0.5;" x="304.764268065" xlink:href="#m93b0483c22" y="352.8"/>
      </g>
     </g>
     <g id="line2d_25">
      <g>
       <use style="stroke:#000000;stroke-width:0.5;" x="304.764268065" xlink:href="#m741efc42ff" y="7.2"/>
      </g>
     </g>
     <g id="text_6">
      <!-- 4 -->
      <g transform="translate(299.451768065 371.996875)scale(0.2 -0.2)">
       <use xlink:href="#BitstreamVeraSans-Roman-34"/>
      </g>
     </g>
    </g>
    <g id="xtick_8">
     <g id="line2d_26">
      <path clip-path="url(#p99b4b0da67)" d="
M354.376 352.8
L354.376 7.2" style="fill:none;stroke:#000000;stroke-dasharray:1.000000,3.000000;stroke-dashoffset:0.0;stroke-width:0.5;"/>
     </g>
     <g id="line2d_27">
      <g>
       <use style="stroke:#000000;stroke-width:0.5;" x="354.37617871" xlink:href="#m93b0483c22" y="352.8"/>
      </g>
     </g>
     <g id="line2d_28">
      <g>
       <use style="stroke:#000000;stroke-width:0.5;" x="354.37617871" xlink:href="#m741efc42ff" y="7.2"/>
      </g>
     </g>
     <g id="text_7">
      <!-- 6 -->
      <g transform="translate(349.34180371 371.996875)scale(0.2 -0.2)">
       <use xlink:href="#BitstreamVeraSans-Roman-36"/>
      </g>
     </g>
    </g>
    <g id="xtick_9">
     <g id="line2d_29">
      <path clip-path="url(#p99b4b0da67)" d="
M403.988 352.8
L403.988 7.2" style="fill:none;stroke:#000000;stroke-dasharray:1.000000,3.000000;stroke-dashoffset:0.0;stroke-width:0.5;"/>
     </g>
     <g id="line2d_30">
      <g>
       <use style="stroke:#000000;stroke-width:0.5;" x="403.988089355" xlink:href="#m93b0483c22" y="352.8"/>
      </g>
     </g>
     <g id="line2d_31">
      <g>
       <use style="stroke:#000000;stroke-width:0.5;" x="403.988089355" xlink:href="#m741efc42ff" y="7.2"/>
      </g>
     </g>
     <g id="text_8">
      <!-- 8 -->
      <defs>
       <path d="
M31.7812 34.625
Q24.75 34.625 20.7188 30.8594
Q16.7031 27.0938 16.7031 20.5156
Q16.7031 13.9219 20.7188 10.1562
Q24.75 6.39062 31.7812 6.39062
Q38.8125 6.39062 42.8594 10.1719
Q46.9219 13.9688 46.9219 20.5156
Q46.9219 27.0938 42.8906 30.8594
Q38.875 34.625 31.7812 34.625
M21.9219 38.8125
Q15.5781 40.375 12.0312 44.7188
Q8.5 49.0781 8.5 55.3281
Q8.5 64.0625 14.7188 69.1406
Q20.9531 74.2188 31.7812 74.2188
Q42.6719 74.2188 48.875 69.1406
Q55.0781 64.0625 55.0781 55.3281
Q55.0781 49.0781 51.5312 44.7188
Q48 40.375 41.7031 38.8125
Q48.8281 37.1562 52.7969 32.3125
Q56.7812 27.4844 56.7812 20.5156
Q56.7812 9.90625 50.3125 4.23438
Q43.8438 -1.42188 31.7812 -1.42188
Q19.7344 -1.42188 13.25 4.23438
Q6.78125 9.90625 6.78125 20.5156
Q6.78125 27.4844 10.7812 32.3125
Q14.7969 37.1562 21.9219 38.8125
M18.3125 54.3906
Q18.3125 48.7344 21.8438 45.5625
Q25.3906 42.3906 31.7812 42.3906
Q38.1406 42.3906 41.7188 45.5625
Q45.3125 48.7344 45.3125 54.3906
Q45.3125 60.0625 41.7188 63.2344
Q38.1406 66.4062 31.7812 66.4062
Q25.3906 66.4062 21.8438 63.2344
Q18.3125 60.0625 18.3125 54.3906" id="BitstreamVeraSans-Roman-38"/>
      </defs>
      <g transform="translate(398.988089355 371.996875)scale(0.2 -0.2)">
       <use xlink:href="#BitstreamVeraSans-Roman-38"/>
      </g>
     </g>
    </g>
    <g id="xtick_10">
     <g id="line2d_32">
      <path clip-path="url(#p99b4b0da67)" d="
M453.6 352.8
L453.6 7.2" style="fill:none;stroke:#000000;stroke-dasharray:1.000000,3.000000;stroke-dashoffset:0.0;stroke-width:0.5;"/>
     </g>
     <g id="line2d_33">
      <g>
       <use style="stroke:#000000;stroke-width:0.5;" x="453.6" xlink:href="#m93b0483c22" y="352.8"/>
      </g>
     </g>
     <g id="line2d_34">
      <g>
       <use style="stroke:#000000;stroke-width:0.5;" x="453.6" xlink:href="#m741efc42ff" y="7.2"/>
      </g>
     </g>
    </g>
    <g id="xtick_11"/>
    <g id="xtick_12">
     <g id="line2d_35">
      <defs>
       <path d="
M0 0
L0 -2" id="m177f7580d0" style="stroke:#000000;stroke-width:0.5;"/>
      </defs>
      <g>
       <use style="stroke:#000000;stroke-width:0.5;" x="56.70471484" xlink:href="#m177f7580d0" y="352.8"/>
      </g>
     </g>
     <g id="line2d_36">
      <defs>
       <path d="
M0 0
L0 2" id="m5284c7e2a0" style="stroke:#000000;stroke-width:0.5;"/>
      </defs>
      <g>
       <use style="stroke:#000000;stroke-width:0.5;" x="56.70471484" xlink:href="#m5284c7e2a0" y="7.2"/>
      </g>
     </g>
    </g>
    <g id="xtick_13">
     <g id="line2d_37">
      <g>
       <use style="stroke:#000000;stroke-width:0.5;" x="106.316625485" xlink:href="#m177f7580d0" y="352.8"/>
      </g>
     </g>
     <g id="line2d_38">
      <g>
       <use style="stroke:#000000;stroke-width:0.5;" x="106.316625485" xlink:href="#m5284c7e2a0" y="7.2"/>
      </g>
     </g>
    </g>
    <g id="xtick_14">
     <g id="line2d_39">
      <g>
       <use style="stroke:#000000;stroke-width:0.5;" x="155.92853613" xlink:href="#m177f7580d0" y="352.8"/>
      </g>
     </g>
     <g id="line2d_40">
      <g>
       <use style="stroke:#000000;stroke-width:0.5;" x="155.92853613" xlink:href="#m5284c7e2a0" y="7.2"/>
      </g>
     </g>
    </g>
    <g id="xtick_15">
     <g id="line2d_41">
      <g>
       <use style="stroke:#000000;stroke-width:0.5;" x="205.540446775" xlink:href="#m177f7580d0" y="352.8"/>
      </g>
     </g>
     <g id="line2d_42">
      <g>
       <use style="stroke:#000000;stroke-width:0.5;" x="205.540446775" xlink:href="#m5284c7e2a0" y="7.2"/>
      </g>
     </g>
    </g>
    <g id="xtick_16">
     <g id="line2d_43">
      <g>
       <use style="stroke:#000000;stroke-width:0.5;" x="255.15235742" xlink:href="#m177f7580d0" y="352.8"/>
      </g>
     </g>
     <g id="line2d_44">
      <g>
       <use style="stroke:#000000;stroke-width:0.5;" x="255.15235742" xlink:href="#m5284c7e2a0" y="7.2"/>
      </g>
     </g>
    </g>
    <g id="xtick_17">
     <g id="line2d_45">
      <g>
       <use style="stroke:#000000;stroke-width:0.5;" x="304.764268065" xlink:href="#m177f7580d0" y="352.8"/>
      </g>
     </g>
     <g id="line2d_46">
      <g>
       <use style="stroke:#000000;stroke-width:0.5;" x="304.764268065" xlink:href="#m5284c7e2a0" y="7.2"/>
      </g>
     </g>
    </g>
    <g id="xtick_18">
     <g id="line2d_47">
      <g>
       <use style="stroke:#000000;stroke-width:0.5;" x="354.37617871" xlink:href="#m177f7580d0" y="352.8"/>
      </g>
     </g>
     <g id="line2d_48">
      <g>
       <use style="stroke:#000000;stroke-width:0.5;" x="354.37617871" xlink:href="#m5284c7e2a0" y="7.2"/>
      </g>
     </g>
    </g>
    <g id="xtick_19">
     <g id="line2d_49">
      <g>
       <use style="stroke:#000000;stroke-width:0.5;" x="403.988089355" xlink:href="#m177f7580d0" y="352.8"/>
      </g>
     </g>
     <g id="line2d_50">
      <g>
       <use style="stroke:#000000;stroke-width:0.5;" x="403.988089355" xlink:href="#m5284c7e2a0" y="7.2"/>
      </g>
     </g>
    </g>
    <g id="xtick_20">
     <g id="line2d_51">
      <g>
       <use style="stroke:#000000;stroke-width:0.5;" x="453.6" xlink:href="#m177f7580d0" y="352.8"/>
      </g>
     </g>
     <g id="line2d_52">
      <g>
       <use style="stroke:#000000;stroke-width:0.5;" x="453.6" xlink:href="#m5284c7e2a0" y="7.2"/>
      </g>
     </g>
    </g>
    <g id="text_9">
     <!-- log10 of Df -->
     <defs>
      <path id="BitstreamVeraSans-Roman-20"/>
      <path d="
M12.4062 8.29688
L28.5156 8.29688
L28.5156 63.9219
L10.9844 60.4062
L10.9844 69.3906
L28.4219 72.9062
L38.2812 72.9062
L38.2812 8.29688
L54.3906 8.29688
L54.3906 0
L12.4062 0
z
" id="BitstreamVeraSans-Roman-31"/>
      <path d="
M30.6094 48.3906
Q23.3906 48.3906 19.1875 42.75
Q14.9844 37.1094 14.9844 27.2969
Q14.9844 17.4844 19.1562 11.8438
Q23.3438 6.20312 30.6094 6.20312
Q37.7969 6.20312 41.9844 11.8594
Q46.1875 17.5312 46.1875 27.2969
Q46.1875 37.0156 41.9844 42.7031
Q37.7969 48.3906 30.6094 48.3906
M30.6094 56
Q42.3281 56 49.0156 48.375
Q55.7188 40.7656 55.7188 27.2969
Q55.7188 13.875 49.0156 6.21875
Q42.3281 -1.42188 30.6094 -1.42188
Q18.8438 -1.42188 12.1719 6.21875
Q5.51562 13.875 5.51562 27.2969
Q5.51562 40.7656 12.1719 48.375
Q18.8438 56 30.6094 56" id="BitstreamVeraSans-Roman-6f"/>
      <path d="
M9.42188 75.9844
L18.4062 75.9844
L18.4062 0
L9.42188 0
z
" id="BitstreamVeraSans-Roman-6c"/>
      <path d="
M19.6719 64.7969
L19.6719 8.10938
L31.5938 8.10938
Q46.6875 8.10938 53.6875 14.9375
Q60.6875 21.7812 60.6875 36.5312
Q60.6875 51.1719 53.6875 57.9844
Q46.6875 64.7969 31.5938 64.7969
z

M9.8125 72.9062
L30.0781 72.9062
Q51.2656 72.9062 61.1719 64.0938
Q71.0938 55.2812 71.0938 36.5312
Q71.0938 17.6719 61.125 8.82812
Q51.1719 0 30.0781 0
L9.8125 0
z
" id="BitstreamVeraSans-Roman-44"/>
      <path d="
M45.4062 27.9844
Q45.4062 37.75 41.375 43.1094
Q37.3594 48.4844 30.0781 48.4844
Q22.8594 48.4844 18.8281 43.1094
Q14.7969 37.75 14.7969 27.9844
Q14.7969 18.2656 18.8281 12.8906
Q22.8594 7.51562 30.0781 7.51562
Q37.3594 7.51562 41.375 12.8906
Q45.4062 18.2656 45.4062 27.9844
M54.3906 6.78125
Q54.3906 -7.17188 48.1875 -13.9844
Q42 -20.7969 29.2031 -20.7969
Q24.4688 -20.7969 20.2656 -20.0938
Q16.0625 -19.3906 12.1094 -17.9219
L12.1094 -9.1875
Q16.0625 -11.3281 19.9219 -12.3438
Q23.7812 -13.375 27.7812 -13.375
Q36.625 -13.375 41.0156 -8.76562
Q45.4062 -4.15625 45.4062 5.17188
L45.4062 9.625
Q42.625 4.78125 38.2812 2.39062
Q33.9375 0 27.875 0
Q17.8281 0 11.6719 7.65625
Q5.51562 15.3281 5.51562 27.9844
Q5.51562 40.6719 11.6719 48.3281
Q17.8281 56 27.875 56
Q33.9375 56 38.2812 53.6094
Q42.625 51.2188 45.4062 46.3906
L45.4062 54.6875
L54.3906 54.6875
z
" id="BitstreamVeraSans-Roman-67"/>
      <path d="
M37.1094 75.9844
L37.1094 68.5
L28.5156 68.5
Q23.6875 68.5 21.7969 66.5469
Q19.9219 64.5938 19.9219 59.5156
L19.9219 54.6875
L34.7188 54.6875
L34.7188 47.7031
L19.9219 47.7031
L19.9219 0
L10.8906 0
L10.8906 47.7031
L2.29688 47.7031
L2.29688 54.6875
L10.8906 54.6875
L10.8906 58.5
Q10.8906 67.625 15.1406 71.7969
Q19.3906 75.9844 28.6094 75.9844
z
" id="BitstreamVeraSans-Roman-66"/>
     </defs>
     <g transform="translate(175.0234375 396.353125)scale(0.2 -0.2)">
      <use xlink:href="#BitstreamVeraSans-Roman-6c"/>
      <use x="27.783203125" xlink:href="#BitstreamVeraSans-Roman-6f"/>
      <use x="88.96484375" xlink:href="#BitstreamVeraSans-Roman-67"/>
      <use x="152.44140625" xlink:href="#BitstreamVeraSans-Roman-31"/>
      <use x="216.064453125" xlink:href="#BitstreamVeraSans-Roman-30"/>
      <use x="279.6875" xlink:href="#BitstreamVeraSans-Roman-20"/>
      <use x="311.474609375" xlink:href="#BitstreamVeraSans-Roman-6f"/>
      <use x="372.65625" xlink:href="#BitstreamVeraSans-Roman-66"/>
      <use x="407.861328125" xlink:href="#BitstreamVeraSans-Roman-20"/>
      <use x="439.6484375" xlink:href="#BitstreamVeraSans-Roman-44"/>
      <use x="516.650390625" xlink:href="#BitstreamVeraSans-Roman-66"/>
     </g>
    </g>
   </g>
   <g id="matplotlib.axis_2">
    <g id="ytick_1">
     <g id="line2d_53">
      <path clip-path="url(#p99b4b0da67)" d="
M7.2 352.8
L453.6 352.8" style="fill:none;stroke:#000000;stroke-dasharray:1.000000,3.000000;stroke-dashoffset:0.0;stroke-width:0.5;"/>
     </g>
     <g id="line2d_54">
      <defs>
       <path d="
M0 0
L4 0" id="m728421d6d4" style="stroke:#000000;stroke-width:0.5;"/>
      </defs>
      <g>
       <use style="stroke:#000000;stroke-width:0.5;" x="7.2" xlink:href="#m728421d6d4" y="352.8"/>
      </g>
     </g>
     <g id="line2d_55">
      <defs>
       <path d="
M0 0
L-4 0" id="mcb0005524f" style="stroke:#000000;stroke-width:0.5;"/>
      </defs>
      <g>
       <use style="stroke:#000000;stroke-width:0.5;" x="453.6" xlink:href="#mcb0005524f" y="352.8"/>
      </g>
     </g>
    </g>
    <g id="ytick_2">
     <g id="line2d_56">
      <path clip-path="url(#p99b4b0da67)" d="
M7.2 284.364
L453.6 284.364" style="fill:none;stroke:#000000;stroke-dasharray:1.000000,3.000000;stroke-dashoffset:0.0;stroke-width:0.5;"/>
     </g>
     <g id="line2d_57">
      <g>
       <use style="stroke:#000000;stroke-width:0.5;" x="7.2" xlink:href="#m728421d6d4" y="284.364356436"/>
      </g>
     </g>
     <g id="line2d_58">
      <g>
       <use style="stroke:#000000;stroke-width:0.5;" x="453.6" xlink:href="#mcb0005524f" y="284.364356436"/>
      </g>
     </g>
    </g>
    <g id="ytick_3">
     <g id="line2d_59">
      <path clip-path="url(#p99b4b0da67)" d="
M7.2 215.929
L453.6 215.929" style="fill:none;stroke:#000000;stroke-dasharray:1.000000,3.000000;stroke-dashoffset:0.0;stroke-width:0.5;"/>
     </g>
     <g id="line2d_60">
      <g>
       <use style="stroke:#000000;stroke-width:0.5;" x="7.2" xlink:href="#m728421d6d4" y="215.928712871"/>
      </g>
     </g>
     <g id="line2d_61">
      <g>
       <use style="stroke:#000000;stroke-width:0.5;" x="453.6" xlink:href="#mcb0005524f" y="215.928712871"/>
      </g>
     </g>
    </g>
    <g id="ytick_4">
     <g id="line2d_62">
      <path clip-path="url(#p99b4b0da67)" d="
M7.2 147.493
L453.6 147.493" style="fill:none;stroke:#000000;stroke-dasharray:1.000000,3.000000;stroke-dashoffset:0.0;stroke-width:0.5;"/>
     </g>
     <g id="line2d_63">
      <g>
       <use style="stroke:#000000;stroke-width:0.5;" x="7.2" xlink:href="#m728421d6d4" y="147.493069307"/>
      </g>
     </g>
     <g id="line2d_64">
      <g>
       <use style="stroke:#000000;stroke-width:0.5;" x="453.6" xlink:href="#mcb0005524f" y="147.493069307"/>
      </g>
     </g>
    </g>
    <g id="ytick_5">
     <g id="line2d_65">
      <path clip-path="url(#p99b4b0da67)" d="
M7.2 79.0574
L453.6 79.0574" style="fill:none;stroke:#000000;stroke-dasharray:1.000000,3.000000;stroke-dashoffset:0.0;stroke-width:0.5;"/>
     </g>
     <g id="line2d_66">
      <g>
       <use style="stroke:#000000;stroke-width:0.5;" x="7.2" xlink:href="#m728421d6d4" y="79.0574257426"/>
      </g>
     </g>
     <g id="line2d_67">
      <g>
       <use style="stroke:#000000;stroke-width:0.5;" x="453.6" xlink:href="#mcb0005524f" y="79.0574257426"/>
      </g>
     </g>
    </g>
    <g id="ytick_6">
     <g id="line2d_68">
      <path clip-path="url(#p99b4b0da67)" d="
M7.2 10.6218
L453.6 10.6218" style="fill:none;stroke:#000000;stroke-dasharray:1.000000,3.000000;stroke-dashoffset:0.0;stroke-width:0.5;"/>
     </g>
     <g id="line2d_69">
      <g>
       <use style="stroke:#000000;stroke-width:0.5;" x="7.2" xlink:href="#m728421d6d4" y="10.6217821782"/>
      </g>
     </g>
     <g id="line2d_70">
      <g>
       <use style="stroke:#000000;stroke-width:0.5;" x="453.6" xlink:href="#mcb0005524f" y="10.6217821782"/>
      </g>
     </g>
    </g>
   </g>
   <g id="text_10">
    <!-- {f15-f19}, 5-D -->
    <defs>
     <path d="
M12.5 -9.28125
L15.9219 -9.28125
Q22.75 -9.28125 24.8281 -7.17188
Q26.9062 -5.07812 26.9062 1.90625
L26.9062 14.0156
Q26.9062 21.625 29.0938 25.0938
Q31.2969 28.5625 36.7188 29.8906
Q31.2969 31.1094 29.0938 34.5625
Q26.9062 38.0312 26.9062 45.7031
L26.9062 57.8125
Q26.9062 64.75 24.8281 66.875
Q22.75 69 15.9219 69
L12.5 69
L12.5 75.9844
L15.5781 75.9844
Q27.7344 75.9844 31.8125 72.3906
Q35.8906 68.7969 35.8906 58.0156
L35.8906 46.2969
Q35.8906 39.0156 38.5156 36.2031
Q41.1562 33.4062 48.0938 33.4062
L51.125 33.4062
L51.125 26.4219
L48.0938 26.4219
Q41.1562 26.4219 38.5156 23.5781
Q35.8906 20.75 35.8906 13.375
L35.8906 1.70312
Q35.8906 -9.07812 31.8125 -12.6875
Q27.7344 -16.3125 15.5781 -16.3125
L12.5 -16.3125
z
" id="BitstreamVeraSans-Roman-7d"/>
     <path d="
M10.9844 1.51562
L10.9844 10.5
Q14.7031 8.73438 18.5 7.8125
Q22.3125 6.89062 25.9844 6.89062
Q35.75 6.89062 40.8906 13.4531
Q46.0469 20.0156 46.7812 33.4062
Q43.9531 29.2031 39.5938 26.9531
Q35.25 24.7031 29.9844 24.7031
Q19.0469 24.7031 12.6719 31.3125
Q6.29688 37.9375 6.29688 49.4219
Q6.29688 60.6406 12.9375 67.4219
Q19.5781 74.2188 30.6094 74.2188
Q43.2656 74.2188 49.9219 64.5156
Q56.5938 54.8281 56.5938 36.375
Q56.5938 19.1406 48.4062 8.85938
Q40.2344 -1.42188 26.4219 -1.42188
Q22.7031 -1.42188 18.8906 -0.6875
Q15.0938 0.046875 10.9844 1.51562
M30.6094 32.4219
Q37.25 32.4219 41.125 36.9531
Q45.0156 41.5 45.0156 49.4219
Q45.0156 57.2812 41.125 61.8438
Q37.25 66.4062 30.6094 66.4062
Q23.9688 66.4062 20.0938 61.8438
Q16.2188 57.2812 16.2188 49.4219
Q16.2188 41.5 20.0938 36.9531
Q23.9688 32.4219 30.6094 32.4219" id="BitstreamVeraSans-Roman-39"/>
     <path d="
M51.125 -9.28125
L51.125 -16.3125
L48.0938 -16.3125
Q35.9375 -16.3125 31.8125 -12.6875
Q27.6875 -9.07812 27.6875 1.70312
L27.6875 13.375
Q27.6875 20.75 25.0469 23.5781
Q22.4062 26.4219 15.4844 26.4219
L12.5 26.4219
L12.5 33.4062
L15.4844 33.4062
Q22.4688 33.4062 25.0781 36.2031
Q27.6875 39.0156 27.6875 46.2969
L27.6875 58.0156
Q27.6875 68.7969 31.8125 72.3906
Q35.9375 75.9844 48.0938 75.9844
L51.125 75.9844
L51.125 69
L47.7969 69
Q40.9219 69 38.8125 66.8438
Q36.7188 64.7031 36.7188 57.8125
L36.7188 45.7031
Q36.7188 38.0312 34.5 34.5625
Q32.2812 31.1094 26.9062 29.8906
Q32.3281 28.5625 34.5156 25.0938
Q36.7188 21.625 36.7188 14.0156
L36.7188 1.90625
Q36.7188 -4.98438 38.8125 -7.125
Q40.9219 -9.28125 47.7969 -9.28125
z
" id="BitstreamVeraSans-Roman-7b"/>
     <path d="
M11.7188 12.4062
L22.0156 12.4062
L22.0156 4
L14.0156 -11.625
L7.71875 -11.625
L11.7188 4
z
" id="BitstreamVeraSans-Roman-2c"/>
     <path d="
M10.7969 72.9062
L49.5156 72.9062
L49.5156 64.5938
L19.8281 64.5938
L19.8281 46.7344
Q21.9688 47.4688 24.1094 47.8281
Q26.2656 48.1875 28.4219 48.1875
Q40.625 48.1875 47.75 41.5
Q54.8906 34.8125 54.8906 23.3906
Q54.8906 11.625 47.5625 5.09375
Q40.2344 -1.42188 26.9062 -1.42188
Q22.3125 -1.42188 17.5469 -0.640625
Q12.7969 0.140625 7.71875 1.70312
L7.71875 11.625
Q12.1094 9.23438 16.7969 8.0625
Q21.4844 6.89062 26.7031 6.89062
Q35.1562 6.89062 40.0781 11.3281
Q45.0156 15.7656 45.0156 23.3906
Q45.0156 31 40.0781 35.4375
Q35.1562 39.8906 26.7031 39.8906
Q22.75 39.8906 18.8125 39.0156
Q14.8906 38.1406 10.7969 36.2812
z
" id="BitstreamVeraSans-Roman-35"/>
    </defs>
    <g transform="translate(300.15325 345.888)scale(0.2 -0.2)">
     <use xlink:href="#BitstreamVeraSans-Roman-7b"/>
     <use x="63.623046875" xlink:href="#BitstreamVeraSans-Roman-66"/>
     <use x="98.828125" xlink:href="#BitstreamVeraSans-Roman-31"/>
     <use x="162.451171875" xlink:href="#BitstreamVeraSans-Roman-35"/>
     <use x="226.07421875" xlink:href="#BitstreamVeraSans-Roman-2d"/>
     <use x="262.158203125" xlink:href="#BitstreamVeraSans-Roman-66"/>
     <use x="297.36328125" xlink:href="#BitstreamVeraSans-Roman-31"/>
     <use x="360.986328125" xlink:href="#BitstreamVeraSans-Roman-39"/>
     <use x="424.609375" xlink:href="#BitstreamVeraSans-Roman-7d"/>
     <use x="488.232421875" xlink:href="#BitstreamVeraSans-Roman-2c"/>
     <use x="520.01953125" xlink:href="#BitstreamVeraSans-Roman-20"/>
     <use x="551.806640625" xlink:href="#BitstreamVeraSans-Roman-35"/>
     <use x="615.4296875" xlink:href="#BitstreamVeraSans-Roman-2d"/>
     <use x="651.513671875" xlink:href="#BitstreamVeraSans-Roman-44"/>
    </g>
   </g>
   <g id="text_11">
    <!-- 1.2.1 -->
    <defs>
     <path d="
M10.6875 12.4062
L21 12.4062
L21 0
L10.6875 0
z
" id="BitstreamVeraSans-Roman-2e"/>
    </defs>
    <g style="fill:#808080;" transform="translate(218.6890625 347.2643125)scale(0.1 -0.1)">
     <use xlink:href="#BitstreamVeraSans-Roman-31"/>
     <use x="63.623046875" xlink:href="#BitstreamVeraSans-Roman-2e"/>
     <use x="95.41015625" xlink:href="#BitstreamVeraSans-Roman-32"/>
     <use x="159.033203125" xlink:href="#BitstreamVeraSans-Roman-2e"/>
     <use x="190.8203125" xlink:href="#BitstreamVeraSans-Roman-31"/>
    </g>
   </g>
  </g>
 </g>
 <defs>
  <clipPath id="p99b4b0da67">
   <rect height="345.6" width="446.4" x="7.2" y="7.2"/>
  </clipPath>
 </defs>
</svg>
