<?xml version="1.0" encoding="utf-8" standalone="no"?>
<!DOCTYPE svg PUBLIC "-//W3C//DTD SVG 1.1//EN"
  "http://www.w3.org/Graphics/SVG/1.1/DTD/svg11.dtd">
<!-- Created with matplotlib (http://matplotlib.org/) -->
<svg height="407pt" version="1.1" viewBox="0 0 460 407" width="460pt" xmlns="http://www.w3.org/2000/svg" xmlns:xlink="http://www.w3.org/1999/xlink">
 <defs>
  <style type="text/css">
*{stroke-linecap:butt;stroke-linejoin:round;}
  </style>
 </defs>
 <g id="figure_1">
  <g id="patch_1">
   <path d="
M0 407.712
L460.8 407.712
L460.8 0
L0 0
z
" style="fill:#ffffff;"/>
  </g>
  <g id="axes_1">
   <g id="patch_2">
    <path d="
M7.2 352.8
L453.6 352.8
L453.6 7.2
L7.2 7.2
z
" style="fill:#ffffff;"/>
   </g>
   <g id="line2d_1">
    <path clip-path="url(#p99b4b0da67)" d="
M209.906 352.8
L209.906 348.238
L210.707 348.238
L210.707 343.675
L211.924 343.675
L211.924 339.113
L212.057 339.113
L212.057 334.55
L212.356 334.55
L212.407 325.426
L212.645 325.426
L212.673 316.301
L213.21 316.301
L213.21 311.739
L213.433 311.739
L213.433 307.176
L213.731 307.176
L213.731 302.614
L213.922 302.614
L213.922 298.051
L214.136 298.051
L214.136 293.489
L214.337 293.489
L214.337 288.927
L214.636 288.927
L214.636 284.364
L215.037 284.364
L215.142 275.24
L216.534 275.24
L216.534 270.677
L219.263 270.677
L219.263 266.115
L219.556 266.115
L219.556 261.552
L219.866 261.552
L219.866 256.99
L220.008 256.99
L220.102 247.865
L220.901 247.865
L220.901 243.303
L221.485 243.303
L221.527 234.178
L221.71 234.178
L221.71 229.616
L222.027 229.616
L222.027 225.053
L223.047 225.053
L223.047 220.491
L223.614 220.491
L223.614 215.929
L224.572 215.929
L224.631 206.804
L224.808 206.804
L224.858 197.679
L225.018 197.679
L225.018 193.117
L225.177 193.117
L225.177 188.554
L226.038 188.554
L226.101 179.43
L226.254 179.43
L226.302 165.743
L226.407 165.743
L226.5 156.618
L227.165 156.618
L227.165 152.055
L227.636 152.055
L227.736 142.931
L227.937 142.931
L227.937 138.368
L228.227 138.368
L228.29 124.681
L228.469 124.681
L228.503 115.556
L229.739 115.556
L229.739 110.994
L230.462 110.994
L230.462 106.432
L230.682 106.432
L230.682 101.869
L231.378 101.869
L231.474 92.7446
L231.838 92.7446
L231.865 83.6198
L232.561 83.6198
L232.561 79.0574
L246.586 79.0574
L246.586 74.495
L247.99 74.495
L247.99 69.9327
L248.103 69.9327
L248.103 65.3703
L248.916 65.3703
L248.916 60.8079
L249.62 60.8079
L249.62 56.2455
L250.811 56.2455
L250.811 51.6832
L251.399 51.6832
L251.399 47.1208
L251.641 47.1208
L251.721 37.996
L251.994 37.996
L251.994 33.4337
L252.222 33.4337
L252.222 28.8713
L252.736 28.8713
L252.736 24.3089
L253.294 24.3089
L253.294 19.7465
L254.077 19.7465
L254.077 15.1842
L255.289 15.1842
L255.289 10.6218
L255.289 10.6218
L453.6 10.6218
L453.6 10.6218" style="fill:none;stroke:#ff0000;stroke-linecap:square;stroke-width:3.0;"/>
   </g>
   <g id="line2d_2">
    <path clip-path="url(#p99b4b0da67)" d="
M223.709 352.8
L223.709 348.238
L225.218 348.238
L225.218 343.675
L227.503 343.675
L227.503 339.113
L228.241 339.113
L228.241 334.55
L231.074 334.55
L231.074 329.988
L232.323 329.988
L232.323 325.426
L232.795 325.426
L232.795 320.863
L233.853 320.863
L233.853 316.301
L233.975 316.301
L233.975 311.739
L234.362 311.739
L234.362 307.176
L236.082 307.176
L236.143 298.051
L236.197 298.051
L236.197 293.489
L236.598 293.489
L236.598 288.927
L236.98 288.927
L236.98 284.364
L237.255 284.364
L237.288 275.24
L237.565 275.24
L237.662 261.552
L237.747 261.552
L237.747 256.99
L238.11 256.99
L238.116 247.865
L238.244 247.865
L238.285 234.178
L239.101 234.178
L239.153 225.053
L239.275 225.053
L239.282 215.929
L239.464 215.929
L239.565 206.804
L239.8 206.804
L239.8 202.242
L239.995 202.242
L240.094 193.117
L240.76 193.117
L240.864 183.992
L240.917 183.992
L240.934 174.867
L241.545 174.867
L241.545 170.305
L241.829 170.305
L241.938 161.18
L242.487 161.18
L242.561 152.055
L243.283 152.055
L243.283 147.493
L243.871 147.493
L243.871 142.931
L244.057 142.931
L244.057 138.368
L244.197 138.368
L244.197 133.806
L244.448 133.806
L244.552 124.681
L245.175 124.681
L245.175 120.119
L245.971 120.119
L245.971 115.556
L247.868 115.556
L247.868 110.994
L250.145 110.994
L250.212 101.869
L251.172 101.869
L251.227 92.7446
L252.738 92.7446
L252.738 88.1822
L254.742 88.1822
L254.742 83.6198
L255.294 83.6198
L255.294 79.0574
L266.418 79.0574
L266.418 74.495
L269.183 74.495
L269.183 69.9327
L269.306 69.9327
L269.306 65.3703
L270.289 65.3703
L270.289 60.8079
L270.428 60.8079
L270.428 56.2455
L270.549 56.2455
L270.549 51.6832
L270.707 51.6832
L270.707 47.1208
L271.403 47.1208
L271.403 42.5584
L272.149 42.5584
L272.149 37.996
L272.519 37.996
L272.563 28.8713
L272.638 28.8713
L272.638 24.3089
L275.046 24.3089
L275.046 19.7465
L278.939 19.7465
L278.939 15.1842
L281.421 15.1842
L281.421 10.6218
L281.421 10.6218
L453.6 10.6218
L453.6 10.6218" style="fill:none;stroke:#00bfbf;stroke-linecap:square;"/>
   </g>
   <g id="line2d_3">
    <path clip-path="url(#p99b4b0da67)" d="
M223.709 352.8
L223.709 348.238
L225.218 348.238
L225.218 343.675
L227.503 343.675
L227.503 339.113
L228.241 339.113
L228.241 334.55
L229.217 334.55
L229.217 329.988
L231.074 329.988
L231.168 320.863
L231.933 320.863
L231.933 316.301
L232.076 316.301
L232.076 311.739
L232.795 311.739
L232.795 307.176
L234.362 307.176
L234.416 298.051
L234.616 298.051
L234.693 288.927
L234.806 288.927
L234.806 284.364
L234.922 284.364
L234.974 270.677
L236.082 270.677
L236.142 261.552
L236.585 261.552
L236.598 252.428
L236.746 252.428
L236.746 247.865
L236.98 247.865
L236.98 243.303
L237.565 243.303
L237.662 229.616
L237.721 229.616
L237.721 225.053
L238.244 225.053
L238.285 211.366
L238.454 211.366
L238.563 202.242
L238.662 202.242
L238.662 197.679
L239.101 197.679
L239.101 193.117
L239.275 193.117
L239.327 179.43
L239.464 179.43
L239.464 174.867
L239.8 174.867
L239.8 170.305
L239.995 170.305
L239.995 165.743
L240.278 165.743
L240.375 156.618
L240.489 156.618
L240.489 152.055
L240.76 152.055
L240.864 142.931
L240.934 142.931
L240.934 138.368
L242.343 138.368
L242.343 133.806
L242.487 133.806
L242.561 124.681
L242.925 124.681
L242.925 120.119
L245.095 120.119
L245.147 110.994
L247.291 110.994
L247.291 106.432
L247.868 106.432
L247.868 101.869
L251.172 101.869
L251.227 92.7446
L252.738 92.7446
L252.738 88.1822
L254.742 88.1822
L254.742 83.6198
L255.294 83.6198
L255.294 79.0574
L265.177 79.0574
L265.177 74.495
L265.45 74.495
L265.45 69.9327
L268.631 69.9327
L268.701 60.8079
L269.183 60.8079
L269.183 56.2455
L269.306 56.2455
L269.306 51.6832
L269.596 51.6832
L269.596 47.1208
L269.799 47.1208
L269.799 42.5584
L270.173 42.5584
L270.173 37.996
L270.532 37.996
L270.532 33.4337
L271.403 33.4337
L271.403 28.8713
L272.146 28.8713
L272.146 24.3089
L272.311 24.3089
L272.311 19.7465
L273.169 19.7465
L273.169 15.1842
L277.604 15.1842
L277.604 10.6218
L277.604 10.6218
L453.6 10.6218
L453.6 10.6218" style="fill:none;stroke:#bf00bf;stroke-linecap:square;"/>
   </g>
   <g id="line2d_4">
    <path clip-path="url(#p99b4b0da67)" d="
M223.462 352.8
L223.462 348.238
L225.218 348.238
L225.218 343.675
L226.247 343.675
L226.247 339.113
L227.147 339.113
L227.147 334.55
L229.216 334.55
L229.216 329.988
L230.592 329.988
L230.592 325.426
L231.023 325.426
L231.023 320.863
L231.168 320.863
L231.205 311.739
L232.779 311.739
L232.779 307.176
L234.362 307.176
L234.416 298.051
L234.616 298.051
L234.693 284.364
L234.806 284.364
L234.806 279.802
L234.922 279.802
L234.974 266.115
L236.082 266.115
L236.142 256.99
L236.585 256.99
L236.585 252.428
L236.746 252.428
L236.746 247.865
L236.923 247.865
L236.98 238.741
L237.196 238.741
L237.196 234.178
L237.344 234.178
L237.344 229.616
L237.485 229.616
L237.565 215.929
L237.631 215.929
L237.721 206.804
L237.987 206.804
L237.987 202.242
L238.269 202.242
L238.285 193.117
L238.396 193.117
L238.454 183.992
L238.563 183.992
L238.662 174.867
L238.845 174.867
L238.845 170.305
L239.275 170.305
L239.282 161.18
L239.995 161.18
L239.995 156.618
L240.187 156.618
L240.275 147.493
L240.375 147.493
L240.375 142.931
L240.76 142.931
L240.76 138.368
L240.934 138.368
L240.934 133.806
L242.487 133.806
L242.561 124.681
L242.925 124.681
L242.925 120.119
L245.095 120.119
L245.147 110.994
L246.147 110.994
L246.147 106.432
L247.868 106.432
L247.868 101.869
L249.413 101.869
L249.413 97.3069
L251.227 97.3069
L251.227 92.7446
L252.738 92.7446
L252.738 88.1822
L254.742 88.1822
L254.742 83.6198
L255.294 83.6198
L255.294 79.0574
L264.314 79.0574
L264.314 74.495
L265.284 74.495
L265.284 69.9327
L265.971 69.9327
L265.971 65.3703
L268.631 65.3703
L268.737 56.2455
L269.079 56.2455
L269.183 47.1208
L269.248 47.1208
L269.341 37.996
L269.596 37.996
L269.596 33.4337
L269.799 33.4337
L269.799 28.8713
L270.954 28.8713
L270.954 24.3089
L271.403 24.3089
L271.403 19.7465
L271.862 19.7465
L271.862 15.1842
L272.202 15.1842
L272.202 10.6218
L272.202 10.6218
L453.6 10.6218
L453.6 10.6218" style="fill:none;stroke:#000000;stroke-linecap:square;"/>
   </g>
   <g id="line2d_5">
    <path clip-path="url(#p99b4b0da67)" d="
M220.73 352.8
L220.73 348.238
L221.313 348.238
L221.313 343.675
L222.563 343.675
L222.563 339.113
L222.946 339.113
L222.946 334.55
L227.27 334.55
L227.27 329.988
L228.426 329.988
L228.426 325.426
L228.929 325.426
L228.929 320.863
L229.216 320.863
L229.31 311.739
L229.491 311.739
L229.491 307.176
L231.495 307.176
L231.552 298.051
L232.012 298.051
L232.012 293.489
L233.294 293.489
L233.294 288.927
L233.515 288.927
L233.515 284.364
L233.765 284.364
L233.765 279.802
L234.416 279.802
L234.416 275.24
L234.616 275.24
L234.626 266.115
L234.922 266.115
L234.974 252.428
L235.106 252.428
L235.106 247.865
L235.383 247.865
L235.462 238.741
L235.54 238.741
L235.54 234.178
L236.186 234.178
L236.242 225.053
L236.487 225.053
L236.585 215.929
L236.923 215.929
L237 202.242
L237.196 202.242
L237.196 197.679
L237.344 197.679
L237.344 193.117
L237.548 193.117
L237.548 188.554
L237.721 188.554
L237.825 174.867
L238.114 174.867
L238.213 165.743
L238.454 165.743
L238.454 161.18
L238.707 161.18
L238.707 156.618
L238.889 156.618
L238.933 147.493
L239.073 147.493
L239.073 142.931
L239.694 142.931
L239.694 138.368
L240.275 138.368
L240.375 129.244
L240.682 129.244
L240.682 124.681
L240.868 124.681
L240.868 120.119
L242.925 120.119
L242.925 115.556
L243.677 115.556
L243.677 110.994
L245.095 110.994
L245.095 106.432
L245.754 106.432
L245.754 101.869
L246.571 101.869
L246.571 97.3069
L248.872 97.3069
L248.872 92.7446
L250.906 92.7446
L250.906 88.1822
L251.396 88.1822
L251.396 83.6198
L253.35 83.6198
L253.35 79.0574
L263.139 79.0574
L263.139 74.495
L263.392 74.495
L263.392 69.9327
L263.628 69.9327
L263.628 65.3703
L264.177 65.3703
L264.177 60.8079
L264.46 60.8079
L264.46 56.2455
L265.127 56.2455
L265.127 51.6832
L266.093 51.6832
L266.093 47.1208
L267.225 47.1208
L267.257 37.996
L267.675 37.996
L267.675 33.4337
L268.403 33.4337
L268.403 28.8713
L268.66 28.8713
L268.66 24.3089
L268.94 24.3089
L269.041 15.1842
L270.178 15.1842
L270.178 10.6218
L270.178 10.6218
L453.6 10.6218
L453.6 10.6218" style="fill:none;stroke:#00bfbf;stroke-linecap:square;"/>
   </g>
   <g id="line2d_6">
    <path clip-path="url(#p99b4b0da67)" d="
M216.819 352.8
L216.819 348.238
L219.061 348.238
L219.061 343.675
L219.948 343.675
L219.948 339.113
L220.178 339.113
L220.178 334.55
L222.188 334.55
L222.188 329.988
L223.781 329.988
L223.781 325.426
L224.699 325.426
L224.699 320.863
L225.035 320.863
L225.035 316.301
L226.314 316.301
L226.314 311.739
L227.868 311.739
L227.868 307.176
L228.061 307.176
L228.061 302.614
L228.804 302.614
L228.804 298.051
L229.216 298.051
L229.216 293.489
L231.31 293.489
L231.38 284.364
L231.627 284.364
L231.627 279.802
L231.79 279.802
L231.876 270.677
L232.293 270.677
L232.39 256.99
L232.546 256.99
L232.546 252.428
L233.563 252.428
L233.563 247.865
L233.677 247.865
L233.677 243.303
L234.018 243.303
L234.045 234.178
L234.258 234.178
L234.258 229.616
L234.416 229.616
L234.416 225.053
L234.616 225.053
L234.626 215.929
L234.922 215.929
L234.945 206.804
L235.142 206.804
L235.142 202.242
L235.646 202.242
L235.646 197.679
L236.114 197.679
L236.12 188.554
L236.585 188.554
L236.585 183.992
L236.84 183.992
L236.923 174.867
L237.012 174.867
L237.012 170.305
L237.344 170.305
L237.344 165.743
L237.548 165.743
L237.548 161.18
L237.721 161.18
L237.756 152.055
L238.037 152.055
L238.075 142.931
L238.592 142.931
L238.592 138.368
L238.984 138.368
L238.984 133.806
L239.797 133.806
L239.797 129.244
L240.275 129.244
L240.375 120.119
L240.797 120.119
L240.797 115.556
L241.123 115.556
L241.123 110.994
L242.57 110.994
L242.57 106.432
L242.925 106.432
L242.925 101.869
L245.095 101.869
L245.095 97.3069
L245.319 97.3069
L245.319 92.7446
L246.852 92.7446
L246.852 88.1822
L247.643 88.1822
L247.643 83.6198
L247.947 83.6198
L247.947 79.0574
L255.914 79.0574
L255.914 74.495
L257.353 74.495
L257.353 69.9327
L257.596 69.9327
L257.596 65.3703
L259.557 65.3703
L259.61 51.6832
L259.97 51.6832
L259.97 47.1208
L260.3 47.1208
L260.3 42.5584
L260.569 42.5584
L260.569 37.996
L261.731 37.996
L261.731 33.4337
L261.965 33.4337
L261.994 24.3089
L263.308 24.3089
L263.308 19.7465
L266.849 19.7465
L266.849 15.1842
L268.708 15.1842
L268.708 10.6218
L268.708 10.6218
L453.6 10.6218
L453.6 10.6218" style="fill:none;stroke:#bf00bf;stroke-linecap:square;"/>
   </g>
   <g id="line2d_7">
    <path clip-path="url(#p99b4b0da67)" d="
M213.21 352.8
L213.21 348.238
L213.53 348.238
L213.53 343.675
L214.398 343.675
L214.398 339.113
L214.733 339.113
L214.733 334.55
L215.007 334.55
L215.007 329.988
L215.195 329.988
L215.195 325.426
L215.876 325.426
L215.876 320.863
L216.169 320.863
L216.169 316.301
L217.129 316.301
L217.129 311.739
L217.797 311.739
L217.797 307.176
L218.668 307.176
L218.668 302.614
L219.709 302.614
L219.709 298.051
L222.26 298.051
L222.26 293.489
L223.489 293.489
L223.489 288.927
L224.624 288.927
L224.624 284.364
L224.783 284.364
L224.832 270.677
L225.509 270.677
L225.509 266.115
L225.647 266.115
L225.647 261.552
L225.877 261.552
L225.877 256.99
L226.02 256.99
L226.02 252.428
L226.132 252.428
L226.132 247.865
L227.227 247.865
L227.227 243.303
L227.424 243.303
L227.424 238.741
L227.789 238.741
L227.789 234.178
L228.283 234.178
L228.297 225.053
L228.514 225.053
L228.514 220.491
L228.628 220.491
L228.628 215.929
L228.949 215.929
L228.949 211.366
L229.334 211.366
L229.334 206.804
L229.787 206.804
L229.787 202.242
L230.077 202.242
L230.077 197.679
L230.346 197.679
L230.346 193.117
L230.89 193.117
L230.947 179.43
L231.013 179.43
L231.109 170.305
L231.144 170.305
L231.144 165.743
L231.337 165.743
L231.378 156.618
L232.375 156.618
L232.375 152.055
L232.843 152.055
L232.945 138.368
L233.039 138.368
L233.039 133.806
L233.406 133.806
L233.511 124.681
L234.108 124.681
L234.175 115.556
L234.551 115.556
L234.551 110.994
L234.709 110.994
L234.812 101.869
L234.922 101.869
L235.027 92.7446
L235.799 92.7446
L235.902 83.6198
L236.439 83.6198
L236.439 79.0574
L248.186 79.0574
L248.186 74.495
L248.544 74.495
L248.544 69.9327
L251.994 69.9327
L251.994 65.3703
L252.772 65.3703
L252.772 60.8079
L253.226 60.8079
L253.328 47.1208
L254.567 47.1208
L254.567 42.5584
L254.891 42.5584
L254.891 37.996
L255.101 37.996
L255.101 33.4337
L255.289 33.4337
L255.289 28.8713
L255.645 28.8713
L255.645 24.3089
L255.806 24.3089
L255.806 19.7465
L256.645 19.7465
L256.645 15.1842
L259.721 15.1842
L259.721 10.6218
L259.721 10.6218
L453.6 10.6218
L453.6 10.6218" style="fill:none;stroke:#000000;stroke-linecap:square;"/>
   </g>
   <g id="line2d_8">
    <path clip-path="url(#p99b4b0da67)" d="
M212.057 352.8
L212.057 348.238
L212.407 348.238
L212.407 343.675
L212.633 343.675
L212.633 339.113
L213.106 339.113
L213.216 325.426
L213.433 325.426
L213.433 320.863
L213.672 320.863
L213.672 316.301
L214.136 316.301
L214.136 311.739
L214.398 311.739
L214.398 307.176
L214.653 307.176
L214.653 302.614
L216.444 302.614
L216.534 288.927
L217.71 288.927
L217.71 284.364
L217.941 284.364
L217.941 279.802
L218.165 279.802
L218.165 275.24
L219.263 275.24
L219.263 270.677
L220.008 270.677
L220.102 261.552
L221.236 261.552
L221.236 256.99
L221.485 256.99
L221.527 247.865
L221.71 247.865
L221.71 243.303
L222.027 243.303
L222.027 238.741
L222.272 238.741
L222.272 234.178
L223.301 234.178
L223.301 229.616
L224.153 229.616
L224.153 225.053
L224.858 225.053
L224.858 220.491
L225.177 220.491
L225.177 215.929
L225.497 215.929
L225.497 211.366
L225.877 211.366
L225.877 206.804
L226.101 206.804
L226.101 202.242
L226.287 202.242
L226.357 188.554
L226.407 188.554
L226.407 183.992
L227.554 183.992
L227.619 174.867
L227.937 174.867
L227.937 170.305
L228.15 170.305
L228.15 165.743
L228.283 165.743
L228.283 161.18
L228.469 161.18
L228.503 152.055
L228.717 152.055
L228.717 147.493
L229.221 147.493
L229.286 138.368
L229.567 138.368
L229.567 133.806
L229.739 133.806
L229.739 129.244
L230.038 129.244
L230.038 124.681
L230.682 124.681
L230.718 115.556
L230.824 115.556
L230.896 101.869
L231.378 101.869
L231.474 92.7446
L231.838 92.7446
L231.865 83.6198
L232.619 83.6198
L232.619 79.0574
L246.586 79.0574
L246.586 74.495
L247.99 74.495
L247.99 69.9327
L248.103 69.9327
L248.103 65.3703
L248.916 65.3703
L248.916 60.8079
L249.62 60.8079
L249.62 56.2455
L250.811 56.2455
L250.811 51.6832
L251.399 51.6832
L251.399 47.1208
L251.641 47.1208
L251.721 37.996
L251.994 37.996
L251.994 33.4337
L252.222 33.4337
L252.222 28.8713
L252.736 28.8713
L252.736 24.3089
L253.294 24.3089
L253.294 19.7465
L254.077 19.7465
L254.077 15.1842
L255.289 15.1842
L255.289 10.6218
L255.289 10.6218
L453.6 10.6218
L453.6 10.6218" style="fill:none;stroke:#00bfbf;stroke-linecap:square;"/>
   </g>
   <g id="patch_3">
    <path d="
M7.2 7.2
L453.6 7.2" style="fill:none;stroke:#000000;stroke-linecap:square;stroke-linejoin:miter;"/>
   </g>
   <g id="patch_4">
    <path d="
M453.6 352.8
L453.6 7.2" style="fill:none;stroke:#000000;stroke-linecap:square;stroke-linejoin:miter;"/>
   </g>
   <g id="patch_5">
    <path d="
M7.2 352.8
L453.6 352.8" style="fill:none;stroke:#000000;stroke-linecap:square;stroke-linejoin:miter;"/>
   </g>
   <g id="patch_6">
    <path d="
M7.2 352.8
L7.2 7.2" style="fill:none;stroke:#000000;stroke-linecap:square;stroke-linejoin:miter;"/>
   </g>
   <g id="matplotlib.axis_1">
    <g id="xtick_1"/>
    <g id="xtick_2">
     <g id="line2d_9">
      <path clip-path="url(#p99b4b0da67)" d="
M54.0986 352.8
L54.0986 7.2" style="fill:none;stroke:#000000;stroke-dasharray:1.000000,3.000000;stroke-dashoffset:0.0;stroke-width:0.5;"/>
     </g>
     <g id="line2d_10">
      <defs>
       <path d="
M0 0
L0 -4" id="m93b0483c22" style="stroke:#000000;stroke-width:0.5;"/>
      </defs>
      <g>
       <use style="stroke:#000000;stroke-width:0.5;" x="54.0986107985" xlink:href="#m93b0483c22" y="352.8"/>
      </g>
     </g>
     <g id="line2d_11">
      <defs>
       <path d="
M0 0
L0 4" id="m741efc42ff" style="stroke:#000000;stroke-width:0.5;"/>
      </defs>
      <g>
       <use style="stroke:#000000;stroke-width:0.5;" x="54.0986107985" xlink:href="#m741efc42ff" y="7.2"/>
      </g>
     </g>
     <g id="text_1">
      <!-- -6 -->
      <defs>
       <path d="
M33.0156 40.375
Q26.375 40.375 22.4844 35.8281
Q18.6094 31.2969 18.6094 23.3906
Q18.6094 15.5312 22.4844 10.9531
Q26.375 6.39062 33.0156 6.39062
Q39.6562 6.39062 43.5312 10.9531
Q47.4062 15.5312 47.4062 23.3906
Q47.4062 31.2969 43.5312 35.8281
Q39.6562 40.375 33.0156 40.375
M52.5938 71.2969
L52.5938 62.3125
Q48.875 64.0625 45.0938 64.9844
Q41.3125 65.9219 37.5938 65.9219
Q27.8281 65.9219 22.6719 59.3281
Q17.5312 52.7344 16.7969 39.4062
Q19.6719 43.6562 24.0156 45.9219
Q28.375 48.1875 33.5938 48.1875
Q44.5781 48.1875 50.9531 41.5156
Q57.3281 34.8594 57.3281 23.3906
Q57.3281 12.1562 50.6875 5.35938
Q44.0469 -1.42188 33.0156 -1.42188
Q20.3594 -1.42188 13.6719 8.26562
Q6.98438 17.9688 6.98438 36.375
Q6.98438 53.6562 15.1875 63.9375
Q23.3906 74.2188 37.2031 74.2188
Q40.9219 74.2188 44.7031 73.4844
Q48.4844 72.75 52.5938 71.2969" id="BitstreamVeraSans-Roman-36"/>
       <path d="
M4.89062 31.3906
L31.2031 31.3906
L31.2031 23.3906
L4.89062 23.3906
z
" id="BitstreamVeraSans-Roman-2d"/>
      </defs>
      <g transform="translate(45.2470482985 371.996875)scale(0.2 -0.2)">
       <use xlink:href="#BitstreamVeraSans-Roman-2d"/>
       <use x="36.083984375" xlink:href="#BitstreamVeraSans-Roman-36"/>
      </g>
     </g>
    </g>
    <g id="xtick_3">
     <g id="line2d_12">
      <path clip-path="url(#p99b4b0da67)" d="
M101.099 352.8
L101.099 7.2" style="fill:none;stroke:#000000;stroke-dasharray:1.000000,3.000000;stroke-dashoffset:0.0;stroke-width:0.5;"/>
     </g>
     <g id="line2d_13">
      <g>
       <use style="stroke:#000000;stroke-width:0.5;" x="101.098774234" xlink:href="#m93b0483c22" y="352.8"/>
      </g>
     </g>
     <g id="line2d_14">
      <g>
       <use style="stroke:#000000;stroke-width:0.5;" x="101.098774234" xlink:href="#m741efc42ff" y="7.2"/>
      </g>
     </g>
     <g id="text_2">
      <!-- -4 -->
      <defs>
       <path d="
M37.7969 64.3125
L12.8906 25.3906
L37.7969 25.3906
z

M35.2031 72.9062
L47.6094 72.9062
L47.6094 25.3906
L58.0156 25.3906
L58.0156 17.1875
L47.6094 17.1875
L47.6094 0
L37.7969 0
L37.7969 17.1875
L4.89062 17.1875
L4.89062 26.7031
z
" id="BitstreamVeraSans-Roman-34"/>
      </defs>
      <g transform="translate(92.1784617339 371.996875)scale(0.2 -0.2)">
       <use xlink:href="#BitstreamVeraSans-Roman-2d"/>
       <use x="36.083984375" xlink:href="#BitstreamVeraSans-Roman-34"/>
      </g>
     </g>
    </g>
    <g id="xtick_4">
     <g id="line2d_15">
      <path clip-path="url(#p99b4b0da67)" d="
M148.099 352.8
L148.099 7.2" style="fill:none;stroke:#000000;stroke-dasharray:1.000000,3.000000;stroke-dashoffset:0.0;stroke-width:0.5;"/>
     </g>
     <g id="line2d_16">
      <g>
       <use style="stroke:#000000;stroke-width:0.5;" x="148.098937669" xlink:href="#m93b0483c22" y="352.8"/>
      </g>
     </g>
     <g id="line2d_17">
      <g>
       <use style="stroke:#000000;stroke-width:0.5;" x="148.098937669" xlink:href="#m741efc42ff" y="7.2"/>
      </g>
     </g>
     <g id="text_3">
      <!-- -2 -->
      <defs>
       <path d="
M19.1875 8.29688
L53.6094 8.29688
L53.6094 0
L7.32812 0
L7.32812 8.29688
Q12.9375 14.1094 22.625 23.8906
Q32.3281 33.6875 34.8125 36.5312
Q39.5469 41.8438 41.4219 45.5312
Q43.3125 49.2188 43.3125 52.7812
Q43.3125 58.5938 39.2344 62.25
Q35.1562 65.9219 28.6094 65.9219
Q23.9688 65.9219 18.8125 64.3125
Q13.6719 62.7031 7.8125 59.4219
L7.8125 69.3906
Q13.7656 71.7812 18.9375 73
Q24.125 74.2188 28.4219 74.2188
Q39.75 74.2188 46.4844 68.5469
Q53.2188 62.8906 53.2188 53.4219
Q53.2188 48.9219 51.5312 44.8906
Q49.8594 40.875 45.4062 35.4062
Q44.1875 33.9844 37.6406 27.2188
Q31.1094 20.4531 19.1875 8.29688" id="BitstreamVeraSans-Roman-32"/>
      </defs>
      <g transform="translate(139.619250169 371.996875)scale(0.2 -0.2)">
       <use xlink:href="#BitstreamVeraSans-Roman-2d"/>
       <use x="36.083984375" xlink:href="#BitstreamVeraSans-Roman-32"/>
      </g>
     </g>
    </g>
    <g id="xtick_5">
     <g id="line2d_18">
      <path clip-path="url(#p99b4b0da67)" d="
M195.099 352.8
L195.099 7.2" style="fill:none;stroke:#000000;stroke-dasharray:1.000000,3.000000;stroke-dashoffset:0.0;stroke-width:0.5;"/>
     </g>
     <g id="line2d_19">
      <g>
       <use style="stroke:#000000;stroke-width:0.5;" x="195.099101105" xlink:href="#m93b0483c22" y="352.8"/>
      </g>
     </g>
     <g id="line2d_20">
      <g>
       <use style="stroke:#000000;stroke-width:0.5;" x="195.099101105" xlink:href="#m741efc42ff" y="7.2"/>
      </g>
     </g>
     <g id="text_4">
      <!-- 0 -->
      <defs>
       <path d="
M31.7812 66.4062
Q24.1719 66.4062 20.3281 58.9062
Q16.5 51.4219 16.5 36.375
Q16.5 21.3906 20.3281 13.8906
Q24.1719 6.39062 31.7812 6.39062
Q39.4531 6.39062 43.2812 13.8906
Q47.125 21.3906 47.125 36.375
Q47.125 51.4219 43.2812 58.9062
Q39.4531 66.4062 31.7812 66.4062
M31.7812 74.2188
Q44.0469 74.2188 50.5156 64.5156
Q56.9844 54.8281 56.9844 36.375
Q56.9844 17.9688 50.5156 8.26562
Q44.0469 -1.42188 31.7812 -1.42188
Q19.5312 -1.42188 13.0625 8.26562
Q6.59375 17.9688 6.59375 36.375
Q6.59375 54.8281 13.0625 64.5156
Q19.5312 74.2188 31.7812 74.2188" id="BitstreamVeraSans-Roman-30"/>
      </defs>
      <g transform="translate(190.060038605 371.996875)scale(0.2 -0.2)">
       <use xlink:href="#BitstreamVeraSans-Roman-30"/>
      </g>
     </g>
    </g>
    <g id="xtick_6">
     <g id="line2d_21">
      <path clip-path="url(#p99b4b0da67)" d="
M242.099 352.8
L242.099 7.2" style="fill:none;stroke:#000000;stroke-dasharray:1.000000,3.000000;stroke-dashoffset:0.0;stroke-width:0.5;"/>
     </g>
     <g id="line2d_22">
      <g>
       <use style="stroke:#000000;stroke-width:0.5;" x="242.09926454" xlink:href="#m93b0483c22" y="352.8"/>
      </g>
     </g>
     <g id="line2d_23">
      <g>
       <use style="stroke:#000000;stroke-width:0.5;" x="242.09926454" xlink:href="#m741efc42ff" y="7.2"/>
      </g>
     </g>
     <g id="text_5">
      <!-- 2 -->
      <g transform="translate(237.47113954 371.996875)scale(0.2 -0.2)">
       <use xlink:href="#BitstreamVeraSans-Roman-32"/>
      </g>
     </g>
    </g>
    <g id="xtick_7">
     <g id="line2d_24">
      <path clip-path="url(#p99b4b0da67)" d="
M289.099 352.8
L289.099 7.2" style="fill:none;stroke:#000000;stroke-dasharray:1.000000,3.000000;stroke-dashoffset:0.0;stroke-width:0.5;"/>
     </g>
     <g id="line2d_25">
      <g>
       <use style="stroke:#000000;stroke-width:0.5;" x="289.099427976" xlink:href="#m93b0483c22" y="352.8"/>
      </g>
     </g>
     <g id="line2d_26">
      <g>
       <use style="stroke:#000000;stroke-width:0.5;" x="289.099427976" xlink:href="#m741efc42ff" y="7.2"/>
      </g>
     </g>
     <g id="text_6">
      <!-- 4 -->
      <g transform="translate(283.786927976 371.996875)scale(0.2 -0.2)">
       <use xlink:href="#BitstreamVeraSans-Roman-34"/>
      </g>
     </g>
    </g>
    <g id="xtick_8">
     <g id="line2d_27">
      <path clip-path="url(#p99b4b0da67)" d="
M336.1 352.8
L336.1 7.2" style="fill:none;stroke:#000000;stroke-dasharray:1.000000,3.000000;stroke-dashoffset:0.0;stroke-width:0.5;"/>
     </g>
     <g id="line2d_28">
      <g>
       <use style="stroke:#000000;stroke-width:0.5;" x="336.099591411" xlink:href="#m93b0483c22" y="352.8"/>
      </g>
     </g>
     <g id="line2d_29">
      <g>
       <use style="stroke:#000000;stroke-width:0.5;" x="336.099591411" xlink:href="#m741efc42ff" y="7.2"/>
      </g>
     </g>
     <g id="text_7">
      <!-- 6 -->
      <g transform="translate(331.065216411 371.996875)scale(0.2 -0.2)">
       <use xlink:href="#BitstreamVeraSans-Roman-36"/>
      </g>
     </g>
    </g>
    <g id="xtick_9">
     <g id="line2d_30">
      <path clip-path="url(#p99b4b0da67)" d="
M383.1 352.8
L383.1 7.2" style="fill:none;stroke:#000000;stroke-dasharray:1.000000,3.000000;stroke-dashoffset:0.0;stroke-width:0.5;"/>
     </g>
     <g id="line2d_31">
      <g>
       <use style="stroke:#000000;stroke-width:0.5;" x="383.099754847" xlink:href="#m93b0483c22" y="352.8"/>
      </g>
     </g>
     <g id="line2d_32">
      <g>
       <use style="stroke:#000000;stroke-width:0.5;" x="383.099754847" xlink:href="#m741efc42ff" y="7.2"/>
      </g>
     </g>
     <g id="text_8">
      <!-- 8 -->
      <defs>
       <path d="
M31.7812 34.625
Q24.75 34.625 20.7188 30.8594
Q16.7031 27.0938 16.7031 20.5156
Q16.7031 13.9219 20.7188 10.1562
Q24.75 6.39062 31.7812 6.39062
Q38.8125 6.39062 42.8594 10.1719
Q46.9219 13.9688 46.9219 20.5156
Q46.9219 27.0938 42.8906 30.8594
Q38.875 34.625 31.7812 34.625
M21.9219 38.8125
Q15.5781 40.375 12.0312 44.7188
Q8.5 49.0781 8.5 55.3281
Q8.5 64.0625 14.7188 69.1406
Q20.9531 74.2188 31.7812 74.2188
Q42.6719 74.2188 48.875 69.1406
Q55.0781 64.0625 55.0781 55.3281
Q55.0781 49.0781 51.5312 44.7188
Q48 40.375 41.7031 38.8125
Q48.8281 37.1562 52.7969 32.3125
Q56.7812 27.4844 56.7812 20.5156
Q56.7812 9.90625 50.3125 4.23438
Q43.8438 -1.42188 31.7812 -1.42188
Q19.7344 -1.42188 13.25 4.23438
Q6.78125 9.90625 6.78125 20.5156
Q6.78125 27.4844 10.7812 32.3125
Q14.7969 37.1562 21.9219 38.8125
M18.3125 54.3906
Q18.3125 48.7344 21.8438 45.5625
Q25.3906 42.3906 31.7812 42.3906
Q38.1406 42.3906 41.7188 45.5625
Q45.3125 48.7344 45.3125 54.3906
Q45.3125 60.0625 41.7188 63.2344
Q38.1406 66.4062 31.7812 66.4062
Q25.3906 66.4062 21.8438 63.2344
Q18.3125 60.0625 18.3125 54.3906" id="BitstreamVeraSans-Roman-38"/>
      </defs>
      <g transform="translate(378.099754847 371.996875)scale(0.2 -0.2)">
       <use xlink:href="#BitstreamVeraSans-Roman-38"/>
      </g>
     </g>
    </g>
    <g id="xtick_10">
     <g id="line2d_33">
      <path clip-path="url(#p99b4b0da67)" d="
M430.1 352.8
L430.1 7.2" style="fill:none;stroke:#000000;stroke-dasharray:1.000000,3.000000;stroke-dashoffset:0.0;stroke-width:0.5;"/>
     </g>
     <g id="line2d_34">
      <g>
       <use style="stroke:#000000;stroke-width:0.5;" x="430.099918282" xlink:href="#m93b0483c22" y="352.8"/>
      </g>
     </g>
     <g id="line2d_35">
      <g>
       <use style="stroke:#000000;stroke-width:0.5;" x="430.099918282" xlink:href="#m741efc42ff" y="7.2"/>
      </g>
     </g>
     <g id="text_9">
      <!-- 10 -->
      <defs>
       <path d="
M12.4062 8.29688
L28.5156 8.29688
L28.5156 63.9219
L10.9844 60.4062
L10.9844 69.3906
L28.4219 72.9062
L38.2812 72.9062
L38.2812 8.29688
L54.3906 8.29688
L54.3906 0
L12.4062 0
z
" id="BitstreamVeraSans-Roman-31"/>
      </defs>
      <g transform="translate(419.137418282 371.996875)scale(0.2 -0.2)">
       <use xlink:href="#BitstreamVeraSans-Roman-31"/>
       <use x="63.623046875" xlink:href="#BitstreamVeraSans-Roman-30"/>
      </g>
     </g>
    </g>
    <g id="xtick_11"/>
    <g id="xtick_12">
     <g id="line2d_36">
      <defs>
       <path d="
M0 0
L0 -2" id="m177f7580d0" style="stroke:#000000;stroke-width:0.5;"/>
      </defs>
      <g>
       <use style="stroke:#000000;stroke-width:0.5;" x="54.0986107985" xlink:href="#m177f7580d0" y="352.8"/>
      </g>
     </g>
     <g id="line2d_37">
      <defs>
       <path d="
M0 0
L0 2" id="m5284c7e2a0" style="stroke:#000000;stroke-width:0.5;"/>
      </defs>
      <g>
       <use style="stroke:#000000;stroke-width:0.5;" x="54.0986107985" xlink:href="#m5284c7e2a0" y="7.2"/>
      </g>
     </g>
    </g>
    <g id="xtick_13">
     <g id="line2d_38">
      <g>
       <use style="stroke:#000000;stroke-width:0.5;" x="101.098774234" xlink:href="#m177f7580d0" y="352.8"/>
      </g>
     </g>
     <g id="line2d_39">
      <g>
       <use style="stroke:#000000;stroke-width:0.5;" x="101.098774234" xlink:href="#m5284c7e2a0" y="7.2"/>
      </g>
     </g>
    </g>
    <g id="xtick_14">
     <g id="line2d_40">
      <g>
       <use style="stroke:#000000;stroke-width:0.5;" x="148.098937669" xlink:href="#m177f7580d0" y="352.8"/>
      </g>
     </g>
     <g id="line2d_41">
      <g>
       <use style="stroke:#000000;stroke-width:0.5;" x="148.098937669" xlink:href="#m5284c7e2a0" y="7.2"/>
      </g>
     </g>
    </g>
    <g id="xtick_15">
     <g id="line2d_42">
      <g>
       <use style="stroke:#000000;stroke-width:0.5;" x="195.099101105" xlink:href="#m177f7580d0" y="352.8"/>
      </g>
     </g>
     <g id="line2d_43">
      <g>
       <use style="stroke:#000000;stroke-width:0.5;" x="195.099101105" xlink:href="#m5284c7e2a0" y="7.2"/>
      </g>
     </g>
    </g>
    <g id="xtick_16">
     <g id="line2d_44">
      <g>
       <use style="stroke:#000000;stroke-width:0.5;" x="242.09926454" xlink:href="#m177f7580d0" y="352.8"/>
      </g>
     </g>
     <g id="line2d_45">
      <g>
       <use style="stroke:#000000;stroke-width:0.5;" x="242.09926454" xlink:href="#m5284c7e2a0" y="7.2"/>
      </g>
     </g>
    </g>
    <g id="xtick_17">
     <g id="line2d_46">
      <g>
       <use style="stroke:#000000;stroke-width:0.5;" x="289.099427976" xlink:href="#m177f7580d0" y="352.8"/>
      </g>
     </g>
     <g id="line2d_47">
      <g>
       <use style="stroke:#000000;stroke-width:0.5;" x="289.099427976" xlink:href="#m5284c7e2a0" y="7.2"/>
      </g>
     </g>
    </g>
    <g id="xtick_18">
     <g id="line2d_48">
      <g>
       <use style="stroke:#000000;stroke-width:0.5;" x="336.099591411" xlink:href="#m177f7580d0" y="352.8"/>
      </g>
     </g>
     <g id="line2d_49">
      <g>
       <use style="stroke:#000000;stroke-width:0.5;" x="336.099591411" xlink:href="#m5284c7e2a0" y="7.2"/>
      </g>
     </g>
    </g>
    <g id="xtick_19">
     <g id="line2d_50">
      <g>
       <use style="stroke:#000000;stroke-width:0.5;" x="383.099754847" xlink:href="#m177f7580d0" y="352.8"/>
      </g>
     </g>
     <g id="line2d_51">
      <g>
       <use style="stroke:#000000;stroke-width:0.5;" x="383.099754847" xlink:href="#m5284c7e2a0" y="7.2"/>
      </g>
     </g>
    </g>
    <g id="xtick_20">
     <g id="line2d_52">
      <g>
       <use style="stroke:#000000;stroke-width:0.5;" x="430.099918282" xlink:href="#m177f7580d0" y="352.8"/>
      </g>
     </g>
     <g id="line2d_53">
      <g>
       <use style="stroke:#000000;stroke-width:0.5;" x="430.099918282" xlink:href="#m5284c7e2a0" y="7.2"/>
      </g>
     </g>
    </g>
    <g id="text_10">
     <!-- log10 of Df -->
     <defs>
      <path id="BitstreamVeraSans-Roman-20"/>
      <path d="
M30.6094 48.3906
Q23.3906 48.3906 19.1875 42.75
Q14.9844 37.1094 14.9844 27.2969
Q14.9844 17.4844 19.1562 11.8438
Q23.3438 6.20312 30.6094 6.20312
Q37.7969 6.20312 41.9844 11.8594
Q46.1875 17.5312 46.1875 27.2969
Q46.1875 37.0156 41.9844 42.7031
Q37.7969 48.3906 30.6094 48.3906
M30.6094 56
Q42.3281 56 49.0156 48.375
Q55.7188 40.7656 55.7188 27.2969
Q55.7188 13.875 49.0156 6.21875
Q42.3281 -1.42188 30.6094 -1.42188
Q18.8438 -1.42188 12.1719 6.21875
Q5.51562 13.875 5.51562 27.2969
Q5.51562 40.7656 12.1719 48.375
Q18.8438 56 30.6094 56" id="BitstreamVeraSans-Roman-6f"/>
      <path d="
M9.42188 75.9844
L18.4062 75.9844
L18.4062 0
L9.42188 0
z
" id="BitstreamVeraSans-Roman-6c"/>
      <path d="
M19.6719 64.7969
L19.6719 8.10938
L31.5938 8.10938
Q46.6875 8.10938 53.6875 14.9375
Q60.6875 21.7812 60.6875 36.5312
Q60.6875 51.1719 53.6875 57.9844
Q46.6875 64.7969 31.5938 64.7969
z

M9.8125 72.9062
L30.0781 72.9062
Q51.2656 72.9062 61.1719 64.0938
Q71.0938 55.2812 71.0938 36.5312
Q71.0938 17.6719 61.125 8.82812
Q51.1719 0 30.0781 0
L9.8125 0
z
" id="BitstreamVeraSans-Roman-44"/>
      <path d="
M45.4062 27.9844
Q45.4062 37.75 41.375 43.1094
Q37.3594 48.4844 30.0781 48.4844
Q22.8594 48.4844 18.8281 43.1094
Q14.7969 37.75 14.7969 27.9844
Q14.7969 18.2656 18.8281 12.8906
Q22.8594 7.51562 30.0781 7.51562
Q37.3594 7.51562 41.375 12.8906
Q45.4062 18.2656 45.4062 27.9844
M54.3906 6.78125
Q54.3906 -7.17188 48.1875 -13.9844
Q42 -20.7969 29.2031 -20.7969
Q24.4688 -20.7969 20.2656 -20.0938
Q16.0625 -19.3906 12.1094 -17.9219
L12.1094 -9.1875
Q16.0625 -11.3281 19.9219 -12.3438
Q23.7812 -13.375 27.7812 -13.375
Q36.625 -13.375 41.0156 -8.76562
Q45.4062 -4.15625 45.4062 5.17188
L45.4062 9.625
Q42.625 4.78125 38.2812 2.39062
Q33.9375 0 27.875 0
Q17.8281 0 11.6719 7.65625
Q5.51562 15.3281 5.51562 27.9844
Q5.51562 40.6719 11.6719 48.3281
Q17.8281 56 27.875 56
Q33.9375 56 38.2812 53.6094
Q42.625 51.2188 45.4062 46.3906
L45.4062 54.6875
L54.3906 54.6875
z
" id="BitstreamVeraSans-Roman-67"/>
      <path d="
M37.1094 75.9844
L37.1094 68.5
L28.5156 68.5
Q23.6875 68.5 21.7969 66.5469
Q19.9219 64.5938 19.9219 59.5156
L19.9219 54.6875
L34.7188 54.6875
L34.7188 47.7031
L19.9219 47.7031
L19.9219 0
L10.8906 0
L10.8906 47.7031
L2.29688 47.7031
L2.29688 54.6875
L10.8906 54.6875
L10.8906 58.5
Q10.8906 67.625 15.1406 71.7969
Q19.3906 75.9844 28.6094 75.9844
z
" id="BitstreamVeraSans-Roman-66"/>
     </defs>
     <g transform="translate(175.0234375 396.353125)scale(0.2 -0.2)">
      <use xlink:href="#BitstreamVeraSans-Roman-6c"/>
      <use x="27.783203125" xlink:href="#BitstreamVeraSans-Roman-6f"/>
      <use x="88.96484375" xlink:href="#BitstreamVeraSans-Roman-67"/>
      <use x="152.44140625" xlink:href="#BitstreamVeraSans-Roman-31"/>
      <use x="216.064453125" xlink:href="#BitstreamVeraSans-Roman-30"/>
      <use x="279.6875" xlink:href="#BitstreamVeraSans-Roman-20"/>
      <use x="311.474609375" xlink:href="#BitstreamVeraSans-Roman-6f"/>
      <use x="372.65625" xlink:href="#BitstreamVeraSans-Roman-66"/>
      <use x="407.861328125" xlink:href="#BitstreamVeraSans-Roman-20"/>
      <use x="439.6484375" xlink:href="#BitstreamVeraSans-Roman-44"/>
      <use x="516.650390625" xlink:href="#BitstreamVeraSans-Roman-66"/>
     </g>
    </g>
   </g>
   <g id="matplotlib.axis_2">
    <g id="ytick_1">
     <g id="line2d_54">
      <path clip-path="url(#p99b4b0da67)" d="
M7.2 352.8
L453.6 352.8" style="fill:none;stroke:#000000;stroke-dasharray:1.000000,3.000000;stroke-dashoffset:0.0;stroke-width:0.5;"/>
     </g>
     <g id="line2d_55">
      <defs>
       <path d="
M0 0
L4 0" id="m728421d6d4" style="stroke:#000000;stroke-width:0.5;"/>
      </defs>
      <g>
       <use style="stroke:#000000;stroke-width:0.5;" x="7.2" xlink:href="#m728421d6d4" y="352.8"/>
      </g>
     </g>
     <g id="line2d_56">
      <defs>
       <path d="
M0 0
L-4 0" id="mcb0005524f" style="stroke:#000000;stroke-width:0.5;"/>
      </defs>
      <g>
       <use style="stroke:#000000;stroke-width:0.5;" x="453.6" xlink:href="#mcb0005524f" y="352.8"/>
      </g>
     </g>
    </g>
    <g id="ytick_2">
     <g id="line2d_57">
      <path clip-path="url(#p99b4b0da67)" d="
M7.2 284.364
L453.6 284.364" style="fill:none;stroke:#000000;stroke-dasharray:1.000000,3.000000;stroke-dashoffset:0.0;stroke-width:0.5;"/>
     </g>
     <g id="line2d_58">
      <g>
       <use style="stroke:#000000;stroke-width:0.5;" x="7.2" xlink:href="#m728421d6d4" y="284.364356436"/>
      </g>
     </g>
     <g id="line2d_59">
      <g>
       <use style="stroke:#000000;stroke-width:0.5;" x="453.6" xlink:href="#mcb0005524f" y="284.364356436"/>
      </g>
     </g>
    </g>
    <g id="ytick_3">
     <g id="line2d_60">
      <path clip-path="url(#p99b4b0da67)" d="
M7.2 215.929
L453.6 215.929" style="fill:none;stroke:#000000;stroke-dasharray:1.000000,3.000000;stroke-dashoffset:0.0;stroke-width:0.5;"/>
     </g>
     <g id="line2d_61">
      <g>
       <use style="stroke:#000000;stroke-width:0.5;" x="7.2" xlink:href="#m728421d6d4" y="215.928712871"/>
      </g>
     </g>
     <g id="line2d_62">
      <g>
       <use style="stroke:#000000;stroke-width:0.5;" x="453.6" xlink:href="#mcb0005524f" y="215.928712871"/>
      </g>
     </g>
    </g>
    <g id="ytick_4">
     <g id="line2d_63">
      <path clip-path="url(#p99b4b0da67)" d="
M7.2 147.493
L453.6 147.493" style="fill:none;stroke:#000000;stroke-dasharray:1.000000,3.000000;stroke-dashoffset:0.0;stroke-width:0.5;"/>
     </g>
     <g id="line2d_64">
      <g>
       <use style="stroke:#000000;stroke-width:0.5;" x="7.2" xlink:href="#m728421d6d4" y="147.493069307"/>
      </g>
     </g>
     <g id="line2d_65">
      <g>
       <use style="stroke:#000000;stroke-width:0.5;" x="453.6" xlink:href="#mcb0005524f" y="147.493069307"/>
      </g>
     </g>
    </g>
    <g id="ytick_5">
     <g id="line2d_66">
      <path clip-path="url(#p99b4b0da67)" d="
M7.2 79.0574
L453.6 79.0574" style="fill:none;stroke:#000000;stroke-dasharray:1.000000,3.000000;stroke-dashoffset:0.0;stroke-width:0.5;"/>
     </g>
     <g id="line2d_67">
      <g>
       <use style="stroke:#000000;stroke-width:0.5;" x="7.2" xlink:href="#m728421d6d4" y="79.0574257426"/>
      </g>
     </g>
     <g id="line2d_68">
      <g>
       <use style="stroke:#000000;stroke-width:0.5;" x="453.6" xlink:href="#mcb0005524f" y="79.0574257426"/>
      </g>
     </g>
    </g>
    <g id="ytick_6">
     <g id="line2d_69">
      <path clip-path="url(#p99b4b0da67)" d="
M7.2 10.6218
L453.6 10.6218" style="fill:none;stroke:#000000;stroke-dasharray:1.000000,3.000000;stroke-dashoffset:0.0;stroke-width:0.5;"/>
     </g>
     <g id="line2d_70">
      <g>
       <use style="stroke:#000000;stroke-width:0.5;" x="7.2" xlink:href="#m728421d6d4" y="10.6217821782"/>
      </g>
     </g>
     <g id="line2d_71">
      <g>
       <use style="stroke:#000000;stroke-width:0.5;" x="453.6" xlink:href="#mcb0005524f" y="10.6217821782"/>
      </g>
     </g>
    </g>
   </g>
   <g id="text_11">
    <!-- {f15-f19}, 20-D -->
    <defs>
     <path d="
M12.5 -9.28125
L15.9219 -9.28125
Q22.75 -9.28125 24.8281 -7.17188
Q26.9062 -5.07812 26.9062 1.90625
L26.9062 14.0156
Q26.9062 21.625 29.0938 25.0938
Q31.2969 28.5625 36.7188 29.8906
Q31.2969 31.1094 29.0938 34.5625
Q26.9062 38.0312 26.9062 45.7031
L26.9062 57.8125
Q26.9062 64.75 24.8281 66.875
Q22.75 69 15.9219 69
L12.5 69
L12.5 75.9844
L15.5781 75.9844
Q27.7344 75.9844 31.8125 72.3906
Q35.8906 68.7969 35.8906 58.0156
L35.8906 46.2969
Q35.8906 39.0156 38.5156 36.2031
Q41.1562 33.4062 48.0938 33.4062
L51.125 33.4062
L51.125 26.4219
L48.0938 26.4219
Q41.1562 26.4219 38.5156 23.5781
Q35.8906 20.75 35.8906 13.375
L35.8906 1.70312
Q35.8906 -9.07812 31.8125 -12.6875
Q27.7344 -16.3125 15.5781 -16.3125
L12.5 -16.3125
z
" id="BitstreamVeraSans-Roman-7d"/>
     <path d="
M10.9844 1.51562
L10.9844 10.5
Q14.7031 8.73438 18.5 7.8125
Q22.3125 6.89062 25.9844 6.89062
Q35.75 6.89062 40.8906 13.4531
Q46.0469 20.0156 46.7812 33.4062
Q43.9531 29.2031 39.5938 26.9531
Q35.25 24.7031 29.9844 24.7031
Q19.0469 24.7031 12.6719 31.3125
Q6.29688 37.9375 6.29688 49.4219
Q6.29688 60.6406 12.9375 67.4219
Q19.5781 74.2188 30.6094 74.2188
Q43.2656 74.2188 49.9219 64.5156
Q56.5938 54.8281 56.5938 36.375
Q56.5938 19.1406 48.4062 8.85938
Q40.2344 -1.42188 26.4219 -1.42188
Q22.7031 -1.42188 18.8906 -0.6875
Q15.0938 0.046875 10.9844 1.51562
M30.6094 32.4219
Q37.25 32.4219 41.125 36.9531
Q45.0156 41.5 45.0156 49.4219
Q45.0156 57.2812 41.125 61.8438
Q37.25 66.4062 30.6094 66.4062
Q23.9688 66.4062 20.0938 61.8438
Q16.2188 57.2812 16.2188 49.4219
Q16.2188 41.5 20.0938 36.9531
Q23.9688 32.4219 30.6094 32.4219" id="BitstreamVeraSans-Roman-39"/>
     <path d="
M51.125 -9.28125
L51.125 -16.3125
L48.0938 -16.3125
Q35.9375 -16.3125 31.8125 -12.6875
Q27.6875 -9.07812 27.6875 1.70312
L27.6875 13.375
Q27.6875 20.75 25.0469 23.5781
Q22.4062 26.4219 15.4844 26.4219
L12.5 26.4219
L12.5 33.4062
L15.4844 33.4062
Q22.4688 33.4062 25.0781 36.2031
Q27.6875 39.0156 27.6875 46.2969
L27.6875 58.0156
Q27.6875 68.7969 31.8125 72.3906
Q35.9375 75.9844 48.0938 75.9844
L51.125 75.9844
L51.125 69
L47.7969 69
Q40.9219 69 38.8125 66.8438
Q36.7188 64.7031 36.7188 57.8125
L36.7188 45.7031
Q36.7188 38.0312 34.5 34.5625
Q32.2812 31.1094 26.9062 29.8906
Q32.3281 28.5625 34.5156 25.0938
Q36.7188 21.625 36.7188 14.0156
L36.7188 1.90625
Q36.7188 -4.98438 38.8125 -7.125
Q40.9219 -9.28125 47.7969 -9.28125
z
" id="BitstreamVeraSans-Roman-7b"/>
     <path d="
M11.7188 12.4062
L22.0156 12.4062
L22.0156 4
L14.0156 -11.625
L7.71875 -11.625
L11.7188 4
z
" id="BitstreamVeraSans-Roman-2c"/>
     <path d="
M10.7969 72.9062
L49.5156 72.9062
L49.5156 64.5938
L19.8281 64.5938
L19.8281 46.7344
Q21.9688 47.4688 24.1094 47.8281
Q26.2656 48.1875 28.4219 48.1875
Q40.625 48.1875 47.75 41.5
Q54.8906 34.8125 54.8906 23.3906
Q54.8906 11.625 47.5625 5.09375
Q40.2344 -1.42188 26.9062 -1.42188
Q22.3125 -1.42188 17.5469 -0.640625
Q12.7969 0.140625 7.71875 1.70312
L7.71875 11.625
Q12.1094 9.23438 16.7969 8.0625
Q21.4844 6.89062 26.7031 6.89062
Q35.1562 6.89062 40.0781 11.3281
Q45.0156 15.7656 45.0156 23.3906
Q45.0156 31 40.0781 35.4375
Q35.1562 39.8906 26.7031 39.8906
Q22.75 39.8906 18.8125 39.0156
Q14.8906 38.1406 10.7969 36.2812
z
" id="BitstreamVeraSans-Roman-35"/>
    </defs>
    <g transform="translate(287.42825 345.888)scale(0.2 -0.2)">
     <use xlink:href="#BitstreamVeraSans-Roman-7b"/>
     <use x="63.623046875" xlink:href="#BitstreamVeraSans-Roman-66"/>
     <use x="98.828125" xlink:href="#BitstreamVeraSans-Roman-31"/>
     <use x="162.451171875" xlink:href="#BitstreamVeraSans-Roman-35"/>
     <use x="226.07421875" xlink:href="#BitstreamVeraSans-Roman-2d"/>
     <use x="262.158203125" xlink:href="#BitstreamVeraSans-Roman-66"/>
     <use x="297.36328125" xlink:href="#BitstreamVeraSans-Roman-31"/>
     <use x="360.986328125" xlink:href="#BitstreamVeraSans-Roman-39"/>
     <use x="424.609375" xlink:href="#BitstreamVeraSans-Roman-7d"/>
     <use x="488.232421875" xlink:href="#BitstreamVeraSans-Roman-2c"/>
     <use x="520.01953125" xlink:href="#BitstreamVeraSans-Roman-20"/>
     <use x="551.806640625" xlink:href="#BitstreamVeraSans-Roman-32"/>
     <use x="615.4296875" xlink:href="#BitstreamVeraSans-Roman-30"/>
     <use x="679.052734375" xlink:href="#BitstreamVeraSans-Roman-2d"/>
     <use x="715.13671875" xlink:href="#BitstreamVeraSans-Roman-44"/>
    </g>
   </g>
   <g id="text_12">
    <!-- 1.2.1 -->
    <defs>
     <path d="
M10.6875 12.4062
L21 12.4062
L21 0
L10.6875 0
z
" id="BitstreamVeraSans-Roman-2e"/>
    </defs>
    <g style="fill:#808080;" transform="translate(218.6890625 347.2643125)scale(0.1 -0.1)">
     <use xlink:href="#BitstreamVeraSans-Roman-31"/>
     <use x="63.623046875" xlink:href="#BitstreamVeraSans-Roman-2e"/>
     <use x="95.41015625" xlink:href="#BitstreamVeraSans-Roman-32"/>
     <use x="159.033203125" xlink:href="#BitstreamVeraSans-Roman-2e"/>
     <use x="190.8203125" xlink:href="#BitstreamVeraSans-Roman-31"/>
    </g>
   </g>
  </g>
 </g>
 <defs>
  <clipPath id="p99b4b0da67">
   <rect height="345.6" width="446.4" x="7.2" y="7.2"/>
  </clipPath>
 </defs>
</svg>
