<?xml version="1.0" encoding="utf-8" standalone="no"?>
<!DOCTYPE svg PUBLIC "-//W3C//DTD SVG 1.1//EN"
  "http://www.w3.org/Graphics/SVG/1.1/DTD/svg11.dtd">
<!-- Created with matplotlib (http://matplotlib.org/) -->
<svg height="413pt" version="1.1" viewBox="0 0 518 413" width="518pt" xmlns="http://www.w3.org/2000/svg" xmlns:xlink="http://www.w3.org/1999/xlink">
 <defs>
  <style type="text/css">
*{stroke-linecap:butt;stroke-linejoin:round;}
  </style>
 </defs>
 <g id="figure_1">
  <g id="patch_1">
   <path d="
M0 413.969
L518.522 413.969
L518.522 0
L0 0
z
" style="fill:#ffffff;"/>
  </g>
  <g id="axes_1">
   <g id="patch_2">
    <path d="
M64.9219 359.056
L511.322 359.056
L511.322 13.4563
L64.9219 13.4563
z
" style="fill:#ffffff;"/>
   </g>
   <g id="line2d_1">
    <path clip-path="url(#p4b24e7e61f)" d="
M276.233 359.056
L276.233 353.353
L276.936 353.353
L276.936 347.65
L278.674 347.65
L278.674 341.947
L280.052 341.947
L280.052 336.244
L282.957 336.244
L282.957 330.541
L284.473 330.541
L284.473 324.839
L286.04 324.839
L286.04 319.136
L286.55 319.136
L286.55 313.433
L286.854 313.433
L286.854 307.73
L287.004 307.73
L287.004 302.027
L287.155 302.027
L287.155 296.324
L288.094 296.324
L288.094 290.621
L288.435 290.621
L288.435 284.918
L288.435 284.918
L288.435 279.215
L289.584 279.215
L289.584 273.512
L290.38 273.512
L290.38 267.809
L290.612 267.809
L290.612 262.106
L290.658 262.106
L290.658 256.403
L292.019 256.403
L292.019 250.7
L293.252 250.7
L293.252 244.997
L295.699 244.997
L295.699 239.294
L305.912 239.294
L305.912 233.591
L307.843 233.591
L307.843 227.888
L308.028 227.888
L308.028 222.185
L315.038 222.185
L315.038 216.482
L316.048 216.482
L316.048 210.779
L330.227 210.779
L330.227 205.076
L342.699 205.076
L342.699 199.373
L356.99 199.373
L356.99 193.67
L356.99 193.67
L356.99 193.67
L511.322 193.67" style="fill:none;stroke:#f5deb3;stroke-linecap:square;"/>
   </g>
   <g id="line2d_2">
    <path clip-path="url(#p4b24e7e61f)" d="
M427.414 359.056
L427.414 341.947
L465.359 341.947
L465.359 324.839
L471.344 324.839
L471.344 307.73
L472.066 307.73
L472.066 290.621
L472.175 290.621
L472.175 273.512
L487.959 273.512
L487.959 256.403
L487.959 256.403
L487.959 256.403
L511.322 256.403" style="fill:none;stroke:#f5deb3;stroke-linecap:square;"/>
   </g>
   <g id="line2d_3">
    <path clip-path="url(#p4b24e7e61f)" d="
M191.5 359.056
L191.5 353.353
L232.298 353.353
L232.298 347.65
L232.476 347.65
L232.476 341.947
L233.355 341.947
L233.355 336.244
L235.559 336.244
L235.559 330.541
L237.022 330.541
L237.022 324.839
L238.591 324.839
L238.591 319.136
L240.401 319.136
L240.401 313.433
L241.423 313.433
L241.423 307.73
L241.711 307.73
L241.711 302.027
L241.997 302.027
L241.997 296.324
L243.121 296.324
L243.121 290.621
L243.809 290.621
L243.809 284.918
L245.417 284.918
L245.417 279.215
L246.84 279.215
L246.84 273.512
L246.84 273.512
L246.84 267.809
L250.382 267.809
L250.382 262.106
L250.616 262.106
L250.616 256.403
L251.766 256.403
L251.766 250.7
L253.436 250.7
L253.436 244.997
L255.15 244.997
L255.15 239.294
L259.915 239.294
L259.915 233.591
L260.196 233.591
L260.196 227.888
L260.383 227.888
L260.383 222.185
L260.383 222.185
L260.383 216.482
L260.937 216.482
L260.937 210.779
L269.486 210.779
L269.486 205.076
L276.362 205.076
L276.362 199.373
L276.618 199.373
L276.618 193.67
L282.514 193.67
L282.514 187.967
L283.122 187.967
L283.122 182.264
L284.42 182.264
L284.42 176.561
L285.002 176.561
L285.002 170.858
L285.42 170.858
L285.42 165.155
L287.004 165.155
L287.004 159.452
L288.435 159.452
L288.435 153.749
L288.87 153.749
L288.87 148.046
L298.746 148.046
L298.746 142.343
L304.094 142.343
L304.094 136.641
L304.731 136.641
L304.731 130.938
L305.685 130.938
L305.685 125.235
L311.406 125.235
L311.406 119.532
L345.464 119.532
L345.464 113.829
L351.188 113.829
L351.188 108.126
L356.381 108.126
L356.381 102.423
L383.302 102.423
L383.302 96.7197
L383.409 96.7197
L383.409 91.0167
L399.881 91.0167
L399.881 85.3138
L428.666 85.3138
L428.666 79.6108
L430.033 79.6108
L430.033 73.9078
L435.21 73.9078
L435.21 68.2049
L436.865 68.2049
L436.865 62.5019
L439.33 62.5019
L439.33 56.7989
L440.284 56.7989
L440.284 51.0959
L445.828 51.0959
L445.828 45.393
L446.458 45.393
L446.458 39.69
L446.458 39.69
L446.458 39.69
L511.322 39.69" style="fill:none;stroke:#f5deb3;stroke-linecap:square;"/>
   </g>
   <g id="line2d_4">
    <path clip-path="url(#p4b24e7e61f)" d="
M243.809 359.056
L243.809 353.353
L289.157 353.353
L289.157 347.65
L290.38 347.65
L290.38 341.947
L297.702 341.947
L297.702 336.244
L298.555 336.244
L298.555 330.541
L298.784 330.541
L298.784 324.839
L299.24 324.839
L299.24 319.136
L299.391 319.136
L299.391 313.433
L299.466 313.433
L299.466 307.73
L299.504 307.73
L299.504 302.027
L299.84 302.027
L299.84 296.324
L300.063 296.324
L300.063 290.621
L300.211 290.621
L300.211 284.918
L301.7 284.918
L301.7 279.215
L301.984 279.215
L301.984 273.512
L304.996 273.512
L304.996 267.809
L306.523 267.809
L306.523 262.106
L307.905 262.106
L307.905 256.403
L308.549 256.403
L308.549 250.7
L308.731 250.7
L308.731 244.997
L309.779 244.997
L309.779 239.294
L309.898 239.294
L309.898 233.591
L310.104 233.591
L310.104 227.888
L310.803 227.888
L310.803 222.185
L312.168 222.185
L312.168 216.482
L312.224 216.482
L312.224 210.779
L314.538 210.779
L314.538 205.076
L315.377 205.076
L315.377 199.373
L316.683 199.373
L316.683 193.67
L316.708 193.67
L316.708 187.967
L317.01 187.967
L317.01 182.264
L319.936 182.264
L319.936 176.561
L322.013 176.561
L322.013 170.858
L323.265 170.858
L323.265 165.155
L324.545 165.155
L324.545 159.452
L325.828 159.452
L325.828 153.749
L325.869 153.749
L325.869 148.046
L329.577 148.046
L329.577 142.343
L330.061 142.343
L330.061 136.641
L331.3 136.641
L331.3 130.938
L334.05 130.938
L334.05 125.235
L338.317 125.235
L338.317 119.532
L340.967 119.532
L340.967 113.829
L343.815 113.829
L343.815 108.126
L347.622 108.126
L347.622 102.423
L347.647 102.423
L347.647 96.7197
L348.955 96.7197
L348.955 91.0167
L349.241 91.0167
L349.241 85.3138
L351.616 85.3138
L351.616 79.6108
L352.658 79.6108
L352.658 73.9078
L354.376 73.9078
L354.376 68.2049
L355.117 68.2049
L355.117 62.5019
L355.876 62.5019
L355.876 56.7989
L370.627 56.7989
L370.627 51.0959
L373.063 51.0959
L373.063 45.393
L382.095 45.393
L382.095 39.69
L387.729 39.69
L387.729 33.987
L390.84 33.987
L390.84 28.2841
L405.455 28.2841
L405.455 22.5811
L416.716 22.5811
L416.716 16.8781
L416.716 16.8781
L416.716 16.8781
L511.322 16.8781" style="fill:none;stroke:#f5deb3;stroke-linecap:square;"/>
   </g>
   <g id="line2d_5">
    <path clip-path="url(#p4b24e7e61f)" d="
M298.169 359.056
L298.169 353.353
L315.997 353.353
L315.997 347.65
L319.678 347.65
L319.678 341.947
L324.355 341.947
L324.355 336.244
L326.517 336.244
L326.517 330.541
L327.977 330.541
L327.977 324.839
L333.026 324.839
L333.026 319.136
L333.745 319.136
L333.745 313.433
L334.719 313.433
L334.719 307.73
L335.525 307.73
L335.525 302.027
L336.619 302.027
L336.619 296.324
L338.833 296.324
L338.833 290.621
L339.67 290.621
L339.67 284.918
L340.316 284.918
L340.316 279.215
L341.905 279.215
L341.905 273.512
L343.165 273.512
L343.165 267.809
L344.097 267.809
L344.097 262.106
L344.93 262.106
L344.93 256.403
L347.843 256.403
L347.843 250.7
L349.193 250.7
L349.193 244.997
L349.607 244.997
L349.607 239.294
L353.192 239.294
L353.192 233.591
L354.471 233.591
L354.471 227.888
L357.473 227.888
L357.473 222.185
L366.856 222.185
L366.856 216.482
L367.884 216.482
L367.884 210.779
L368.176 210.779
L368.176 205.076
L372.995 205.076
L372.995 199.373
L378.211 199.373
L378.211 193.67
L379.223 193.67
L379.223 187.967
L381.795 187.967
L381.795 182.264
L384.919 182.264
L384.919 176.561
L388.231 176.561
L388.231 170.858
L388.356 170.858
L388.356 165.155
L388.68 165.155
L388.68 159.452
L391.406 159.452
L391.406 153.749
L393.986 153.749
L393.986 148.046
L394.703 148.046
L394.703 142.343
L396.302 142.343
L396.302 136.641
L400.293 136.641
L400.293 130.938
L402.712 130.938
L402.712 125.235
L403.149 125.235
L403.149 119.532
L409.317 119.532
L409.317 113.829
L419.449 113.829
L419.449 108.126
L437.933 108.126
L437.933 102.423
L446.491 102.423
L446.491 96.7197
L481.777 96.7197
L481.777 91.0167
L481.777 91.0167
L481.777 91.0167
L511.322 91.0167" style="fill:none;stroke:#f5deb3;stroke-linecap:square;"/>
   </g>
   <g id="line2d_6"/>
   <g id="line2d_7">
    <path clip-path="url(#p4b24e7e61f)" d="
M280.228 359.056
L280.228 353.353
L283.068 353.353
L283.068 347.65
L284.897 347.65
L284.897 341.947
L319.324 341.947
L319.324 336.244
L320.632 336.244
L320.632 330.541
L321.475 330.541
L321.475 324.839
L322.501 324.839
L322.501 319.136
L323.2 319.136
L323.2 313.433
L323.243 313.433
L323.243 307.73
L323.995 307.73
L323.995 302.027
L324.25 302.027
L324.25 296.324
L324.566 296.324
L324.566 290.621
L324.566 290.621
L324.566 284.918
L324.901 284.918
L324.901 279.215
L325.109 279.215
L325.109 273.512
L325.253 273.512
L325.253 267.809
L325.295 267.809
L325.295 262.106
L325.357 262.106
L325.357 256.403
L325.562 256.403
L325.562 250.7
L325.849 250.7
L325.849 244.997
L325.93 244.997
L325.93 239.294
L326.376 239.294
L326.376 233.591
L327.134 233.591
L327.134 227.888
L327.253 227.888
L327.253 222.185
L327.411 222.185
L327.411 216.482
L328.267 216.482
L328.267 210.779
L328.306 210.779
L328.306 205.076
L328.344 205.076
L328.344 199.373
L329.013 199.373
L329.013 193.67
L330.612 193.67
L330.612 187.967
L333.25 187.967
L333.25 182.264
L333.49 182.264
L333.49 176.561
L335.296 176.561
L335.296 170.858
L337.171 170.858
L337.171 165.155
L337.499 165.155
L337.499 159.452
L337.624 159.452
L337.624 153.749
L337.841 153.749
L337.841 148.046
L339.208 148.046
L339.208 142.343
L339.817 142.343
L339.817 136.641
L340.111 136.641
L340.111 130.938
L341.139 130.938
L341.139 125.235
L342.781 125.235
L342.781 119.532
L361.67 119.532
L361.67 113.829
L365.062 113.829
L365.062 108.126
L369.412 108.126
L369.412 102.423
L370.851 102.423
L370.851 96.7197
L377.588 96.7197
L377.588 91.0167
L378.651 91.0167
L378.651 85.3138
L383.129 85.3138
L383.129 79.6108
L389.2 79.6108
L389.2 73.9078
L398.191 73.9078
L398.191 68.2049
L399.749 68.2049
L399.749 62.5019
L408.276 62.5019
L408.276 56.7989
L417.753 56.7989
L417.753 51.0959
L422.54 51.0959
L422.54 45.393
L425.279 45.393
L425.279 39.69
L442.277 39.69
L442.277 33.987
L449.991 33.987
L449.991 28.2841
L489.836 28.2841
L489.836 22.5811
L513.017 22.5811
L513.017 16.8781
L513.017 16.8781" style="fill:none;stroke:#f5deb3;stroke-linecap:square;"/>
   </g>
   <g id="line2d_8">
    <path clip-path="url(#p4b24e7e61f)" d="
M417.631 359.056
L417.631 353.353
L417.816 353.353
L417.816 347.65
L420.188 347.65
L420.188 341.947
L421.509 341.947
L421.509 336.244
L421.686 336.244
L421.686 330.541
L422.401 330.541
L422.401 324.839
L422.657 324.839
L422.657 319.136
L424.54 319.136
L424.54 313.433
L425.877 313.433
L425.877 307.73
L426.183 307.73
L426.183 302.027
L426.344 302.027
L426.344 296.324
L426.881 296.324
L426.881 290.621
L428.087 290.621
L428.087 284.918
L463.985 284.918
L463.985 279.215
L464.804 279.215
L464.804 273.512
L465.521 273.512
L465.521 267.809
L465.827 267.809
L465.827 262.106
L466.002 262.106
L466.002 256.403
L466.402 256.403
L466.402 250.7
L466.902 250.7
L466.902 244.997
L467.187 244.997
L467.187 239.294
L467.328 239.294
L467.328 233.591
L467.381 233.591
L467.381 227.888
L467.7 227.888
L467.7 222.185
L467.952 222.185
L467.952 216.482
L468.237 216.482
L468.237 210.779
L468.703 210.779
L468.703 205.076
L469.5 205.076
L469.5 199.373
L506.711 199.373
L506.711 193.67
L507.53 193.67
L507.53 187.967
L507.53 187.967
L507.53 187.967
L511.322 187.967" style="fill:none;stroke:#f5deb3;stroke-linecap:square;"/>
   </g>
   <g id="line2d_9">
    <path clip-path="url(#p4b24e7e61f)" d="
M251.993 359.056
L251.993 353.353
L271.111 353.353
L271.111 347.65
L282.067 347.65
L282.067 341.947
L299.466 341.947
L299.466 336.244
L302.161 336.244
L302.161 330.541
L302.862 330.541
L302.862 324.839
L303.79 324.839
L303.79 319.136
L303.959 319.136
L303.959 313.433
L310.774 313.433
L310.774 307.73
L312.056 307.73
L312.056 302.027
L314.749 302.027
L314.749 296.324
L314.907 296.324
L314.907 290.621
L315.169 290.621
L315.169 284.918
L317.358 284.918
L317.358 279.215
L317.383 279.215
L317.383 273.512
L317.975 273.512
L317.975 267.809
L318.219 267.809
L318.219 262.106
L318.389 262.106
L318.389 256.403
L318.461 256.403
L318.461 250.7
L318.654 250.7
L318.654 244.997
L318.895 244.997
L318.895 239.294
L319.11 239.294
L319.11 233.591
L319.157 233.591
L319.157 227.888
L320.378 227.888
L320.378 222.185
L320.632 222.185
L320.632 216.482
L320.793 216.482
L320.793 210.779
L321.52 210.779
L321.52 205.076
L321.924 205.076
L321.924 199.373
L322.236 199.373
L322.236 193.67
L323.135 193.67
L323.135 187.967
L323.178 187.967
L323.178 182.264
L323.33 182.264
L323.33 176.561
L323.373 176.561
L323.373 170.858
L324.038 170.858
L324.038 165.155
L324.228 165.155
L324.228 159.452
L324.713 159.452
L324.713 153.749
L325.767 153.749
L325.767 148.046
L326.295 148.046
L326.295 142.343
L326.335 142.343
L326.335 136.641
L326.876 136.641
L326.876 130.938
L327.174 130.938
L327.174 125.235
L327.352 125.235
L327.352 119.532
L327.802 119.532
L327.802 113.829
L328.19 113.829
L328.19 108.126
L329.164 108.126
L329.164 102.423
L329.727 102.423
L329.727 96.7197
L329.894 96.7197
L329.894 91.0167
L330.392 91.0167
L330.392 85.3138
L331.21 85.3138
L331.21 79.6108
L332.68 79.6108
L332.68 73.9078
L333.182 73.9078
L333.182 68.2049
L336.412 68.2049
L336.412 62.5019
L336.524 62.5019
L336.524 56.7989
L336.555 56.7989
L336.555 51.0959
L339.596 51.0959
L339.596 45.393
L342.699 45.393
L342.699 39.69
L346.208 39.69
L346.208 33.987
L347.214 33.987
L347.214 28.2841
L363.617 28.2841
L363.617 22.5811
L367.474 22.5811
L367.474 16.8781
L367.474 16.8781
L367.474 16.8781
L511.322 16.8781" style="fill:none;stroke:#f5deb3;stroke-linecap:square;"/>
   </g>
   <g id="line2d_10">
    <path clip-path="url(#p4b24e7e61f)" d="
M390.193 359.056
L390.193 353.353
L407.117 353.353
L407.117 347.65
L414.657 347.65
L414.657 341.947
L422.95 341.947
L422.95 336.244
L429.716 336.244
L429.716 330.541
L435.511 330.541
L435.511 324.839
L441.413 324.839
L441.413 319.136
L442.554 319.136
L442.554 313.433
L443.353 313.433
L443.353 307.73
L449.418 307.73
L449.418 302.027
L451.529 302.027
L451.529 296.324
L499.374 296.324
L499.374 290.621
L500.077 290.621
L500.077 284.918
L500.254 284.918
L500.254 279.215
L502.804 279.215
L502.804 273.512
L504.088 273.512
L504.088 267.809
L505.45 267.809
L505.45 262.106
L505.494 262.106
L505.494 256.403
L506.429 256.403
L506.429 250.7
L508.551 250.7
L508.551 244.997
L508.791 244.997
L508.791 239.294
L512.832 239.294
L512.832 233.591
L513.293 233.591
L513.293 227.888
L514.611 227.888
L514.611 222.185
L515.059 222.185
L515.059 216.482
L515.429 216.482
L515.429 210.779
L519.522 210.779" style="fill:none;stroke:#f5deb3;stroke-linecap:square;"/>
   </g>
   <g id="line2d_11">
    <path clip-path="url(#p4b24e7e61f)" d="
M253.436 359.056
L253.436 353.353
L291.795 353.353
L291.795 347.65
L294.026 347.65
L294.026 341.947
L295.204 341.947
L295.204 336.244
L299.728 336.244
L299.728 330.541
L301.161 330.541
L301.161 324.839
L304.297 324.839
L304.297 319.136
L304.464 319.136
L304.464 313.433
L306.555 313.433
L306.555 307.73
L307.031 307.73
L307.031 302.027
L307.997 302.027
L307.997 296.324
L308.549 296.324
L308.549 290.621
L317.631 290.621
L317.631 284.918
L323.546 284.918
L323.546 279.215
L332.119 279.215
L332.119 273.512
L332.26 273.512
L332.26 267.809
L350.721 267.809
L350.721 262.106
L466.518 262.106
L466.518 256.403
L468.465 256.403
L468.465 250.7
L479.523 250.7
L479.523 244.997
L487.322 244.997
L487.322 239.294
L493.341 239.294
L493.341 233.591
L493.999 233.591
L493.999 227.888
L494.083 227.888
L494.083 222.185
L494.134 222.185
L494.134 216.482
L494.42 216.482
L494.42 210.779
L494.539 210.779
L494.539 205.076
L494.63 205.076
L494.63 199.373
L494.765 199.373
L494.765 193.67
L494.771 193.67
L494.771 187.967
L494.826 187.967
L494.826 182.264
L494.926 182.264
L494.926 176.561
L495.032 176.561
L495.032 170.858
L495.155 170.858
L495.155 165.155
L495.188 165.155
L495.188 159.452
L495.568 159.452
L495.568 153.749
L495.641 153.749
L495.641 148.046
L496.007 148.046
L496.007 142.343
L496.037 142.343
L496.037 136.641
L496.297 136.641
L496.297 130.938
L496.357 130.938
L496.357 125.235
L498.655 125.235
L498.655 119.532
L519.522 119.532" style="fill:none;stroke:#f5deb3;stroke-linecap:square;"/>
   </g>
   <g id="line2d_12">
    <path clip-path="url(#p4b24e7e61f)" d="
M239.051 359.056
L239.051 353.353
L244.217 353.353
L244.217 347.65
L245.81 347.65
L245.81 341.947
L246.585 341.947
L246.585 336.244
L246.585 336.244
L246.585 330.541
L249.553 330.541
L249.553 324.839
L250.964 324.839
L250.964 319.136
L250.964 319.136
L250.964 313.433
L251.652 313.433
L251.652 307.73
L253.654 307.73
L253.654 302.027
L254.302 302.027
L254.302 296.324
L255.567 296.324
L255.567 290.621
L255.567 290.621
L255.567 284.918
L261.393 284.918
L261.393 279.215
L261.935 279.215
L261.935 273.512
L261.935 273.512
L261.935 267.809
L262.47 267.809
L262.47 262.106
L264.545 262.106
L264.545 256.403
L265.049 256.403
L265.049 250.7
L266.039 250.7
L266.039 244.997
L267.482 244.997
L267.482 239.294
L271.544 239.294
L271.544 233.591
L272.817 233.591
L272.817 227.888
L280.111 227.888
L280.111 222.185
L282.847 222.185
L282.847 216.482
L285.732 216.482
L285.732 210.779
L285.732 210.779
L285.732 205.076
L286.04 205.076
L286.04 199.373
L290.427 199.373
L290.427 193.67
L322.611 193.67
L322.611 187.967
L334.016 187.967
L334.016 182.264
L374.815 182.264
L374.815 176.561
L402.54 176.561
L402.54 170.858
L436.393 170.858
L436.393 165.155
L440.357 165.155
L440.357 159.452
L475.212 159.452
L475.212 153.749
L476.348 153.749
L476.348 148.046
L478.485 148.046
L478.485 142.343
L479.064 142.343
L479.064 136.641
L482.743 136.641
L482.743 130.938
L484.754 130.938
L484.754 125.235
L489.942 125.235
L489.942 119.532
L507.497 119.532
L507.497 113.829
L507.681 113.829
L507.681 108.126
L511.322 108.126
L511.322 102.423
L511.322 102.423" style="fill:none;stroke:#f5deb3;stroke-linecap:square;"/>
   </g>
   <g id="line2d_13">
    <path clip-path="url(#p4b24e7e61f)" d="
M344.323 359.056
L344.323 353.353
L347.88 353.353
L347.88 347.65
L356.251 347.65
L356.251 341.947
L356.251 341.947
L356.251 336.244
L362.741 336.244
L362.741 330.541
L366.99 330.541
L366.99 324.839
L366.99 324.839
L366.99 319.136
L381.493 319.136
L381.493 313.433
L381.493 313.433
L381.493 307.73
L383.746 307.73
L383.746 302.027
L383.746 302.027
L383.746 296.324
L387.176 296.324
L387.176 290.621
L388.78 290.621
L388.78 284.918
L389.129 284.918
L389.129 279.215
L392.858 279.215
L392.858 273.512
L392.858 273.512
L392.858 273.512
L511.322 273.512" style="fill:none;stroke:#f5deb3;stroke-linecap:square;"/>
   </g>
   <g id="line2d_14">
    <path clip-path="url(#p4b24e7e61f)" d="
M272.608 359.056
L272.608 353.353
L276.809 353.353
L276.809 347.65
L288.966 347.65
L288.966 341.947
L292.463 341.947
L292.463 336.244
L295.41 336.244
L295.41 330.541
L296.912 330.541
L296.912 324.839
L299.429 324.839
L299.429 319.136
L302.583 319.136
L302.583 313.433
L304.061 313.433
L304.061 307.73
L307.719 307.73
L307.719 302.027
L307.905 302.027
L307.905 296.324
L308.396 296.324
L308.396 290.621
L309.423 290.621
L309.423 284.918
L311.576 284.918
L311.576 279.215
L313.708 279.215
L313.708 273.512
L318.679 273.512
L318.679 267.809
L320.193 267.809
L320.193 262.106
L321.362 262.106
L321.362 256.403
L325.398 256.403
L325.398 250.7
L329.202 250.7
L329.202 244.997
L334.05 244.997
L334.05 239.294
L334.285 239.294
L334.285 233.591
L334.686 233.591
L334.686 227.888
L339.059 227.888
L339.059 222.185
L339.328 222.185
L339.328 216.482
L339.994 216.482
L339.994 210.779
L345.773 210.779
L345.773 205.076
L350.617 205.076
L350.617 199.373
L354.281 199.373
L354.281 193.67
L358.182 193.67
L358.182 187.967
L360.325 187.967
L360.325 182.264
L363.531 182.264
L363.531 176.561
L365.948 176.561
L365.948 170.858
L372.714 170.858
L372.714 165.155
L375.252 165.155
L375.252 159.452
L380.677 159.452
L380.677 153.749
L386.211 153.749
L386.211 148.046
L390.613 148.046
L390.613 142.343
L435.132 142.343
L435.132 136.641
L435.517 136.641
L435.517 130.938
L440.134 130.938
L440.134 125.235
L448.714 125.235
L448.714 119.532
L454.772 119.532
L454.772 113.829
L454.772 113.829
L454.772 113.829
L511.322 113.829" style="fill:none;stroke:#f5deb3;stroke-linecap:square;"/>
   </g>
   <g id="line2d_15">
    <path clip-path="url(#p4b24e7e61f)" d="
M469.786 359.056
L469.786 353.353
L476.979 353.353
L476.979 347.65
L479.927 347.65
L479.927 341.947
L485.168 341.947
L485.168 336.244
L519.522 336.244" style="fill:none;stroke:#f5deb3;stroke-linecap:square;"/>
   </g>
   <g id="line2d_16">
    <path clip-path="url(#p4b24e7e61f)" d="
M414.753 359.056
L414.753 353.353
L415.788 353.353
L415.788 347.65
L424.909 347.65
L424.909 341.947
L425.067 341.947
L425.067 336.244
L427.445 336.244
L427.445 330.541
L427.819 330.541
L427.819 324.839
L432.841 324.839
L432.841 319.136
L432.918 319.136
L432.918 313.433
L447.437 313.433
L447.437 307.73
L448.484 307.73
L448.484 302.027
L449.915 302.027
L449.915 296.324
L454.335 296.324
L454.335 290.621
L461.242 290.621
L461.242 284.918
L519.522 284.918" style="fill:none;stroke:#f5deb3;stroke-linecap:square;"/>
   </g>
   <g id="line2d_17">
    <path clip-path="url(#p4b24e7e61f)" d="
M348.68 359.056
L348.68 353.353
L367.591 353.353
L367.591 347.65
L369.315 347.65
L369.315 341.947
L370.512 341.947
L370.512 336.244
L372.61 336.244
L372.61 330.541
L372.824 330.541
L372.824 324.839
L372.995 324.839
L372.995 319.136
L373.948 319.136
L373.948 313.433
L375.031 313.433
L375.031 307.73
L375.653 307.73
L375.653 302.027
L375.717 302.027
L375.717 296.324
L376.525 296.324
L376.525 290.621
L381.262 290.621
L381.262 284.918
L381.879 284.918
L381.879 279.215
L390.363 279.215
L390.363 273.512
L393.564 273.512
L393.564 267.809
L405.109 267.809
L405.109 262.106
L407.803 262.106
L407.803 256.403
L410.462 256.403
L410.462 250.7
L411.488 250.7
L411.488 244.997
L411.898 244.997
L411.898 239.294
L412.235 239.294
L412.235 233.591
L412.534 233.591
L412.534 227.888
L413.978 227.888
L413.978 222.185
L414.302 222.185
L414.302 216.482
L414.333 216.482
L414.333 210.779
L414.477 210.779
L414.477 205.076
L415.689 205.076
L415.689 199.373
L416.357 199.373
L416.357 193.67
L416.626 193.67
L416.626 187.967
L417.094 187.967
L417.094 182.264
L417.522 182.264
L417.522 176.561
L417.665 176.561
L417.665 170.858
L418.294 170.858
L418.294 165.155
L418.326 165.155
L418.326 159.452
L419.027 159.452
L419.027 153.749
L419.711 153.749
L419.711 148.046
L420.236 148.046
L420.236 142.343
L422.069 142.343
L422.069 136.641
L422.493 136.641
L422.493 130.938
L423.107 130.938
L423.107 125.235
L423.748 125.235
L423.748 119.532
L423.896 119.532
L423.896 113.829
L424.958 113.829
L424.958 108.126
L428.533 108.126
L428.533 102.423
L450.917 102.423
L450.917 96.7197
L455.396 96.7197
L455.396 91.0167
L455.98 91.0167
L455.98 85.3138
L456.157 85.3138
L456.157 79.6108
L457.614 79.6108
L457.614 73.9078
L458.432 73.9078
L458.432 68.2049
L460.396 68.2049
L460.396 62.5019
L460.512 62.5019
L460.512 56.7989
L462.057 56.7989
L462.057 51.0959
L462.552 51.0959
L462.552 45.393
L464.798 45.393
L464.798 39.69
L467.633 39.69
L467.633 33.987
L468.851 33.987
L468.851 28.2841
L469.364 28.2841
L469.364 22.5811
L469.699 22.5811
L469.699 16.8781
L469.699 16.8781
L469.699 16.8781
L511.322 16.8781" style="fill:none;stroke:#f5deb3;stroke-linecap:square;"/>
   </g>
   <g id="line2d_18">
    <path clip-path="url(#p4b24e7e61f)" d="
M243.809 359.056
L243.809 353.353
L243.946 353.353
L243.946 347.65
L245.417 347.65
L245.417 341.947
L247.597 341.947
L247.597 336.244
L249.91 336.244
L249.91 330.541
L250.382 330.541
L250.382 324.839
L250.964 324.839
L250.964 319.136
L251.993 319.136
L251.993 313.433
L253.108 313.433
L253.108 307.73
L254.087 307.73
L254.087 302.027
L255.359 302.027
L255.359 296.324
L255.567 296.324
L255.567 290.621
L257.697 290.621
L257.697 284.918
L258.287 284.918
L258.287 279.215
L258.482 279.215
L258.482 273.512
L260.383 273.512
L260.383 267.809
L260.383 267.809
L260.383 262.106
L261.484 262.106
L261.484 256.403
L262.558 256.403
L262.558 250.7
L264.714 250.7
L264.714 244.997
L266.525 244.997
L266.525 239.294
L271.184 239.294
L271.184 233.591
L277.876 233.591
L277.876 227.888
L283.668 227.888
L283.668 222.185
L284.739 222.185
L284.739 216.482
L290.427 216.482
L290.427 210.779
L293.641 210.779
L293.641 205.076
L293.769 205.076
L293.769 199.373
L302.443 199.373
L302.443 193.67
L306.17 193.67
L306.17 187.967
L315.559 187.967
L315.559 182.264
L335.995 182.264
L335.995 176.561
L342.726 176.561
L342.726 170.858
L350.698 170.858
L350.698 165.155
L352.018 165.155
L352.018 159.452
L353.772 159.452
L353.772 153.749
L354.46 153.749
L354.46 148.046
L356.411 148.046
L356.411 142.343
L356.97 142.343
L356.97 136.641
L358.69 136.641
L358.69 130.938
L359.669 130.938
L359.669 125.235
L362.724 125.235
L362.724 119.532
L364.641 119.532
L364.641 113.829
L368.435 113.829
L368.435 108.126
L386.427 108.126
L386.427 102.423
L386.427 102.423
L386.427 102.423
L511.322 102.423" style="fill:none;stroke:#f5deb3;stroke-linecap:square;"/>
   </g>
   <g id="line2d_19">
    <path clip-path="url(#p4b24e7e61f)" d="
M398.68 359.056
L398.68 357.155
L398.68 357.155
L398.68 357.155
L398.68 355.254
L398.68 355.254
L398.68 355.254
L398.68 353.353
L399.365 353.353
L399.365 347.65
L403.054 347.65
L403.054 341.947
L408.161 341.947
L408.161 336.244
L411.89 336.244
L411.89 330.541
L414.165 330.541
L414.165 324.839
L414.401 324.839
L414.404 313.433
L415.2 313.433
L415.2 307.73
L415.416 307.73
L415.416 302.027
L416.785 302.027
L416.785 296.324
L418.259 296.324
L418.259 290.621
L424.182 290.621
L424.182 284.918
L429.275 284.918
L429.275 279.215
L430.361 279.215
L430.361 273.512
L455.199 273.512
L455.199 267.809
L456.176 267.809
L456.176 262.106
L458.002 262.106
L458.002 256.403
L462.029 256.403
L462.029 250.7
L464.705 250.7
L464.705 244.997
L465.262 244.997
L465.262 239.294
L466.755 239.294
L466.755 233.591
L468.252 233.591
L468.252 227.888
L470.149 227.888
L470.149 222.185
L471.473 222.185
L471.473 216.482
L471.931 216.482
L471.931 210.779
L472.114 210.779
L472.114 205.076
L473.439 205.076
L473.439 199.373
L473.859 199.373
L473.859 193.67
L477.098 193.67
L477.098 187.967
L496.081 187.967
L496.081 182.264
L496.713 182.264
L496.713 176.561
L498.308 176.561
L498.308 170.858
L504.622 170.858
L504.622 165.155
L504.744 165.155
L504.744 159.452
L505.839 159.452
L505.839 153.749
L506.462 153.749
L506.462 148.046
L507.008 148.046
L507.008 142.343
L508.783 142.343
L508.783 136.641
L509.889 136.641
L509.889 130.938
L510.598 130.938
L510.624 119.532
L511.761 119.532
L511.761 113.829
L514.455 113.829
L514.455 108.126
L515.303 108.126
L515.303 102.423
L515.751 102.423
L515.751 96.7197
L517.773 96.7197
L517.773 91.0167
L518.106 91.0167
L518.106 85.3138
L519.522 85.3138
L519.522 85.3138" style="fill:none;stroke:#f5deb3;stroke-linecap:square;"/>
   </g>
   <g id="line2d_20">
    <path clip-path="url(#p4b24e7e61f)" d="
M261.575 359.056
L261.575 353.353
L265.464 353.353
L265.464 347.65
L267.086 347.65
L267.086 341.947
L270.38 341.947
L270.38 336.244
L271.616 336.244
L271.616 330.541
L272.327 330.541
L272.327 324.839
L272.748 324.839
L272.748 319.136
L273.234 319.136
L273.234 313.433
L274.526 313.433
L274.526 307.73
L274.992 307.73
L274.992 302.027
L278.552 302.027
L278.552 296.324
L279.098 296.324
L279.098 290.621
L280.111 290.621
L280.111 284.918
L281.042 284.918
L281.042 279.215
L281.1 279.215
L281.1 273.512
L281.785 273.512
L281.785 267.809
L281.898 267.809
L281.898 262.106
L285.264 262.106
L285.264 256.403
L287.304 256.403
L287.304 250.7
L290.008 250.7
L290.008 244.997
L291.75 244.997
L291.75 239.294
L295.78 239.294
L295.78 233.591
L296.228 233.591
L296.228 227.888
L303.208 227.888
L303.208 222.185
L305.029 222.185
L305.029 216.482
L307.376 216.482
L307.376 210.779
L309.868 210.779
L309.868 205.076
L312.252 205.076
L312.252 199.373
L317.852 199.373
L317.852 193.67
L320.861 193.67
L320.861 187.967
L355.795 187.967
L355.795 182.264
L362.165 182.264
L362.165 176.561
L367.49 176.561
L367.49 170.858
L382.012 170.858
L382.012 165.155
L384.35 165.155
L384.35 159.452
L396.516 159.452
L396.516 153.749
L408.932 153.749
L408.932 148.046
L409.893 148.046
L409.893 142.343
L412.196 142.343
L412.196 136.641
L423.226 136.641
L423.226 130.938
L424.103 130.938
L424.103 125.235
L428.94 125.235
L428.94 119.532
L429.669 119.532
L429.669 113.829
L434.005 113.829
L434.005 108.126
L434.887 108.126
L434.887 102.423
L436.511 102.423
L436.511 96.7197
L442.42 96.7197
L442.42 91.0167
L445.87 91.0167
L445.87 85.3138
L448.918 85.3138
L448.918 79.6108
L474.132 79.6108
L474.132 73.9078
L476.308 73.9078
L476.308 68.2049
L484.253 68.2049
L484.253 62.5019
L488.896 62.5019
L488.896 56.7989
L488.896 56.7989
L488.896 56.7989
L511.322 56.7989" style="fill:none;stroke:#f5deb3;stroke-linecap:square;"/>
   </g>
   <g id="line2d_21"/>
   <g id="line2d_22">
    <path clip-path="url(#p4b24e7e61f)" d="
M253.217 359.056
L253.217 353.353
L256.084 353.353
L256.084 347.65
L256.289 347.65
L256.289 341.947
L260.568 341.947
L260.568 336.244
L265.381 336.244
L265.381 330.541
L265.711 330.541
L265.711 324.839
L266.686 324.839
L266.686 319.136
L268.264 319.136
L268.264 313.433
L269.786 313.433
L269.786 307.73
L272.186 307.73
L272.186 302.027
L273.303 302.027
L273.303 296.324
L277.44 296.324
L277.44 290.621
L277.627 290.621
L277.627 284.918
L283.505 284.918
L283.505 279.215
L287.898 279.215
L287.898 273.512
L290.288 273.512
L290.288 267.809
L290.796 267.809
L290.796 262.106
L292.153 262.106
L292.153 256.403
L294.196 256.403
L294.196 250.7
L294.996 250.7
L294.996 244.997
L296.188 244.997
L296.188 239.294
L297.623 239.294
L297.623 233.591
L299.691 233.591
L299.691 227.888
L321.835 227.888
L321.835 222.185
L322.191 222.185
L322.191 216.482
L333.061 216.482
L333.061 210.779
L336.396 210.779
L336.396 205.076
L338.545 205.076
L338.545 199.373
L339.847 199.373
L339.847 193.67
L340.838 193.67
L340.838 187.967
L341.665 187.967
L341.665 182.264
L343.748 182.264
L343.748 176.561
L345.113 176.561
L345.113 170.858
L347.027 170.858
L347.027 165.155
L357.979 165.155
L357.979 159.452
L358.278 159.452
L358.278 153.749
L361.59 153.749
L361.59 148.046
L362.949 148.046
L362.949 142.343
L367.73 142.343
L367.73 136.641
L370.446 136.641
L370.446 130.938
L371.971 130.938
L371.971 125.235
L374.182 125.235
L374.182 119.532
L374.966 119.532
L374.966 113.829
L376.17 113.829
L376.17 108.126
L378.783 108.126
L378.783 102.423
L392.066 102.423
L392.066 96.7197
L450.26 96.7197
L450.26 91.0167
L474.446 91.0167
L474.446 85.3138
L481.576 85.3138
L481.576 79.6108
L492.206 79.6108
L492.206 73.9078
L508.008 73.9078
L508.008 68.2049
L515.967 68.2049
L515.967 62.5019
L519.522 62.5019" style="fill:none;stroke:#f5deb3;stroke-linecap:square;"/>
   </g>
   <g id="line2d_23">
    <path clip-path="url(#p4b24e7e61f)" d="
M368.45 359.056
L368.45 353.353
L388.125 353.353
L388.125 347.65
L404.868 347.65
L404.868 341.947
L411.692 341.947
L411.692 336.244
L412.02 336.244
L412.02 330.541
L412.252 330.541
L412.252 324.839
L412.411 324.839
L412.411 319.136
L412.567 319.136
L412.567 313.433
L413.435 313.433
L413.435 307.73
L413.996 307.73
L413.996 302.027
L414.312 302.027
L414.312 296.324
L414.626 296.324
L414.626 290.621
L415.503 290.621
L415.503 284.918
L416.359 284.918
L416.359 279.215
L416.502 279.215
L416.502 273.512
L417.209 273.512
L417.209 267.809
L418.115 267.809
L418.115 262.106
L422.458 262.106
L422.458 256.403
L493.042 256.403
L493.042 250.7
L503.791 250.7
L503.791 244.997
L505.92 244.997
L505.92 239.294
L506.909 239.294
L506.909 233.591
L509.369 233.591
L509.369 227.888
L519.522 227.888" style="fill:none;stroke:#f5deb3;stroke-linecap:square;"/>
   </g>
   <g id="line2d_24">
    <path clip-path="url(#p4b24e7e61f)" d="
M278.856 359.056
L278.856 353.353
L281.501 353.353
L281.501 347.65
L282.403 347.65
L282.403 341.947
L290.704 341.947
L290.704 336.244
L290.796 336.244
L290.796 330.541
L293.684 330.541
L293.684 324.839
L297.15 324.839
L297.15 319.136
L301.7 319.136
L301.7 313.433
L314.112 313.433
L314.112 307.73
L318.606 307.73
L318.606 302.027
L321.633 302.027
L321.633 296.324
L329.032 296.324
L329.032 290.621
L338.56 290.621
L338.56 284.918
L345.49 284.918
L345.49 279.215
L345.683 279.215
L345.683 273.512
L346.195 273.512
L346.195 267.809
L346.221 267.809
L346.221 262.106
L350.422 262.106
L350.422 256.403
L351.425 256.403
L351.425 250.7
L351.56 250.7
L351.56 244.997
L353.569 244.997
L353.569 239.294
L355.642 239.294
L355.642 233.591
L355.693 233.591
L355.693 227.888
L356.371 227.888
L356.371 222.185
L356.512 222.185
L356.512 216.482
L356.99 216.482
L356.99 210.779
L357.639 210.779
L357.639 205.076
L358.441 205.076
L358.441 199.373
L358.823 199.373
L358.823 193.67
L360.781 193.67
L360.781 187.967
L360.926 187.967
L360.926 182.264
L360.989 182.264
L360.989 176.561
L361.295 176.561
L361.295 170.858
L361.909 170.858
L361.909 165.155
L362.27 165.155
L362.27 159.452
L362.992 159.452
L362.992 153.749
L363.138 153.749
L363.138 148.046
L363.155 148.046
L363.155 142.343
L363.786 142.343
L363.786 136.641
L366.444 136.641
L366.444 130.938
L368.245 130.938
L368.245 125.235
L368.541 125.235
L368.541 119.532
L369.612 119.532
L369.612 113.829
L370.345 113.829
L370.345 108.126
L371.379 108.126
L371.379 102.423
L372.25 102.423
L372.25 96.7197
L372.327 96.7197
L372.327 91.0167
L376.005 91.0167
L376.005 85.3138
L376.913 85.3138
L376.913 79.6108
L377.992 79.6108
L377.992 73.9078
L378.753 73.9078
L378.753 68.2049
L379.629 68.2049
L379.629 62.5019
L379.88 62.5019
L379.88 56.7989
L380.02 56.7989
L380.02 51.0959
L380.177 51.0959
L380.177 45.393
L380.188 45.393
L380.188 39.69
L408.267 39.69
L408.267 33.987
L409.399 33.987
L409.399 28.2841
L409.698 28.2841
L409.698 22.5811
L432.832 22.5811
L432.832 16.8781
L432.832 16.8781
L432.832 16.8781
L511.322 16.8781" style="fill:none;stroke:#f5deb3;stroke-linecap:square;"/>
   </g>
   <g id="line2d_25">
    <path clip-path="url(#p4b24e7e61f)" d="
M440.661 359.056
L440.661 353.353
L441.58 353.353
L441.58 347.65
L442.938 347.65
L442.938 341.947
L444.28 341.947
L444.28 336.244
L444.745 336.244
L444.745 330.541
L445.032 330.541
L445.032 324.839
L445.089 324.839
L445.089 319.136
L445.536 319.136
L445.536 313.433
L445.868 313.433
L445.868 307.73
L446.162 307.73
L446.162 302.027
L446.351 302.027
L446.351 296.324
L446.435 296.324
L446.435 290.621
L446.578 290.621
L446.578 284.918
L446.754 284.918
L446.754 279.215
L449.169 279.215
L449.169 273.512
L490.595 273.512
L490.595 267.809
L491.121 267.809
L491.121 262.106
L491.51 262.106
L491.51 256.403
L491.732 256.403
L491.732 250.7
L492.061 250.7
L492.061 244.997
L492.544 244.997
L492.544 239.294
L492.567 239.294
L492.567 233.591
L492.597 233.591
L492.597 227.888
L492.79 227.888
L492.79 222.185
L493.005 222.185
L493.005 216.482
L493.271 216.482
L493.271 210.779
L493.816 210.779
L493.816 205.076
L493.977 205.076
L493.977 199.373
L494.198 199.373
L494.198 193.67
L494.341 193.67
L494.341 187.967
L519.522 187.967" style="fill:none;stroke:#f5deb3;stroke-linecap:square;"/>
   </g>
   <g id="line2d_26">
    <path clip-path="url(#p4b24e7e61f)" d="
M348.776 359.056
L348.776 353.353
L350.938 353.353
L350.938 347.65
L353.04 347.65
L353.04 341.947
L358.69 341.947
L358.69 336.244
L359.126 336.244
L359.126 330.541
L359.21 330.541
L359.21 324.839
L359.454 324.839
L359.454 319.136
L359.501 319.136
L359.501 313.433
L359.883 313.433
L359.883 307.73
L360.316 307.73
L360.316 302.027
L360.835 302.027
L360.835 296.324
L360.863 296.324
L360.863 290.621
L361.124 290.621
L361.124 284.918
L361.483 284.918
L361.483 279.215
L361.59 279.215
L361.59 273.512
L361.643 273.512
L361.643 267.809
L361.786 267.809
L361.786 262.106
L362.559 262.106
L362.559 256.403
L366.959 256.403
L366.959 250.7
L366.998 250.7
L366.998 244.997
L367.053 244.997
L367.053 239.294
L367.272 239.294
L367.272 233.591
L367.467 233.591
L367.467 227.888
L367.761 227.888
L367.761 222.185
L367.846 222.185
L367.846 216.482
L367.946 216.482
L367.946 210.779
L368.076 210.779
L368.076 205.076
L368.084 205.076
L368.084 199.373
L368.206 199.373
L368.206 193.67
L368.229 193.67
L368.229 187.967
L368.579 187.967
L368.579 182.264
L368.624 182.264
L368.624 176.561
L368.715 176.561
L368.715 170.858
L368.745 170.858
L368.745 165.155
L368.843 165.155
L368.843 159.452
L369.054 159.452
L369.054 153.749
L369.965 153.749
L369.965 148.046
L370.075 148.046
L370.075 142.343
L370.141 142.343
L370.141 136.641
L370.192 136.641
L370.192 130.938
L370.206 130.938
L370.206 125.235
L370.541 125.235
L370.541 119.532
L374.855 119.532
L374.855 113.829
L375.246 113.829
L375.246 108.126
L381.973 108.126
L381.973 102.423
L382.068 102.423
L382.068 96.7197
L387.85 96.7197
L387.85 91.0167
L395.037 91.0167
L395.037 85.3138
L395.209 85.3138
L395.209 79.6108
L395.249 79.6108
L395.249 73.9078
L398.111 73.9078
L398.111 68.2049
L400.246 68.2049
L400.246 62.5019
L419.215 62.5019
L419.215 56.7989
L450.324 56.7989
L450.324 51.0959
L456.873 51.0959
L456.873 45.393
L459.169 45.393
L459.169 39.69
L459.651 39.69
L459.651 33.987
L474.973 33.987
L474.973 28.2841
L488.069 28.2841
L488.069 22.5811
L488.069 22.5811
L488.069 22.5811
L511.322 22.5811" style="fill:none;stroke:#f5deb3;stroke-linecap:square;"/>
   </g>
   <g id="line2d_27"/>
   <g id="line2d_28">
    <path clip-path="url(#p4b24e7e61f)" d="
M265.875 359.056
L265.875 353.353
L267.482 353.353
L267.482 347.65
L272.538 347.65
L272.538 341.947
L280.111 341.947
L280.111 336.244
L302.757 336.244
L302.757 330.541
L320.239 330.541
L320.239 324.839
L325.295 324.839
L325.295 319.136
L326.517 319.136
L326.517 313.433
L326.717 313.433
L326.717 307.73
L329.051 307.73
L329.051 302.027
L329.838 302.027
L329.838 296.324
L330.594 296.324
L330.594 290.621
L332.137 290.621
L332.137 284.918
L332.697 284.918
L332.697 279.215
L333.147 279.215
L333.147 273.512
L333.285 273.512
L333.285 267.809
L333.915 267.809
L333.915 262.106
L335.066 262.106
L335.066 256.403
L337.701 256.403
L337.701 250.7
L337.902 250.7
L337.902 244.997
L338.102 244.997
L338.102 239.294
L338.833 239.294
L338.833 233.591
L339.447 233.591
L339.447 227.888
L339.521 227.888
L339.521 222.185
L339.61 222.185
L339.61 216.482
L341.651 216.482
L341.651 210.779
L341.877 210.779
L341.877 205.076
L342.338 205.076
L342.338 199.373
L342.352 199.373
L342.352 193.67
L342.767 193.67
L342.767 187.967
L343.6 187.967
L343.6 182.264
L344.694 182.264
L344.694 176.561
L344.996 176.561
L344.996 170.858
L345.645 170.858
L345.645 165.155
L346.055 165.155
L346.055 159.452
L346.764 159.452
L346.764 153.749
L348.294 153.749
L348.294 148.046
L348.463 148.046
L348.463 142.343
L349.935 142.343
L349.935 136.641
L350.755 136.641
L350.755 130.938
L351.244 130.938
L351.244 125.235
L351.403 125.235
L351.403 119.532
L351.918 119.532
L351.918 113.829
L359.248 113.829
L359.248 108.126
L373.955 108.126
L373.955 102.423
L374.618 102.423
L374.618 96.7197
L375.2 96.7197
L375.2 91.0167
L375.337 91.0167
L375.337 85.3138
L376.196 85.3138
L376.196 79.6108
L376.945 79.6108
L376.945 73.9078
L377.305 73.9078
L377.305 68.2049
L377.428 68.2049
L377.428 62.5019
L378.083 62.5019
L378.083 56.7989
L378.908 56.7989
L378.908 51.0959
L394.388 51.0959
L394.388 45.393
L396.895 45.393
L396.895 39.69
L397.947 39.69
L397.947 33.987
L398.514 33.987
L398.514 28.2841
L405.384 28.2841
L405.384 22.5811
L424.118 22.5811
L424.118 16.8781
L424.118 16.8781
L424.118 16.8781
L511.322 16.8781" style="fill:none;stroke:#f5deb3;stroke-linecap:square;"/>
   </g>
   <g id="line2d_29">
    <path clip-path="url(#p4b24e7e61f)" d="
M229.347 359.056
L229.347 353.353
L229.347 353.353
L229.347 347.65
L229.347 347.65
L229.347 341.947
L245.81 341.947
L245.81 336.244
L245.81 336.244
L245.81 330.541
L245.81 330.541
L245.81 324.839
L247.346 324.839
L247.346 319.136
L247.346 319.136
L247.346 313.433
L247.346 313.433
L247.346 307.73
L247.722 307.73
L247.722 302.027
L247.722 302.027
L247.722 296.324
L247.722 296.324
L247.722 290.621
L250.147 290.621
L250.147 284.918
L250.147 284.918
L250.147 279.215
L250.147 279.215
L250.147 273.512
L254.087 273.512
L254.087 267.809
L254.087 267.809
L254.087 262.106
L254.087 262.106
L254.087 256.403
L254.408 256.403
L254.408 250.7
L254.408 250.7
L254.408 244.997
L254.408 244.997
L254.408 239.294
L256.084 239.294
L256.084 233.591
L256.084 233.591
L256.084 227.888
L256.084 227.888
L256.084 222.185
L267.245 222.185
L267.245 216.482
L267.245 216.482
L267.245 210.779
L267.245 210.779
L267.245 205.076
L289.632 205.076
L289.632 199.373
L289.632 199.373
L289.632 193.67
L289.632 193.67
L289.632 187.967
L327.977 187.967
L327.977 182.264
L327.977 182.264
L327.977 176.561
L327.977 176.561
L327.977 170.858
L430.314 170.858
L430.314 165.155
L430.314 165.155
L430.314 165.155
L511.322 165.155" style="fill:none;stroke:#f5deb3;stroke-linecap:square;"/>
   </g>
   <g id="line2d_30">
    <path clip-path="url(#p4b24e7e61f)" d="
M363.761 359.056
L363.761 353.353
L390.074 353.353
L390.074 347.65
L402.235 347.65
L402.235 341.947
L408.962 341.947
L408.962 336.244
L423.395 336.244
L423.395 330.541
L429.674 330.541
L429.674 324.839
L429.674 324.839
L429.674 324.839
L511.322 324.839" style="fill:none;stroke:#f5deb3;stroke-linecap:square;"/>
   </g>
   <g id="line2d_31">
    <path clip-path="url(#p4b24e7e61f)" d="
M122.519 359.056
L122.519 353.353
L163.393 353.353
L163.393 347.65
L163.393 347.65
L163.393 341.947
L180.591 341.947
L180.591 336.244
L183.999 336.244
L183.999 330.541
L187.157 330.541
L187.157 324.839
L192.855 324.839
L192.855 319.136
L192.855 319.136
L192.855 313.433
L192.855 313.433
L192.855 307.73
L197.887 307.73
L197.887 302.027
L197.887 302.027
L197.887 296.324
L197.887 296.324
L197.887 290.621
L200.199 290.621
L200.199 284.918
L202.393 284.918
L202.393 279.215
L202.393 279.215
L202.393 273.512
L206.473 273.512
L206.473 267.809
L206.473 267.809
L206.473 262.106
L206.473 262.106
L206.473 256.403
L206.473 256.403
L206.473 250.7
L208.377 250.7
L208.377 244.997
L208.377 244.997
L208.377 239.294
L210.2 239.294
L210.2 233.591
L211.949 233.591
L211.949 227.888
L211.949 227.888
L211.949 222.185
L211.949 222.185
L211.949 216.482
L215.248 216.482
L215.248 210.779
L215.248 210.779
L215.248 205.076
L216.808 205.076
L216.808 199.373
L216.808 199.373
L216.808 193.67
L219.768 193.67
L219.768 187.967
L222.537 187.967
L222.537 182.264
L222.537 182.264
L222.537 176.561
L233.181 176.561
L233.181 170.858
L234.216 170.858
L234.216 165.155
L234.216 165.155
L234.216 159.452
L238.126 159.452
L238.126 153.749
L245.81 153.749
L245.81 148.046
L245.81 148.046
L245.81 142.343
L246.585 142.343
L246.585 136.641
L252.997 136.641
L252.997 130.938
L262.998 130.938
L262.998 125.235
L266.525 125.235
L266.525 119.532
L268.879 119.532
L268.879 113.829
L269.335 113.829
L269.335 108.126
L285.732 108.126
L285.732 102.423
L285.732 102.423
L285.732 102.423
L511.322 102.423" style="fill:none;stroke:#000000;stroke-linecap:square;"/>
   </g>
   <g id="line2d_32"/>
   <g id="line2d_33">
    <path clip-path="url(#p4b24e7e61f)" d="
M223.858 359.056
L223.858 353.353
L233.181 353.353
L233.181 347.65
L236.215 347.65
L236.215 341.947
L237.181 341.947
L237.181 336.244
L237.181 336.244
L237.181 330.541
L239.051 330.541
L239.051 324.839
L239.956 324.839
L239.956 319.136
L241.711 319.136
L241.711 313.433
L243.398 313.433
L243.398 307.73
L245.81 307.73
L245.81 302.027
L246.585 302.027
L246.585 296.324
L246.585 296.324
L246.585 290.621
L248.095 290.621
L248.095 284.918
L254.302 284.918
L254.302 279.215
L254.939 279.215
L254.939 273.512
L255.567 273.512
L255.567 267.809
L255.567 267.809
L255.567 262.106
L257.993 262.106
L257.993 256.403
L258.579 256.403
L258.579 250.7
L259.727 250.7
L259.727 244.997
L260.845 244.997
L260.845 239.294
L266.525 239.294
L266.525 233.591
L267.953 233.591
L267.953 227.888
L269.335 227.888
L269.335 222.185
L275.256 222.185
L275.256 216.482
L276.04 216.482
L276.04 210.779
L276.04 210.779
L276.04 205.076
L276.04 205.076
L276.04 199.373
L278.308 199.373
L278.308 193.67
L280.111 193.67
L280.111 187.967
L281.841 187.967
L281.841 182.264
L282.179 182.264
L282.179 176.561
L282.179 176.561
L282.179 170.858
L283.505 170.858
L283.505 165.155
L287.254 165.155
L287.254 159.452
L289.584 159.452
L289.584 153.749
L290.979 153.749
L290.979 148.046
L292.064 148.046
L292.064 142.343
L292.859 142.343
L292.859 136.641
L298.053 136.641
L298.053 130.938
L301.197 130.938
L301.197 125.235
L302.896 125.235
L302.896 119.532
L303.721 119.532
L303.721 113.829
L310.861 113.829
L310.861 108.126
L321.135 108.126
L321.135 102.423
L321.135 102.423
L321.135 102.423
L511.322 102.423" style="fill:none;stroke:#00bfbf;stroke-linecap:square;"/>
   </g>
   <g id="line2d_34"/>
   <g id="line2d_35">
    <path clip-path="url(#p4b24e7e61f)" d="
M235.227 359.056
L235.227 353.353
L241.711 353.353
L241.711 347.65
L242.563 347.65
L242.563 341.947
L244.217 341.947
L244.217 336.244
L244.217 336.244
L244.217 330.541
L248.095 330.541
L248.095 324.839
L248.095 324.839
L248.095 319.136
L248.83 319.136
L248.83 313.433
L249.553 313.433
L249.553 307.73
L251.652 307.73
L251.652 302.027
L252.997 302.027
L252.997 296.324
L253.654 296.324
L253.654 290.621
L254.302 290.621
L254.302 284.918
L259.727 284.918
L259.727 279.215
L260.289 279.215
L260.289 273.512
L260.845 273.512
L260.845 267.809
L260.845 267.809
L260.845 262.106
L262.998 262.106
L262.998 256.403
L263.52 256.403
L263.52 250.7
L265.049 250.7
L265.049 244.997
L265.547 244.997
L265.547 239.294
L270.674 239.294
L270.674 233.591
L271.544 233.591
L271.544 227.888
L278.674 227.888
L278.674 222.185
L281.501 222.185
L281.501 216.482
L284.791 216.482
L284.791 210.779
L284.791 210.779
L284.791 205.076
L285.107 205.076
L285.107 199.373
L289.3 199.373
L289.3 193.67
L289.584 193.67
L289.584 187.967
L302.688 187.967
L302.688 182.264
L303.104 182.264
L303.104 176.561
L303.721 176.561
L303.721 170.858
L305.128 170.858
L305.128 165.155
L307.626 165.155
L307.626 159.452
L317.433 159.452
L317.433 153.749
L319.607 153.749
L319.607 148.046
L321.135 148.046
L321.135 142.343
L321.271 142.343
L321.271 136.641
L321.678 136.641
L321.678 130.938
L321.812 130.938
L321.812 125.235
L322.213 125.235
L322.213 119.532
L326.275 119.532
L326.275 113.829
L330.429 113.829
L330.429 108.126
L334.117 108.126
L334.117 102.423
L334.117 102.423
L334.117 102.423
L511.322 102.423" style="fill:none;stroke:#bf00bf;stroke-linecap:square;"/>
   </g>
   <g id="line2d_36"/>
   <g id="line2d_37">
    <path clip-path="url(#p4b24e7e61f)" d="
M239.051 359.056
L239.051 353.353
L244.217 353.353
L244.217 347.65
L245.81 347.65
L245.81 341.947
L246.585 341.947
L246.585 336.244
L246.585 336.244
L246.585 330.541
L249.553 330.541
L249.553 324.839
L250.964 324.839
L250.964 319.136
L250.964 319.136
L250.964 313.433
L251.652 313.433
L251.652 307.73
L253.654 307.73
L253.654 302.027
L254.302 302.027
L254.302 296.324
L255.567 296.324
L255.567 290.621
L255.567 290.621
L255.567 284.918
L261.393 284.918
L261.393 279.215
L261.935 279.215
L261.935 273.512
L261.935 273.512
L261.935 267.809
L262.47 267.809
L262.47 262.106
L264.545 262.106
L264.545 256.403
L265.049 256.403
L265.049 250.7
L266.039 250.7
L266.039 244.997
L267.482 244.997
L267.482 239.294
L271.544 239.294
L271.544 233.591
L272.817 233.591
L272.817 227.888
L280.111 227.888
L280.111 222.185
L282.847 222.185
L282.847 216.482
L285.732 216.482
L285.732 210.779
L285.732 210.779
L285.732 205.076
L286.04 205.076
L286.04 199.373
L290.427 199.373
L290.427 193.67
L322.611 193.67
L322.611 187.967
L334.016 187.967
L334.016 182.264
L374.815 182.264
L374.815 176.561
L402.54 176.561
L402.54 170.858
L436.393 170.858
L436.393 165.155
L440.357 165.155
L440.357 159.452
L475.212 159.452
L475.212 153.749
L476.348 153.749
L476.348 148.046
L478.485 148.046
L478.485 142.343
L479.064 142.343
L479.064 136.641
L482.743 136.641
L482.743 130.938
L484.754 130.938
L484.754 125.235
L489.942 125.235
L489.942 119.532
L507.497 119.532
L507.497 113.829
L507.681 113.829
L507.681 108.126
L511.322 108.126
L511.322 102.423
L511.322 102.423" style="fill:none;stroke:#ff0000;stroke-linecap:square;stroke-width:3.0;"/>
   </g>
   <g id="line2d_38"/>
   <g id="line2d_39">
    <path clip-path="url(#p4b24e7e61f)" d="
M511.322 359.056
L511.322 13.4563" style="fill:none;stroke:#000000;stroke-linecap:square;"/>
   </g>
   <g id="patch_3">
    <path d="
M64.9219 13.4563
L511.322 13.4563" style="fill:none;stroke:#000000;stroke-linecap:square;stroke-linejoin:miter;"/>
   </g>
   <g id="patch_4">
    <path d="
M511.322 359.056
L511.322 13.4563" style="fill:none;stroke:#000000;stroke-linecap:square;stroke-linejoin:miter;"/>
   </g>
   <g id="patch_5">
    <path d="
M64.9219 359.056
L511.322 359.056" style="fill:none;stroke:#000000;stroke-linecap:square;stroke-linejoin:miter;"/>
   </g>
   <g id="patch_6">
    <path d="
M64.9219 359.056
L64.9219 13.4563" style="fill:none;stroke:#000000;stroke-linecap:square;stroke-linejoin:miter;"/>
   </g>
   <g id="matplotlib.axis_1">
    <g id="xtick_1">
     <g id="line2d_40">
      <path clip-path="url(#p4b24e7e61f)" d="
M64.9219 359.056
L64.9219 13.4563" style="fill:none;stroke:#000000;stroke-dasharray:1.000000,3.000000;stroke-dashoffset:0.0;stroke-width:0.5;"/>
     </g>
     <g id="line2d_41">
      <defs>
       <path d="
M0 0
L0 -4" id="m93b0483c22" style="stroke:#000000;stroke-width:0.5;"/>
      </defs>
      <g>
       <use style="stroke:#000000;stroke-width:0.5;" x="64.921875" xlink:href="#m93b0483c22" y="359.056342822"/>
      </g>
     </g>
     <g id="line2d_42">
      <defs>
       <path d="
M0 0
L0 4" id="m741efc42ff" style="stroke:#000000;stroke-width:0.5;"/>
      </defs>
      <g>
       <use style="stroke:#000000;stroke-width:0.5;" x="64.921875" xlink:href="#m741efc42ff" y="13.4563428218"/>
      </g>
     </g>
     <g id="text_1">
      <!-- 0 -->
      <defs>
       <path d="
M31.7812 66.4062
Q24.1719 66.4062 20.3281 58.9062
Q16.5 51.4219 16.5 36.375
Q16.5 21.3906 20.3281 13.8906
Q24.1719 6.39062 31.7812 6.39062
Q39.4531 6.39062 43.2812 13.8906
Q47.125 21.3906 47.125 36.375
Q47.125 51.4219 43.2812 58.9062
Q39.4531 66.4062 31.7812 66.4062
M31.7812 74.2188
Q44.0469 74.2188 50.5156 64.5156
Q56.9844 54.8281 56.9844 36.375
Q56.9844 17.9688 50.5156 8.26562
Q44.0469 -1.42188 31.7812 -1.42188
Q19.5312 -1.42188 13.0625 8.26562
Q6.59375 17.9688 6.59375 36.375
Q6.59375 54.8281 13.0625 64.5156
Q19.5312 74.2188 31.7812 74.2188" id="BitstreamVeraSans-Roman-30"/>
      </defs>
      <g transform="translate(59.8828125 378.253217822)scale(0.2 -0.2)">
       <use xlink:href="#BitstreamVeraSans-Roman-30"/>
      </g>
     </g>
    </g>
    <g id="xtick_2">
     <g id="line2d_43">
      <path clip-path="url(#p4b24e7e61f)" d="
M164.264 359.056
L164.264 13.4563" style="fill:none;stroke:#000000;stroke-dasharray:1.000000,3.000000;stroke-dashoffset:0.0;stroke-width:0.5;"/>
     </g>
     <g id="line2d_44">
      <g>
       <use style="stroke:#000000;stroke-width:0.5;" x="164.264141198" xlink:href="#m93b0483c22" y="359.056342822"/>
      </g>
     </g>
     <g id="line2d_45">
      <g>
       <use style="stroke:#000000;stroke-width:0.5;" x="164.264141198" xlink:href="#m741efc42ff" y="13.4563428218"/>
      </g>
     </g>
     <g id="text_2">
      <!-- 1 -->
      <defs>
       <path d="
M12.4062 8.29688
L28.5156 8.29688
L28.5156 63.9219
L10.9844 60.4062
L10.9844 69.3906
L28.4219 72.9062
L38.2812 72.9062
L38.2812 8.29688
L54.3906 8.29688
L54.3906 0
L12.4062 0
z
" id="BitstreamVeraSans-Roman-31"/>
      </defs>
      <g transform="translate(159.923516198 378.253217822)scale(0.2 -0.2)">
       <use xlink:href="#BitstreamVeraSans-Roman-31"/>
      </g>
     </g>
    </g>
    <g id="xtick_3">
     <g id="line2d_46">
      <path clip-path="url(#p4b24e7e61f)" d="
M263.606 359.056
L263.606 13.4563" style="fill:none;stroke:#000000;stroke-dasharray:1.000000,3.000000;stroke-dashoffset:0.0;stroke-width:0.5;"/>
     </g>
     <g id="line2d_47">
      <g>
       <use style="stroke:#000000;stroke-width:0.5;" x="263.606407397" xlink:href="#m93b0483c22" y="359.056342822"/>
      </g>
     </g>
     <g id="line2d_48">
      <g>
       <use style="stroke:#000000;stroke-width:0.5;" x="263.606407397" xlink:href="#m741efc42ff" y="13.4563428218"/>
      </g>
     </g>
     <g id="text_3">
      <!-- 2 -->
      <defs>
       <path d="
M19.1875 8.29688
L53.6094 8.29688
L53.6094 0
L7.32812 0
L7.32812 8.29688
Q12.9375 14.1094 22.625 23.8906
Q32.3281 33.6875 34.8125 36.5312
Q39.5469 41.8438 41.4219 45.5312
Q43.3125 49.2188 43.3125 52.7812
Q43.3125 58.5938 39.2344 62.25
Q35.1562 65.9219 28.6094 65.9219
Q23.9688 65.9219 18.8125 64.3125
Q13.6719 62.7031 7.8125 59.4219
L7.8125 69.3906
Q13.7656 71.7812 18.9375 73
Q24.125 74.2188 28.4219 74.2188
Q39.75 74.2188 46.4844 68.5469
Q53.2188 62.8906 53.2188 53.4219
Q53.2188 48.9219 51.5312 44.8906
Q49.8594 40.875 45.4062 35.4062
Q44.1875 33.9844 37.6406 27.2188
Q31.1094 20.4531 19.1875 8.29688" id="BitstreamVeraSans-Roman-32"/>
      </defs>
      <g transform="translate(258.978282397 378.253217822)scale(0.2 -0.2)">
       <use xlink:href="#BitstreamVeraSans-Roman-32"/>
      </g>
     </g>
    </g>
    <g id="xtick_4">
     <g id="line2d_49">
      <path clip-path="url(#p4b24e7e61f)" d="
M362.949 359.056
L362.949 13.4563" style="fill:none;stroke:#000000;stroke-dasharray:1.000000,3.000000;stroke-dashoffset:0.0;stroke-width:0.5;"/>
     </g>
     <g id="line2d_50">
      <g>
       <use style="stroke:#000000;stroke-width:0.5;" x="362.948673595" xlink:href="#m93b0483c22" y="359.056342822"/>
      </g>
     </g>
     <g id="line2d_51">
      <g>
       <use style="stroke:#000000;stroke-width:0.5;" x="362.948673595" xlink:href="#m741efc42ff" y="13.4563428218"/>
      </g>
     </g>
     <g id="text_4">
      <!-- 3 -->
      <defs>
       <path d="
M40.5781 39.3125
Q47.6562 37.7969 51.625 33
Q55.6094 28.2188 55.6094 21.1875
Q55.6094 10.4062 48.1875 4.48438
Q40.7656 -1.42188 27.0938 -1.42188
Q22.5156 -1.42188 17.6562 -0.515625
Q12.7969 0.390625 7.625 2.20312
L7.625 11.7188
Q11.7188 9.32812 16.5938 8.10938
Q21.4844 6.89062 26.8125 6.89062
Q36.0781 6.89062 40.9375 10.5469
Q45.7969 14.2031 45.7969 21.1875
Q45.7969 27.6406 41.2812 31.2656
Q36.7656 34.9062 28.7188 34.9062
L20.2188 34.9062
L20.2188 43.0156
L29.1094 43.0156
Q36.375 43.0156 40.2344 45.9219
Q44.0938 48.8281 44.0938 54.2969
Q44.0938 59.9062 40.1094 62.9062
Q36.1406 65.9219 28.7188 65.9219
Q24.6562 65.9219 20.0156 65.0312
Q15.375 64.1562 9.8125 62.3125
L9.8125 71.0938
Q15.4375 72.6562 20.3438 73.4375
Q25.25 74.2188 29.5938 74.2188
Q40.8281 74.2188 47.3594 69.1094
Q53.9062 64.0156 53.9062 55.3281
Q53.9062 49.2656 50.4375 45.0938
Q46.9688 40.9219 40.5781 39.3125" id="BitstreamVeraSans-Roman-33"/>
      </defs>
      <g transform="translate(358.150236095 378.253217822)scale(0.2 -0.2)">
       <use xlink:href="#BitstreamVeraSans-Roman-33"/>
      </g>
     </g>
    </g>
    <g id="xtick_5">
     <g id="line2d_52">
      <path clip-path="url(#p4b24e7e61f)" d="
M462.291 359.056
L462.291 13.4563" style="fill:none;stroke:#000000;stroke-dasharray:1.000000,3.000000;stroke-dashoffset:0.0;stroke-width:0.5;"/>
     </g>
     <g id="line2d_53">
      <g>
       <use style="stroke:#000000;stroke-width:0.5;" x="462.290939794" xlink:href="#m93b0483c22" y="359.056342822"/>
      </g>
     </g>
     <g id="line2d_54">
      <g>
       <use style="stroke:#000000;stroke-width:0.5;" x="462.290939794" xlink:href="#m741efc42ff" y="13.4563428218"/>
      </g>
     </g>
     <g id="text_5">
      <!-- 4 -->
      <defs>
       <path d="
M37.7969 64.3125
L12.8906 25.3906
L37.7969 25.3906
z

M35.2031 72.9062
L47.6094 72.9062
L47.6094 25.3906
L58.0156 25.3906
L58.0156 17.1875
L47.6094 17.1875
L47.6094 0
L37.7969 0
L37.7969 17.1875
L4.89062 17.1875
L4.89062 26.7031
z
" id="BitstreamVeraSans-Roman-34"/>
      </defs>
      <g transform="translate(456.978439794 378.253217822)scale(0.2 -0.2)">
       <use xlink:href="#BitstreamVeraSans-Roman-34"/>
      </g>
     </g>
    </g>
    <g id="xtick_6">
     <g id="line2d_55">
      <defs>
       <path d="
M0 0
L0 -2" id="m177f7580d0" style="stroke:#000000;stroke-width:0.5;"/>
      </defs>
      <g>
       <use style="stroke:#000000;stroke-width:0.5;" x="94.826876963" xlink:href="#m177f7580d0" y="359.056342822"/>
      </g>
     </g>
     <g id="line2d_56">
      <defs>
       <path d="
M0 0
L0 2" id="m5284c7e2a0" style="stroke:#000000;stroke-width:0.5;"/>
      </defs>
      <g>
       <use style="stroke:#000000;stroke-width:0.5;" x="94.826876963" xlink:href="#m5284c7e2a0" y="13.4563428218"/>
      </g>
     </g>
    </g>
    <g id="xtick_7">
     <g id="line2d_57">
      <g>
       <use style="stroke:#000000;stroke-width:0.5;" x="112.320181695" xlink:href="#m177f7580d0" y="359.056342822"/>
      </g>
     </g>
     <g id="line2d_58">
      <g>
       <use style="stroke:#000000;stroke-width:0.5;" x="112.320181695" xlink:href="#m5284c7e2a0" y="13.4563428218"/>
      </g>
     </g>
    </g>
    <g id="xtick_8">
     <g id="line2d_59">
      <g>
       <use style="stroke:#000000;stroke-width:0.5;" x="124.731878926" xlink:href="#m177f7580d0" y="359.056342822"/>
      </g>
     </g>
     <g id="line2d_60">
      <g>
       <use style="stroke:#000000;stroke-width:0.5;" x="124.731878926" xlink:href="#m5284c7e2a0" y="13.4563428218"/>
      </g>
     </g>
    </g>
    <g id="xtick_9">
     <g id="line2d_61">
      <g>
       <use style="stroke:#000000;stroke-width:0.5;" x="134.359139236" xlink:href="#m177f7580d0" y="359.056342822"/>
      </g>
     </g>
     <g id="line2d_62">
      <g>
       <use style="stroke:#000000;stroke-width:0.5;" x="134.359139236" xlink:href="#m5284c7e2a0" y="13.4563428218"/>
      </g>
     </g>
    </g>
    <g id="xtick_10">
     <g id="line2d_63">
      <g>
       <use style="stroke:#000000;stroke-width:0.5;" x="142.225183658" xlink:href="#m177f7580d0" y="359.056342822"/>
      </g>
     </g>
     <g id="line2d_64">
      <g>
       <use style="stroke:#000000;stroke-width:0.5;" x="142.225183658" xlink:href="#m5284c7e2a0" y="13.4563428218"/>
      </g>
     </g>
    </g>
    <g id="xtick_11">
     <g id="line2d_65">
      <g>
       <use style="stroke:#000000;stroke-width:0.5;" x="148.875829455" xlink:href="#m177f7580d0" y="359.056342822"/>
      </g>
     </g>
     <g id="line2d_66">
      <g>
       <use style="stroke:#000000;stroke-width:0.5;" x="148.875829455" xlink:href="#m5284c7e2a0" y="13.4563428218"/>
      </g>
     </g>
    </g>
    <g id="xtick_12">
     <g id="line2d_67">
      <g>
       <use style="stroke:#000000;stroke-width:0.5;" x="154.636880889" xlink:href="#m177f7580d0" y="359.056342822"/>
      </g>
     </g>
     <g id="line2d_68">
      <g>
       <use style="stroke:#000000;stroke-width:0.5;" x="154.636880889" xlink:href="#m5284c7e2a0" y="13.4563428218"/>
      </g>
     </g>
    </g>
    <g id="xtick_13">
     <g id="line2d_69">
      <g>
       <use style="stroke:#000000;stroke-width:0.5;" x="159.718488391" xlink:href="#m177f7580d0" y="359.056342822"/>
      </g>
     </g>
     <g id="line2d_70">
      <g>
       <use style="stroke:#000000;stroke-width:0.5;" x="159.718488391" xlink:href="#m5284c7e2a0" y="13.4563428218"/>
      </g>
     </g>
    </g>
    <g id="xtick_14">
     <g id="line2d_71">
      <g>
       <use style="stroke:#000000;stroke-width:0.5;" x="194.169143161" xlink:href="#m177f7580d0" y="359.056342822"/>
      </g>
     </g>
     <g id="line2d_72">
      <g>
       <use style="stroke:#000000;stroke-width:0.5;" x="194.169143161" xlink:href="#m5284c7e2a0" y="13.4563428218"/>
      </g>
     </g>
    </g>
    <g id="xtick_15">
     <g id="line2d_73">
      <g>
       <use style="stroke:#000000;stroke-width:0.5;" x="211.662447894" xlink:href="#m177f7580d0" y="359.056342822"/>
      </g>
     </g>
     <g id="line2d_74">
      <g>
       <use style="stroke:#000000;stroke-width:0.5;" x="211.662447894" xlink:href="#m5284c7e2a0" y="13.4563428218"/>
      </g>
     </g>
    </g>
    <g id="xtick_16">
     <g id="line2d_75">
      <g>
       <use style="stroke:#000000;stroke-width:0.5;" x="224.074145124" xlink:href="#m177f7580d0" y="359.056342822"/>
      </g>
     </g>
     <g id="line2d_76">
      <g>
       <use style="stroke:#000000;stroke-width:0.5;" x="224.074145124" xlink:href="#m5284c7e2a0" y="13.4563428218"/>
      </g>
     </g>
    </g>
    <g id="xtick_17">
     <g id="line2d_77">
      <g>
       <use style="stroke:#000000;stroke-width:0.5;" x="233.701405434" xlink:href="#m177f7580d0" y="359.056342822"/>
      </g>
     </g>
     <g id="line2d_78">
      <g>
       <use style="stroke:#000000;stroke-width:0.5;" x="233.701405434" xlink:href="#m5284c7e2a0" y="13.4563428218"/>
      </g>
     </g>
    </g>
    <g id="xtick_18">
     <g id="line2d_79">
      <g>
       <use style="stroke:#000000;stroke-width:0.5;" x="241.567449857" xlink:href="#m177f7580d0" y="359.056342822"/>
      </g>
     </g>
     <g id="line2d_80">
      <g>
       <use style="stroke:#000000;stroke-width:0.5;" x="241.567449857" xlink:href="#m5284c7e2a0" y="13.4563428218"/>
      </g>
     </g>
    </g>
    <g id="xtick_19">
     <g id="line2d_81">
      <g>
       <use style="stroke:#000000;stroke-width:0.5;" x="248.218095653" xlink:href="#m177f7580d0" y="359.056342822"/>
      </g>
     </g>
     <g id="line2d_82">
      <g>
       <use style="stroke:#000000;stroke-width:0.5;" x="248.218095653" xlink:href="#m5284c7e2a0" y="13.4563428218"/>
      </g>
     </g>
    </g>
    <g id="xtick_20">
     <g id="line2d_83">
      <g>
       <use style="stroke:#000000;stroke-width:0.5;" x="253.979147087" xlink:href="#m177f7580d0" y="359.056342822"/>
      </g>
     </g>
     <g id="line2d_84">
      <g>
       <use style="stroke:#000000;stroke-width:0.5;" x="253.979147087" xlink:href="#m5284c7e2a0" y="13.4563428218"/>
      </g>
     </g>
    </g>
    <g id="xtick_21">
     <g id="line2d_85">
      <g>
       <use style="stroke:#000000;stroke-width:0.5;" x="259.060754589" xlink:href="#m177f7580d0" y="359.056342822"/>
      </g>
     </g>
     <g id="line2d_86">
      <g>
       <use style="stroke:#000000;stroke-width:0.5;" x="259.060754589" xlink:href="#m5284c7e2a0" y="13.4563428218"/>
      </g>
     </g>
    </g>
    <g id="xtick_22">
     <g id="line2d_87">
      <g>
       <use style="stroke:#000000;stroke-width:0.5;" x="293.51140936" xlink:href="#m177f7580d0" y="359.056342822"/>
      </g>
     </g>
     <g id="line2d_88">
      <g>
       <use style="stroke:#000000;stroke-width:0.5;" x="293.51140936" xlink:href="#m5284c7e2a0" y="13.4563428218"/>
      </g>
     </g>
    </g>
    <g id="xtick_23">
     <g id="line2d_89">
      <g>
       <use style="stroke:#000000;stroke-width:0.5;" x="311.004714092" xlink:href="#m177f7580d0" y="359.056342822"/>
      </g>
     </g>
     <g id="line2d_90">
      <g>
       <use style="stroke:#000000;stroke-width:0.5;" x="311.004714092" xlink:href="#m5284c7e2a0" y="13.4563428218"/>
      </g>
     </g>
    </g>
    <g id="xtick_24">
     <g id="line2d_91">
      <g>
       <use style="stroke:#000000;stroke-width:0.5;" x="323.416411323" xlink:href="#m177f7580d0" y="359.056342822"/>
      </g>
     </g>
     <g id="line2d_92">
      <g>
       <use style="stroke:#000000;stroke-width:0.5;" x="323.416411323" xlink:href="#m5284c7e2a0" y="13.4563428218"/>
      </g>
     </g>
    </g>
    <g id="xtick_25">
     <g id="line2d_93">
      <g>
       <use style="stroke:#000000;stroke-width:0.5;" x="333.043671632" xlink:href="#m177f7580d0" y="359.056342822"/>
      </g>
     </g>
     <g id="line2d_94">
      <g>
       <use style="stroke:#000000;stroke-width:0.5;" x="333.043671632" xlink:href="#m5284c7e2a0" y="13.4563428218"/>
      </g>
     </g>
    </g>
    <g id="xtick_26">
     <g id="line2d_95">
      <g>
       <use style="stroke:#000000;stroke-width:0.5;" x="340.909716055" xlink:href="#m177f7580d0" y="359.056342822"/>
      </g>
     </g>
     <g id="line2d_96">
      <g>
       <use style="stroke:#000000;stroke-width:0.5;" x="340.909716055" xlink:href="#m5284c7e2a0" y="13.4563428218"/>
      </g>
     </g>
    </g>
    <g id="xtick_27">
     <g id="line2d_97">
      <g>
       <use style="stroke:#000000;stroke-width:0.5;" x="347.560361852" xlink:href="#m177f7580d0" y="359.056342822"/>
      </g>
     </g>
     <g id="line2d_98">
      <g>
       <use style="stroke:#000000;stroke-width:0.5;" x="347.560361852" xlink:href="#m5284c7e2a0" y="13.4563428218"/>
      </g>
     </g>
    </g>
    <g id="xtick_28">
     <g id="line2d_99">
      <g>
       <use style="stroke:#000000;stroke-width:0.5;" x="353.321413286" xlink:href="#m177f7580d0" y="359.056342822"/>
      </g>
     </g>
     <g id="line2d_100">
      <g>
       <use style="stroke:#000000;stroke-width:0.5;" x="353.321413286" xlink:href="#m5284c7e2a0" y="13.4563428218"/>
      </g>
     </g>
    </g>
    <g id="xtick_29">
     <g id="line2d_101">
      <g>
       <use style="stroke:#000000;stroke-width:0.5;" x="358.403020788" xlink:href="#m177f7580d0" y="359.056342822"/>
      </g>
     </g>
     <g id="line2d_102">
      <g>
       <use style="stroke:#000000;stroke-width:0.5;" x="358.403020788" xlink:href="#m5284c7e2a0" y="13.4563428218"/>
      </g>
     </g>
    </g>
    <g id="xtick_30">
     <g id="line2d_103">
      <g>
       <use style="stroke:#000000;stroke-width:0.5;" x="392.853675558" xlink:href="#m177f7580d0" y="359.056342822"/>
      </g>
     </g>
     <g id="line2d_104">
      <g>
       <use style="stroke:#000000;stroke-width:0.5;" x="392.853675558" xlink:href="#m5284c7e2a0" y="13.4563428218"/>
      </g>
     </g>
    </g>
    <g id="xtick_31">
     <g id="line2d_105">
      <g>
       <use style="stroke:#000000;stroke-width:0.5;" x="410.346980291" xlink:href="#m177f7580d0" y="359.056342822"/>
      </g>
     </g>
     <g id="line2d_106">
      <g>
       <use style="stroke:#000000;stroke-width:0.5;" x="410.346980291" xlink:href="#m5284c7e2a0" y="13.4563428218"/>
      </g>
     </g>
    </g>
    <g id="xtick_32">
     <g id="line2d_107">
      <g>
       <use style="stroke:#000000;stroke-width:0.5;" x="422.758677521" xlink:href="#m177f7580d0" y="359.056342822"/>
      </g>
     </g>
     <g id="line2d_108">
      <g>
       <use style="stroke:#000000;stroke-width:0.5;" x="422.758677521" xlink:href="#m5284c7e2a0" y="13.4563428218"/>
      </g>
     </g>
    </g>
    <g id="xtick_33">
     <g id="line2d_109">
      <g>
       <use style="stroke:#000000;stroke-width:0.5;" x="432.385937831" xlink:href="#m177f7580d0" y="359.056342822"/>
      </g>
     </g>
     <g id="line2d_110">
      <g>
       <use style="stroke:#000000;stroke-width:0.5;" x="432.385937831" xlink:href="#m5284c7e2a0" y="13.4563428218"/>
      </g>
     </g>
    </g>
    <g id="xtick_34">
     <g id="line2d_111">
      <g>
       <use style="stroke:#000000;stroke-width:0.5;" x="440.251982254" xlink:href="#m177f7580d0" y="359.056342822"/>
      </g>
     </g>
     <g id="line2d_112">
      <g>
       <use style="stroke:#000000;stroke-width:0.5;" x="440.251982254" xlink:href="#m5284c7e2a0" y="13.4563428218"/>
      </g>
     </g>
    </g>
    <g id="xtick_35">
     <g id="line2d_113">
      <g>
       <use style="stroke:#000000;stroke-width:0.5;" x="446.90262805" xlink:href="#m177f7580d0" y="359.056342822"/>
      </g>
     </g>
     <g id="line2d_114">
      <g>
       <use style="stroke:#000000;stroke-width:0.5;" x="446.90262805" xlink:href="#m5284c7e2a0" y="13.4563428218"/>
      </g>
     </g>
    </g>
    <g id="xtick_36">
     <g id="line2d_115">
      <g>
       <use style="stroke:#000000;stroke-width:0.5;" x="452.663679484" xlink:href="#m177f7580d0" y="359.056342822"/>
      </g>
     </g>
     <g id="line2d_116">
      <g>
       <use style="stroke:#000000;stroke-width:0.5;" x="452.663679484" xlink:href="#m5284c7e2a0" y="13.4563428218"/>
      </g>
     </g>
    </g>
    <g id="xtick_37">
     <g id="line2d_117">
      <g>
       <use style="stroke:#000000;stroke-width:0.5;" x="457.745286986" xlink:href="#m177f7580d0" y="359.056342822"/>
      </g>
     </g>
     <g id="line2d_118">
      <g>
       <use style="stroke:#000000;stroke-width:0.5;" x="457.745286986" xlink:href="#m5284c7e2a0" y="13.4563428218"/>
      </g>
     </g>
    </g>
    <g id="xtick_38">
     <g id="line2d_119">
      <g>
       <use style="stroke:#000000;stroke-width:0.5;" x="492.195941757" xlink:href="#m177f7580d0" y="359.056342822"/>
      </g>
     </g>
     <g id="line2d_120">
      <g>
       <use style="stroke:#000000;stroke-width:0.5;" x="492.195941757" xlink:href="#m5284c7e2a0" y="13.4563428218"/>
      </g>
     </g>
    </g>
    <g id="xtick_39">
     <g id="line2d_121">
      <g>
       <use style="stroke:#000000;stroke-width:0.5;" x="509.689246489" xlink:href="#m177f7580d0" y="359.056342822"/>
      </g>
     </g>
     <g id="line2d_122">
      <g>
       <use style="stroke:#000000;stroke-width:0.5;" x="509.689246489" xlink:href="#m5284c7e2a0" y="13.4563428218"/>
      </g>
     </g>
    </g>
    <g id="text_6">
     <!-- log10 of FEvals / DIM -->
     <defs>
      <path id="BitstreamVeraSans-Roman-20"/>
      <path d="
M9.8125 72.9062
L24.5156 72.9062
L43.1094 23.2969
L61.8125 72.9062
L76.5156 72.9062
L76.5156 0
L66.8906 0
L66.8906 64.0156
L48.0938 14.0156
L38.1875 14.0156
L19.3906 64.0156
L19.3906 0
L9.8125 0
z
" id="BitstreamVeraSans-Roman-4d"/>
      <path d="
M30.6094 48.3906
Q23.3906 48.3906 19.1875 42.75
Q14.9844 37.1094 14.9844 27.2969
Q14.9844 17.4844 19.1562 11.8438
Q23.3438 6.20312 30.6094 6.20312
Q37.7969 6.20312 41.9844 11.8594
Q46.1875 17.5312 46.1875 27.2969
Q46.1875 37.0156 41.9844 42.7031
Q37.7969 48.3906 30.6094 48.3906
M30.6094 56
Q42.3281 56 49.0156 48.375
Q55.7188 40.7656 55.7188 27.2969
Q55.7188 13.875 49.0156 6.21875
Q42.3281 -1.42188 30.6094 -1.42188
Q18.8438 -1.42188 12.1719 6.21875
Q5.51562 13.875 5.51562 27.2969
Q5.51562 40.7656 12.1719 48.375
Q18.8438 56 30.6094 56" id="BitstreamVeraSans-Roman-6f"/>
      <path d="
M9.42188 75.9844
L18.4062 75.9844
L18.4062 0
L9.42188 0
z
" id="BitstreamVeraSans-Roman-6c"/>
      <path d="
M9.8125 72.9062
L51.7031 72.9062
L51.7031 64.5938
L19.6719 64.5938
L19.6719 43.1094
L48.5781 43.1094
L48.5781 34.8125
L19.6719 34.8125
L19.6719 0
L9.8125 0
z
" id="BitstreamVeraSans-Roman-46"/>
      <path d="
M9.8125 72.9062
L55.9062 72.9062
L55.9062 64.5938
L19.6719 64.5938
L19.6719 43.0156
L54.3906 43.0156
L54.3906 34.7188
L19.6719 34.7188
L19.6719 8.29688
L56.7812 8.29688
L56.7812 0
L9.8125 0
z
" id="BitstreamVeraSans-Roman-45"/>
      <path d="
M19.6719 64.7969
L19.6719 8.10938
L31.5938 8.10938
Q46.6875 8.10938 53.6875 14.9375
Q60.6875 21.7812 60.6875 36.5312
Q60.6875 51.1719 53.6875 57.9844
Q46.6875 64.7969 31.5938 64.7969
z

M9.8125 72.9062
L30.0781 72.9062
Q51.2656 72.9062 61.1719 64.0938
Q71.0938 55.2812 71.0938 36.5312
Q71.0938 17.6719 61.125 8.82812
Q51.1719 0 30.0781 0
L9.8125 0
z
" id="BitstreamVeraSans-Roman-44"/>
      <path d="
M25.3906 72.9062
L33.6875 72.9062
L8.29688 -9.28125
L0 -9.28125
z
" id="BitstreamVeraSans-Roman-2f"/>
      <path d="
M2.98438 54.6875
L12.5 54.6875
L29.5938 8.79688
L46.6875 54.6875
L56.2031 54.6875
L35.6875 0
L23.4844 0
z
" id="BitstreamVeraSans-Roman-76"/>
      <path d="
M45.4062 27.9844
Q45.4062 37.75 41.375 43.1094
Q37.3594 48.4844 30.0781 48.4844
Q22.8594 48.4844 18.8281 43.1094
Q14.7969 37.75 14.7969 27.9844
Q14.7969 18.2656 18.8281 12.8906
Q22.8594 7.51562 30.0781 7.51562
Q37.3594 7.51562 41.375 12.8906
Q45.4062 18.2656 45.4062 27.9844
M54.3906 6.78125
Q54.3906 -7.17188 48.1875 -13.9844
Q42 -20.7969 29.2031 -20.7969
Q24.4688 -20.7969 20.2656 -20.0938
Q16.0625 -19.3906 12.1094 -17.9219
L12.1094 -9.1875
Q16.0625 -11.3281 19.9219 -12.3438
Q23.7812 -13.375 27.7812 -13.375
Q36.625 -13.375 41.0156 -8.76562
Q45.4062 -4.15625 45.4062 5.17188
L45.4062 9.625
Q42.625 4.78125 38.2812 2.39062
Q33.9375 0 27.875 0
Q17.8281 0 11.6719 7.65625
Q5.51562 15.3281 5.51562 27.9844
Q5.51562 40.6719 11.6719 48.3281
Q17.8281 56 27.875 56
Q33.9375 56 38.2812 53.6094
Q42.625 51.2188 45.4062 46.3906
L45.4062 54.6875
L54.3906 54.6875
z
" id="BitstreamVeraSans-Roman-67"/>
      <path d="
M37.1094 75.9844
L37.1094 68.5
L28.5156 68.5
Q23.6875 68.5 21.7969 66.5469
Q19.9219 64.5938 19.9219 59.5156
L19.9219 54.6875
L34.7188 54.6875
L34.7188 47.7031
L19.9219 47.7031
L19.9219 0
L10.8906 0
L10.8906 47.7031
L2.29688 47.7031
L2.29688 54.6875
L10.8906 54.6875
L10.8906 58.5
Q10.8906 67.625 15.1406 71.7969
Q19.3906 75.9844 28.6094 75.9844
z
" id="BitstreamVeraSans-Roman-66"/>
      <path d="
M34.2812 27.4844
Q23.3906 27.4844 19.1875 25
Q14.9844 22.5156 14.9844 16.5
Q14.9844 11.7188 18.1406 8.90625
Q21.2969 6.10938 26.7031 6.10938
Q34.1875 6.10938 38.7031 11.4062
Q43.2188 16.7031 43.2188 25.4844
L43.2188 27.4844
z

M52.2031 31.2031
L52.2031 0
L43.2188 0
L43.2188 8.29688
Q40.1406 3.32812 35.5469 0.953125
Q30.9531 -1.42188 24.3125 -1.42188
Q15.9219 -1.42188 10.9531 3.29688
Q6 8.01562 6 15.9219
Q6 25.1406 12.1719 29.8281
Q18.3594 34.5156 30.6094 34.5156
L43.2188 34.5156
L43.2188 35.4062
Q43.2188 41.6094 39.1406 45
Q35.0625 48.3906 27.6875 48.3906
Q23 48.3906 18.5469 47.2656
Q14.1094 46.1406 10.0156 43.8906
L10.0156 52.2031
Q14.9375 54.1094 19.5781 55.0469
Q24.2188 56 28.6094 56
Q40.4844 56 46.3438 49.8438
Q52.2031 43.7031 52.2031 31.2031" id="BitstreamVeraSans-Roman-61"/>
      <path d="
M44.2812 53.0781
L44.2812 44.5781
Q40.4844 46.5312 36.375 47.5
Q32.2812 48.4844 27.875 48.4844
Q21.1875 48.4844 17.8438 46.4375
Q14.5 44.3906 14.5 40.2812
Q14.5 37.1562 16.8906 35.375
Q19.2812 33.5938 26.5156 31.9844
L29.5938 31.2969
Q39.1562 29.25 43.1875 25.5156
Q47.2188 21.7812 47.2188 15.0938
Q47.2188 7.46875 41.1875 3.01562
Q35.1562 -1.42188 24.6094 -1.42188
Q20.2188 -1.42188 15.4531 -0.5625
Q10.6875 0.296875 5.42188 2
L5.42188 11.2812
Q10.4062 8.6875 15.2344 7.39062
Q20.0625 6.10938 24.8125 6.10938
Q31.1562 6.10938 34.5625 8.28125
Q37.9844 10.4531 37.9844 14.4062
Q37.9844 18.0625 35.5156 20.0156
Q33.0625 21.9688 24.7031 23.7812
L21.5781 24.5156
Q13.2344 26.2656 9.51562 29.9062
Q5.8125 33.5469 5.8125 39.8906
Q5.8125 47.6094 11.2812 51.7969
Q16.75 56 26.8125 56
Q31.7812 56 36.1719 55.2656
Q40.5781 54.5469 44.2812 53.0781" id="BitstreamVeraSans-Roman-73"/>
      <path d="
M9.8125 72.9062
L19.6719 72.9062
L19.6719 0
L9.8125 0
z
" id="BitstreamVeraSans-Roman-49"/>
     </defs>
     <g transform="translate(184.025 402.609467822)scale(0.2 -0.2)">
      <use xlink:href="#BitstreamVeraSans-Roman-6c"/>
      <use x="27.783203125" xlink:href="#BitstreamVeraSans-Roman-6f"/>
      <use x="88.96484375" xlink:href="#BitstreamVeraSans-Roman-67"/>
      <use x="152.44140625" xlink:href="#BitstreamVeraSans-Roman-31"/>
      <use x="216.064453125" xlink:href="#BitstreamVeraSans-Roman-30"/>
      <use x="279.6875" xlink:href="#BitstreamVeraSans-Roman-20"/>
      <use x="311.474609375" xlink:href="#BitstreamVeraSans-Roman-6f"/>
      <use x="372.65625" xlink:href="#BitstreamVeraSans-Roman-66"/>
      <use x="407.861328125" xlink:href="#BitstreamVeraSans-Roman-20"/>
      <use x="439.6484375" xlink:href="#BitstreamVeraSans-Roman-46"/>
      <use x="497.16796875" xlink:href="#BitstreamVeraSans-Roman-45"/>
      <use x="560.3515625" xlink:href="#BitstreamVeraSans-Roman-76"/>
      <use x="619.53125" xlink:href="#BitstreamVeraSans-Roman-61"/>
      <use x="680.810546875" xlink:href="#BitstreamVeraSans-Roman-6c"/>
      <use x="708.59375" xlink:href="#BitstreamVeraSans-Roman-73"/>
      <use x="760.693359375" xlink:href="#BitstreamVeraSans-Roman-20"/>
      <use x="792.48046875" xlink:href="#BitstreamVeraSans-Roman-2f"/>
      <use x="826.171875" xlink:href="#BitstreamVeraSans-Roman-20"/>
      <use x="857.958984375" xlink:href="#BitstreamVeraSans-Roman-44"/>
      <use x="934.9609375" xlink:href="#BitstreamVeraSans-Roman-49"/>
      <use x="964.453125" xlink:href="#BitstreamVeraSans-Roman-4d"/>
     </g>
    </g>
   </g>
   <g id="matplotlib.axis_2">
    <g id="ytick_1">
     <g id="line2d_123">
      <path clip-path="url(#p4b24e7e61f)" d="
M64.9219 359.056
L511.322 359.056" style="fill:none;stroke:#000000;stroke-dasharray:1.000000,3.000000;stroke-dashoffset:0.0;stroke-width:0.5;"/>
     </g>
     <g id="line2d_124">
      <defs>
       <path d="
M0 0
L4 0" id="m728421d6d4" style="stroke:#000000;stroke-width:0.5;"/>
      </defs>
      <g>
       <use style="stroke:#000000;stroke-width:0.5;" x="64.921875" xlink:href="#m728421d6d4" y="359.056342822"/>
      </g>
     </g>
     <g id="line2d_125">
      <defs>
       <path d="
M0 0
L-4 0" id="mcb0005524f" style="stroke:#000000;stroke-width:0.5;"/>
      </defs>
      <g>
       <use style="stroke:#000000;stroke-width:0.5;" x="511.321875" xlink:href="#mcb0005524f" y="359.056342822"/>
      </g>
     </g>
     <g id="text_7">
      <!-- 0.0 -->
      <defs>
       <path d="
M10.6875 12.4062
L21 12.4062
L21 0
L10.6875 0
z
" id="BitstreamVeraSans-Roman-2e"/>
      </defs>
      <g transform="translate(31.7625 364.575092822)scale(0.2 -0.2)">
       <use xlink:href="#BitstreamVeraSans-Roman-30"/>
       <use x="63.623046875" xlink:href="#BitstreamVeraSans-Roman-2e"/>
       <use x="95.41015625" xlink:href="#BitstreamVeraSans-Roman-30"/>
      </g>
     </g>
    </g>
    <g id="ytick_2">
     <g id="line2d_126">
      <path clip-path="url(#p4b24e7e61f)" d="
M64.9219 290.621
L511.322 290.621" style="fill:none;stroke:#000000;stroke-dasharray:1.000000,3.000000;stroke-dashoffset:0.0;stroke-width:0.5;"/>
     </g>
     <g id="line2d_127">
      <g>
       <use style="stroke:#000000;stroke-width:0.5;" x="64.921875" xlink:href="#m728421d6d4" y="290.620699257"/>
      </g>
     </g>
     <g id="line2d_128">
      <g>
       <use style="stroke:#000000;stroke-width:0.5;" x="511.321875" xlink:href="#mcb0005524f" y="290.620699257"/>
      </g>
     </g>
     <g id="text_8">
      <!-- 0.2 -->
      <g transform="translate(32.4375 296.139449257)scale(0.2 -0.2)">
       <use xlink:href="#BitstreamVeraSans-Roman-30"/>
       <use x="63.623046875" xlink:href="#BitstreamVeraSans-Roman-2e"/>
       <use x="95.41015625" xlink:href="#BitstreamVeraSans-Roman-32"/>
      </g>
     </g>
    </g>
    <g id="ytick_3">
     <g id="line2d_129">
      <path clip-path="url(#p4b24e7e61f)" d="
M64.9219 222.185
L511.322 222.185" style="fill:none;stroke:#000000;stroke-dasharray:1.000000,3.000000;stroke-dashoffset:0.0;stroke-width:0.5;"/>
     </g>
     <g id="line2d_130">
      <g>
       <use style="stroke:#000000;stroke-width:0.5;" x="64.921875" xlink:href="#m728421d6d4" y="222.185055693"/>
      </g>
     </g>
     <g id="line2d_131">
      <g>
       <use style="stroke:#000000;stroke-width:0.5;" x="511.321875" xlink:href="#mcb0005524f" y="222.185055693"/>
      </g>
     </g>
     <g id="text_9">
      <!-- 0.4 -->
      <g transform="translate(31.55625 227.703805693)scale(0.2 -0.2)">
       <use xlink:href="#BitstreamVeraSans-Roman-30"/>
       <use x="63.623046875" xlink:href="#BitstreamVeraSans-Roman-2e"/>
       <use x="95.41015625" xlink:href="#BitstreamVeraSans-Roman-34"/>
      </g>
     </g>
    </g>
    <g id="ytick_4">
     <g id="line2d_132">
      <path clip-path="url(#p4b24e7e61f)" d="
M64.9219 153.749
L511.322 153.749" style="fill:none;stroke:#000000;stroke-dasharray:1.000000,3.000000;stroke-dashoffset:0.0;stroke-width:0.5;"/>
     </g>
     <g id="line2d_133">
      <g>
       <use style="stroke:#000000;stroke-width:0.5;" x="64.921875" xlink:href="#m728421d6d4" y="153.749412129"/>
      </g>
     </g>
     <g id="line2d_134">
      <g>
       <use style="stroke:#000000;stroke-width:0.5;" x="511.321875" xlink:href="#mcb0005524f" y="153.749412129"/>
      </g>
     </g>
     <g id="text_10">
      <!-- 0.6 -->
      <defs>
       <path d="
M33.0156 40.375
Q26.375 40.375 22.4844 35.8281
Q18.6094 31.2969 18.6094 23.3906
Q18.6094 15.5312 22.4844 10.9531
Q26.375 6.39062 33.0156 6.39062
Q39.6562 6.39062 43.5312 10.9531
Q47.4062 15.5312 47.4062 23.3906
Q47.4062 31.2969 43.5312 35.8281
Q39.6562 40.375 33.0156 40.375
M52.5938 71.2969
L52.5938 62.3125
Q48.875 64.0625 45.0938 64.9844
Q41.3125 65.9219 37.5938 65.9219
Q27.8281 65.9219 22.6719 59.3281
Q17.5312 52.7344 16.7969 39.4062
Q19.6719 43.6562 24.0156 45.9219
Q28.375 48.1875 33.5938 48.1875
Q44.5781 48.1875 50.9531 41.5156
Q57.3281 34.8594 57.3281 23.3906
Q57.3281 12.1562 50.6875 5.35938
Q44.0469 -1.42188 33.0156 -1.42188
Q20.3594 -1.42188 13.6719 8.26562
Q6.98438 17.9688 6.98438 36.375
Q6.98438 53.6562 15.1875 63.9375
Q23.3906 74.2188 37.2031 74.2188
Q40.9219 74.2188 44.7031 73.4844
Q48.4844 72.75 52.5938 71.2969" id="BitstreamVeraSans-Roman-36"/>
      </defs>
      <g transform="translate(31.69375 159.268162129)scale(0.2 -0.2)">
       <use xlink:href="#BitstreamVeraSans-Roman-30"/>
       <use x="63.623046875" xlink:href="#BitstreamVeraSans-Roman-2e"/>
       <use x="95.41015625" xlink:href="#BitstreamVeraSans-Roman-36"/>
      </g>
     </g>
    </g>
    <g id="ytick_5">
     <g id="line2d_135">
      <path clip-path="url(#p4b24e7e61f)" d="
M64.9219 85.3138
L511.322 85.3138" style="fill:none;stroke:#000000;stroke-dasharray:1.000000,3.000000;stroke-dashoffset:0.0;stroke-width:0.5;"/>
     </g>
     <g id="line2d_136">
      <g>
       <use style="stroke:#000000;stroke-width:0.5;" x="64.921875" xlink:href="#m728421d6d4" y="85.3137685644"/>
      </g>
     </g>
     <g id="line2d_137">
      <g>
       <use style="stroke:#000000;stroke-width:0.5;" x="511.321875" xlink:href="#mcb0005524f" y="85.3137685644"/>
      </g>
     </g>
     <g id="text_11">
      <!-- 0.8 -->
      <defs>
       <path d="
M31.7812 34.625
Q24.75 34.625 20.7188 30.8594
Q16.7031 27.0938 16.7031 20.5156
Q16.7031 13.9219 20.7188 10.1562
Q24.75 6.39062 31.7812 6.39062
Q38.8125 6.39062 42.8594 10.1719
Q46.9219 13.9688 46.9219 20.5156
Q46.9219 27.0938 42.8906 30.8594
Q38.875 34.625 31.7812 34.625
M21.9219 38.8125
Q15.5781 40.375 12.0312 44.7188
Q8.5 49.0781 8.5 55.3281
Q8.5 64.0625 14.7188 69.1406
Q20.9531 74.2188 31.7812 74.2188
Q42.6719 74.2188 48.875 69.1406
Q55.0781 64.0625 55.0781 55.3281
Q55.0781 49.0781 51.5312 44.7188
Q48 40.375 41.7031 38.8125
Q48.8281 37.1562 52.7969 32.3125
Q56.7812 27.4844 56.7812 20.5156
Q56.7812 9.90625 50.3125 4.23438
Q43.8438 -1.42188 31.7812 -1.42188
Q19.7344 -1.42188 13.25 4.23438
Q6.78125 9.90625 6.78125 20.5156
Q6.78125 27.4844 10.7812 32.3125
Q14.7969 37.1562 21.9219 38.8125
M18.3125 54.3906
Q18.3125 48.7344 21.8438 45.5625
Q25.3906 42.3906 31.7812 42.3906
Q38.1406 42.3906 41.7188 45.5625
Q45.3125 48.7344 45.3125 54.3906
Q45.3125 60.0625 41.7188 63.2344
Q38.1406 66.4062 31.7812 66.4062
Q25.3906 66.4062 21.8438 63.2344
Q18.3125 60.0625 18.3125 54.3906" id="BitstreamVeraSans-Roman-38"/>
      </defs>
      <g transform="translate(31.803125 90.8325185644)scale(0.2 -0.2)">
       <use xlink:href="#BitstreamVeraSans-Roman-30"/>
       <use x="63.623046875" xlink:href="#BitstreamVeraSans-Roman-2e"/>
       <use x="95.41015625" xlink:href="#BitstreamVeraSans-Roman-38"/>
      </g>
     </g>
    </g>
    <g id="ytick_6">
     <g id="line2d_138">
      <path clip-path="url(#p4b24e7e61f)" d="
M64.9219 16.8781
L511.322 16.8781" style="fill:none;stroke:#000000;stroke-dasharray:1.000000,3.000000;stroke-dashoffset:0.0;stroke-width:0.5;"/>
     </g>
     <g id="line2d_139">
      <g>
       <use style="stroke:#000000;stroke-width:0.5;" x="64.921875" xlink:href="#m728421d6d4" y="16.878125"/>
      </g>
     </g>
     <g id="line2d_140">
      <g>
       <use style="stroke:#000000;stroke-width:0.5;" x="511.321875" xlink:href="#mcb0005524f" y="16.878125"/>
      </g>
     </g>
     <g id="text_12">
      <!-- 1.0 -->
      <g transform="translate(32.640625 22.396875)scale(0.2 -0.2)">
       <use xlink:href="#BitstreamVeraSans-Roman-31"/>
       <use x="63.623046875" xlink:href="#BitstreamVeraSans-Roman-2e"/>
       <use x="95.41015625" xlink:href="#BitstreamVeraSans-Roman-30"/>
      </g>
     </g>
    </g>
    <g id="text_13">
     <!-- proportion of trials -->
     <defs>
      <path d="
M54.8906 33.0156
L54.8906 0
L45.9062 0
L45.9062 32.7188
Q45.9062 40.4844 42.875 44.3281
Q39.8438 48.1875 33.7969 48.1875
Q26.5156 48.1875 22.3125 43.5469
Q18.1094 38.9219 18.1094 30.9062
L18.1094 0
L9.07812 0
L9.07812 54.6875
L18.1094 54.6875
L18.1094 46.1875
Q21.3438 51.125 25.7031 53.5625
Q30.0781 56 35.7969 56
Q45.2188 56 50.0469 50.1719
Q54.8906 44.3438 54.8906 33.0156" id="BitstreamVeraSans-Roman-6e"/>
      <path d="
M9.42188 54.6875
L18.4062 54.6875
L18.4062 0
L9.42188 0
z

M9.42188 75.9844
L18.4062 75.9844
L18.4062 64.5938
L9.42188 64.5938
z
" id="BitstreamVeraSans-Roman-69"/>
      <path d="
M18.3125 70.2188
L18.3125 54.6875
L36.8125 54.6875
L36.8125 47.7031
L18.3125 47.7031
L18.3125 18.0156
Q18.3125 11.3281 20.1406 9.42188
Q21.9688 7.51562 27.5938 7.51562
L36.8125 7.51562
L36.8125 0
L27.5938 0
Q17.1875 0 13.2344 3.875
Q9.28125 7.76562 9.28125 18.0156
L9.28125 47.7031
L2.6875 47.7031
L2.6875 54.6875
L9.28125 54.6875
L9.28125 70.2188
z
" id="BitstreamVeraSans-Roman-74"/>
      <path d="
M41.1094 46.2969
Q39.5938 47.1719 37.8125 47.5781
Q36.0312 48 33.8906 48
Q26.2656 48 22.1875 43.0469
Q18.1094 38.0938 18.1094 28.8125
L18.1094 0
L9.07812 0
L9.07812 54.6875
L18.1094 54.6875
L18.1094 46.1875
Q20.9531 51.1719 25.4844 53.5781
Q30.0312 56 36.5312 56
Q37.4531 56 38.5781 55.875
Q39.7031 55.7656 41.0625 55.5156
z
" id="BitstreamVeraSans-Roman-72"/>
      <path d="
M18.1094 8.20312
L18.1094 -20.7969
L9.07812 -20.7969
L9.07812 54.6875
L18.1094 54.6875
L18.1094 46.3906
Q20.9531 51.2656 25.2656 53.625
Q29.5938 56 35.5938 56
Q45.5625 56 51.7812 48.0938
Q58.0156 40.1875 58.0156 27.2969
Q58.0156 14.4062 51.7812 6.48438
Q45.5625 -1.42188 35.5938 -1.42188
Q29.5938 -1.42188 25.2656 0.953125
Q20.9531 3.32812 18.1094 8.20312
M48.6875 27.2969
Q48.6875 37.2031 44.6094 42.8438
Q40.5312 48.4844 33.4062 48.4844
Q26.2656 48.4844 22.1875 42.8438
Q18.1094 37.2031 18.1094 27.2969
Q18.1094 17.3906 22.1875 11.75
Q26.2656 6.10938 33.4062 6.10938
Q40.5312 6.10938 44.6094 11.75
Q48.6875 17.3906 48.6875 27.2969" id="BitstreamVeraSans-Roman-70"/>
     </defs>
     <g transform="translate(22.396875 278.775092822)rotate(-90.0)scale(0.2 -0.2)">
      <use xlink:href="#BitstreamVeraSans-Roman-70"/>
      <use x="63.4765625" xlink:href="#BitstreamVeraSans-Roman-72"/>
      <use x="102.33984375" xlink:href="#BitstreamVeraSans-Roman-6f"/>
      <use x="163.521484375" xlink:href="#BitstreamVeraSans-Roman-70"/>
      <use x="226.998046875" xlink:href="#BitstreamVeraSans-Roman-6f"/>
      <use x="288.1796875" xlink:href="#BitstreamVeraSans-Roman-72"/>
      <use x="329.29296875" xlink:href="#BitstreamVeraSans-Roman-74"/>
      <use x="368.501953125" xlink:href="#BitstreamVeraSans-Roman-69"/>
      <use x="396.28515625" xlink:href="#BitstreamVeraSans-Roman-6f"/>
      <use x="457.466796875" xlink:href="#BitstreamVeraSans-Roman-6e"/>
      <use x="520.845703125" xlink:href="#BitstreamVeraSans-Roman-20"/>
      <use x="552.6328125" xlink:href="#BitstreamVeraSans-Roman-6f"/>
      <use x="613.814453125" xlink:href="#BitstreamVeraSans-Roman-66"/>
      <use x="649.01953125" xlink:href="#BitstreamVeraSans-Roman-20"/>
      <use x="680.806640625" xlink:href="#BitstreamVeraSans-Roman-74"/>
      <use x="720.015625" xlink:href="#BitstreamVeraSans-Roman-72"/>
      <use x="761.12890625" xlink:href="#BitstreamVeraSans-Roman-69"/>
      <use x="788.912109375" xlink:href="#BitstreamVeraSans-Roman-61"/>
      <use x="850.19140625" xlink:href="#BitstreamVeraSans-Roman-6c"/>
      <use x="877.974609375" xlink:href="#BitstreamVeraSans-Roman-73"/>
     </g>
    </g>
   </g>
   <g id="text_14">
    <!-- {f6-f9}, 5-D -->
    <defs>
     <path d="
M10.7969 72.9062
L49.5156 72.9062
L49.5156 64.5938
L19.8281 64.5938
L19.8281 46.7344
Q21.9688 47.4688 24.1094 47.8281
Q26.2656 48.1875 28.4219 48.1875
Q40.625 48.1875 47.75 41.5
Q54.8906 34.8125 54.8906 23.3906
Q54.8906 11.625 47.5625 5.09375
Q40.2344 -1.42188 26.9062 -1.42188
Q22.3125 -1.42188 17.5469 -0.640625
Q12.7969 0.140625 7.71875 1.70312
L7.71875 11.625
Q12.1094 9.23438 16.7969 8.0625
Q21.4844 6.89062 26.7031 6.89062
Q35.1562 6.89062 40.0781 11.3281
Q45.0156 15.7656 45.0156 23.3906
Q45.0156 31 40.0781 35.4375
Q35.1562 39.8906 26.7031 39.8906
Q22.75 39.8906 18.8125 39.0156
Q14.8906 38.1406 10.7969 36.2812
z
" id="BitstreamVeraSans-Roman-35"/>
     <path d="
M12.5 -9.28125
L15.9219 -9.28125
Q22.75 -9.28125 24.8281 -7.17188
Q26.9062 -5.07812 26.9062 1.90625
L26.9062 14.0156
Q26.9062 21.625 29.0938 25.0938
Q31.2969 28.5625 36.7188 29.8906
Q31.2969 31.1094 29.0938 34.5625
Q26.9062 38.0312 26.9062 45.7031
L26.9062 57.8125
Q26.9062 64.75 24.8281 66.875
Q22.75 69 15.9219 69
L12.5 69
L12.5 75.9844
L15.5781 75.9844
Q27.7344 75.9844 31.8125 72.3906
Q35.8906 68.7969 35.8906 58.0156
L35.8906 46.2969
Q35.8906 39.0156 38.5156 36.2031
Q41.1562 33.4062 48.0938 33.4062
L51.125 33.4062
L51.125 26.4219
L48.0938 26.4219
Q41.1562 26.4219 38.5156 23.5781
Q35.8906 20.75 35.8906 13.375
L35.8906 1.70312
Q35.8906 -9.07812 31.8125 -12.6875
Q27.7344 -16.3125 15.5781 -16.3125
L12.5 -16.3125
z
" id="BitstreamVeraSans-Roman-7d"/>
     <path d="
M10.9844 1.51562
L10.9844 10.5
Q14.7031 8.73438 18.5 7.8125
Q22.3125 6.89062 25.9844 6.89062
Q35.75 6.89062 40.8906 13.4531
Q46.0469 20.0156 46.7812 33.4062
Q43.9531 29.2031 39.5938 26.9531
Q35.25 24.7031 29.9844 24.7031
Q19.0469 24.7031 12.6719 31.3125
Q6.29688 37.9375 6.29688 49.4219
Q6.29688 60.6406 12.9375 67.4219
Q19.5781 74.2188 30.6094 74.2188
Q43.2656 74.2188 49.9219 64.5156
Q56.5938 54.8281 56.5938 36.375
Q56.5938 19.1406 48.4062 8.85938
Q40.2344 -1.42188 26.4219 -1.42188
Q22.7031 -1.42188 18.8906 -0.6875
Q15.0938 0.046875 10.9844 1.51562
M30.6094 32.4219
Q37.25 32.4219 41.125 36.9531
Q45.0156 41.5 45.0156 49.4219
Q45.0156 57.2812 41.125 61.8438
Q37.25 66.4062 30.6094 66.4062
Q23.9688 66.4062 20.0938 61.8438
Q16.2188 57.2812 16.2188 49.4219
Q16.2188 41.5 20.0938 36.9531
Q23.9688 32.4219 30.6094 32.4219" id="BitstreamVeraSans-Roman-39"/>
     <path d="
M51.125 -9.28125
L51.125 -16.3125
L48.0938 -16.3125
Q35.9375 -16.3125 31.8125 -12.6875
Q27.6875 -9.07812 27.6875 1.70312
L27.6875 13.375
Q27.6875 20.75 25.0469 23.5781
Q22.4062 26.4219 15.4844 26.4219
L12.5 26.4219
L12.5 33.4062
L15.4844 33.4062
Q22.4688 33.4062 25.0781 36.2031
Q27.6875 39.0156 27.6875 46.2969
L27.6875 58.0156
Q27.6875 68.7969 31.8125 72.3906
Q35.9375 75.9844 48.0938 75.9844
L51.125 75.9844
L51.125 69
L47.7969 69
Q40.9219 69 38.8125 66.8438
Q36.7188 64.7031 36.7188 57.8125
L36.7188 45.7031
Q36.7188 38.0312 34.5 34.5625
Q32.2812 31.1094 26.9062 29.8906
Q32.3281 28.5625 34.5156 25.0938
Q36.7188 21.625 36.7188 14.0156
L36.7188 1.90625
Q36.7188 -4.98438 38.8125 -7.125
Q40.9219 -9.28125 47.7969 -9.28125
z
" id="BitstreamVeraSans-Roman-7b"/>
     <path d="
M11.7188 12.4062
L22.0156 12.4062
L22.0156 4
L14.0156 -11.625
L7.71875 -11.625
L11.7188 4
z
" id="BitstreamVeraSans-Roman-2c"/>
     <path d="
M4.89062 31.3906
L31.2031 31.3906
L31.2031 23.3906
L4.89062 23.3906
z
" id="BitstreamVeraSans-Roman-2d"/>
    </defs>
    <g transform="translate(228.5875 35.5652178218)scale(0.2 -0.2)">
     <use xlink:href="#BitstreamVeraSans-Roman-7b"/>
     <use x="63.623046875" xlink:href="#BitstreamVeraSans-Roman-66"/>
     <use x="98.828125" xlink:href="#BitstreamVeraSans-Roman-36"/>
     <use x="162.451171875" xlink:href="#BitstreamVeraSans-Roman-2d"/>
     <use x="198.53515625" xlink:href="#BitstreamVeraSans-Roman-66"/>
     <use x="233.740234375" xlink:href="#BitstreamVeraSans-Roman-39"/>
     <use x="297.36328125" xlink:href="#BitstreamVeraSans-Roman-7d"/>
     <use x="360.986328125" xlink:href="#BitstreamVeraSans-Roman-2c"/>
     <use x="392.7734375" xlink:href="#BitstreamVeraSans-Roman-20"/>
     <use x="424.560546875" xlink:href="#BitstreamVeraSans-Roman-35"/>
     <use x="488.18359375" xlink:href="#BitstreamVeraSans-Roman-2d"/>
     <use x="524.267578125" xlink:href="#BitstreamVeraSans-Roman-44"/>
    </g>
   </g>
   <g id="text_15">
    <!-- absolute targets -->
    <defs>
     <path d="
M56.2031 29.5938
L56.2031 25.2031
L14.8906 25.2031
Q15.4844 15.9219 20.4844 11.0625
Q25.4844 6.20312 34.4219 6.20312
Q39.5938 6.20312 44.4531 7.46875
Q49.3125 8.73438 54.1094 11.2812
L54.1094 2.78125
Q49.2656 0.734375 44.1875 -0.34375
Q39.1094 -1.42188 33.8906 -1.42188
Q20.7969 -1.42188 13.1562 6.1875
Q5.51562 13.8125 5.51562 26.8125
Q5.51562 40.2344 12.7656 48.1094
Q20.0156 56 32.3281 56
Q43.3594 56 49.7812 48.8906
Q56.2031 41.7969 56.2031 29.5938
M47.2188 32.2344
Q47.125 39.5938 43.0938 43.9844
Q39.0625 48.3906 32.4219 48.3906
Q24.9062 48.3906 20.3906 44.1406
Q15.875 39.8906 15.1875 32.1719
z
" id="BitstreamVeraSans-Roman-65"/>
     <path d="
M8.5 21.5781
L8.5 54.6875
L17.4844 54.6875
L17.4844 21.9219
Q17.4844 14.1562 20.5 10.2656
Q23.5312 6.39062 29.5938 6.39062
Q36.8594 6.39062 41.0781 11.0312
Q45.3125 15.6719 45.3125 23.6875
L45.3125 54.6875
L54.2969 54.6875
L54.2969 0
L45.3125 0
L45.3125 8.40625
Q42.0469 3.42188 37.7188 1
Q33.4062 -1.42188 27.6875 -1.42188
Q18.2656 -1.42188 13.375 4.4375
Q8.5 10.2969 8.5 21.5781" id="BitstreamVeraSans-Roman-75"/>
     <path d="
M48.6875 27.2969
Q48.6875 37.2031 44.6094 42.8438
Q40.5312 48.4844 33.4062 48.4844
Q26.2656 48.4844 22.1875 42.8438
Q18.1094 37.2031 18.1094 27.2969
Q18.1094 17.3906 22.1875 11.75
Q26.2656 6.10938 33.4062 6.10938
Q40.5312 6.10938 44.6094 11.75
Q48.6875 17.3906 48.6875 27.2969
M18.1094 46.3906
Q20.9531 51.2656 25.2656 53.625
Q29.5938 56 35.5938 56
Q45.5625 56 51.7812 48.0938
Q58.0156 40.1875 58.0156 27.2969
Q58.0156 14.4062 51.7812 6.48438
Q45.5625 -1.42188 35.5938 -1.42188
Q29.5938 -1.42188 25.2656 0.953125
Q20.9531 3.32812 18.1094 8.20312
L18.1094 0
L9.07812 0
L9.07812 75.9844
L18.1094 75.9844
z
" id="BitstreamVeraSans-Roman-62"/>
    </defs>
    <g transform="translate(64.921875 359.056342822)scale(0.14 -0.14)">
     <use xlink:href="#BitstreamVeraSans-Roman-61"/>
     <use x="61.279296875" xlink:href="#BitstreamVeraSans-Roman-62"/>
     <use x="124.755859375" xlink:href="#BitstreamVeraSans-Roman-73"/>
     <use x="176.85546875" xlink:href="#BitstreamVeraSans-Roman-6f"/>
     <use x="238.037109375" xlink:href="#BitstreamVeraSans-Roman-6c"/>
     <use x="265.8203125" xlink:href="#BitstreamVeraSans-Roman-75"/>
     <use x="329.19921875" xlink:href="#BitstreamVeraSans-Roman-74"/>
     <use x="368.408203125" xlink:href="#BitstreamVeraSans-Roman-65"/>
     <use x="429.931640625" xlink:href="#BitstreamVeraSans-Roman-20"/>
     <use x="461.71875" xlink:href="#BitstreamVeraSans-Roman-74"/>
     <use x="500.927734375" xlink:href="#BitstreamVeraSans-Roman-61"/>
     <use x="562.20703125" xlink:href="#BitstreamVeraSans-Roman-72"/>
     <use x="601.5703125" xlink:href="#BitstreamVeraSans-Roman-67"/>
     <use x="665.046875" xlink:href="#BitstreamVeraSans-Roman-65"/>
     <use x="726.5703125" xlink:href="#BitstreamVeraSans-Roman-74"/>
     <use x="765.779296875" xlink:href="#BitstreamVeraSans-Roman-73"/>
    </g>
   </g>
   <g id="text_16">
    <!-- 1.2.1 -->
    <g style="fill:#808080;" transform="translate(276.4109375 353.520655322)scale(0.1 -0.1)">
     <use xlink:href="#BitstreamVeraSans-Roman-31"/>
     <use x="63.623046875" xlink:href="#BitstreamVeraSans-Roman-2e"/>
     <use x="95.41015625" xlink:href="#BitstreamVeraSans-Roman-32"/>
     <use x="159.033203125" xlink:href="#BitstreamVeraSans-Roman-2e"/>
     <use x="190.8203125" xlink:href="#BitstreamVeraSans-Roman-31"/>
    </g>
   </g>
   <g id="legend_1">
    <g id="patch_7">
     <path d="
M74.9219 146.881
L211.022 146.881
L211.022 23.4563
L74.9219 23.4563
z
" style="fill:#ffffff;opacity:0.2;stroke:#000000;stroke-linejoin:miter;"/>
    </g>
    <g id="line2d_141">
     <path d="
M88.9219 39.6532
L116.922 39.6532" style="fill:none;stroke:#000000;stroke-linecap:square;"/>
    </g>
    <g id="line2d_142"/>
    <g id="text_17">
     <!-- 1: 3/4 -->
     <defs>
      <path d="
M11.7188 12.4062
L22.0156 12.4062
L22.0156 0
L11.7188 0
z

M11.7188 51.7031
L22.0156 51.7031
L22.0156 39.3125
L11.7188 39.3125
z
" id="BitstreamVeraSans-Roman-3a"/>
     </defs>
     <g transform="translate(138.921875 46.6532178218)scale(0.2 -0.2)">
      <use xlink:href="#BitstreamVeraSans-Roman-31"/>
      <use x="63.623046875" xlink:href="#BitstreamVeraSans-Roman-3a"/>
      <use x="97.314453125" xlink:href="#BitstreamVeraSans-Roman-20"/>
      <use x="129.1015625" xlink:href="#BitstreamVeraSans-Roman-33"/>
      <use x="192.724609375" xlink:href="#BitstreamVeraSans-Roman-2f"/>
      <use x="226.416015625" xlink:href="#BitstreamVeraSans-Roman-34"/>
     </g>
    </g>
    <g id="line2d_143">
     <path d="
M88.9219 69.0095
L116.922 69.0095" style="fill:none;stroke:#00bfbf;stroke-linecap:square;"/>
    </g>
    <g id="line2d_144"/>
    <g id="text_18">
     <!-- -1: 3/4 -->
     <g transform="translate(138.921875 76.0094678218)scale(0.2 -0.2)">
      <use xlink:href="#BitstreamVeraSans-Roman-2d"/>
      <use x="36.083984375" xlink:href="#BitstreamVeraSans-Roman-31"/>
      <use x="99.70703125" xlink:href="#BitstreamVeraSans-Roman-3a"/>
      <use x="133.3984375" xlink:href="#BitstreamVeraSans-Roman-20"/>
      <use x="165.185546875" xlink:href="#BitstreamVeraSans-Roman-33"/>
      <use x="228.80859375" xlink:href="#BitstreamVeraSans-Roman-2f"/>
      <use x="262.5" xlink:href="#BitstreamVeraSans-Roman-34"/>
     </g>
    </g>
    <g id="line2d_145">
     <path d="
M88.9219 98.3657
L116.922 98.3657" style="fill:none;stroke:#bf00bf;stroke-linecap:square;"/>
    </g>
    <g id="line2d_146"/>
    <g id="text_19">
     <!-- -4: 3/4 -->
     <g transform="translate(138.921875 105.365717822)scale(0.2 -0.2)">
      <use xlink:href="#BitstreamVeraSans-Roman-2d"/>
      <use x="36.083984375" xlink:href="#BitstreamVeraSans-Roman-34"/>
      <use x="99.70703125" xlink:href="#BitstreamVeraSans-Roman-3a"/>
      <use x="133.3984375" xlink:href="#BitstreamVeraSans-Roman-20"/>
      <use x="165.185546875" xlink:href="#BitstreamVeraSans-Roman-33"/>
      <use x="228.80859375" xlink:href="#BitstreamVeraSans-Roman-2f"/>
      <use x="262.5" xlink:href="#BitstreamVeraSans-Roman-34"/>
     </g>
    </g>
    <g id="line2d_147">
     <path d="
M88.9219 127.722
L116.922 127.722" style="fill:none;stroke:#ff0000;stroke-linecap:square;stroke-width:3.0;"/>
    </g>
    <g id="line2d_148"/>
    <g id="text_20">
     <!-- -8: 3/4 -->
     <g transform="translate(138.921875 134.721967822)scale(0.2 -0.2)">
      <use xlink:href="#BitstreamVeraSans-Roman-2d"/>
      <use x="36.083984375" xlink:href="#BitstreamVeraSans-Roman-38"/>
      <use x="99.70703125" xlink:href="#BitstreamVeraSans-Roman-3a"/>
      <use x="133.3984375" xlink:href="#BitstreamVeraSans-Roman-20"/>
      <use x="165.185546875" xlink:href="#BitstreamVeraSans-Roman-33"/>
      <use x="228.80859375" xlink:href="#BitstreamVeraSans-Roman-2f"/>
      <use x="262.5" xlink:href="#BitstreamVeraSans-Roman-34"/>
     </g>
    </g>
   </g>
  </g>
 </g>
 <defs>
  <clipPath id="p4b24e7e61f">
   <rect height="345.6" width="446.4" x="64.921875" y="13.4563428218"/>
  </clipPath>
 </defs>
</svg>
