<?xml version="1.0" encoding="utf-8" standalone="no"?>
<!DOCTYPE svg PUBLIC "-//W3C//DTD SVG 1.1//EN"
  "http://www.w3.org/Graphics/SVG/1.1/DTD/svg11.dtd">
<!-- Created with matplotlib (http://matplotlib.org/) -->
<svg height="413pt" version="1.1" viewBox="0 0 527 413" width="527pt" xmlns="http://www.w3.org/2000/svg" xmlns:xlink="http://www.w3.org/1999/xlink">
 <defs>
  <style type="text/css">
*{stroke-linecap:butt;stroke-linejoin:round;stroke-miterlimit:100000;}
  </style>
 </defs>
 <g id="figure_1">
  <g id="patch_1">
   <path d="M 0 413.968843 
L 527.324031 413.968843 
L 527.324031 0 
L 0 0 
z
" style="fill:#ffffff;"/>
  </g>
  <g id="axes_1">
   <g id="patch_2">
    <path d="M 67.3625 359.056343 
L 513.7625 359.056343 
L 513.7625 13.456343 
L 67.3625 13.456343 
z
" style="fill:#ffffff;"/>
   </g>
   <g id="line2d_1">
    <path clip-path="url(#pb7d8434b4a)" d="M 314.182595 359.056343 
L 314.182595 354.493967 
L 317.850892 354.493967 
L 317.850892 349.93159 
L 319.15795 349.93159 
L 319.15795 345.369214 
L 319.639151 345.369214 
L 319.639151 340.806838 
L 320.06291 340.806838 
L 320.06291 336.244462 
L 320.899473 336.244462 
L 320.899473 331.682085 
L 320.951282 331.682085 
L 320.951282 327.119709 
L 321.260977 327.119709 
L 321.260977 322.557333 
L 323.325864 322.557333 
L 323.325864 317.994957 
L 324.591143 317.994957 
L 324.591143 313.43258 
L 325.116667 313.43258 
L 325.116667 308.870204 
L 325.448149 308.870204 
L 325.448149 304.307828 
L 341.729027 304.307828 
L 341.729027 299.745452 
L 348.22199 299.745452 
L 348.22199 295.183075 
L 348.574693 295.183075 
L 348.574693 290.620699 
L 353.868283 290.620699 
L 353.868283 286.058323 
L 354.26052 286.058323 
L 354.26052 281.495947 
L 360.803974 281.495947 
L 360.803974 276.933571 
L 372.690299 276.933571 
L 372.690299 272.371194 
L 373.256759 272.371194 
L 373.256759 267.808818 
L 377.063043 267.808818 
L 377.063043 263.246442 
L 388.873352 263.246442 
L 388.873352 258.684066 
L 398.613198 258.684066 
L 398.613198 254.121689 
L 423.139369 254.121689 
L 423.139369 249.559313 
L 427.167558 249.559313 
L 427.167558 244.996937 
L 433.301208 244.996937 
L 433.301208 240.434561 
L 458.128766 240.434561 
L 458.128766 235.872184 
L 469.845782 235.872184 
L 469.845782 231.309808 
L 475.801897 231.309808 
L 475.801897 226.747432 
L 475.801897 226.747432 
L 475.801897 226.747432 
L 513.7625 226.747432 
" style="fill:none;stroke:#f5deb3;stroke-linecap:square;"/>
   </g>
   <g id="line2d_2"/>
   <g id="line2d_3">
    <path clip-path="url(#pb7d8434b4a)" d="M 195.270111 359.056343 
L 195.270111 354.493967 
L 196.635473 354.493967 
L 196.635473 349.93159 
L 209.039837 349.93159 
L 209.039837 345.369214 
L 289.384618 345.369214 
L 289.384618 340.806838 
L 309.693997 340.806838 
L 309.693997 336.244462 
L 353.340313 336.244462 
L 353.340313 331.682085 
L 365.216086 331.682085 
L 365.216086 327.119709 
L 371.24449 327.119709 
L 371.24449 322.557333 
L 383.994396 322.557333 
L 383.994396 317.994957 
L 386.240114 317.994957 
L 386.240114 313.43258 
L 392.342041 313.43258 
L 392.342041 308.870204 
L 399.818373 308.870204 
L 399.818373 304.307828 
L 405.730029 304.307828 
L 405.730029 299.745452 
L 408.427236 299.745452 
L 408.427236 295.183075 
L 413.837748 295.183075 
L 413.837748 290.620699 
L 438.599062 290.620699 
L 438.599062 286.058323 
L 441.301268 286.058323 
L 441.301268 281.495947 
L 442.883246 281.495947 
L 442.883246 276.933571 
L 443.312291 276.933571 
L 443.312291 272.371194 
L 444.085741 272.371194 
L 444.085741 267.808818 
L 444.378718 267.808818 
L 444.378718 263.246442 
L 446.112078 263.246442 
L 446.112078 258.684066 
L 446.241079 258.684066 
L 446.241079 254.121689 
L 448.109703 254.121689 
L 448.109703 249.559313 
L 448.282184 249.559313 
L 448.282184 244.996937 
L 451.254602 244.996937 
L 451.254602 240.434561 
L 451.866768 240.434561 
L 451.866768 235.872184 
L 452.416339 235.872184 
L 452.416339 231.309808 
L 452.464431 231.309808 
L 452.464431 226.747432 
L 453.624686 226.747432 
L 453.624686 222.185056 
L 453.892129 222.185056 
L 453.892129 217.622679 
L 455.46006 217.622679 
L 455.46006 213.060303 
L 464.67925 213.060303 
L 464.67925 208.497927 
L 466.707067 208.497927 
L 466.707067 203.935551 
L 472.031406 203.935551 
L 472.031406 199.373175 
L 476.718104 199.373175 
L 476.718104 194.810798 
L 489.095264 194.810798 
L 489.095264 190.248422 
L 499.507211 190.248422 
L 499.507211 185.686046 
L 504.805352 185.686046 
L 504.805352 181.12367 
L 508.429378 181.12367 
L 508.429378 176.561293 
L 508.429378 176.561293 
L 508.429378 176.561293 
L 513.7625 176.561293 
" style="fill:none;stroke:#f5deb3;stroke-linecap:square;"/>
   </g>
   <g id="line2d_4">
    <path clip-path="url(#pb7d8434b4a)" d="M 327.976644 359.056343 
L 327.976644 354.493967 
L 334.777766 354.493967 
L 334.777766 349.93159 
L 336.083617 349.93159 
L 336.083617 345.369214 
L 336.197167 345.369214 
L 336.197167 340.806838 
L 336.348156 340.806838 
L 336.348156 336.244462 
L 338.305572 336.244462 
L 338.305572 331.682085 
L 339.131023 331.682085 
L 339.131023 327.119709 
L 340.844068 327.119709 
L 340.844068 322.557333 
L 341.118088 322.557333 
L 341.118088 317.994957 
L 342.862424 317.994957 
L 342.862424 313.43258 
L 344.034286 313.43258 
L 344.034286 308.870204 
L 344.736721 308.870204 
L 344.736721 304.307828 
L 345.491578 304.307828 
L 345.491578 299.745452 
L 345.709548 299.745452 
L 345.709548 295.183075 
L 346.14257 295.183075 
L 346.14257 290.620699 
L 346.449519 290.620699 
L 346.541226 281.495947 
L 346.571757 281.495947 
L 346.571757 276.933571 
L 346.906329 276.933571 
L 346.906329 272.371194 
L 347.027421 272.371194 
L 347.027421 267.808818 
L 347.268702 267.808818 
L 347.268702 263.246442 
L 348.428045 263.246442 
L 348.428045 258.684066 
L 349.359016 258.684066 
L 349.359016 254.121689 
L 349.732173 254.121689 
L 349.732173 249.559313 
L 349.903435 249.559313 
L 349.903435 244.996937 
L 350.694754 244.996937 
L 350.694754 240.434561 
L 350.806752 240.434561 
L 350.806752 235.872184 
L 352.699062 235.872184 
L 352.699062 231.309808 
L 353.180794 231.309808 
L 353.180794 226.747432 
L 353.552191 226.747432 
L 353.552191 222.185056 
L 354.025559 222.185056 
L 354.025559 217.622679 
L 354.752839 217.622679 
L 354.855852 208.497927 
L 355.138011 208.497927 
L 355.138011 203.935551 
L 355.999897 203.935551 
L 355.999897 199.373175 
L 356.747862 199.373175 
L 356.747862 194.810798 
L 357.142107 194.810798 
L 357.142107 190.248422 
L 357.264653 190.248422 
L 357.313585 181.12367 
L 357.703273 181.12367 
L 357.727525 171.998917 
L 358.425599 171.998917 
L 358.497243 162.874165 
L 358.901237 162.874165 
L 358.948545 153.749412 
L 359.629374 153.749412 
L 359.652681 144.62466 
L 359.931496 144.62466 
L 359.977809 135.499907 
L 360.781214 135.499907 
L 360.781214 130.937531 
L 361.098884 130.937531 
L 361.098884 126.375155 
L 363.653856 126.375155 
L 363.653856 121.812778 
L 366.648918 121.812778 
L 366.648918 117.250402 
L 368.372641 117.250402 
L 368.372641 112.688026 
L 369.99953 112.688026 
L 369.99953 108.12565 
L 374.712963 108.12565 
L 374.712963 103.563274 
L 384.27561 103.563274 
L 384.27561 99.000897 
L 384.680494 99.000897 
L 384.680494 94.438521 
L 386.226649 94.438521 
L 386.226649 89.876145 
L 386.775668 89.876145 
L 386.775668 85.313769 
L 387.080953 85.313769 
L 387.080953 80.751392 
L 390.712435 80.751392 
L 390.712435 76.189016 
L 394.637184 76.189016 
L 394.637184 71.62664 
L 404.452583 71.62664 
L 404.452583 67.064264 
L 409.804427 67.064264 
L 409.804427 62.501887 
L 416.498312 62.501887 
L 416.498312 57.939511 
L 416.721348 57.939511 
L 416.721348 53.377135 
L 421.787659 53.377135 
L 421.787659 48.814759 
L 428.928955 48.814759 
L 428.928955 44.252382 
L 432.545861 44.252382 
L 432.545861 39.690006 
L 447.974288 39.690006 
L 447.974288 35.12763 
L 455.051654 35.12763 
L 455.051654 30.565254 
L 458.853415 30.565254 
L 458.853415 26.002877 
L 461.096889 26.002877 
L 461.096889 21.440501 
L 471.159143 21.440501 
L 471.159143 16.878125 
L 471.159143 16.878125 
L 513.7625 16.878125 
L 513.7625 16.878125 
" style="fill:none;stroke:#f5deb3;stroke-linecap:square;"/>
   </g>
   <g id="line2d_5">
    <path clip-path="url(#pb7d8434b4a)" d="M 383.937957 359.056343 
L 383.937957 354.493967 
L 385.343303 354.493967 
L 385.343303 349.93159 
L 398.372718 349.93159 
L 398.372718 345.369214 
L 399.183468 345.369214 
L 399.183468 340.806838 
L 399.522436 340.806838 
L 399.522436 336.244462 
L 408.851273 336.244462 
L 408.851273 331.682085 
L 417.121669 331.682085 
L 417.121669 327.119709 
L 427.559447 327.119709 
L 427.559447 322.557333 
L 428.005099 322.557333 
L 428.005099 317.994957 
L 429.961326 317.994957 
L 429.961326 313.43258 
L 436.773411 313.43258 
L 436.773411 308.870204 
L 437.801819 308.870204 
L 437.801819 304.307828 
L 442.429257 304.307828 
L 442.429257 299.745452 
L 444.35843 299.745452 
L 444.35843 295.183075 
L 454.478653 295.183075 
L 454.478653 290.620699 
L 508.096038 290.620699 
L 508.096038 286.058323 
L 513.271482 286.058323 
L 513.271482 281.495947 
L 513.271482 281.495947 
L 513.271482 276.933571 
L 514.194823 276.933571 
L 514.194823 272.371194 
L 518.347446 272.371194 
L 518.347446 267.808818 
L 523.452472 267.808818 
L 523.452472 263.246442 
L 524.994391 263.246442 
L 524.994391 258.684066 
L 525.688258 258.684066 
L 525.688258 254.121689 
L 528.324031 254.121689 
" style="fill:none;stroke:#f5deb3;stroke-linecap:square;"/>
   </g>
   <g id="line2d_6"/>
   <g id="line2d_7">
    <path clip-path="url(#pb7d8434b4a)" d="M 361.369525 359.056343 
L 361.369525 354.493967 
L 362.150371 354.493967 
L 362.150371 349.93159 
L 362.831625 349.93159 
L 362.831625 345.369214 
L 363.546461 345.369214 
L 363.546461 340.806838 
L 363.696747 340.806838 
L 363.696747 336.244462 
L 366.019598 336.244462 
L 366.019598 331.682085 
L 366.203147 331.682085 
L 366.203147 327.119709 
L 366.930471 327.119709 
L 366.930471 322.557333 
L 367.369633 322.557333 
L 367.40936 313.43258 
L 367.666796 313.43258 
L 367.745733 299.745452 
L 367.844223 299.745452 
L 367.844223 295.183075 
L 367.962148 295.183075 
L 367.962148 290.620699 
L 368.372641 290.620699 
L 368.450437 281.495947 
L 368.528109 281.495947 
L 368.586281 272.371194 
L 368.779686 272.371194 
L 368.837557 254.121689 
L 369.469622 254.121689 
L 369.469622 249.559313 
L 369.65954 249.559313 
L 369.65954 244.996937 
L 370.018348 244.996937 
L 370.018348 240.434561 
L 370.857708 240.434561 
L 370.857708 235.872184 
L 371.152678 235.872184 
L 371.152678 231.309808 
L 371.46413 231.309808 
L 371.50064 222.185056 
L 371.646406 222.185056 
L 371.646406 217.622679 
L 371.80987 217.622679 
L 371.80987 213.060303 
L 372.225125 213.060303 
L 372.314929 203.935551 
L 372.921222 203.935551 
L 372.93894 194.810798 
L 373.221548 194.810798 
L 373.221548 190.248422 
L 374.31857 190.248422 
L 374.31857 185.686046 
L 375.053324 185.686046 
L 375.053324 181.12367 
L 375.643263 181.12367 
L 375.643263 176.561293 
L 375.760394 176.561293 
L 375.793809 167.436541 
L 376.027064 167.436541 
L 376.027064 162.874165 
L 376.259203 162.874165 
L 376.259203 158.311788 
L 377.403506 158.311788 
L 377.484218 149.187036 
L 378.505625 149.187036 
L 378.505625 144.62466 
L 382.257344 144.62466 
L 382.257344 140.062283 
L 382.577838 140.062283 
L 382.577838 135.499907 
L 387.397475 135.499907 
L 387.397475 130.937531 
L 387.581162 130.937531 
L 387.581162 126.375155 
L 389.720237 126.375155 
L 389.720237 121.812778 
L 391.140215 121.812778 
L 391.140215 117.250402 
L 391.322399 117.250402 
L 391.322399 112.688026 
L 392.743966 112.688026 
L 392.838054 103.563274 
L 393.618953 103.563274 
L 393.618953 99.000897 
L 393.815107 99.000897 
L 393.861145 89.876145 
L 394.78414 89.876145 
L 394.78414 85.313769 
L 396.218744 85.313769 
L 396.218744 80.751392 
L 396.676808 80.751392 
L 396.676808 76.189016 
L 398.288792 76.189016 
L 398.288792 71.62664 
L 401.172713 71.62664 
L 401.172713 67.064264 
L 401.870094 67.064264 
L 401.870094 62.501887 
L 404.471071 62.501887 
L 404.471071 57.939511 
L 407.211073 57.939511 
L 407.211073 53.377135 
L 414.496043 53.377135 
L 414.496043 48.814759 
L 423.670916 48.814759 
L 423.670916 44.252382 
L 435.073313 44.252382 
L 435.073313 39.690006 
L 437.987321 39.690006 
L 437.987321 35.12763 
L 442.009332 35.12763 
L 442.009332 30.565254 
L 442.791111 30.565254 
L 442.791111 26.002877 
L 453.822068 26.002877 
L 453.822068 21.440501 
L 505.029886 21.440501 
L 505.029886 16.878125 
L 505.029886 16.878125 
L 513.7625 16.878125 
L 513.7625 16.878125 
" style="fill:none;stroke:#f5deb3;stroke-linecap:square;"/>
   </g>
   <g id="line2d_8">
    <path clip-path="url(#pb7d8434b4a)" style="fill:none;stroke:#f5deb3;stroke-linecap:square;"/>
   </g>
   <g id="line2d_9">
    <path clip-path="url(#pb7d8434b4a)" d="M 355.138011 359.056343 
L 355.138011 354.493967 
L 356.350385 354.493967 
L 356.350385 349.93159 
L 357.289125 349.93159 
L 357.289125 345.369214 
L 358.830188 345.369214 
L 358.830188 340.806838 
L 359.231428 340.806838 
L 359.231428 336.244462 
L 359.372253 336.244462 
L 359.372253 331.682085 
L 360.139559 331.682085 
L 360.139559 327.119709 
L 360.962995 327.119709 
L 360.962995 322.557333 
L 361.504281 322.557333 
L 361.504281 317.994957 
L 361.772674 317.994957 
L 361.861809 308.870204 
L 361.906315 308.870204 
L 361.928553 299.745452 
L 362.634826 299.745452 
L 362.634826 295.183075 
L 362.918835 295.183075 
L 362.918835 290.620699 
L 363.136177 290.620699 
L 363.157858 281.495947 
L 363.330955 281.495947 
L 363.330955 276.933571 
L 363.48191 276.933571 
L 363.48191 272.371194 
L 363.782416 272.371194 
L 363.889289 263.246442 
L 364.525629 263.246442 
L 364.525629 258.684066 
L 365.049603 258.684066 
L 365.049603 254.121689 
L 365.299113 254.121689 
L 365.299113 249.559313 
L 365.506061 249.559313 
L 365.506061 244.996937 
L 365.835351 244.996937 
L 365.937797 231.309808 
L 366.223499 231.309808 
L 366.325128 208.497927 
L 366.386004 208.497927 
L 366.386004 203.935551 
L 366.709389 203.935551 
L 366.709389 199.373175 
L 367.010615 199.373175 
L 367.030631 190.248422 
L 367.765447 190.248422 
L 367.824541 181.12367 
L 368.392102 181.12367 
L 368.392102 176.561293 
L 368.818275 176.561293 
L 368.914612 167.436541 
L 369.450589 167.436541 
L 369.450589 162.874165 
L 369.564674 162.874165 
L 369.564674 158.311788 
L 369.886465 158.311788 
L 369.886465 153.749412 
L 371.097508 153.749412 
L 371.207786 140.062283 
L 372.422474 140.062283 
L 372.422474 135.499907 
L 373.256759 135.499907 
L 373.256759 130.937531 
L 379.552337 130.937531 
L 379.552337 126.375155 
L 380.349412 126.375155 
L 380.349412 121.812778 
L 381.22326 121.812778 
L 381.22326 117.250402 
L 382.67937 117.250402 
L 382.67937 112.688026 
L 382.968296 112.688026 
L 382.968296 108.12565 
L 384.680494 108.12565 
L 384.680494 103.563274 
L 386.508631 103.563274 
L 386.508631 99.000897 
L 386.762351 99.000897 
L 386.762351 94.438521 
L 387.199891 94.438521 
L 387.199891 89.876145 
L 389.468981 89.876145 
L 389.468981 85.313769 
L 390.663304 85.313769 
L 390.663304 80.751392 
L 391.455568 80.751392 
L 391.455568 76.189016 
L 394.319142 76.189016 
L 394.319142 71.62664 
L 403.443592 71.62664 
L 403.443592 67.064264 
L 403.650838 67.064264 
L 403.650838 62.501887 
L 404.821016 62.501887 
L 404.821016 57.939511 
L 411.215994 57.939511 
L 411.215994 53.377135 
L 417.933534 53.377135 
L 417.933534 48.814759 
L 419.517569 48.814759 
L 419.517569 44.252382 
L 420.57649 44.252382 
L 420.57649 39.690006 
L 421.005493 39.690006 
L 421.005493 35.12763 
L 422.652766 35.12763 
L 422.652766 30.565254 
L 424.753339 30.565254 
L 424.753339 26.002877 
L 428.945692 26.002877 
L 428.945692 21.440501 
L 432.098437 21.440501 
L 432.098437 16.878125 
L 432.098437 16.878125 
L 513.7625 16.878125 
L 513.7625 16.878125 
" style="fill:none;stroke:#f5deb3;stroke-linecap:square;"/>
   </g>
   <g id="line2d_10">
    <path clip-path="url(#pb7d8434b4a)" style="fill:none;stroke:#f5deb3;stroke-linecap:square;"/>
   </g>
   <g id="line2d_11">
    <path clip-path="url(#pb7d8434b4a)" style="fill:none;stroke:#f5deb3;stroke-linecap:square;"/>
   </g>
   <g id="line2d_12">
    <path clip-path="url(#pb7d8434b4a)" d="M 315.41712 359.056343 
L 315.41712 354.493967 
L 373.694744 354.493967 
L 373.694744 349.93159 
L 376.638177 349.93159 
L 376.638177 345.369214 
L 445.079518 345.369214 
L 445.079518 340.806838 
L 455.585777 340.806838 
L 455.585777 336.244462 
L 484.434069 336.244462 
L 484.434069 331.682085 
L 500.596638 331.682085 
L 500.596638 327.119709 
L 505.363019 327.119709 
L 505.363019 322.557333 
L 508.746469 322.557333 
L 508.746469 317.994957 
L 528.324031 317.994957 
" style="fill:none;stroke:#f5deb3;stroke-linecap:square;"/>
   </g>
   <g id="line2d_13"/>
   <g id="line2d_14">
    <path clip-path="url(#pb7d8434b4a)" d="M 347.77747 359.056343 
L 347.77747 354.493967 
L 354.312579 354.493967 
L 354.312579 349.93159 
L 367.922872 349.93159 
L 367.922872 345.369214 
L 369.564674 345.369214 
L 369.564674 340.806838 
L 375.307035 340.806838 
L 375.307035 336.244462 
L 375.71023 336.244462 
L 375.71023 331.682085 
L 378.898838 331.682085 
L 378.898838 327.119709 
L 382.766229 327.119709 
L 382.766229 322.557333 
L 383.79657 322.557333 
L 383.79657 317.994957 
L 389.292324 317.994957 
L 389.292324 313.43258 
L 390.503286 313.43258 
L 390.503286 308.870204 
L 392.211289 308.870204 
L 392.211289 304.307828 
L 393.387163 304.307828 
L 393.387163 299.745452 
L 398.634054 299.745452 
L 398.634054 295.183075 
L 402.80692 295.183075 
L 402.80692 290.620699 
L 403.377464 290.620699 
L 403.377464 286.058323 
L 404.894368 286.058323 
L 404.894368 281.495947 
L 405.540545 281.495947 
L 405.540545 276.933571 
L 415.419113 276.933571 
L 415.419113 272.371194 
L 416.649513 272.371194 
L 416.649513 267.808818 
L 421.560828 267.808818 
L 421.560828 263.246442 
L 425.213377 263.246442 
L 425.213377 258.684066 
L 425.919106 258.684066 
L 425.919106 254.121689 
L 428.418504 254.121689 
L 428.418504 249.559313 
L 431.14838 249.559313 
L 431.14838 244.996937 
L 433.163351 244.996937 
L 433.163351 240.434561 
L 434.340299 240.434561 
L 434.340299 235.872184 
L 437.764633 235.872184 
L 437.764633 231.309808 
L 438.681264 231.309808 
L 438.681264 226.747432 
L 448.068366 226.747432 
L 448.068366 222.185056 
L 449.861874 222.185056 
L 449.861874 217.622679 
L 452.381957 217.622679 
L 452.381957 213.060303 
L 468.609165 213.060303 
L 468.609165 208.497927 
L 485.676682 208.497927 
L 485.676682 203.935551 
L 488.521048 203.935551 
L 488.521048 199.373175 
L 494.161621 199.373175 
L 494.161621 194.810798 
L 499.946183 194.810798 
L 499.946183 190.248422 
L 509.451896 190.248422 
L 509.451896 185.686046 
L 510.093911 185.686046 
L 510.093911 181.12367 
L 510.093911 181.12367 
L 510.093911 181.12367 
L 513.7625 181.12367 
" style="fill:none;stroke:#f5deb3;stroke-linecap:square;"/>
   </g>
   <g id="line2d_15"/>
   <g id="line2d_16"/>
   <g id="line2d_17">
    <path clip-path="url(#pb7d8434b4a)" d="M 427.340841 359.056343 
L 427.340841 354.493967 
L 428.912212 354.493967 
L 428.912212 349.93159 
L 430.331348 349.93159 
L 430.331348 345.369214 
L 430.881137 345.369214 
L 430.881137 340.806838 
L 433.229776 340.806838 
L 433.229776 336.244462 
L 433.778121 336.244462 
L 433.778121 331.682085 
L 433.964563 331.682085 
L 433.964563 327.119709 
L 434.280376 327.119709 
L 434.280376 322.557333 
L 435.127353 322.557333 
L 435.186238 313.43258 
L 436.190901 313.43258 
L 436.2629 295.183075 
L 437.806465 295.183075 
L 437.857544 286.058323 
L 438.121368 286.058323 
L 438.144442 276.933571 
L 438.553334 276.933571 
L 438.553334 272.371194 
L 438.836155 272.371194 
L 438.836155 267.808818 
L 439.33841 267.808818 
L 439.33841 263.246442 
L 439.670378 263.246442 
L 439.670378 258.684066 
L 440.23486 258.684066 
L 440.23486 254.121689 
L 440.600253 254.121689 
L 440.600253 249.559313 
L 441.705917 249.559313 
L 441.705917 244.996937 
L 441.962448 244.996937 
L 441.962448 240.434561 
L 442.200658 240.434561 
L 442.200658 235.872184 
L 442.370094 235.872184 
L 442.43348 226.747432 
L 442.673595 226.747432 
L 442.740782 217.622679 
L 442.933428 217.622679 
L 442.933428 213.060303 
L 443.482024 213.060303 
L 443.482024 208.497927 
L 443.745792 208.497927 
L 443.745792 203.935551 
L 444.475985 203.935551 
L 444.475985 199.373175 
L 445.071521 199.373175 
L 445.071521 194.810798 
L 445.24717 194.810798 
L 445.330779 185.686046 
L 446.505821 185.686046 
L 446.505821 181.12367 
L 447.425004 181.12367 
L 447.425004 176.561293 
L 447.641672 176.561293 
L 447.641672 171.998917 
L 448.075884 171.998917 
L 448.075884 167.436541 
L 449.388594 167.436541 
L 449.388594 162.874165 
L 452.306233 162.874165 
L 452.306233 158.311788 
L 452.874709 158.311788 
L 452.874709 153.749412 
L 457.219123 153.749412 
L 457.237795 144.62466 
L 459.703607 144.62466 
L 459.703607 140.062283 
L 461.588598 140.062283 
L 461.588598 135.499907 
L 462.013378 135.499907 
L 462.055652 126.375155 
L 463.32075 126.375155 
L 463.32075 121.812778 
L 464.010171 121.812778 
L 464.010171 117.250402 
L 464.767234 117.250402 
L 464.783214 108.12565 
L 465.244356 108.12565 
L 465.244356 103.563274 
L 465.402358 103.563274 
L 465.402358 99.000897 
L 466.094105 99.000897 
L 466.094105 94.438521 
L 469.05009 94.438521 
L 469.05009 89.876145 
L 469.23749 89.876145 
L 469.23749 85.313769 
L 469.578784 85.313769 
L 469.578784 80.751392 
L 469.797783 80.751392 
L 469.797783 76.189016 
L 471.438493 76.189016 
L 471.438493 71.62664 
L 472.987272 71.62664 
L 472.987272 67.064264 
L 475.497587 67.064264 
L 475.497587 62.501887 
L 475.636147 62.501887 
L 475.636147 57.939511 
L 478.295044 57.939511 
L 478.295044 53.377135 
L 481.693307 53.377135 
L 481.693307 48.814759 
L 484.261559 48.814759 
L 484.261559 44.252382 
L 486.186179 44.252382 
L 486.186179 39.690006 
L 489.224093 39.690006 
L 489.224093 35.12763 
L 494.690327 35.12763 
L 494.690327 30.565254 
L 494.842379 30.565254 
L 494.842379 26.002877 
L 498.061505 26.002877 
L 498.061505 21.440501 
L 501.282389 21.440501 
L 501.282389 16.878125 
L 501.282389 16.878125 
L 513.7625 16.878125 
L 513.7625 16.878125 
" style="fill:none;stroke:#f5deb3;stroke-linecap:square;"/>
   </g>
   <g id="line2d_18">
    <path clip-path="url(#pb7d8434b4a)" d="M 267.23638 359.056343 
L 267.23638 354.493967 
L 301.065963 354.493967 
L 301.065963 349.93159 
L 302.602293 349.93159 
L 302.602293 345.369214 
L 310.728002 345.369214 
L 310.728002 340.806838 
L 311.677749 340.806838 
L 311.677749 336.244462 
L 326.567748 336.244462 
L 326.567748 331.682085 
L 330.67722 331.682085 
L 330.67722 327.119709 
L 347.057647 327.119709 
L 347.057647 322.557333 
L 351.057805 322.557333 
L 351.057805 317.994957 
L 367.070637 317.994957 
L 367.070637 313.43258 
L 367.686542 313.43258 
L 367.686542 308.870204 
L 374.866421 308.870204 
L 374.866421 304.307828 
L 379.304423 304.307828 
L 379.304423 299.745452 
L 381.208327 299.745452 
L 381.208327 295.183075 
L 381.402106 295.183075 
L 381.402106 290.620699 
L 381.520971 290.620699 
L 381.520971 286.058323 
L 386.855493 286.058323 
L 386.855493 281.495947 
L 387.738056 281.495947 
L 387.738056 276.933571 
L 388.399247 276.933571 
L 388.399247 272.371194 
L 388.527842 272.371194 
L 388.527842 267.808818 
L 389.178417 267.808818 
L 389.178417 263.246442 
L 389.907828 263.246442 
L 389.907828 258.684066 
L 395.099155 258.684066 
L 395.099155 254.121689 
L 400.152945 254.121689 
L 400.152945 249.559313 
L 400.354598 249.559313 
L 400.354598 244.996937 
L 404.424837 244.996937 
L 404.424837 240.434561 
L 406.097852 240.434561 
L 406.097852 235.872184 
L 407.472399 235.872184 
L 407.472399 231.309808 
L 422.225347 231.309808 
L 422.225347 226.747432 
L 427.028485 226.747432 
L 427.028485 222.185056 
L 443.091995 222.185056 
L 443.091995 217.622679 
L 447.766671 217.622679 
L 447.766671 213.060303 
L 450.957993 213.060303 
L 450.957993 208.497927 
L 457.476787 208.497927 
L 457.476787 203.935551 
L 462.665909 203.935551 
L 462.665909 199.373175 
L 464.266533 199.373175 
L 464.266533 194.810798 
L 466.640481 194.810798 
L 466.640481 190.248422 
L 472.209931 190.248422 
L 472.209931 185.686046 
L 483.828478 185.686046 
L 483.828478 181.12367 
L 499.760202 181.12367 
L 499.760202 176.561293 
L 503.853877 176.561293 
L 503.853877 171.998917 
L 510.951979 171.998917 
L 510.951979 167.436541 
L 511.971458 167.436541 
L 511.971458 162.874165 
L 512.468787 162.874165 
L 512.468787 158.311788 
L 528.324031 158.311788 
" style="fill:none;stroke:#f5deb3;stroke-linecap:square;"/>
   </g>
   <g id="line2d_19">
    <path clip-path="url(#pb7d8434b4a)" style="fill:none;stroke:#f5deb3;stroke-linecap:square;"/>
   </g>
   <g id="line2d_20">
    <path clip-path="url(#pb7d8434b4a)" d="M 285.022745 359.056343 
L 285.022745 354.493967 
L 290.367758 354.493967 
L 290.367758 349.93159 
L 294.560615 349.93159 
L 294.560615 345.369214 
L 295.532642 345.369214 
L 295.532642 340.806838 
L 297.504169 340.806838 
L 297.504169 331.682085 
L 297.839003 331.682085 
L 297.839003 327.119709 
L 298.666108 327.119709 
L 298.666108 322.557333 
L 299.074427 322.557333 
L 299.074427 317.994957 
L 300.752765 317.994957 
L 300.831254 308.870204 
L 302.070099 308.870204 
L 302.070099 304.307828 
L 303.053853 304.307828 
L 303.053853 299.745452 
L 306.172487 299.745452 
L 306.172487 295.183075 
L 307.214832 295.183075 
L 307.214832 286.058323 
L 309.628633 286.058323 
L 309.628633 281.495947 
L 311.865485 281.495947 
L 311.865485 276.933571 
L 315.35904 276.933571 
L 315.35904 267.808818 
L 315.764141 267.808818 
L 315.764141 263.246442 
L 316.450819 263.246442 
L 316.450819 258.684066 
L 316.959516 258.684066 
L 316.959516 254.121689 
L 317.795658 254.121689 
L 317.795658 249.559313 
L 320.273408 249.559313 
L 320.273408 244.996937 
L 321.054733 244.996937 
L 321.054733 240.434561 
L 321.975995 240.434561 
L 321.975995 235.872184 
L 322.929808 235.872184 
L 322.929808 231.309808 
L 326.011181 231.309808 
L 326.011181 226.747432 
L 326.150923 226.747432 
L 326.197414 217.622679 
L 326.659891 217.622679 
L 326.659891 213.060303 
L 327.707132 213.060303 
L 327.752155 203.935551 
L 329.822398 203.935551 
L 329.822398 199.373175 
L 333.23523 199.373175 
L 333.23523 194.810798 
L 333.754883 194.810798 
L 333.754883 190.248422 
L 335.893773 190.248422 
L 335.893773 185.686046 
L 336.007768 185.686046 
L 336.007768 181.12367 
L 341.560093 181.12367 
L 341.560093 176.561293 
L 342.299038 176.561293 
L 342.299038 171.998917 
L 342.465421 171.998917 
L 342.465421 167.436541 
L 343.288872 167.436541 
L 343.288872 162.874165 
L 343.7116 162.874165 
L 343.808632 153.749412 
L 351.08562 153.749412 
L 351.08562 149.187036 
L 357.06843 149.187036 
L 357.06843 144.62466 
L 357.824411 144.62466 
L 357.824411 140.062283 
L 360.461449 140.062283 
L 360.461449 135.499907 
L 365.278369 135.499907 
L 365.278369 130.937531 
L 365.937797 130.937531 
L 365.937797 126.375155 
L 368.431 126.375155 
L 368.431 121.812778 
L 373.41489 121.812778 
L 373.41489 117.250402 
L 376.110099 117.250402 
L 376.110099 112.688026 
L 378.726217 112.688026 
L 378.726217 108.12565 
L 379.164412 108.12565 
L 379.164412 103.563274 
L 383.526795 103.563274 
L 383.526795 99.000897 
L 383.7399 99.000897 
L 383.7399 94.438521 
L 385.521265 94.438521 
L 385.521265 89.876145 
L 387.226282 89.876145 
L 387.226282 85.313769 
L 389.089638 85.313769 
L 389.089638 80.751392 
L 391.188864 80.751392 
L 391.188864 76.189016 
L 403.235457 76.189016 
L 403.235457 71.62664 
L 407.437637 71.62664 
L 407.437637 67.064264 
L 407.990862 67.064264 
L 407.990862 62.501887 
L 414.720984 62.501887 
L 414.720984 57.939511 
L 420.748547 57.939511 
L 420.748547 53.377135 
L 427.965272 53.377135 
L 427.965272 48.814759 
L 440.757884 48.814759 
L 440.757884 44.252382 
L 446.923344 44.252382 
L 446.923344 39.690006 
L 448.323338 39.690006 
L 448.323338 35.12763 
L 450.648865 35.12763 
L 450.648865 30.565254 
L 453.345646 30.565254 
L 453.345646 26.002877 
L 477.426903 26.002877 
L 477.426903 21.440501 
L 511.218316 21.440501 
L 511.218316 16.878125 
L 511.218316 16.878125 
L 513.7625 16.878125 
L 513.7625 16.878125 
" style="fill:none;stroke:#f5deb3;stroke-linecap:square;"/>
   </g>
   <g id="line2d_21"/>
   <g id="line2d_22">
    <path clip-path="url(#pb7d8434b4a)" d="M 283.364642 359.056343 
L 283.364642 354.493967 
L 285.777533 354.493967 
L 285.777533 349.93159 
L 290.851949 349.93159 
L 290.851949 345.369214 
L 291.426665 345.369214 
L 291.426665 340.806838 
L 292.182504 340.806838 
L 292.182504 336.244462 
L 292.369636 336.244462 
L 292.369636 331.682085 
L 292.83433 331.682085 
L 292.83433 327.119709 
L 293.386144 327.119709 
L 293.477505 317.994957 
L 294.560615 317.994957 
L 294.560615 313.43258 
L 295.620049 313.43258 
L 295.620049 308.870204 
L 297.504169 308.870204 
L 297.504169 304.307828 
L 298.829849 304.307828 
L 298.829849 299.745452 
L 300.3584 299.745452 
L 300.3584 295.183075 
L 301.065963 295.183075 
L 301.065963 290.620699 
L 301.221806 290.620699 
L 301.221806 286.058323 
L 301.531997 286.058323 
L 301.531997 281.495947 
L 304.164685 281.495947 
L 304.164685 276.933571 
L 305.393597 276.933571 
L 305.393597 272.371194 
L 306.312769 272.371194 
L 306.312769 267.808818 
L 307.420638 267.808818 
L 307.420638 263.246442 
L 315.126025 263.246442 
L 315.126025 258.684066 
L 315.764141 258.684066 
L 315.764141 254.121689 
L 316.393966 254.121689 
L 316.393966 249.559313 
L 318.834475 249.559313 
L 318.834475 244.996937 
L 320.847608 244.996937 
L 320.847608 240.434561 
L 323.375145 240.434561 
L 323.375145 235.872184 
L 324.543084 235.872184 
L 324.543084 231.309808 
L 326.567748 231.309808 
L 326.567748 226.747432 
L 330.719568 226.747432 
L 330.719568 222.185056 
L 332.465572 222.185056 
L 332.465572 217.622679 
L 333.03387 217.622679 
L 333.03387 213.060303 
L 333.953275 213.060303 
L 333.953275 208.497927 
L 334.269023 208.497927 
L 334.269023 203.935551 
L 335.9698 203.935551 
L 335.9698 199.373175 
L 337.021841 199.373175 
L 337.021841 194.810798 
L 340.56849 194.810798 
L 340.56849 190.248422 
L 345.021172 190.248422 
L 345.021172 185.686046 
L 345.833664 185.686046 
L 345.833664 181.12367 
L 346.541226 181.12367 
L 346.541226 176.561293 
L 348.924849 176.561293 
L 348.924849 171.998917 
L 351.307565 171.998917 
L 351.307565 167.436541 
L 353.894531 167.436541 
L 353.894531 162.874165 
L 355.061221 162.874165 
L 355.061221 158.311788 
L 356.325434 158.311788 
L 356.325434 153.749412 
L 357.727525 153.749412 
L 357.824411 144.62466 
L 357.896948 144.62466 
L 357.896948 140.062283 
L 358.995807 140.062283 
L 358.995807 135.499907 
L 359.769049 135.499907 
L 359.769049 130.937531 
L 360.690068 130.937531 
L 360.690068 126.375155 
L 364.777843 126.375155 
L 364.798802 117.250402 
L 367.745733 117.250402 
L 367.745733 112.688026 
L 369.183341 112.688026 
L 369.183341 108.12565 
L 369.7353 108.12565 
L 369.7353 103.563274 
L 372.619024 103.563274 
L 372.619024 99.000897 
L 373.327103 99.000897 
L 373.327103 94.438521 
L 373.851455 94.438521 
L 373.851455 89.876145 
L 374.232406 89.876145 
L 374.232406 85.313769 
L 374.524741 85.313769 
L 374.524741 80.751392 
L 375.002422 80.751392 
L 375.070279 71.62664 
L 378.284024 71.62664 
L 378.284024 67.064264 
L 385.888803 67.064264 
L 385.888803 62.501887 
L 387.226282 62.501887 
L 387.226282 57.939511 
L 392.696853 57.939511 
L 392.696853 53.377135 
L 393.165932 53.377135 
L 393.165932 48.814759 
L 396.404672 48.814759 
L 396.404672 44.252382 
L 397.238001 44.252382 
L 397.238001 39.690006 
L 398.675737 39.690006 
L 398.675737 35.12763 
L 407.307056 35.12763 
L 407.307056 30.565254 
L 408.050989 30.565254 
L 408.050989 26.002877 
L 423.026055 26.002877 
L 423.026055 21.440501 
L 433.808404 21.440501 
L 433.808404 16.878125 
L 433.808404 16.878125 
L 513.7625 16.878125 
L 513.7625 16.878125 
" style="fill:none;stroke:#f5deb3;stroke-linecap:square;"/>
   </g>
   <g id="line2d_23">
    <path clip-path="url(#pb7d8434b4a)" style="fill:none;stroke:#f5deb3;stroke-linecap:square;"/>
   </g>
   <g id="line2d_24">
    <path clip-path="url(#pb7d8434b4a)" d="M 339.344065 359.056343 
L 339.344065 354.493967 
L 341.593927 354.493967 
L 341.593927 349.93159 
L 347.298778 349.93159 
L 347.298778 345.369214 
L 347.98542 345.369214 
L 347.98542 340.806838 
L 348.103849 340.806838 
L 348.103849 336.244462 
L 348.25148 336.244462 
L 348.25148 331.682085 
L 348.837547 331.682085 
L 348.837547 327.119709 
L 349.301351 327.119709 
L 349.301351 322.557333 
L 352.591357 322.557333 
L 352.618306 313.43258 
L 353.020748 313.43258 
L 353.020748 308.870204 
L 353.419876 308.870204 
L 353.419876 304.307828 
L 353.97319 304.307828 
L 353.97319 299.745452 
L 354.830119 299.745452 
L 354.830119 295.183075 
L 355.316715 295.183075 
L 355.316715 290.620699 
L 356.42516 290.620699 
L 356.42516 286.058323 
L 356.871408 286.058323 
L 356.871408 281.495947 
L 358.258016 281.495947 
L 358.258016 276.933571 
L 359.160862 276.933571 
L 359.231428 267.808818 
L 360.71287 267.808818 
L 360.71287 263.246442 
L 362.128234 263.246442 
L 362.128234 258.684066 
L 362.962382 258.684066 
L 362.962382 254.121689 
L 364.609846 254.121689 
L 364.609846 249.559313 
L 364.819752 249.559313 
L 364.924365 240.434561 
L 365.236856 240.434561 
L 365.236856 235.872184 
L 365.855857 235.872184 
L 365.855857 231.309808 
L 365.978715 231.309808 
L 365.978715 226.747432 
L 366.304819 226.747432 
L 366.386004 217.622679 
L 367.010615 217.622679 
L 367.010615 213.060303 
L 367.785153 213.060303 
L 367.785153 208.497927 
L 368.060201 208.497927 
L 368.060201 203.935551 
L 369.22161 203.935551 
L 369.22161 199.373175 
L 370.168634 199.373175 
L 370.168634 194.810798 
L 370.523706 194.810798 
L 370.598128 185.686046 
L 372.063057 185.686046 
L 372.063057 181.12367 
L 373.432428 181.12367 
L 373.432428 176.561293 
L 374.042305 176.561293 
L 374.042305 171.998917 
L 375.12111 171.998917 
L 375.12111 167.436541 
L 375.71023 167.436541 
L 375.71023 162.874165 
L 375.860568 162.874165 
L 375.860568 158.311788 
L 378.394951 158.311788 
L 378.394951 153.749412 
L 379.242246 153.749412 
L 379.242246 149.187036 
L 381.238189 149.187036 
L 381.238189 144.62466 
L 381.890556 144.62466 
L 381.890556 140.062283 
L 382.563316 140.062283 
L 382.563316 135.499907 
L 383.341343 135.499907 
L 383.341343 130.937531 
L 383.7399 130.937531 
L 383.7399 126.375155 
L 384.149266 126.375155 
L 384.149266 121.812778 
L 385.888803 121.812778 
L 385.888803 117.250402 
L 387.318538 117.250402 
L 387.358022 108.12565 
L 387.476283 108.12565 
L 387.476283 103.563274 
L 388.115133 103.563274 
L 388.115133 99.000897 
L 388.758455 99.000897 
L 388.758455 94.438521 
L 389.782848 94.438521 
L 389.782848 89.876145 
L 390.107128 89.876145 
L 390.107128 85.313769 
L 391.091516 85.313769 
L 391.091516 80.751392 
L 391.213171 80.751392 
L 391.213171 76.189016 
L 396.163923 76.189016 
L 396.163923 71.62664 
L 397.760937 71.62664 
L 397.760937 67.064264 
L 399.08028 67.064264 
L 399.08028 62.501887 
L 399.563363 62.501887 
L 399.563363 57.939511 
L 409.330193 57.939511 
L 409.330193 53.377135 
L 413.708065 53.377135 
L 413.708065 48.814759 
L 419.828257 48.814759 
L 419.828257 44.252382 
L 434.534536 44.252382 
L 434.534536 39.690006 
L 434.698285 39.690006 
L 434.698285 35.12763 
L 438.79065 35.12763 
L 438.79065 30.565254 
L 442.568428 30.565254 
L 442.568428 26.002877 
L 464.894927 26.002877 
L 464.894927 21.440501 
L 467.276976 21.440501 
L 467.276976 16.878125 
L 467.276976 16.878125 
L 513.7625 16.878125 
L 513.7625 16.878125 
" style="fill:none;stroke:#f5deb3;stroke-linecap:square;"/>
   </g>
   <g id="line2d_25"/>
   <g id="line2d_26">
    <path clip-path="url(#pb7d8434b4a)" d="M 398.706976 359.056343 
L 398.706976 354.493967 
L 400.435025 354.493967 
L 400.435025 349.93159 
L 401.507922 349.93159 
L 401.596268 340.806838 
L 401.645279 340.806838 
L 401.645279 336.244462 
L 401.801782 336.244462 
L 401.801782 331.682085 
L 401.93831 331.682085 
L 401.93831 327.119709 
L 406.89561 327.119709 
L 406.930763 317.994957 
L 407.167381 317.994957 
L 407.167381 313.43258 
L 407.654492 313.43258 
L 407.654492 308.870204 
L 407.775509 308.870204 
L 407.775509 304.307828 
L 408.042404 304.307828 
L 408.136757 295.183075 
L 408.248028 295.183075 
L 408.248028 290.620699 
L 408.418717 290.620699 
L 408.486825 281.495947 
L 408.74138 281.495947 
L 408.851273 272.371194 
L 409.20462 272.371194 
L 409.20462 267.808818 
L 409.380332 267.808818 
L 409.380332 263.246442 
L 409.547086 263.246442 
L 409.547086 258.684066 
L 409.920199 258.684066 
L 409.969732 244.996937 
L 410.274066 244.996937 
L 410.274066 240.434561 
L 410.617227 240.434561 
L 410.722953 222.185056 
L 414.758373 222.185056 
L 414.810669 208.497927 
L 415.145516 208.497927 
L 415.219614 199.373175 
L 415.691174 199.373175 
L 415.691174 194.810798 
L 415.939837 194.810798 
L 416.012731 185.686046 
L 416.656702 185.686046 
L 416.656702 181.12367 
L 417.078936 181.12367 
L 417.078936 176.561293 
L 417.716019 176.561293 
L 417.716019 171.998917 
L 421.923249 171.998917 
L 421.923249 167.436541 
L 422.557402 167.436541 
L 422.570128 158.311788 
L 422.994531 158.311788 
L 422.994531 153.749412 
L 423.346427 153.749412 
L 423.346427 149.187036 
L 428.226398 149.187036 
L 428.226398 144.62466 
L 429.626974 144.62466 
L 429.632474 135.499907 
L 429.813618 135.499907 
L 429.851956 121.812778 
L 430.222811 121.812778 
L 430.222811 117.250402 
L 433.387807 117.250402 
L 433.387807 112.688026 
L 434.024877 112.688026 
L 434.024877 108.12565 
L 434.390177 108.12565 
L 434.494756 94.438521 
L 435.313577 94.438521 
L 435.313577 89.876145 
L 438.35621 89.876145 
L 438.35621 85.313769 
L 438.470915 85.313769 
L 438.470915 80.751392 
L 438.972414 80.751392 
L 438.972414 76.189016 
L 439.732928 76.189016 
L 439.750784 67.064264 
L 444.036739 67.064264 
L 444.036739 62.501887 
L 447.119265 62.501887 
L 447.119265 57.939511 
L 456.444134 57.939511 
L 456.444134 53.377135 
L 457.306199 53.377135 
L 457.315519 44.252382 
L 457.439619 44.252382 
L 457.439619 39.690006 
L 458.784148 39.690006 
L 458.784148 35.12763 
L 460.001359 35.12763 
L 460.001359 30.565254 
L 465.627933 30.565254 
L 465.627933 26.002877 
L 469.113449 26.002877 
L 469.113449 21.440501 
L 488.859264 21.440501 
L 488.859264 16.878125 
L 488.859264 16.878125 
L 513.7625 16.878125 
L 513.7625 16.878125 
" style="fill:none;stroke:#f5deb3;stroke-linecap:square;"/>
   </g>
   <g id="line2d_27"/>
   <g id="line2d_28">
    <path clip-path="url(#pb7d8434b4a)" d="M 331.600432 359.056343 
L 331.600432 354.493967 
L 332.096687 354.493967 
L 332.096687 349.93159 
L 333.355645 349.93159 
L 333.355645 345.369214 
L 335.435089 345.369214 
L 335.435089 340.806838 
L 335.779508 340.806838 
L 335.779508 336.244462 
L 336.27272 336.244462 
L 336.27272 331.682085 
L 337.942248 331.682085 
L 337.942248 327.119709 
L 339.872611 327.119709 
L 339.872611 322.557333 
L 340.04752 322.557333 
L 340.04752 317.994957 
L 341.560093 317.994957 
L 341.560093 313.43258 
L 342.16552 313.43258 
L 342.16552 308.870204 
L 342.43219 308.870204 
L 342.43219 304.307828 
L 343.646805 304.307828 
L 343.646805 299.745452 
L 344.736721 299.745452 
L 344.736721 295.183075 
L 344.92654 295.183075 
L 344.92654 290.620699 
L 345.303963 290.620699 
L 345.303963 286.058323 
L 345.491578 286.058323 
L 345.491578 281.495947 
L 345.957463 281.495947 
L 345.957463 276.933571 
L 346.326973 276.933571 
L 346.326973 272.371194 
L 346.663233 272.371194 
L 346.663233 267.808818 
L 346.876009 267.808818 
L 346.876009 263.246442 
L 347.658239 263.246442 
L 347.658239 258.684066 
L 347.896408 258.684066 
L 347.896408 254.121689 
L 348.074269 254.121689 
L 348.074269 249.559313 
L 349.272493 249.559313 
L 349.272493 244.996937 
L 349.93192 244.996937 
L 349.93192 240.434561 
L 350.159199 240.434561 
L 350.159199 235.872184 
L 351.362893 235.872184 
L 351.362893 231.309808 
L 352.212494 231.309808 
L 352.212494 226.747432 
L 353.260619 226.747432 
L 353.260619 222.185056 
L 353.763148 222.185056 
L 353.763148 217.622679 
L 354.804373 217.622679 
L 354.804373 213.060303 
L 356.200486 213.060303 
L 356.200486 208.497927 
L 356.822028 208.497927 
L 356.822028 203.935551 
L 357.11756 203.935551 
L 357.11756 199.373175 
L 357.338033 199.373175 
L 357.338033 194.810798 
L 358.830188 194.810798 
L 358.830188 190.248422 
L 359.019421 190.248422 
L 359.019421 185.686046 
L 359.582726 185.686046 
L 359.582726 181.12367 
L 359.769049 181.12367 
L 359.769049 176.561293 
L 360.231746 176.561293 
L 360.231746 171.998917 
L 360.461449 171.998917 
L 360.461449 167.436541 
L 360.64443 167.436541 
L 360.64443 162.874165 
L 361.211835 162.874165 
L 361.211835 158.311788 
L 362.061765 158.311788 
L 362.061765 153.749412 
L 362.590984 153.749412 
L 362.590984 149.187036 
L 363.027628 149.187036 
L 363.027628 144.62466 
L 363.157858 144.62466 
L 363.244484 130.937531 
L 364.102332 130.937531 
L 364.102332 126.375155 
L 365.278369 126.375155 
L 365.278369 121.812778 
L 366.507526 121.812778 
L 366.507526 117.250402 
L 366.870276 117.250402 
L 366.870276 112.688026 
L 367.726011 112.688026 
L 367.726011 108.12565 
L 368.001393 108.12565 
L 368.001393 103.563274 
L 369.507665 103.563274 
L 369.507665 99.000897 
L 370.299753 99.000897 
L 370.299753 94.438521 
L 370.76516 94.438521 
L 370.76516 89.876145 
L 371.134295 89.876145 
L 371.134295 85.313769 
L 372.511914 85.313769 
L 372.511914 80.751392 
L 372.921222 80.751392 
L 372.921222 76.189016 
L 373.379794 76.189016 
L 373.379794 71.62664 
L 373.955648 71.62664 
L 373.955648 67.064264 
L 374.335785 67.064264 
L 374.335785 62.501887 
L 375.408148 62.501887 
L 375.408148 57.939511 
L 377.484218 57.939511 
L 377.484218 53.377135 
L 377.885771 53.377135 
L 377.885771 48.814759 
L 378.410777 48.814759 
L 378.410777 44.252382 
L 395.356395 44.252382 
L 395.356395 39.690006 
L 396.207785 39.690006 
L 396.207785 35.12763 
L 399.450732 35.12763 
L 399.450732 30.565254 
L 402.31662 30.565254 
L 402.31662 26.002877 
L 405.131997 26.002877 
L 405.131997 21.440501 
L 420.887072 21.440501 
L 420.887072 16.878125 
L 420.887072 16.878125 
L 513.7625 16.878125 
L 513.7625 16.878125 
" style="fill:none;stroke:#f5deb3;stroke-linecap:square;"/>
   </g>
   <g id="line2d_29">
    <path clip-path="url(#pb7d8434b4a)" d="M 411.328447 359.056343 
L 411.328447 354.493967 
L 411.328447 354.493967 
L 411.328447 349.93159 
L 411.328447 349.93159 
L 411.328447 345.369214 
L 443.403441 345.369214 
L 443.403441 340.806838 
L 443.403441 340.806838 
L 443.403441 336.244462 
L 443.403441 336.244462 
L 443.403441 331.682085 
L 443.403441 331.682085 
L 443.403441 331.682085 
L 513.7625 331.682085 
" style="fill:none;stroke:#f5deb3;stroke-linecap:square;"/>
   </g>
   <g id="line2d_30"/>
   <g id="line2d_31">
    <path clip-path="url(#pb7d8434b4a)" d="M -1 331.682085 
L 190.163586 331.682085 
L 190.163586 327.119709 
L 232.850833 327.119709 
L 232.850833 322.557333 
L 234.109791 322.557333 
L 234.109791 317.994957 
L 258.305569 317.994957 
L 258.305569 313.43258 
L 267.079274 313.43258 
L 267.079274 308.870204 
L 286.20362 308.870204 
L 286.20362 304.307828 
L 286.415268 304.307828 
L 286.415268 299.745452 
L 288.177904 299.745452 
L 288.177904 295.183075 
L 298.25432 295.183075 
L 298.25432 290.620699 
L 310.919446 290.620699 
L 310.919446 286.058323 
L 310.983093 286.058323 
L 310.983093 281.495947 
L 314.715532 281.495947 
L 314.715532 276.933571 
L 319.692324 276.933571 
L 319.692324 272.371194 
L 324.591143 272.371194 
L 324.591143 267.808818 
L 326.243861 267.808818 
L 326.243861 263.246442 
L 327.61696 263.246442 
L 327.61696 258.684066 
L 330.464924 258.684066 
L 330.464924 254.121689 
L 332.669302 254.121689 
L 332.669302 249.559313 
L 335.242683 249.559313 
L 335.242683 244.996937 
L 336.121497 244.996937 
L 336.121497 240.434561 
L 340.152163 240.434561 
L 340.152163 235.872184 
L 343.549448 235.872184 
L 343.549448 231.309808 
L 346.111768 231.309808 
L 346.111768 226.747432 
L 357.06843 226.747432 
L 357.06843 222.185056 
L 357.06843 222.185056 
L 357.06843 222.185056 
L 513.7625 222.185056 
" style="fill:none;stroke:#000000;stroke-linecap:square;"/>
   </g>
   <g id="line2d_32"/>
   <g id="line2d_33">
    <path clip-path="url(#pb7d8434b4a)" d="M 283.700832 359.056343 
L 283.700832 354.493967 
L 297.922352 354.493967 
L 297.922352 349.93159 
L 300.120232 349.93159 
L 300.120232 345.369214 
L 312.670708 345.369214 
L 312.670708 340.806838 
L 315.009095 340.806838 
L 315.009095 336.244462 
L 315.067595 336.244462 
L 315.067595 331.682085 
L 316.620978 331.682085 
L 316.620978 327.119709 
L 317.295706 327.119709 
L 317.295706 322.557333 
L 319.957317 322.557333 
L 319.957317 317.994957 
L 321.363771 317.994957 
L 321.363771 313.43258 
L 325.542443 313.43258 
L 325.542443 308.870204 
L 327.842075 308.870204 
L 327.842075 304.307828 
L 327.842075 304.307828 
L 327.842075 299.745452 
L 328.952228 299.745452 
L 328.952228 295.183075 
L 342.299038 295.183075 
L 342.299038 290.620699 
L 353.446368 290.620699 
L 353.446368 286.058323 
L 353.446368 286.058323 
L 353.446368 286.058323 
L 513.7625 286.058323 
" style="fill:none;stroke:#00bfbf;stroke-linecap:square;"/>
   </g>
   <g id="line2d_34"/>
   <g id="line2d_35">
    <path clip-path="url(#pb7d8434b4a)" d="M 356.050122 359.056343 
L 356.050122 354.493967 
L 440.128689 354.493967 
L 440.128689 349.93159 
L 469.084217 349.93159 
L 469.084217 345.369214 
L 489.670725 345.369214 
L 489.670725 340.806838 
L 495.706835 340.806838 
L 495.706835 336.244462 
L 502.797131 336.244462 
L 502.797131 331.682085 
L 509.694967 331.682085 
L 509.694967 327.119709 
L 512.252271 327.119709 
L 512.252271 322.557333 
L 512.252271 322.557333 
L 512.252271 322.557333 
L 513.7625 322.557333 
" style="fill:none;stroke:#bf00bf;stroke-linecap:square;"/>
   </g>
   <g id="line2d_36"/>
   <g id="line2d_37"/>
   <g id="line2d_38">
    <path clip-path="url(#pb7d8434b4a)" d="M 513.7625 359.056343 
L 513.7625 13.456343 
" style="fill:none;stroke:#000000;stroke-linecap:square;"/>
   </g>
   <g id="patch_3">
    <path d="M 67.3625 13.456343 
L 513.7625 13.456343 
" style="fill:none;stroke:#000000;stroke-linecap:square;stroke-linejoin:miter;"/>
   </g>
   <g id="patch_4">
    <path d="M 513.7625 359.056343 
L 513.7625 13.456343 
" style="fill:none;stroke:#000000;stroke-linecap:square;stroke-linejoin:miter;"/>
   </g>
   <g id="patch_5">
    <path d="M 67.3625 359.056343 
L 513.7625 359.056343 
" style="fill:none;stroke:#000000;stroke-linecap:square;stroke-linejoin:miter;"/>
   </g>
   <g id="patch_6">
    <path d="M 67.3625 359.056343 
L 67.3625 13.456343 
" style="fill:none;stroke:#000000;stroke-linecap:square;stroke-linejoin:miter;"/>
   </g>
   <g id="matplotlib.axis_1">
    <g id="xtick_1">
     <g id="line2d_39">
      <path clip-path="url(#pb7d8434b4a)" d="M 67.3625 359.056343 
L 67.3625 13.456343 
" style="fill:none;stroke:#000000;stroke-dasharray:1.000000,3.000000;stroke-dashoffset:0.0;stroke-width:0.5;"/>
     </g>
     <g id="line2d_40">
      <defs>
       <path d="M 0 0 
L 0 -4 
" id="m49eaf112b6" style="stroke:#000000;stroke-width:0.5;"/>
      </defs>
      <g>
       <use style="stroke:#000000;stroke-width:0.5;" x="67.3625" xlink:href="#m49eaf112b6" y="359.056342822"/>
      </g>
     </g>
     <g id="line2d_41">
      <defs>
       <path d="M 0 0 
L 0 4 
" id="mcf1fa6bcc8" style="stroke:#000000;stroke-width:0.5;"/>
      </defs>
      <g>
       <use style="stroke:#000000;stroke-width:0.5;" x="67.3625" xlink:href="#mcf1fa6bcc8" y="13.4563428218"/>
      </g>
     </g>
     <g id="text_1">
      <!-- 0 -->
      <defs>
       <path d="M 31.78125 66.40625 
Q 24.171875 66.40625 20.328125 58.90625 
Q 16.5 51.421875 16.5 36.375 
Q 16.5 21.390625 20.328125 13.890625 
Q 24.171875 6.390625 31.78125 6.390625 
Q 39.453125 6.390625 43.28125 13.890625 
Q 47.125 21.390625 47.125 36.375 
Q 47.125 51.421875 43.28125 58.90625 
Q 39.453125 66.40625 31.78125 66.40625 
M 31.78125 74.21875 
Q 44.046875 74.21875 50.515625 64.515625 
Q 56.984375 54.828125 56.984375 36.375 
Q 56.984375 17.96875 50.515625 8.265625 
Q 44.046875 -1.421875 31.78125 -1.421875 
Q 19.53125 -1.421875 13.0625 8.265625 
Q 6.59375 17.96875 6.59375 36.375 
Q 6.59375 54.828125 13.0625 64.515625 
Q 19.53125 74.21875 31.78125 74.21875 
" id="BitstreamVeraSans-Roman-30"/>
      </defs>
      <g transform="translate(61.0 378.253217822)scale(0.2 -0.2)">
       <use xlink:href="#BitstreamVeraSans-Roman-30"/>
      </g>
     </g>
    </g>
    <g id="xtick_2">
     <g id="line2d_42">
      <path clip-path="url(#pb7d8434b4a)" d="M 178.962258 359.056343 
L 178.962258 13.456343 
" style="fill:none;stroke:#000000;stroke-dasharray:1.000000,3.000000;stroke-dashoffset:0.0;stroke-width:0.5;"/>
     </g>
     <g id="line2d_43">
      <g>
       <use style="stroke:#000000;stroke-width:0.5;" x="178.962257667" xlink:href="#m49eaf112b6" y="359.056342822"/>
      </g>
     </g>
     <g id="line2d_44">
      <g>
       <use style="stroke:#000000;stroke-width:0.5;" x="178.962257667" xlink:href="#mcf1fa6bcc8" y="13.4563428218"/>
      </g>
     </g>
     <g id="text_2">
      <!-- 1 -->
      <defs>
       <path d="M 12.40625 8.296875 
L 28.515625 8.296875 
L 28.515625 63.921875 
L 10.984375 60.40625 
L 10.984375 69.390625 
L 28.421875 72.90625 
L 38.28125 72.90625 
L 38.28125 8.296875 
L 54.390625 8.296875 
L 54.390625 0 
L 12.40625 0 
z
" id="BitstreamVeraSans-Roman-31"/>
      </defs>
      <g transform="translate(172.599757667 378.253217822)scale(0.2 -0.2)">
       <use xlink:href="#BitstreamVeraSans-Roman-31"/>
      </g>
     </g>
    </g>
    <g id="xtick_3">
     <g id="line2d_45">
      <path clip-path="url(#pb7d8434b4a)" d="M 290.562015 359.056343 
L 290.562015 13.456343 
" style="fill:none;stroke:#000000;stroke-dasharray:1.000000,3.000000;stroke-dashoffset:0.0;stroke-width:0.5;"/>
     </g>
     <g id="line2d_46">
      <g>
       <use style="stroke:#000000;stroke-width:0.5;" x="290.562015333" xlink:href="#m49eaf112b6" y="359.056342822"/>
      </g>
     </g>
     <g id="line2d_47">
      <g>
       <use style="stroke:#000000;stroke-width:0.5;" x="290.562015333" xlink:href="#mcf1fa6bcc8" y="13.4563428218"/>
      </g>
     </g>
     <g id="text_3">
      <!-- 2 -->
      <defs>
       <path d="M 19.1875 8.296875 
L 53.609375 8.296875 
L 53.609375 0 
L 7.328125 0 
L 7.328125 8.296875 
Q 12.9375 14.109375 22.625 23.890625 
Q 32.328125 33.6875 34.8125 36.53125 
Q 39.546875 41.84375 41.421875 45.53125 
Q 43.3125 49.21875 43.3125 52.78125 
Q 43.3125 58.59375 39.234375 62.25 
Q 35.15625 65.921875 28.609375 65.921875 
Q 23.96875 65.921875 18.8125 64.3125 
Q 13.671875 62.703125 7.8125 59.421875 
L 7.8125 69.390625 
Q 13.765625 71.78125 18.9375 73 
Q 24.125 74.21875 28.421875 74.21875 
Q 39.75 74.21875 46.484375 68.546875 
Q 53.21875 62.890625 53.21875 53.421875 
Q 53.21875 48.921875 51.53125 44.890625 
Q 49.859375 40.875 45.40625 35.40625 
Q 44.1875 33.984375 37.640625 27.21875 
Q 31.109375 20.453125 19.1875 8.296875 
" id="BitstreamVeraSans-Roman-32"/>
      </defs>
      <g transform="translate(284.199515333 378.253217822)scale(0.2 -0.2)">
       <use xlink:href="#BitstreamVeraSans-Roman-32"/>
      </g>
     </g>
    </g>
    <g id="xtick_4">
     <g id="line2d_48">
      <path clip-path="url(#pb7d8434b4a)" d="M 402.161773 359.056343 
L 402.161773 13.456343 
" style="fill:none;stroke:#000000;stroke-dasharray:1.000000,3.000000;stroke-dashoffset:0.0;stroke-width:0.5;"/>
     </g>
     <g id="line2d_49">
      <g>
       <use style="stroke:#000000;stroke-width:0.5;" x="402.161773" xlink:href="#m49eaf112b6" y="359.056342822"/>
      </g>
     </g>
     <g id="line2d_50">
      <g>
       <use style="stroke:#000000;stroke-width:0.5;" x="402.161773" xlink:href="#mcf1fa6bcc8" y="13.4563428218"/>
      </g>
     </g>
     <g id="text_4">
      <!-- 3 -->
      <defs>
       <path d="M 40.578125 39.3125 
Q 47.65625 37.796875 51.625 33 
Q 55.609375 28.21875 55.609375 21.1875 
Q 55.609375 10.40625 48.1875 4.484375 
Q 40.765625 -1.421875 27.09375 -1.421875 
Q 22.515625 -1.421875 17.65625 -0.515625 
Q 12.796875 0.390625 7.625 2.203125 
L 7.625 11.71875 
Q 11.71875 9.328125 16.59375 8.109375 
Q 21.484375 6.890625 26.8125 6.890625 
Q 36.078125 6.890625 40.9375 10.546875 
Q 45.796875 14.203125 45.796875 21.1875 
Q 45.796875 27.640625 41.28125 31.265625 
Q 36.765625 34.90625 28.71875 34.90625 
L 20.21875 34.90625 
L 20.21875 43.015625 
L 29.109375 43.015625 
Q 36.375 43.015625 40.234375 45.921875 
Q 44.09375 48.828125 44.09375 54.296875 
Q 44.09375 59.90625 40.109375 62.90625 
Q 36.140625 65.921875 28.71875 65.921875 
Q 24.65625 65.921875 20.015625 65.03125 
Q 15.375 64.15625 9.8125 62.3125 
L 9.8125 71.09375 
Q 15.4375 72.65625 20.34375 73.4375 
Q 25.25 74.21875 29.59375 74.21875 
Q 40.828125 74.21875 47.359375 69.109375 
Q 53.90625 64.015625 53.90625 55.328125 
Q 53.90625 49.265625 50.4375 45.09375 
Q 46.96875 40.921875 40.578125 39.3125 
" id="BitstreamVeraSans-Roman-33"/>
      </defs>
      <g transform="translate(395.799273 378.253217822)scale(0.2 -0.2)">
       <use xlink:href="#BitstreamVeraSans-Roman-33"/>
      </g>
     </g>
    </g>
    <g id="xtick_5">
     <g id="line2d_51">
      <path clip-path="url(#pb7d8434b4a)" d="M 513.761531 359.056343 
L 513.761531 13.456343 
" style="fill:none;stroke:#000000;stroke-dasharray:1.000000,3.000000;stroke-dashoffset:0.0;stroke-width:0.5;"/>
     </g>
     <g id="line2d_52">
      <g>
       <use style="stroke:#000000;stroke-width:0.5;" x="513.761530667" xlink:href="#m49eaf112b6" y="359.056342822"/>
      </g>
     </g>
     <g id="line2d_53">
      <g>
       <use style="stroke:#000000;stroke-width:0.5;" x="513.761530667" xlink:href="#mcf1fa6bcc8" y="13.4563428218"/>
      </g>
     </g>
     <g id="text_5">
      <!-- 4 -->
      <defs>
       <path d="M 37.796875 64.3125 
L 12.890625 25.390625 
L 37.796875 25.390625 
z
M 35.203125 72.90625 
L 47.609375 72.90625 
L 47.609375 25.390625 
L 58.015625 25.390625 
L 58.015625 17.1875 
L 47.609375 17.1875 
L 47.609375 0 
L 37.796875 0 
L 37.796875 17.1875 
L 4.890625 17.1875 
L 4.890625 26.703125 
z
" id="BitstreamVeraSans-Roman-34"/>
      </defs>
      <g transform="translate(507.399030667 378.253217822)scale(0.2 -0.2)">
       <use xlink:href="#BitstreamVeraSans-Roman-34"/>
      </g>
     </g>
    </g>
    <g id="xtick_6">
     <g id="line2d_54">
      <defs>
       <path d="M 0 0 
L 0 -2 
" id="m15a1527173" style="stroke:#000000;stroke-width:0.5;"/>
      </defs>
      <g>
       <use style="stroke:#000000;stroke-width:0.5;" x="100.957374566" xlink:href="#m15a1527173" y="359.056342822"/>
      </g>
     </g>
     <g id="line2d_55">
      <defs>
       <path d="M 0 0 
L 0 2 
" id="m5ba8b0b80e" style="stroke:#000000;stroke-width:0.5;"/>
      </defs>
      <g>
       <use style="stroke:#000000;stroke-width:0.5;" x="100.957374566" xlink:href="#m5ba8b0b80e" y="13.4563428218"/>
      </g>
     </g>
    </g>
    <g id="xtick_7">
     <g id="line2d_56">
      <g>
       <use style="stroke:#000000;stroke-width:0.5;" x="120.609116404" xlink:href="#m15a1527173" y="359.056342822"/>
      </g>
     </g>
     <g id="line2d_57">
      <g>
       <use style="stroke:#000000;stroke-width:0.5;" x="120.609116404" xlink:href="#m5ba8b0b80e" y="13.4563428218"/>
      </g>
     </g>
    </g>
    <g id="xtick_8">
     <g id="line2d_58">
      <g>
       <use style="stroke:#000000;stroke-width:0.5;" x="134.552249133" xlink:href="#m15a1527173" y="359.056342822"/>
      </g>
     </g>
     <g id="line2d_59">
      <g>
       <use style="stroke:#000000;stroke-width:0.5;" x="134.552249133" xlink:href="#m5ba8b0b80e" y="13.4563428218"/>
      </g>
     </g>
    </g>
    <g id="xtick_9">
     <g id="line2d_60">
      <g>
       <use style="stroke:#000000;stroke-width:0.5;" x="145.3673831" xlink:href="#m15a1527173" y="359.056342822"/>
      </g>
     </g>
     <g id="line2d_61">
      <g>
       <use style="stroke:#000000;stroke-width:0.5;" x="145.3673831" xlink:href="#m5ba8b0b80e" y="13.4563428218"/>
      </g>
     </g>
    </g>
    <g id="xtick_10">
     <g id="line2d_62">
      <g>
       <use style="stroke:#000000;stroke-width:0.5;" x="154.203990971" xlink:href="#m15a1527173" y="359.056342822"/>
      </g>
     </g>
     <g id="line2d_63">
      <g>
       <use style="stroke:#000000;stroke-width:0.5;" x="154.203990971" xlink:href="#m5ba8b0b80e" y="13.4563428218"/>
      </g>
     </g>
    </g>
    <g id="xtick_11">
     <g id="line2d_64">
      <g>
       <use style="stroke:#000000;stroke-width:0.5;" x="161.67523647" xlink:href="#m15a1527173" y="359.056342822"/>
      </g>
     </g>
     <g id="line2d_65">
      <g>
       <use style="stroke:#000000;stroke-width:0.5;" x="161.67523647" xlink:href="#m5ba8b0b80e" y="13.4563428218"/>
      </g>
     </g>
    </g>
    <g id="xtick_12">
     <g id="line2d_66">
      <g>
       <use style="stroke:#000000;stroke-width:0.5;" x="168.147123699" xlink:href="#m15a1527173" y="359.056342822"/>
      </g>
     </g>
     <g id="line2d_67">
      <g>
       <use style="stroke:#000000;stroke-width:0.5;" x="168.147123699" xlink:href="#m5ba8b0b80e" y="13.4563428218"/>
      </g>
     </g>
    </g>
    <g id="xtick_13">
     <g id="line2d_68">
      <g>
       <use style="stroke:#000000;stroke-width:0.5;" x="173.855732809" xlink:href="#m15a1527173" y="359.056342822"/>
      </g>
     </g>
     <g id="line2d_69">
      <g>
       <use style="stroke:#000000;stroke-width:0.5;" x="173.855732809" xlink:href="#m5ba8b0b80e" y="13.4563428218"/>
      </g>
     </g>
    </g>
    <g id="xtick_14">
     <g id="line2d_70">
      <g>
       <use style="stroke:#000000;stroke-width:0.5;" x="212.557132233" xlink:href="#m15a1527173" y="359.056342822"/>
      </g>
     </g>
     <g id="line2d_71">
      <g>
       <use style="stroke:#000000;stroke-width:0.5;" x="212.557132233" xlink:href="#m5ba8b0b80e" y="13.4563428218"/>
      </g>
     </g>
    </g>
    <g id="xtick_15">
     <g id="line2d_72">
      <g>
       <use style="stroke:#000000;stroke-width:0.5;" x="232.208874071" xlink:href="#m15a1527173" y="359.056342822"/>
      </g>
     </g>
     <g id="line2d_73">
      <g>
       <use style="stroke:#000000;stroke-width:0.5;" x="232.208874071" xlink:href="#m5ba8b0b80e" y="13.4563428218"/>
      </g>
     </g>
    </g>
    <g id="xtick_16">
     <g id="line2d_74">
      <g>
       <use style="stroke:#000000;stroke-width:0.5;" x="246.1520068" xlink:href="#m15a1527173" y="359.056342822"/>
      </g>
     </g>
     <g id="line2d_75">
      <g>
       <use style="stroke:#000000;stroke-width:0.5;" x="246.1520068" xlink:href="#m5ba8b0b80e" y="13.4563428218"/>
      </g>
     </g>
    </g>
    <g id="xtick_17">
     <g id="line2d_76">
      <g>
       <use style="stroke:#000000;stroke-width:0.5;" x="256.967140767" xlink:href="#m15a1527173" y="359.056342822"/>
      </g>
     </g>
     <g id="line2d_77">
      <g>
       <use style="stroke:#000000;stroke-width:0.5;" x="256.967140767" xlink:href="#m5ba8b0b80e" y="13.4563428218"/>
      </g>
     </g>
    </g>
    <g id="xtick_18">
     <g id="line2d_78">
      <g>
       <use style="stroke:#000000;stroke-width:0.5;" x="265.803748637" xlink:href="#m15a1527173" y="359.056342822"/>
      </g>
     </g>
     <g id="line2d_79">
      <g>
       <use style="stroke:#000000;stroke-width:0.5;" x="265.803748637" xlink:href="#m5ba8b0b80e" y="13.4563428218"/>
      </g>
     </g>
    </g>
    <g id="xtick_19">
     <g id="line2d_80">
      <g>
       <use style="stroke:#000000;stroke-width:0.5;" x="273.274994137" xlink:href="#m15a1527173" y="359.056342822"/>
      </g>
     </g>
     <g id="line2d_81">
      <g>
       <use style="stroke:#000000;stroke-width:0.5;" x="273.274994137" xlink:href="#m5ba8b0b80e" y="13.4563428218"/>
      </g>
     </g>
    </g>
    <g id="xtick_20">
     <g id="line2d_82">
      <g>
       <use style="stroke:#000000;stroke-width:0.5;" x="279.746881366" xlink:href="#m15a1527173" y="359.056342822"/>
      </g>
     </g>
     <g id="line2d_83">
      <g>
       <use style="stroke:#000000;stroke-width:0.5;" x="279.746881366" xlink:href="#m5ba8b0b80e" y="13.4563428218"/>
      </g>
     </g>
    </g>
    <g id="xtick_21">
     <g id="line2d_84">
      <g>
       <use style="stroke:#000000;stroke-width:0.5;" x="285.455490475" xlink:href="#m15a1527173" y="359.056342822"/>
      </g>
     </g>
     <g id="line2d_85">
      <g>
       <use style="stroke:#000000;stroke-width:0.5;" x="285.455490475" xlink:href="#m5ba8b0b80e" y="13.4563428218"/>
      </g>
     </g>
    </g>
    <g id="xtick_22">
     <g id="line2d_86">
      <g>
       <use style="stroke:#000000;stroke-width:0.5;" x="324.1568899" xlink:href="#m15a1527173" y="359.056342822"/>
      </g>
     </g>
     <g id="line2d_87">
      <g>
       <use style="stroke:#000000;stroke-width:0.5;" x="324.1568899" xlink:href="#m5ba8b0b80e" y="13.4563428218"/>
      </g>
     </g>
    </g>
    <g id="xtick_23">
     <g id="line2d_88">
      <g>
       <use style="stroke:#000000;stroke-width:0.5;" x="343.808631738" xlink:href="#m15a1527173" y="359.056342822"/>
      </g>
     </g>
     <g id="line2d_89">
      <g>
       <use style="stroke:#000000;stroke-width:0.5;" x="343.808631738" xlink:href="#m5ba8b0b80e" y="13.4563428218"/>
      </g>
     </g>
    </g>
    <g id="xtick_24">
     <g id="line2d_90">
      <g>
       <use style="stroke:#000000;stroke-width:0.5;" x="357.751764466" xlink:href="#m15a1527173" y="359.056342822"/>
      </g>
     </g>
     <g id="line2d_91">
      <g>
       <use style="stroke:#000000;stroke-width:0.5;" x="357.751764466" xlink:href="#m5ba8b0b80e" y="13.4563428218"/>
      </g>
     </g>
    </g>
    <g id="xtick_25">
     <g id="line2d_92">
      <g>
       <use style="stroke:#000000;stroke-width:0.5;" x="368.566898433" xlink:href="#m15a1527173" y="359.056342822"/>
      </g>
     </g>
     <g id="line2d_93">
      <g>
       <use style="stroke:#000000;stroke-width:0.5;" x="368.566898433" xlink:href="#m5ba8b0b80e" y="13.4563428218"/>
      </g>
     </g>
    </g>
    <g id="xtick_26">
     <g id="line2d_94">
      <g>
       <use style="stroke:#000000;stroke-width:0.5;" x="377.403506304" xlink:href="#m15a1527173" y="359.056342822"/>
      </g>
     </g>
     <g id="line2d_95">
      <g>
       <use style="stroke:#000000;stroke-width:0.5;" x="377.403506304" xlink:href="#m5ba8b0b80e" y="13.4563428218"/>
      </g>
     </g>
    </g>
    <g id="xtick_27">
     <g id="line2d_96">
      <g>
       <use style="stroke:#000000;stroke-width:0.5;" x="384.874751803" xlink:href="#m15a1527173" y="359.056342822"/>
      </g>
     </g>
     <g id="line2d_97">
      <g>
       <use style="stroke:#000000;stroke-width:0.5;" x="384.874751803" xlink:href="#m5ba8b0b80e" y="13.4563428218"/>
      </g>
     </g>
    </g>
    <g id="xtick_28">
     <g id="line2d_98">
      <g>
       <use style="stroke:#000000;stroke-width:0.5;" x="391.346639033" xlink:href="#m15a1527173" y="359.056342822"/>
      </g>
     </g>
     <g id="line2d_99">
      <g>
       <use style="stroke:#000000;stroke-width:0.5;" x="391.346639033" xlink:href="#m5ba8b0b80e" y="13.4563428218"/>
      </g>
     </g>
    </g>
    <g id="xtick_29">
     <g id="line2d_100">
      <g>
       <use style="stroke:#000000;stroke-width:0.5;" x="397.055248142" xlink:href="#m15a1527173" y="359.056342822"/>
      </g>
     </g>
     <g id="line2d_101">
      <g>
       <use style="stroke:#000000;stroke-width:0.5;" x="397.055248142" xlink:href="#m5ba8b0b80e" y="13.4563428218"/>
      </g>
     </g>
    </g>
    <g id="xtick_30">
     <g id="line2d_102">
      <g>
       <use style="stroke:#000000;stroke-width:0.5;" x="435.756647566" xlink:href="#m15a1527173" y="359.056342822"/>
      </g>
     </g>
     <g id="line2d_103">
      <g>
       <use style="stroke:#000000;stroke-width:0.5;" x="435.756647566" xlink:href="#m5ba8b0b80e" y="13.4563428218"/>
      </g>
     </g>
    </g>
    <g id="xtick_31">
     <g id="line2d_104">
      <g>
       <use style="stroke:#000000;stroke-width:0.5;" x="455.408389404" xlink:href="#m15a1527173" y="359.056342822"/>
      </g>
     </g>
     <g id="line2d_105">
      <g>
       <use style="stroke:#000000;stroke-width:0.5;" x="455.408389404" xlink:href="#m5ba8b0b80e" y="13.4563428218"/>
      </g>
     </g>
    </g>
    <g id="xtick_32">
     <g id="line2d_106">
      <g>
       <use style="stroke:#000000;stroke-width:0.5;" x="469.351522133" xlink:href="#m15a1527173" y="359.056342822"/>
      </g>
     </g>
     <g id="line2d_107">
      <g>
       <use style="stroke:#000000;stroke-width:0.5;" x="469.351522133" xlink:href="#m5ba8b0b80e" y="13.4563428218"/>
      </g>
     </g>
    </g>
    <g id="xtick_33">
     <g id="line2d_108">
      <g>
       <use style="stroke:#000000;stroke-width:0.5;" x="480.1666561" xlink:href="#m15a1527173" y="359.056342822"/>
      </g>
     </g>
     <g id="line2d_109">
      <g>
       <use style="stroke:#000000;stroke-width:0.5;" x="480.1666561" xlink:href="#m5ba8b0b80e" y="13.4563428218"/>
      </g>
     </g>
    </g>
    <g id="xtick_34">
     <g id="line2d_110">
      <g>
       <use style="stroke:#000000;stroke-width:0.5;" x="489.003263971" xlink:href="#m15a1527173" y="359.056342822"/>
      </g>
     </g>
     <g id="line2d_111">
      <g>
       <use style="stroke:#000000;stroke-width:0.5;" x="489.003263971" xlink:href="#m5ba8b0b80e" y="13.4563428218"/>
      </g>
     </g>
    </g>
    <g id="xtick_35">
     <g id="line2d_112">
      <g>
       <use style="stroke:#000000;stroke-width:0.5;" x="496.47450947" xlink:href="#m15a1527173" y="359.056342822"/>
      </g>
     </g>
     <g id="line2d_113">
      <g>
       <use style="stroke:#000000;stroke-width:0.5;" x="496.47450947" xlink:href="#m5ba8b0b80e" y="13.4563428218"/>
      </g>
     </g>
    </g>
    <g id="xtick_36">
     <g id="line2d_114">
      <g>
       <use style="stroke:#000000;stroke-width:0.5;" x="502.946396699" xlink:href="#m15a1527173" y="359.056342822"/>
      </g>
     </g>
     <g id="line2d_115">
      <g>
       <use style="stroke:#000000;stroke-width:0.5;" x="502.946396699" xlink:href="#m5ba8b0b80e" y="13.4563428218"/>
      </g>
     </g>
    </g>
    <g id="xtick_37">
     <g id="line2d_116">
      <g>
       <use style="stroke:#000000;stroke-width:0.5;" x="508.655005809" xlink:href="#m15a1527173" y="359.056342822"/>
      </g>
     </g>
     <g id="line2d_117">
      <g>
       <use style="stroke:#000000;stroke-width:0.5;" x="508.655005809" xlink:href="#m5ba8b0b80e" y="13.4563428218"/>
      </g>
     </g>
    </g>
    <g id="text_6">
     <!-- log10 of FEvals / DIM -->
     <defs>
      <path id="BitstreamVeraSans-Roman-20"/>
      <path d="M 9.8125 72.90625 
L 24.515625 72.90625 
L 43.109375 23.296875 
L 61.8125 72.90625 
L 76.515625 72.90625 
L 76.515625 0 
L 66.890625 0 
L 66.890625 64.015625 
L 48.09375 14.015625 
L 38.1875 14.015625 
L 19.390625 64.015625 
L 19.390625 0 
L 9.8125 0 
z
" id="BitstreamVeraSans-Roman-4d"/>
      <path d="M 30.609375 48.390625 
Q 23.390625 48.390625 19.1875 42.75 
Q 14.984375 37.109375 14.984375 27.296875 
Q 14.984375 17.484375 19.15625 11.84375 
Q 23.34375 6.203125 30.609375 6.203125 
Q 37.796875 6.203125 41.984375 11.859375 
Q 46.1875 17.53125 46.1875 27.296875 
Q 46.1875 37.015625 41.984375 42.703125 
Q 37.796875 48.390625 30.609375 48.390625 
M 30.609375 56 
Q 42.328125 56 49.015625 48.375 
Q 55.71875 40.765625 55.71875 27.296875 
Q 55.71875 13.875 49.015625 6.21875 
Q 42.328125 -1.421875 30.609375 -1.421875 
Q 18.84375 -1.421875 12.171875 6.21875 
Q 5.515625 13.875 5.515625 27.296875 
Q 5.515625 40.765625 12.171875 48.375 
Q 18.84375 56 30.609375 56 
" id="BitstreamVeraSans-Roman-6f"/>
      <path d="M 9.421875 75.984375 
L 18.40625 75.984375 
L 18.40625 0 
L 9.421875 0 
z
" id="BitstreamVeraSans-Roman-6c"/>
      <path d="M 9.8125 72.90625 
L 51.703125 72.90625 
L 51.703125 64.59375 
L 19.671875 64.59375 
L 19.671875 43.109375 
L 48.578125 43.109375 
L 48.578125 34.8125 
L 19.671875 34.8125 
L 19.671875 0 
L 9.8125 0 
z
" id="BitstreamVeraSans-Roman-46"/>
      <path d="M 9.8125 72.90625 
L 55.90625 72.90625 
L 55.90625 64.59375 
L 19.671875 64.59375 
L 19.671875 43.015625 
L 54.390625 43.015625 
L 54.390625 34.71875 
L 19.671875 34.71875 
L 19.671875 8.296875 
L 56.78125 8.296875 
L 56.78125 0 
L 9.8125 0 
z
" id="BitstreamVeraSans-Roman-45"/>
      <path d="M 19.671875 64.796875 
L 19.671875 8.109375 
L 31.59375 8.109375 
Q 46.6875 8.109375 53.6875 14.9375 
Q 60.6875 21.78125 60.6875 36.53125 
Q 60.6875 51.171875 53.6875 57.984375 
Q 46.6875 64.796875 31.59375 64.796875 
z
M 9.8125 72.90625 
L 30.078125 72.90625 
Q 51.265625 72.90625 61.171875 64.09375 
Q 71.09375 55.28125 71.09375 36.53125 
Q 71.09375 17.671875 61.125 8.828125 
Q 51.171875 0 30.078125 0 
L 9.8125 0 
z
" id="BitstreamVeraSans-Roman-44"/>
      <path d="M 25.390625 72.90625 
L 33.6875 72.90625 
L 8.296875 -9.28125 
L 0 -9.28125 
z
" id="BitstreamVeraSans-Roman-2f"/>
      <path d="M 2.984375 54.6875 
L 12.5 54.6875 
L 29.59375 8.796875 
L 46.6875 54.6875 
L 56.203125 54.6875 
L 35.6875 0 
L 23.484375 0 
z
" id="BitstreamVeraSans-Roman-76"/>
      <path d="M 45.40625 27.984375 
Q 45.40625 37.75 41.375 43.109375 
Q 37.359375 48.484375 30.078125 48.484375 
Q 22.859375 48.484375 18.828125 43.109375 
Q 14.796875 37.75 14.796875 27.984375 
Q 14.796875 18.265625 18.828125 12.890625 
Q 22.859375 7.515625 30.078125 7.515625 
Q 37.359375 7.515625 41.375 12.890625 
Q 45.40625 18.265625 45.40625 27.984375 
M 54.390625 6.78125 
Q 54.390625 -7.171875 48.1875 -13.984375 
Q 42 -20.796875 29.203125 -20.796875 
Q 24.46875 -20.796875 20.265625 -20.09375 
Q 16.0625 -19.390625 12.109375 -17.921875 
L 12.109375 -9.1875 
Q 16.0625 -11.328125 19.921875 -12.34375 
Q 23.78125 -13.375 27.78125 -13.375 
Q 36.625 -13.375 41.015625 -8.765625 
Q 45.40625 -4.15625 45.40625 5.171875 
L 45.40625 9.625 
Q 42.625 4.78125 38.28125 2.390625 
Q 33.9375 0 27.875 0 
Q 17.828125 0 11.671875 7.65625 
Q 5.515625 15.328125 5.515625 27.984375 
Q 5.515625 40.671875 11.671875 48.328125 
Q 17.828125 56 27.875 56 
Q 33.9375 56 38.28125 53.609375 
Q 42.625 51.21875 45.40625 46.390625 
L 45.40625 54.6875 
L 54.390625 54.6875 
z
" id="BitstreamVeraSans-Roman-67"/>
      <path d="M 37.109375 75.984375 
L 37.109375 68.5 
L 28.515625 68.5 
Q 23.6875 68.5 21.796875 66.546875 
Q 19.921875 64.59375 19.921875 59.515625 
L 19.921875 54.6875 
L 34.71875 54.6875 
L 34.71875 47.703125 
L 19.921875 47.703125 
L 19.921875 0 
L 10.890625 0 
L 10.890625 47.703125 
L 2.296875 47.703125 
L 2.296875 54.6875 
L 10.890625 54.6875 
L 10.890625 58.5 
Q 10.890625 67.625 15.140625 71.796875 
Q 19.390625 75.984375 28.609375 75.984375 
z
" id="BitstreamVeraSans-Roman-66"/>
      <path d="M 34.28125 27.484375 
Q 23.390625 27.484375 19.1875 25 
Q 14.984375 22.515625 14.984375 16.5 
Q 14.984375 11.71875 18.140625 8.90625 
Q 21.296875 6.109375 26.703125 6.109375 
Q 34.1875 6.109375 38.703125 11.40625 
Q 43.21875 16.703125 43.21875 25.484375 
L 43.21875 27.484375 
z
M 52.203125 31.203125 
L 52.203125 0 
L 43.21875 0 
L 43.21875 8.296875 
Q 40.140625 3.328125 35.546875 0.953125 
Q 30.953125 -1.421875 24.3125 -1.421875 
Q 15.921875 -1.421875 10.953125 3.296875 
Q 6 8.015625 6 15.921875 
Q 6 25.140625 12.171875 29.828125 
Q 18.359375 34.515625 30.609375 34.515625 
L 43.21875 34.515625 
L 43.21875 35.40625 
Q 43.21875 41.609375 39.140625 45 
Q 35.0625 48.390625 27.6875 48.390625 
Q 23 48.390625 18.546875 47.265625 
Q 14.109375 46.140625 10.015625 43.890625 
L 10.015625 52.203125 
Q 14.9375 54.109375 19.578125 55.046875 
Q 24.21875 56 28.609375 56 
Q 40.484375 56 46.34375 49.84375 
Q 52.203125 43.703125 52.203125 31.203125 
" id="BitstreamVeraSans-Roman-61"/>
      <path d="M 44.28125 53.078125 
L 44.28125 44.578125 
Q 40.484375 46.53125 36.375 47.5 
Q 32.28125 48.484375 27.875 48.484375 
Q 21.1875 48.484375 17.84375 46.4375 
Q 14.5 44.390625 14.5 40.28125 
Q 14.5 37.15625 16.890625 35.375 
Q 19.28125 33.59375 26.515625 31.984375 
L 29.59375 31.296875 
Q 39.15625 29.25 43.1875 25.515625 
Q 47.21875 21.78125 47.21875 15.09375 
Q 47.21875 7.46875 41.1875 3.015625 
Q 35.15625 -1.421875 24.609375 -1.421875 
Q 20.21875 -1.421875 15.453125 -0.5625 
Q 10.6875 0.296875 5.421875 2 
L 5.421875 11.28125 
Q 10.40625 8.6875 15.234375 7.390625 
Q 20.0625 6.109375 24.8125 6.109375 
Q 31.15625 6.109375 34.5625 8.28125 
Q 37.984375 10.453125 37.984375 14.40625 
Q 37.984375 18.0625 35.515625 20.015625 
Q 33.0625 21.96875 24.703125 23.78125 
L 21.578125 24.515625 
Q 13.234375 26.265625 9.515625 29.90625 
Q 5.8125 33.546875 5.8125 39.890625 
Q 5.8125 47.609375 11.28125 51.796875 
Q 16.75 56 26.8125 56 
Q 31.78125 56 36.171875 55.265625 
Q 40.578125 54.546875 44.28125 53.078125 
" id="BitstreamVeraSans-Roman-73"/>
      <path d="M 9.8125 72.90625 
L 19.671875 72.90625 
L 19.671875 0 
L 9.8125 0 
z
" id="BitstreamVeraSans-Roman-49"/>
     </defs>
     <g transform="translate(185.4890625 402.609467822)scale(0.2 -0.2)">
      <use xlink:href="#BitstreamVeraSans-Roman-6c"/>
      <use x="27.783203125" xlink:href="#BitstreamVeraSans-Roman-6f"/>
      <use x="88.96484375" xlink:href="#BitstreamVeraSans-Roman-67"/>
      <use x="152.44140625" xlink:href="#BitstreamVeraSans-Roman-31"/>
      <use x="216.064453125" xlink:href="#BitstreamVeraSans-Roman-30"/>
      <use x="279.6875" xlink:href="#BitstreamVeraSans-Roman-20"/>
      <use x="311.474609375" xlink:href="#BitstreamVeraSans-Roman-6f"/>
      <use x="372.65625" xlink:href="#BitstreamVeraSans-Roman-66"/>
      <use x="407.861328125" xlink:href="#BitstreamVeraSans-Roman-20"/>
      <use x="439.6484375" xlink:href="#BitstreamVeraSans-Roman-46"/>
      <use x="497.16796875" xlink:href="#BitstreamVeraSans-Roman-45"/>
      <use x="560.3515625" xlink:href="#BitstreamVeraSans-Roman-76"/>
      <use x="619.53125" xlink:href="#BitstreamVeraSans-Roman-61"/>
      <use x="680.810546875" xlink:href="#BitstreamVeraSans-Roman-6c"/>
      <use x="708.59375" xlink:href="#BitstreamVeraSans-Roman-73"/>
      <use x="760.693359375" xlink:href="#BitstreamVeraSans-Roman-20"/>
      <use x="792.48046875" xlink:href="#BitstreamVeraSans-Roman-2f"/>
      <use x="826.171875" xlink:href="#BitstreamVeraSans-Roman-20"/>
      <use x="857.958984375" xlink:href="#BitstreamVeraSans-Roman-44"/>
      <use x="934.9609375" xlink:href="#BitstreamVeraSans-Roman-49"/>
      <use x="964.453125" xlink:href="#BitstreamVeraSans-Roman-4d"/>
     </g>
    </g>
   </g>
   <g id="matplotlib.axis_2">
    <g id="ytick_1">
     <g id="line2d_118">
      <path clip-path="url(#pb7d8434b4a)" d="M 67.3625 359.056343 
L 513.7625 359.056343 
" style="fill:none;stroke:#000000;stroke-dasharray:1.000000,3.000000;stroke-dashoffset:0.0;stroke-width:0.5;"/>
     </g>
     <g id="line2d_119">
      <defs>
       <path d="M 0 0 
L 4 0 
" id="m657390fe1a" style="stroke:#000000;stroke-width:0.5;"/>
      </defs>
      <g>
       <use style="stroke:#000000;stroke-width:0.5;" x="67.3625" xlink:href="#m657390fe1a" y="359.056342822"/>
      </g>
     </g>
     <g id="line2d_120">
      <defs>
       <path d="M 0 0 
L -4 0 
" id="ma8fa997df4" style="stroke:#000000;stroke-width:0.5;"/>
      </defs>
      <g>
       <use style="stroke:#000000;stroke-width:0.5;" x="513.7625" xlink:href="#ma8fa997df4" y="359.056342822"/>
      </g>
     </g>
     <g id="text_7">
      <!-- 0.0 -->
      <defs>
       <path d="M 10.6875 12.40625 
L 21 12.40625 
L 21 0 
L 10.6875 0 
z
" id="BitstreamVeraSans-Roman-2e"/>
      </defs>
      <g transform="translate(31.55625 364.575092822)scale(0.2 -0.2)">
       <use xlink:href="#BitstreamVeraSans-Roman-30"/>
       <use x="63.623046875" xlink:href="#BitstreamVeraSans-Roman-2e"/>
       <use x="95.41015625" xlink:href="#BitstreamVeraSans-Roman-30"/>
      </g>
     </g>
    </g>
    <g id="ytick_2">
     <g id="line2d_121">
      <path clip-path="url(#pb7d8434b4a)" d="M 67.3625 290.620699 
L 513.7625 290.620699 
" style="fill:none;stroke:#000000;stroke-dasharray:1.000000,3.000000;stroke-dashoffset:0.0;stroke-width:0.5;"/>
     </g>
     <g id="line2d_122">
      <g>
       <use style="stroke:#000000;stroke-width:0.5;" x="67.3625" xlink:href="#m657390fe1a" y="290.620699257"/>
      </g>
     </g>
     <g id="line2d_123">
      <g>
       <use style="stroke:#000000;stroke-width:0.5;" x="513.7625" xlink:href="#ma8fa997df4" y="290.620699257"/>
      </g>
     </g>
     <g id="text_8">
      <!-- 0.2 -->
      <g transform="translate(31.55625 296.139449257)scale(0.2 -0.2)">
       <use xlink:href="#BitstreamVeraSans-Roman-30"/>
       <use x="63.623046875" xlink:href="#BitstreamVeraSans-Roman-2e"/>
       <use x="95.41015625" xlink:href="#BitstreamVeraSans-Roman-32"/>
      </g>
     </g>
    </g>
    <g id="ytick_3">
     <g id="line2d_124">
      <path clip-path="url(#pb7d8434b4a)" d="M 67.3625 222.185056 
L 513.7625 222.185056 
" style="fill:none;stroke:#000000;stroke-dasharray:1.000000,3.000000;stroke-dashoffset:0.0;stroke-width:0.5;"/>
     </g>
     <g id="line2d_125">
      <g>
       <use style="stroke:#000000;stroke-width:0.5;" x="67.3625" xlink:href="#m657390fe1a" y="222.185055693"/>
      </g>
     </g>
     <g id="line2d_126">
      <g>
       <use style="stroke:#000000;stroke-width:0.5;" x="513.7625" xlink:href="#ma8fa997df4" y="222.185055693"/>
      </g>
     </g>
     <g id="text_9">
      <!-- 0.4 -->
      <g transform="translate(31.55625 227.703805693)scale(0.2 -0.2)">
       <use xlink:href="#BitstreamVeraSans-Roman-30"/>
       <use x="63.623046875" xlink:href="#BitstreamVeraSans-Roman-2e"/>
       <use x="95.41015625" xlink:href="#BitstreamVeraSans-Roman-34"/>
      </g>
     </g>
    </g>
    <g id="ytick_4">
     <g id="line2d_127">
      <path clip-path="url(#pb7d8434b4a)" d="M 67.3625 153.749412 
L 513.7625 153.749412 
" style="fill:none;stroke:#000000;stroke-dasharray:1.000000,3.000000;stroke-dashoffset:0.0;stroke-width:0.5;"/>
     </g>
     <g id="line2d_128">
      <g>
       <use style="stroke:#000000;stroke-width:0.5;" x="67.3625" xlink:href="#m657390fe1a" y="153.749412129"/>
      </g>
     </g>
     <g id="line2d_129">
      <g>
       <use style="stroke:#000000;stroke-width:0.5;" x="513.7625" xlink:href="#ma8fa997df4" y="153.749412129"/>
      </g>
     </g>
     <g id="text_10">
      <!-- 0.6 -->
      <defs>
       <path d="M 33.015625 40.375 
Q 26.375 40.375 22.484375 35.828125 
Q 18.609375 31.296875 18.609375 23.390625 
Q 18.609375 15.53125 22.484375 10.953125 
Q 26.375 6.390625 33.015625 6.390625 
Q 39.65625 6.390625 43.53125 10.953125 
Q 47.40625 15.53125 47.40625 23.390625 
Q 47.40625 31.296875 43.53125 35.828125 
Q 39.65625 40.375 33.015625 40.375 
M 52.59375 71.296875 
L 52.59375 62.3125 
Q 48.875 64.0625 45.09375 64.984375 
Q 41.3125 65.921875 37.59375 65.921875 
Q 27.828125 65.921875 22.671875 59.328125 
Q 17.53125 52.734375 16.796875 39.40625 
Q 19.671875 43.65625 24.015625 45.921875 
Q 28.375 48.1875 33.59375 48.1875 
Q 44.578125 48.1875 50.953125 41.515625 
Q 57.328125 34.859375 57.328125 23.390625 
Q 57.328125 12.15625 50.6875 5.359375 
Q 44.046875 -1.421875 33.015625 -1.421875 
Q 20.359375 -1.421875 13.671875 8.265625 
Q 6.984375 17.96875 6.984375 36.375 
Q 6.984375 53.65625 15.1875 63.9375 
Q 23.390625 74.21875 37.203125 74.21875 
Q 40.921875 74.21875 44.703125 73.484375 
Q 48.484375 72.75 52.59375 71.296875 
" id="BitstreamVeraSans-Roman-36"/>
      </defs>
      <g transform="translate(31.55625 159.268162129)scale(0.2 -0.2)">
       <use xlink:href="#BitstreamVeraSans-Roman-30"/>
       <use x="63.623046875" xlink:href="#BitstreamVeraSans-Roman-2e"/>
       <use x="95.41015625" xlink:href="#BitstreamVeraSans-Roman-36"/>
      </g>
     </g>
    </g>
    <g id="ytick_5">
     <g id="line2d_130">
      <path clip-path="url(#pb7d8434b4a)" d="M 67.3625 85.313769 
L 513.7625 85.313769 
" style="fill:none;stroke:#000000;stroke-dasharray:1.000000,3.000000;stroke-dashoffset:0.0;stroke-width:0.5;"/>
     </g>
     <g id="line2d_131">
      <g>
       <use style="stroke:#000000;stroke-width:0.5;" x="67.3625" xlink:href="#m657390fe1a" y="85.3137685644"/>
      </g>
     </g>
     <g id="line2d_132">
      <g>
       <use style="stroke:#000000;stroke-width:0.5;" x="513.7625" xlink:href="#ma8fa997df4" y="85.3137685644"/>
      </g>
     </g>
     <g id="text_11">
      <!-- 0.8 -->
      <defs>
       <path d="M 31.78125 34.625 
Q 24.75 34.625 20.71875 30.859375 
Q 16.703125 27.09375 16.703125 20.515625 
Q 16.703125 13.921875 20.71875 10.15625 
Q 24.75 6.390625 31.78125 6.390625 
Q 38.8125 6.390625 42.859375 10.171875 
Q 46.921875 13.96875 46.921875 20.515625 
Q 46.921875 27.09375 42.890625 30.859375 
Q 38.875 34.625 31.78125 34.625 
M 21.921875 38.8125 
Q 15.578125 40.375 12.03125 44.71875 
Q 8.5 49.078125 8.5 55.328125 
Q 8.5 64.0625 14.71875 69.140625 
Q 20.953125 74.21875 31.78125 74.21875 
Q 42.671875 74.21875 48.875 69.140625 
Q 55.078125 64.0625 55.078125 55.328125 
Q 55.078125 49.078125 51.53125 44.71875 
Q 48 40.375 41.703125 38.8125 
Q 48.828125 37.15625 52.796875 32.3125 
Q 56.78125 27.484375 56.78125 20.515625 
Q 56.78125 9.90625 50.3125 4.234375 
Q 43.84375 -1.421875 31.78125 -1.421875 
Q 19.734375 -1.421875 13.25 4.234375 
Q 6.78125 9.90625 6.78125 20.515625 
Q 6.78125 27.484375 10.78125 32.3125 
Q 14.796875 37.15625 21.921875 38.8125 
M 18.3125 54.390625 
Q 18.3125 48.734375 21.84375 45.5625 
Q 25.390625 42.390625 31.78125 42.390625 
Q 38.140625 42.390625 41.71875 45.5625 
Q 45.3125 48.734375 45.3125 54.390625 
Q 45.3125 60.0625 41.71875 63.234375 
Q 38.140625 66.40625 31.78125 66.40625 
Q 25.390625 66.40625 21.84375 63.234375 
Q 18.3125 60.0625 18.3125 54.390625 
" id="BitstreamVeraSans-Roman-38"/>
      </defs>
      <g transform="translate(31.55625 90.8325185644)scale(0.2 -0.2)">
       <use xlink:href="#BitstreamVeraSans-Roman-30"/>
       <use x="63.623046875" xlink:href="#BitstreamVeraSans-Roman-2e"/>
       <use x="95.41015625" xlink:href="#BitstreamVeraSans-Roman-38"/>
      </g>
     </g>
    </g>
    <g id="ytick_6">
     <g id="line2d_133">
      <path clip-path="url(#pb7d8434b4a)" d="M 67.3625 16.878125 
L 513.7625 16.878125 
" style="fill:none;stroke:#000000;stroke-dasharray:1.000000,3.000000;stroke-dashoffset:0.0;stroke-width:0.5;"/>
     </g>
     <g id="line2d_134">
      <g>
       <use style="stroke:#000000;stroke-width:0.5;" x="67.3625" xlink:href="#m657390fe1a" y="16.878125"/>
      </g>
     </g>
     <g id="line2d_135">
      <g>
       <use style="stroke:#000000;stroke-width:0.5;" x="513.7625" xlink:href="#ma8fa997df4" y="16.878125"/>
      </g>
     </g>
     <g id="text_12">
      <!-- 1.0 -->
      <g transform="translate(31.55625 22.396875)scale(0.2 -0.2)">
       <use xlink:href="#BitstreamVeraSans-Roman-31"/>
       <use x="63.623046875" xlink:href="#BitstreamVeraSans-Roman-2e"/>
       <use x="95.41015625" xlink:href="#BitstreamVeraSans-Roman-30"/>
      </g>
     </g>
    </g>
    <g id="text_13">
     <!-- proportion of trials -->
     <defs>
      <path d="M 54.890625 33.015625 
L 54.890625 0 
L 45.90625 0 
L 45.90625 32.71875 
Q 45.90625 40.484375 42.875 44.328125 
Q 39.84375 48.1875 33.796875 48.1875 
Q 26.515625 48.1875 22.3125 43.546875 
Q 18.109375 38.921875 18.109375 30.90625 
L 18.109375 0 
L 9.078125 0 
L 9.078125 54.6875 
L 18.109375 54.6875 
L 18.109375 46.1875 
Q 21.34375 51.125 25.703125 53.5625 
Q 30.078125 56 35.796875 56 
Q 45.21875 56 50.046875 50.171875 
Q 54.890625 44.34375 54.890625 33.015625 
" id="BitstreamVeraSans-Roman-6e"/>
      <path d="M 9.421875 54.6875 
L 18.40625 54.6875 
L 18.40625 0 
L 9.421875 0 
z
M 9.421875 75.984375 
L 18.40625 75.984375 
L 18.40625 64.59375 
L 9.421875 64.59375 
z
" id="BitstreamVeraSans-Roman-69"/>
      <path d="M 18.3125 70.21875 
L 18.3125 54.6875 
L 36.8125 54.6875 
L 36.8125 47.703125 
L 18.3125 47.703125 
L 18.3125 18.015625 
Q 18.3125 11.328125 20.140625 9.421875 
Q 21.96875 7.515625 27.59375 7.515625 
L 36.8125 7.515625 
L 36.8125 0 
L 27.59375 0 
Q 17.1875 0 13.234375 3.875 
Q 9.28125 7.765625 9.28125 18.015625 
L 9.28125 47.703125 
L 2.6875 47.703125 
L 2.6875 54.6875 
L 9.28125 54.6875 
L 9.28125 70.21875 
z
" id="BitstreamVeraSans-Roman-74"/>
      <path d="M 41.109375 46.296875 
Q 39.59375 47.171875 37.8125 47.578125 
Q 36.03125 48 33.890625 48 
Q 26.265625 48 22.1875 43.046875 
Q 18.109375 38.09375 18.109375 28.8125 
L 18.109375 0 
L 9.078125 0 
L 9.078125 54.6875 
L 18.109375 54.6875 
L 18.109375 46.1875 
Q 20.953125 51.171875 25.484375 53.578125 
Q 30.03125 56 36.53125 56 
Q 37.453125 56 38.578125 55.875 
Q 39.703125 55.765625 41.0625 55.515625 
z
" id="BitstreamVeraSans-Roman-72"/>
      <path d="M 18.109375 8.203125 
L 18.109375 -20.796875 
L 9.078125 -20.796875 
L 9.078125 54.6875 
L 18.109375 54.6875 
L 18.109375 46.390625 
Q 20.953125 51.265625 25.265625 53.625 
Q 29.59375 56 35.59375 56 
Q 45.5625 56 51.78125 48.09375 
Q 58.015625 40.1875 58.015625 27.296875 
Q 58.015625 14.40625 51.78125 6.484375 
Q 45.5625 -1.421875 35.59375 -1.421875 
Q 29.59375 -1.421875 25.265625 0.953125 
Q 20.953125 3.328125 18.109375 8.203125 
M 48.6875 27.296875 
Q 48.6875 37.203125 44.609375 42.84375 
Q 40.53125 48.484375 33.40625 48.484375 
Q 26.265625 48.484375 22.1875 42.84375 
Q 18.109375 37.203125 18.109375 27.296875 
Q 18.109375 17.390625 22.1875 11.75 
Q 26.265625 6.109375 33.40625 6.109375 
Q 40.53125 6.109375 44.609375 11.75 
Q 48.6875 17.390625 48.6875 27.296875 
" id="BitstreamVeraSans-Roman-70"/>
     </defs>
     <g transform="translate(22.396875 279.484467822)rotate(-90.0)scale(0.2 -0.2)">
      <use xlink:href="#BitstreamVeraSans-Roman-70"/>
      <use x="63.4765625" xlink:href="#BitstreamVeraSans-Roman-72"/>
      <use x="104.55859375" xlink:href="#BitstreamVeraSans-Roman-6f"/>
      <use x="165.740234375" xlink:href="#BitstreamVeraSans-Roman-70"/>
      <use x="229.216796875" xlink:href="#BitstreamVeraSans-Roman-6f"/>
      <use x="290.3984375" xlink:href="#BitstreamVeraSans-Roman-72"/>
      <use x="331.51171875" xlink:href="#BitstreamVeraSans-Roman-74"/>
      <use x="370.720703125" xlink:href="#BitstreamVeraSans-Roman-69"/>
      <use x="398.50390625" xlink:href="#BitstreamVeraSans-Roman-6f"/>
      <use x="459.685546875" xlink:href="#BitstreamVeraSans-Roman-6e"/>
      <use x="523.064453125" xlink:href="#BitstreamVeraSans-Roman-20"/>
      <use x="554.8515625" xlink:href="#BitstreamVeraSans-Roman-6f"/>
      <use x="616.033203125" xlink:href="#BitstreamVeraSans-Roman-66"/>
      <use x="651.23828125" xlink:href="#BitstreamVeraSans-Roman-20"/>
      <use x="683.025390625" xlink:href="#BitstreamVeraSans-Roman-74"/>
      <use x="722.234375" xlink:href="#BitstreamVeraSans-Roman-72"/>
      <use x="763.34765625" xlink:href="#BitstreamVeraSans-Roman-69"/>
      <use x="791.130859375" xlink:href="#BitstreamVeraSans-Roman-61"/>
      <use x="852.41015625" xlink:href="#BitstreamVeraSans-Roman-6c"/>
      <use x="880.193359375" xlink:href="#BitstreamVeraSans-Roman-73"/>
     </g>
    </g>
   </g>
   <g id="text_14">
    <!-- {f10-f14}, 5-D -->
    <defs>
     <path d="M 11.71875 12.40625 
L 22.015625 12.40625 
L 22.015625 4 
L 14.015625 -11.625 
L 7.71875 -11.625 
L 11.71875 4 
z
" id="BitstreamVeraSans-Roman-2c"/>
     <path d="M 12.5 -9.28125 
L 15.921875 -9.28125 
Q 22.75 -9.28125 24.828125 -7.171875 
Q 26.90625 -5.078125 26.90625 1.90625 
L 26.90625 14.015625 
Q 26.90625 21.625 29.09375 25.09375 
Q 31.296875 28.5625 36.71875 29.890625 
Q 31.296875 31.109375 29.09375 34.5625 
Q 26.90625 38.03125 26.90625 45.703125 
L 26.90625 57.8125 
Q 26.90625 64.75 24.828125 66.875 
Q 22.75 69 15.921875 69 
L 12.5 69 
L 12.5 75.984375 
L 15.578125 75.984375 
Q 27.734375 75.984375 31.8125 72.390625 
Q 35.890625 68.796875 35.890625 58.015625 
L 35.890625 46.296875 
Q 35.890625 39.015625 38.515625 36.203125 
Q 41.15625 33.40625 48.09375 33.40625 
L 51.125 33.40625 
L 51.125 26.421875 
L 48.09375 26.421875 
Q 41.15625 26.421875 38.515625 23.578125 
Q 35.890625 20.75 35.890625 13.375 
L 35.890625 1.703125 
Q 35.890625 -9.078125 31.8125 -12.6875 
Q 27.734375 -16.3125 15.578125 -16.3125 
L 12.5 -16.3125 
z
" id="BitstreamVeraSans-Roman-7d"/>
     <path d="M 51.125 -9.28125 
L 51.125 -16.3125 
L 48.09375 -16.3125 
Q 35.9375 -16.3125 31.8125 -12.6875 
Q 27.6875 -9.078125 27.6875 1.703125 
L 27.6875 13.375 
Q 27.6875 20.75 25.046875 23.578125 
Q 22.40625 26.421875 15.484375 26.421875 
L 12.5 26.421875 
L 12.5 33.40625 
L 15.484375 33.40625 
Q 22.46875 33.40625 25.078125 36.203125 
Q 27.6875 39.015625 27.6875 46.296875 
L 27.6875 58.015625 
Q 27.6875 68.796875 31.8125 72.390625 
Q 35.9375 75.984375 48.09375 75.984375 
L 51.125 75.984375 
L 51.125 69 
L 47.796875 69 
Q 40.921875 69 38.8125 66.84375 
Q 36.71875 64.703125 36.71875 57.8125 
L 36.71875 45.703125 
Q 36.71875 38.03125 34.5 34.5625 
Q 32.28125 31.109375 26.90625 29.890625 
Q 32.328125 28.5625 34.515625 25.09375 
Q 36.71875 21.625 36.71875 14.015625 
L 36.71875 1.90625 
Q 36.71875 -4.984375 38.8125 -7.125 
Q 40.921875 -9.28125 47.796875 -9.28125 
z
" id="BitstreamVeraSans-Roman-7b"/>
     <path d="M 4.890625 31.390625 
L 31.203125 31.390625 
L 31.203125 23.390625 
L 4.890625 23.390625 
z
" id="BitstreamVeraSans-Roman-2d"/>
     <path d="M 10.796875 72.90625 
L 49.515625 72.90625 
L 49.515625 64.59375 
L 19.828125 64.59375 
L 19.828125 46.734375 
Q 21.96875 47.46875 24.109375 47.828125 
Q 26.265625 48.1875 28.421875 48.1875 
Q 40.625 48.1875 47.75 41.5 
Q 54.890625 34.8125 54.890625 23.390625 
Q 54.890625 11.625 47.5625 5.09375 
Q 40.234375 -1.421875 26.90625 -1.421875 
Q 22.3125 -1.421875 17.546875 -0.640625 
Q 12.796875 0.140625 7.71875 1.703125 
L 7.71875 11.625 
Q 12.109375 9.234375 16.796875 8.0625 
Q 21.484375 6.890625 26.703125 6.890625 
Q 35.15625 6.890625 40.078125 11.328125 
Q 45.015625 15.765625 45.015625 23.390625 
Q 45.015625 31 40.078125 35.4375 
Q 35.15625 39.890625 26.703125 39.890625 
Q 22.75 39.890625 18.8125 39.015625 
Q 14.890625 38.140625 10.796875 36.28125 
z
" id="BitstreamVeraSans-Roman-35"/>
    </defs>
    <g transform="translate(217.7125 35.5652178218)scale(0.2 -0.2)">
     <use xlink:href="#BitstreamVeraSans-Roman-7b"/>
     <use x="63.623046875" xlink:href="#BitstreamVeraSans-Roman-66"/>
     <use x="98.828125" xlink:href="#BitstreamVeraSans-Roman-31"/>
     <use x="162.451171875" xlink:href="#BitstreamVeraSans-Roman-30"/>
     <use x="226.07421875" xlink:href="#BitstreamVeraSans-Roman-2d"/>
     <use x="262.158203125" xlink:href="#BitstreamVeraSans-Roman-66"/>
     <use x="297.36328125" xlink:href="#BitstreamVeraSans-Roman-31"/>
     <use x="360.986328125" xlink:href="#BitstreamVeraSans-Roman-34"/>
     <use x="424.609375" xlink:href="#BitstreamVeraSans-Roman-7d"/>
     <use x="488.232421875" xlink:href="#BitstreamVeraSans-Roman-2c"/>
     <use x="520.01953125" xlink:href="#BitstreamVeraSans-Roman-20"/>
     <use x="551.806640625" xlink:href="#BitstreamVeraSans-Roman-35"/>
     <use x="615.4296875" xlink:href="#BitstreamVeraSans-Roman-2d"/>
     <use x="651.513671875" xlink:href="#BitstreamVeraSans-Roman-44"/>
    </g>
   </g>
   <g id="text_15">
    <!-- absolute targets -->
    <defs>
     <path d="M 56.203125 29.59375 
L 56.203125 25.203125 
L 14.890625 25.203125 
Q 15.484375 15.921875 20.484375 11.0625 
Q 25.484375 6.203125 34.421875 6.203125 
Q 39.59375 6.203125 44.453125 7.46875 
Q 49.3125 8.734375 54.109375 11.28125 
L 54.109375 2.78125 
Q 49.265625 0.734375 44.1875 -0.34375 
Q 39.109375 -1.421875 33.890625 -1.421875 
Q 20.796875 -1.421875 13.15625 6.1875 
Q 5.515625 13.8125 5.515625 26.8125 
Q 5.515625 40.234375 12.765625 48.109375 
Q 20.015625 56 32.328125 56 
Q 43.359375 56 49.78125 48.890625 
Q 56.203125 41.796875 56.203125 29.59375 
M 47.21875 32.234375 
Q 47.125 39.59375 43.09375 43.984375 
Q 39.0625 48.390625 32.421875 48.390625 
Q 24.90625 48.390625 20.390625 44.140625 
Q 15.875 39.890625 15.1875 32.171875 
z
" id="BitstreamVeraSans-Roman-65"/>
     <path d="M 8.5 21.578125 
L 8.5 54.6875 
L 17.484375 54.6875 
L 17.484375 21.921875 
Q 17.484375 14.15625 20.5 10.265625 
Q 23.53125 6.390625 29.59375 6.390625 
Q 36.859375 6.390625 41.078125 11.03125 
Q 45.3125 15.671875 45.3125 23.6875 
L 45.3125 54.6875 
L 54.296875 54.6875 
L 54.296875 0 
L 45.3125 0 
L 45.3125 8.40625 
Q 42.046875 3.421875 37.71875 1 
Q 33.40625 -1.421875 27.6875 -1.421875 
Q 18.265625 -1.421875 13.375 4.4375 
Q 8.5 10.296875 8.5 21.578125 
" id="BitstreamVeraSans-Roman-75"/>
     <path d="M 48.6875 27.296875 
Q 48.6875 37.203125 44.609375 42.84375 
Q 40.53125 48.484375 33.40625 48.484375 
Q 26.265625 48.484375 22.1875 42.84375 
Q 18.109375 37.203125 18.109375 27.296875 
Q 18.109375 17.390625 22.1875 11.75 
Q 26.265625 6.109375 33.40625 6.109375 
Q 40.53125 6.109375 44.609375 11.75 
Q 48.6875 17.390625 48.6875 27.296875 
M 18.109375 46.390625 
Q 20.953125 51.265625 25.265625 53.625 
Q 29.59375 56 35.59375 56 
Q 45.5625 56 51.78125 48.09375 
Q 58.015625 40.1875 58.015625 27.296875 
Q 58.015625 14.40625 51.78125 6.484375 
Q 45.5625 -1.421875 35.59375 -1.421875 
Q 29.59375 -1.421875 25.265625 0.953125 
Q 20.953125 3.328125 18.109375 8.203125 
L 18.109375 0 
L 9.078125 0 
L 9.078125 75.984375 
L 18.109375 75.984375 
z
" id="BitstreamVeraSans-Roman-62"/>
    </defs>
    <g transform="translate(67.3625 359.056342822)scale(0.14 -0.14)">
     <use xlink:href="#BitstreamVeraSans-Roman-61"/>
     <use x="61.279296875" xlink:href="#BitstreamVeraSans-Roman-62"/>
     <use x="124.755859375" xlink:href="#BitstreamVeraSans-Roman-73"/>
     <use x="176.85546875" xlink:href="#BitstreamVeraSans-Roman-6f"/>
     <use x="238.037109375" xlink:href="#BitstreamVeraSans-Roman-6c"/>
     <use x="265.8203125" xlink:href="#BitstreamVeraSans-Roman-75"/>
     <use x="329.19921875" xlink:href="#BitstreamVeraSans-Roman-74"/>
     <use x="368.408203125" xlink:href="#BitstreamVeraSans-Roman-65"/>
     <use x="429.931640625" xlink:href="#BitstreamVeraSans-Roman-20"/>
     <use x="461.71875" xlink:href="#BitstreamVeraSans-Roman-74"/>
     <use x="500.927734375" xlink:href="#BitstreamVeraSans-Roman-61"/>
     <use x="562.20703125" xlink:href="#BitstreamVeraSans-Roman-72"/>
     <use x="603.3046875" xlink:href="#BitstreamVeraSans-Roman-67"/>
     <use x="666.78125" xlink:href="#BitstreamVeraSans-Roman-65"/>
     <use x="728.3046875" xlink:href="#BitstreamVeraSans-Roman-74"/>
     <use x="767.513671875" xlink:href="#BitstreamVeraSans-Roman-73"/>
    </g>
   </g>
   <g id="text_16">
    <!-- 1.2.1.2 -->
    <g style="fill:#808080;" transform="translate(273.0703125 353.520655322)scale(0.1 -0.1)">
     <use xlink:href="#BitstreamVeraSans-Roman-31"/>
     <use x="63.623046875" xlink:href="#BitstreamVeraSans-Roman-2e"/>
     <use x="95.41015625" xlink:href="#BitstreamVeraSans-Roman-32"/>
     <use x="159.033203125" xlink:href="#BitstreamVeraSans-Roman-2e"/>
     <use x="190.8203125" xlink:href="#BitstreamVeraSans-Roman-31"/>
     <use x="254.443359375" xlink:href="#BitstreamVeraSans-Roman-2e"/>
     <use x="286.23046875" xlink:href="#BitstreamVeraSans-Roman-32"/>
    </g>
   </g>
   <g id="legend_1">
    <g id="patch_7">
     <path d="M 77.3625 146.881343 
L 214.584375 146.881343 
L 214.584375 23.456343 
L 77.3625 23.456343 
z
" style="fill:#ffffff;opacity:0.2;stroke:#000000;stroke-linejoin:miter;"/>
    </g>
    <g id="line2d_136">
     <path d="M 91.3625 39.653218 
L 119.3625 39.653218 
" style="fill:none;stroke:#000000;stroke-linecap:square;"/>
    </g>
    <g id="line2d_137"/>
    <g id="text_17">
     <!-- 1: 3/5 -->
     <defs>
      <path d="M 11.71875 12.40625 
L 22.015625 12.40625 
L 22.015625 0 
L 11.71875 0 
z
M 11.71875 51.703125 
L 22.015625 51.703125 
L 22.015625 39.3125 
L 11.71875 39.3125 
z
" id="BitstreamVeraSans-Roman-3a"/>
     </defs>
     <g transform="translate(141.3625 46.6532178218)scale(0.2 -0.2)">
      <use xlink:href="#BitstreamVeraSans-Roman-31"/>
      <use x="63.623046875" xlink:href="#BitstreamVeraSans-Roman-3a"/>
      <use x="97.314453125" xlink:href="#BitstreamVeraSans-Roman-20"/>
      <use x="129.1015625" xlink:href="#BitstreamVeraSans-Roman-33"/>
      <use x="192.724609375" xlink:href="#BitstreamVeraSans-Roman-2f"/>
      <use x="226.416015625" xlink:href="#BitstreamVeraSans-Roman-35"/>
     </g>
    </g>
    <g id="line2d_138">
     <path d="M 91.3625 69.009468 
L 119.3625 69.009468 
" style="fill:none;stroke:#00bfbf;stroke-linecap:square;"/>
    </g>
    <g id="line2d_139"/>
    <g id="text_18">
     <!-- -1: 2/5 -->
     <g transform="translate(141.3625 76.0094678218)scale(0.2 -0.2)">
      <use xlink:href="#BitstreamVeraSans-Roman-2d"/>
      <use x="36.083984375" xlink:href="#BitstreamVeraSans-Roman-31"/>
      <use x="99.70703125" xlink:href="#BitstreamVeraSans-Roman-3a"/>
      <use x="133.3984375" xlink:href="#BitstreamVeraSans-Roman-20"/>
      <use x="165.185546875" xlink:href="#BitstreamVeraSans-Roman-32"/>
      <use x="228.80859375" xlink:href="#BitstreamVeraSans-Roman-2f"/>
      <use x="262.5" xlink:href="#BitstreamVeraSans-Roman-35"/>
     </g>
    </g>
    <g id="line2d_140">
     <path d="M 91.3625 98.365718 
L 119.3625 98.365718 
" style="fill:none;stroke:#bf00bf;stroke-linecap:square;"/>
    </g>
    <g id="line2d_141"/>
    <g id="text_19">
     <!-- -4: 1/5 -->
     <g transform="translate(141.3625 105.365717822)scale(0.2 -0.2)">
      <use xlink:href="#BitstreamVeraSans-Roman-2d"/>
      <use x="36.083984375" xlink:href="#BitstreamVeraSans-Roman-34"/>
      <use x="99.70703125" xlink:href="#BitstreamVeraSans-Roman-3a"/>
      <use x="133.3984375" xlink:href="#BitstreamVeraSans-Roman-20"/>
      <use x="165.185546875" xlink:href="#BitstreamVeraSans-Roman-31"/>
      <use x="228.80859375" xlink:href="#BitstreamVeraSans-Roman-2f"/>
      <use x="262.5" xlink:href="#BitstreamVeraSans-Roman-35"/>
     </g>
    </g>
    <g id="line2d_142">
     <path d="M 91.3625 127.721968 
L 119.3625 127.721968 
" style="fill:none;stroke:#ff0000;stroke-linecap:square;stroke-width:3.0;"/>
    </g>
    <g id="line2d_143"/>
    <g id="text_20">
     <!-- -8: 0/5 -->
     <g transform="translate(141.3625 134.721967822)scale(0.2 -0.2)">
      <use xlink:href="#BitstreamVeraSans-Roman-2d"/>
      <use x="36.083984375" xlink:href="#BitstreamVeraSans-Roman-38"/>
      <use x="99.70703125" xlink:href="#BitstreamVeraSans-Roman-3a"/>
      <use x="133.3984375" xlink:href="#BitstreamVeraSans-Roman-20"/>
      <use x="165.185546875" xlink:href="#BitstreamVeraSans-Roman-30"/>
      <use x="228.80859375" xlink:href="#BitstreamVeraSans-Roman-2f"/>
      <use x="262.5" xlink:href="#BitstreamVeraSans-Roman-35"/>
     </g>
    </g>
   </g>
  </g>
 </g>
 <defs>
  <clipPath id="pb7d8434b4a">
   <rect height="345.6" width="446.4" x="67.3625" y="13.4563428218"/>
  </clipPath>
 </defs>
</svg>
