<?xml version="1.0" encoding="utf-8" standalone="no"?>
<!DOCTYPE svg PUBLIC "-//W3C//DTD SVG 1.1//EN"
  "http://www.w3.org/Graphics/SVG/1.1/DTD/svg11.dtd">
<!-- Created with matplotlib (http://matplotlib.org/) -->
<svg height="413pt" version="1.1" viewBox="0 0 527 413" width="527pt" xmlns="http://www.w3.org/2000/svg" xmlns:xlink="http://www.w3.org/1999/xlink">
 <defs>
  <style type="text/css">
*{stroke-linecap:butt;stroke-linejoin:round;stroke-miterlimit:100000;}
  </style>
 </defs>
 <g id="figure_1">
  <g id="patch_1">
   <path d="M 0 413.968843 
L 527.324031 413.968843 
L 527.324031 0 
L 0 0 
z
" style="fill:#ffffff;"/>
  </g>
  <g id="axes_1">
   <g id="patch_2">
    <path d="M 67.3625 359.056343 
L 513.7625 359.056343 
L 513.7625 13.456343 
L 67.3625 13.456343 
z
" style="fill:#ffffff;"/>
   </g>
   <g id="line2d_1">
    <path clip-path="url(#p7e8f83aa3f)" d="M 279.746881 359.056343 
L 279.746881 354.493967 
L 284.256017 354.493967 
L 284.256017 349.93159 
L 285.670423 349.93159 
L 285.670423 345.369214 
L 287.356407 345.369214 
L 287.356407 340.806838 
L 287.56309 340.806838 
L 287.56309 336.244462 
L 287.973831 336.244462 
L 287.973831 331.682085 
L 293.568694 331.682085 
L 293.568694 327.119709 
L 296.054735 327.119709 
L 296.054735 322.557333 
L 299.398623 322.557333 
L 299.398623 317.994957 
L 304.310891 317.994957 
L 304.310891 313.43258 
L 305.678281 313.43258 
L 305.678281 308.870204 
L 313.94384 308.870204 
L 313.94384 304.307828 
L 323.424375 304.307828 
L 323.424375 299.745452 
L 330.080431 299.745452 
L 330.080431 295.183075 
L 331.057026 295.183075 
L 331.057026 290.620699 
L 331.973099 290.620699 
L 331.973099 286.058323 
L 332.912652 286.058323 
L 332.912652 281.495947 
L 333.275401 281.495947 
L 333.275401 276.933571 
L 336.798318 276.933571 
L 336.798318 272.371194 
L 337.942248 272.371194 
L 337.942248 267.808818 
L 354.546156 267.808818 
L 354.546156 263.246442 
L 355.798475 263.246442 
L 355.798475 258.684066 
L 357.338033 258.684066 
L 357.338033 254.121689 
L 360.598749 254.121689 
L 360.598749 249.559313 
L 372.279027 249.559313 
L 372.279027 244.996937 
L 377.468086 244.996937 
L 377.468086 240.434561 
L 381.43185 240.434561 
L 381.43185 235.872184 
L 395.977067 235.872184 
L 395.977067 231.309808 
L 395.977067 231.309808 
L 395.977067 231.309808 
L 513.7625 231.309808 
" style="fill:none;stroke:#f5deb3;stroke-linecap:square;"/>
   </g>
   <g id="line2d_2">
    <path clip-path="url(#p7e8f83aa3f)" d="M 374.421765 359.056343 
L 374.421765 345.369214 
L 397.162833 345.369214 
L 397.162833 331.682085 
L 414.141523 331.682085 
L 414.141523 317.994957 
L 468.545143 317.994957 
L 468.545143 304.307828 
L 508.044803 304.307828 
L 508.044803 290.620699 
L 508.044803 290.620699 
L 508.044803 290.620699 
L 513.7625 290.620699 
" style="fill:none;stroke:#f5deb3;stroke-linecap:square;"/>
   </g>
   <g id="line2d_3">
    <path clip-path="url(#p7e8f83aa3f)" d="M 231.884678 359.056343 
L 231.884678 354.493967 
L 237.701593 354.493967 
L 237.701593 349.93159 
L 283.476964 349.93159 
L 283.476964 345.369214 
L 285.347666 345.369214 
L 285.347666 340.806838 
L 288.177904 340.806838 
L 288.177904 336.244462 
L 296.399698 336.244462 
L 296.399698 331.682085 
L 301.377149 331.682085 
L 301.377149 327.119709 
L 305.678281 327.119709 
L 305.678281 322.557333 
L 309.300486 322.557333 
L 309.300486 317.994957 
L 309.889561 317.994957 
L 309.889561 313.43258 
L 315.35904 313.43258 
L 315.35904 308.870204 
L 318.071197 308.870204 
L 318.071197 304.307828 
L 326.057806 304.307828 
L 326.057806 299.745452 
L 328.378123 299.745452 
L 328.378123 295.183075 
L 336.87294 295.183075 
L 336.87294 290.620699 
L 347.027421 290.620699 
L 347.027421 286.058323 
L 357.969377 286.058323 
L 357.969377 281.495947 
L 371.50064 281.495947 
L 371.50064 276.933571 
L 372.314929 276.933571 
L 372.314929 272.371194 
L 374.883442 272.371194 
L 374.883442 267.808818 
L 379.706642 267.808818 
L 379.706642 263.246442 
L 384.999222 263.246442 
L 384.999222 258.684066 
L 386.118795 258.684066 
L 386.118795 254.121689 
L 402.576808 254.121689 
L 402.576808 249.559313 
L 406.816423 249.559313 
L 406.816423 244.996937 
L 444.053079 244.996937 
L 444.053079 240.434561 
L 447.011799 240.434561 
L 447.011799 235.872184 
L 447.725041 235.872184 
L 447.725041 231.309808 
L 460.869364 231.309808 
L 460.869364 226.747432 
L 481.412588 226.747432 
L 481.412588 222.185056 
L 481.412588 222.185056 
L 481.412588 222.185056 
L 513.7625 222.185056 
" style="fill:none;stroke:#f5deb3;stroke-linecap:square;"/>
   </g>
   <g id="line2d_4">
    <path clip-path="url(#p7e8f83aa3f)" d="M 269.38401 359.056343 
L 269.38401 354.493967 
L 294.560615 354.493967 
L 294.560615 349.93159 
L 294.649791 349.93159 
L 294.649791 345.369214 
L 298.08862 345.369214 
L 298.08862 340.806838 
L 336.423474 340.806838 
L 336.423474 336.244462 
L 337.832717 336.244462 
L 337.832717 331.682085 
L 343.059712 331.682085 
L 343.059712 327.119709 
L 343.386752 327.119709 
L 343.386752 322.557333 
L 348.25148 322.557333 
L 348.25148 317.994957 
L 361.995205 317.994957 
L 361.995205 313.43258 
L 363.803809 313.43258 
L 363.803809 308.870204 
L 367.627279 308.870204 
L 367.627279 304.307828 
L 367.765447 304.307828 
L 367.765447 299.745452 
L 372.636852 299.745452 
L 372.636852 295.183075 
L 373.555019 295.183075 
L 373.555019 290.620699 
L 375.357618 290.620699 
L 375.357618 286.058323 
L 381.312766 286.058323 
L 381.312766 281.495947 
L 399.889536 281.495947 
L 399.889536 276.933571 
L 412.883761 276.933571 
L 412.883761 272.371194 
L 413.447653 272.371194 
L 413.447653 267.808818 
L 420.036516 267.808818 
L 420.036516 263.246442 
L 422.23816 263.246442 
L 422.23816 258.684066 
L 434.628883 258.684066 
L 434.628883 254.121689 
L 438.717753 254.121689 
L 438.717753 249.559313 
L 443.448952 249.559313 
L 443.448952 244.996937 
L 448.124725 244.996937 
L 448.124725 240.434561 
L 463.575315 240.434561 
L 463.575315 235.872184 
L 469.557071 235.872184 
L 469.557071 231.309808 
L 489.022647 231.309808 
L 489.022647 226.747432 
L 490.136957 226.747432 
L 490.136957 222.185056 
L 492.279467 222.185056 
L 492.279467 217.622679 
L 496.206508 217.622679 
L 496.206508 213.060303 
L 503.79438 213.060303 
L 503.79438 208.497927 
L 503.79438 208.497927 
L 503.79438 208.497927 
L 513.7625 208.497927 
" style="fill:none;stroke:#f5deb3;stroke-linecap:square;"/>
   </g>
   <g id="line2d_5">
    <path clip-path="url(#p7e8f83aa3f)" d="M 281.414221 359.056343 
L 281.414221 354.493967 
L 292.83433 354.493967 
L 292.83433 349.93159 
L 336.461089 349.93159 
L 336.461089 345.369214 
L 352.537415 345.369214 
L 352.537415 340.806838 
L 382.737293 340.806838 
L 382.737293 336.244462 
L 401.928571 336.244462 
L 401.928571 331.682085 
L 408.384627 331.682085 
L 408.384627 327.119709 
L 409.597001 327.119709 
L 409.597001 322.557333 
L 410.10157 322.557333 
L 410.10157 317.994957 
L 420.616249 317.994957 
L 420.616249 313.43258 
L 423.919052 313.43258 
L 423.919052 308.870204 
L 423.931426 308.870204 
L 423.931426 304.307828 
L 427.599609 304.307828 
L 427.599609 299.745452 
L 431.493608 299.745452 
L 431.493608 295.183075 
L 434.609036 295.183075 
L 434.609036 290.620699 
L 438.019711 290.620699 
L 438.019711 286.058323 
L 438.162894 286.058323 
L 438.162894 281.495947 
L 440.088815 281.495947 
L 440.088815 276.933571 
L 444.431428 276.933571 
L 444.431428 272.371194 
L 449.876363 272.371194 
L 449.876363 267.808818 
L 456.263517 267.808818 
L 456.263517 263.246442 
L 460.539142 263.246442 
L 460.539142 258.684066 
L 461.033635 258.684066 
L 461.033635 254.121689 
L 476.091658 254.121689 
L 476.091658 249.559313 
L 476.641022 249.559313 
L 476.641022 244.996937 
L 478.078956 244.996937 
L 478.078956 240.434561 
L 481.514513 240.434561 
L 481.514513 235.872184 
L 484.54224 235.872184 
L 484.54224 231.309808 
L 485.876988 231.309808 
L 485.876988 226.747432 
L 491.970449 226.747432 
L 491.970449 222.185056 
L 528.324031 222.185056 
" style="fill:none;stroke:#f5deb3;stroke-linecap:square;"/>
   </g>
   <g id="line2d_6"/>
   <g id="line2d_7">
    <path clip-path="url(#p7e8f83aa3f)" d="M 298.748048 359.056343 
L 298.748048 354.493967 
L 307.214832 354.493967 
L 307.214832 349.93159 
L 309.693997 349.93159 
L 309.693997 345.369214 
L 314.833171 345.369214 
L 314.833171 340.806838 
L 325.542443 340.806838 
L 325.542443 336.244462 
L 395.423277 336.244462 
L 395.423277 331.682085 
L 413.355408 331.682085 
L 413.355408 327.119709 
L 417.779269 327.119709 
L 417.779269 322.557333 
L 418.842081 322.557333 
L 418.842081 317.994957 
L 424.178235 317.994957 
L 424.178235 313.43258 
L 437.592276 313.43258 
L 437.592276 308.870204 
L 440.617793 308.870204 
L 440.617793 304.307828 
L 442.183682 304.307828 
L 442.183682 299.745452 
L 442.463032 299.745452 
L 442.463032 295.183075 
L 444.317827 295.183075 
L 444.317827 290.620699 
L 446.591165 290.620699 
L 446.591165 286.058323 
L 452.567327 286.058323 
L 452.567327 281.495947 
L 454.098386 281.495947 
L 454.098386 276.933571 
L 455.688687 276.933571 
L 455.688687 272.371194 
L 463.558932 272.371194 
L 463.558932 267.808818 
L 465.541499 267.808818 
L 465.541499 263.246442 
L 467.499049 263.246442 
L 467.499049 258.684066 
L 472.933284 258.684066 
L 472.933284 254.121689 
L 477.424852 254.121689 
L 477.424852 249.559313 
L 482.084347 249.559313 
L 482.084347 244.996937 
L 496.727263 244.996937 
L 496.727263 240.434561 
L 496.900527 240.434561 
L 496.900527 235.872184 
L 503.434659 235.872184 
L 503.434659 231.309808 
L 523.59354 231.309808 
L 523.59354 226.747432 
L 526.416399 226.747432 
L 526.416399 222.185056 
L 528.324031 222.185056 
" style="fill:none;stroke:#f5deb3;stroke-linecap:square;"/>
   </g>
   <g id="line2d_8">
    <path clip-path="url(#p7e8f83aa3f)" d="M 460.771112 359.056343 
L 460.771112 354.493967 
L 469.232632 354.493967 
L 469.232632 349.93159 
L 472.728034 349.93159 
L 472.728034 345.369214 
L 475.761574 345.369214 
L 475.761574 340.806838 
L 476.536661 340.806838 
L 476.536661 336.244462 
L 477.711217 336.244462 
L 477.711217 331.682085 
L 482.87359 331.682085 
L 482.87359 327.119709 
L 513.07033 327.119709 
L 513.07033 322.557333 
L 513.300849 322.557333 
L 513.300849 317.994957 
L 513.325308 317.994957 
L 513.325308 313.43258 
L 514.504145 313.43258 
L 514.504145 308.870204 
L 515.558878 308.870204 
L 515.558878 304.307828 
L 516.427196 304.307828 
L 516.427196 299.745452 
L 528.324031 299.745452 
" style="fill:none;stroke:#f5deb3;stroke-linecap:square;"/>
   </g>
   <g id="line2d_9">
    <path clip-path="url(#p7e8f83aa3f)" d="M 287.252734 359.056343 
L 287.252734 354.493967 
L 293.111022 354.493967 
L 293.111022 349.93159 
L 308.770785 349.93159 
L 308.770785 345.369214 
L 310.0195 345.369214 
L 310.0195 340.806838 
L 357.264653 340.806838 
L 357.264653 336.244462 
L 362.98414 336.244462 
L 362.98414 331.682085 
L 368.76038 331.682085 
L 368.76038 327.119709 
L 373.186312 327.119709 
L 373.186312 322.557333 
L 380.607176 322.557333 
L 380.607176 317.994957 
L 398.987223 317.994957 
L 398.987223 313.43258 
L 400.625505 313.43258 
L 400.625505 308.870204 
L 400.665511 308.870204 
L 400.665511 304.307828 
L 414.862908 304.307828 
L 414.862908 299.745452 
L 418.58719 299.745452 
L 418.58719 295.183075 
L 431.951868 295.183075 
L 431.951868 290.620699 
L 437.29269 290.620699 
L 437.29269 286.058323 
L 440.49488 286.058323 
L 440.49488 281.495947 
L 442.446148 281.495947 
L 442.446148 276.933571 
L 447.520153 276.933571 
L 447.520153 272.371194 
L 450.666684 272.371194 
L 450.666684 267.808818 
L 454.927805 267.808818 
L 454.927805 263.246442 
L 454.931069 263.246442 
L 454.931069 258.684066 
L 458.545475 258.684066 
L 458.545475 254.121689 
L 465.254905 254.121689 
L 465.254905 249.559313 
L 468.520497 249.559313 
L 468.520497 244.996937 
L 471.847618 244.996937 
L 471.847618 240.434561 
L 476.232738 240.434561 
L 476.232738 235.872184 
L 486.812229 235.872184 
L 486.812229 231.309808 
L 488.654665 231.309808 
L 488.654665 226.747432 
L 490.456282 226.747432 
L 490.456282 222.185056 
L 500.489683 222.185056 
L 500.489683 217.622679 
L 502.974257 217.622679 
L 502.974257 213.060303 
L 509.326716 213.060303 
L 509.326716 208.497927 
L 523.27038 208.497927 
L 523.27038 203.935551 
L 523.477863 203.935551 
L 523.477863 199.373175 
L 525.476343 199.373175 
L 525.476343 194.810798 
L 528.324031 194.810798 
" style="fill:none;stroke:#f5deb3;stroke-linecap:square;"/>
   </g>
   <g id="line2d_10">
    <path clip-path="url(#p7e8f83aa3f)" d="M 439.862239 359.056343 
L 439.862239 354.493967 
L 460.889568 354.493967 
L 460.889568 349.93159 
L 466.648169 349.93159 
L 466.648169 345.369214 
L 471.128783 345.369214 
L 471.128783 340.806838 
L 485.308452 340.806838 
L 485.308452 336.244462 
L 488.328121 336.244462 
L 488.328121 331.682085 
L 489.936107 331.682085 
L 489.936107 327.119709 
L 491.147458 327.119709 
L 491.147458 322.557333 
L 495.604024 322.557333 
L 495.604024 317.994957 
L 528.324031 317.994957 
" style="fill:none;stroke:#f5deb3;stroke-linecap:square;"/>
   </g>
   <g id="line2d_11">
    <path clip-path="url(#p7e8f83aa3f)" d="M 370.467815 359.056343 
L 370.467815 354.493967 
L 411.272253 354.493967 
L 411.272253 349.93159 
L 429.681944 349.93159 
L 429.681944 345.369214 
L 438.411302 345.369214 
L 438.411302 340.806838 
L 442.602106 340.806838 
L 442.602106 336.244462 
L 446.996427 336.244462 
L 446.996427 331.682085 
L 448.651324 331.682085 
L 448.651324 327.119709 
L 450.233603 327.119709 
L 450.233603 322.557333 
L 462.526619 322.557333 
L 462.526619 317.994957 
L 464.668575 317.994957 
L 464.668575 313.43258 
L 464.743255 313.43258 
L 464.743255 308.870204 
L 467.720108 308.870204 
L 467.720108 304.307828 
L 475.776434 304.307828 
L 475.776434 299.745452 
L 476.335656 299.745452 
L 476.335656 295.183075 
L 480.156962 295.183075 
L 480.156962 290.620699 
L 481.042731 290.620699 
L 481.042731 286.058323 
L 481.751508 286.058323 
L 481.751508 281.495947 
L 482.318578 281.495947 
L 482.318578 276.933571 
L 483.362461 276.933571 
L 483.362461 272.371194 
L 489.143615 272.371194 
L 489.143615 267.808818 
L 504.023635 267.808818 
L 504.023635 263.246442 
L 504.851973 263.246442 
L 504.851973 258.684066 
L 507.515114 258.684066 
L 507.515114 254.121689 
L 512.832782 254.121689 
L 512.832782 249.559313 
L 514.538499 249.559313 
L 514.538499 244.996937 
L 517.007222 244.996937 
L 517.007222 240.434561 
L 528.324031 240.434561 
" style="fill:none;stroke:#f5deb3;stroke-linecap:square;"/>
   </g>
   <g id="line2d_12">
    <path clip-path="url(#p7e8f83aa3f)" d="M 291.616733 359.056343 
L 291.616733 354.493967 
L 295.968109 354.493967 
L 295.968109 349.93159 
L 298.005557 349.93159 
L 298.005557 345.369214 
L 315.764141 345.369214 
L 315.764141 340.806838 
L 316.108696 340.806838 
L 316.108696 336.244462 
L 334.699845 336.244462 
L 334.699845 331.682085 
L 337.207326 331.682085 
L 337.207326 327.119709 
L 338.952769 327.119709 
L 338.952769 322.557333 
L 340.012589 322.557333 
L 340.012589 317.994957 
L 346.111768 317.994957 
L 346.111768 313.43258 
L 354.57204 313.43258 
L 354.57204 308.870204 
L 357.142107 308.870204 
L 357.142107 304.307828 
L 359.019421 304.307828 
L 359.019421 299.745452 
L 361.369525 299.745452 
L 361.369525 295.183075 
L 361.504281 295.183075 
L 361.504281 290.620699 
L 361.772674 290.620699 
L 361.772674 286.058323 
L 364.123585 286.058323 
L 364.123585 281.495947 
L 369.545679 281.495947 
L 369.545679 276.933571 
L 379.875812 276.933571 
L 379.875812 272.371194 
L 390.503286 272.371194 
L 390.503286 267.808818 
L 401.507922 267.808818 
L 401.507922 263.246442 
L 407.12365 263.246442 
L 407.12365 258.684066 
L 411.870965 258.684066 
L 411.870965 254.121689 
L 415.093581 254.121689 
L 415.093581 249.559313 
L 430.428823 249.559313 
L 430.428823 244.996937 
L 437.090361 244.996937 
L 437.090361 240.434561 
L 444.62152 240.434561 
L 444.62152 235.872184 
L 445.48567 235.872184 
L 445.48567 231.309808 
L 460.747965 231.309808 
L 460.747965 226.747432 
L 461.369089 226.747432 
L 461.369089 222.185056 
L 461.369089 222.185056 
L 461.369089 222.185056 
L 513.7625 222.185056 
" style="fill:none;stroke:#f5deb3;stroke-linecap:square;"/>
   </g>
   <g id="line2d_13">
    <path clip-path="url(#p7e8f83aa3f)" d="M 370.672436 359.056343 
L 370.672436 354.493967 
L 387.436895 354.493967 
L 387.436895 349.93159 
L 393.792071 349.93159 
L 393.792071 345.369214 
L 395.233538 345.369214 
L 395.233538 340.806838 
L 401.792016 340.806838 
L 401.792016 336.244462 
L 407.071121 336.244462 
L 407.071121 331.682085 
L 411.41662 331.682085 
L 411.41662 327.119709 
L 411.759766 327.119709 
L 411.759766 322.557333 
L 411.759766 322.557333 
L 411.759766 317.994957 
L 414.840527 317.994957 
L 414.840527 313.43258 
L 432.442177 313.43258 
L 432.442177 308.870204 
L 432.442177 308.870204 
L 432.442177 308.870204 
L 513.7625 308.870204 
" style="fill:none;stroke:#f5deb3;stroke-linecap:square;"/>
   </g>
   <g id="line2d_14">
    <path clip-path="url(#p7e8f83aa3f)" d="M 247.584638 359.056343 
L 247.584638 354.493967 
L 261.232778 354.493967 
L 261.232778 349.93159 
L 333.754883 349.93159 
L 333.754883 345.369214 
L 380.029092 345.369214 
L 380.029092 340.806838 
L 391.346639 340.806838 
L 391.346639 336.244462 
L 397.055248 336.244462 
L 397.055248 331.682085 
L 398.581899 331.682085 
L 398.581899 327.119709 
L 407.81003 327.119709 
L 407.81003 322.557333 
L 408.918776 322.557333 
L 408.918776 317.994957 
L 414.922542 317.994957 
L 414.922542 313.43258 
L 418.275369 313.43258 
L 418.275369 308.870204 
L 418.945035 308.870204 
L 418.945035 304.307828 
L 419.320672 304.307828 
L 419.320672 299.745452 
L 421.807052 299.745452 
L 421.807052 295.183075 
L 425.513671 295.183075 
L 425.513671 290.620699 
L 430.30966 290.620699 
L 430.30966 286.058323 
L 434.940411 286.058323 
L 434.940411 281.495947 
L 458.238614 281.495947 
L 458.238614 276.933571 
L 458.925588 276.933571 
L 458.925588 272.371194 
L 460.643666 272.371194 
L 460.643666 267.808818 
L 461.747618 267.808818 
L 461.747618 263.246442 
L 475.008405 263.246442 
L 475.008405 258.684066 
L 479.499048 258.684066 
L 479.499048 254.121689 
L 485.040952 254.121689 
L 485.040952 249.559313 
L 488.198527 249.559313 
L 488.198527 244.996937 
L 492.403127 244.996937 
L 492.403127 240.434561 
L 505.312271 240.434561 
L 505.312271 235.872184 
L 505.312271 235.872184 
L 505.312271 235.872184 
L 513.7625 235.872184 
" style="fill:none;stroke:#f5deb3;stroke-linecap:square;"/>
   </g>
   <g id="line2d_15">
    <path clip-path="url(#p7e8f83aa3f)" style="fill:none;stroke:#f5deb3;stroke-linecap:square;"/>
   </g>
   <g id="line2d_16">
    <path clip-path="url(#p7e8f83aa3f)" d="M 377.901764 359.056343 
L 377.901764 354.493967 
L 476.688952 354.493967 
L 476.688952 349.93159 
L 508.628072 349.93159 
L 508.628072 345.369214 
L 509.723422 345.369214 
L 509.723422 340.806838 
L 519.582024 340.806838 
L 519.582024 336.244462 
L 528.324031 336.244462 
" style="fill:none;stroke:#f5deb3;stroke-linecap:square;"/>
   </g>
   <g id="line2d_17">
    <path clip-path="url(#p7e8f83aa3f)" d="M 389.468981 359.056343 
L 389.468981 354.493967 
L 392.365776 354.493967 
L 392.365776 349.93159 
L 415.374851 349.93159 
L 415.374851 345.369214 
L 503.214646 345.369214 
L 503.214646 340.806838 
L 528.324031 340.806838 
" style="fill:none;stroke:#f5deb3;stroke-linecap:square;"/>
   </g>
   <g id="line2d_18">
    <path clip-path="url(#p7e8f83aa3f)" d="M 259.97382 359.056343 
L 259.97382 354.493967 
L 282.91273 354.493967 
L 282.91273 349.93159 
L 292.462932 349.93159 
L 292.462932 345.369214 
L 294.471275 345.369214 
L 294.471275 340.806838 
L 294.916339 340.806838 
L 294.916339 336.244462 
L 309.693997 336.244462 
L 309.693997 331.682085 
L 318.780352 331.682085 
L 318.780352 327.119709 
L 320.535252 327.119709 
L 320.535252 322.557333 
L 324.059859 322.557333 
L 324.059859 317.994957 
L 328.99611 317.994957 
L 328.99611 313.43258 
L 339.485575 313.43258 
L 339.485575 308.870204 
L 340.56849 308.870204 
L 340.56849 304.307828 
L 342.631234 304.307828 
L 342.631234 299.745452 
L 343.354147 299.745452 
L 343.354147 295.183075 
L 357.53317 295.183075 
L 357.53317 290.620699 
L 359.675977 290.620699 
L 359.675977 286.058323 
L 360.185674 286.058323 
L 360.185674 281.495947 
L 360.781214 281.495947 
L 360.781214 276.933571 
L 361.995205 276.933571 
L 361.995205 272.371194 
L 376.159851 272.371194 
L 376.159851 267.808818 
L 377.046771 267.808818 
L 377.046771 263.246442 
L 384.050769 263.246442 
L 384.050769 258.684066 
L 387.69888 258.684066 
L 387.69888 254.121689 
L 395.789487 254.121689 
L 395.789487 249.559313 
L 408.265124 249.559313 
L 408.265124 244.996937 
L 412.89153 244.996937 
L 412.89153 240.434561 
L 416.871857 240.434561 
L 416.871857 235.872184 
L 422.455473 235.872184 
L 422.455473 231.309808 
L 442.230352 231.309808 
L 442.230352 226.747432 
L 449.977668 226.747432 
L 449.977668 222.185056 
L 449.977668 222.185056 
L 449.977668 222.185056 
L 513.7625 222.185056 
" style="fill:none;stroke:#f5deb3;stroke-linecap:square;"/>
   </g>
   <g id="line2d_19">
    <path clip-path="url(#p7e8f83aa3f)" d="M 437.545588 359.056343 
L 437.545588 357.387181 
L 437.545588 357.387181 
L 437.545588 357.387181 
L 437.545588 355.718019 
L 437.545588 355.718019 
L 437.545588 355.718019 
L 437.545588 354.048857 
L 441.966712 354.048857 
L 441.966712 349.041371 
L 446.198117 349.041371 
L 446.198117 344.033884 
L 451.444325 344.033884 
L 451.444325 339.026398 
L 452.728092 339.026398 
L 452.728092 334.018912 
L 453.12938 334.018912 
L 453.12938 329.011426 
L 457.078851 329.011426 
L 457.078851 324.00394 
L 457.26268 324.00394 
L 457.26268 318.996454 
L 458.159305 318.996454 
L 458.159305 313.988968 
L 460.151017 313.988968 
L 460.151017 308.981482 
L 462.657563 308.981482 
L 462.657563 303.973996 
L 463.512482 303.973996 
L 463.512482 298.966509 
L 463.722516 298.966509 
L 463.722516 293.959023 
L 464.242305 293.959023 
L 464.242305 288.951537 
L 466.814437 288.951537 
L 466.814437 283.944051 
L 475.253613 283.944051 
L 475.253613 278.936565 
L 477.103753 278.936565 
L 477.103753 273.929079 
L 483.981035 273.929079 
L 483.981035 268.921593 
L 488.917563 268.921593 
L 488.917563 263.914107 
L 490.460985 263.914107 
L 490.460985 258.906621 
L 491.386445 258.906621 
L 491.386445 253.899134 
L 491.842631 253.899134 
L 491.845678 243.884162 
L 495.149329 243.884162 
L 495.241746 233.86919 
L 496.992408 233.86919 
L 496.992408 228.861704 
L 500.71224 228.861704 
L 500.71224 223.854218 
L 504.518816 223.854218 
L 504.518816 218.846732 
L 506.102029 218.846732 
L 506.102029 213.839246 
L 506.307084 213.839246 
L 506.307084 208.831759 
L 517.998754 208.831759 
L 517.998754 203.824273 
L 520.053392 203.824273 
L 520.092537 193.809301 
L 521.690629 193.809301 
L 521.690629 188.801815 
L 523.53019 188.801815 
L 523.53019 183.794329 
L 525.363553 183.794329 
L 525.363553 178.786843 
L 525.795759 178.786843 
L 525.795759 173.779357 
L 528.324031 173.779357 
L 528.324031 173.779357 
" style="fill:none;stroke:#f5deb3;stroke-linecap:square;"/>
   </g>
   <g id="line2d_20">
    <path clip-path="url(#p7e8f83aa3f)" d="M 254.174021 359.056343 
L 254.174021 354.493967 
L 254.174021 354.493967 
L 254.174021 349.93159 
L 259.239455 349.93159 
L 259.239455 345.369214 
L 261.937767 345.369214 
L 261.937767 340.806838 
L 277.894408 340.806838 
L 277.894408 336.244462 
L 300.040582 336.244462 
L 300.040582 331.682085 
L 305.607266 331.682085 
L 305.607266 327.119709 
L 314.123017 327.119709 
L 314.123017 322.557333 
L 324.591143 322.557333 
L 324.591143 317.994957 
L 336.536232 317.994957 
L 336.536232 313.43258 
L 338.160569 313.43258 
L 338.160569 308.870204 
L 340.672016 308.870204 
L 340.672016 304.307828 
L 342.631234 304.307828 
L 342.631234 299.745452 
L 346.784933 299.745452 
L 346.784933 295.183075 
L 346.906329 295.183075 
L 346.906329 290.620699 
L 355.086831 290.620699 
L 355.086831 286.058323 
L 358.948545 286.058323 
L 358.948545 281.495947 
L 359.815518 281.495947 
L 359.815518 276.933571 
L 360.690068 276.933571 
L 360.690068 272.371194 
L 361.928553 272.371194 
L 361.928553 267.808818 
L 365.814836 267.808818 
L 365.814836 263.246442 
L 370.355838 263.246442 
L 370.355838 258.684066 
L 377.997612 258.684066 
L 377.997612 254.121689 
L 378.013568 254.121689 
L 378.013568 249.559313 
L 379.983159 249.559313 
L 379.983159 244.996937 
L 393.387163 244.996937 
L 393.387163 240.434561 
L 394.78414 240.434561 
L 394.78414 235.872184 
L 396.644232 235.872184 
L 396.644232 231.309808 
L 420.543332 231.309808 
L 420.543332 226.747432 
L 422.627354 226.747432 
L 422.627354 222.185056 
L 528.324031 222.185056 
" style="fill:none;stroke:#f5deb3;stroke-linecap:square;"/>
   </g>
   <g id="line2d_21">
    <path clip-path="url(#p7e8f83aa3f)" d="M 465.533634 359.056343 
L 465.533634 354.493967 
L 490.929029 354.493967 
L 490.929029 349.93159 
L 499.448641 349.93159 
L 499.448641 345.369214 
L 499.448641 345.369214 
L 499.448641 345.369214 
L 513.7625 345.369214 
" style="fill:none;stroke:#f5deb3;stroke-linecap:square;"/>
   </g>
   <g id="line2d_22">
    <path clip-path="url(#p7e8f83aa3f)" d="M 236.237217 359.056343 
L 236.237217 354.493967 
L 243.665967 354.493967 
L 243.665967 349.93159 
L 253.345503 349.93159 
L 253.345503 345.369214 
L 254.583029 345.369214 
L 254.583029 340.806838 
L 261.937767 340.806838 
L 261.937767 336.244462 
L 265.965037 336.244462 
L 265.965037 331.682085 
L 326.889484 331.682085 
L 326.889484 327.119709 
L 357.338033 327.119709 
L 357.338033 322.557333 
L 359.815518 322.557333 
L 359.815518 317.994957 
L 364.399027 317.994957 
L 364.399027 313.43258 
L 367.290081 313.43258 
L 367.290081 308.870204 
L 376.40785 308.870204 
L 376.40785 304.307828 
L 380.561788 304.307828 
L 380.561788 299.745452 
L 389.932785 299.745452 
L 389.932785 295.183075 
L 395.255898 295.183075 
L 395.255898 290.620699 
L 400.954571 290.620699 
L 400.954571 286.058323 
L 424.941514 286.058323 
L 424.941514 281.495947 
L 425.645212 281.495947 
L 425.645212 276.933571 
L 429.67645 276.933571 
L 429.67645 272.371194 
L 431.260184 272.371194 
L 431.260184 267.808818 
L 435.117532 267.808818 
L 435.117532 263.246442 
L 446.404767 263.246442 
L 446.404767 258.684066 
L 458.657405 258.684066 
L 458.657405 254.121689 
L 466.527588 254.121689 
L 466.527588 249.559313 
L 467.551893 249.559313 
L 467.551893 244.996937 
L 468.453889 244.996937 
L 468.453889 240.434561 
L 485.235168 240.434561 
L 485.235168 235.872184 
L 497.9488 235.872184 
L 497.9488 231.309808 
L 505.963324 231.309808 
L 505.963324 226.747432 
L 518.237092 226.747432 
L 518.237092 222.185056 
L 522.090624 222.185056 
L 522.090624 217.622679 
L 527.486312 217.622679 
L 527.486312 213.060303 
L 528.324031 213.060303 
" style="fill:none;stroke:#f5deb3;stroke-linecap:square;"/>
   </g>
   <g id="line2d_23">
    <path clip-path="url(#p7e8f83aa3f)" d="M 380.758164 359.056343 
L 380.758164 354.493967 
L 388.360602 354.493967 
L 388.360602 349.93159 
L 391.840899 349.93159 
L 391.840899 345.369214 
L 392.77927 345.369214 
L 392.77927 340.806838 
L 394.557869 340.806838 
L 394.557869 336.244462 
L 398.109966 336.244462 
L 398.109966 331.682085 
L 416.361103 331.682085 
L 416.361103 327.119709 
L 421.044902 327.119709 
L 421.044902 322.557333 
L 421.313347 322.557333 
L 421.313347 317.994957 
L 423.296313 317.994957 
L 423.296313 313.43258 
L 432.265403 313.43258 
L 432.265403 308.870204 
L 435.674183 308.870204 
L 435.674183 304.307828 
L 443.312291 304.307828 
L 443.312291 299.745452 
L 450.975699 299.745452 
L 450.975699 295.183075 
L 454.131572 295.183075 
L 454.131572 290.620699 
L 460.112913 290.620699 
L 460.112913 286.058323 
L 476.218018 286.058323 
L 476.218018 281.495947 
L 476.262166 281.495947 
L 476.262166 276.933571 
L 479.585457 276.933571 
L 479.585457 272.371194 
L 485.459904 272.371194 
L 485.459904 267.808818 
L 505.657227 267.808818 
L 505.657227 263.246442 
L 505.657227 263.246442 
L 505.657227 263.246442 
L 513.7625 263.246442 
" style="fill:none;stroke:#f5deb3;stroke-linecap:square;"/>
   </g>
   <g id="line2d_24">
    <path clip-path="url(#p7e8f83aa3f)" d="M 329.17124 359.056343 
L 329.17124 354.493967 
L 330.804153 354.493967 
L 330.804153 349.93159 
L 338.522266 349.93159 
L 338.522266 345.369214 
L 339.837553 345.369214 
L 339.837553 340.806838 
L 347.208494 340.806838 
L 347.208494 336.244462 
L 348.310407 336.244462 
L 348.310407 331.682085 
L 359.372253 331.682085 
L 359.372253 327.119709 
L 388.347714 327.119709 
L 388.347714 322.557333 
L 420.317253 322.557333 
L 420.317253 317.994957 
L 421.430732 317.994957 
L 421.430732 313.43258 
L 423.082745 313.43258 
L 423.082745 308.870204 
L 424.722919 308.870204 
L 424.722919 304.307828 
L 426.912284 304.307828 
L 426.912284 299.745452 
L 427.942498 299.745452 
L 427.942498 295.183075 
L 428.220736 295.183075 
L 428.220736 290.620699 
L 431.419459 290.620699 
L 431.419459 286.058323 
L 442.094459 286.058323 
L 442.094459 281.495947 
L 442.97103 281.495947 
L 442.97103 276.933571 
L 444.309703 276.933571 
L 444.309703 272.371194 
L 455.909845 272.371194 
L 455.909845 267.808818 
L 462.565661 267.808818 
L 462.565661 263.246442 
L 463.91809 263.246442 
L 463.91809 258.684066 
L 465.473291 258.684066 
L 465.473291 254.121689 
L 465.688084 254.121689 
L 465.688084 249.559313 
L 468.79092 249.559313 
L 468.79092 244.996937 
L 476.661867 244.996937 
L 476.661867 240.434561 
L 478.736332 240.434561 
L 478.736332 235.872184 
L 479.512806 235.872184 
L 479.512806 231.309808 
L 486.659864 231.309808 
L 486.659864 226.747432 
L 491.155186 226.747432 
L 491.155186 222.185056 
L 493.28813 222.185056 
L 493.28813 217.622679 
L 498.588002 217.622679 
L 498.588002 213.060303 
L 500.521539 213.060303 
L 500.521539 208.497927 
L 505.958769 208.497927 
L 505.958769 203.935551 
L 513.417163 203.935551 
L 513.417163 199.373175 
L 515.175336 199.373175 
L 515.175336 194.810798 
L 521.611552 194.810798 
L 521.611552 190.248422 
L 528.324031 190.248422 
" style="fill:none;stroke:#f5deb3;stroke-linecap:square;"/>
   </g>
   <g id="line2d_25">
    <path clip-path="url(#p7e8f83aa3f)" d="M 489.47913 359.056343 
L 489.47913 354.493967 
L 492.781192 354.493967 
L 492.781192 349.93159 
L 497.644263 349.93159 
L 497.644263 345.369214 
L 498.913029 345.369214 
L 498.913029 340.806838 
L 498.952517 340.806838 
L 498.952517 336.244462 
L 499.984839 336.244462 
L 499.984839 331.682085 
L 500.180225 331.682085 
L 500.180225 327.119709 
L 500.926201 327.119709 
L 500.926201 322.557333 
L 502.298686 322.557333 
L 502.298686 317.994957 
L 503.743155 317.994957 
L 503.743155 313.43258 
L 504.297789 313.43258 
L 504.297789 308.870204 
L 504.373146 308.870204 
L 504.373146 304.307828 
L 504.442511 304.307828 
L 504.442511 299.745452 
L 504.523508 299.745452 
L 504.523508 295.183075 
L 504.996214 295.183075 
L 504.996214 290.620699 
L 505.645768 290.620699 
L 505.645768 286.058323 
L 505.961047 286.058323 
L 505.961047 281.495947 
L 506.719094 281.495947 
L 506.719094 276.933571 
L 508.050256 276.933571 
L 508.050256 272.371194 
L 508.539624 272.371194 
L 508.539624 267.808818 
L 510.037418 267.808818 
L 510.037418 263.246442 
L 510.159735 263.246442 
L 510.159735 258.684066 
L 512.447876 258.684066 
L 512.447876 254.121689 
L 512.692269 254.121689 
L 512.692269 249.559313 
L 526.394743 249.559313 
L 526.394743 244.996937 
L 527.756496 244.996937 
L 527.756496 240.434561 
L 528.324031 240.434561 
" style="fill:none;stroke:#f5deb3;stroke-linecap:square;"/>
   </g>
   <g id="line2d_26">
    <path clip-path="url(#p7e8f83aa3f)" d="M 348.25148 359.056343 
L 348.25148 354.493967 
L 350.017275 354.493967 
L 350.017275 349.93159 
L 350.441807 349.93159 
L 350.441807 345.369214 
L 351.002128 345.369214 
L 351.002128 340.806838 
L 351.224455 340.806838 
L 351.224455 336.244462 
L 352.483413 336.244462 
L 352.483413 331.682085 
L 353.393369 331.682085 
L 353.393369 327.119709 
L 353.710495 327.119709 
L 353.710495 322.557333 
L 357.606144 322.557333 
L 357.606144 317.994957 
L 369.106713 317.994957 
L 369.106713 313.43258 
L 370.224871 313.43258 
L 370.224871 308.870204 
L 371.591795 308.870204 
L 371.591795 304.307828 
L 372.099119 304.307828 
L 372.099119 299.745452 
L 375.71023 299.745452 
L 375.71023 295.183075 
L 385.288414 295.183075 
L 385.288414 290.620699 
L 386.186232 290.620699 
L 386.186232 286.058323 
L 386.21318 286.058323 
L 386.21318 281.495947 
L 386.895357 281.495947 
L 386.895357 276.933571 
L 389.000696 276.933571 
L 389.000696 272.371194 
L 389.3176 272.371194 
L 389.3176 267.808818 
L 390.441599 267.808818 
L 390.441599 263.246442 
L 404.03472 263.246442 
L 404.03472 258.684066 
L 407.324487 258.684066 
L 407.324487 254.121689 
L 407.44633 254.121689 
L 407.44633 249.559313 
L 408.597296 249.559313 
L 408.597296 244.996937 
L 410.519428 244.996937 
L 410.519428 240.434561 
L 417.07181 240.434561 
L 417.07181 235.872184 
L 417.320597 235.872184 
L 417.320597 231.309808 
L 421.345982 231.309808 
L 421.345982 226.747432 
L 422.589211 226.747432 
L 422.589211 222.185056 
L 434.727998 222.185056 
L 434.727998 217.622679 
L 436.190901 217.622679 
L 436.190901 213.060303 
L 441.023817 213.060303 
L 441.023817 208.497927 
L 444.370604 208.497927 
L 444.370604 203.935551 
L 467.473864 203.935551 
L 467.473864 199.373175 
L 470.180451 199.373175 
L 470.180451 194.810798 
L 502.423779 194.810798 
L 502.423779 190.248422 
L 502.861505 190.248422 
L 502.861505 185.686046 
L 522.124081 185.686046 
L 522.124081 181.12367 
L 527.659811 181.12367 
L 527.659811 176.561293 
L 528.324031 176.561293 
" style="fill:none;stroke:#f5deb3;stroke-linecap:square;"/>
   </g>
   <g id="line2d_27">
    <path clip-path="url(#p7e8f83aa3f)" d="M 405.286742 359.056343 
L 405.286742 354.493967 
L 405.286742 354.493967 
L 405.286742 354.493967 
L 513.7625 354.493967 
" style="fill:none;stroke:#f5deb3;stroke-linecap:square;"/>
   </g>
   <g id="line2d_28">
    <path clip-path="url(#p7e8f83aa3f)" d="M 301.221806 359.056343 
L 301.221806 354.493967 
L 301.993592 354.493967 
L 301.993592 349.93159 
L 312.114674 349.93159 
L 312.114674 345.369214 
L 323.669779 345.369214 
L 323.669779 340.806838 
L 347.087854 340.806838 
L 347.087854 336.244462 
L 376.308803 336.244462 
L 376.308803 331.682085 
L 393.71136 331.682085 
L 393.71136 327.119709 
L 421.955477 327.119709 
L 421.955477 322.557333 
L 424.795894 322.557333 
L 424.795894 317.994957 
L 427.283149 317.994957 
L 427.283149 313.43258 
L 427.323541 313.43258 
L 427.323541 308.870204 
L 429.555419 308.870204 
L 429.555419 304.307828 
L 430.015918 304.307828 
L 430.015918 299.745452 
L 433.096835 299.745452 
L 433.096835 295.183075 
L 439.306889 295.183075 
L 439.306889 290.620699 
L 440.997724 290.620699 
L 440.997724 286.058323 
L 462.100704 286.058323 
L 462.100704 281.495947 
L 463.558932 281.495947 
L 463.558932 276.933571 
L 464.28806 276.933571 
L 464.28806 272.371194 
L 464.700595 272.371194 
L 464.700595 267.808818 
L 465.525768 267.808818 
L 465.525768 263.246442 
L 466.822097 263.246442 
L 466.822097 258.684066 
L 468.129411 258.684066 
L 468.129411 254.121689 
L 468.744318 254.121689 
L 468.744318 249.559313 
L 469.540176 249.559313 
L 469.540176 244.996937 
L 475.255759 244.996937 
L 475.255759 240.434561 
L 475.362911 240.434561 
L 475.362911 235.872184 
L 480.704554 235.872184 
L 480.704554 231.309808 
L 482.039603 231.309808 
L 482.039603 226.747432 
L 482.210898 226.747432 
L 482.210898 222.185056 
L 486.552923 222.185056 
L 486.552923 217.622679 
L 486.900044 217.622679 
L 486.900044 213.060303 
L 502.17327 213.060303 
L 502.17327 208.497927 
L 507.158744 208.497927 
L 507.158744 203.935551 
L 511.38251 203.935551 
L 511.38251 199.373175 
L 513.709158 199.373175 
L 513.709158 194.810798 
L 514.63475 194.810798 
L 514.63475 190.248422 
L 517.838614 190.248422 
L 517.838614 185.686046 
L 528.226261 185.686046 
L 528.226261 181.12367 
L 528.324031 181.12367 
" style="fill:none;stroke:#f5deb3;stroke-linecap:square;"/>
   </g>
   <g id="line2d_29">
    <path clip-path="url(#p7e8f83aa3f)" d="M 296.313687 359.056343 
L 296.313687 354.493967 
L 296.313687 354.493967 
L 296.313687 349.93159 
L 296.313687 349.93159 
L 296.313687 345.369214 
L 330.294415 345.369214 
L 330.294415 340.806838 
L 330.294415 340.806838 
L 330.294415 336.244462 
L 330.294415 336.244462 
L 330.294415 331.682085 
L 337.428975 331.682085 
L 337.428975 327.119709 
L 337.428975 327.119709 
L 337.428975 322.557333 
L 337.428975 322.557333 
L 337.428975 317.994957 
L 379.937183 317.994957 
L 379.937183 313.43258 
L 379.937183 313.43258 
L 379.937183 308.870204 
L 379.937183 308.870204 
L 379.937183 304.307828 
L 426.055475 304.307828 
L 426.055475 299.745452 
L 426.055475 299.745452 
L 426.055475 295.183075 
L 426.055475 295.183075 
L 426.055475 290.620699 
L 444.492177 290.620699 
L 444.492177 286.058323 
L 444.492177 286.058323 
L 444.492177 281.495947 
L 444.492177 281.495947 
L 444.492177 276.933571 
L 454.138206 276.933571 
L 454.138206 272.371194 
L 454.138206 272.371194 
L 454.138206 267.808818 
L 454.138206 267.808818 
L 454.138206 263.246442 
L 457.219123 263.246442 
L 457.219123 258.684066 
L 458.238614 258.684066 
L 458.238614 254.121689 
L 471.447777 254.121689 
L 471.447777 249.559313 
L 472.77096 249.559313 
L 472.77096 244.996937 
L 473.086093 244.996937 
L 473.086093 240.434561 
L 483.153288 240.434561 
L 483.153288 235.872184 
L 486.759802 235.872184 
L 486.759802 231.309808 
L 491.374139 231.309808 
L 491.374139 226.747432 
L 509.486847 226.747432 
L 509.486847 222.185056 
L 509.486847 222.185056 
L 509.486847 222.185056 
L 513.7625 222.185056 
" style="fill:none;stroke:#f5deb3;stroke-linecap:square;"/>
   </g>
   <g id="line2d_30">
    <path clip-path="url(#p7e8f83aa3f)" d="M 415.360088 359.056343 
L 415.360088 354.493967 
L 418.386469 354.493967 
L 418.386469 349.93159 
L 469.460451 349.93159 
L 469.460451 345.369214 
L 483.619505 345.369214 
L 483.619505 340.806838 
L 503.511368 340.806838 
L 503.511368 336.244462 
L 510.448098 336.244462 
L 510.448098 331.682085 
L 511.954356 331.682085 
L 511.954356 327.119709 
L 512.34618 327.119709 
L 512.34618 322.557333 
L 512.745751 322.557333 
L 512.745751 317.994957 
L 513.163651 317.994957 
L 513.163651 313.43258 
L 513.163651 313.43258 
L 513.163651 313.43258 
L 513.7625 313.43258 
" style="fill:none;stroke:#f5deb3;stroke-linecap:square;"/>
   </g>
   <g id="line2d_31">
    <path clip-path="url(#p7e8f83aa3f)" d="M -1 349.93159 
L 22.952491 349.93159 
L 22.952491 345.369214 
L 56.547366 345.369214 
L 56.547366 340.806838 
L 56.547366 340.806838 
L 56.547366 336.244462 
L 67.3625 336.244462 
L 67.3625 331.682085 
L 76.199108 331.682085 
L 76.199108 327.119709 
L 90.142241 327.119709 
L 90.142241 322.557333 
L 90.142241 322.557333 
L 90.142241 317.994957 
L 95.85085 317.994957 
L 95.85085 313.43258 
L 100.957375 313.43258 
L 100.957375 308.870204 
L 105.576788 308.870204 
L 105.576788 304.307828 
L 109.793982 304.307828 
L 109.793982 299.745452 
L 109.793982 299.745452 
L 109.793982 295.183075 
L 202.344083 295.183075 
L 202.344083 290.620699 
L 218.480674 290.620699 
L 218.480674 286.058323 
L 232.850833 286.058323 
L 232.850833 281.495947 
L 233.798104 281.495947 
L 233.798104 276.933571 
L 243.153082 276.933571 
L 243.153082 272.371194 
L 244.924925 272.371194 
L 244.924925 267.808818 
L 246.634271 267.808818 
L 246.634271 263.246442 
L 250.105957 263.246442 
L 250.105957 258.684066 
L 250.77142 258.684066 
L 250.77142 254.121689 
L 253.136141 254.121689 
L 253.136141 249.559313 
L 253.761532 249.559313 
L 253.761532 244.996937 
L 254.988615 244.996937 
L 254.988615 240.434561 
L 261.054917 240.434561 
L 261.054917 235.872184 
L 262.112424 235.872184 
L 262.112424 231.309808 
L 268.78005 231.309808 
L 268.78005 226.747432 
L 270.716016 226.747432 
L 270.716016 222.185056 
L 274.098818 222.185056 
L 274.098818 217.622679 
L 274.774801 217.622679 
L 274.774801 213.060303 
L 279.137224 213.060303 
L 279.137224 208.497927 
L 281.647798 208.497927 
L 281.647798 203.935551 
L 281.996066 203.935551 
L 281.996066 199.373175 
L 283.476964 199.373175 
L 283.476964 194.810798 
L 285.347666 194.810798 
L 285.347666 190.248422 
L 286.309559 190.248422 
L 286.309559 185.686046 
L 286.83581 185.686046 
L 286.83581 181.12367 
L 287.148839 181.12367 
L 287.148839 176.561293 
L 288.482411 176.561293 
L 288.482411 171.998917 
L 289.384618 171.998917 
L 289.384618 167.436541 
L 291.521792 167.436541 
L 291.521792 162.874165 
L 291.806058 162.874165 
L 291.806058 158.311788 
L 292.741747 158.311788 
L 292.741747 153.749412 
L 293.29461 153.749412 
L 293.29461 149.187036 
L 295.794391 149.187036 
L 295.794391 144.62466 
L 304.091416 144.62466 
L 304.091416 140.062283 
L 312.176771 140.062283 
L 312.176771 135.499907 
L 313.703903 135.499907 
L 313.703903 130.937531 
L 319.851493 130.937531 
L 319.851493 126.375155 
L 329.127516 126.375155 
L 329.127516 121.812778 
L 337.686291 121.812778 
L 337.686291 117.250402 
L 356.698355 117.250402 
L 356.698355 112.688026 
L 377.997612 112.688026 
L 377.997612 108.12565 
L 392.318294 108.12565 
L 392.318294 103.563274 
L 424.331856 103.563274 
L 424.331856 99.000897 
L 429.184954 99.000897 
L 429.184954 94.438521 
L 434.51465 94.438521 
L 434.51465 89.876145 
L 480.520144 89.876145 
L 480.520144 85.313769 
L 480.564389 85.313769 
L 480.564389 80.751392 
L 484.972529 80.751392 
L 484.972529 76.189016 
L 484.972529 76.189016 
L 484.972529 76.189016 
L 513.7625 76.189016 
" style="fill:none;stroke:#000000;stroke-linecap:square;"/>
   </g>
   <g id="line2d_32"/>
   <g id="line2d_33">
    <path clip-path="url(#p7e8f83aa3f)" d="M 310.919446 359.056343 
L 310.919446 354.493967 
L 319.265297 354.493967 
L 319.265297 349.93159 
L 380.470883 349.93159 
L 380.470883 345.369214 
L 384.345659 345.369214 
L 384.345659 340.806838 
L 384.345659 340.806838 
L 384.345659 340.806838 
L 513.7625 340.806838 
" style="fill:none;stroke:#00bfbf;stroke-linecap:square;"/>
   </g>
   <g id="line2d_34"/>
   <g id="line2d_35">
    <path clip-path="url(#p7e8f83aa3f)" d="M 344.130674 359.056343 
L 344.130674 354.493967 
L 406.930763 354.493967 
L 406.930763 349.93159 
L 407.455021 349.93159 
L 407.455021 345.369214 
L 430.010462 345.369214 
L 430.010462 340.806838 
L 430.010462 340.806838 
L 430.010462 340.806838 
L 513.7625 340.806838 
" style="fill:none;stroke:#bf00bf;stroke-linecap:square;"/>
   </g>
   <g id="line2d_36"/>
   <g id="line2d_37">
    <path clip-path="url(#p7e8f83aa3f)" d="M 377.01421 359.056343 
L 377.01421 354.493967 
L 433.19402 354.493967 
L 433.19402 349.93159 
L 460.118777 349.93159 
L 460.118777 345.369214 
L 495.275825 345.369214 
L 495.275825 340.806838 
L 495.275825 340.806838 
L 495.275825 340.806838 
L 513.7625 340.806838 
" style="fill:none;stroke:#ff0000;stroke-linecap:square;stroke-width:3.0;"/>
   </g>
   <g id="line2d_38"/>
   <g id="line2d_39">
    <path clip-path="url(#p7e8f83aa3f)" d="M 513.7625 359.056343 
L 513.7625 13.456343 
" style="fill:none;stroke:#000000;stroke-linecap:square;"/>
   </g>
   <g id="patch_3">
    <path d="M 67.3625 13.456343 
L 513.7625 13.456343 
" style="fill:none;stroke:#000000;stroke-linecap:square;stroke-linejoin:miter;"/>
   </g>
   <g id="patch_4">
    <path d="M 513.7625 359.056343 
L 513.7625 13.456343 
" style="fill:none;stroke:#000000;stroke-linecap:square;stroke-linejoin:miter;"/>
   </g>
   <g id="patch_5">
    <path d="M 67.3625 359.056343 
L 513.7625 359.056343 
" style="fill:none;stroke:#000000;stroke-linecap:square;stroke-linejoin:miter;"/>
   </g>
   <g id="patch_6">
    <path d="M 67.3625 359.056343 
L 67.3625 13.456343 
" style="fill:none;stroke:#000000;stroke-linecap:square;stroke-linejoin:miter;"/>
   </g>
   <g id="matplotlib.axis_1">
    <g id="xtick_1">
     <g id="line2d_40">
      <path clip-path="url(#p7e8f83aa3f)" d="M 67.3625 359.056343 
L 67.3625 13.456343 
" style="fill:none;stroke:#000000;stroke-dasharray:1.000000,3.000000;stroke-dashoffset:0.0;stroke-width:0.5;"/>
     </g>
     <g id="line2d_41">
      <defs>
       <path d="M 0 0 
L 0 -4 
" id="mb5dedf8a8b" style="stroke:#000000;stroke-width:0.5;"/>
      </defs>
      <g>
       <use style="stroke:#000000;stroke-width:0.5;" x="67.3625" xlink:href="#mb5dedf8a8b" y="359.056342822"/>
      </g>
     </g>
     <g id="line2d_42">
      <defs>
       <path d="M 0 0 
L 0 4 
" id="m25a74828ef" style="stroke:#000000;stroke-width:0.5;"/>
      </defs>
      <g>
       <use style="stroke:#000000;stroke-width:0.5;" x="67.3625" xlink:href="#m25a74828ef" y="13.4563428218"/>
      </g>
     </g>
     <g id="text_1">
      <!-- 0 -->
      <defs>
       <path d="M 31.78125 66.40625 
Q 24.171875 66.40625 20.328125 58.90625 
Q 16.5 51.421875 16.5 36.375 
Q 16.5 21.390625 20.328125 13.890625 
Q 24.171875 6.390625 31.78125 6.390625 
Q 39.453125 6.390625 43.28125 13.890625 
Q 47.125 21.390625 47.125 36.375 
Q 47.125 51.421875 43.28125 58.90625 
Q 39.453125 66.40625 31.78125 66.40625 
M 31.78125 74.21875 
Q 44.046875 74.21875 50.515625 64.515625 
Q 56.984375 54.828125 56.984375 36.375 
Q 56.984375 17.96875 50.515625 8.265625 
Q 44.046875 -1.421875 31.78125 -1.421875 
Q 19.53125 -1.421875 13.0625 8.265625 
Q 6.59375 17.96875 6.59375 36.375 
Q 6.59375 54.828125 13.0625 64.515625 
Q 19.53125 74.21875 31.78125 74.21875 
" id="BitstreamVeraSans-Roman-30"/>
      </defs>
      <g transform="translate(61.0 378.253217822)scale(0.2 -0.2)">
       <use xlink:href="#BitstreamVeraSans-Roman-30"/>
      </g>
     </g>
    </g>
    <g id="xtick_2">
     <g id="line2d_43">
      <path clip-path="url(#p7e8f83aa3f)" d="M 178.962258 359.056343 
L 178.962258 13.456343 
" style="fill:none;stroke:#000000;stroke-dasharray:1.000000,3.000000;stroke-dashoffset:0.0;stroke-width:0.5;"/>
     </g>
     <g id="line2d_44">
      <g>
       <use style="stroke:#000000;stroke-width:0.5;" x="178.962257667" xlink:href="#mb5dedf8a8b" y="359.056342822"/>
      </g>
     </g>
     <g id="line2d_45">
      <g>
       <use style="stroke:#000000;stroke-width:0.5;" x="178.962257667" xlink:href="#m25a74828ef" y="13.4563428218"/>
      </g>
     </g>
     <g id="text_2">
      <!-- 1 -->
      <defs>
       <path d="M 12.40625 8.296875 
L 28.515625 8.296875 
L 28.515625 63.921875 
L 10.984375 60.40625 
L 10.984375 69.390625 
L 28.421875 72.90625 
L 38.28125 72.90625 
L 38.28125 8.296875 
L 54.390625 8.296875 
L 54.390625 0 
L 12.40625 0 
z
" id="BitstreamVeraSans-Roman-31"/>
      </defs>
      <g transform="translate(172.599757667 378.253217822)scale(0.2 -0.2)">
       <use xlink:href="#BitstreamVeraSans-Roman-31"/>
      </g>
     </g>
    </g>
    <g id="xtick_3">
     <g id="line2d_46">
      <path clip-path="url(#p7e8f83aa3f)" d="M 290.562015 359.056343 
L 290.562015 13.456343 
" style="fill:none;stroke:#000000;stroke-dasharray:1.000000,3.000000;stroke-dashoffset:0.0;stroke-width:0.5;"/>
     </g>
     <g id="line2d_47">
      <g>
       <use style="stroke:#000000;stroke-width:0.5;" x="290.562015333" xlink:href="#mb5dedf8a8b" y="359.056342822"/>
      </g>
     </g>
     <g id="line2d_48">
      <g>
       <use style="stroke:#000000;stroke-width:0.5;" x="290.562015333" xlink:href="#m25a74828ef" y="13.4563428218"/>
      </g>
     </g>
     <g id="text_3">
      <!-- 2 -->
      <defs>
       <path d="M 19.1875 8.296875 
L 53.609375 8.296875 
L 53.609375 0 
L 7.328125 0 
L 7.328125 8.296875 
Q 12.9375 14.109375 22.625 23.890625 
Q 32.328125 33.6875 34.8125 36.53125 
Q 39.546875 41.84375 41.421875 45.53125 
Q 43.3125 49.21875 43.3125 52.78125 
Q 43.3125 58.59375 39.234375 62.25 
Q 35.15625 65.921875 28.609375 65.921875 
Q 23.96875 65.921875 18.8125 64.3125 
Q 13.671875 62.703125 7.8125 59.421875 
L 7.8125 69.390625 
Q 13.765625 71.78125 18.9375 73 
Q 24.125 74.21875 28.421875 74.21875 
Q 39.75 74.21875 46.484375 68.546875 
Q 53.21875 62.890625 53.21875 53.421875 
Q 53.21875 48.921875 51.53125 44.890625 
Q 49.859375 40.875 45.40625 35.40625 
Q 44.1875 33.984375 37.640625 27.21875 
Q 31.109375 20.453125 19.1875 8.296875 
" id="BitstreamVeraSans-Roman-32"/>
      </defs>
      <g transform="translate(284.199515333 378.253217822)scale(0.2 -0.2)">
       <use xlink:href="#BitstreamVeraSans-Roman-32"/>
      </g>
     </g>
    </g>
    <g id="xtick_4">
     <g id="line2d_49">
      <path clip-path="url(#p7e8f83aa3f)" d="M 402.161773 359.056343 
L 402.161773 13.456343 
" style="fill:none;stroke:#000000;stroke-dasharray:1.000000,3.000000;stroke-dashoffset:0.0;stroke-width:0.5;"/>
     </g>
     <g id="line2d_50">
      <g>
       <use style="stroke:#000000;stroke-width:0.5;" x="402.161773" xlink:href="#mb5dedf8a8b" y="359.056342822"/>
      </g>
     </g>
     <g id="line2d_51">
      <g>
       <use style="stroke:#000000;stroke-width:0.5;" x="402.161773" xlink:href="#m25a74828ef" y="13.4563428218"/>
      </g>
     </g>
     <g id="text_4">
      <!-- 3 -->
      <defs>
       <path d="M 40.578125 39.3125 
Q 47.65625 37.796875 51.625 33 
Q 55.609375 28.21875 55.609375 21.1875 
Q 55.609375 10.40625 48.1875 4.484375 
Q 40.765625 -1.421875 27.09375 -1.421875 
Q 22.515625 -1.421875 17.65625 -0.515625 
Q 12.796875 0.390625 7.625 2.203125 
L 7.625 11.71875 
Q 11.71875 9.328125 16.59375 8.109375 
Q 21.484375 6.890625 26.8125 6.890625 
Q 36.078125 6.890625 40.9375 10.546875 
Q 45.796875 14.203125 45.796875 21.1875 
Q 45.796875 27.640625 41.28125 31.265625 
Q 36.765625 34.90625 28.71875 34.90625 
L 20.21875 34.90625 
L 20.21875 43.015625 
L 29.109375 43.015625 
Q 36.375 43.015625 40.234375 45.921875 
Q 44.09375 48.828125 44.09375 54.296875 
Q 44.09375 59.90625 40.109375 62.90625 
Q 36.140625 65.921875 28.71875 65.921875 
Q 24.65625 65.921875 20.015625 65.03125 
Q 15.375 64.15625 9.8125 62.3125 
L 9.8125 71.09375 
Q 15.4375 72.65625 20.34375 73.4375 
Q 25.25 74.21875 29.59375 74.21875 
Q 40.828125 74.21875 47.359375 69.109375 
Q 53.90625 64.015625 53.90625 55.328125 
Q 53.90625 49.265625 50.4375 45.09375 
Q 46.96875 40.921875 40.578125 39.3125 
" id="BitstreamVeraSans-Roman-33"/>
      </defs>
      <g transform="translate(395.799273 378.253217822)scale(0.2 -0.2)">
       <use xlink:href="#BitstreamVeraSans-Roman-33"/>
      </g>
     </g>
    </g>
    <g id="xtick_5">
     <g id="line2d_52">
      <path clip-path="url(#p7e8f83aa3f)" d="M 513.761531 359.056343 
L 513.761531 13.456343 
" style="fill:none;stroke:#000000;stroke-dasharray:1.000000,3.000000;stroke-dashoffset:0.0;stroke-width:0.5;"/>
     </g>
     <g id="line2d_53">
      <g>
       <use style="stroke:#000000;stroke-width:0.5;" x="513.761530667" xlink:href="#mb5dedf8a8b" y="359.056342822"/>
      </g>
     </g>
     <g id="line2d_54">
      <g>
       <use style="stroke:#000000;stroke-width:0.5;" x="513.761530667" xlink:href="#m25a74828ef" y="13.4563428218"/>
      </g>
     </g>
     <g id="text_5">
      <!-- 4 -->
      <defs>
       <path d="M 37.796875 64.3125 
L 12.890625 25.390625 
L 37.796875 25.390625 
z
M 35.203125 72.90625 
L 47.609375 72.90625 
L 47.609375 25.390625 
L 58.015625 25.390625 
L 58.015625 17.1875 
L 47.609375 17.1875 
L 47.609375 0 
L 37.796875 0 
L 37.796875 17.1875 
L 4.890625 17.1875 
L 4.890625 26.703125 
z
" id="BitstreamVeraSans-Roman-34"/>
      </defs>
      <g transform="translate(507.399030667 378.253217822)scale(0.2 -0.2)">
       <use xlink:href="#BitstreamVeraSans-Roman-34"/>
      </g>
     </g>
    </g>
    <g id="xtick_6">
     <g id="line2d_55">
      <defs>
       <path d="M 0 0 
L 0 -2 
" id="ma8c8f59396" style="stroke:#000000;stroke-width:0.5;"/>
      </defs>
      <g>
       <use style="stroke:#000000;stroke-width:0.5;" x="100.957374566" xlink:href="#ma8c8f59396" y="359.056342822"/>
      </g>
     </g>
     <g id="line2d_56">
      <defs>
       <path d="M 0 0 
L 0 2 
" id="m7074f2d157" style="stroke:#000000;stroke-width:0.5;"/>
      </defs>
      <g>
       <use style="stroke:#000000;stroke-width:0.5;" x="100.957374566" xlink:href="#m7074f2d157" y="13.4563428218"/>
      </g>
     </g>
    </g>
    <g id="xtick_7">
     <g id="line2d_57">
      <g>
       <use style="stroke:#000000;stroke-width:0.5;" x="120.609116404" xlink:href="#ma8c8f59396" y="359.056342822"/>
      </g>
     </g>
     <g id="line2d_58">
      <g>
       <use style="stroke:#000000;stroke-width:0.5;" x="120.609116404" xlink:href="#m7074f2d157" y="13.4563428218"/>
      </g>
     </g>
    </g>
    <g id="xtick_8">
     <g id="line2d_59">
      <g>
       <use style="stroke:#000000;stroke-width:0.5;" x="134.552249133" xlink:href="#ma8c8f59396" y="359.056342822"/>
      </g>
     </g>
     <g id="line2d_60">
      <g>
       <use style="stroke:#000000;stroke-width:0.5;" x="134.552249133" xlink:href="#m7074f2d157" y="13.4563428218"/>
      </g>
     </g>
    </g>
    <g id="xtick_9">
     <g id="line2d_61">
      <g>
       <use style="stroke:#000000;stroke-width:0.5;" x="145.3673831" xlink:href="#ma8c8f59396" y="359.056342822"/>
      </g>
     </g>
     <g id="line2d_62">
      <g>
       <use style="stroke:#000000;stroke-width:0.5;" x="145.3673831" xlink:href="#m7074f2d157" y="13.4563428218"/>
      </g>
     </g>
    </g>
    <g id="xtick_10">
     <g id="line2d_63">
      <g>
       <use style="stroke:#000000;stroke-width:0.5;" x="154.203990971" xlink:href="#ma8c8f59396" y="359.056342822"/>
      </g>
     </g>
     <g id="line2d_64">
      <g>
       <use style="stroke:#000000;stroke-width:0.5;" x="154.203990971" xlink:href="#m7074f2d157" y="13.4563428218"/>
      </g>
     </g>
    </g>
    <g id="xtick_11">
     <g id="line2d_65">
      <g>
       <use style="stroke:#000000;stroke-width:0.5;" x="161.67523647" xlink:href="#ma8c8f59396" y="359.056342822"/>
      </g>
     </g>
     <g id="line2d_66">
      <g>
       <use style="stroke:#000000;stroke-width:0.5;" x="161.67523647" xlink:href="#m7074f2d157" y="13.4563428218"/>
      </g>
     </g>
    </g>
    <g id="xtick_12">
     <g id="line2d_67">
      <g>
       <use style="stroke:#000000;stroke-width:0.5;" x="168.147123699" xlink:href="#ma8c8f59396" y="359.056342822"/>
      </g>
     </g>
     <g id="line2d_68">
      <g>
       <use style="stroke:#000000;stroke-width:0.5;" x="168.147123699" xlink:href="#m7074f2d157" y="13.4563428218"/>
      </g>
     </g>
    </g>
    <g id="xtick_13">
     <g id="line2d_69">
      <g>
       <use style="stroke:#000000;stroke-width:0.5;" x="173.855732809" xlink:href="#ma8c8f59396" y="359.056342822"/>
      </g>
     </g>
     <g id="line2d_70">
      <g>
       <use style="stroke:#000000;stroke-width:0.5;" x="173.855732809" xlink:href="#m7074f2d157" y="13.4563428218"/>
      </g>
     </g>
    </g>
    <g id="xtick_14">
     <g id="line2d_71">
      <g>
       <use style="stroke:#000000;stroke-width:0.5;" x="212.557132233" xlink:href="#ma8c8f59396" y="359.056342822"/>
      </g>
     </g>
     <g id="line2d_72">
      <g>
       <use style="stroke:#000000;stroke-width:0.5;" x="212.557132233" xlink:href="#m7074f2d157" y="13.4563428218"/>
      </g>
     </g>
    </g>
    <g id="xtick_15">
     <g id="line2d_73">
      <g>
       <use style="stroke:#000000;stroke-width:0.5;" x="232.208874071" xlink:href="#ma8c8f59396" y="359.056342822"/>
      </g>
     </g>
     <g id="line2d_74">
      <g>
       <use style="stroke:#000000;stroke-width:0.5;" x="232.208874071" xlink:href="#m7074f2d157" y="13.4563428218"/>
      </g>
     </g>
    </g>
    <g id="xtick_16">
     <g id="line2d_75">
      <g>
       <use style="stroke:#000000;stroke-width:0.5;" x="246.1520068" xlink:href="#ma8c8f59396" y="359.056342822"/>
      </g>
     </g>
     <g id="line2d_76">
      <g>
       <use style="stroke:#000000;stroke-width:0.5;" x="246.1520068" xlink:href="#m7074f2d157" y="13.4563428218"/>
      </g>
     </g>
    </g>
    <g id="xtick_17">
     <g id="line2d_77">
      <g>
       <use style="stroke:#000000;stroke-width:0.5;" x="256.967140767" xlink:href="#ma8c8f59396" y="359.056342822"/>
      </g>
     </g>
     <g id="line2d_78">
      <g>
       <use style="stroke:#000000;stroke-width:0.5;" x="256.967140767" xlink:href="#m7074f2d157" y="13.4563428218"/>
      </g>
     </g>
    </g>
    <g id="xtick_18">
     <g id="line2d_79">
      <g>
       <use style="stroke:#000000;stroke-width:0.5;" x="265.803748637" xlink:href="#ma8c8f59396" y="359.056342822"/>
      </g>
     </g>
     <g id="line2d_80">
      <g>
       <use style="stroke:#000000;stroke-width:0.5;" x="265.803748637" xlink:href="#m7074f2d157" y="13.4563428218"/>
      </g>
     </g>
    </g>
    <g id="xtick_19">
     <g id="line2d_81">
      <g>
       <use style="stroke:#000000;stroke-width:0.5;" x="273.274994137" xlink:href="#ma8c8f59396" y="359.056342822"/>
      </g>
     </g>
     <g id="line2d_82">
      <g>
       <use style="stroke:#000000;stroke-width:0.5;" x="273.274994137" xlink:href="#m7074f2d157" y="13.4563428218"/>
      </g>
     </g>
    </g>
    <g id="xtick_20">
     <g id="line2d_83">
      <g>
       <use style="stroke:#000000;stroke-width:0.5;" x="279.746881366" xlink:href="#ma8c8f59396" y="359.056342822"/>
      </g>
     </g>
     <g id="line2d_84">
      <g>
       <use style="stroke:#000000;stroke-width:0.5;" x="279.746881366" xlink:href="#m7074f2d157" y="13.4563428218"/>
      </g>
     </g>
    </g>
    <g id="xtick_21">
     <g id="line2d_85">
      <g>
       <use style="stroke:#000000;stroke-width:0.5;" x="285.455490475" xlink:href="#ma8c8f59396" y="359.056342822"/>
      </g>
     </g>
     <g id="line2d_86">
      <g>
       <use style="stroke:#000000;stroke-width:0.5;" x="285.455490475" xlink:href="#m7074f2d157" y="13.4563428218"/>
      </g>
     </g>
    </g>
    <g id="xtick_22">
     <g id="line2d_87">
      <g>
       <use style="stroke:#000000;stroke-width:0.5;" x="324.1568899" xlink:href="#ma8c8f59396" y="359.056342822"/>
      </g>
     </g>
     <g id="line2d_88">
      <g>
       <use style="stroke:#000000;stroke-width:0.5;" x="324.1568899" xlink:href="#m7074f2d157" y="13.4563428218"/>
      </g>
     </g>
    </g>
    <g id="xtick_23">
     <g id="line2d_89">
      <g>
       <use style="stroke:#000000;stroke-width:0.5;" x="343.808631738" xlink:href="#ma8c8f59396" y="359.056342822"/>
      </g>
     </g>
     <g id="line2d_90">
      <g>
       <use style="stroke:#000000;stroke-width:0.5;" x="343.808631738" xlink:href="#m7074f2d157" y="13.4563428218"/>
      </g>
     </g>
    </g>
    <g id="xtick_24">
     <g id="line2d_91">
      <g>
       <use style="stroke:#000000;stroke-width:0.5;" x="357.751764466" xlink:href="#ma8c8f59396" y="359.056342822"/>
      </g>
     </g>
     <g id="line2d_92">
      <g>
       <use style="stroke:#000000;stroke-width:0.5;" x="357.751764466" xlink:href="#m7074f2d157" y="13.4563428218"/>
      </g>
     </g>
    </g>
    <g id="xtick_25">
     <g id="line2d_93">
      <g>
       <use style="stroke:#000000;stroke-width:0.5;" x="368.566898433" xlink:href="#ma8c8f59396" y="359.056342822"/>
      </g>
     </g>
     <g id="line2d_94">
      <g>
       <use style="stroke:#000000;stroke-width:0.5;" x="368.566898433" xlink:href="#m7074f2d157" y="13.4563428218"/>
      </g>
     </g>
    </g>
    <g id="xtick_26">
     <g id="line2d_95">
      <g>
       <use style="stroke:#000000;stroke-width:0.5;" x="377.403506304" xlink:href="#ma8c8f59396" y="359.056342822"/>
      </g>
     </g>
     <g id="line2d_96">
      <g>
       <use style="stroke:#000000;stroke-width:0.5;" x="377.403506304" xlink:href="#m7074f2d157" y="13.4563428218"/>
      </g>
     </g>
    </g>
    <g id="xtick_27">
     <g id="line2d_97">
      <g>
       <use style="stroke:#000000;stroke-width:0.5;" x="384.874751803" xlink:href="#ma8c8f59396" y="359.056342822"/>
      </g>
     </g>
     <g id="line2d_98">
      <g>
       <use style="stroke:#000000;stroke-width:0.5;" x="384.874751803" xlink:href="#m7074f2d157" y="13.4563428218"/>
      </g>
     </g>
    </g>
    <g id="xtick_28">
     <g id="line2d_99">
      <g>
       <use style="stroke:#000000;stroke-width:0.5;" x="391.346639033" xlink:href="#ma8c8f59396" y="359.056342822"/>
      </g>
     </g>
     <g id="line2d_100">
      <g>
       <use style="stroke:#000000;stroke-width:0.5;" x="391.346639033" xlink:href="#m7074f2d157" y="13.4563428218"/>
      </g>
     </g>
    </g>
    <g id="xtick_29">
     <g id="line2d_101">
      <g>
       <use style="stroke:#000000;stroke-width:0.5;" x="397.055248142" xlink:href="#ma8c8f59396" y="359.056342822"/>
      </g>
     </g>
     <g id="line2d_102">
      <g>
       <use style="stroke:#000000;stroke-width:0.5;" x="397.055248142" xlink:href="#m7074f2d157" y="13.4563428218"/>
      </g>
     </g>
    </g>
    <g id="xtick_30">
     <g id="line2d_103">
      <g>
       <use style="stroke:#000000;stroke-width:0.5;" x="435.756647566" xlink:href="#ma8c8f59396" y="359.056342822"/>
      </g>
     </g>
     <g id="line2d_104">
      <g>
       <use style="stroke:#000000;stroke-width:0.5;" x="435.756647566" xlink:href="#m7074f2d157" y="13.4563428218"/>
      </g>
     </g>
    </g>
    <g id="xtick_31">
     <g id="line2d_105">
      <g>
       <use style="stroke:#000000;stroke-width:0.5;" x="455.408389404" xlink:href="#ma8c8f59396" y="359.056342822"/>
      </g>
     </g>
     <g id="line2d_106">
      <g>
       <use style="stroke:#000000;stroke-width:0.5;" x="455.408389404" xlink:href="#m7074f2d157" y="13.4563428218"/>
      </g>
     </g>
    </g>
    <g id="xtick_32">
     <g id="line2d_107">
      <g>
       <use style="stroke:#000000;stroke-width:0.5;" x="469.351522133" xlink:href="#ma8c8f59396" y="359.056342822"/>
      </g>
     </g>
     <g id="line2d_108">
      <g>
       <use style="stroke:#000000;stroke-width:0.5;" x="469.351522133" xlink:href="#m7074f2d157" y="13.4563428218"/>
      </g>
     </g>
    </g>
    <g id="xtick_33">
     <g id="line2d_109">
      <g>
       <use style="stroke:#000000;stroke-width:0.5;" x="480.1666561" xlink:href="#ma8c8f59396" y="359.056342822"/>
      </g>
     </g>
     <g id="line2d_110">
      <g>
       <use style="stroke:#000000;stroke-width:0.5;" x="480.1666561" xlink:href="#m7074f2d157" y="13.4563428218"/>
      </g>
     </g>
    </g>
    <g id="xtick_34">
     <g id="line2d_111">
      <g>
       <use style="stroke:#000000;stroke-width:0.5;" x="489.003263971" xlink:href="#ma8c8f59396" y="359.056342822"/>
      </g>
     </g>
     <g id="line2d_112">
      <g>
       <use style="stroke:#000000;stroke-width:0.5;" x="489.003263971" xlink:href="#m7074f2d157" y="13.4563428218"/>
      </g>
     </g>
    </g>
    <g id="xtick_35">
     <g id="line2d_113">
      <g>
       <use style="stroke:#000000;stroke-width:0.5;" x="496.47450947" xlink:href="#ma8c8f59396" y="359.056342822"/>
      </g>
     </g>
     <g id="line2d_114">
      <g>
       <use style="stroke:#000000;stroke-width:0.5;" x="496.47450947" xlink:href="#m7074f2d157" y="13.4563428218"/>
      </g>
     </g>
    </g>
    <g id="xtick_36">
     <g id="line2d_115">
      <g>
       <use style="stroke:#000000;stroke-width:0.5;" x="502.946396699" xlink:href="#ma8c8f59396" y="359.056342822"/>
      </g>
     </g>
     <g id="line2d_116">
      <g>
       <use style="stroke:#000000;stroke-width:0.5;" x="502.946396699" xlink:href="#m7074f2d157" y="13.4563428218"/>
      </g>
     </g>
    </g>
    <g id="xtick_37">
     <g id="line2d_117">
      <g>
       <use style="stroke:#000000;stroke-width:0.5;" x="508.655005809" xlink:href="#ma8c8f59396" y="359.056342822"/>
      </g>
     </g>
     <g id="line2d_118">
      <g>
       <use style="stroke:#000000;stroke-width:0.5;" x="508.655005809" xlink:href="#m7074f2d157" y="13.4563428218"/>
      </g>
     </g>
    </g>
    <g id="text_6">
     <!-- log10 of FEvals / DIM -->
     <defs>
      <path id="BitstreamVeraSans-Roman-20"/>
      <path d="M 9.8125 72.90625 
L 24.515625 72.90625 
L 43.109375 23.296875 
L 61.8125 72.90625 
L 76.515625 72.90625 
L 76.515625 0 
L 66.890625 0 
L 66.890625 64.015625 
L 48.09375 14.015625 
L 38.1875 14.015625 
L 19.390625 64.015625 
L 19.390625 0 
L 9.8125 0 
z
" id="BitstreamVeraSans-Roman-4d"/>
      <path d="M 30.609375 48.390625 
Q 23.390625 48.390625 19.1875 42.75 
Q 14.984375 37.109375 14.984375 27.296875 
Q 14.984375 17.484375 19.15625 11.84375 
Q 23.34375 6.203125 30.609375 6.203125 
Q 37.796875 6.203125 41.984375 11.859375 
Q 46.1875 17.53125 46.1875 27.296875 
Q 46.1875 37.015625 41.984375 42.703125 
Q 37.796875 48.390625 30.609375 48.390625 
M 30.609375 56 
Q 42.328125 56 49.015625 48.375 
Q 55.71875 40.765625 55.71875 27.296875 
Q 55.71875 13.875 49.015625 6.21875 
Q 42.328125 -1.421875 30.609375 -1.421875 
Q 18.84375 -1.421875 12.171875 6.21875 
Q 5.515625 13.875 5.515625 27.296875 
Q 5.515625 40.765625 12.171875 48.375 
Q 18.84375 56 30.609375 56 
" id="BitstreamVeraSans-Roman-6f"/>
      <path d="M 9.421875 75.984375 
L 18.40625 75.984375 
L 18.40625 0 
L 9.421875 0 
z
" id="BitstreamVeraSans-Roman-6c"/>
      <path d="M 9.8125 72.90625 
L 51.703125 72.90625 
L 51.703125 64.59375 
L 19.671875 64.59375 
L 19.671875 43.109375 
L 48.578125 43.109375 
L 48.578125 34.8125 
L 19.671875 34.8125 
L 19.671875 0 
L 9.8125 0 
z
" id="BitstreamVeraSans-Roman-46"/>
      <path d="M 9.8125 72.90625 
L 55.90625 72.90625 
L 55.90625 64.59375 
L 19.671875 64.59375 
L 19.671875 43.015625 
L 54.390625 43.015625 
L 54.390625 34.71875 
L 19.671875 34.71875 
L 19.671875 8.296875 
L 56.78125 8.296875 
L 56.78125 0 
L 9.8125 0 
z
" id="BitstreamVeraSans-Roman-45"/>
      <path d="M 19.671875 64.796875 
L 19.671875 8.109375 
L 31.59375 8.109375 
Q 46.6875 8.109375 53.6875 14.9375 
Q 60.6875 21.78125 60.6875 36.53125 
Q 60.6875 51.171875 53.6875 57.984375 
Q 46.6875 64.796875 31.59375 64.796875 
z
M 9.8125 72.90625 
L 30.078125 72.90625 
Q 51.265625 72.90625 61.171875 64.09375 
Q 71.09375 55.28125 71.09375 36.53125 
Q 71.09375 17.671875 61.125 8.828125 
Q 51.171875 0 30.078125 0 
L 9.8125 0 
z
" id="BitstreamVeraSans-Roman-44"/>
      <path d="M 25.390625 72.90625 
L 33.6875 72.90625 
L 8.296875 -9.28125 
L 0 -9.28125 
z
" id="BitstreamVeraSans-Roman-2f"/>
      <path d="M 2.984375 54.6875 
L 12.5 54.6875 
L 29.59375 8.796875 
L 46.6875 54.6875 
L 56.203125 54.6875 
L 35.6875 0 
L 23.484375 0 
z
" id="BitstreamVeraSans-Roman-76"/>
      <path d="M 45.40625 27.984375 
Q 45.40625 37.75 41.375 43.109375 
Q 37.359375 48.484375 30.078125 48.484375 
Q 22.859375 48.484375 18.828125 43.109375 
Q 14.796875 37.75 14.796875 27.984375 
Q 14.796875 18.265625 18.828125 12.890625 
Q 22.859375 7.515625 30.078125 7.515625 
Q 37.359375 7.515625 41.375 12.890625 
Q 45.40625 18.265625 45.40625 27.984375 
M 54.390625 6.78125 
Q 54.390625 -7.171875 48.1875 -13.984375 
Q 42 -20.796875 29.203125 -20.796875 
Q 24.46875 -20.796875 20.265625 -20.09375 
Q 16.0625 -19.390625 12.109375 -17.921875 
L 12.109375 -9.1875 
Q 16.0625 -11.328125 19.921875 -12.34375 
Q 23.78125 -13.375 27.78125 -13.375 
Q 36.625 -13.375 41.015625 -8.765625 
Q 45.40625 -4.15625 45.40625 5.171875 
L 45.40625 9.625 
Q 42.625 4.78125 38.28125 2.390625 
Q 33.9375 0 27.875 0 
Q 17.828125 0 11.671875 7.65625 
Q 5.515625 15.328125 5.515625 27.984375 
Q 5.515625 40.671875 11.671875 48.328125 
Q 17.828125 56 27.875 56 
Q 33.9375 56 38.28125 53.609375 
Q 42.625 51.21875 45.40625 46.390625 
L 45.40625 54.6875 
L 54.390625 54.6875 
z
" id="BitstreamVeraSans-Roman-67"/>
      <path d="M 37.109375 75.984375 
L 37.109375 68.5 
L 28.515625 68.5 
Q 23.6875 68.5 21.796875 66.546875 
Q 19.921875 64.59375 19.921875 59.515625 
L 19.921875 54.6875 
L 34.71875 54.6875 
L 34.71875 47.703125 
L 19.921875 47.703125 
L 19.921875 0 
L 10.890625 0 
L 10.890625 47.703125 
L 2.296875 47.703125 
L 2.296875 54.6875 
L 10.890625 54.6875 
L 10.890625 58.5 
Q 10.890625 67.625 15.140625 71.796875 
Q 19.390625 75.984375 28.609375 75.984375 
z
" id="BitstreamVeraSans-Roman-66"/>
      <path d="M 34.28125 27.484375 
Q 23.390625 27.484375 19.1875 25 
Q 14.984375 22.515625 14.984375 16.5 
Q 14.984375 11.71875 18.140625 8.90625 
Q 21.296875 6.109375 26.703125 6.109375 
Q 34.1875 6.109375 38.703125 11.40625 
Q 43.21875 16.703125 43.21875 25.484375 
L 43.21875 27.484375 
z
M 52.203125 31.203125 
L 52.203125 0 
L 43.21875 0 
L 43.21875 8.296875 
Q 40.140625 3.328125 35.546875 0.953125 
Q 30.953125 -1.421875 24.3125 -1.421875 
Q 15.921875 -1.421875 10.953125 3.296875 
Q 6 8.015625 6 15.921875 
Q 6 25.140625 12.171875 29.828125 
Q 18.359375 34.515625 30.609375 34.515625 
L 43.21875 34.515625 
L 43.21875 35.40625 
Q 43.21875 41.609375 39.140625 45 
Q 35.0625 48.390625 27.6875 48.390625 
Q 23 48.390625 18.546875 47.265625 
Q 14.109375 46.140625 10.015625 43.890625 
L 10.015625 52.203125 
Q 14.9375 54.109375 19.578125 55.046875 
Q 24.21875 56 28.609375 56 
Q 40.484375 56 46.34375 49.84375 
Q 52.203125 43.703125 52.203125 31.203125 
" id="BitstreamVeraSans-Roman-61"/>
      <path d="M 44.28125 53.078125 
L 44.28125 44.578125 
Q 40.484375 46.53125 36.375 47.5 
Q 32.28125 48.484375 27.875 48.484375 
Q 21.1875 48.484375 17.84375 46.4375 
Q 14.5 44.390625 14.5 40.28125 
Q 14.5 37.15625 16.890625 35.375 
Q 19.28125 33.59375 26.515625 31.984375 
L 29.59375 31.296875 
Q 39.15625 29.25 43.1875 25.515625 
Q 47.21875 21.78125 47.21875 15.09375 
Q 47.21875 7.46875 41.1875 3.015625 
Q 35.15625 -1.421875 24.609375 -1.421875 
Q 20.21875 -1.421875 15.453125 -0.5625 
Q 10.6875 0.296875 5.421875 2 
L 5.421875 11.28125 
Q 10.40625 8.6875 15.234375 7.390625 
Q 20.0625 6.109375 24.8125 6.109375 
Q 31.15625 6.109375 34.5625 8.28125 
Q 37.984375 10.453125 37.984375 14.40625 
Q 37.984375 18.0625 35.515625 20.015625 
Q 33.0625 21.96875 24.703125 23.78125 
L 21.578125 24.515625 
Q 13.234375 26.265625 9.515625 29.90625 
Q 5.8125 33.546875 5.8125 39.890625 
Q 5.8125 47.609375 11.28125 51.796875 
Q 16.75 56 26.8125 56 
Q 31.78125 56 36.171875 55.265625 
Q 40.578125 54.546875 44.28125 53.078125 
" id="BitstreamVeraSans-Roman-73"/>
      <path d="M 9.8125 72.90625 
L 19.671875 72.90625 
L 19.671875 0 
L 9.8125 0 
z
" id="BitstreamVeraSans-Roman-49"/>
     </defs>
     <g transform="translate(185.4890625 402.609467822)scale(0.2 -0.2)">
      <use xlink:href="#BitstreamVeraSans-Roman-6c"/>
      <use x="27.783203125" xlink:href="#BitstreamVeraSans-Roman-6f"/>
      <use x="88.96484375" xlink:href="#BitstreamVeraSans-Roman-67"/>
      <use x="152.44140625" xlink:href="#BitstreamVeraSans-Roman-31"/>
      <use x="216.064453125" xlink:href="#BitstreamVeraSans-Roman-30"/>
      <use x="279.6875" xlink:href="#BitstreamVeraSans-Roman-20"/>
      <use x="311.474609375" xlink:href="#BitstreamVeraSans-Roman-6f"/>
      <use x="372.65625" xlink:href="#BitstreamVeraSans-Roman-66"/>
      <use x="407.861328125" xlink:href="#BitstreamVeraSans-Roman-20"/>
      <use x="439.6484375" xlink:href="#BitstreamVeraSans-Roman-46"/>
      <use x="497.16796875" xlink:href="#BitstreamVeraSans-Roman-45"/>
      <use x="560.3515625" xlink:href="#BitstreamVeraSans-Roman-76"/>
      <use x="619.53125" xlink:href="#BitstreamVeraSans-Roman-61"/>
      <use x="680.810546875" xlink:href="#BitstreamVeraSans-Roman-6c"/>
      <use x="708.59375" xlink:href="#BitstreamVeraSans-Roman-73"/>
      <use x="760.693359375" xlink:href="#BitstreamVeraSans-Roman-20"/>
      <use x="792.48046875" xlink:href="#BitstreamVeraSans-Roman-2f"/>
      <use x="826.171875" xlink:href="#BitstreamVeraSans-Roman-20"/>
      <use x="857.958984375" xlink:href="#BitstreamVeraSans-Roman-44"/>
      <use x="934.9609375" xlink:href="#BitstreamVeraSans-Roman-49"/>
      <use x="964.453125" xlink:href="#BitstreamVeraSans-Roman-4d"/>
     </g>
    </g>
   </g>
   <g id="matplotlib.axis_2">
    <g id="ytick_1">
     <g id="line2d_119">
      <path clip-path="url(#p7e8f83aa3f)" d="M 67.3625 359.056343 
L 513.7625 359.056343 
" style="fill:none;stroke:#000000;stroke-dasharray:1.000000,3.000000;stroke-dashoffset:0.0;stroke-width:0.5;"/>
     </g>
     <g id="line2d_120">
      <defs>
       <path d="M 0 0 
L 4 0 
" id="mcba8db5b57" style="stroke:#000000;stroke-width:0.5;"/>
      </defs>
      <g>
       <use style="stroke:#000000;stroke-width:0.5;" x="67.3625" xlink:href="#mcba8db5b57" y="359.056342822"/>
      </g>
     </g>
     <g id="line2d_121">
      <defs>
       <path d="M 0 0 
L -4 0 
" id="m622190b690" style="stroke:#000000;stroke-width:0.5;"/>
      </defs>
      <g>
       <use style="stroke:#000000;stroke-width:0.5;" x="513.7625" xlink:href="#m622190b690" y="359.056342822"/>
      </g>
     </g>
     <g id="text_7">
      <!-- 0.0 -->
      <defs>
       <path d="M 10.6875 12.40625 
L 21 12.40625 
L 21 0 
L 10.6875 0 
z
" id="BitstreamVeraSans-Roman-2e"/>
      </defs>
      <g transform="translate(31.55625 364.575092822)scale(0.2 -0.2)">
       <use xlink:href="#BitstreamVeraSans-Roman-30"/>
       <use x="63.623046875" xlink:href="#BitstreamVeraSans-Roman-2e"/>
       <use x="95.41015625" xlink:href="#BitstreamVeraSans-Roman-30"/>
      </g>
     </g>
    </g>
    <g id="ytick_2">
     <g id="line2d_122">
      <path clip-path="url(#p7e8f83aa3f)" d="M 67.3625 290.620699 
L 513.7625 290.620699 
" style="fill:none;stroke:#000000;stroke-dasharray:1.000000,3.000000;stroke-dashoffset:0.0;stroke-width:0.5;"/>
     </g>
     <g id="line2d_123">
      <g>
       <use style="stroke:#000000;stroke-width:0.5;" x="67.3625" xlink:href="#mcba8db5b57" y="290.620699257"/>
      </g>
     </g>
     <g id="line2d_124">
      <g>
       <use style="stroke:#000000;stroke-width:0.5;" x="513.7625" xlink:href="#m622190b690" y="290.620699257"/>
      </g>
     </g>
     <g id="text_8">
      <!-- 0.2 -->
      <g transform="translate(31.55625 296.139449257)scale(0.2 -0.2)">
       <use xlink:href="#BitstreamVeraSans-Roman-30"/>
       <use x="63.623046875" xlink:href="#BitstreamVeraSans-Roman-2e"/>
       <use x="95.41015625" xlink:href="#BitstreamVeraSans-Roman-32"/>
      </g>
     </g>
    </g>
    <g id="ytick_3">
     <g id="line2d_125">
      <path clip-path="url(#p7e8f83aa3f)" d="M 67.3625 222.185056 
L 513.7625 222.185056 
" style="fill:none;stroke:#000000;stroke-dasharray:1.000000,3.000000;stroke-dashoffset:0.0;stroke-width:0.5;"/>
     </g>
     <g id="line2d_126">
      <g>
       <use style="stroke:#000000;stroke-width:0.5;" x="67.3625" xlink:href="#mcba8db5b57" y="222.185055693"/>
      </g>
     </g>
     <g id="line2d_127">
      <g>
       <use style="stroke:#000000;stroke-width:0.5;" x="513.7625" xlink:href="#m622190b690" y="222.185055693"/>
      </g>
     </g>
     <g id="text_9">
      <!-- 0.4 -->
      <g transform="translate(31.55625 227.703805693)scale(0.2 -0.2)">
       <use xlink:href="#BitstreamVeraSans-Roman-30"/>
       <use x="63.623046875" xlink:href="#BitstreamVeraSans-Roman-2e"/>
       <use x="95.41015625" xlink:href="#BitstreamVeraSans-Roman-34"/>
      </g>
     </g>
    </g>
    <g id="ytick_4">
     <g id="line2d_128">
      <path clip-path="url(#p7e8f83aa3f)" d="M 67.3625 153.749412 
L 513.7625 153.749412 
" style="fill:none;stroke:#000000;stroke-dasharray:1.000000,3.000000;stroke-dashoffset:0.0;stroke-width:0.5;"/>
     </g>
     <g id="line2d_129">
      <g>
       <use style="stroke:#000000;stroke-width:0.5;" x="67.3625" xlink:href="#mcba8db5b57" y="153.749412129"/>
      </g>
     </g>
     <g id="line2d_130">
      <g>
       <use style="stroke:#000000;stroke-width:0.5;" x="513.7625" xlink:href="#m622190b690" y="153.749412129"/>
      </g>
     </g>
     <g id="text_10">
      <!-- 0.6 -->
      <defs>
       <path d="M 33.015625 40.375 
Q 26.375 40.375 22.484375 35.828125 
Q 18.609375 31.296875 18.609375 23.390625 
Q 18.609375 15.53125 22.484375 10.953125 
Q 26.375 6.390625 33.015625 6.390625 
Q 39.65625 6.390625 43.53125 10.953125 
Q 47.40625 15.53125 47.40625 23.390625 
Q 47.40625 31.296875 43.53125 35.828125 
Q 39.65625 40.375 33.015625 40.375 
M 52.59375 71.296875 
L 52.59375 62.3125 
Q 48.875 64.0625 45.09375 64.984375 
Q 41.3125 65.921875 37.59375 65.921875 
Q 27.828125 65.921875 22.671875 59.328125 
Q 17.53125 52.734375 16.796875 39.40625 
Q 19.671875 43.65625 24.015625 45.921875 
Q 28.375 48.1875 33.59375 48.1875 
Q 44.578125 48.1875 50.953125 41.515625 
Q 57.328125 34.859375 57.328125 23.390625 
Q 57.328125 12.15625 50.6875 5.359375 
Q 44.046875 -1.421875 33.015625 -1.421875 
Q 20.359375 -1.421875 13.671875 8.265625 
Q 6.984375 17.96875 6.984375 36.375 
Q 6.984375 53.65625 15.1875 63.9375 
Q 23.390625 74.21875 37.203125 74.21875 
Q 40.921875 74.21875 44.703125 73.484375 
Q 48.484375 72.75 52.59375 71.296875 
" id="BitstreamVeraSans-Roman-36"/>
      </defs>
      <g transform="translate(31.55625 159.268162129)scale(0.2 -0.2)">
       <use xlink:href="#BitstreamVeraSans-Roman-30"/>
       <use x="63.623046875" xlink:href="#BitstreamVeraSans-Roman-2e"/>
       <use x="95.41015625" xlink:href="#BitstreamVeraSans-Roman-36"/>
      </g>
     </g>
    </g>
    <g id="ytick_5">
     <g id="line2d_131">
      <path clip-path="url(#p7e8f83aa3f)" d="M 67.3625 85.313769 
L 513.7625 85.313769 
" style="fill:none;stroke:#000000;stroke-dasharray:1.000000,3.000000;stroke-dashoffset:0.0;stroke-width:0.5;"/>
     </g>
     <g id="line2d_132">
      <g>
       <use style="stroke:#000000;stroke-width:0.5;" x="67.3625" xlink:href="#mcba8db5b57" y="85.3137685644"/>
      </g>
     </g>
     <g id="line2d_133">
      <g>
       <use style="stroke:#000000;stroke-width:0.5;" x="513.7625" xlink:href="#m622190b690" y="85.3137685644"/>
      </g>
     </g>
     <g id="text_11">
      <!-- 0.8 -->
      <defs>
       <path d="M 31.78125 34.625 
Q 24.75 34.625 20.71875 30.859375 
Q 16.703125 27.09375 16.703125 20.515625 
Q 16.703125 13.921875 20.71875 10.15625 
Q 24.75 6.390625 31.78125 6.390625 
Q 38.8125 6.390625 42.859375 10.171875 
Q 46.921875 13.96875 46.921875 20.515625 
Q 46.921875 27.09375 42.890625 30.859375 
Q 38.875 34.625 31.78125 34.625 
M 21.921875 38.8125 
Q 15.578125 40.375 12.03125 44.71875 
Q 8.5 49.078125 8.5 55.328125 
Q 8.5 64.0625 14.71875 69.140625 
Q 20.953125 74.21875 31.78125 74.21875 
Q 42.671875 74.21875 48.875 69.140625 
Q 55.078125 64.0625 55.078125 55.328125 
Q 55.078125 49.078125 51.53125 44.71875 
Q 48 40.375 41.703125 38.8125 
Q 48.828125 37.15625 52.796875 32.3125 
Q 56.78125 27.484375 56.78125 20.515625 
Q 56.78125 9.90625 50.3125 4.234375 
Q 43.84375 -1.421875 31.78125 -1.421875 
Q 19.734375 -1.421875 13.25 4.234375 
Q 6.78125 9.90625 6.78125 20.515625 
Q 6.78125 27.484375 10.78125 32.3125 
Q 14.796875 37.15625 21.921875 38.8125 
M 18.3125 54.390625 
Q 18.3125 48.734375 21.84375 45.5625 
Q 25.390625 42.390625 31.78125 42.390625 
Q 38.140625 42.390625 41.71875 45.5625 
Q 45.3125 48.734375 45.3125 54.390625 
Q 45.3125 60.0625 41.71875 63.234375 
Q 38.140625 66.40625 31.78125 66.40625 
Q 25.390625 66.40625 21.84375 63.234375 
Q 18.3125 60.0625 18.3125 54.390625 
" id="BitstreamVeraSans-Roman-38"/>
      </defs>
      <g transform="translate(31.55625 90.8325185644)scale(0.2 -0.2)">
       <use xlink:href="#BitstreamVeraSans-Roman-30"/>
       <use x="63.623046875" xlink:href="#BitstreamVeraSans-Roman-2e"/>
       <use x="95.41015625" xlink:href="#BitstreamVeraSans-Roman-38"/>
      </g>
     </g>
    </g>
    <g id="ytick_6">
     <g id="line2d_134">
      <path clip-path="url(#p7e8f83aa3f)" d="M 67.3625 16.878125 
L 513.7625 16.878125 
" style="fill:none;stroke:#000000;stroke-dasharray:1.000000,3.000000;stroke-dashoffset:0.0;stroke-width:0.5;"/>
     </g>
     <g id="line2d_135">
      <g>
       <use style="stroke:#000000;stroke-width:0.5;" x="67.3625" xlink:href="#mcba8db5b57" y="16.878125"/>
      </g>
     </g>
     <g id="line2d_136">
      <g>
       <use style="stroke:#000000;stroke-width:0.5;" x="513.7625" xlink:href="#m622190b690" y="16.878125"/>
      </g>
     </g>
     <g id="text_12">
      <!-- 1.0 -->
      <g transform="translate(31.55625 22.396875)scale(0.2 -0.2)">
       <use xlink:href="#BitstreamVeraSans-Roman-31"/>
       <use x="63.623046875" xlink:href="#BitstreamVeraSans-Roman-2e"/>
       <use x="95.41015625" xlink:href="#BitstreamVeraSans-Roman-30"/>
      </g>
     </g>
    </g>
    <g id="text_13">
     <!-- proportion of trials -->
     <defs>
      <path d="M 54.890625 33.015625 
L 54.890625 0 
L 45.90625 0 
L 45.90625 32.71875 
Q 45.90625 40.484375 42.875 44.328125 
Q 39.84375 48.1875 33.796875 48.1875 
Q 26.515625 48.1875 22.3125 43.546875 
Q 18.109375 38.921875 18.109375 30.90625 
L 18.109375 0 
L 9.078125 0 
L 9.078125 54.6875 
L 18.109375 54.6875 
L 18.109375 46.1875 
Q 21.34375 51.125 25.703125 53.5625 
Q 30.078125 56 35.796875 56 
Q 45.21875 56 50.046875 50.171875 
Q 54.890625 44.34375 54.890625 33.015625 
" id="BitstreamVeraSans-Roman-6e"/>
      <path d="M 9.421875 54.6875 
L 18.40625 54.6875 
L 18.40625 0 
L 9.421875 0 
z
M 9.421875 75.984375 
L 18.40625 75.984375 
L 18.40625 64.59375 
L 9.421875 64.59375 
z
" id="BitstreamVeraSans-Roman-69"/>
      <path d="M 18.3125 70.21875 
L 18.3125 54.6875 
L 36.8125 54.6875 
L 36.8125 47.703125 
L 18.3125 47.703125 
L 18.3125 18.015625 
Q 18.3125 11.328125 20.140625 9.421875 
Q 21.96875 7.515625 27.59375 7.515625 
L 36.8125 7.515625 
L 36.8125 0 
L 27.59375 0 
Q 17.1875 0 13.234375 3.875 
Q 9.28125 7.765625 9.28125 18.015625 
L 9.28125 47.703125 
L 2.6875 47.703125 
L 2.6875 54.6875 
L 9.28125 54.6875 
L 9.28125 70.21875 
z
" id="BitstreamVeraSans-Roman-74"/>
      <path d="M 41.109375 46.296875 
Q 39.59375 47.171875 37.8125 47.578125 
Q 36.03125 48 33.890625 48 
Q 26.265625 48 22.1875 43.046875 
Q 18.109375 38.09375 18.109375 28.8125 
L 18.109375 0 
L 9.078125 0 
L 9.078125 54.6875 
L 18.109375 54.6875 
L 18.109375 46.1875 
Q 20.953125 51.171875 25.484375 53.578125 
Q 30.03125 56 36.53125 56 
Q 37.453125 56 38.578125 55.875 
Q 39.703125 55.765625 41.0625 55.515625 
z
" id="BitstreamVeraSans-Roman-72"/>
      <path d="M 18.109375 8.203125 
L 18.109375 -20.796875 
L 9.078125 -20.796875 
L 9.078125 54.6875 
L 18.109375 54.6875 
L 18.109375 46.390625 
Q 20.953125 51.265625 25.265625 53.625 
Q 29.59375 56 35.59375 56 
Q 45.5625 56 51.78125 48.09375 
Q 58.015625 40.1875 58.015625 27.296875 
Q 58.015625 14.40625 51.78125 6.484375 
Q 45.5625 -1.421875 35.59375 -1.421875 
Q 29.59375 -1.421875 25.265625 0.953125 
Q 20.953125 3.328125 18.109375 8.203125 
M 48.6875 27.296875 
Q 48.6875 37.203125 44.609375 42.84375 
Q 40.53125 48.484375 33.40625 48.484375 
Q 26.265625 48.484375 22.1875 42.84375 
Q 18.109375 37.203125 18.109375 27.296875 
Q 18.109375 17.390625 22.1875 11.75 
Q 26.265625 6.109375 33.40625 6.109375 
Q 40.53125 6.109375 44.609375 11.75 
Q 48.6875 17.390625 48.6875 27.296875 
" id="BitstreamVeraSans-Roman-70"/>
     </defs>
     <g transform="translate(22.396875 279.484467822)rotate(-90.0)scale(0.2 -0.2)">
      <use xlink:href="#BitstreamVeraSans-Roman-70"/>
      <use x="63.4765625" xlink:href="#BitstreamVeraSans-Roman-72"/>
      <use x="104.55859375" xlink:href="#BitstreamVeraSans-Roman-6f"/>
      <use x="165.740234375" xlink:href="#BitstreamVeraSans-Roman-70"/>
      <use x="229.216796875" xlink:href="#BitstreamVeraSans-Roman-6f"/>
      <use x="290.3984375" xlink:href="#BitstreamVeraSans-Roman-72"/>
      <use x="331.51171875" xlink:href="#BitstreamVeraSans-Roman-74"/>
      <use x="370.720703125" xlink:href="#BitstreamVeraSans-Roman-69"/>
      <use x="398.50390625" xlink:href="#BitstreamVeraSans-Roman-6f"/>
      <use x="459.685546875" xlink:href="#BitstreamVeraSans-Roman-6e"/>
      <use x="523.064453125" xlink:href="#BitstreamVeraSans-Roman-20"/>
      <use x="554.8515625" xlink:href="#BitstreamVeraSans-Roman-6f"/>
      <use x="616.033203125" xlink:href="#BitstreamVeraSans-Roman-66"/>
      <use x="651.23828125" xlink:href="#BitstreamVeraSans-Roman-20"/>
      <use x="683.025390625" xlink:href="#BitstreamVeraSans-Roman-74"/>
      <use x="722.234375" xlink:href="#BitstreamVeraSans-Roman-72"/>
      <use x="763.34765625" xlink:href="#BitstreamVeraSans-Roman-69"/>
      <use x="791.130859375" xlink:href="#BitstreamVeraSans-Roman-61"/>
      <use x="852.41015625" xlink:href="#BitstreamVeraSans-Roman-6c"/>
      <use x="880.193359375" xlink:href="#BitstreamVeraSans-Roman-73"/>
     </g>
    </g>
   </g>
   <g id="text_14">
    <!-- {f20-f24}, 5-D -->
    <defs>
     <path d="M 11.71875 12.40625 
L 22.015625 12.40625 
L 22.015625 4 
L 14.015625 -11.625 
L 7.71875 -11.625 
L 11.71875 4 
z
" id="BitstreamVeraSans-Roman-2c"/>
     <path d="M 12.5 -9.28125 
L 15.921875 -9.28125 
Q 22.75 -9.28125 24.828125 -7.171875 
Q 26.90625 -5.078125 26.90625 1.90625 
L 26.90625 14.015625 
Q 26.90625 21.625 29.09375 25.09375 
Q 31.296875 28.5625 36.71875 29.890625 
Q 31.296875 31.109375 29.09375 34.5625 
Q 26.90625 38.03125 26.90625 45.703125 
L 26.90625 57.8125 
Q 26.90625 64.75 24.828125 66.875 
Q 22.75 69 15.921875 69 
L 12.5 69 
L 12.5 75.984375 
L 15.578125 75.984375 
Q 27.734375 75.984375 31.8125 72.390625 
Q 35.890625 68.796875 35.890625 58.015625 
L 35.890625 46.296875 
Q 35.890625 39.015625 38.515625 36.203125 
Q 41.15625 33.40625 48.09375 33.40625 
L 51.125 33.40625 
L 51.125 26.421875 
L 48.09375 26.421875 
Q 41.15625 26.421875 38.515625 23.578125 
Q 35.890625 20.75 35.890625 13.375 
L 35.890625 1.703125 
Q 35.890625 -9.078125 31.8125 -12.6875 
Q 27.734375 -16.3125 15.578125 -16.3125 
L 12.5 -16.3125 
z
" id="BitstreamVeraSans-Roman-7d"/>
     <path d="M 51.125 -9.28125 
L 51.125 -16.3125 
L 48.09375 -16.3125 
Q 35.9375 -16.3125 31.8125 -12.6875 
Q 27.6875 -9.078125 27.6875 1.703125 
L 27.6875 13.375 
Q 27.6875 20.75 25.046875 23.578125 
Q 22.40625 26.421875 15.484375 26.421875 
L 12.5 26.421875 
L 12.5 33.40625 
L 15.484375 33.40625 
Q 22.46875 33.40625 25.078125 36.203125 
Q 27.6875 39.015625 27.6875 46.296875 
L 27.6875 58.015625 
Q 27.6875 68.796875 31.8125 72.390625 
Q 35.9375 75.984375 48.09375 75.984375 
L 51.125 75.984375 
L 51.125 69 
L 47.796875 69 
Q 40.921875 69 38.8125 66.84375 
Q 36.71875 64.703125 36.71875 57.8125 
L 36.71875 45.703125 
Q 36.71875 38.03125 34.5 34.5625 
Q 32.28125 31.109375 26.90625 29.890625 
Q 32.328125 28.5625 34.515625 25.09375 
Q 36.71875 21.625 36.71875 14.015625 
L 36.71875 1.90625 
Q 36.71875 -4.984375 38.8125 -7.125 
Q 40.921875 -9.28125 47.796875 -9.28125 
z
" id="BitstreamVeraSans-Roman-7b"/>
     <path d="M 4.890625 31.390625 
L 31.203125 31.390625 
L 31.203125 23.390625 
L 4.890625 23.390625 
z
" id="BitstreamVeraSans-Roman-2d"/>
     <path d="M 10.796875 72.90625 
L 49.515625 72.90625 
L 49.515625 64.59375 
L 19.828125 64.59375 
L 19.828125 46.734375 
Q 21.96875 47.46875 24.109375 47.828125 
Q 26.265625 48.1875 28.421875 48.1875 
Q 40.625 48.1875 47.75 41.5 
Q 54.890625 34.8125 54.890625 23.390625 
Q 54.890625 11.625 47.5625 5.09375 
Q 40.234375 -1.421875 26.90625 -1.421875 
Q 22.3125 -1.421875 17.546875 -0.640625 
Q 12.796875 0.140625 7.71875 1.703125 
L 7.71875 11.625 
Q 12.109375 9.234375 16.796875 8.0625 
Q 21.484375 6.890625 26.703125 6.890625 
Q 35.15625 6.890625 40.078125 11.328125 
Q 45.015625 15.765625 45.015625 23.390625 
Q 45.015625 31 40.078125 35.4375 
Q 35.15625 39.890625 26.703125 39.890625 
Q 22.75 39.890625 18.8125 39.015625 
Q 14.890625 38.140625 10.796875 36.28125 
z
" id="BitstreamVeraSans-Roman-35"/>
    </defs>
    <g transform="translate(217.7125 35.5652178218)scale(0.2 -0.2)">
     <use xlink:href="#BitstreamVeraSans-Roman-7b"/>
     <use x="63.623046875" xlink:href="#BitstreamVeraSans-Roman-66"/>
     <use x="98.828125" xlink:href="#BitstreamVeraSans-Roman-32"/>
     <use x="162.451171875" xlink:href="#BitstreamVeraSans-Roman-30"/>
     <use x="226.07421875" xlink:href="#BitstreamVeraSans-Roman-2d"/>
     <use x="262.158203125" xlink:href="#BitstreamVeraSans-Roman-66"/>
     <use x="297.36328125" xlink:href="#BitstreamVeraSans-Roman-32"/>
     <use x="360.986328125" xlink:href="#BitstreamVeraSans-Roman-34"/>
     <use x="424.609375" xlink:href="#BitstreamVeraSans-Roman-7d"/>
     <use x="488.232421875" xlink:href="#BitstreamVeraSans-Roman-2c"/>
     <use x="520.01953125" xlink:href="#BitstreamVeraSans-Roman-20"/>
     <use x="551.806640625" xlink:href="#BitstreamVeraSans-Roman-35"/>
     <use x="615.4296875" xlink:href="#BitstreamVeraSans-Roman-2d"/>
     <use x="651.513671875" xlink:href="#BitstreamVeraSans-Roman-44"/>
    </g>
   </g>
   <g id="text_15">
    <!-- absolute targets -->
    <defs>
     <path d="M 56.203125 29.59375 
L 56.203125 25.203125 
L 14.890625 25.203125 
Q 15.484375 15.921875 20.484375 11.0625 
Q 25.484375 6.203125 34.421875 6.203125 
Q 39.59375 6.203125 44.453125 7.46875 
Q 49.3125 8.734375 54.109375 11.28125 
L 54.109375 2.78125 
Q 49.265625 0.734375 44.1875 -0.34375 
Q 39.109375 -1.421875 33.890625 -1.421875 
Q 20.796875 -1.421875 13.15625 6.1875 
Q 5.515625 13.8125 5.515625 26.8125 
Q 5.515625 40.234375 12.765625 48.109375 
Q 20.015625 56 32.328125 56 
Q 43.359375 56 49.78125 48.890625 
Q 56.203125 41.796875 56.203125 29.59375 
M 47.21875 32.234375 
Q 47.125 39.59375 43.09375 43.984375 
Q 39.0625 48.390625 32.421875 48.390625 
Q 24.90625 48.390625 20.390625 44.140625 
Q 15.875 39.890625 15.1875 32.171875 
z
" id="BitstreamVeraSans-Roman-65"/>
     <path d="M 8.5 21.578125 
L 8.5 54.6875 
L 17.484375 54.6875 
L 17.484375 21.921875 
Q 17.484375 14.15625 20.5 10.265625 
Q 23.53125 6.390625 29.59375 6.390625 
Q 36.859375 6.390625 41.078125 11.03125 
Q 45.3125 15.671875 45.3125 23.6875 
L 45.3125 54.6875 
L 54.296875 54.6875 
L 54.296875 0 
L 45.3125 0 
L 45.3125 8.40625 
Q 42.046875 3.421875 37.71875 1 
Q 33.40625 -1.421875 27.6875 -1.421875 
Q 18.265625 -1.421875 13.375 4.4375 
Q 8.5 10.296875 8.5 21.578125 
" id="BitstreamVeraSans-Roman-75"/>
     <path d="M 48.6875 27.296875 
Q 48.6875 37.203125 44.609375 42.84375 
Q 40.53125 48.484375 33.40625 48.484375 
Q 26.265625 48.484375 22.1875 42.84375 
Q 18.109375 37.203125 18.109375 27.296875 
Q 18.109375 17.390625 22.1875 11.75 
Q 26.265625 6.109375 33.40625 6.109375 
Q 40.53125 6.109375 44.609375 11.75 
Q 48.6875 17.390625 48.6875 27.296875 
M 18.109375 46.390625 
Q 20.953125 51.265625 25.265625 53.625 
Q 29.59375 56 35.59375 56 
Q 45.5625 56 51.78125 48.09375 
Q 58.015625 40.1875 58.015625 27.296875 
Q 58.015625 14.40625 51.78125 6.484375 
Q 45.5625 -1.421875 35.59375 -1.421875 
Q 29.59375 -1.421875 25.265625 0.953125 
Q 20.953125 3.328125 18.109375 8.203125 
L 18.109375 0 
L 9.078125 0 
L 9.078125 75.984375 
L 18.109375 75.984375 
z
" id="BitstreamVeraSans-Roman-62"/>
    </defs>
    <g transform="translate(67.3625 359.056342822)scale(0.14 -0.14)">
     <use xlink:href="#BitstreamVeraSans-Roman-61"/>
     <use x="61.279296875" xlink:href="#BitstreamVeraSans-Roman-62"/>
     <use x="124.755859375" xlink:href="#BitstreamVeraSans-Roman-73"/>
     <use x="176.85546875" xlink:href="#BitstreamVeraSans-Roman-6f"/>
     <use x="238.037109375" xlink:href="#BitstreamVeraSans-Roman-6c"/>
     <use x="265.8203125" xlink:href="#BitstreamVeraSans-Roman-75"/>
     <use x="329.19921875" xlink:href="#BitstreamVeraSans-Roman-74"/>
     <use x="368.408203125" xlink:href="#BitstreamVeraSans-Roman-65"/>
     <use x="429.931640625" xlink:href="#BitstreamVeraSans-Roman-20"/>
     <use x="461.71875" xlink:href="#BitstreamVeraSans-Roman-74"/>
     <use x="500.927734375" xlink:href="#BitstreamVeraSans-Roman-61"/>
     <use x="562.20703125" xlink:href="#BitstreamVeraSans-Roman-72"/>
     <use x="603.3046875" xlink:href="#BitstreamVeraSans-Roman-67"/>
     <use x="666.78125" xlink:href="#BitstreamVeraSans-Roman-65"/>
     <use x="728.3046875" xlink:href="#BitstreamVeraSans-Roman-74"/>
     <use x="767.513671875" xlink:href="#BitstreamVeraSans-Roman-73"/>
    </g>
   </g>
   <g id="text_16">
    <!-- 1.2.1.2 -->
    <g style="fill:#808080;" transform="translate(273.0703125 353.520655322)scale(0.1 -0.1)">
     <use xlink:href="#BitstreamVeraSans-Roman-31"/>
     <use x="63.623046875" xlink:href="#BitstreamVeraSans-Roman-2e"/>
     <use x="95.41015625" xlink:href="#BitstreamVeraSans-Roman-32"/>
     <use x="159.033203125" xlink:href="#BitstreamVeraSans-Roman-2e"/>
     <use x="190.8203125" xlink:href="#BitstreamVeraSans-Roman-31"/>
     <use x="254.443359375" xlink:href="#BitstreamVeraSans-Roman-2e"/>
     <use x="286.23046875" xlink:href="#BitstreamVeraSans-Roman-32"/>
    </g>
   </g>
   <g id="legend_1">
    <g id="patch_7">
     <path d="M 77.3625 146.881343 
L 214.584375 146.881343 
L 214.584375 23.456343 
L 77.3625 23.456343 
z
" style="fill:#ffffff;opacity:0.2;stroke:#000000;stroke-linejoin:miter;"/>
    </g>
    <g id="line2d_137">
     <path d="M 91.3625 39.653218 
L 119.3625 39.653218 
" style="fill:none;stroke:#000000;stroke-linecap:square;"/>
    </g>
    <g id="line2d_138"/>
    <g id="text_17">
     <!-- 1: 5/5 -->
     <defs>
      <path d="M 11.71875 12.40625 
L 22.015625 12.40625 
L 22.015625 0 
L 11.71875 0 
z
M 11.71875 51.703125 
L 22.015625 51.703125 
L 22.015625 39.3125 
L 11.71875 39.3125 
z
" id="BitstreamVeraSans-Roman-3a"/>
     </defs>
     <g transform="translate(141.3625 46.6532178218)scale(0.2 -0.2)">
      <use xlink:href="#BitstreamVeraSans-Roman-31"/>
      <use x="63.623046875" xlink:href="#BitstreamVeraSans-Roman-3a"/>
      <use x="97.314453125" xlink:href="#BitstreamVeraSans-Roman-20"/>
      <use x="129.1015625" xlink:href="#BitstreamVeraSans-Roman-35"/>
      <use x="192.724609375" xlink:href="#BitstreamVeraSans-Roman-2f"/>
      <use x="226.416015625" xlink:href="#BitstreamVeraSans-Roman-35"/>
     </g>
    </g>
    <g id="line2d_139">
     <path d="M 91.3625 69.009468 
L 119.3625 69.009468 
" style="fill:none;stroke:#00bfbf;stroke-linecap:square;"/>
    </g>
    <g id="line2d_140"/>
    <g id="text_18">
     <!-- -1: 2/5 -->
     <g transform="translate(141.3625 76.0094678218)scale(0.2 -0.2)">
      <use xlink:href="#BitstreamVeraSans-Roman-2d"/>
      <use x="36.083984375" xlink:href="#BitstreamVeraSans-Roman-31"/>
      <use x="99.70703125" xlink:href="#BitstreamVeraSans-Roman-3a"/>
      <use x="133.3984375" xlink:href="#BitstreamVeraSans-Roman-20"/>
      <use x="165.185546875" xlink:href="#BitstreamVeraSans-Roman-32"/>
      <use x="228.80859375" xlink:href="#BitstreamVeraSans-Roman-2f"/>
      <use x="262.5" xlink:href="#BitstreamVeraSans-Roman-35"/>
     </g>
    </g>
    <g id="line2d_141">
     <path d="M 91.3625 98.365718 
L 119.3625 98.365718 
" style="fill:none;stroke:#bf00bf;stroke-linecap:square;"/>
    </g>
    <g id="line2d_142"/>
    <g id="text_19">
     <!-- -4: 2/5 -->
     <g transform="translate(141.3625 105.365717822)scale(0.2 -0.2)">
      <use xlink:href="#BitstreamVeraSans-Roman-2d"/>
      <use x="36.083984375" xlink:href="#BitstreamVeraSans-Roman-34"/>
      <use x="99.70703125" xlink:href="#BitstreamVeraSans-Roman-3a"/>
      <use x="133.3984375" xlink:href="#BitstreamVeraSans-Roman-20"/>
      <use x="165.185546875" xlink:href="#BitstreamVeraSans-Roman-32"/>
      <use x="228.80859375" xlink:href="#BitstreamVeraSans-Roman-2f"/>
      <use x="262.5" xlink:href="#BitstreamVeraSans-Roman-35"/>
     </g>
    </g>
    <g id="line2d_143">
     <path d="M 91.3625 127.721968 
L 119.3625 127.721968 
" style="fill:none;stroke:#ff0000;stroke-linecap:square;stroke-width:3.0;"/>
    </g>
    <g id="line2d_144"/>
    <g id="text_20">
     <!-- -8: 2/5 -->
     <g transform="translate(141.3625 134.721967822)scale(0.2 -0.2)">
      <use xlink:href="#BitstreamVeraSans-Roman-2d"/>
      <use x="36.083984375" xlink:href="#BitstreamVeraSans-Roman-38"/>
      <use x="99.70703125" xlink:href="#BitstreamVeraSans-Roman-3a"/>
      <use x="133.3984375" xlink:href="#BitstreamVeraSans-Roman-20"/>
      <use x="165.185546875" xlink:href="#BitstreamVeraSans-Roman-32"/>
      <use x="228.80859375" xlink:href="#BitstreamVeraSans-Roman-2f"/>
      <use x="262.5" xlink:href="#BitstreamVeraSans-Roman-35"/>
     </g>
    </g>
   </g>
  </g>
 </g>
 <defs>
  <clipPath id="p7e8f83aa3f">
   <rect height="345.6" width="446.4" x="67.3625" y="13.4563428218"/>
  </clipPath>
 </defs>
</svg>
