<?xml version="1.0" encoding="utf-8" standalone="no"?>
<!DOCTYPE svg PUBLIC "-//W3C//DTD SVG 1.1//EN"
  "http://www.w3.org/Graphics/SVG/1.1/DTD/svg11.dtd">
<!-- Created with matplotlib (http://matplotlib.org/) -->
<svg height="414pt" version="1.1" viewBox="0 0 538 414" width="538pt" xmlns="http://www.w3.org/2000/svg" xmlns:xlink="http://www.w3.org/1999/xlink">
 <defs>
  <style type="text/css">
*{stroke-linecap:butt;stroke-linejoin:round;}
  </style>
 </defs>
 <g id="figure_1">
  <g id="patch_1">
   <path d="
M0 414.924
L538.8 414.924
L538.8 0
L0 0
z
" style="fill:#ffffff;"/>
  </g>
  <g id="axes_1">
   <g id="patch_2">
    <path d="
M85.2 358.524
L531.6 358.524
L531.6 12.9235
L85.2 12.9235
z
" style="fill:#ffffff;"/>
   </g>
   <g id="line2d_1">
    <defs>
     <path d="
M0 1.5
C0.397805 1.5 0.77937 1.34195 1.06066 1.06066
C1.34195 0.77937 1.5 0.397805 1.5 0
C1.5 -0.397805 1.34195 -0.77937 1.06066 -1.06066
C0.77937 -1.34195 0.397805 -1.5 0 -1.5
C-0.397805 -1.5 -0.77937 -1.34195 -1.06066 -1.06066
C-1.34195 -0.77937 -1.5 -0.397805 -1.5 0
C-1.5 0.397805 -1.34195 0.77937 -1.06066 1.06066
C-0.77937 1.34195 -0.397805 1.5 0 1.5
z
" id="m977c291b42" style="stroke:#00bfbf;stroke-width:0.5;"/>
    </defs>
    <g>
     <use style="fill:#00bfbf;stroke:#00bfbf;stroke-width:0.5;" x="299.062519743" xlink:href="#m977c291b42" y="152.210193106"/>
     <use style="fill:#00bfbf;stroke:#00bfbf;stroke-width:0.5;" x="299.062519743" xlink:href="#m977c291b42" y="152.210193106"/>
    </g>
   </g>
   <g id="line2d_2">
    <path d="
M69.7185 337.557
L85.2 337.557
L85.2 335.712
L141.613 335.712
L141.613 335.376
L144.144 335.376
L144.144 335.208
L147.813 335.208
L147.813 334.705
L149.757 334.705
L149.757 334.37
L150.964 334.37
L150.964 333.363
L153.725 333.363
L153.725 333.196
L154.741 333.196
L154.741 333.028
L155.712 333.028
L155.712 332.189
L156.182 332.189
L156.182 331.518
L157.97 331.518
L157.97 331.351
L159.625 331.351
L159.625 330.68
L160.021 330.68
L160.021 330.344
L161.166 330.344
L161.166 330.176
L161.535 330.176
L161.535 329.17
L161.899 329.17
L161.899 329.002
L162.256 329.002
L162.256 328.667
L162.608 328.667
L162.608 327.996
L162.954 327.996
L162.954 326.989
L163.295 326.989
L163.295 326.822
L163.631 326.822
L163.631 326.654
L163.962 326.654
L163.962 326.151
L164.609 326.151
L164.609 325.815
L165.238 325.815
L165.238 324.306
L165.546 324.306
L165.546 323.803
L165.85 323.803
L165.85 322.628
L166.15 322.628
L166.15 321.957
L166.446 321.957
L166.446 321.79
L166.738 321.79
L166.738 320.951
L167.311 320.951
L167.311 318.938
L167.592 318.938
L167.592 318.267
L168.143 318.267
L168.143 317.596
L168.414 317.596
L168.414 317.261
L168.946 317.261
L168.946 316.254
L169.207 316.254
L169.207 315.751
L169.72 315.751
L169.72 315.416
L170.222 315.416
L170.222 314.913
L170.713 314.913
L170.713 314.242
L170.955 314.242
L170.955 314.074
L171.194 314.074
L171.194 313.571
L171.43 313.571
L171.43 313.235
L172.576 313.235
L172.576 312.9
L173.018 312.9
L173.018 312.564
L173.236 312.564
L173.236 311.39
L173.877 311.39
L173.877 311.222
L174.087 311.222
L174.087 310.551
L174.295 310.551
L174.295 310.216
L174.704 310.216
L174.704 308.874
L175.891 308.874
L175.891 308.539
L176.272 308.539
L176.272 308.371
L176.648 308.371
L176.648 307.532
L177.199 307.532
L177.199 307.029
L177.38 307.029
L177.38 306.861
L177.56 306.861
L177.56 306.19
L178.089 306.19
L178.089 306.023
L178.263 306.023
L178.263 305.855
L178.777 305.855
L178.777 305.687
L178.945 305.687
L178.945 305.016
L179.278 305.016
L179.278 304.849
L179.443 304.849
L179.443 304.513
L179.769 304.513
L179.769 304.178
L179.931 304.178
L179.931 303.171
L180.091 303.171
L180.091 302.668
L180.408 302.668
L180.408 302.5
L181.028 302.5
L181.028 301.829
L181.18 301.829
L181.18 301.494
L181.632 301.494
L181.632 301.326
L182.074 301.326
L182.074 301.158
L182.65 301.158
L182.65 300.991
L182.933 300.991
L182.933 300.823
L183.212 300.823
L183.212 300.487
L183.488 300.487
L183.488 300.152
L183.625 300.152
L183.625 299.984
L183.895 299.984
L183.895 299.816
L184.03 299.816
L184.03 299.146
L184.427 299.146
L184.427 298.642
L184.558 298.642
L184.558 298.475
L184.818 298.475
L184.818 297.804
L184.947 297.804
L184.947 297.3
L185.075 297.3
L185.075 296.63
L185.704 296.63
L185.704 296.126
L185.951 296.126
L185.951 295.959
L186.195 295.959
L186.195 295.288
L186.675 295.288
L186.675 294.281
L186.911 294.281
L186.911 294.114
L187.145 294.114
L187.145 293.275
L187.261 293.275
L187.261 292.604
L187.377 292.604
L187.377 292.101
L187.833 292.101
L187.833 291.933
L188.39 291.933
L188.499 291.43
L189.464 291.43
L189.464 291.262
L190.186 291.262
L190.186 290.591
L190.388 290.591
L190.488 289.92
L190.588 289.92
L190.588 289.752
L191.179 289.752
L191.179 289.585
L191.372 289.585
L191.372 289.081
L191.659 289.081
L191.754 287.907
L192.036 287.907
L192.036 287.74
L192.222 287.74
L192.315 287.236
L192.407 287.236
L192.407 287.069
L192.681 287.069
L192.681 285.895
L192.862 285.895
L192.952 284.888
L193.308 284.888
L193.308 283.379
L193.483 283.379
L193.571 283.043
L193.917 283.043
L193.917 282.708
L194.173 282.708
L194.173 282.54
L194.343 282.54
L194.427 282.037
L194.51 282.037
L194.594 281.533
L194.677 281.533
L194.677 281.198
L194.843 281.198
L194.925 280.695
L195.088 280.695
L195.088 280.192
L195.251 280.192
L195.251 280.024
L195.492 280.024
L195.492 279.856
L195.652 279.856
L195.731 279.521
L195.968 279.521
L195.968 279.185
L196.124 279.185
L196.201 277.676
L196.433 277.676
L196.433 277.34
L196.586 277.34
L196.586 277.005
L196.813 277.005
L196.813 276.501
L196.964 276.501
L196.964 276.334
L197.113 276.334
L197.188 272.644
L197.336 272.644
L197.409 271.973
L197.556 271.973
L197.628 270.631
L197.773 270.631
L197.773 270.295
L197.989 270.295
L198.061 269.792
L198.344 269.792
L198.415 268.953
L198.485 268.953
L198.485 268.786
L198.694 268.786
L198.694 267.947
L198.901 267.947
L198.901 267.444
L199.242 267.444
L199.31 266.27
L199.377 266.27
L199.377 265.934
L199.511 265.934
L199.511 265.599
L199.644 265.599
L199.644 265.263
L199.777 265.263
L199.843 264.089
L200.235 264.089
L200.235 263.921
L200.684 263.921
L200.684 257.044
L200.81 257.044
L200.81 256.709
L200.999 256.709
L200.999 255.87
L201.185 255.87
L201.185 255.702
L201.309 255.702
L201.371 255.031
L201.494 255.031
L201.494 254.864
L201.918 254.864
L201.978 254.528
L202.038 254.528
L202.097 253.522
L202.216 253.522
L202.216 252.851
L202.916 252.851
L202.916 252.348
L203.03 252.348
L203.03 252.012
L203.539 252.012
L203.539 251.844
L203.65 251.844
L203.65 251.509
L205.361 251.509
L205.361 251.341
L205.515 251.341
L205.617 250.67
L206.514 250.67
L206.514 250.503
L207.283 250.503
L207.33 249.999
L207.424 249.999
L207.518 248.993
L207.888 248.993
L207.888 248.825
L208.117 248.825
L208.117 248.657
L208.343 248.657
L208.343 248.49
L208.701 248.49
L208.701 248.154
L208.833 248.154
L208.833 247.987
L208.965 247.987
L209.009 247.651
L209.096 247.651
L209.096 247.316
L209.269 247.316
L209.269 247.148
L209.442 247.148
L209.442 246.98
L209.57 246.98
L209.655 246.477
L209.782 246.477
L209.782 246.309
L209.992 246.309
L210.076 245.806
L210.117 245.806
L210.117 245.638
L210.529 245.638
L210.529 245.303
L211.173 245.303
L211.173 245.135
L211.371 245.135
L211.371 244.8
L211.605 244.8
L211.605 244.632
L211.953 244.632
L211.953 244.464
L212.182 244.464
L212.182 244.296
L212.333 244.296
L212.37 243.961
L213.183 243.961
L213.183 243.793
L213.363 243.793
L213.363 243.625
L213.791 243.625
L213.791 242.955
L214.036 242.955
L214.036 242.787
L214.279 242.787
L214.348 242.284
L214.52 242.284
L214.622 241.445
L214.959 241.445
L214.993 240.942
L215.226 240.942
L215.226 240.606
L215.39 240.606
L215.489 239.935
L215.521 239.935
L215.521 239.768
L215.781 239.768
L215.781 239.6
L216.07 239.6
L216.165 237.252
L216.228 237.252
L216.292 236.077
L216.636 236.077
L216.636 235.574
L216.822 235.574
L216.822 235.406
L217.006 235.406
L217.067 234.903
L217.128 234.903
L217.218 234.568
L217.309 234.568
L217.309 234.4
L217.549 234.4
L217.638 233.897
L217.668 233.897
L217.757 230.207
L217.786 230.207
L217.816 229.368
L217.904 229.368
L217.992 228.697
L218.05 228.697
L218.05 228.529
L218.167 228.529
L218.253 228.194
L218.311 228.194
L218.397 227.691
L218.483 227.691
L218.483 227.523
L218.796 227.523
L218.88 226.852
L220.584 226.852
L220.584 226.349
L220.996 226.349
L220.996 226.181
L221.326 226.181
L221.326 226.013
L221.775 226.013
L221.775 225.846
L221.922 225.846
L221.996 225.342
L222.622 225.342
L222.622 225.175
L223.185 225.175
L223.185 224.839
L223.301 224.839
L223.301 224.671
L224.556 224.671
L224.556 224.504
L225.051 224.504
L225.115 223.665
L225.474 223.665
L225.474 223.497
L225.744 223.497
L225.744 222.826
L225.99 222.826
L225.99 222.659
L226.174 222.659
L226.275 219.304
L226.315 219.304
L226.415 218.801
L226.535 218.801
L226.535 218.633
L226.675 218.633
L226.773 218.298
L226.852 218.298
L226.852 218.13
L227.087 218.13
L227.087 217.962
L227.203 217.962
L227.3 213.433
L227.396 213.433
L227.396 213.266
L227.682 213.266
L227.682 213.098
L227.814 213.098
L227.814 212.762
L227.946 212.762
L228.039 212.091
L229.255 212.091
L229.255 211.924
L229.43 211.924
L229.483 211.42
L229.657 211.42
L229.657 211.253
L229.967 211.253
L230.069 210.917
L230.188 210.917
L230.188 210.414
L230.34 210.414
L230.34 209.743
L232.288 209.743
L232.288 209.408
L232.594 209.408
L232.594 209.24
L232.791 209.24
L232.791 209.072
L232.971 209.072
L232.971 208.904
L233.105 208.904
L233.105 207.059
L233.4 207.059
L233.473 206.724
L233.605 206.724
L233.634 205.885
L233.807 205.885
L233.865 203.537
L233.922 203.537
L233.922 203.369
L234.107 203.369
L234.107 203.201
L234.291 203.201
L234.32 202.866
L234.488 202.866
L234.488 202.698
L235.538 202.698
L235.605 202.363
L235.935 202.363
L235.935 202.195
L236.065 202.195
L236.169 201.86
L236.234 201.86
L236.234 201.356
L236.503 201.356
L236.503 201.189
L237.66 201.189
L237.769 200.685
L237.985 200.685
L237.985 200.518
L238.34 200.518
L238.387 199.008
L238.782 199.008
L238.851 198.505
L238.943 198.505
L239.046 196.492
L239.08 196.492
L239.08 196.324
L239.193 196.324
L239.273 195.653
L239.306 195.653
L239.306 195.486
L240.756 195.486
L240.756 195.318
L240.892 195.318
L240.892 194.815
L241.482 194.815
L241.574 194.479
L242.656 194.479
L242.656 193.641
L242.983 193.641
L243.04 193.137
L243.154 193.137
L243.154 191.125
L243.315 191.125
L243.418 190.286
L243.437 190.286
L243.455 189.783
L244.128 189.783
L244.128 189.615
L244.272 189.615
L244.317 189.28
L244.745 189.28
L244.745 189.112
L245.32 189.112
L245.32 188.944
L245.788 188.944
L245.788 188.776
L246.164 188.776
L246.238 187.77
L246.444 187.77
L246.517 187.434
L246.663 187.434
L246.696 185.086
L246.841 185.086
L246.921 184.751
L247.961 184.751
L247.961 184.583
L248.527 184.583
L248.527 184.415
L249.325 184.415
L249.368 183.409
L249.568 183.409
L249.568 183.241
L249.695 183.241
L249.731 181.731
L249.92 181.731
L249.92 181.564
L250.806 181.564
L250.893 180.725
L251.331 180.725
L251.331 180.557
L251.902 180.557
L251.978 180.222
L252.036 180.222
L252.036 179.048
L252.364 179.048
L252.364 178.377
L252.477 178.377
L252.564 178.041
L253.352 178.041
L253.43 177.538
L253.775 177.538
L253.775 177.37
L254.453 177.37
L254.482 176.699
L254.748 176.699
L254.748 176.028
L254.872 176.028
L254.967 175.19
L255.029 175.19
L255.029 175.022
L255.66 175.022
L255.66 174.854
L256.062 174.854
L256.062 174.687
L256.634 174.687
L256.634 173.848
L256.81 173.848
L256.902 173.177
L257.03 173.177
L257.03 173.009
L257.776 173.009
L257.776 172.842
L258.297 172.842
L258.364 172.506
L258.541 172.506
L258.621 172.171
L258.867 172.171
L258.97 171.667
L259.016 171.667
L259.016 171.5
L259.627 171.5
L259.627 171.332
L260.354 171.332
L260.446 170.493
L260.594 170.493
L260.672 169.487
L260.78 169.487
L260.78 169.319
L262.047 169.319
L262.133 168.648
L262.342 168.648
L262.342 167.977
L262.968 167.977
L263.03 167.474
L263.701 167.474
L263.701 166.803
L263.829 166.803
L263.896 166.3
L264.506 166.3
L264.506 166.132
L265.134 166.132
L265.166 165.629
L265.286 165.629
L265.349 165.126
L265.412 165.126
L265.412 164.958
L266.541 164.958
L266.541 164.287
L266.674 164.287
L266.714 163.952
L267.281 163.952
L267.281 163.784
L267.837 163.784
L267.837 163.281
L267.999 163.281
L267.999 162.61
L268.495 162.61
L268.495 162.442
L269.061 162.442
L269.076 161.771
L269.215 161.771
L269.215 161.436
L270.236 161.436
L270.236 161.268
L270.368 161.268
L270.382 160.932
L271.268 160.932
L271.338 160.429
L271.464 160.429
L271.523 160.094
L271.923 160.094
L271.923 159.926
L272.333 159.926
L272.376 159.591
L272.463 159.591
L272.509 159.087
L273.38 159.087
L273.38 158.92
L273.507 158.92
L273.507 158.752
L274.341 158.752
L274.353 158.416
L274.463 158.416
L274.463 158.249
L275.262 158.249
L275.262 157.745
L275.419 157.745
L275.428 157.41
L276.147 157.41
L276.147 157.074
L276.77 157.074
L276.77 156.907
L276.998 156.907
L277.069 156.571
L277.922 156.571
L277.986 156.068
L278.609 156.068
L278.709 155.733
L279.436 155.733
L279.436 155.565
L280.25 155.565
L280.25 155.397
L280.917 155.397
L280.917 155.229
L281.219 155.229
L281.219 155.062
L281.518 155.062
L281.586 154.726
L282.842 154.726
L282.897 154.223
L283.202 154.223
L283.202 154.055
L284.23 154.055
L284.23 153.888
L284.432 153.888
L284.432 153.72
L285.01 153.72
L285.01 153.552
L287.763 153.552
L287.763 153.384
L288.771 153.384
L288.771 153.217
L288.991 153.217
L288.991 153.049
L290.039 153.049
L290.039 152.881
L291.109 152.881
L291.109 152.713
L293.406 152.713
L293.406 152.546
L294.776 152.546
L294.776 152.378
L299.063 152.378
L299.063 152.21
L445.2 152.21
L445.2 152.21" style="fill:none;stroke:#00bfbf;stroke-linecap:square;stroke-width:1.5;"/>
   </g>
   <g id="line2d_3">
    <defs>
     <path d="
M-6 0
L6 0
M0 6
L0 -6" id="m3e4de746de" style="stroke:#00bfbf;stroke-width:1.5;"/>
    </defs>
    <g>
     <use style="fill:none;stroke:#00bfbf;stroke-width:1.5;" x="85.2" xlink:href="#m3e4de746de" y="335.711649134"/>
     <use style="fill:none;stroke:#00bfbf;stroke-width:1.5;" x="198.484835352" xlink:href="#m3e4de746de" y="268.785615354"/>
     <use style="fill:none;stroke:#00bfbf;stroke-width:1.5;" x="242.655819466" xlink:href="#m3e4de746de" y="194.479267072"/>
     <use style="fill:none;stroke:#00bfbf;stroke-width:1.5;" x="299.062519743" xlink:href="#m3e4de746de" y="152.377927526"/>
     <use style="fill:none;stroke:#00bfbf;stroke-width:1.5;" x="299.062519743" xlink:href="#m3e4de746de" y="152.210193106"/>
     <use style="fill:none;stroke:#00bfbf;stroke-width:1.5;" x="445.2" xlink:href="#m3e4de746de" y="152.210193106"/>
    </g>
   </g>
   <g id="line2d_4"/>
   <g id="line2d_5">
    <path clip-path="url(#p0cd469f449)" d="
M203.594 251.844" style="fill:none;stroke:#00bfbf;stroke-linecap:square;"/>
    <defs>
     <path d="
M-12 12
L12 -12
M-12 -12
L12 12" id="m09e435d1d9" style="stroke:#00bfbf;stroke-width:3;"/>
    </defs>
    <g clip-path="url(#p0cd469f449)">
     <use style="fill:#00bfbf;stroke:#00bfbf;stroke-width:3;" x="203.594453672" xlink:href="#m09e435d1d9" y="251.844438883"/>
    </g>
   </g>
   <g id="line2d_6">
    <defs>
     <path d="
M0 1.5
C0.397805 1.5 0.77937 1.34195 1.06066 1.06066
C1.34195 0.77937 1.5 0.397805 1.5 0
C1.5 -0.397805 1.34195 -0.77937 1.06066 -1.06066
C0.77937 -1.34195 0.397805 -1.5 0 -1.5
C-0.397805 -1.5 -0.77937 -1.34195 -1.06066 -1.06066
C-1.34195 -0.77937 -1.5 -0.397805 -1.5 0
C-1.5 0.397805 -1.34195 0.77937 -1.06066 1.06066
C-0.77937 1.34195 -0.397805 1.5 0 1.5
z
" id="mb0b177905e" style="stroke:#008000;stroke-width:0.5;"/>
    </defs>
    <g>
     <use style="fill:#008000;stroke:#008000;stroke-width:0.5;" x="302.986018463" xlink:href="#mb0b177905e" y="180.725044591"/>
     <use style="fill:#008000;stroke:#008000;stroke-width:0.5;" x="302.986018463" xlink:href="#mb0b177905e" y="180.725044591"/>
    </g>
   </g>
   <g id="line2d_7">
    <path d="
M76.1439 344.769
L138.07 344.769
L138.07 344.434
L151.735 344.434
L151.735 344.098
L152.11 344.098
L152.11 343.763
L152.842 343.763
L152.842 343.427
L153.2 343.427
L153.2 342.421
L155.232 342.421
L155.232 342.253
L158.536 342.253
L158.536 342.086
L160.409 342.086
L160.409 341.918
L160.664 341.918
L160.664 341.75
L164.821 341.75
L164.821 341.415
L165.648 341.415
L165.648 340.744
L169.033 340.744
L169.033 340.576
L169.379 340.576
L169.379 340.408
L169.551 340.408
L169.551 339.905
L169.72 339.905
L169.72 339.57
L170.056 339.57
L170.056 339.234
L170.713 339.234
L170.713 337.724
L170.875 337.724
L170.875 337.389
L171.194 337.389
L171.194 337.054
L171.508 337.054
L171.508 336.383
L171.972 336.383
L171.972 336.215
L172.871 336.215
L172.871 335.879
L173.018 335.879
L173.018 335.544
L173.163 335.544
L173.163 335.208
L173.452 335.208
L173.452 334.538
L173.594 334.538
L173.594 333.867
L173.877 333.867
L173.877 333.363
L174.156 333.363
L174.156 333.196
L174.973 333.196
L174.973 333.028
L175.107 333.028
L175.107 332.189
L175.239 332.189
L175.239 331.854
L175.371 331.854
L175.371 331.351
L176.019 331.351
L176.019 330.847
L176.272 330.847
L176.272 330.68
L176.523 330.68
L176.523 330.344
L176.648 330.344
L176.648 330.009
L177.017 330.009
L177.017 329.841
L177.139 329.841
L177.139 329.17
L177.855 329.17
L177.855 328.667
L177.973 328.667
L177.973 328.499
L178.663 328.499
L178.663 327.157
L178.777 327.157
L178.777 326.989
L178.889 326.989
L178.889 326.486
L179.112 326.486
L179.223 325.983
L179.334 325.983
L179.443 325.144
L180.091 325.144
L180.091 324.641
L180.408 324.641
L180.408 324.473
L180.616 324.473
L180.616 324.306
L180.823 324.306
L180.926 323.97
L181.332 323.97
L181.332 323.803
L181.731 323.803
L181.829 323.132
L181.928 323.132
L182.025 322.293
L182.22 322.293
L182.316 321.622
L182.792 321.622
L182.792 320.951
L183.073 320.951
L183.073 320.112
L183.442 320.112
L183.442 319.609
L183.985 319.609
L183.985 319.441
L184.163 319.441
L184.163 318.938
L184.688 318.938
L184.775 318.267
L185.202 318.267
L185.286 317.764
L185.538 317.764
L185.538 317.429
L185.869 317.429
L185.951 316.925
L186.032 316.925
L186.114 316.087
L186.195 316.087
L186.276 315.584
L186.436 315.584
L186.516 314.745
L187.068 314.745
L187.068 314.074
L187.223 314.074
L187.3 313.571
L187.377 313.571
L187.377 313.235
L188.057 313.235
L188.131 312.229
L188.206 312.229
L188.206 311.893
L188.645 311.893
L188.645 311.726
L188.861 311.726
L188.861 311.558
L189.147 311.558
L189.147 311.39
L189.288 311.39
L189.288 311.055
L189.429 311.055
L189.499 310.384
L189.707 310.384
L189.776 309.713
L189.982 309.713
L189.982 309.042
L190.118 309.042
L190.186 308.371
L190.321 308.371
L190.321 308.203
L190.455 308.203
L190.455 307.868
L190.853 307.868
L190.918 307.365
L191.114 307.365
L191.114 306.861
L191.372 306.861
L191.372 306.694
L191.817 306.694
L191.817 306.023
L191.942 306.023
L191.942 305.855
L192.191 305.855
L192.191 305.519
L192.376 305.519
L192.376 302.5
L193.041 302.5
L193.041 301.662
L193.16 301.662
L193.219 300.823
L193.337 300.823
L193.337 300.655
L193.454 300.655
L193.454 300.32
L193.571 300.32
L193.571 299.649
L193.745 299.649
L193.745 299.313
L193.86 299.313
L193.917 298.642
L194.031 298.642
L194.031 298.139
L194.202 298.139
L194.258 296.63
L194.371 296.63
L194.371 296.462
L194.649 296.462
L194.649 296.294
L195.088 296.294
L195.088 296.126
L195.251 296.126
L195.305 295.455
L195.572 295.455
L195.678 294.449
L195.837 294.449
L195.941 293.778
L195.994 293.778
L195.994 293.61
L196.15 293.61
L196.15 293.275
L196.305 293.275
L196.305 292.604
L196.459 292.604
L196.51 292.268
L196.763 292.268
L196.763 291.43
L196.964 291.43
L197.014 290.088
L197.113 290.088
L197.113 289.081
L197.749 289.081
L197.846 288.578
L197.894 288.578
L197.941 287.907
L198.037 287.907
L198.132 287.572
L198.648 287.572
L198.648 287.236
L198.97 287.236
L198.97 287.069
L199.197 287.069
L199.242 286.565
L199.422 286.565
L199.422 286.23
L200.3 286.23
L200.3 285.895
L200.428 285.895
L200.471 285.224
L200.81 285.224
L200.81 285.056
L201.144 285.056
L201.144 284.888
L201.268 284.888
L201.268 284.72
L201.717 284.72
L201.717 284.217
L202.117 284.217
L202.117 283.882
L202.858 283.882
L202.858 283.546
L203.125 283.546
L203.125 283.379
L203.427 283.379
L203.427 283.211
L203.613 283.211
L203.65 282.708
L205.802 282.708
L205.802 282.204
L206.595 282.204
L206.595 281.869
L206.886 281.869
L206.886 281.701
L207.98 281.701
L207.98 281.533
L208.193 281.533
L208.283 281.198
L208.671 281.198
L208.76 280.862
L208.818 280.862
L208.877 280.192
L209.139 280.192
L209.139 279.856
L209.427 279.856
L209.513 279.353
L209.711 279.353
L209.74 279.017
L209.964 279.017
L209.964 278.85
L210.103 278.85
L210.103 278.682
L210.461 278.682
L210.461 278.514
L210.867 278.514
L210.867 278.346
L211.186 278.346
L211.186 278.179
L212.042 278.179
L212.042 278.011
L212.295 278.011
L212.295 277.843
L212.62 277.843
L212.62 277.676
L212.743 277.676
L212.743 277.508
L213.11 277.508
L213.11 277.172
L213.351 277.172
L213.351 277.005
L213.518 277.005
L213.59 276.669
L214.152 276.669
L214.152 274.656
L214.405 274.656
L214.405 274.153
L214.565 274.153
L214.565 273.985
L214.678 273.985
L214.724 273.482
L214.881 273.482
L214.926 272.811
L215.192 272.811
L215.281 271.973
L215.412 271.973
L215.521 270.295
L215.63 270.295
L215.695 269.457
L215.781 269.457
L215.781 269.289
L215.91 269.289
L216.017 268.953
L216.059 268.953
L216.059 268.786
L216.207 268.786
L216.207 268.618
L216.334 268.618
L216.417 267.611
L216.501 267.611
L216.501 267.444
L216.975 267.444
L216.995 267.108
L217.559 267.108
L217.559 266.605
L218.147 266.605
L218.147 266.437
L218.34 266.437
L218.34 266.27
L218.833 266.27
L218.833 265.766
L221.799 265.766
L221.799 265.599
L222.335 265.599
L222.335 265.263
L222.479 265.263
L222.559 264.76
L222.749 264.76
L222.749 264.592
L222.999 264.592
L222.999 264.257
L223.185 264.257
L223.262 263.921
L223.689 263.921
L223.689 263.754
L223.84 263.754
L223.9 262.747
L224.034 262.747
L224.034 262.579
L224.256 262.579
L224.315 262.076
L224.476 262.076
L224.577 261.405
L224.722 261.405
L224.722 261.238
L224.837 261.238
L224.837 260.902
L224.966 260.902
L225.051 258.554
L225.122 258.554
L225.122 258.386
L225.292 258.386
L225.32 257.883
L225.613 257.883
L225.626 257.547
L225.751 257.547
L225.847 256.373
L225.929 256.373
L225.997 256.038
L226.065 256.038
L226.16 255.702
L226.214 255.702
L226.214 255.535
L226.335 255.535
L226.442 254.864
L226.681 254.864
L226.681 254.696
L226.944 254.696
L226.944 254.528
L227.126 254.528
L227.126 254.025
L227.332 254.025
L227.332 253.857
L227.511 253.857
L227.511 253.69
L227.638 253.69
L227.726 253.354
L227.964 253.354
L227.989 252.851
L230.024 252.851
L230.024 252.683
L230.351 252.683
L230.351 252.515
L230.641 252.515
L230.641 252.348
L230.817 252.348
L230.817 252.18
L231.306 252.18
L231.413 251.844
L231.731 251.844
L231.731 251.509
L231.941 251.509
L232.045 250.838
L232.221 250.838
L232.221 249.496
L232.334 249.496
L232.334 249.161
L232.477 249.161
L232.477 248.993
L232.69 248.993
L232.791 247.651
L232.821 247.651
L232.921 246.98
L233.021 246.98
L233.07 245.806
L233.219 245.806
L233.297 245.303
L233.667 245.303
L233.667 245.135
L234.088 245.135
L234.088 244.8
L234.427 244.8
L234.427 244.632
L236.315 244.632
L236.315 244.464
L236.597 244.464
L236.597 243.458
L237.058 243.458
L237.132 243.122
L237.412 243.122
L237.494 242.284
L237.688 242.284
L237.688 240.438
L237.889 240.438
L237.889 240.271
L238.056 240.271
L238.159 239.264
L238.175 239.264
L238.175 239.097
L238.356 239.097
L238.371 238.426
L238.473 238.426
L238.473 238.258
L238.936 238.258
L238.936 237.922
L239.163 237.922
L239.163 237.755
L240.66 237.755
L240.66 237.587
L240.85 237.587
L240.899 237.084
L240.99 237.084
L240.99 236.916
L241.115 236.916
L241.184 236.581
L241.587 236.581
L241.587 236.413
L241.897 236.413
L241.917 235.91
L242.017 235.91
L242.077 233.058
L242.149 233.058
L242.149 232.723
L242.445 232.723
L242.529 232.052
L242.627 232.052
L242.724 231.549
L242.788 231.549
L242.852 231.213
L243.107 231.213
L243.107 231.045
L243.296 231.045
L243.358 230.542
L245.357 230.542
L245.357 230.374
L245.477 230.374
L245.477 230.207
L245.647 230.207
L245.743 229.033
L245.883 229.033
L245.883 228.865
L246.056 228.865
L246.128 227.355
L246.211 227.355
L246.293 226.684
L246.403 226.684
L246.403 226.517
L246.544 226.517
L246.62 226.013
L247.017 226.013
L247.017 225.846
L248.512 225.846
L248.512 225.678
L248.891 225.678
L248.891 224.671
L249.115 224.671
L249.188 223.33
L249.298 223.33
L249.389 222.659
L249.523 222.659
L249.523 222.491
L249.796 222.491
L249.843 221.988
L251.073 221.988
L251.073 221.82
L251.65 221.82
L251.698 220.143
L251.848 220.143
L251.891 219.639
L252.01 219.639
L252.091 219.304
L252.209 219.304
L252.209 219.136
L252.327 219.136
L252.327 218.968
L252.452 218.968
L252.452 218.465
L253.589 218.465
L253.589 218.298
L253.841 218.298
L253.841 218.13
L254.106 218.13
L254.202 216.956
L254.283 216.956
L254.321 216.452
L254.428 216.452
L254.501 215.949
L254.713 215.949
L254.713 215.782
L254.825 215.782
L254.825 215.614
L255.85 215.614
L255.85 215.278
L256.078 215.278
L256.078 215.111
L256.234 215.111
L256.318 214.104
L256.356 214.104
L256.356 213.936
L256.513 213.936
L256.61 213.266
L256.731 213.266
L256.731 213.098
L258.095 213.098
L258.095 212.93
L258.33 212.93
L258.33 211.085
L258.509 211.085
L258.598 209.911
L258.645 209.911
L258.645 209.743
L258.927 209.743
L258.927 209.575
L259.784 209.575
L259.784 209.408
L259.96 209.408
L259.96 209.24
L260.176 209.24
L260.176 208.737
L260.315 208.737
L260.423 208.233
L260.478 208.233
L260.478 208.066
L261.881 208.066
L261.95 206.892
L262.034 206.892
L262.11 206.556
L262.177 206.556
L262.177 206.388
L263.466 206.388
L263.494 205.55
L263.608 205.55
L263.608 204.543
L263.831 204.543
L263.831 204.376
L264.628 204.376
L264.628 204.208
L264.887 204.208
L264.945 203.537
L265.056 203.537
L265.078 203.201
L265.198 203.201
L265.198 203.034
L265.414 203.034
L265.414 202.866
L266.332 202.866
L266.332 202.363
L266.457 202.363
L266.457 202.195
L267.358 202.195
L267.358 202.027
L267.587 202.027
L267.661 200.35
L267.756 200.35
L267.756 200.182
L268.872 200.182
L268.872 199.679
L269.266 199.679
L269.266 199.511
L270.041 199.511
L270.041 199.008
L270.314 199.008
L270.314 198.84
L271.152 198.84
L271.253 197.666
L272.211 197.666
L272.307 197.163
L272.355 197.163
L272.355 196.995
L273.221 196.995
L273.239 196.157
L273.359 196.157
L273.359 195.653
L274.188 195.653
L274.284 194.647
L274.32 194.647
L274.32 194.479
L274.915 194.479
L274.915 194.312
L275.115 194.312
L275.199 193.808
L275.241 193.808
L275.241 193.641
L276.005 193.641
L276.086 193.137
L276.86 193.137
L276.86 192.466
L277.684 192.466
L277.76 191.46
L277.797 191.46
L277.797 191.292
L278.479 191.292
L278.552 190.621
L278.723 190.621
L278.723 190.454
L279.305 190.454
L279.317 189.95
L279.989 189.95
L280.056 189.112
L280.707 189.112
L280.808 188.609
L281.415 188.609
L281.519 188.273
L282.077 188.273
L282.139 187.77
L282.732 187.77
L282.824 187.267
L283.368 187.267
L283.476 186.596
L283.987 186.596
L283.987 186.428
L284.458 186.428
L284.458 186.26
L284.69 186.26
L284.69 186.093
L285.175 186.093
L285.175 185.757
L285.622 185.757
L285.622 185.589
L285.746 185.589
L285.827 184.751
L286.303 184.751
L286.303 184.415
L286.976 184.415
L287.015 184.08
L287.905 184.08
L287.943 183.744
L288.942 183.744
L288.942 183.577
L289.855 183.577
L289.855 183.409
L290.411 183.409
L290.411 183.241
L290.775 183.241
L290.775 183.073
L291.698 183.073
L291.698 182.906
L292.086 182.906
L292.086 182.738
L292.637 182.738
L292.637 182.57
L292.83 182.57
L292.92 182.235
L293.381 182.235
L293.381 182.067
L293.723 182.067
L293.723 181.899
L294.498 181.899
L294.498 181.731
L297.356 181.731
L297.356 181.564
L297.72 181.564
L297.72 181.396
L298.34 181.396
L298.34 181.228
L299.588 181.228
L299.588 181.061
L300.481 181.061
L300.481 180.893
L302.986 180.893
L302.986 180.725
L445.2 180.725
L445.2 180.725" style="fill:none;stroke:#008000;stroke-linecap:square;stroke-width:1.5;"/>
   </g>
   <g id="line2d_8">
    <defs>
     <path d="
M-7.34788e-16 6
L6 -6
L-6 -6
z
" id="m397e16cd68" style="stroke:#008000;stroke-linejoin:miter;stroke-width:1.5;"/>
    </defs>
    <g>
     <use style="fill:none;stroke:#008000;stroke-linejoin:miter;stroke-width:1.5;" x="177.138680655" xlink:href="#m397e16cd68" y="329.840944416"/>
     <use style="fill:none;stroke:#008000;stroke-linejoin:miter;stroke-width:1.5;" x="209.964106231" xlink:href="#m397e16cd68" y="279.017415004"/>
     <use style="fill:none;stroke:#008000;stroke-linejoin:miter;stroke-width:1.5;" x="262.177217532" xlink:href="#m397e16cd68" y="206.388410927"/>
     <use style="fill:none;stroke:#008000;stroke-linejoin:miter;stroke-width:1.5;" x="302.986018463" xlink:href="#m397e16cd68" y="180.725044591"/>
     <use style="fill:none;stroke:#008000;stroke-linejoin:miter;stroke-width:1.5;" x="302.986018463" xlink:href="#m397e16cd68" y="180.725044591"/>
     <use style="fill:none;stroke:#008000;stroke-linejoin:miter;stroke-width:1.5;" x="445.2" xlink:href="#m397e16cd68" y="180.725044591"/>
    </g>
   </g>
   <g id="line2d_9"/>
   <g id="line2d_10">
    <path clip-path="url(#p0cd469f449)" d="
M203.576 283.211" style="fill:none;stroke:#008000;stroke-linecap:square;"/>
    <defs>
     <path d="
M-12 12
L12 -12
M-12 -12
L12 12" id="m8c089fa6cd" style="stroke:#008000;stroke-width:3;"/>
    </defs>
    <g clip-path="url(#p0cd469f449)">
     <use style="fill:#008000;stroke:#008000;stroke-width:3;" x="203.575879746" xlink:href="#m8c089fa6cd" y="283.210775517"/>
    </g>
   </g>
   <g id="line2d_11">
    <defs>
     <path d="
M0 1.5
C0.397805 1.5 0.77937 1.34195 1.06066 1.06066
C1.34195 0.77937 1.5 0.397805 1.5 0
C1.5 -0.397805 1.34195 -0.77937 1.06066 -1.06066
C0.77937 -1.34195 0.397805 -1.5 0 -1.5
C-0.397805 -1.5 -0.77937 -1.34195 -1.06066 -1.06066
C-1.34195 -0.77937 -1.5 -0.397805 -1.5 0
C-1.5 0.397805 -1.34195 0.77937 -1.06066 1.06066
C-0.77937 1.34195 -0.397805 1.5 0 1.5
z
" id="m76a7ce5b4a" style="stroke:#0000ff;stroke-width:0.5;"/>
    </defs>
    <g>
     <use style="fill:#0000ff;stroke:#0000ff;stroke-width:0.5;" x="302.433980663" xlink:href="#m76a7ce5b4a" y="272.978975866"/>
     <use style="fill:#0000ff;stroke:#0000ff;stroke-width:0.5;" x="302.433980663" xlink:href="#m76a7ce5b4a" y="272.978975866"/>
    </g>
   </g>
   <g id="line2d_12">
    <path d="
M49.253 352.15
L158.978 352.15
L158.978 351.982
L168.252 351.982
L168.252 351.479
L168.575 351.479
L168.575 351.311
L170.42 351.311
L170.42 350.64
L170.616 350.64
L170.616 350.137
L171.383 350.137
L171.383 349.969
L173.366 349.969
L173.366 349.634
L173.793 349.634
L173.793 349.466
L174.866 349.466
L174.866 349.298
L175.027 349.298
L175.027 348.795
L176.348 348.795
L176.423 348.292
L177.666 348.292
L177.738 347.789
L178.298 347.789
L178.298 347.621
L178.504 347.621
L178.504 347.453
L178.912 347.453
L178.912 347.285
L179.112 347.285
L179.112 347.118
L180.408 347.118
L180.408 346.95
L180.844 346.95
L180.844 346.614
L181.928 346.614
L181.928 346.279
L182.22 346.279
L182.22 345.776
L183.57 345.776
L183.57 345.608
L184.532 345.608
L184.532 345.44
L186.484 345.44
L186.484 345.273
L188.412 345.273
L188.412 344.602
L188.543 344.602
L188.543 344.266
L188.847 344.266
L188.847 344.098
L188.976 344.098
L188.976 343.931
L189.189 343.931
L189.189 343.595
L189.693 343.595
L189.693 342.589
L189.941 342.589
L189.941 342.421
L190.186 342.421
L190.186 342.253
L190.388 342.253
L190.468 340.911
L190.708 340.911
L190.708 340.744
L191.023 340.744
L191.023 340.408
L191.295 340.408
L191.295 340.24
L191.411 340.24
L191.411 340.073
L191.716 340.073
L191.716 339.905
L191.867 339.905
L191.867 339.737
L192.092 339.737
L192.167 339.066
L192.425 339.066
L192.462 338.395
L192.717 338.395
L192.717 338.06
L193.219 338.06
L193.219 337.892
L193.36 337.892
L193.36 337.389
L193.501 337.389
L193.501 337.221
L193.779 337.221
L193.779 336.886
L193.986 336.886
L194.02 336.215
L194.393 336.215
L194.46 335.544
L194.627 335.544
L194.627 335.376
L194.793 335.376
L194.892 334.705
L195.088 334.705
L195.088 334.538
L195.219 334.538
L195.316 334.202
L195.826 334.202
L195.921 333.196
L196.077 333.196
L196.077 332.692
L196.232 332.692
L196.232 332.525
L196.356 332.525
L196.448 332.189
L196.479 332.189
L196.479 331.854
L196.662 331.854
L196.723 331.518
L196.934 331.518
L196.994 331.015
L197.291 331.015
L197.321 330.68
L197.409 330.68
L197.409 330.512
L197.526 330.512
L197.556 329.841
L197.643 329.841
L197.73 328.835
L198.018 328.835
L198.018 328.667
L198.132 328.667
L198.16 328.331
L198.749 328.331
L198.805 327.493
L198.915 327.493
L198.915 327.157
L199.052 327.157
L199.161 326.654
L199.484 326.654
L199.591 325.648
L200.014 325.648
L200.092 325.144
L200.196 325.144
L200.3 324.809
L200.633 324.809
L200.684 324.473
L200.76 324.473
L200.76 323.803
L200.961 323.803
L200.961 323.467
L201.161 323.467
L201.235 322.964
L201.358 322.964
L201.457 321.957
L201.603 321.957
L201.603 321.454
L201.749 321.454
L201.749 321.286
L201.87 321.286
L201.966 320.783
L202.038 320.783
L202.109 320.28
L202.18 320.28
L202.252 319.777
L202.393 319.777
L202.44 319.274
L202.51 319.274
L202.534 318.603
L202.627 318.603
L202.627 318.435
L202.766 318.435
L202.766 318.267
L202.996 318.267
L203.087 316.925
L203.133 316.925
L203.178 316.59
L203.246 316.59
L203.246 316.087
L208.162 316.087
L208.162 315.751
L208.701 315.751
L208.701 315.584
L210.406 315.584
L210.406 315.416
L210.749 315.416
L210.749 315.248
L212.728 315.248
L212.743 314.913
L212.993 314.913
L212.993 314.745
L213.168 314.745
L213.168 314.409
L213.413 314.409
L213.499 313.738
L213.642 313.738
L213.741 313.403
L214.064 313.403
L214.064 313.068
L214.272 313.068
L214.272 312.732
L215.508 312.732
L215.547 312.061
L215.858 312.061
L215.923 311.39
L216.14 311.39
L216.152 311.055
L216.43 311.055
L216.43 310.887
L216.642 310.887
L216.729 310.216
L216.815 310.216
L216.815 310.048
L217.024 310.048
L217.121 309.713
L217.375 309.713
L217.375 309.545
L217.507 309.545
L217.507 309.377
L217.65 309.377
L217.65 309.21
L218.015 309.21
L218.12 308.706
L218.201 308.706
L218.294 307.868
L218.397 307.868
L218.397 307.532
L218.535 307.532
L218.535 307.365
L218.773 307.365
L218.83 306.861
L218.919 306.861
L218.919 306.526
L222.47 306.526
L222.47 306.358
L224.102 306.358
L224.102 306.19
L224.359 306.19
L224.464 305.519
L224.508 305.519
L224.56 305.184
L225.102 305.184
L225.153 304.849
L225.83 304.849
L225.83 304.681
L226.003 304.681
L226.027 304.345
L226.117 304.345
L226.117 304.178
L226.551 304.178
L226.623 303.842
L226.773 303.842
L226.773 303.674
L227.064 303.674
L227.087 303.339
L227.203 303.339
L227.203 303.171
L227.35 303.171
L227.419 302.5
L227.587 302.5
L227.671 301.829
L227.716 301.829
L227.716 301.662
L227.994 301.662
L228.054 301.158
L231.672 301.158
L231.779 300.32
L232.005 300.32
L232.03 299.816
L232.554 299.816
L232.633 299.481
L232.965 299.481
L232.965 299.313
L233.344 299.313
L233.374 298.978
L233.503 298.978
L233.503 298.81
L233.752 298.81
L233.856 298.475
L234.016 298.475
L234.016 298.307
L234.136 298.307
L234.204 297.971
L234.39 297.971
L234.491 297.468
L237.34 297.468
L237.34 297.3
L237.516 297.3
L237.536 296.63
L237.72 296.63
L237.759 296.294
L237.946 296.294
L238.008 295.959
L238.653 295.959
L238.75 295.623
L238.769 295.623
L238.769 295.455
L238.906 295.455
L239.003 294.449
L239.198 294.449
L239.212 294.114
L240.635 294.114
L240.635 293.946
L240.943 293.946
L240.943 293.778
L241.949 293.778
L241.949 293.61
L242.101 293.61
L242.101 293.275
L242.4 293.275
L242.475 292.939
L242.927 292.939
L243.011 292.436
L243.209 292.436
L243.209 292.268
L243.333 292.268
L243.333 292.101
L243.539 292.101
L243.539 291.933
L245.619 291.933
L245.632 291.597
L245.761 291.597
L245.788 291.094
L246.373 291.094
L246.373 290.927
L246.537 290.927
L246.644 290.423
L246.963 290.423
L247.004 289.92
L248.057 289.92
L248.057 289.752
L248.749 289.752
L248.794 289.417
L248.905 289.417
L248.905 289.249
L249.182 289.249
L249.182 288.914
L249.438 288.914
L249.438 288.746
L249.58 288.746
L249.632 288.243
L249.975 288.243
L249.975 288.075
L250.913 288.075
L250.913 287.907
L251.458 287.907
L251.458 287.74
L251.782 287.74
L251.782 287.572
L252.188 287.572
L252.297 286.901
L252.472 286.901
L252.495 286.565
L254.614 286.565
L254.623 286.23
L254.889 286.23
L254.965 285.895
L256.323 285.895
L256.323 285.559
L256.89 285.559
L256.935 285.224
L257.002 285.224
L257.096 284.888
L258.253 284.888
L258.253 284.72
L258.749 284.72
L258.779 284.049
L258.939 284.049
L259.026 283.211
L260.179 283.211
L260.262 282.875
L260.561 282.875
L260.656 282.037
L260.825 282.037
L260.825 281.869
L261.883 281.869
L261.883 281.701
L262.038 281.701
L262.038 281.533
L263.466 281.533
L263.466 281.366
L263.82 281.366
L263.911 280.695
L264.017 280.695
L264.017 280.527
L264.955 280.527
L264.955 280.359
L265.259 280.359
L265.259 280.192
L266.694 280.192
L266.754 279.856
L267.587 279.856
L267.635 279.521
L267.755 279.521
L267.755 279.353
L268.036 279.353
L268.036 279.017
L268.526 279.017
L268.526 278.85
L268.925 278.85
L268.982 278.346
L269.133 278.346
L269.194 278.011
L270.168 278.011
L270.168 277.843
L270.346 277.843
L270.45 277.508
L271.387 277.508
L271.387 277.34
L273.262 277.34
L273.262 277.172
L273.582 277.172
L273.582 277.005
L274.227 277.005
L274.227 276.837
L274.402 276.837
L274.419 276.501
L275.355 276.501
L275.396 276.166
L276.235 276.166
L276.274 275.83
L277.037 275.83
L277.037 275.663
L277.158 275.663
L277.158 275.495
L277.677 275.495
L277.677 275.327
L280.015 275.327
L280.015 275.16
L280.252 275.16
L280.252 274.992
L281.643 274.992
L281.643 274.824
L282.216 274.824
L282.216 274.656
L283.558 274.656
L283.558 274.489
L284.768 274.489
L284.768 274.321
L285.301 274.321
L285.301 274.153
L287.007 274.153
L287.007 273.985
L289.983 273.985
L290.016 273.65
L290.455 273.65
L290.455 273.482
L291.784 273.482
L291.784 273.314
L301.667 273.314
L301.667 273.147
L302.434 273.147
L302.434 272.979
L445.2 272.979
L445.2 272.979" style="fill:none;stroke:#0000ff;stroke-linecap:square;stroke-width:1.5;"/>
   </g>
   <g id="line2d_13">
    <defs>
     <path d="
M3.67394e-16 -6
L-1.34708 -1.8541
L-5.70634 -1.8541
L-2.17963 0.708204
L-3.52671 4.8541
L-4.20996e-16 2.2918
L3.52671 4.8541
L2.17963 0.708204
L5.70634 -1.8541
L1.34708 -1.8541
z
" id="m0933169453" style="stroke:#0000ff;stroke-linejoin:bevel;stroke-width:1.5;"/>
    </defs>
    <g>
     <use style="fill:none;stroke:#0000ff;stroke-linejoin:bevel;stroke-width:1.5;" x="49.2529712056" xlink:href="#m0933169453" y="352.149622343"/>
     <use style="fill:none;stroke:#0000ff;stroke-linejoin:bevel;stroke-width:1.5;" x="202.180437553" xlink:href="#m0933169453" y="320.112348027"/>
     <use style="fill:none;stroke:#0000ff;stroke-linejoin:bevel;stroke-width:1.5;" x="250.912939524" xlink:href="#m0933169453" y="288.075073711"/>
     <use style="fill:none;stroke:#0000ff;stroke-linejoin:bevel;stroke-width:1.5;" x="302.433980663" xlink:href="#m0933169453" y="273.146710287"/>
     <use style="fill:none;stroke:#0000ff;stroke-linejoin:bevel;stroke-width:1.5;" x="302.433980663" xlink:href="#m0933169453" y="272.978975866"/>
     <use style="fill:none;stroke:#0000ff;stroke-linejoin:bevel;stroke-width:1.5;" x="445.2" xlink:href="#m0933169453" y="272.978975866"/>
    </g>
   </g>
   <g id="line2d_14"/>
   <g id="line2d_15">
    <path clip-path="url(#p0cd469f449)" d="
M203.561 316.087" style="fill:none;stroke:#0000ff;stroke-linecap:square;"/>
    <defs>
     <path d="
M-12 12
L12 -12
M-12 -12
L12 12" id="ma4a355cd2c" style="stroke:#0000ff;stroke-width:3;"/>
    </defs>
    <g clip-path="url(#p0cd469f449)">
     <use style="fill:#0000ff;stroke:#0000ff;stroke-width:3;" x="203.561009476" xlink:href="#ma4a355cd2c" y="316.086721935"/>
    </g>
   </g>
   <g id="line2d_16">
    <path d="
M445.2 272.979
L484.8 351.68" style="fill:none;stroke:#0000ff;stroke-linecap:square;stroke-width:1.5;"/>
    <g>
     <use style="fill:none;stroke:#0000ff;stroke-linejoin:bevel;stroke-width:1.5;" x="445.2" xlink:href="#m0933169453" y="272.978975866"/>
     <use style="fill:none;stroke:#0000ff;stroke-linejoin:bevel;stroke-width:1.5;" x="484.8" xlink:href="#m0933169453" y="351.679965965"/>
    </g>
   </g>
   <g id="line2d_17">
    <path d="
M445.2 180.725
L484.8 187.434" style="fill:none;stroke:#008000;stroke-linecap:square;stroke-width:1.5;"/>
    <g>
     <use style="fill:none;stroke:#008000;stroke-linejoin:miter;stroke-width:1.5;" x="445.2" xlink:href="#m397e16cd68" y="180.725044591"/>
     <use style="fill:none;stroke:#008000;stroke-linejoin:miter;stroke-width:1.5;" x="484.8" xlink:href="#m397e16cd68" y="187.434421411"/>
    </g>
   </g>
   <g id="line2d_18">
    <path d="
M445.2 152.21
L484.8 23.1889" style="fill:none;stroke:#00bfbf;stroke-linecap:square;stroke-width:1.5;"/>
    <g>
     <use style="fill:none;stroke:#00bfbf;stroke-width:1.5;" x="445.2" xlink:href="#m3e4de746de" y="152.210193106"/>
     <use style="fill:none;stroke:#00bfbf;stroke-width:1.5;" x="484.8" xlink:href="#m3e4de746de" y="23.1888768564"/>
    </g>
   </g>
   <g id="line2d_19">
    <path d="
M445.2 358.524
L445.2 16.3453" style="fill:none;stroke:#000000;stroke-linecap:square;"/>
   </g>
   <g id="matplotlib.axis_1">
    <g id="xtick_1">
     <g id="line2d_20">
      <path clip-path="url(#p0cd469f449)" d="
M85.2 358.524
L85.2 12.9235" style="fill:none;stroke:#000000;stroke-dasharray:1.000000,3.000000;stroke-dashoffset:0.0;stroke-width:0.5;"/>
     </g>
     <g id="line2d_21">
      <defs>
       <path d="
M0 0
L0 -4" id="m93b0483c22" style="stroke:#000000;stroke-width:0.5;"/>
      </defs>
      <g>
       <use style="stroke:#000000;stroke-width:0.5;" x="85.2" xlink:href="#m93b0483c22" y="358.523530322"/>
      </g>
     </g>
     <g id="line2d_22">
      <defs>
       <path d="
M0 0
L0 4" id="m741efc42ff" style="stroke:#000000;stroke-width:0.5;"/>
      </defs>
      <g>
       <use style="stroke:#000000;stroke-width:0.5;" x="85.2" xlink:href="#m741efc42ff" y="12.9235303218"/>
      </g>
     </g>
     <g id="text_1">
      <!-- 0 -->
      <defs>
       <path d="
M4.15625 35.2969
Q4.15625 48 6.76562 55.7344
Q9.375 63.4844 14.5156 67.6719
Q19.6719 71.875 27.4844 71.875
Q33.25 71.875 37.5938 69.5469
Q41.9375 67.2344 44.7656 62.8594
Q47.6094 58.5 49.2188 52.2188
Q50.8281 45.9531 50.8281 35.2969
Q50.8281 22.7031 48.2344 14.9688
Q45.6562 7.23438 40.5 3
Q35.3594 -1.21875 27.4844 -1.21875
Q17.1406 -1.21875 11.2344 6.20312
Q4.15625 15.1406 4.15625 35.2969
M13.1875 35.2969
Q13.1875 17.6719 17.3125 11.8281
Q21.4375 6 27.4844 6
Q33.5469 6 37.6719 11.8594
Q41.7969 17.7188 41.7969 35.2969
Q41.7969 52.9844 37.6719 58.7812
Q33.5469 64.5938 27.3906 64.5938
Q21.3438 64.5938 17.7188 59.4688
Q13.1875 52.9375 13.1875 35.2969" id="ArialMT-30"/>
      </defs>
      <g transform="translate(80.5328125 376.839155322)scale(0.2 -0.2)">
       <use xlink:href="#ArialMT-30"/>
      </g>
     </g>
    </g>
    <g id="xtick_2">
     <g id="line2d_23">
      <path clip-path="url(#p0cd469f449)" d="
M136.629 358.524
L136.629 12.9235" style="fill:none;stroke:#000000;stroke-dasharray:1.000000,3.000000;stroke-dashoffset:0.0;stroke-width:0.5;"/>
     </g>
     <g id="line2d_24">
      <g>
       <use style="stroke:#000000;stroke-width:0.5;" x="136.628571429" xlink:href="#m93b0483c22" y="358.523530322"/>
      </g>
     </g>
     <g id="line2d_25">
      <g>
       <use style="stroke:#000000;stroke-width:0.5;" x="136.628571429" xlink:href="#m741efc42ff" y="12.9235303218"/>
      </g>
     </g>
     <g id="text_2">
      <!-- 1 -->
      <defs>
       <path d="
M37.25 0
L28.4688 0
L28.4688 56
Q25.2969 52.9844 20.1406 49.9531
Q14.9844 46.9219 10.8906 45.4062
L10.8906 53.9062
Q18.2656 57.375 23.7812 62.2969
Q29.2969 67.2344 31.5938 71.875
L37.25 71.875
z
" id="ArialMT-31"/>
      </defs>
      <g transform="translate(133.992633929 376.839155322)scale(0.2 -0.2)">
       <use xlink:href="#ArialMT-31"/>
      </g>
     </g>
    </g>
    <g id="xtick_3">
     <g id="line2d_26">
      <path clip-path="url(#p0cd469f449)" d="
M188.057 358.524
L188.057 12.9235" style="fill:none;stroke:#000000;stroke-dasharray:1.000000,3.000000;stroke-dashoffset:0.0;stroke-width:0.5;"/>
     </g>
     <g id="line2d_27">
      <g>
       <use style="stroke:#000000;stroke-width:0.5;" x="188.057142857" xlink:href="#m93b0483c22" y="358.523530322"/>
      </g>
     </g>
     <g id="line2d_28">
      <g>
       <use style="stroke:#000000;stroke-width:0.5;" x="188.057142857" xlink:href="#m741efc42ff" y="12.9235303218"/>
      </g>
     </g>
     <g id="text_3">
      <!-- 2 -->
      <defs>
       <path d="
M50.3438 8.45312
L50.3438 0
L3.03125 0
Q2.9375 3.17188 4.04688 6.10938
Q5.85938 10.9375 9.82812 15.625
Q13.8125 20.3125 21.3438 26.4688
Q33.0156 36.0312 37.1094 41.625
Q41.2188 47.2188 41.2188 52.2031
Q41.2188 57.4219 37.4688 61
Q33.7344 64.5938 27.7344 64.5938
Q21.3906 64.5938 17.5781 60.7812
Q13.7656 56.9844 13.7188 50.25
L4.6875 51.1719
Q5.60938 61.2812 11.6562 66.5781
Q17.7188 71.875 27.9375 71.875
Q38.2344 71.875 44.2344 66.1562
Q50.25 60.4531 50.25 52
Q50.25 47.7031 48.4844 43.5469
Q46.7344 39.4062 42.6562 34.8125
Q38.5781 30.2188 29.1094 22.2188
Q21.1875 15.5781 18.9375 13.2031
Q16.7031 10.8438 15.2344 8.45312
z
" id="ArialMT-32"/>
      </defs>
      <g transform="translate(183.316517857 376.839155322)scale(0.2 -0.2)">
       <use xlink:href="#ArialMT-32"/>
      </g>
     </g>
    </g>
    <g id="xtick_4">
     <g id="line2d_29">
      <path clip-path="url(#p0cd469f449)" d="
M239.486 358.524
L239.486 12.9235" style="fill:none;stroke:#000000;stroke-dasharray:1.000000,3.000000;stroke-dashoffset:0.0;stroke-width:0.5;"/>
     </g>
     <g id="line2d_30">
      <g>
       <use style="stroke:#000000;stroke-width:0.5;" x="239.485714286" xlink:href="#m93b0483c22" y="358.523530322"/>
      </g>
     </g>
     <g id="line2d_31">
      <g>
       <use style="stroke:#000000;stroke-width:0.5;" x="239.485714286" xlink:href="#m741efc42ff" y="12.9235303218"/>
      </g>
     </g>
     <g id="text_4">
      <!-- 3 -->
      <defs>
       <path d="
M4.20312 18.8906
L12.9844 20.0625
Q14.5 12.5938 18.1406 9.29688
Q21.7812 6 27 6
Q33.2031 6 37.4688 10.2969
Q41.75 14.5938 41.75 20.9531
Q41.75 27 37.7969 30.9219
Q33.8438 34.8594 27.7344 34.8594
Q25.25 34.8594 21.5312 33.8906
L22.5156 41.6094
Q23.3906 41.5 23.9219 41.5
Q29.5469 41.5 34.0312 44.4219
Q38.5312 47.3594 38.5312 53.4688
Q38.5312 58.2969 35.25 61.4688
Q31.9844 64.6562 26.8125 64.6562
Q21.6875 64.6562 18.2656 61.4219
Q14.8438 58.2031 13.875 51.7656
L5.07812 53.3281
Q6.6875 62.1562 12.3906 67.0156
Q18.1094 71.875 26.6094 71.875
Q32.4688 71.875 37.3906 69.3594
Q42.3281 66.8438 44.9375 62.5
Q47.5625 58.1562 47.5625 53.2656
Q47.5625 48.6406 45.0625 44.8281
Q42.5781 41.0156 37.7031 38.7656
Q44.0469 37.3125 47.5625 32.6875
Q51.0781 28.0781 51.0781 21.1406
Q51.0781 11.7656 44.2344 5.25
Q37.4062 -1.26562 26.9531 -1.26562
Q17.5312 -1.26562 11.2969 4.34375
Q5.07812 9.96875 4.20312 18.8906" id="ArialMT-33"/>
      </defs>
      <g transform="translate(234.798214286 376.839155322)scale(0.2 -0.2)">
       <use xlink:href="#ArialMT-33"/>
      </g>
     </g>
    </g>
    <g id="xtick_5">
     <g id="line2d_32">
      <path clip-path="url(#p0cd469f449)" d="
M290.914 358.524
L290.914 12.9235" style="fill:none;stroke:#000000;stroke-dasharray:1.000000,3.000000;stroke-dashoffset:0.0;stroke-width:0.5;"/>
     </g>
     <g id="line2d_33">
      <g>
       <use style="stroke:#000000;stroke-width:0.5;" x="290.914285714" xlink:href="#m93b0483c22" y="358.523530322"/>
      </g>
     </g>
     <g id="line2d_34">
      <g>
       <use style="stroke:#000000;stroke-width:0.5;" x="290.914285714" xlink:href="#m741efc42ff" y="12.9235303218"/>
      </g>
     </g>
     <g id="text_5">
      <!-- 4 -->
      <defs>
       <path d="
M32.3281 0
L32.3281 17.1406
L1.26562 17.1406
L1.26562 25.2031
L33.9375 71.5781
L41.1094 71.5781
L41.1094 25.2031
L50.7812 25.2031
L50.7812 17.1406
L41.1094 17.1406
L41.1094 0
z

M32.3281 25.2031
L32.3281 57.4688
L9.90625 25.2031
z
" id="ArialMT-34"/>
      </defs>
      <g transform="translate(285.962723214 376.839155322)scale(0.2 -0.2)">
       <use xlink:href="#ArialMT-34"/>
      </g>
     </g>
    </g>
    <g id="xtick_6">
     <g id="line2d_35">
      <path clip-path="url(#p0cd469f449)" d="
M342.343 358.524
L342.343 12.9235" style="fill:none;stroke:#000000;stroke-dasharray:1.000000,3.000000;stroke-dashoffset:0.0;stroke-width:0.5;"/>
     </g>
     <g id="line2d_36">
      <g>
       <use style="stroke:#000000;stroke-width:0.5;" x="342.342857143" xlink:href="#m93b0483c22" y="358.523530322"/>
      </g>
     </g>
     <g id="line2d_37">
      <g>
       <use style="stroke:#000000;stroke-width:0.5;" x="342.342857143" xlink:href="#m741efc42ff" y="12.9235303218"/>
      </g>
     </g>
     <g id="text_6">
      <!-- 5 -->
      <defs>
       <path d="
M4.15625 18.75
L13.375 19.5312
Q14.4062 12.7969 18.1406 9.39062
Q21.875 6 27.1562 6
Q33.5 6 37.8906 10.7812
Q42.2812 15.5781 42.2812 23.4844
Q42.2812 31 38.0625 35.3438
Q33.8438 39.7031 27 39.7031
Q22.75 39.7031 19.3281 37.7656
Q15.9219 35.8438 13.9688 32.7656
L5.71875 33.8438
L12.6406 70.6094
L48.25 70.6094
L48.25 62.2031
L19.6719 62.2031
L15.8281 42.9688
Q22.2656 47.4688 29.3438 47.4688
Q38.7188 47.4688 45.1562 40.9688
Q51.6094 34.4688 51.6094 24.2656
Q51.6094 14.5469 45.9531 7.46875
Q39.0625 -1.21875 27.1562 -1.21875
Q17.3906 -1.21875 11.2031 4.25
Q5.03125 9.71875 4.15625 18.75" id="ArialMT-35"/>
      </defs>
      <g transform="translate(337.597544643 376.839155322)scale(0.2 -0.2)">
       <use xlink:href="#ArialMT-35"/>
      </g>
     </g>
    </g>
    <g id="xtick_7">
     <g id="line2d_38">
      <path clip-path="url(#p0cd469f449)" d="
M393.771 358.524
L393.771 12.9235" style="fill:none;stroke:#000000;stroke-dasharray:1.000000,3.000000;stroke-dashoffset:0.0;stroke-width:0.5;"/>
     </g>
     <g id="line2d_39">
      <g>
       <use style="stroke:#000000;stroke-width:0.5;" x="393.771428571" xlink:href="#m93b0483c22" y="358.523530322"/>
      </g>
     </g>
     <g id="line2d_40">
      <g>
       <use style="stroke:#000000;stroke-width:0.5;" x="393.771428571" xlink:href="#m741efc42ff" y="12.9235303218"/>
      </g>
     </g>
     <g id="text_7">
      <!-- 6 -->
      <defs>
       <path d="
M49.75 54.0469
L41.0156 53.375
Q39.8438 58.5469 37.7031 60.8906
Q34.125 64.6562 28.9062 64.6562
Q24.7031 64.6562 21.5312 62.3125
Q17.3906 59.2812 14.9844 53.4688
Q12.5938 47.6562 12.5 36.9219
Q15.6719 41.75 20.2656 44.0938
Q24.8594 46.4375 29.8906 46.4375
Q38.6719 46.4375 44.8438 39.9688
Q51.0312 33.5 51.0312 23.25
Q51.0312 16.5 48.125 10.7188
Q45.2188 4.9375 40.1406 1.85938
Q35.0625 -1.21875 28.6094 -1.21875
Q17.625 -1.21875 10.6875 6.85938
Q3.76562 14.9375 3.76562 33.5
Q3.76562 54.25 11.4219 63.6719
Q18.1094 71.875 29.4375 71.875
Q37.8906 71.875 43.2812 67.1406
Q48.6875 62.4062 49.75 54.0469
M13.875 23.1875
Q13.875 18.6562 15.7969 14.5
Q17.7188 10.3594 21.1875 8.17188
Q24.6562 6 28.4688 6
Q34.0312 6 38.0312 10.4844
Q42.0469 14.9844 42.0469 22.7031
Q42.0469 30.125 38.0781 34.3906
Q34.125 38.6719 28.125 38.6719
Q22.1719 38.6719 18.0156 34.3906
Q13.875 30.125 13.875 23.1875" id="ArialMT-36"/>
      </defs>
      <g transform="translate(389.044866071 376.839155322)scale(0.2 -0.2)">
       <use xlink:href="#ArialMT-36"/>
      </g>
     </g>
    </g>
    <g id="xtick_8">
     <g id="line2d_41">
      <path clip-path="url(#p0cd469f449)" d="
M445.2 358.524
L445.2 12.9235" style="fill:none;stroke:#000000;stroke-dasharray:1.000000,3.000000;stroke-dashoffset:0.0;stroke-width:0.5;"/>
     </g>
     <g id="line2d_42">
      <g>
       <use style="stroke:#000000;stroke-width:0.5;" x="445.2" xlink:href="#m93b0483c22" y="358.523530322"/>
      </g>
     </g>
     <g id="line2d_43">
      <g>
       <use style="stroke:#000000;stroke-width:0.5;" x="445.2" xlink:href="#m741efc42ff" y="12.9235303218"/>
      </g>
     </g>
     <g id="text_8">
      <!-- 7 -->
      <defs>
       <path d="
M4.73438 62.2031
L4.73438 70.6562
L51.0781 70.6562
L51.0781 63.8125
Q44.2344 56.5469 37.5156 44.4844
Q30.8125 32.4219 27.1562 19.6719
Q24.5156 10.6875 23.7812 0
L14.75 0
Q14.8906 8.45312 18.0625 20.4062
Q21.2344 32.375 27.1719 43.4844
Q33.1094 54.5938 39.7969 62.2031
z
" id="ArialMT-37"/>
      </defs>
      <g transform="translate(440.565625 376.839155322)scale(0.2 -0.2)">
       <use xlink:href="#ArialMT-37"/>
      </g>
     </g>
    </g>
    <g id="xtick_9">
     <g id="line2d_44">
      <path clip-path="url(#p0cd469f449)" d="
M496.629 358.524
L496.629 12.9235" style="fill:none;stroke:#000000;stroke-dasharray:1.000000,3.000000;stroke-dashoffset:0.0;stroke-width:0.5;"/>
     </g>
     <g id="line2d_45">
      <g>
       <use style="stroke:#000000;stroke-width:0.5;" x="496.628571429" xlink:href="#m93b0483c22" y="358.523530322"/>
      </g>
     </g>
     <g id="line2d_46">
      <g>
       <use style="stroke:#000000;stroke-width:0.5;" x="496.628571429" xlink:href="#m741efc42ff" y="12.9235303218"/>
      </g>
     </g>
     <g id="text_9">
      <!-- 8 -->
      <defs>
       <path d="
M17.6719 38.8125
Q12.2031 40.8281 9.5625 44.5312
Q6.9375 48.25 6.9375 53.4219
Q6.9375 61.2344 12.5469 66.5469
Q18.1719 71.875 27.4844 71.875
Q36.8594 71.875 42.5781 66.4219
Q48.2969 60.9844 48.2969 53.1719
Q48.2969 48.1875 45.6719 44.5
Q43.0625 40.8281 37.75 38.8125
Q44.3438 36.6719 47.7812 31.875
Q51.2188 27.0938 51.2188 20.4531
Q51.2188 11.2812 44.7188 5.03125
Q38.2344 -1.21875 27.6406 -1.21875
Q17.0469 -1.21875 10.5469 5.04688
Q4.04688 11.3281 4.04688 20.7031
Q4.04688 27.6875 7.59375 32.3906
Q11.1406 37.1094 17.6719 38.8125
M15.9219 53.7188
Q15.9219 48.6406 19.1875 45.4062
Q22.4688 42.1875 27.6875 42.1875
Q32.7656 42.1875 36.0156 45.375
Q39.2656 48.5781 39.2656 53.2188
Q39.2656 58.0625 35.9062 61.3594
Q32.5625 64.6562 27.5938 64.6562
Q22.5625 64.6562 19.2344 61.4219
Q15.9219 58.2031 15.9219 53.7188
M13.0938 20.6562
Q13.0938 16.8906 14.875 13.375
Q16.6562 9.85938 20.1719 7.92188
Q23.6875 6 27.7344 6
Q34.0312 6 38.125 10.0469
Q42.2344 14.1094 42.2344 20.3594
Q42.2344 26.7031 38.0156 30.8594
Q33.7969 35.0156 27.4375 35.0156
Q21.2344 35.0156 17.1562 30.9062
Q13.0938 26.8125 13.0938 20.6562" id="ArialMT-38"/>
      </defs>
      <g transform="translate(491.911383929 376.839155322)scale(0.2 -0.2)">
       <use xlink:href="#ArialMT-38"/>
      </g>
     </g>
    </g>
    <g id="xtick_10">
     <g id="line2d_47">
      <defs>
       <path d="
M0 0
L0 -2" id="m177f7580d0" style="stroke:#000000;stroke-width:0.5;"/>
      </defs>
      <g>
       <use style="stroke:#000000;stroke-width:0.5;" x="100.681542634" xlink:href="#m177f7580d0" y="358.523530322"/>
      </g>
     </g>
     <g id="line2d_48">
      <defs>
       <path d="
M0 0
L0 2" id="m5284c7e2a0" style="stroke:#000000;stroke-width:0.5;"/>
      </defs>
      <g>
       <use style="stroke:#000000;stroke-width:0.5;" x="100.681542634" xlink:href="#m5284c7e2a0" y="12.9235303218"/>
      </g>
     </g>
    </g>
    <g id="xtick_11">
     <g id="line2d_49">
      <g>
       <use style="stroke:#000000;stroke-width:0.5;" x="116.163085268" xlink:href="#m177f7580d0" y="358.523530322"/>
      </g>
     </g>
     <g id="line2d_50">
      <g>
       <use style="stroke:#000000;stroke-width:0.5;" x="116.163085268" xlink:href="#m5284c7e2a0" y="12.9235303218"/>
      </g>
     </g>
    </g>
    <g id="xtick_12">
     <g id="line2d_51">
      <g>
       <use style="stroke:#000000;stroke-width:0.5;" x="125.219207163" xlink:href="#m177f7580d0" y="358.523530322"/>
      </g>
     </g>
     <g id="line2d_52">
      <g>
       <use style="stroke:#000000;stroke-width:0.5;" x="125.219207163" xlink:href="#m5284c7e2a0" y="12.9235303218"/>
      </g>
     </g>
    </g>
    <g id="xtick_13">
     <g id="line2d_53">
      <g>
       <use style="stroke:#000000;stroke-width:0.5;" x="131.644627902" xlink:href="#m177f7580d0" y="358.523530322"/>
      </g>
     </g>
     <g id="line2d_54">
      <g>
       <use style="stroke:#000000;stroke-width:0.5;" x="131.644627902" xlink:href="#m5284c7e2a0" y="12.9235303218"/>
      </g>
     </g>
    </g>
    <g id="xtick_14">
     <g id="line2d_55">
      <g>
       <use style="stroke:#000000;stroke-width:0.5;" x="152.110114063" xlink:href="#m177f7580d0" y="358.523530322"/>
      </g>
     </g>
     <g id="line2d_56">
      <g>
       <use style="stroke:#000000;stroke-width:0.5;" x="152.110114063" xlink:href="#m5284c7e2a0" y="12.9235303218"/>
      </g>
     </g>
    </g>
    <g id="xtick_15">
     <g id="line2d_57">
      <g>
       <use style="stroke:#000000;stroke-width:0.5;" x="167.591656697" xlink:href="#m177f7580d0" y="358.523530322"/>
      </g>
     </g>
     <g id="line2d_58">
      <g>
       <use style="stroke:#000000;stroke-width:0.5;" x="167.591656697" xlink:href="#m5284c7e2a0" y="12.9235303218"/>
      </g>
     </g>
    </g>
    <g id="xtick_16">
     <g id="line2d_59">
      <g>
       <use style="stroke:#000000;stroke-width:0.5;" x="176.647778591" xlink:href="#m177f7580d0" y="358.523530322"/>
      </g>
     </g>
     <g id="line2d_60">
      <g>
       <use style="stroke:#000000;stroke-width:0.5;" x="176.647778591" xlink:href="#m5284c7e2a0" y="12.9235303218"/>
      </g>
     </g>
    </g>
    <g id="xtick_17">
     <g id="line2d_61">
      <g>
       <use style="stroke:#000000;stroke-width:0.5;" x="183.073199331" xlink:href="#m177f7580d0" y="358.523530322"/>
      </g>
     </g>
     <g id="line2d_62">
      <g>
       <use style="stroke:#000000;stroke-width:0.5;" x="183.073199331" xlink:href="#m5284c7e2a0" y="12.9235303218"/>
      </g>
     </g>
    </g>
    <g id="xtick_18">
     <g id="line2d_63">
      <g>
       <use style="stroke:#000000;stroke-width:0.5;" x="203.538685491" xlink:href="#m177f7580d0" y="358.523530322"/>
      </g>
     </g>
     <g id="line2d_64">
      <g>
       <use style="stroke:#000000;stroke-width:0.5;" x="203.538685491" xlink:href="#m5284c7e2a0" y="12.9235303218"/>
      </g>
     </g>
    </g>
    <g id="xtick_19">
     <g id="line2d_65">
      <g>
       <use style="stroke:#000000;stroke-width:0.5;" x="219.020228125" xlink:href="#m177f7580d0" y="358.523530322"/>
      </g>
     </g>
     <g id="line2d_66">
      <g>
       <use style="stroke:#000000;stroke-width:0.5;" x="219.020228125" xlink:href="#m5284c7e2a0" y="12.9235303218"/>
      </g>
     </g>
    </g>
    <g id="xtick_20">
     <g id="line2d_67">
      <g>
       <use style="stroke:#000000;stroke-width:0.5;" x="228.07635002" xlink:href="#m177f7580d0" y="358.523530322"/>
      </g>
     </g>
     <g id="line2d_68">
      <g>
       <use style="stroke:#000000;stroke-width:0.5;" x="228.07635002" xlink:href="#m5284c7e2a0" y="12.9235303218"/>
      </g>
     </g>
    </g>
    <g id="xtick_21">
     <g id="line2d_69">
      <g>
       <use style="stroke:#000000;stroke-width:0.5;" x="234.50177076" xlink:href="#m177f7580d0" y="358.523530322"/>
      </g>
     </g>
     <g id="line2d_70">
      <g>
       <use style="stroke:#000000;stroke-width:0.5;" x="234.50177076" xlink:href="#m5284c7e2a0" y="12.9235303218"/>
      </g>
     </g>
    </g>
    <g id="xtick_22">
     <g id="line2d_71">
      <g>
       <use style="stroke:#000000;stroke-width:0.5;" x="254.96725692" xlink:href="#m177f7580d0" y="358.523530322"/>
      </g>
     </g>
     <g id="line2d_72">
      <g>
       <use style="stroke:#000000;stroke-width:0.5;" x="254.96725692" xlink:href="#m5284c7e2a0" y="12.9235303218"/>
      </g>
     </g>
    </g>
    <g id="xtick_23">
     <g id="line2d_73">
      <g>
       <use style="stroke:#000000;stroke-width:0.5;" x="270.448799554" xlink:href="#m177f7580d0" y="358.523530322"/>
      </g>
     </g>
     <g id="line2d_74">
      <g>
       <use style="stroke:#000000;stroke-width:0.5;" x="270.448799554" xlink:href="#m5284c7e2a0" y="12.9235303218"/>
      </g>
     </g>
    </g>
    <g id="xtick_24">
     <g id="line2d_75">
      <g>
       <use style="stroke:#000000;stroke-width:0.5;" x="279.504921448" xlink:href="#m177f7580d0" y="358.523530322"/>
      </g>
     </g>
     <g id="line2d_76">
      <g>
       <use style="stroke:#000000;stroke-width:0.5;" x="279.504921448" xlink:href="#m5284c7e2a0" y="12.9235303218"/>
      </g>
     </g>
    </g>
    <g id="xtick_25">
     <g id="line2d_77">
      <g>
       <use style="stroke:#000000;stroke-width:0.5;" x="285.930342188" xlink:href="#m177f7580d0" y="358.523530322"/>
      </g>
     </g>
     <g id="line2d_78">
      <g>
       <use style="stroke:#000000;stroke-width:0.5;" x="285.930342188" xlink:href="#m5284c7e2a0" y="12.9235303218"/>
      </g>
     </g>
    </g>
    <g id="xtick_26">
     <g id="line2d_79">
      <g>
       <use style="stroke:#000000;stroke-width:0.5;" x="306.395828348" xlink:href="#m177f7580d0" y="358.523530322"/>
      </g>
     </g>
     <g id="line2d_80">
      <g>
       <use style="stroke:#000000;stroke-width:0.5;" x="306.395828348" xlink:href="#m5284c7e2a0" y="12.9235303218"/>
      </g>
     </g>
    </g>
    <g id="xtick_27">
     <g id="line2d_81">
      <g>
       <use style="stroke:#000000;stroke-width:0.5;" x="321.877370983" xlink:href="#m177f7580d0" y="358.523530322"/>
      </g>
     </g>
     <g id="line2d_82">
      <g>
       <use style="stroke:#000000;stroke-width:0.5;" x="321.877370983" xlink:href="#m5284c7e2a0" y="12.9235303218"/>
      </g>
     </g>
    </g>
    <g id="xtick_28">
     <g id="line2d_83">
      <g>
       <use style="stroke:#000000;stroke-width:0.5;" x="330.933492877" xlink:href="#m177f7580d0" y="358.523530322"/>
      </g>
     </g>
     <g id="line2d_84">
      <g>
       <use style="stroke:#000000;stroke-width:0.5;" x="330.933492877" xlink:href="#m5284c7e2a0" y="12.9235303218"/>
      </g>
     </g>
    </g>
    <g id="xtick_29">
     <g id="line2d_85">
      <g>
       <use style="stroke:#000000;stroke-width:0.5;" x="337.358913617" xlink:href="#m177f7580d0" y="358.523530322"/>
      </g>
     </g>
     <g id="line2d_86">
      <g>
       <use style="stroke:#000000;stroke-width:0.5;" x="337.358913617" xlink:href="#m5284c7e2a0" y="12.9235303218"/>
      </g>
     </g>
    </g>
    <g id="xtick_30">
     <g id="line2d_87">
      <g>
       <use style="stroke:#000000;stroke-width:0.5;" x="357.824399777" xlink:href="#m177f7580d0" y="358.523530322"/>
      </g>
     </g>
     <g id="line2d_88">
      <g>
       <use style="stroke:#000000;stroke-width:0.5;" x="357.824399777" xlink:href="#m5284c7e2a0" y="12.9235303218"/>
      </g>
     </g>
    </g>
    <g id="xtick_31">
     <g id="line2d_89">
      <g>
       <use style="stroke:#000000;stroke-width:0.5;" x="373.305942411" xlink:href="#m177f7580d0" y="358.523530322"/>
      </g>
     </g>
     <g id="line2d_90">
      <g>
       <use style="stroke:#000000;stroke-width:0.5;" x="373.305942411" xlink:href="#m5284c7e2a0" y="12.9235303218"/>
      </g>
     </g>
    </g>
    <g id="xtick_32">
     <g id="line2d_91">
      <g>
       <use style="stroke:#000000;stroke-width:0.5;" x="382.362064305" xlink:href="#m177f7580d0" y="358.523530322"/>
      </g>
     </g>
     <g id="line2d_92">
      <g>
       <use style="stroke:#000000;stroke-width:0.5;" x="382.362064305" xlink:href="#m5284c7e2a0" y="12.9235303218"/>
      </g>
     </g>
    </g>
    <g id="xtick_33">
     <g id="line2d_93">
      <g>
       <use style="stroke:#000000;stroke-width:0.5;" x="388.787485045" xlink:href="#m177f7580d0" y="358.523530322"/>
      </g>
     </g>
     <g id="line2d_94">
      <g>
       <use style="stroke:#000000;stroke-width:0.5;" x="388.787485045" xlink:href="#m5284c7e2a0" y="12.9235303218"/>
      </g>
     </g>
    </g>
    <g id="xtick_34">
     <g id="line2d_95">
      <g>
       <use style="stroke:#000000;stroke-width:0.5;" x="409.252971206" xlink:href="#m177f7580d0" y="358.523530322"/>
      </g>
     </g>
     <g id="line2d_96">
      <g>
       <use style="stroke:#000000;stroke-width:0.5;" x="409.252971206" xlink:href="#m5284c7e2a0" y="12.9235303218"/>
      </g>
     </g>
    </g>
    <g id="xtick_35">
     <g id="line2d_97">
      <g>
       <use style="stroke:#000000;stroke-width:0.5;" x="424.73451384" xlink:href="#m177f7580d0" y="358.523530322"/>
      </g>
     </g>
     <g id="line2d_98">
      <g>
       <use style="stroke:#000000;stroke-width:0.5;" x="424.73451384" xlink:href="#m5284c7e2a0" y="12.9235303218"/>
      </g>
     </g>
    </g>
    <g id="xtick_36">
     <g id="line2d_99">
      <g>
       <use style="stroke:#000000;stroke-width:0.5;" x="433.790635734" xlink:href="#m177f7580d0" y="358.523530322"/>
      </g>
     </g>
     <g id="line2d_100">
      <g>
       <use style="stroke:#000000;stroke-width:0.5;" x="433.790635734" xlink:href="#m5284c7e2a0" y="12.9235303218"/>
      </g>
     </g>
    </g>
    <g id="xtick_37">
     <g id="line2d_101">
      <g>
       <use style="stroke:#000000;stroke-width:0.5;" x="440.216056474" xlink:href="#m177f7580d0" y="358.523530322"/>
      </g>
     </g>
     <g id="line2d_102">
      <g>
       <use style="stroke:#000000;stroke-width:0.5;" x="440.216056474" xlink:href="#m5284c7e2a0" y="12.9235303218"/>
      </g>
     </g>
    </g>
    <g id="xtick_38">
     <g id="line2d_103">
      <g>
       <use style="stroke:#000000;stroke-width:0.5;" x="460.681542634" xlink:href="#m177f7580d0" y="358.523530322"/>
      </g>
     </g>
     <g id="line2d_104">
      <g>
       <use style="stroke:#000000;stroke-width:0.5;" x="460.681542634" xlink:href="#m5284c7e2a0" y="12.9235303218"/>
      </g>
     </g>
    </g>
    <g id="xtick_39">
     <g id="line2d_105">
      <g>
       <use style="stroke:#000000;stroke-width:0.5;" x="476.163085268" xlink:href="#m177f7580d0" y="358.523530322"/>
      </g>
     </g>
     <g id="line2d_106">
      <g>
       <use style="stroke:#000000;stroke-width:0.5;" x="476.163085268" xlink:href="#m5284c7e2a0" y="12.9235303218"/>
      </g>
     </g>
    </g>
    <g id="xtick_40">
     <g id="line2d_107">
      <g>
       <use style="stroke:#000000;stroke-width:0.5;" x="485.219207163" xlink:href="#m177f7580d0" y="358.523530322"/>
      </g>
     </g>
     <g id="line2d_108">
      <g>
       <use style="stroke:#000000;stroke-width:0.5;" x="485.219207163" xlink:href="#m5284c7e2a0" y="12.9235303218"/>
      </g>
     </g>
    </g>
    <g id="xtick_41">
     <g id="line2d_109">
      <g>
       <use style="stroke:#000000;stroke-width:0.5;" x="491.644627902" xlink:href="#m177f7580d0" y="358.523530322"/>
      </g>
     </g>
     <g id="line2d_110">
      <g>
       <use style="stroke:#000000;stroke-width:0.5;" x="491.644627902" xlink:href="#m5284c7e2a0" y="12.9235303218"/>
      </g>
     </g>
    </g>
    <g id="xtick_42">
     <g id="line2d_111">
      <g>
       <use style="stroke:#000000;stroke-width:0.5;" x="512.110114063" xlink:href="#m177f7580d0" y="358.523530322"/>
      </g>
     </g>
     <g id="line2d_112">
      <g>
       <use style="stroke:#000000;stroke-width:0.5;" x="512.110114063" xlink:href="#m5284c7e2a0" y="12.9235303218"/>
      </g>
     </g>
    </g>
    <g id="xtick_43">
     <g id="line2d_113">
      <g>
       <use style="stroke:#000000;stroke-width:0.5;" x="527.591656697" xlink:href="#m177f7580d0" y="358.523530322"/>
      </g>
     </g>
     <g id="line2d_114">
      <g>
       <use style="stroke:#000000;stroke-width:0.5;" x="527.591656697" xlink:href="#m5284c7e2a0" y="12.9235303218"/>
      </g>
     </g>
    </g>
    <g id="text_10">
     <!-- log10 of (# f-evals / dimension) -->
     <defs>
      <path d="
M12.3594 -21.0469
L6.0625 -21.0469
Q20.6562 2.39062 20.6562 25.875
Q20.6562 35.0625 18.5625 44.0938
Q16.8906 51.4219 13.9219 58.1562
Q12.0156 62.5469 6.0625 72.7969
L12.3594 72.7969
Q21.5312 60.5469 25.9219 48.1875
Q29.6875 37.5469 29.6875 25.9219
Q29.6875 12.75 24.625 0.4375
Q19.5781 -11.8594 12.3594 -21.0469" id="ArialMT-29"/>
      <path d="
M40.4375 6.39062
Q35.5469 2.25 31.0312 0.53125
Q26.5156 -1.17188 21.3438 -1.17188
Q12.7969 -1.17188 8.20312 3
Q3.60938 7.17188 3.60938 13.6719
Q3.60938 17.4844 5.34375 20.625
Q7.07812 23.7812 9.89062 25.6875
Q12.7031 27.5938 16.2188 28.5625
Q18.7969 29.25 24.0312 29.8906
Q34.6719 31.1562 39.7031 32.9062
Q39.75 34.7188 39.75 35.2031
Q39.75 40.5781 37.25 42.7812
Q33.8906 45.75 27.25 45.75
Q21.0469 45.75 18.0938 43.5781
Q15.1406 41.4062 13.7188 35.8906
L5.125 37.0625
Q6.29688 42.5781 8.98438 45.9688
Q11.6719 49.3594 16.75 51.1875
Q21.8281 53.0312 28.5156 53.0312
Q35.1562 53.0312 39.2969 51.4688
Q43.4531 49.9062 45.4062 47.5312
Q47.3594 45.1719 48.1406 41.5469
Q48.5781 39.3125 48.5781 33.4531
L48.5781 21.7344
Q48.5781 9.46875 49.1406 6.21875
Q49.7031 2.98438 51.375 0
L42.1875 0
Q40.8281 2.73438 40.4375 6.39062
M39.7031 26.0312
Q34.9062 24.0781 25.3438 22.7031
Q19.9219 21.9219 17.6719 20.9375
Q15.4375 19.9688 14.2031 18.0938
Q12.9844 16.2188 12.9844 13.9219
Q12.9844 10.4062 15.6406 8.0625
Q18.3125 5.71875 23.4375 5.71875
Q28.5156 5.71875 32.4688 7.9375
Q36.4219 10.1562 38.2812 14.0156
Q39.7031 17 39.7031 22.7969
z
" id="ArialMT-61"/>
      <path d="
M4.98438 -4.29688
L13.5312 -5.5625
Q14.0625 -9.51562 16.5 -11.3281
Q19.7812 -13.7656 25.4375 -13.7656
Q31.5469 -13.7656 34.8594 -11.3281
Q38.1875 -8.89062 39.3594 -4.5
Q40.0469 -1.8125 39.9844 6.78125
Q34.2344 0 25.6406 0
Q14.9375 0 9.07812 7.71875
Q3.21875 15.4375 3.21875 26.2188
Q3.21875 33.6406 5.90625 39.9062
Q8.59375 46.1875 13.6875 49.6094
Q18.7969 53.0312 25.6875 53.0312
Q34.8594 53.0312 40.8281 45.6094
L40.8281 51.8594
L48.9219 51.8594
L48.9219 7.03125
Q48.9219 -5.07812 46.4531 -10.125
Q44 -15.1875 38.6406 -18.1094
Q33.2969 -21.0469 25.4844 -21.0469
Q16.2188 -21.0469 10.5 -16.875
Q4.78125 -12.7031 4.98438 -4.29688
M12.25 26.8594
Q12.25 16.6562 16.2969 11.9688
Q20.3594 7.28125 26.4688 7.28125
Q32.5156 7.28125 36.6094 11.9375
Q40.7188 16.6094 40.7188 26.5625
Q40.7188 36.0781 36.5 40.9062
Q32.2812 45.75 26.3125 45.75
Q20.4531 45.75 16.3438 40.9844
Q12.25 36.2344 12.25 26.8594" id="ArialMT-67"/>
      <path d="
M8.6875 0
L8.6875 45.0156
L0.921875 45.0156
L0.921875 51.8594
L8.6875 51.8594
L8.6875 57.375
Q8.6875 62.5938 9.625 65.1406
Q10.8906 68.5625 14.0781 70.6719
Q17.2812 72.7969 23.0469 72.7969
Q26.7656 72.7969 31.25 71.9219
L29.9375 64.2656
Q27.2031 64.75 24.75 64.75
Q20.75 64.75 19.0938 63.0312
Q17.4375 61.3281 17.4375 56.6406
L17.4375 51.8594
L27.5469 51.8594
L27.5469 45.0156
L17.4375 45.0156
L17.4375 0
z
" id="ArialMT-66"/>
      <path d="
M42.0938 16.7031
L51.1719 15.5781
Q49.0312 7.625 43.2188 3.21875
Q37.4062 -1.17188 28.375 -1.17188
Q17 -1.17188 10.3281 5.82812
Q3.65625 12.8438 3.65625 25.4844
Q3.65625 38.5781 10.3906 45.7969
Q17.1406 53.0312 27.875 53.0312
Q38.2812 53.0312 44.875 45.9531
Q51.4688 38.875 51.4688 26.0312
Q51.4688 25.25 51.4219 23.6875
L12.75 23.6875
Q13.2344 15.1406 17.5781 10.5938
Q21.9219 6.0625 28.4219 6.0625
Q33.25 6.0625 36.6719 8.59375
Q40.0938 11.1406 42.0938 16.7031
M13.2344 30.9062
L42.1875 30.9062
Q41.6094 37.4531 38.875 40.7188
Q34.6719 45.7969 27.9844 45.7969
Q21.9219 45.7969 17.7969 41.75
Q13.6719 37.7031 13.2344 30.9062" id="ArialMT-65"/>
      <path d="
M40.2344 0
L40.2344 6.54688
Q35.2969 -1.17188 25.7344 -1.17188
Q19.5312 -1.17188 14.3281 2.25
Q9.125 5.67188 6.26562 11.7969
Q3.42188 17.9219 3.42188 25.875
Q3.42188 33.6406 6 39.9688
Q8.59375 46.2969 13.7656 49.6562
Q18.9531 53.0312 25.3438 53.0312
Q30.0312 53.0312 33.6875 51.0469
Q37.3594 49.0781 39.6562 45.9062
L39.6562 71.5781
L48.3906 71.5781
L48.3906 0
z

M12.4531 25.875
Q12.4531 15.9219 16.6406 10.9844
Q20.8438 6.0625 26.5625 6.0625
Q32.3281 6.0625 36.3438 10.7656
Q40.375 15.4844 40.375 25.1406
Q40.375 35.7969 36.2656 40.7656
Q32.1719 45.75 26.1719 45.75
Q20.3125 45.75 16.375 40.9688
Q12.4531 36.1875 12.4531 25.875" id="ArialMT-64"/>
      <path d="
M0 -1.21875
L20.75 72.7969
L27.7812 72.7969
L7.07812 -1.21875
z
" id="ArialMT-2f"/>
      <path d="
M21 0
L1.26562 51.8594
L10.5469 51.8594
L21.6875 20.7969
Q23.4844 15.7656 25 10.3594
Q26.1719 14.4531 28.2656 20.2188
L39.7969 51.8594
L48.8281 51.8594
L29.2031 0
z
" id="ArialMT-76"/>
      <path d="
M3.17188 21.4844
L3.17188 30.3281
L30.1719 30.3281
L30.1719 21.4844
z
" id="ArialMT-2d"/>
      <path d="
M6.59375 0
L6.59375 51.8594
L14.4531 51.8594
L14.4531 44.5781
Q16.8906 48.3906 20.9375 50.7031
Q25 53.0312 30.1719 53.0312
Q35.9375 53.0312 39.625 50.6406
Q43.3125 48.25 44.8281 43.9531
Q50.9844 53.0312 60.8438 53.0312
Q68.5625 53.0312 72.7031 48.75
Q76.8594 44.4844 76.8594 35.5938
L76.8594 0
L68.1094 0
L68.1094 32.6719
Q68.1094 37.9375 67.25 40.25
Q66.4062 42.5781 64.1562 43.9844
Q61.9219 45.4062 58.8906 45.4062
Q53.4219 45.4062 49.7969 41.7656
Q46.1875 38.1406 46.1875 30.125
L46.1875 0
L37.4062 0
L37.4062 33.6875
Q37.4062 39.5469 35.25 42.4688
Q33.1094 45.4062 28.2188 45.4062
Q24.5156 45.4062 21.3594 43.4531
Q18.2188 41.5 16.7969 37.7344
Q15.375 33.9844 15.375 26.9062
L15.375 0
z
" id="ArialMT-6d"/>
      <path d="
M3.07812 15.4844
L11.7656 16.8438
Q12.5 11.625 15.8438 8.84375
Q19.1875 6.0625 25.2031 6.0625
Q31.25 6.0625 34.1719 8.51562
Q37.1094 10.9844 37.1094 14.3125
Q37.1094 17.2812 34.5156 19
Q32.7188 20.1719 25.5312 21.9688
Q15.875 24.4219 12.1406 26.2031
Q8.40625 27.9844 6.46875 31.125
Q4.54688 34.2812 4.54688 38.0938
Q4.54688 41.5469 6.125 44.5
Q7.71875 47.4688 10.4531 49.4219
Q12.5 50.9219 16.0312 51.9688
Q19.5781 53.0312 23.6406 53.0312
Q29.7344 53.0312 34.3438 51.2656
Q38.9688 49.5156 41.1562 46.5
Q43.3594 43.5 44.1875 38.4844
L35.5938 37.3125
Q35.0156 41.3125 32.2031 43.5469
Q29.3906 45.7969 24.2656 45.7969
Q18.2188 45.7969 15.625 43.7969
Q13.0312 41.7969 13.0312 39.1094
Q13.0312 37.4062 14.1094 36.0312
Q15.1875 34.625 17.4844 33.6875
Q18.7969 33.2031 25.25 31.4531
Q34.5781 28.9531 38.25 27.3594
Q41.9375 25.7812 44.0312 22.75
Q46.1406 19.7344 46.1406 15.2344
Q46.1406 10.8438 43.5781 6.95312
Q41.0156 3.07812 36.1719 0.953125
Q31.3438 -1.17188 25.25 -1.17188
Q15.1406 -1.17188 9.84375 3.03125
Q4.54688 7.23438 3.07812 15.4844" id="ArialMT-73"/>
      <path d="
M6.39062 0
L6.39062 71.5781
L15.1875 71.5781
L15.1875 0
z
" id="ArialMT-6c"/>
      <path d="
M3.32812 25.9219
Q3.32812 40.3281 11.3281 47.2656
Q18.0156 53.0312 27.6406 53.0312
Q38.3281 53.0312 45.1094 46.0156
Q51.9062 39.0156 51.9062 26.6562
Q51.9062 16.6562 48.9062 10.9062
Q45.9062 5.17188 40.1562 2
Q34.4219 -1.17188 27.6406 -1.17188
Q16.75 -1.17188 10.0312 5.8125
Q3.32812 12.7969 3.32812 25.9219
M12.3594 25.9219
Q12.3594 15.9688 16.7031 11.0156
Q21.0469 6.0625 27.6406 6.0625
Q34.1875 6.0625 38.5312 11.0312
Q42.875 16.0156 42.875 26.2188
Q42.875 35.8438 38.5 40.7969
Q34.125 45.75 27.6406 45.75
Q21.0469 45.75 16.7031 40.8125
Q12.3594 35.8906 12.3594 25.9219" id="ArialMT-6f"/>
      <path d="
M6.59375 0
L6.59375 51.8594
L14.5 51.8594
L14.5 44.4844
Q20.2188 53.0312 31 53.0312
Q35.6875 53.0312 39.625 51.3438
Q43.5625 49.6562 45.5156 46.9219
Q47.4688 44.1875 48.25 40.4375
Q48.7344 37.9844 48.7344 31.8906
L48.7344 0
L39.9375 0
L39.9375 31.5469
Q39.9375 36.9219 38.9062 39.5781
Q37.8906 42.2344 35.2812 43.8125
Q32.6719 45.4062 29.1562 45.4062
Q23.5312 45.4062 19.4531 41.8438
Q15.375 38.2812 15.375 28.3281
L15.375 0
z
" id="ArialMT-6e"/>
      <path d="
M23.3906 -21.0469
Q16.1094 -11.8594 11.0781 0.4375
Q6.0625 12.75 6.0625 25.9219
Q6.0625 37.5469 9.8125 48.1875
Q14.2031 60.5469 23.3906 72.7969
L29.6875 72.7969
Q23.7812 62.6406 21.875 58.2969
Q18.8906 51.5625 17.1875 44.2344
Q15.0938 35.1094 15.0938 25.875
Q15.0938 2.39062 29.6875 -21.0469
z
" id="ArialMT-28"/>
      <path d="
M5.03125 -1.21875
L9.28125 19.5781
L1.03125 19.5781
L1.03125 26.8594
L10.75 26.8594
L14.3594 44.5781
L1.03125 44.5781
L1.03125 51.8594
L15.8281 51.8594
L20.0625 72.7969
L27.3906 72.7969
L23.1406 51.8594
L38.5312 51.8594
L42.7812 72.7969
L50.1406 72.7969
L45.9062 51.8594
L54.3438 51.8594
L54.3438 44.5781
L44.4375 44.5781
L40.7656 26.8594
L54.3438 26.8594
L54.3438 19.5781
L39.3125 19.5781
L35.0625 -1.21875
L27.7344 -1.21875
L31.9375 19.5781
L16.6094 19.5781
L12.3594 -1.21875
z

M18.0625 26.8594
L33.4062 26.8594
L37.0625 44.5781
L21.6875 44.5781
z
" id="ArialMT-23"/>
      <path d="
M6.64062 61.4688
L6.64062 71.5781
L15.4375 71.5781
L15.4375 61.4688
z

M6.64062 0
L6.64062 51.8594
L15.4375 51.8594
L15.4375 0
z
" id="ArialMT-69"/>
      <path id="ArialMT-20"/>
     </defs>
     <g transform="translate(185.67375 398.917592822)scale(0.18 -0.18)">
      <use xlink:href="#ArialMT-6c"/>
      <use x="22.216796875" xlink:href="#ArialMT-6f"/>
      <use x="77.83203125" xlink:href="#ArialMT-67"/>
      <use x="133.447265625" xlink:href="#ArialMT-31"/>
      <use x="189.0625" xlink:href="#ArialMT-30"/>
      <use x="244.677734375" xlink:href="#ArialMT-20"/>
      <use x="272.4609375" xlink:href="#ArialMT-6f"/>
      <use x="328.076171875" xlink:href="#ArialMT-66"/>
      <use x="355.859375" xlink:href="#ArialMT-20"/>
      <use x="383.642578125" xlink:href="#ArialMT-28"/>
      <use x="416.943359375" xlink:href="#ArialMT-23"/>
      <use x="472.55859375" xlink:href="#ArialMT-20"/>
      <use x="500.341796875" xlink:href="#ArialMT-66"/>
      <use x="528.125" xlink:href="#ArialMT-2d"/>
      <use x="561.42578125" xlink:href="#ArialMT-65"/>
      <use x="617.041015625" xlink:href="#ArialMT-76"/>
      <use x="667.041015625" xlink:href="#ArialMT-61"/>
      <use x="722.65625" xlink:href="#ArialMT-6c"/>
      <use x="744.873046875" xlink:href="#ArialMT-73"/>
      <use x="794.873046875" xlink:href="#ArialMT-20"/>
      <use x="822.65625" xlink:href="#ArialMT-2f"/>
      <use x="850.439453125" xlink:href="#ArialMT-20"/>
      <use x="878.22265625" xlink:href="#ArialMT-64"/>
      <use x="933.837890625" xlink:href="#ArialMT-69"/>
      <use x="956.0546875" xlink:href="#ArialMT-6d"/>
      <use x="1039.35546875" xlink:href="#ArialMT-65"/>
      <use x="1094.97070312" xlink:href="#ArialMT-6e"/>
      <use x="1150.5859375" xlink:href="#ArialMT-73"/>
      <use x="1200.5859375" xlink:href="#ArialMT-69"/>
      <use x="1222.80273438" xlink:href="#ArialMT-6f"/>
      <use x="1278.41796875" xlink:href="#ArialMT-6e"/>
      <use x="1334.03320312" xlink:href="#ArialMT-29"/>
     </g>
    </g>
   </g>
   <g id="matplotlib.axis_2">
    <g id="ytick_1">
     <g id="line2d_115">
      <path clip-path="url(#p0cd469f449)" d="
M85.2 358.524
L531.6 358.524" style="fill:none;stroke:#000000;stroke-dasharray:1.000000,3.000000;stroke-dashoffset:0.0;stroke-width:0.5;"/>
     </g>
     <g id="line2d_116">
      <defs>
       <path d="
M0 0
L4 0" id="m728421d6d4" style="stroke:#000000;stroke-width:0.5;"/>
      </defs>
      <g>
       <use style="stroke:#000000;stroke-width:0.5;" x="85.2" xlink:href="#m728421d6d4" y="358.523530322"/>
      </g>
     </g>
     <g id="line2d_117">
      <defs>
       <path d="
M0 0
L-4 0" id="mcb0005524f" style="stroke:#000000;stroke-width:0.5;"/>
      </defs>
      <g>
       <use style="stroke:#000000;stroke-width:0.5;" x="531.6" xlink:href="#mcb0005524f" y="358.523530322"/>
      </g>
     </g>
     <g id="text_11">
      <!-- 0.0 -->
      <defs>
       <path d="
M9.07812 0
L9.07812 10.0156
L19.0938 10.0156
L19.0938 0
z
" id="ArialMT-2e"/>
      </defs>
      <g transform="translate(55.1875 363.693842822)scale(0.2 -0.2)">
       <use xlink:href="#ArialMT-30"/>
       <use x="55.615234375" xlink:href="#ArialMT-2e"/>
       <use x="83.3984375" xlink:href="#ArialMT-30"/>
      </g>
     </g>
    </g>
    <g id="ytick_2">
     <g id="line2d_118">
      <path clip-path="url(#p0cd469f449)" d="
M85.2 290.088
L531.6 290.088" style="fill:none;stroke:#000000;stroke-dasharray:1.000000,3.000000;stroke-dashoffset:0.0;stroke-width:0.5;"/>
     </g>
     <g id="line2d_119">
      <g>
       <use style="stroke:#000000;stroke-width:0.5;" x="85.2" xlink:href="#m728421d6d4" y="290.087886757"/>
      </g>
     </g>
     <g id="line2d_120">
      <g>
       <use style="stroke:#000000;stroke-width:0.5;" x="531.6" xlink:href="#mcb0005524f" y="290.087886757"/>
      </g>
     </g>
     <g id="text_12">
      <!-- 0.2 -->
      <g transform="translate(55.284375 295.258199257)scale(0.2 -0.2)">
       <use xlink:href="#ArialMT-30"/>
       <use x="55.615234375" xlink:href="#ArialMT-2e"/>
       <use x="83.3984375" xlink:href="#ArialMT-32"/>
      </g>
     </g>
    </g>
    <g id="ytick_3">
     <g id="line2d_121">
      <path clip-path="url(#p0cd469f449)" d="
M85.2 221.652
L531.6 221.652" style="fill:none;stroke:#000000;stroke-dasharray:1.000000,3.000000;stroke-dashoffset:0.0;stroke-width:0.5;"/>
     </g>
     <g id="line2d_122">
      <g>
       <use style="stroke:#000000;stroke-width:0.5;" x="85.2" xlink:href="#m728421d6d4" y="221.652243193"/>
      </g>
     </g>
     <g id="line2d_123">
      <g>
       <use style="stroke:#000000;stroke-width:0.5;" x="531.6" xlink:href="#mcb0005524f" y="221.652243193"/>
      </g>
     </g>
     <g id="text_13">
      <!-- 0.4 -->
      <g transform="translate(55.196875 226.822555693)scale(0.2 -0.2)">
       <use xlink:href="#ArialMT-30"/>
       <use x="55.615234375" xlink:href="#ArialMT-2e"/>
       <use x="83.3984375" xlink:href="#ArialMT-34"/>
      </g>
     </g>
    </g>
    <g id="ytick_4">
     <g id="line2d_124">
      <path clip-path="url(#p0cd469f449)" d="
M85.2 153.217
L531.6 153.217" style="fill:none;stroke:#000000;stroke-dasharray:1.000000,3.000000;stroke-dashoffset:0.0;stroke-width:0.5;"/>
     </g>
     <g id="line2d_125">
      <g>
       <use style="stroke:#000000;stroke-width:0.5;" x="85.2" xlink:href="#m728421d6d4" y="153.216599629"/>
      </g>
     </g>
     <g id="line2d_126">
      <g>
       <use style="stroke:#000000;stroke-width:0.5;" x="531.6" xlink:href="#mcb0005524f" y="153.216599629"/>
      </g>
     </g>
     <g id="text_14">
      <!-- 0.6 -->
      <g transform="translate(55.146875 158.386912129)scale(0.2 -0.2)">
       <use xlink:href="#ArialMT-30"/>
       <use x="55.615234375" xlink:href="#ArialMT-2e"/>
       <use x="83.3984375" xlink:href="#ArialMT-36"/>
      </g>
     </g>
    </g>
    <g id="ytick_5">
     <g id="line2d_127">
      <path clip-path="url(#p0cd469f449)" d="
M85.2 84.781
L531.6 84.781" style="fill:none;stroke:#000000;stroke-dasharray:1.000000,3.000000;stroke-dashoffset:0.0;stroke-width:0.5;"/>
     </g>
     <g id="line2d_128">
      <g>
       <use style="stroke:#000000;stroke-width:0.5;" x="85.2" xlink:href="#m728421d6d4" y="84.7809560644"/>
      </g>
     </g>
     <g id="line2d_129">
      <g>
       <use style="stroke:#000000;stroke-width:0.5;" x="531.6" xlink:href="#mcb0005524f" y="84.7809560644"/>
      </g>
     </g>
     <g id="text_15">
      <!-- 0.8 -->
      <g transform="translate(55.109375 89.9512685644)scale(0.2 -0.2)">
       <use xlink:href="#ArialMT-30"/>
       <use x="55.615234375" xlink:href="#ArialMT-2e"/>
       <use x="83.3984375" xlink:href="#ArialMT-38"/>
      </g>
     </g>
    </g>
    <g id="ytick_6">
     <g id="line2d_130">
      <path clip-path="url(#p0cd469f449)" d="
M85.2 16.3453
L531.6 16.3453" style="fill:none;stroke:#000000;stroke-dasharray:1.000000,3.000000;stroke-dashoffset:0.0;stroke-width:0.5;"/>
     </g>
     <g id="line2d_131">
      <g>
       <use style="stroke:#000000;stroke-width:0.5;" x="85.2" xlink:href="#m728421d6d4" y="16.3453125"/>
      </g>
     </g>
     <g id="line2d_132">
      <g>
       <use style="stroke:#000000;stroke-width:0.5;" x="531.6" xlink:href="#mcb0005524f" y="16.3453125"/>
      </g>
     </g>
     <g id="text_16">
      <!-- 1.0 -->
      <g transform="translate(56.534375 21.515625)scale(0.2 -0.2)">
       <use xlink:href="#ArialMT-31"/>
       <use x="55.615234375" xlink:href="#ArialMT-2e"/>
       <use x="83.3984375" xlink:href="#ArialMT-30"/>
      </g>
     </g>
    </g>
    <g id="text_17">
     <!-- Proportion of function+target pairs -->
     <defs>
      <path d="
M40.4375 19
L49.0781 17.875
Q47.6562 8.9375 41.8125 3.875
Q35.9844 -1.17188 27.4844 -1.17188
Q16.8438 -1.17188 10.375 5.78125
Q3.90625 12.75 3.90625 25.7344
Q3.90625 34.125 6.6875 40.4219
Q9.46875 46.7344 15.1562 49.875
Q20.8438 53.0312 27.5469 53.0312
Q35.9844 53.0312 41.3594 48.75
Q46.7344 44.4844 48.25 36.625
L39.7031 35.2969
Q38.4844 40.5312 35.375 43.1562
Q32.2812 45.7969 27.875 45.7969
Q21.2344 45.7969 17.0781 41.0312
Q12.9375 36.2812 12.9375 25.9844
Q12.9375 15.5312 16.9375 10.7969
Q20.9531 6.0625 27.3906 6.0625
Q32.5625 6.0625 36.0312 9.23438
Q39.5 12.4062 40.4375 19" id="ArialMT-63"/>
      <path d="
M25.7812 7.85938
L27.0469 0.09375
Q23.3438 -0.6875 20.4062 -0.6875
Q15.625 -0.6875 12.9844 0.828125
Q10.3594 2.34375 9.28125 4.8125
Q8.20312 7.28125 8.20312 15.1875
L8.20312 45.0156
L1.76562 45.0156
L1.76562 51.8594
L8.20312 51.8594
L8.20312 64.7031
L16.9375 69.9688
L16.9375 51.8594
L25.7812 51.8594
L25.7812 45.0156
L16.9375 45.0156
L16.9375 14.7031
Q16.9375 10.9375 17.4062 9.85938
Q17.875 8.79688 18.9219 8.15625
Q19.9688 7.51562 21.9219 7.51562
Q23.3906 7.51562 25.7812 7.85938" id="ArialMT-74"/>
      <path d="
M40.5781 0
L40.5781 7.625
Q34.5156 -1.17188 24.125 -1.17188
Q19.5312 -1.17188 15.5469 0.578125
Q11.5781 2.34375 9.64062 5
Q7.71875 7.67188 6.9375 11.5312
Q6.39062 14.1094 6.39062 19.7344
L6.39062 51.8594
L15.1875 51.8594
L15.1875 23.0938
Q15.1875 16.2188 15.7188 13.8125
Q16.5469 10.3594 19.2344 8.375
Q21.9219 6.39062 25.875 6.39062
Q29.8281 6.39062 33.2969 8.42188
Q36.7656 10.4531 38.2031 13.9375
Q39.6562 17.4375 39.6562 24.0781
L39.6562 51.8594
L48.4375 51.8594
L48.4375 0
z
" id="ArialMT-75"/>
      <path d="
M7.71875 0
L7.71875 71.5781
L34.7188 71.5781
Q41.8438 71.5781 45.6094 70.9062
Q50.875 70.0156 54.4375 67.5469
Q58.0156 65.0938 60.1875 60.6406
Q62.3594 56.2031 62.3594 50.875
Q62.3594 41.75 56.5469 35.4219
Q50.7344 29.1094 35.5469 29.1094
L17.1875 29.1094
L17.1875 0
z

M17.1875 37.5469
L35.6875 37.5469
Q44.875 37.5469 48.7344 40.9688
Q52.5938 44.3906 52.5938 50.5938
Q52.5938 55.0781 50.3125 58.2656
Q48.0469 61.4688 44.3438 62.5
Q41.9375 63.1406 35.5 63.1406
L17.1875 63.1406
z
" id="ArialMT-50"/>
      <path d="
M6.59375 -19.875
L6.59375 51.8594
L14.5938 51.8594
L14.5938 45.125
Q17.4375 49.0781 21 51.0469
Q24.5625 53.0312 29.6406 53.0312
Q36.2812 53.0312 41.3594 49.6094
Q46.4375 46.1875 49.0156 39.9531
Q51.6094 33.7344 51.6094 26.3125
Q51.6094 18.3594 48.75 11.9844
Q45.9062 5.60938 40.4531 2.21875
Q35.0156 -1.17188 29 -1.17188
Q24.6094 -1.17188 21.1094 0.6875
Q17.625 2.54688 15.375 5.375
L15.375 -19.875
z

M14.5469 25.6406
Q14.5469 15.625 18.5938 10.8438
Q22.6562 6.0625 28.4219 6.0625
Q34.2812 6.0625 38.4531 11.0156
Q42.625 15.9688 42.625 26.375
Q42.625 36.2812 38.5469 41.2031
Q34.4688 46.1406 28.8125 46.1406
Q23.1875 46.1406 18.8594 40.8906
Q14.5469 35.6406 14.5469 25.6406" id="ArialMT-70"/>
      <path d="
M25.0469 11.5781
L25.0469 31.2031
L5.5625 31.2031
L5.5625 39.4062
L25.0469 39.4062
L25.0469 58.8906
L33.3438 58.8906
L33.3438 39.4062
L52.8281 39.4062
L52.8281 31.2031
L33.3438 31.2031
L33.3438 11.5781
z
" id="ArialMT-2b"/>
      <path d="
M6.5 0
L6.5 51.8594
L14.4062 51.8594
L14.4062 44
Q17.4375 49.5156 20 51.2656
Q22.5625 53.0312 25.6406 53.0312
Q30.0781 53.0312 34.6719 50.2031
L31.6406 42.0469
Q28.4219 43.9531 25.2031 43.9531
Q22.3125 43.9531 20.0156 42.2188
Q17.7188 40.4844 16.75 37.4062
Q15.2812 32.7188 15.2812 27.1562
L15.2812 0
z
" id="ArialMT-72"/>
     </defs>
     <g transform="translate(46.3209375 321.197436572)rotate(-90.0)scale(0.18 -0.18)">
      <use xlink:href="#ArialMT-50"/>
      <use x="66.69921875" xlink:href="#ArialMT-72"/>
      <use x="100.0" xlink:href="#ArialMT-6f"/>
      <use x="155.615234375" xlink:href="#ArialMT-70"/>
      <use x="211.23046875" xlink:href="#ArialMT-6f"/>
      <use x="266.845703125" xlink:href="#ArialMT-72"/>
      <use x="300.146484375" xlink:href="#ArialMT-74"/>
      <use x="327.9296875" xlink:href="#ArialMT-69"/>
      <use x="350.146484375" xlink:href="#ArialMT-6f"/>
      <use x="405.76171875" xlink:href="#ArialMT-6e"/>
      <use x="461.376953125" xlink:href="#ArialMT-20"/>
      <use x="489.16015625" xlink:href="#ArialMT-6f"/>
      <use x="544.775390625" xlink:href="#ArialMT-66"/>
      <use x="572.55859375" xlink:href="#ArialMT-20"/>
      <use x="600.341796875" xlink:href="#ArialMT-66"/>
      <use x="628.125" xlink:href="#ArialMT-75"/>
      <use x="683.740234375" xlink:href="#ArialMT-6e"/>
      <use x="739.35546875" xlink:href="#ArialMT-63"/>
      <use x="789.35546875" xlink:href="#ArialMT-74"/>
      <use x="817.138671875" xlink:href="#ArialMT-69"/>
      <use x="839.35546875" xlink:href="#ArialMT-6f"/>
      <use x="894.970703125" xlink:href="#ArialMT-6e"/>
      <use x="950.5859375" xlink:href="#ArialMT-2b"/>
      <use x="1008.984375" xlink:href="#ArialMT-74"/>
      <use x="1036.76757812" xlink:href="#ArialMT-61"/>
      <use x="1092.3828125" xlink:href="#ArialMT-72"/>
      <use x="1125.68359375" xlink:href="#ArialMT-67"/>
      <use x="1181.29882812" xlink:href="#ArialMT-65"/>
      <use x="1236.9140625" xlink:href="#ArialMT-74"/>
      <use x="1264.69726562" xlink:href="#ArialMT-20"/>
      <use x="1292.48046875" xlink:href="#ArialMT-70"/>
      <use x="1348.09570312" xlink:href="#ArialMT-61"/>
      <use x="1403.7109375" xlink:href="#ArialMT-69"/>
      <use x="1425.92773438" xlink:href="#ArialMT-72"/>
      <use x="1459.22851562" xlink:href="#ArialMT-73"/>
     </g>
    </g>
   </g>
   <g id="patch_3">
    <path d="
M85.2 12.9235
L531.6 12.9235" style="fill:none;stroke:#000000;"/>
   </g>
   <g id="patch_4">
    <path d="
M531.6 358.524
L531.6 12.9235" style="fill:none;stroke:#000000;"/>
   </g>
   <g id="patch_5">
    <path d="
M85.2 358.524
L531.6 358.524" style="fill:none;stroke:#000000;"/>
   </g>
   <g id="patch_6">
    <path d="
M85.2 358.524
L85.2 12.9235" style="fill:none;stroke:#000000;"/>
   </g>
   <g id="text_18">
    <!-- 5-D -->
    <defs>
     <path d="
M7.71875 0
L7.71875 71.5781
L32.375 71.5781
Q40.7188 71.5781 45.125 70.5625
Q51.2656 69.1406 55.6094 65.4375
Q61.2812 60.6406 64.0781 53.1875
Q66.8906 45.75 66.8906 36.1875
Q66.8906 28.0312 64.9844 21.7344
Q63.0938 15.4375 60.1094 11.2969
Q57.125 7.17188 53.5781 4.79688
Q50.0469 2.4375 45.0469 1.21875
Q40.0469 0 33.5469 0
z

M17.1875 8.45312
L32.4688 8.45312
Q39.5469 8.45312 43.5781 9.76562
Q47.6094 11.0781 50 13.4844
Q53.375 16.8438 55.25 22.5312
Q57.125 28.2188 57.125 36.3281
Q57.125 47.5625 53.4375 53.5938
Q49.75 59.625 44.4844 61.6719
Q40.6719 63.1406 32.2344 63.1406
L17.1875 63.1406
z
" id="ArialMT-44"/>
    </defs>
    <g transform="translate(492.0 355.55770034)scale(0.15 -0.15)">
     <use xlink:href="#ArialMT-35"/>
     <use x="55.615234375" xlink:href="#ArialMT-2d"/>
     <use x="88.916015625" xlink:href="#ArialMT-44"/>
    </g>
   </g>
   <g id="text_19">
    <!-- 3-D -->
    <g transform="translate(492.0 191.312155786)scale(0.15 -0.15)">
     <use xlink:href="#ArialMT-33"/>
     <use x="55.615234375" xlink:href="#ArialMT-2d"/>
     <use x="88.916015625" xlink:href="#ArialMT-44"/>
    </g>
   </g>
   <g id="text_20">
    <!-- 2-D -->
    <g transform="translate(492.0 27.0666112314)scale(0.15 -0.15)">
     <use xlink:href="#ArialMT-32"/>
     <use x="55.615234375" xlink:href="#ArialMT-2d"/>
     <use x="88.916015625" xlink:href="#ArialMT-44"/>
    </g>
   </g>
   <g id="text_21">
    <!-- bbob - f6-f9 -->
    <defs>
     <path d="
M14.7031 0
L6.54688 0
L6.54688 71.5781
L15.3281 71.5781
L15.3281 46.0469
Q20.9062 53.0312 29.5469 53.0312
Q34.3281 53.0312 38.5938 51.0938
Q42.875 49.1719 45.625 45.6719
Q48.3906 42.1875 49.9531 37.25
Q51.5156 32.3281 51.5156 26.7031
Q51.5156 13.375 44.9219 6.09375
Q38.3281 -1.17188 29.1094 -1.17188
Q19.9219 -1.17188 14.7031 6.5
z

M14.5938 26.3125
Q14.5938 17 17.1406 12.8438
Q21.2969 6.0625 28.375 6.0625
Q34.125 6.0625 38.3281 11.0625
Q42.5312 16.0625 42.5312 25.9844
Q42.5312 36.1406 38.5 40.9688
Q34.4688 45.7969 28.7656 45.7969
Q23 45.7969 18.7969 40.7969
Q14.5938 35.7969 14.5938 26.3125" id="ArialMT-62"/>
     <path d="
M5.46875 16.5469
L13.9219 17.3281
Q14.9844 11.375 18.0156 8.6875
Q21.0469 6 25.7812 6
Q29.8281 6 32.875 7.85938
Q35.9375 9.71875 37.8906 12.8125
Q39.8438 15.9219 41.1562 21.1875
Q42.4844 26.4688 42.4844 31.9375
Q42.4844 32.5156 42.4375 33.6875
Q39.7969 29.5 35.2344 26.875
Q30.6719 24.2656 25.3438 24.2656
Q16.4531 24.2656 10.2969 30.7031
Q4.15625 37.1562 4.15625 47.7031
Q4.15625 58.5938 10.5781 65.2344
Q17 71.875 26.6562 71.875
Q33.6406 71.875 39.4219 68.1094
Q45.2188 64.3594 48.2188 57.3906
Q51.2188 50.4375 51.2188 37.25
Q51.2188 23.5312 48.2344 15.4062
Q45.2656 7.28125 39.375 3.03125
Q33.5 -1.21875 25.5938 -1.21875
Q17.1875 -1.21875 11.8594 3.4375
Q6.54688 8.10938 5.46875 16.5469
M41.4531 48.1406
Q41.4531 55.7188 37.4219 60.1562
Q33.4062 64.5938 27.7344 64.5938
Q21.875 64.5938 17.5312 59.8125
Q13.1875 55.0312 13.1875 47.4062
Q13.1875 40.5781 17.3125 36.2969
Q21.4375 32.0312 27.4844 32.0312
Q33.5938 32.0312 37.5156 36.2969
Q41.4531 40.5781 41.4531 48.1406" id="ArialMT-39"/>
    </defs>
    <g transform="translate(89.664 31.7604459468)scale(0.1666 -0.1666)">
     <use xlink:href="#ArialMT-62"/>
     <use x="55.615234375" xlink:href="#ArialMT-62"/>
     <use x="111.23046875" xlink:href="#ArialMT-6f"/>
     <use x="166.845703125" xlink:href="#ArialMT-62"/>
     <use x="222.4609375" xlink:href="#ArialMT-20"/>
     <use x="250.244140625" xlink:href="#ArialMT-2d"/>
     <use x="283.544921875" xlink:href="#ArialMT-20"/>
     <use x="311.328125" xlink:href="#ArialMT-66"/>
     <use x="339.111328125" xlink:href="#ArialMT-36"/>
     <use x="394.7265625" xlink:href="#ArialMT-2d"/>
     <use x="428.02734375" xlink:href="#ArialMT-66"/>
     <use x="455.810546875" xlink:href="#ArialMT-39"/>
    </g>
    <!-- 51 targets in 100..1e-08 -->
    <g transform="translate(89.664 49.4408709468)scale(0.1666 -0.1666)">
     <use xlink:href="#ArialMT-35"/>
     <use x="55.615234375" xlink:href="#ArialMT-31"/>
     <use x="111.23046875" xlink:href="#ArialMT-20"/>
     <use x="139.013671875" xlink:href="#ArialMT-74"/>
     <use x="166.796875" xlink:href="#ArialMT-61"/>
     <use x="222.412109375" xlink:href="#ArialMT-72"/>
     <use x="255.712890625" xlink:href="#ArialMT-67"/>
     <use x="311.328125" xlink:href="#ArialMT-65"/>
     <use x="366.943359375" xlink:href="#ArialMT-74"/>
     <use x="394.7265625" xlink:href="#ArialMT-73"/>
     <use x="444.7265625" xlink:href="#ArialMT-20"/>
     <use x="472.509765625" xlink:href="#ArialMT-69"/>
     <use x="494.7265625" xlink:href="#ArialMT-6e"/>
     <use x="550.341796875" xlink:href="#ArialMT-20"/>
     <use x="578.125" xlink:href="#ArialMT-31"/>
     <use x="633.740234375" xlink:href="#ArialMT-30"/>
     <use x="689.35546875" xlink:href="#ArialMT-30"/>
     <use x="744.970703125" xlink:href="#ArialMT-2e"/>
     <use x="772.75390625" xlink:href="#ArialMT-2e"/>
     <use x="800.537109375" xlink:href="#ArialMT-31"/>
     <use x="856.15234375" xlink:href="#ArialMT-65"/>
     <use x="911.767578125" xlink:href="#ArialMT-2d"/>
     <use x="945.068359375" xlink:href="#ArialMT-30"/>
     <use x="1000.68359375" xlink:href="#ArialMT-38"/>
    </g>
    <!-- 15 instances -->
    <g transform="translate(89.664 67.2571790718)scale(0.1666 -0.1666)">
     <use xlink:href="#ArialMT-31"/>
     <use x="55.615234375" xlink:href="#ArialMT-35"/>
     <use x="111.23046875" xlink:href="#ArialMT-20"/>
     <use x="139.013671875" xlink:href="#ArialMT-69"/>
     <use x="161.23046875" xlink:href="#ArialMT-6e"/>
     <use x="216.845703125" xlink:href="#ArialMT-73"/>
     <use x="266.845703125" xlink:href="#ArialMT-74"/>
     <use x="294.62890625" xlink:href="#ArialMT-61"/>
     <use x="350.244140625" xlink:href="#ArialMT-6e"/>
     <use x="405.859375" xlink:href="#ArialMT-63"/>
     <use x="455.859375" xlink:href="#ArialMT-65"/>
     <use x="511.474609375" xlink:href="#ArialMT-73"/>
    </g>
   </g>
   <g id="text_22">
    <!-- 1.2.1.2 -->
    <g style="fill:#808080;" transform="translate(293.91875 353.080030322)scale(0.1 -0.1)">
     <use xlink:href="#ArialMT-31"/>
     <use x="55.615234375" xlink:href="#ArialMT-2e"/>
     <use x="83.3984375" xlink:href="#ArialMT-32"/>
     <use x="139.013671875" xlink:href="#ArialMT-2e"/>
     <use x="166.796875" xlink:href="#ArialMT-31"/>
     <use x="222.412109375" xlink:href="#ArialMT-2e"/>
     <use x="250.1953125" xlink:href="#ArialMT-32"/>
    </g>
   </g>
  </g>
 </g>
 <defs>
  <clipPath id="p0cd469f449">
   <rect height="345.6" width="446.4" x="85.2" y="12.9235303218"/>
  </clipPath>
 </defs>
</svg>
