<?xml version="1.0" encoding="utf-8" standalone="no"?>
<!DOCTYPE svg PUBLIC "-//W3C//DTD SVG 1.1//EN"
  "http://www.w3.org/Graphics/SVG/1.1/DTD/svg11.dtd">
<!-- Created with matplotlib (http://matplotlib.org/) -->
<svg height="407pt" version="1.1" viewBox="0 0 460 407" width="460pt" xmlns="http://www.w3.org/2000/svg" xmlns:xlink="http://www.w3.org/1999/xlink">
 <defs>
  <style type="text/css">
*{stroke-linecap:butt;stroke-linejoin:round;}
  </style>
 </defs>
 <g id="figure_1">
  <g id="patch_1">
   <path d="
M0 407.712
L460.8 407.712
L460.8 0
L0 0
z
" style="fill:#ffffff;"/>
  </g>
  <g id="axes_1">
   <g id="patch_2">
    <path d="
M7.2 352.8
L453.6 352.8
L453.6 7.2
L7.2 7.2
z
" style="fill:#ffffff;"/>
   </g>
   <g id="line2d_1">
    <path clip-path="url(#p99b4b0da67)" d="
M-1 348.238
L17.8792 348.238
L17.8792 343.675
L20.1731 343.675
L20.1731 339.113
L22.299 339.113
L22.299 334.55
L106.589 334.55
L106.589 329.988
L139.229 329.988
L139.229 325.426
L144.27 325.426
L144.27 320.863
L146.305 320.863
L146.305 316.301
L153.09 316.301
L153.09 311.739
L170.864 311.739
L170.864 307.176
L175.188 307.176
L175.188 302.614
L175.557 302.614
L175.557 298.051
L176.072 298.051
L176.072 293.489
L177.206 293.489
L177.206 288.927
L177.998 288.927
L177.998 284.364
L185.883 284.364
L185.883 279.802
L186.508 279.802
L186.508 275.24
L188.209 275.24
L188.209 270.677
L191.261 270.677
L191.317 261.552
L193.196 261.552
L193.196 256.99
L193.415 256.99
L193.415 252.428
L194.31 252.428
L194.31 247.865
L195.023 247.865
L195.023 243.303
L198.438 243.303
L198.438 238.741
L198.716 238.741
L198.716 234.178
L200.014 234.178
L200.014 229.616
L200.215 229.616
L200.215 225.053
L201.414 225.053
L201.42 179.43
L207.752 179.43
L207.752 174.867
L208.316 174.867
L208.316 170.305
L211.926 170.305
L211.926 165.743
L214.552 165.743
L214.609 152.055
L217.025 152.055
L217.025 147.493
L217.153 147.493
L217.153 138.368
L219.359 138.368
L219.359 133.806
L220.106 133.806
L220.106 129.244
L221.296 129.244
L221.296 124.681
L222.308 124.681
L222.308 120.119
L224.185 120.119
L224.185 115.556
L224.308 115.556
L224.308 110.994
L224.599 110.994
L224.599 106.432
L224.738 106.432
L224.738 101.869
L224.956 101.869
L225.06 92.7446
L226.514 92.7446
L226.514 88.1822
L227.208 88.1822
L227.208 83.6198
L227.331 83.6198
L227.407 74.495
L227.812 74.495
L227.812 69.9327
L229.153 69.9327
L229.153 65.3703
L229.685 65.3703
L229.685 56.2455
L231.601 56.2455
L231.601 51.6832
L235.427 51.6832
L235.427 47.1208
L243.198 47.1208
L243.198 42.5584
L249.426 42.5584
L249.426 37.996
L252.68 37.996
L252.68 33.4337
L253.755 33.4337
L253.755 28.8713
L257.571 28.8713
L257.571 24.3089
L260.772 24.3089
L260.772 19.7465
L263.037 19.7465
L263.037 15.1842
L264.958 15.1842
L264.958 10.6218
L264.958 10.6218
L453.6 10.6218
L453.6 10.6218" style="fill:none;stroke:#ff0000;stroke-linecap:square;stroke-width:3.0;"/>
   </g>
   <g id="line2d_2">
    <path clip-path="url(#p99b4b0da67)" d="
M201.414 352.8
L201.414 348.238
L201.414 348.238
L201.414 348.238
L201.414 343.675
L201.414 343.675
L201.414 343.675
L201.414 339.113
L201.414 339.113
L201.414 339.113
L201.414 334.55
L201.414 334.55
L201.414 334.55
L201.414 329.988
L201.414 329.988
L201.414 329.988
L201.414 325.426
L201.414 325.426
L201.414 325.426
L201.414 320.863
L201.414 320.863
L201.414 320.863
L201.414 316.301
L201.414 316.301
L201.414 316.301
L201.414 311.739
L201.414 311.739
L201.414 311.739
L201.414 307.176
L201.414 307.176
L201.414 307.176
L201.414 302.614
L201.414 302.614
L201.414 302.614
L201.414 298.051
L201.414 298.051
L201.414 298.051
L201.414 293.489
L201.414 293.489
L201.414 293.489
L201.414 288.927
L201.414 288.927
L201.414 288.927
L201.414 284.364
L238.977 284.364
L238.977 279.802
L240.276 279.802
L240.276 275.24
L242.673 275.24
L242.673 270.677
L243.198 270.677
L243.198 266.115
L244.237 266.115
L244.237 261.552
L247.148 261.552
L247.148 256.99
L249.155 256.99
L249.155 252.428
L249.426 252.428
L249.522 238.741
L251.666 238.741
L251.666 234.178
L252.652 234.178
L252.68 225.053
L253.285 225.053
L253.285 220.491
L256.002 220.491
L256.002 215.929
L256.634 215.929
L256.652 206.804
L257.499 206.804
L257.571 197.679
L261.062 197.679
L261.072 188.554
L261.93 188.554
L261.93 183.992
L262.563 183.992
L262.563 179.43
L262.736 179.43
L262.736 174.867
L263.325 174.867
L263.325 170.305
L263.456 170.305
L263.456 165.743
L264.325 165.743
L264.325 161.18
L264.487 161.18
L264.487 156.618
L265.078 156.618
L265.078 152.055
L265.507 152.055
L265.507 147.493
L265.75 147.493
L265.75 142.931
L266.05 142.931
L266.146 133.806
L266.236 133.806
L266.236 129.244
L266.475 129.244
L266.585 120.119
L266.759 120.119
L266.759 115.556
L268.006 115.556
L268.006 110.994
L268.154 110.994
L268.154 106.432
L268.494 106.432
L268.494 101.869
L269.12 101.869
L269.12 97.3069
L269.25 97.3069
L269.25 92.7446
L270.409 92.7446
L270.409 88.1822
L270.648 88.1822
L270.648 83.6198
L271.515 83.6198
L271.515 79.0574
L272.762 79.0574
L272.762 74.495
L273.031 74.495
L273.031 69.9327
L273.753 69.9327
L273.857 60.8079
L274.451 60.8079
L274.557 51.6832
L274.868 51.6832
L274.889 42.5584
L275.697 42.5584
L275.697 37.996
L275.858 37.996
L275.874 28.8713
L278.61 28.8713
L278.61 24.3089
L279.203 24.3089
L279.203 19.7465
L280.16 19.7465
L280.16 15.1842
L285.069 15.1842
L285.069 10.6218
L285.069 10.6218
L453.6 10.6218
L453.6 10.6218" style="fill:none;stroke:#00bfbf;stroke-linecap:square;"/>
   </g>
   <g id="line2d_3">
    <path clip-path="url(#p99b4b0da67)" d="
M201.414 352.8
L201.414 348.238
L201.414 348.238
L201.414 348.238
L201.414 343.675
L201.414 343.675
L201.414 343.675
L201.414 339.113
L201.414 339.113
L201.414 339.113
L201.414 334.55
L201.414 334.55
L201.414 334.55
L201.414 329.988
L201.414 329.988
L201.414 329.988
L201.414 325.426
L201.414 325.426
L201.414 325.426
L201.414 320.863
L201.414 320.863
L201.414 320.863
L201.414 316.301
L201.414 316.301
L201.414 316.301
L201.414 311.739
L201.414 311.739
L201.414 311.739
L201.414 307.176
L201.414 307.176
L201.414 307.176
L201.414 302.614
L201.414 302.614
L201.414 302.614
L201.414 298.051
L201.414 298.051
L201.414 298.051
L201.414 293.489
L201.414 293.489
L201.414 293.489
L201.414 288.927
L201.414 288.927
L201.414 288.927
L201.414 284.364
L238.977 284.364
L238.977 279.802
L240.276 279.802
L240.276 275.24
L242.048 275.24
L242.048 270.677
L243.198 270.677
L243.198 266.115
L244.237 266.115
L244.237 261.552
L247.148 261.552
L247.148 256.99
L249.155 256.99
L249.155 252.428
L249.295 252.428
L249.295 247.865
L249.426 247.865
L249.454 238.741
L251.42 238.741
L251.42 234.178
L251.666 234.178
L251.666 229.616
L252.68 229.616
L252.68 225.053
L253.285 225.053
L253.285 220.491
L256.002 220.491
L256.002 215.929
L256.153 215.929
L256.153 211.366
L256.634 211.366
L256.634 206.804
L257.499 206.804
L257.571 197.679
L260.573 197.679
L260.573 193.117
L261.062 193.117
L261.062 188.554
L261.597 188.554
L261.597 183.992
L261.723 183.992
L261.723 179.43
L262.563 179.43
L262.563 174.867
L262.736 174.867
L262.736 170.305
L263.456 170.305
L263.456 165.743
L263.848 165.743
L263.848 161.18
L264.325 161.18
L264.325 156.618
L264.487 156.618
L264.549 147.493
L265.507 147.493
L265.507 142.931
L265.685 142.931
L265.713 133.806
L265.811 133.806
L265.811 129.244
L266.146 129.244
L266.146 124.681
L266.475 124.681
L266.585 110.994
L266.759 110.994
L266.759 106.432
L267.087 106.432
L267.087 101.869
L268.154 101.869
L268.154 97.3069
L269.12 97.3069
L269.12 92.7446
L270.409 92.7446
L270.409 88.1822
L270.648 88.1822
L270.648 83.6198
L271.346 83.6198
L271.346 79.0574
L272.392 79.0574
L272.392 74.495
L273.031 74.495
L273.031 69.9327
L273.753 69.9327
L273.857 60.8079
L274.451 60.8079
L274.557 47.1208
L274.889 47.1208
L274.889 42.5584
L275.632 42.5584
L275.632 37.996
L275.858 37.996
L275.874 28.8713
L278.61 28.8713
L278.61 24.3089
L279.203 24.3089
L279.203 19.7465
L280.069 19.7465
L280.069 15.1842
L285.069 15.1842
L285.069 10.6218
L285.069 10.6218
L453.6 10.6218
L453.6 10.6218" style="fill:none;stroke:#bf00bf;stroke-linecap:square;"/>
   </g>
   <g id="line2d_4">
    <path clip-path="url(#p99b4b0da67)" d="
M201.414 352.8
L201.414 348.238
L201.414 348.238
L201.414 348.238
L201.414 343.675
L201.414 343.675
L201.414 343.675
L201.414 339.113
L201.414 339.113
L201.414 339.113
L201.414 334.55
L201.414 334.55
L201.414 334.55
L201.414 329.988
L201.414 329.988
L201.414 329.988
L201.414 325.426
L201.414 325.426
L201.414 325.426
L201.414 320.863
L201.414 320.863
L201.414 320.863
L201.414 316.301
L201.414 316.301
L201.414 316.301
L201.414 311.739
L201.414 311.739
L201.414 311.739
L201.414 307.176
L201.414 307.176
L201.414 307.176
L201.414 302.614
L201.414 302.614
L201.414 302.614
L201.414 298.051
L201.414 298.051
L201.414 298.051
L201.414 293.489
L201.414 293.489
L201.414 293.489
L201.414 288.927
L201.414 288.927
L201.414 288.927
L201.414 284.364
L238.977 284.364
L238.977 279.802
L240.276 279.802
L240.276 275.24
L241.251 275.24
L241.251 270.677
L243.198 270.677
L243.198 266.115
L244.237 266.115
L244.237 261.552
L246.582 261.552
L246.582 256.99
L248.811 256.99
L248.811 252.428
L249.155 252.428
L249.155 247.865
L249.426 247.865
L249.454 238.741
L250.023 238.741
L250.023 234.178
L251.666 234.178
L251.666 229.616
L252.68 229.616
L252.68 225.053
L253.285 225.053
L253.285 220.491
L255.347 220.491
L255.347 215.929
L256.002 215.929
L256.002 211.366
L256.634 211.366
L256.634 206.804
L257.499 206.804
L257.571 197.679
L260.051 197.679
L260.051 193.117
L261.062 193.117
L261.13 183.992
L261.723 183.992
L261.723 179.43
L262.563 179.43
L262.563 174.867
L262.736 174.867
L262.736 170.305
L263.456 170.305
L263.456 165.743
L263.848 165.743
L263.848 161.18
L263.984 161.18
L263.984 156.618
L264.325 156.618
L264.325 152.055
L264.487 152.055
L264.487 147.493
L265.507 147.493
L265.55 138.368
L265.713 138.368
L265.798 129.244
L266.146 129.244
L266.146 124.681
L266.475 124.681
L266.583 110.994
L266.759 110.994
L266.759 106.432
L267.087 106.432
L267.087 101.869
L268.154 101.869
L268.154 97.3069
L269.12 97.3069
L269.12 92.7446
L270.409 92.7446
L270.409 88.1822
L270.648 88.1822
L270.648 83.6198
L271.31 83.6198
L271.31 79.0574
L272.23 79.0574
L272.23 74.495
L273.031 74.495
L273.031 69.9327
L273.753 69.9327
L273.857 60.8079
L274.451 60.8079
L274.557 47.1208
L274.889 47.1208
L274.889 42.5584
L275.453 42.5584
L275.453 37.996
L275.858 37.996
L275.874 28.8713
L278.61 28.8713
L278.61 24.3089
L279.203 24.3089
L279.203 19.7465
L279.996 19.7465
L279.996 15.1842
L285.069 15.1842
L285.069 10.6218
L285.069 10.6218
L453.6 10.6218
L453.6 10.6218" style="fill:none;stroke:#000000;stroke-linecap:square;"/>
   </g>
   <g id="line2d_5">
    <path clip-path="url(#p99b4b0da67)" d="
M201.414 352.8
L201.414 348.238
L201.414 348.238
L201.414 348.238
L201.414 343.675
L201.414 343.675
L201.414 343.675
L201.414 339.113
L201.414 339.113
L201.414 339.113
L201.414 334.55
L201.414 334.55
L201.414 334.55
L201.414 329.988
L201.414 329.988
L201.414 329.988
L201.414 325.426
L201.414 325.426
L201.414 325.426
L201.414 320.863
L201.414 320.863
L201.414 320.863
L201.414 316.301
L201.414 316.301
L201.414 316.301
L201.414 311.739
L201.414 311.739
L201.414 311.739
L201.414 307.176
L201.414 307.176
L201.414 307.176
L201.414 302.614
L201.414 302.614
L201.414 302.614
L201.414 298.051
L201.414 298.051
L201.414 298.051
L201.414 293.489
L201.414 293.489
L201.414 293.489
L201.414 288.927
L201.414 288.927
L201.414 288.927
L201.414 284.364
L238.977 284.364
L238.977 279.802
L240.276 279.802
L240.276 275.24
L241.212 275.24
L241.212 270.677
L243.198 270.677
L243.198 266.115
L244.11 266.115
L244.11 261.552
L244.237 261.552
L244.237 256.99
L246.319 256.99
L246.319 252.428
L248.483 252.428
L248.483 247.865
L249.155 247.865
L249.155 243.303
L249.426 243.303
L249.454 234.178
L251.666 234.178
L251.666 229.616
L252.68 229.616
L252.68 225.053
L253.285 225.053
L253.309 215.929
L256.002 215.929
L256.002 211.366
L256.634 211.366
L256.634 206.804
L257.499 206.804
L257.571 197.679
L259.257 197.679
L259.257 193.117
L259.603 193.117
L259.603 188.554
L259.728 188.554
L259.728 183.992
L261.062 183.992
L261.062 179.43
L262.563 179.43
L262.563 174.867
L262.736 174.867
L262.736 170.305
L263.094 170.305
L263.094 165.743
L263.456 165.743
L263.528 156.618
L264.211 156.618
L264.211 152.055
L264.325 152.055
L264.325 147.493
L264.487 147.493
L264.493 138.368
L264.785 138.368
L264.785 133.806
L264.911 133.806
L264.911 129.244
L265.223 129.244
L265.316 120.119
L265.456 120.119
L265.56 110.994
L265.778 110.994
L265.778 106.432
L266.265 106.432
L266.265 101.869
L266.759 101.869
L266.759 97.3069
L268.154 97.3069
L268.154 92.7446
L268.823 92.7446
L268.823 88.1822
L270.369 88.1822
L270.409 79.0574
L270.648 79.0574
L270.648 74.495
L273.031 74.495
L273.031 69.9327
L273.633 69.9327
L273.633 65.3703
L273.753 65.3703
L273.857 56.2455
L274.451 56.2455
L274.557 47.1208
L274.862 47.1208
L274.889 37.996
L275.858 37.996
L275.874 28.8713
L278.61 28.8713
L278.61 24.3089
L279.203 24.3089
L279.203 19.7465
L279.892 19.7465
L279.892 15.1842
L285.069 15.1842
L285.069 10.6218
L285.069 10.6218
L453.6 10.6218
L453.6 10.6218" style="fill:none;stroke:#00bfbf;stroke-linecap:square;"/>
   </g>
   <g id="line2d_6">
    <path clip-path="url(#p99b4b0da67)" d="
M201.414 352.8
L201.414 348.238
L201.414 348.238
L201.414 348.238
L201.414 343.675
L201.414 343.675
L201.414 343.675
L201.414 339.113
L201.414 339.113
L201.414 339.113
L201.414 334.55
L201.414 334.55
L201.414 334.55
L201.414 329.988
L201.414 329.988
L201.414 329.988
L201.414 325.426
L201.414 325.426
L201.414 325.426
L201.414 320.863
L201.414 320.863
L201.414 320.863
L201.414 316.301
L201.414 316.301
L201.414 316.301
L201.414 311.739
L201.414 311.739
L201.414 311.739
L201.414 307.176
L201.414 307.176
L201.414 307.176
L201.414 302.614
L201.414 302.614
L201.414 302.614
L201.414 298.051
L201.414 298.051
L201.414 298.051
L201.414 293.489
L201.414 293.489
L201.414 293.489
L201.414 288.927
L201.414 288.927
L201.414 288.927
L201.414 284.364
L219.234 284.364
L219.234 279.802
L221.611 279.802
L221.611 275.24
L224.814 275.24
L224.814 270.677
L228.559 270.677
L228.559 266.115
L230.598 266.115
L230.598 261.552
L232.319 261.552
L232.319 256.99
L236.255 256.99
L236.255 252.428
L236.659 252.428
L236.701 243.303
L238.977 243.303
L238.977 238.741
L240.727 238.741
L240.727 234.178
L241.953 234.178
L241.953 229.616
L242.187 229.616
L242.246 220.491
L243.198 220.491
L243.198 215.929
L244.237 215.929
L244.237 211.366
L244.441 211.366
L244.441 206.804
L248.946 206.804
L248.946 202.242
L249.143 202.242
L249.143 197.679
L249.426 197.679
L249.454 188.554
L249.763 188.554
L249.763 183.992
L250.172 183.992
L250.172 179.43
L250.659 179.43
L250.659 174.867
L251.519 174.867
L251.519 170.305
L251.666 170.305
L251.666 165.743
L251.964 165.743
L251.964 161.18
L252.68 161.18
L252.68 156.618
L254.23 156.618
L254.23 152.055
L254.457 152.055
L254.457 147.493
L254.846 147.493
L254.846 142.931
L255.768 142.931
L255.768 138.368
L257.018 138.368
L257.018 133.806
L257.22 133.806
L257.22 129.244
L257.47 129.244
L257.571 120.119
L257.782 120.119
L257.782 115.556
L258.133 115.556
L258.133 110.994
L258.599 110.994
L258.599 106.432
L259.398 106.432
L259.434 97.3069
L259.641 97.3069
L259.641 92.7446
L260.284 92.7446
L260.284 88.1822
L260.462 88.1822
L260.462 83.6198
L261.432 83.6198
L261.432 79.0574
L261.645 79.0574
L261.645 74.495
L261.98 74.495
L261.98 69.9327
L263.456 69.9327
L263.556 60.8079
L264.325 60.8079
L264.325 56.2455
L265.007 56.2455
L265.007 51.6832
L265.177 51.6832
L265.177 47.1208
L265.679 47.1208
L265.679 42.5584
L266.809 42.5584
L266.809 37.996
L268.347 37.996
L268.347 33.4337
L269.682 33.4337
L269.682 28.8713
L272.691 28.8713
L272.691 24.3089
L273.031 24.3089
L273.031 19.7465
L275.858 19.7465
L275.858 15.1842
L278.621 15.1842
L278.621 10.6218
L278.621 10.6218
L453.6 10.6218
L453.6 10.6218" style="fill:none;stroke:#bf00bf;stroke-linecap:square;"/>
   </g>
   <g id="line2d_7">
    <path clip-path="url(#p99b4b0da67)" d="
M136.853 352.8
L136.853 348.238
L159.212 348.238
L159.212 343.675
L165.491 343.675
L165.491 339.113
L186.155 339.113
L186.155 334.55
L191.093 334.55
L191.093 329.988
L197.378 329.988
L197.378 325.426
L200.263 325.426
L200.263 320.863
L201.414 320.863
L201.414 252.428
L203.577 252.428
L203.614 243.303
L208.256 243.303
L208.319 234.178
L214.678 234.178
L214.678 229.616
L217.517 229.616
L217.517 225.053
L219.365 225.053
L219.365 220.491
L223.377 220.491
L223.377 215.929
L223.931 215.929
L223.931 211.366
L224.221 211.366
L224.221 206.804
L225.06 206.804
L225.139 197.679
L227.569 197.679
L227.569 193.117
L229.674 193.117
L229.685 183.992
L230.598 183.992
L230.598 179.43
L231.743 179.43
L231.743 174.867
L233.774 174.867
L233.774 170.305
L236.367 170.305
L236.367 165.743
L236.685 165.743
L236.685 161.18
L236.982 161.18
L236.982 156.618
L237.214 156.618
L237.214 152.055
L238.714 152.055
L238.714 147.493
L238.977 147.493
L239.024 138.368
L239.241 138.368
L239.241 133.806
L239.502 133.806
L239.502 129.244
L240.36 129.244
L240.36 124.681
L240.583 124.681
L240.583 120.119
L240.835 120.119
L240.835 115.556
L241.632 115.556
L241.632 110.994
L243.198 110.994
L243.198 106.432
L243.381 106.432
L243.381 101.869
L244.237 101.869
L244.237 97.3069
L246.777 97.3069
L246.777 92.7446
L248.78 92.7446
L248.78 88.1822
L249.426 88.1822
L249.426 83.6198
L251.666 83.6198
L251.701 74.495
L252.68 74.495
L252.68 69.9327
L253.755 69.9327
L253.755 65.3703
L255.419 65.3703
L255.419 60.8079
L257.571 60.8079
L257.571 56.2455
L258.542 56.2455
L258.542 51.6832
L260.772 51.6832
L260.772 47.1208
L261.556 47.1208
L261.556 42.5584
L263.042 42.5584
L263.042 37.996
L263.303 37.996
L263.303 33.4337
L263.47 33.4337
L263.47 28.8713
L264.966 28.8713
L264.966 24.3089
L267.497 24.3089
L267.497 19.7465
L275.858 19.7465
L275.858 15.1842
L278.521 15.1842
L278.521 10.6218
L278.521 10.6218
L453.6 10.6218
L453.6 10.6218" style="fill:none;stroke:#000000;stroke-linecap:square;"/>
   </g>
   <g id="line2d_8">
    <path clip-path="url(#p99b4b0da67)" d="
M-1 348.238
L17.8792 348.238
L17.8792 343.675
L120.057 343.675
L120.057 339.113
L146.305 339.113
L146.305 334.55
L167.624 334.55
L167.624 329.988
L170.864 329.988
L170.864 325.426
L176.072 325.426
L176.072 320.863
L177.408 320.863
L177.408 316.301
L177.998 316.301
L177.998 311.739
L186.508 311.739
L186.508 307.176
L191.261 307.176
L191.261 302.614
L193.197 302.614
L193.197 298.051
L198.716 298.051
L198.716 293.489
L200.205 293.489
L200.205 288.927
L201.414 288.927
L201.42 220.491
L203.523 220.491
L203.523 215.929
L206.431 215.929
L206.431 211.366
L208.165 211.366
L208.165 206.804
L208.316 206.804
L208.316 202.242
L209.526 202.242
L209.526 197.679
L211.926 197.679
L211.926 193.117
L214.552 193.117
L214.609 183.992
L217.025 183.992
L217.025 179.43
L217.153 179.43
L217.153 170.305
L219.359 170.305
L219.359 165.743
L223.063 165.743
L223.063 161.18
L223.335 161.18
L223.335 156.618
L223.909 156.618
L223.909 152.055
L224.738 152.055
L224.738 147.493
L225.06 147.493
L225.135 129.244
L227.331 129.244
L227.331 124.681
L228.264 124.681
L228.264 120.119
L228.766 120.119
L228.766 115.556
L228.987 115.556
L228.987 110.994
L229.153 110.994
L229.153 106.432
L229.756 106.432
L229.756 101.869
L230.721 101.869
L230.721 97.3069
L233.398 97.3069
L233.398 88.1822
L234.222 88.1822
L234.222 83.6198
L235.052 83.6198
L235.052 79.0574
L235.431 79.0574
L235.431 74.495
L235.718 74.495
L235.718 69.9327
L236.685 69.9327
L236.685 65.3703
L237.263 65.3703
L237.263 60.8079
L239.249 60.8079
L239.249 56.2455
L243.198 56.2455
L243.198 51.6832
L244.237 51.6832
L244.237 47.1208
L249.426 47.1208
L249.426 42.5584
L251.666 42.5584
L251.666 37.996
L252.68 37.996
L252.68 33.4337
L253.755 33.4337
L253.755 28.8713
L257.571 28.8713
L257.571 24.3089
L260.772 24.3089
L260.772 19.7465
L263.039 19.7465
L263.039 15.1842
L264.958 15.1842
L264.958 10.6218
L264.958 10.6218
L453.6 10.6218
L453.6 10.6218" style="fill:none;stroke:#00bfbf;stroke-linecap:square;"/>
   </g>
   <g id="patch_3">
    <path d="
M7.2 7.2
L453.6 7.2" style="fill:none;stroke:#000000;stroke-linecap:square;stroke-linejoin:miter;"/>
   </g>
   <g id="patch_4">
    <path d="
M453.6 352.8
L453.6 7.2" style="fill:none;stroke:#000000;stroke-linecap:square;stroke-linejoin:miter;"/>
   </g>
   <g id="patch_5">
    <path d="
M7.2 352.8
L453.6 352.8" style="fill:none;stroke:#000000;stroke-linecap:square;stroke-linejoin:miter;"/>
   </g>
   <g id="patch_6">
    <path d="
M7.2 352.8
L7.2 7.2" style="fill:none;stroke:#000000;stroke-linecap:square;stroke-linejoin:miter;"/>
   </g>
   <g id="matplotlib.axis_1">
    <g id="xtick_1"/>
    <g id="xtick_2">
     <g id="line2d_9">
      <path clip-path="url(#p99b4b0da67)" d="
M59.6175 352.8
L59.6175 7.2" style="fill:none;stroke:#000000;stroke-dasharray:1.000000,3.000000;stroke-dashoffset:0.0;stroke-width:0.5;"/>
     </g>
     <g id="line2d_10">
      <defs>
       <path d="
M0 0
L0 -4" id="m93b0483c22" style="stroke:#000000;stroke-width:0.5;"/>
      </defs>
      <g>
       <use style="stroke:#000000;stroke-width:0.5;" x="59.6174973142" xlink:href="#m93b0483c22" y="352.8"/>
      </g>
     </g>
     <g id="line2d_11">
      <defs>
       <path d="
M0 0
L0 4" id="m741efc42ff" style="stroke:#000000;stroke-width:0.5;"/>
      </defs>
      <g>
       <use style="stroke:#000000;stroke-width:0.5;" x="59.6174973142" xlink:href="#m741efc42ff" y="7.2"/>
      </g>
     </g>
     <g id="text_1">
      <!-- -6 -->
      <defs>
       <path d="
M33.0156 40.375
Q26.375 40.375 22.4844 35.8281
Q18.6094 31.2969 18.6094 23.3906
Q18.6094 15.5312 22.4844 10.9531
Q26.375 6.39062 33.0156 6.39062
Q39.6562 6.39062 43.5312 10.9531
Q47.4062 15.5312 47.4062 23.3906
Q47.4062 31.2969 43.5312 35.8281
Q39.6562 40.375 33.0156 40.375
M52.5938 71.2969
L52.5938 62.3125
Q48.875 64.0625 45.0938 64.9844
Q41.3125 65.9219 37.5938 65.9219
Q27.8281 65.9219 22.6719 59.3281
Q17.5312 52.7344 16.7969 39.4062
Q19.6719 43.6562 24.0156 45.9219
Q28.375 48.1875 33.5938 48.1875
Q44.5781 48.1875 50.9531 41.5156
Q57.3281 34.8594 57.3281 23.3906
Q57.3281 12.1562 50.6875 5.35938
Q44.0469 -1.42188 33.0156 -1.42188
Q20.3594 -1.42188 13.6719 8.26562
Q6.98438 17.9688 6.98438 36.375
Q6.98438 53.6562 15.1875 63.9375
Q23.3906 74.2188 37.2031 74.2188
Q40.9219 74.2188 44.7031 73.4844
Q48.4844 72.75 52.5938 71.2969" id="BitstreamVeraSans-Roman-36"/>
       <path d="
M4.89062 31.3906
L31.2031 31.3906
L31.2031 23.3906
L4.89062 23.3906
z
" id="BitstreamVeraSans-Roman-2d"/>
      </defs>
      <g transform="translate(50.7659348142 371.996875)scale(0.2 -0.2)">
       <use xlink:href="#BitstreamVeraSans-Roman-2d"/>
       <use x="36.083984375" xlink:href="#BitstreamVeraSans-Roman-36"/>
      </g>
     </g>
    </g>
    <g id="xtick_3">
     <g id="line2d_12">
      <path clip-path="url(#p99b4b0da67)" d="
M112.148 352.8
L112.148 7.2" style="fill:none;stroke:#000000;stroke-dasharray:1.000000,3.000000;stroke-dashoffset:0.0;stroke-width:0.5;"/>
     </g>
     <g id="line2d_13">
      <g>
       <use style="stroke:#000000;stroke-width:0.5;" x="112.148497672" xlink:href="#m93b0483c22" y="352.8"/>
      </g>
     </g>
     <g id="line2d_14">
      <g>
       <use style="stroke:#000000;stroke-width:0.5;" x="112.148497672" xlink:href="#m741efc42ff" y="7.2"/>
      </g>
     </g>
     <g id="text_2">
      <!-- -4 -->
      <defs>
       <path d="
M37.7969 64.3125
L12.8906 25.3906
L37.7969 25.3906
z

M35.2031 72.9062
L47.6094 72.9062
L47.6094 25.3906
L58.0156 25.3906
L58.0156 17.1875
L47.6094 17.1875
L47.6094 0
L37.7969 0
L37.7969 17.1875
L4.89062 17.1875
L4.89062 26.7031
z
" id="BitstreamVeraSans-Roman-34"/>
      </defs>
      <g transform="translate(103.228185172 371.996875)scale(0.2 -0.2)">
       <use xlink:href="#BitstreamVeraSans-Roman-2d"/>
       <use x="36.083984375" xlink:href="#BitstreamVeraSans-Roman-34"/>
      </g>
     </g>
    </g>
    <g id="xtick_4">
     <g id="line2d_15">
      <path clip-path="url(#p99b4b0da67)" d="
M164.679 352.8
L164.679 7.2" style="fill:none;stroke:#000000;stroke-dasharray:1.000000,3.000000;stroke-dashoffset:0.0;stroke-width:0.5;"/>
     </g>
     <g id="line2d_16">
      <g>
       <use style="stroke:#000000;stroke-width:0.5;" x="164.67949803" xlink:href="#m93b0483c22" y="352.8"/>
      </g>
     </g>
     <g id="line2d_17">
      <g>
       <use style="stroke:#000000;stroke-width:0.5;" x="164.67949803" xlink:href="#m741efc42ff" y="7.2"/>
      </g>
     </g>
     <g id="text_3">
      <!-- -2 -->
      <defs>
       <path d="
M19.1875 8.29688
L53.6094 8.29688
L53.6094 0
L7.32812 0
L7.32812 8.29688
Q12.9375 14.1094 22.625 23.8906
Q32.3281 33.6875 34.8125 36.5312
Q39.5469 41.8438 41.4219 45.5312
Q43.3125 49.2188 43.3125 52.7812
Q43.3125 58.5938 39.2344 62.25
Q35.1562 65.9219 28.6094 65.9219
Q23.9688 65.9219 18.8125 64.3125
Q13.6719 62.7031 7.8125 59.4219
L7.8125 69.3906
Q13.7656 71.7812 18.9375 73
Q24.125 74.2188 28.4219 74.2188
Q39.75 74.2188 46.4844 68.5469
Q53.2188 62.8906 53.2188 53.4219
Q53.2188 48.9219 51.5312 44.8906
Q49.8594 40.875 45.4062 35.4062
Q44.1875 33.9844 37.6406 27.2188
Q31.1094 20.4531 19.1875 8.29688" id="BitstreamVeraSans-Roman-32"/>
      </defs>
      <g transform="translate(156.19981053 371.996875)scale(0.2 -0.2)">
       <use xlink:href="#BitstreamVeraSans-Roman-2d"/>
       <use x="36.083984375" xlink:href="#BitstreamVeraSans-Roman-32"/>
      </g>
     </g>
    </g>
    <g id="xtick_5">
     <g id="line2d_18">
      <path clip-path="url(#p99b4b0da67)" d="
M217.21 352.8
L217.21 7.2" style="fill:none;stroke:#000000;stroke-dasharray:1.000000,3.000000;stroke-dashoffset:0.0;stroke-width:0.5;"/>
     </g>
     <g id="line2d_19">
      <g>
       <use style="stroke:#000000;stroke-width:0.5;" x="217.210498389" xlink:href="#m93b0483c22" y="352.8"/>
      </g>
     </g>
     <g id="line2d_20">
      <g>
       <use style="stroke:#000000;stroke-width:0.5;" x="217.210498389" xlink:href="#m741efc42ff" y="7.2"/>
      </g>
     </g>
     <g id="text_4">
      <!-- 0 -->
      <defs>
       <path d="
M31.7812 66.4062
Q24.1719 66.4062 20.3281 58.9062
Q16.5 51.4219 16.5 36.375
Q16.5 21.3906 20.3281 13.8906
Q24.1719 6.39062 31.7812 6.39062
Q39.4531 6.39062 43.2812 13.8906
Q47.125 21.3906 47.125 36.375
Q47.125 51.4219 43.2812 58.9062
Q39.4531 66.4062 31.7812 66.4062
M31.7812 74.2188
Q44.0469 74.2188 50.5156 64.5156
Q56.9844 54.8281 56.9844 36.375
Q56.9844 17.9688 50.5156 8.26562
Q44.0469 -1.42188 31.7812 -1.42188
Q19.5312 -1.42188 13.0625 8.26562
Q6.59375 17.9688 6.59375 36.375
Q6.59375 54.8281 13.0625 64.5156
Q19.5312 74.2188 31.7812 74.2188" id="BitstreamVeraSans-Roman-30"/>
      </defs>
      <g transform="translate(212.171435889 371.996875)scale(0.2 -0.2)">
       <use xlink:href="#BitstreamVeraSans-Roman-30"/>
      </g>
     </g>
    </g>
    <g id="xtick_6">
     <g id="line2d_21">
      <path clip-path="url(#p99b4b0da67)" d="
M269.741 352.8
L269.741 7.2" style="fill:none;stroke:#000000;stroke-dasharray:1.000000,3.000000;stroke-dashoffset:0.0;stroke-width:0.5;"/>
     </g>
     <g id="line2d_22">
      <g>
       <use style="stroke:#000000;stroke-width:0.5;" x="269.741498747" xlink:href="#m93b0483c22" y="352.8"/>
      </g>
     </g>
     <g id="line2d_23">
      <g>
       <use style="stroke:#000000;stroke-width:0.5;" x="269.741498747" xlink:href="#m741efc42ff" y="7.2"/>
      </g>
     </g>
     <g id="text_5">
      <!-- 2 -->
      <g transform="translate(265.113373747 371.996875)scale(0.2 -0.2)">
       <use xlink:href="#BitstreamVeraSans-Roman-32"/>
      </g>
     </g>
    </g>
    <g id="xtick_7">
     <g id="line2d_24">
      <path clip-path="url(#p99b4b0da67)" d="
M322.272 352.8
L322.272 7.2" style="fill:none;stroke:#000000;stroke-dasharray:1.000000,3.000000;stroke-dashoffset:0.0;stroke-width:0.5;"/>
     </g>
     <g id="line2d_25">
      <g>
       <use style="stroke:#000000;stroke-width:0.5;" x="322.272499105" xlink:href="#m93b0483c22" y="352.8"/>
      </g>
     </g>
     <g id="line2d_26">
      <g>
       <use style="stroke:#000000;stroke-width:0.5;" x="322.272499105" xlink:href="#m741efc42ff" y="7.2"/>
      </g>
     </g>
     <g id="text_6">
      <!-- 4 -->
      <g transform="translate(316.959999105 371.996875)scale(0.2 -0.2)">
       <use xlink:href="#BitstreamVeraSans-Roman-34"/>
      </g>
     </g>
    </g>
    <g id="xtick_8">
     <g id="line2d_27">
      <path clip-path="url(#p99b4b0da67)" d="
M374.803 352.8
L374.803 7.2" style="fill:none;stroke:#000000;stroke-dasharray:1.000000,3.000000;stroke-dashoffset:0.0;stroke-width:0.5;"/>
     </g>
     <g id="line2d_28">
      <g>
       <use style="stroke:#000000;stroke-width:0.5;" x="374.803499463" xlink:href="#m93b0483c22" y="352.8"/>
      </g>
     </g>
     <g id="line2d_29">
      <g>
       <use style="stroke:#000000;stroke-width:0.5;" x="374.803499463" xlink:href="#m741efc42ff" y="7.2"/>
      </g>
     </g>
     <g id="text_7">
      <!-- 6 -->
      <g transform="translate(369.769124463 371.996875)scale(0.2 -0.2)">
       <use xlink:href="#BitstreamVeraSans-Roman-36"/>
      </g>
     </g>
    </g>
    <g id="xtick_9">
     <g id="line2d_30">
      <path clip-path="url(#p99b4b0da67)" d="
M427.334 352.8
L427.334 7.2" style="fill:none;stroke:#000000;stroke-dasharray:1.000000,3.000000;stroke-dashoffset:0.0;stroke-width:0.5;"/>
     </g>
     <g id="line2d_31">
      <g>
       <use style="stroke:#000000;stroke-width:0.5;" x="427.334499821" xlink:href="#m93b0483c22" y="352.8"/>
      </g>
     </g>
     <g id="line2d_32">
      <g>
       <use style="stroke:#000000;stroke-width:0.5;" x="427.334499821" xlink:href="#m741efc42ff" y="7.2"/>
      </g>
     </g>
     <g id="text_8">
      <!-- 8 -->
      <defs>
       <path d="
M31.7812 34.625
Q24.75 34.625 20.7188 30.8594
Q16.7031 27.0938 16.7031 20.5156
Q16.7031 13.9219 20.7188 10.1562
Q24.75 6.39062 31.7812 6.39062
Q38.8125 6.39062 42.8594 10.1719
Q46.9219 13.9688 46.9219 20.5156
Q46.9219 27.0938 42.8906 30.8594
Q38.875 34.625 31.7812 34.625
M21.9219 38.8125
Q15.5781 40.375 12.0312 44.7188
Q8.5 49.0781 8.5 55.3281
Q8.5 64.0625 14.7188 69.1406
Q20.9531 74.2188 31.7812 74.2188
Q42.6719 74.2188 48.875 69.1406
Q55.0781 64.0625 55.0781 55.3281
Q55.0781 49.0781 51.5312 44.7188
Q48 40.375 41.7031 38.8125
Q48.8281 37.1562 52.7969 32.3125
Q56.7812 27.4844 56.7812 20.5156
Q56.7812 9.90625 50.3125 4.23438
Q43.8438 -1.42188 31.7812 -1.42188
Q19.7344 -1.42188 13.25 4.23438
Q6.78125 9.90625 6.78125 20.5156
Q6.78125 27.4844 10.7812 32.3125
Q14.7969 37.1562 21.9219 38.8125
M18.3125 54.3906
Q18.3125 48.7344 21.8438 45.5625
Q25.3906 42.3906 31.7812 42.3906
Q38.1406 42.3906 41.7188 45.5625
Q45.3125 48.7344 45.3125 54.3906
Q45.3125 60.0625 41.7188 63.2344
Q38.1406 66.4062 31.7812 66.4062
Q25.3906 66.4062 21.8438 63.2344
Q18.3125 60.0625 18.3125 54.3906" id="BitstreamVeraSans-Roman-38"/>
      </defs>
      <g transform="translate(422.334499821 371.996875)scale(0.2 -0.2)">
       <use xlink:href="#BitstreamVeraSans-Roman-38"/>
      </g>
     </g>
    </g>
    <g id="xtick_10"/>
    <g id="xtick_11">
     <g id="line2d_33">
      <defs>
       <path d="
M0 0
L0 -2" id="m177f7580d0" style="stroke:#000000;stroke-width:0.5;"/>
      </defs>
      <g>
       <use style="stroke:#000000;stroke-width:0.5;" x="59.6174973142" xlink:href="#m177f7580d0" y="352.8"/>
      </g>
     </g>
     <g id="line2d_34">
      <defs>
       <path d="
M0 0
L0 2" id="m5284c7e2a0" style="stroke:#000000;stroke-width:0.5;"/>
      </defs>
      <g>
       <use style="stroke:#000000;stroke-width:0.5;" x="59.6174973142" xlink:href="#m5284c7e2a0" y="7.2"/>
      </g>
     </g>
    </g>
    <g id="xtick_12">
     <g id="line2d_35">
      <g>
       <use style="stroke:#000000;stroke-width:0.5;" x="112.148497672" xlink:href="#m177f7580d0" y="352.8"/>
      </g>
     </g>
     <g id="line2d_36">
      <g>
       <use style="stroke:#000000;stroke-width:0.5;" x="112.148497672" xlink:href="#m5284c7e2a0" y="7.2"/>
      </g>
     </g>
    </g>
    <g id="xtick_13">
     <g id="line2d_37">
      <g>
       <use style="stroke:#000000;stroke-width:0.5;" x="164.67949803" xlink:href="#m177f7580d0" y="352.8"/>
      </g>
     </g>
     <g id="line2d_38">
      <g>
       <use style="stroke:#000000;stroke-width:0.5;" x="164.67949803" xlink:href="#m5284c7e2a0" y="7.2"/>
      </g>
     </g>
    </g>
    <g id="xtick_14">
     <g id="line2d_39">
      <g>
       <use style="stroke:#000000;stroke-width:0.5;" x="217.210498389" xlink:href="#m177f7580d0" y="352.8"/>
      </g>
     </g>
     <g id="line2d_40">
      <g>
       <use style="stroke:#000000;stroke-width:0.5;" x="217.210498389" xlink:href="#m5284c7e2a0" y="7.2"/>
      </g>
     </g>
    </g>
    <g id="xtick_15">
     <g id="line2d_41">
      <g>
       <use style="stroke:#000000;stroke-width:0.5;" x="269.741498747" xlink:href="#m177f7580d0" y="352.8"/>
      </g>
     </g>
     <g id="line2d_42">
      <g>
       <use style="stroke:#000000;stroke-width:0.5;" x="269.741498747" xlink:href="#m5284c7e2a0" y="7.2"/>
      </g>
     </g>
    </g>
    <g id="xtick_16">
     <g id="line2d_43">
      <g>
       <use style="stroke:#000000;stroke-width:0.5;" x="322.272499105" xlink:href="#m177f7580d0" y="352.8"/>
      </g>
     </g>
     <g id="line2d_44">
      <g>
       <use style="stroke:#000000;stroke-width:0.5;" x="322.272499105" xlink:href="#m5284c7e2a0" y="7.2"/>
      </g>
     </g>
    </g>
    <g id="xtick_17">
     <g id="line2d_45">
      <g>
       <use style="stroke:#000000;stroke-width:0.5;" x="374.803499463" xlink:href="#m177f7580d0" y="352.8"/>
      </g>
     </g>
     <g id="line2d_46">
      <g>
       <use style="stroke:#000000;stroke-width:0.5;" x="374.803499463" xlink:href="#m5284c7e2a0" y="7.2"/>
      </g>
     </g>
    </g>
    <g id="xtick_18">
     <g id="line2d_47">
      <g>
       <use style="stroke:#000000;stroke-width:0.5;" x="427.334499821" xlink:href="#m177f7580d0" y="352.8"/>
      </g>
     </g>
     <g id="line2d_48">
      <g>
       <use style="stroke:#000000;stroke-width:0.5;" x="427.334499821" xlink:href="#m5284c7e2a0" y="7.2"/>
      </g>
     </g>
    </g>
    <g id="text_9">
     <!-- log10 of Df -->
     <defs>
      <path id="BitstreamVeraSans-Roman-20"/>
      <path d="
M12.4062 8.29688
L28.5156 8.29688
L28.5156 63.9219
L10.9844 60.4062
L10.9844 69.3906
L28.4219 72.9062
L38.2812 72.9062
L38.2812 8.29688
L54.3906 8.29688
L54.3906 0
L12.4062 0
z
" id="BitstreamVeraSans-Roman-31"/>
      <path d="
M30.6094 48.3906
Q23.3906 48.3906 19.1875 42.75
Q14.9844 37.1094 14.9844 27.2969
Q14.9844 17.4844 19.1562 11.8438
Q23.3438 6.20312 30.6094 6.20312
Q37.7969 6.20312 41.9844 11.8594
Q46.1875 17.5312 46.1875 27.2969
Q46.1875 37.0156 41.9844 42.7031
Q37.7969 48.3906 30.6094 48.3906
M30.6094 56
Q42.3281 56 49.0156 48.375
Q55.7188 40.7656 55.7188 27.2969
Q55.7188 13.875 49.0156 6.21875
Q42.3281 -1.42188 30.6094 -1.42188
Q18.8438 -1.42188 12.1719 6.21875
Q5.51562 13.875 5.51562 27.2969
Q5.51562 40.7656 12.1719 48.375
Q18.8438 56 30.6094 56" id="BitstreamVeraSans-Roman-6f"/>
      <path d="
M9.42188 75.9844
L18.4062 75.9844
L18.4062 0
L9.42188 0
z
" id="BitstreamVeraSans-Roman-6c"/>
      <path d="
M19.6719 64.7969
L19.6719 8.10938
L31.5938 8.10938
Q46.6875 8.10938 53.6875 14.9375
Q60.6875 21.7812 60.6875 36.5312
Q60.6875 51.1719 53.6875 57.9844
Q46.6875 64.7969 31.5938 64.7969
z

M9.8125 72.9062
L30.0781 72.9062
Q51.2656 72.9062 61.1719 64.0938
Q71.0938 55.2812 71.0938 36.5312
Q71.0938 17.6719 61.125 8.82812
Q51.1719 0 30.0781 0
L9.8125 0
z
" id="BitstreamVeraSans-Roman-44"/>
      <path d="
M45.4062 27.9844
Q45.4062 37.75 41.375 43.1094
Q37.3594 48.4844 30.0781 48.4844
Q22.8594 48.4844 18.8281 43.1094
Q14.7969 37.75 14.7969 27.9844
Q14.7969 18.2656 18.8281 12.8906
Q22.8594 7.51562 30.0781 7.51562
Q37.3594 7.51562 41.375 12.8906
Q45.4062 18.2656 45.4062 27.9844
M54.3906 6.78125
Q54.3906 -7.17188 48.1875 -13.9844
Q42 -20.7969 29.2031 -20.7969
Q24.4688 -20.7969 20.2656 -20.0938
Q16.0625 -19.3906 12.1094 -17.9219
L12.1094 -9.1875
Q16.0625 -11.3281 19.9219 -12.3438
Q23.7812 -13.375 27.7812 -13.375
Q36.625 -13.375 41.0156 -8.76562
Q45.4062 -4.15625 45.4062 5.17188
L45.4062 9.625
Q42.625 4.78125 38.2812 2.39062
Q33.9375 0 27.875 0
Q17.8281 0 11.6719 7.65625
Q5.51562 15.3281 5.51562 27.9844
Q5.51562 40.6719 11.6719 48.3281
Q17.8281 56 27.875 56
Q33.9375 56 38.2812 53.6094
Q42.625 51.2188 45.4062 46.3906
L45.4062 54.6875
L54.3906 54.6875
z
" id="BitstreamVeraSans-Roman-67"/>
      <path d="
M37.1094 75.9844
L37.1094 68.5
L28.5156 68.5
Q23.6875 68.5 21.7969 66.5469
Q19.9219 64.5938 19.9219 59.5156
L19.9219 54.6875
L34.7188 54.6875
L34.7188 47.7031
L19.9219 47.7031
L19.9219 0
L10.8906 0
L10.8906 47.7031
L2.29688 47.7031
L2.29688 54.6875
L10.8906 54.6875
L10.8906 58.5
Q10.8906 67.625 15.1406 71.7969
Q19.3906 75.9844 28.6094 75.9844
z
" id="BitstreamVeraSans-Roman-66"/>
     </defs>
     <g transform="translate(175.0234375 396.353125)scale(0.2 -0.2)">
      <use xlink:href="#BitstreamVeraSans-Roman-6c"/>
      <use x="27.783203125" xlink:href="#BitstreamVeraSans-Roman-6f"/>
      <use x="88.96484375" xlink:href="#BitstreamVeraSans-Roman-67"/>
      <use x="152.44140625" xlink:href="#BitstreamVeraSans-Roman-31"/>
      <use x="216.064453125" xlink:href="#BitstreamVeraSans-Roman-30"/>
      <use x="279.6875" xlink:href="#BitstreamVeraSans-Roman-20"/>
      <use x="311.474609375" xlink:href="#BitstreamVeraSans-Roman-6f"/>
      <use x="372.65625" xlink:href="#BitstreamVeraSans-Roman-66"/>
      <use x="407.861328125" xlink:href="#BitstreamVeraSans-Roman-20"/>
      <use x="439.6484375" xlink:href="#BitstreamVeraSans-Roman-44"/>
      <use x="516.650390625" xlink:href="#BitstreamVeraSans-Roman-66"/>
     </g>
    </g>
   </g>
   <g id="matplotlib.axis_2">
    <g id="ytick_1">
     <g id="line2d_49">
      <path clip-path="url(#p99b4b0da67)" d="
M7.2 352.8
L453.6 352.8" style="fill:none;stroke:#000000;stroke-dasharray:1.000000,3.000000;stroke-dashoffset:0.0;stroke-width:0.5;"/>
     </g>
     <g id="line2d_50">
      <defs>
       <path d="
M0 0
L4 0" id="m728421d6d4" style="stroke:#000000;stroke-width:0.5;"/>
      </defs>
      <g>
       <use style="stroke:#000000;stroke-width:0.5;" x="7.2" xlink:href="#m728421d6d4" y="352.8"/>
      </g>
     </g>
     <g id="line2d_51">
      <defs>
       <path d="
M0 0
L-4 0" id="mcb0005524f" style="stroke:#000000;stroke-width:0.5;"/>
      </defs>
      <g>
       <use style="stroke:#000000;stroke-width:0.5;" x="453.6" xlink:href="#mcb0005524f" y="352.8"/>
      </g>
     </g>
    </g>
    <g id="ytick_2">
     <g id="line2d_52">
      <path clip-path="url(#p99b4b0da67)" d="
M7.2 284.364
L453.6 284.364" style="fill:none;stroke:#000000;stroke-dasharray:1.000000,3.000000;stroke-dashoffset:0.0;stroke-width:0.5;"/>
     </g>
     <g id="line2d_53">
      <g>
       <use style="stroke:#000000;stroke-width:0.5;" x="7.2" xlink:href="#m728421d6d4" y="284.364356436"/>
      </g>
     </g>
     <g id="line2d_54">
      <g>
       <use style="stroke:#000000;stroke-width:0.5;" x="453.6" xlink:href="#mcb0005524f" y="284.364356436"/>
      </g>
     </g>
    </g>
    <g id="ytick_3">
     <g id="line2d_55">
      <path clip-path="url(#p99b4b0da67)" d="
M7.2 215.929
L453.6 215.929" style="fill:none;stroke:#000000;stroke-dasharray:1.000000,3.000000;stroke-dashoffset:0.0;stroke-width:0.5;"/>
     </g>
     <g id="line2d_56">
      <g>
       <use style="stroke:#000000;stroke-width:0.5;" x="7.2" xlink:href="#m728421d6d4" y="215.928712871"/>
      </g>
     </g>
     <g id="line2d_57">
      <g>
       <use style="stroke:#000000;stroke-width:0.5;" x="453.6" xlink:href="#mcb0005524f" y="215.928712871"/>
      </g>
     </g>
    </g>
    <g id="ytick_4">
     <g id="line2d_58">
      <path clip-path="url(#p99b4b0da67)" d="
M7.2 147.493
L453.6 147.493" style="fill:none;stroke:#000000;stroke-dasharray:1.000000,3.000000;stroke-dashoffset:0.0;stroke-width:0.5;"/>
     </g>
     <g id="line2d_59">
      <g>
       <use style="stroke:#000000;stroke-width:0.5;" x="7.2" xlink:href="#m728421d6d4" y="147.493069307"/>
      </g>
     </g>
     <g id="line2d_60">
      <g>
       <use style="stroke:#000000;stroke-width:0.5;" x="453.6" xlink:href="#mcb0005524f" y="147.493069307"/>
      </g>
     </g>
    </g>
    <g id="ytick_5">
     <g id="line2d_61">
      <path clip-path="url(#p99b4b0da67)" d="
M7.2 79.0574
L453.6 79.0574" style="fill:none;stroke:#000000;stroke-dasharray:1.000000,3.000000;stroke-dashoffset:0.0;stroke-width:0.5;"/>
     </g>
     <g id="line2d_62">
      <g>
       <use style="stroke:#000000;stroke-width:0.5;" x="7.2" xlink:href="#m728421d6d4" y="79.0574257426"/>
      </g>
     </g>
     <g id="line2d_63">
      <g>
       <use style="stroke:#000000;stroke-width:0.5;" x="453.6" xlink:href="#mcb0005524f" y="79.0574257426"/>
      </g>
     </g>
    </g>
    <g id="ytick_6">
     <g id="line2d_64">
      <path clip-path="url(#p99b4b0da67)" d="
M7.2 10.6218
L453.6 10.6218" style="fill:none;stroke:#000000;stroke-dasharray:1.000000,3.000000;stroke-dashoffset:0.0;stroke-width:0.5;"/>
     </g>
     <g id="line2d_65">
      <g>
       <use style="stroke:#000000;stroke-width:0.5;" x="7.2" xlink:href="#m728421d6d4" y="10.6217821782"/>
      </g>
     </g>
     <g id="line2d_66">
      <g>
       <use style="stroke:#000000;stroke-width:0.5;" x="453.6" xlink:href="#mcb0005524f" y="10.6217821782"/>
      </g>
     </g>
    </g>
   </g>
   <g id="text_10">
    <!-- {f15-f19}, 5-D -->
    <defs>
     <path d="
M12.5 -9.28125
L15.9219 -9.28125
Q22.75 -9.28125 24.8281 -7.17188
Q26.9062 -5.07812 26.9062 1.90625
L26.9062 14.0156
Q26.9062 21.625 29.0938 25.0938
Q31.2969 28.5625 36.7188 29.8906
Q31.2969 31.1094 29.0938 34.5625
Q26.9062 38.0312 26.9062 45.7031
L26.9062 57.8125
Q26.9062 64.75 24.8281 66.875
Q22.75 69 15.9219 69
L12.5 69
L12.5 75.9844
L15.5781 75.9844
Q27.7344 75.9844 31.8125 72.3906
Q35.8906 68.7969 35.8906 58.0156
L35.8906 46.2969
Q35.8906 39.0156 38.5156 36.2031
Q41.1562 33.4062 48.0938 33.4062
L51.125 33.4062
L51.125 26.4219
L48.0938 26.4219
Q41.1562 26.4219 38.5156 23.5781
Q35.8906 20.75 35.8906 13.375
L35.8906 1.70312
Q35.8906 -9.07812 31.8125 -12.6875
Q27.7344 -16.3125 15.5781 -16.3125
L12.5 -16.3125
z
" id="BitstreamVeraSans-Roman-7d"/>
     <path d="
M10.9844 1.51562
L10.9844 10.5
Q14.7031 8.73438 18.5 7.8125
Q22.3125 6.89062 25.9844 6.89062
Q35.75 6.89062 40.8906 13.4531
Q46.0469 20.0156 46.7812 33.4062
Q43.9531 29.2031 39.5938 26.9531
Q35.25 24.7031 29.9844 24.7031
Q19.0469 24.7031 12.6719 31.3125
Q6.29688 37.9375 6.29688 49.4219
Q6.29688 60.6406 12.9375 67.4219
Q19.5781 74.2188 30.6094 74.2188
Q43.2656 74.2188 49.9219 64.5156
Q56.5938 54.8281 56.5938 36.375
Q56.5938 19.1406 48.4062 8.85938
Q40.2344 -1.42188 26.4219 -1.42188
Q22.7031 -1.42188 18.8906 -0.6875
Q15.0938 0.046875 10.9844 1.51562
M30.6094 32.4219
Q37.25 32.4219 41.125 36.9531
Q45.0156 41.5 45.0156 49.4219
Q45.0156 57.2812 41.125 61.8438
Q37.25 66.4062 30.6094 66.4062
Q23.9688 66.4062 20.0938 61.8438
Q16.2188 57.2812 16.2188 49.4219
Q16.2188 41.5 20.0938 36.9531
Q23.9688 32.4219 30.6094 32.4219" id="BitstreamVeraSans-Roman-39"/>
     <path d="
M51.125 -9.28125
L51.125 -16.3125
L48.0938 -16.3125
Q35.9375 -16.3125 31.8125 -12.6875
Q27.6875 -9.07812 27.6875 1.70312
L27.6875 13.375
Q27.6875 20.75 25.0469 23.5781
Q22.4062 26.4219 15.4844 26.4219
L12.5 26.4219
L12.5 33.4062
L15.4844 33.4062
Q22.4688 33.4062 25.0781 36.2031
Q27.6875 39.0156 27.6875 46.2969
L27.6875 58.0156
Q27.6875 68.7969 31.8125 72.3906
Q35.9375 75.9844 48.0938 75.9844
L51.125 75.9844
L51.125 69
L47.7969 69
Q40.9219 69 38.8125 66.8438
Q36.7188 64.7031 36.7188 57.8125
L36.7188 45.7031
Q36.7188 38.0312 34.5 34.5625
Q32.2812 31.1094 26.9062 29.8906
Q32.3281 28.5625 34.5156 25.0938
Q36.7188 21.625 36.7188 14.0156
L36.7188 1.90625
Q36.7188 -4.98438 38.8125 -7.125
Q40.9219 -9.28125 47.7969 -9.28125
z
" id="BitstreamVeraSans-Roman-7b"/>
     <path d="
M11.7188 12.4062
L22.0156 12.4062
L22.0156 4
L14.0156 -11.625
L7.71875 -11.625
L11.7188 4
z
" id="BitstreamVeraSans-Roman-2c"/>
     <path d="
M10.7969 72.9062
L49.5156 72.9062
L49.5156 64.5938
L19.8281 64.5938
L19.8281 46.7344
Q21.9688 47.4688 24.1094 47.8281
Q26.2656 48.1875 28.4219 48.1875
Q40.625 48.1875 47.75 41.5
Q54.8906 34.8125 54.8906 23.3906
Q54.8906 11.625 47.5625 5.09375
Q40.2344 -1.42188 26.9062 -1.42188
Q22.3125 -1.42188 17.5469 -0.640625
Q12.7969 0.140625 7.71875 1.70312
L7.71875 11.625
Q12.1094 9.23438 16.7969 8.0625
Q21.4844 6.89062 26.7031 6.89062
Q35.1562 6.89062 40.0781 11.3281
Q45.0156 15.7656 45.0156 23.3906
Q45.0156 31 40.0781 35.4375
Q35.1562 39.8906 26.7031 39.8906
Q22.75 39.8906 18.8125 39.0156
Q14.8906 38.1406 10.7969 36.2812
z
" id="BitstreamVeraSans-Roman-35"/>
    </defs>
    <g transform="translate(300.15325 345.888)scale(0.2 -0.2)">
     <use xlink:href="#BitstreamVeraSans-Roman-7b"/>
     <use x="63.623046875" xlink:href="#BitstreamVeraSans-Roman-66"/>
     <use x="98.828125" xlink:href="#BitstreamVeraSans-Roman-31"/>
     <use x="162.451171875" xlink:href="#BitstreamVeraSans-Roman-35"/>
     <use x="226.07421875" xlink:href="#BitstreamVeraSans-Roman-2d"/>
     <use x="262.158203125" xlink:href="#BitstreamVeraSans-Roman-66"/>
     <use x="297.36328125" xlink:href="#BitstreamVeraSans-Roman-31"/>
     <use x="360.986328125" xlink:href="#BitstreamVeraSans-Roman-39"/>
     <use x="424.609375" xlink:href="#BitstreamVeraSans-Roman-7d"/>
     <use x="488.232421875" xlink:href="#BitstreamVeraSans-Roman-2c"/>
     <use x="520.01953125" xlink:href="#BitstreamVeraSans-Roman-20"/>
     <use x="551.806640625" xlink:href="#BitstreamVeraSans-Roman-35"/>
     <use x="615.4296875" xlink:href="#BitstreamVeraSans-Roman-2d"/>
     <use x="651.513671875" xlink:href="#BitstreamVeraSans-Roman-44"/>
    </g>
   </g>
   <g id="text_11">
    <!-- 1.2.1 -->
    <defs>
     <path d="
M10.6875 12.4062
L21 12.4062
L21 0
L10.6875 0
z
" id="BitstreamVeraSans-Roman-2e"/>
    </defs>
    <g style="fill:#808080;" transform="translate(218.6890625 347.2643125)scale(0.1 -0.1)">
     <use xlink:href="#BitstreamVeraSans-Roman-31"/>
     <use x="63.623046875" xlink:href="#BitstreamVeraSans-Roman-2e"/>
     <use x="95.41015625" xlink:href="#BitstreamVeraSans-Roman-32"/>
     <use x="159.033203125" xlink:href="#BitstreamVeraSans-Roman-2e"/>
     <use x="190.8203125" xlink:href="#BitstreamVeraSans-Roman-31"/>
    </g>
   </g>
  </g>
 </g>
 <defs>
  <clipPath id="p99b4b0da67">
   <rect height="345.6" width="446.4" x="7.2" y="7.2"/>
  </clipPath>
 </defs>
</svg>
