<?xml version="1.0" encoding="utf-8" standalone="no"?>
<!DOCTYPE svg PUBLIC "-//W3C//DTD SVG 1.1//EN"
  "http://www.w3.org/Graphics/SVG/1.1/DTD/svg11.dtd">
<!-- Created with matplotlib (http://matplotlib.org/) -->
<svg height="407pt" version="1.1" viewBox="0 0 460 407" width="460pt" xmlns="http://www.w3.org/2000/svg" xmlns:xlink="http://www.w3.org/1999/xlink">
 <defs>
  <style type="text/css">
*{stroke-linecap:butt;stroke-linejoin:round;stroke-miterlimit:100000;}
  </style>
 </defs>
 <g id="figure_1">
  <g id="patch_1">
   <path d="M 0 407.7125 
L 460.8 407.7125 
L 460.8 0 
L 0 0 
z
" style="fill:#ffffff;"/>
  </g>
  <g id="axes_1">
   <g id="patch_2">
    <path d="M 7.2 352.8 
L 453.6 352.8 
L 453.6 7.2 
L 7.2 7.2 
z
" style="fill:#ffffff;"/>
   </g>
   <g id="line2d_1">
    <path clip-path="url(#p0c58fc0560)" d="M 218.864869 352.8 
L 218.864869 348.237624 
L 236.303114 348.237624 
L 236.303114 343.675248 
L 248.329527 343.675248 
L 248.329527 339.112871 
L 248.518516 339.112871 
L 248.518516 334.550495 
L 248.668489 334.550495 
L 248.668489 329.988119 
L 251.365162 329.988119 
L 251.365162 325.425743 
L 254.473149 325.425743 
L 254.473149 320.863366 
L 254.988816 320.863366 
L 255.061944 311.738614 
L 255.335473 311.738614 
L 255.335473 307.176238 
L 255.564109 307.176238 
L 255.564109 302.613861 
L 256.02242 302.613861 
L 256.02242 298.051485 
L 256.30615 298.051485 
L 256.30615 293.489109 
L 258.37215 293.489109 
L 258.37215 288.926733 
L 258.75728 288.926733 
L 258.75728 284.364356 
L 259.590034 284.364356 
L 259.590034 279.80198 
L 261.222334 279.80198 
L 261.222334 275.239604 
L 262.021277 275.239604 
L 262.021277 270.677228 
L 264.725325 270.677228 
L 264.725325 266.114851 
L 265.117893 266.114851 
L 265.117893 261.552475 
L 265.543885 261.552475 
L 265.543885 256.990099 
L 265.924998 256.990099 
L 265.924998 252.427723 
L 267.191365 252.427723 
L 267.191365 247.865347 
L 267.804472 247.865347 
L 267.804472 243.30297 
L 268.078307 243.30297 
L 268.078307 238.740594 
L 268.272378 238.740594 
L 268.272378 234.178218 
L 268.51429 234.178218 
L 268.57817 220.491089 
L 268.876481 220.491089 
L 268.876481 215.928713 
L 269.257334 215.928713 
L 269.257334 211.366337 
L 269.73117 211.366337 
L 269.73117 206.80396 
L 269.877126 206.80396 
L 269.979599 197.679208 
L 270.047361 197.679208 
L 270.047361 193.116832 
L 270.302207 193.116832 
L 270.358415 183.992079 
L 270.558172 183.992079 
L 270.600347 170.30495 
L 271.140685 170.30495 
L 271.250319 161.180198 
L 271.445498 161.180198 
L 271.506134 152.055446 
L 272.098546 152.055446 
L 272.098546 147.493069 
L 273.382068 147.493069 
L 273.382068 142.930693 
L 274.281865 142.930693 
L 274.291554 133.805941 
L 275.553738 133.805941 
L 275.553738 129.243564 
L 276.026044 129.243564 
L 276.026044 124.681188 
L 276.57307 124.681188 
L 276.57307 120.118812 
L 276.866725 120.118812 
L 276.866725 115.556436 
L 278.108419 115.556436 
L 278.108419 110.994059 
L 279.139089 110.994059 
L 279.139089 106.431683 
L 280.20468 106.431683 
L 280.20468 101.869307 
L 280.575205 101.869307 
L 280.581136 92.744554 
L 281.301973 92.744554 
L 281.301973 88.182178 
L 282.686596 88.182178 
L 282.686596 83.619802 
L 286.384848 83.619802 
L 286.384848 79.057426 
L 325.945064 79.057426 
L 325.945064 74.49505 
L 338.336112 74.49505 
L 338.336112 69.932673 
L 349.417147 69.932673 
L 349.417147 65.370297 
L 350.946767 65.370297 
L 350.946767 60.807921 
L 353.476115 60.807921 
L 353.476115 56.245545 
L 360.392022 56.245545 
L 360.392022 51.683168 
L 362.720926 51.683168 
L 362.720926 47.120792 
L 372.252882 47.120792 
L 372.252882 42.558416 
L 373.455455 42.558416 
L 373.455455 37.99604 
L 389.660164 37.99604 
L 389.660164 33.433663 
L 390.652259 33.433663 
L 390.652259 28.871287 
L 392.853695 28.871287 
L 392.853695 24.308911 
L 393.58273 24.308911 
L 393.58273 19.746535 
L 395.324739 19.746535 
L 395.324739 15.184158 
L 399.1276 15.184158 
L 399.1276 10.621782 
L 399.1276 10.621782 
L 453.6 10.621782 
L 453.6 10.621782 
" style="fill:none;stroke:#ff0000;stroke-linecap:square;stroke-width:3.0;"/>
   </g>
   <g id="line2d_2">
    <path clip-path="url(#p0c58fc0560)" d="M 239.023567 352.8 
L 239.023567 348.237624 
L 245.98621 348.237624 
L 245.98621 343.675248 
L 248.329527 343.675248 
L 248.329527 339.112871 
L 248.668489 339.112871 
L 248.668489 334.550495 
L 250.993292 334.550495 
L 250.993292 329.988119 
L 251.365162 329.988119 
L 251.365162 325.425743 
L 255.916626 325.425743 
L 255.916626 320.863366 
L 256.30615 320.863366 
L 256.30615 316.30099 
L 256.464994 316.30099 
L 256.527963 307.176238 
L 258.410541 307.176238 
L 258.410541 302.613861 
L 258.75728 302.613861 
L 258.75728 298.051485 
L 259.250705 298.051485 
L 259.250705 293.489109 
L 260.111154 293.489109 
L 260.111154 288.926733 
L 262.713134 288.926733 
L 262.713134 284.364356 
L 266.852289 284.364356 
L 266.852289 279.80198 
L 268.069989 279.80198 
L 268.069989 275.239604 
L 269.332766 275.239604 
L 269.332766 270.677228 
L 269.656761 270.677228 
L 269.656761 266.114851 
L 269.808231 266.114851 
L 269.808231 261.552475 
L 270.002672 261.552475 
L 270.002672 256.990099 
L 270.336118 256.990099 
L 270.336118 252.427723 
L 270.512282 252.427723 
L 270.600347 197.679208 
L 270.728286 197.679208 
L 270.728286 193.116832 
L 270.953263 193.116832 
L 270.953263 188.554455 
L 271.250319 188.554455 
L 271.250319 183.992079 
L 271.726429 183.992079 
L 271.82699 174.867327 
L 272.204338 174.867327 
L 272.204338 170.30495 
L 273.208434 170.30495 
L 273.208434 165.742574 
L 273.382068 165.742574 
L 273.382068 161.180198 
L 273.720263 161.180198 
L 273.824577 152.055446 
L 274.507388 152.055446 
L 274.507388 147.493069 
L 276.10711 147.493069 
L 276.10711 142.930693 
L 276.424872 142.930693 
L 276.424872 138.368317 
L 276.866725 138.368317 
L 276.866725 133.805941 
L 277.670251 133.805941 
L 277.670251 129.243564 
L 277.88827 129.243564 
L 277.88827 124.681188 
L 278.734878 124.681188 
L 278.734878 120.118812 
L 279.996556 120.118812 
L 280.08203 110.994059 
L 280.20468 110.994059 
L 280.20468 106.431683 
L 280.581136 106.431683 
L 280.581136 101.869307 
L 282.293905 101.869307 
L 282.293905 97.306931 
L 282.413714 97.306931 
L 282.413714 92.744554 
L 282.686596 92.744554 
L 282.686596 88.182178 
L 286.384848 88.182178 
L 286.384848 83.619802 
L 289.878456 83.619802 
L 289.878456 79.057426 
L 325.945064 79.057426 
L 325.945064 74.49505 
L 349.417147 74.49505 
L 349.417147 69.932673 
L 351.241837 69.932673 
L 351.241837 65.370297 
L 357.341006 65.370297 
L 357.341006 60.807921 
L 362.720926 60.807921 
L 362.720926 56.245545 
L 372.252882 56.245545 
L 372.252882 51.683168 
L 383.566753 51.683168 
L 383.566753 47.120792 
L 386.643619 47.120792 
L 386.643619 42.558416 
L 391.84311 42.558416 
L 391.84311 37.99604 
L 394.883927 37.99604 
L 394.883927 33.433663 
L 395.51197 33.433663 
L 395.51197 28.871287 
L 398.730308 28.871287 
L 398.730308 24.308911 
L 399.484915 24.308911 
L 399.484915 19.746535 
L 400.159967 19.746535 
L 400.159967 15.184158 
L 402.627618 15.184158 
L 402.627618 10.621782 
L 402.627618 10.621782 
L 453.6 10.621782 
L 453.6 10.621782 
" style="fill:none;stroke:#00bfbf;stroke-linecap:square;"/>
   </g>
   <g id="line2d_3">
    <path clip-path="url(#p0c58fc0560)" d="M 229.55626 352.8 
L 229.55626 348.237624 
L 245.868633 348.237624 
L 245.868633 343.675248 
L 248.329527 343.675248 
L 248.329527 339.112871 
L 248.668489 339.112871 
L 248.668489 334.550495 
L 250.993292 334.550495 
L 250.993292 329.988119 
L 251.365162 329.988119 
L 251.365162 325.425743 
L 255.916626 325.425743 
L 255.916626 320.863366 
L 256.228845 320.863366 
L 256.30615 311.738614 
L 256.527963 311.738614 
L 256.527963 307.176238 
L 258.410541 307.176238 
L 258.410541 302.613861 
L 258.75728 302.613861 
L 258.75728 298.051485 
L 259.250705 298.051485 
L 259.250705 293.489109 
L 259.898406 293.489109 
L 259.898406 288.926733 
L 262.156777 288.926733 
L 262.156777 284.364356 
L 265.997198 284.364356 
L 266.023209 275.239604 
L 266.852289 275.239604 
L 266.852289 270.677228 
L 267.038703 270.677228 
L 267.038703 266.114851 
L 267.836143 266.114851 
L 267.836143 261.552475 
L 269.100601 261.552475 
L 269.100601 256.990099 
L 269.309716 256.990099 
L 269.309716 252.427723 
L 269.530642 252.427723 
L 269.530642 247.865347 
L 269.800924 247.865347 
L 269.800924 243.30297 
L 269.945215 243.30297 
L 270.002672 229.615842 
L 270.403784 229.615842 
L 270.431678 220.491089 
L 270.558172 220.491089 
L 270.600347 188.554455 
L 271.086182 188.554455 
L 271.086182 183.992079 
L 271.250319 183.992079 
L 271.250319 179.429703 
L 271.796683 179.429703 
L 271.875959 165.742574 
L 272.204338 165.742574 
L 272.204338 161.180198 
L 272.707969 161.180198 
L 272.707969 156.617822 
L 273.382068 156.617822 
L 273.382068 152.055446 
L 274.217869 152.055446 
L 274.217869 147.493069 
L 274.932038 147.493069 
L 274.932038 142.930693 
L 275.923807 142.930693 
L 275.923807 138.368317 
L 276.11881 138.368317 
L 276.11881 133.805941 
L 276.80056 133.805941 
L 276.866725 124.681188 
L 277.670251 124.681188 
L 277.670251 120.118812 
L 279.80578 120.118812 
L 279.80578 115.556436 
L 279.996556 115.556436 
L 279.996556 110.994059 
L 280.20468 110.994059 
L 280.20468 106.431683 
L 280.581136 106.431683 
L 280.581136 101.869307 
L 282.282925 101.869307 
L 282.282925 97.306931 
L 282.413714 97.306931 
L 282.413714 92.744554 
L 282.686596 92.744554 
L 282.686596 88.182178 
L 286.384848 88.182178 
L 286.384848 83.619802 
L 288.126606 83.619802 
L 288.126606 79.057426 
L 325.945064 79.057426 
L 325.945064 74.49505 
L 349.047502 74.49505 
L 349.047502 69.932673 
L 349.417147 69.932673 
L 349.417147 65.370297 
L 353.476115 65.370297 
L 353.476115 60.807921 
L 360.392022 60.807921 
L 360.392022 56.245545 
L 362.720926 56.245545 
L 362.720926 51.683168 
L 372.252882 51.683168 
L 372.252882 47.120792 
L 379.684476 47.120792 
L 379.684476 42.558416 
L 391.170467 42.558416 
L 391.170467 37.99604 
L 393.58273 37.99604 
L 393.58273 33.433663 
L 394.883927 33.433663 
L 394.883927 28.871287 
L 395.51197 28.871287 
L 395.51197 24.308911 
L 396.521428 24.308911 
L 396.521428 19.746535 
L 400.159967 19.746535 
L 400.159967 15.184158 
L 402.627618 15.184158 
L 402.627618 10.621782 
L 402.627618 10.621782 
L 453.6 10.621782 
L 453.6 10.621782 
" style="fill:none;stroke:#bf00bf;stroke-linecap:square;"/>
   </g>
   <g id="line2d_4">
    <path clip-path="url(#p0c58fc0560)" d="M 227.997027 352.8 
L 227.997027 348.237624 
L 243.086477 348.237624 
L 243.086477 343.675248 
L 248.329527 343.675248 
L 248.329527 339.112871 
L 248.668489 339.112871 
L 248.668489 334.550495 
L 250.993292 334.550495 
L 250.993292 329.988119 
L 251.365162 329.988119 
L 251.365162 325.425743 
L 255.66204 325.425743 
L 255.66204 320.863366 
L 256.02242 320.863366 
L 256.02242 316.30099 
L 256.228845 316.30099 
L 256.30615 302.613861 
L 258.096595 302.613861 
L 258.096595 298.051485 
L 258.75728 298.051485 
L 258.75728 293.489109 
L 259.250705 293.489109 
L 259.250705 288.926733 
L 259.898406 288.926733 
L 259.898406 284.364356 
L 262.156777 284.364356 
L 262.156777 279.80198 
L 263.197349 279.80198 
L 263.197349 275.239604 
L 264.871532 275.239604 
L 264.871532 270.677228 
L 265.117893 270.677228 
L 265.117893 266.114851 
L 265.997198 266.114851 
L 265.997198 261.552475 
L 267.191365 261.552475 
L 267.191365 256.990099 
L 267.836143 256.990099 
L 267.836143 252.427723 
L 268.272378 252.427723 
L 268.272378 247.865347 
L 268.50564 247.865347 
L 268.50564 243.30297 
L 269.198114 243.30297 
L 269.257334 234.178218 
L 269.729104 234.178218 
L 269.823173 220.491089 
L 269.945215 220.491089 
L 269.979599 211.366337 
L 270.268156 211.366337 
L 270.268156 206.80396 
L 270.413072 206.80396 
L 270.413072 202.241584 
L 270.558172 202.241584 
L 270.600347 174.867327 
L 271.250319 174.867327 
L 271.250319 170.30495 
L 271.82699 170.30495 
L 271.875959 156.617822 
L 272.145068 156.617822 
L 272.145068 152.055446 
L 272.601826 152.055446 
L 272.601826 147.493069 
L 273.382068 147.493069 
L 273.382068 142.930693 
L 274.291554 142.930693 
L 274.291554 138.368317 
L 274.670379 138.368317 
L 274.670379 133.805941 
L 275.553738 133.805941 
L 275.553738 129.243564 
L 276.11881 129.243564 
L 276.11881 124.681188 
L 276.866725 124.681188 
L 276.866725 120.118812 
L 277.670251 120.118812 
L 277.670251 115.556436 
L 278.863973 115.556436 
L 278.863973 110.994059 
L 280.20468 110.994059 
L 280.20468 106.431683 
L 280.575205 106.431683 
L 280.581136 97.306931 
L 281.439891 97.306931 
L 281.439891 92.744554 
L 282.686596 92.744554 
L 282.686596 88.182178 
L 286.384848 88.182178 
L 286.384848 83.619802 
L 288.126606 83.619802 
L 288.126606 79.057426 
L 325.945064 79.057426 
L 325.945064 74.49505 
L 342.726423 74.49505 
L 342.726423 69.932673 
L 349.417147 69.932673 
L 349.417147 65.370297 
L 350.946767 65.370297 
L 350.946767 60.807921 
L 353.476115 60.807921 
L 353.476115 56.245545 
L 360.392022 56.245545 
L 360.392022 51.683168 
L 362.720926 51.683168 
L 362.720926 47.120792 
L 372.252882 47.120792 
L 372.252882 42.558416 
L 390.89387 42.558416 
L 390.89387 37.99604 
L 391.015512 37.99604 
L 391.015512 33.433663 
L 393.186693 33.433663 
L 393.186693 28.871287 
L 393.58273 28.871287 
L 393.58273 24.308911 
L 394.883927 24.308911 
L 394.883927 19.746535 
L 399.786796 19.746535 
L 399.786796 15.184158 
L 401.454782 15.184158 
L 401.454782 10.621782 
L 401.454782 10.621782 
L 453.6 10.621782 
L 453.6 10.621782 
" style="fill:none;stroke:#000000;stroke-linecap:square;"/>
   </g>
   <g id="line2d_5">
    <path clip-path="url(#p0c58fc0560)" d="M 218.864869 352.8 
L 218.864869 348.237624 
L 236.303114 348.237624 
L 236.303114 343.675248 
L 248.329527 343.675248 
L 248.329527 339.112871 
L 248.668489 339.112871 
L 248.668489 334.550495 
L 249.493949 334.550495 
L 249.493949 329.988119 
L 251.365162 329.988119 
L 251.365162 325.425743 
L 254.988816 325.425743 
L 255.061944 316.30099 
L 255.335473 316.30099 
L 255.335473 311.738614 
L 255.66204 311.738614 
L 255.66204 307.176238 
L 256.02242 307.176238 
L 256.02242 302.613861 
L 256.30615 302.613861 
L 256.30615 298.051485 
L 257.989969 298.051485 
L 257.989969 293.489109 
L 258.37215 293.489109 
L 258.37215 288.926733 
L 258.75728 288.926733 
L 258.75728 284.364356 
L 261.222334 284.364356 
L 261.222334 279.80198 
L 261.462205 279.80198 
L 261.462205 275.239604 
L 262.021277 275.239604 
L 262.021277 270.677228 
L 264.725325 270.677228 
L 264.725325 266.114851 
L 265.117893 266.114851 
L 265.117893 261.552475 
L 265.924998 261.552475 
L 265.924998 256.990099 
L 267.191365 256.990099 
L 267.191365 252.427723 
L 267.804472 252.427723 
L 267.836143 243.30297 
L 268.078307 243.30297 
L 268.078307 238.740594 
L 268.272378 238.740594 
L 268.272378 234.178218 
L 268.57817 234.178218 
L 268.57817 229.615842 
L 268.876481 229.615842 
L 268.955793 220.491089 
L 269.198114 220.491089 
L 269.257334 211.366337 
L 269.73117 211.366337 
L 269.73117 206.80396 
L 269.979599 206.80396 
L 270.047361 193.116832 
L 270.302207 193.116832 
L 270.358415 183.992079 
L 270.558172 183.992079 
L 270.600347 170.30495 
L 271.250319 170.30495 
L 271.250319 165.742574 
L 271.445498 165.742574 
L 271.447071 156.617822 
L 271.851267 156.617822 
L 271.851267 152.055446 
L 272.145068 152.055446 
L 272.145068 147.493069 
L 273.382068 147.493069 
L 273.382068 142.930693 
L 274.281865 142.930693 
L 274.291554 133.805941 
L 275.553738 133.805941 
L 275.553738 129.243564 
L 276.11881 129.243564 
L 276.11881 124.681188 
L 276.57307 124.681188 
L 276.57307 120.118812 
L 276.866725 120.118812 
L 276.866725 115.556436 
L 278.219299 115.556436 
L 278.219299 110.994059 
L 279.139089 110.994059 
L 279.139089 106.431683 
L 280.20468 106.431683 
L 280.20468 101.869307 
L 280.575205 101.869307 
L 280.581136 92.744554 
L 282.686596 92.744554 
L 282.686596 88.182178 
L 285.09506 88.182178 
L 285.09506 83.619802 
L 286.384848 83.619802 
L 286.384848 79.057426 
L 325.945064 79.057426 
L 325.945064 74.49505 
L 341.602822 74.49505 
L 341.602822 69.932673 
L 349.417147 69.932673 
L 349.417147 65.370297 
L 350.946767 65.370297 
L 350.946767 60.807921 
L 353.476115 60.807921 
L 353.476115 56.245545 
L 360.392022 56.245545 
L 360.392022 51.683168 
L 362.720926 51.683168 
L 362.720926 47.120792 
L 372.252882 47.120792 
L 372.252882 42.558416 
L 373.455455 42.558416 
L 373.455455 37.99604 
L 389.660164 37.99604 
L 389.660164 33.433663 
L 390.652259 33.433663 
L 390.652259 28.871287 
L 392.853695 28.871287 
L 392.853695 24.308911 
L 393.58273 24.308911 
L 393.58273 19.746535 
L 395.324739 19.746535 
L 395.324739 15.184158 
L 399.1276 15.184158 
L 399.1276 10.621782 
L 399.1276 10.621782 
L 453.6 10.621782 
L 453.6 10.621782 
" style="fill:none;stroke:#00bfbf;stroke-linecap:square;"/>
   </g>
   <g id="line2d_6">
    <path clip-path="url(#p0c58fc0560)" d="M 218.864869 352.8 
L 218.864869 348.237624 
L 236.303114 348.237624 
L 236.303114 343.675248 
L 248.329527 343.675248 
L 248.329527 339.112871 
L 248.518516 339.112871 
L 248.518516 334.550495 
L 248.668489 334.550495 
L 248.668489 329.988119 
L 251.365162 329.988119 
L 251.365162 325.425743 
L 254.473149 325.425743 
L 254.473149 320.863366 
L 254.988816 320.863366 
L 255.061944 311.738614 
L 255.335473 311.738614 
L 255.335473 307.176238 
L 255.564109 307.176238 
L 255.564109 302.613861 
L 256.02242 302.613861 
L 256.02242 298.051485 
L 256.30615 298.051485 
L 256.30615 293.489109 
L 258.37215 293.489109 
L 258.37215 288.926733 
L 258.75728 288.926733 
L 258.75728 284.364356 
L 259.590034 284.364356 
L 259.590034 279.80198 
L 261.222334 279.80198 
L 261.222334 275.239604 
L 262.021277 275.239604 
L 262.021277 270.677228 
L 264.725325 270.677228 
L 264.725325 266.114851 
L 265.117893 266.114851 
L 265.117893 261.552475 
L 265.543885 261.552475 
L 265.543885 256.990099 
L 265.924998 256.990099 
L 265.924998 252.427723 
L 267.191365 252.427723 
L 267.191365 247.865347 
L 267.804472 247.865347 
L 267.804472 243.30297 
L 268.078307 243.30297 
L 268.078307 238.740594 
L 268.272378 238.740594 
L 268.272378 234.178218 
L 268.51429 234.178218 
L 268.57817 220.491089 
L 268.876481 220.491089 
L 268.876481 215.928713 
L 269.257334 215.928713 
L 269.257334 211.366337 
L 269.73117 211.366337 
L 269.73117 206.80396 
L 269.877126 206.80396 
L 269.979599 197.679208 
L 270.047361 197.679208 
L 270.047361 193.116832 
L 270.302207 193.116832 
L 270.358415 183.992079 
L 270.558172 183.992079 
L 270.600347 170.30495 
L 271.140685 170.30495 
L 271.250319 161.180198 
L 271.445498 161.180198 
L 271.506134 152.055446 
L 272.098546 152.055446 
L 272.098546 147.493069 
L 273.382068 147.493069 
L 273.382068 142.930693 
L 274.281865 142.930693 
L 274.291554 133.805941 
L 275.553738 133.805941 
L 275.553738 129.243564 
L 276.026044 129.243564 
L 276.026044 124.681188 
L 276.57307 124.681188 
L 276.57307 120.118812 
L 276.866725 120.118812 
L 276.866725 115.556436 
L 278.108419 115.556436 
L 278.108419 110.994059 
L 279.139089 110.994059 
L 279.139089 106.431683 
L 280.20468 106.431683 
L 280.20468 101.869307 
L 280.575205 101.869307 
L 280.581136 92.744554 
L 281.301973 92.744554 
L 281.301973 88.182178 
L 282.686596 88.182178 
L 282.686596 83.619802 
L 286.384848 83.619802 
L 286.384848 79.057426 
L 325.945064 79.057426 
L 325.945064 74.49505 
L 338.336112 74.49505 
L 338.336112 69.932673 
L 349.417147 69.932673 
L 349.417147 65.370297 
L 350.946767 65.370297 
L 350.946767 60.807921 
L 353.476115 60.807921 
L 353.476115 56.245545 
L 360.392022 56.245545 
L 360.392022 51.683168 
L 362.720926 51.683168 
L 362.720926 47.120792 
L 372.252882 47.120792 
L 372.252882 42.558416 
L 373.455455 42.558416 
L 373.455455 37.99604 
L 389.660164 37.99604 
L 389.660164 33.433663 
L 390.652259 33.433663 
L 390.652259 28.871287 
L 392.853695 28.871287 
L 392.853695 24.308911 
L 393.58273 24.308911 
L 393.58273 19.746535 
L 395.324739 19.746535 
L 395.324739 15.184158 
L 399.1276 15.184158 
L 399.1276 10.621782 
L 399.1276 10.621782 
L 453.6 10.621782 
L 453.6 10.621782 
" style="fill:none;stroke:#bf00bf;stroke-linecap:square;"/>
   </g>
   <g id="line2d_7">
    <path clip-path="url(#p0c58fc0560)" d="M 218.864869 352.8 
L 218.864869 348.237624 
L 236.303114 348.237624 
L 236.303114 343.675248 
L 248.329527 343.675248 
L 248.329527 339.112871 
L 248.518516 339.112871 
L 248.518516 334.550495 
L 248.668489 334.550495 
L 248.668489 329.988119 
L 251.365162 329.988119 
L 251.365162 325.425743 
L 254.473149 325.425743 
L 254.473149 320.863366 
L 254.988816 320.863366 
L 255.061944 311.738614 
L 255.335473 311.738614 
L 255.335473 307.176238 
L 255.564109 307.176238 
L 255.564109 302.613861 
L 256.02242 302.613861 
L 256.02242 298.051485 
L 256.30615 298.051485 
L 256.30615 293.489109 
L 258.37215 293.489109 
L 258.37215 288.926733 
L 258.75728 288.926733 
L 258.75728 284.364356 
L 259.590034 284.364356 
L 259.590034 279.80198 
L 261.222334 279.80198 
L 261.222334 275.239604 
L 262.021277 275.239604 
L 262.021277 270.677228 
L 264.725325 270.677228 
L 264.725325 266.114851 
L 265.117893 266.114851 
L 265.117893 261.552475 
L 265.543885 261.552475 
L 265.543885 256.990099 
L 265.924998 256.990099 
L 265.924998 252.427723 
L 267.191365 252.427723 
L 267.191365 247.865347 
L 267.804472 247.865347 
L 267.804472 243.30297 
L 268.078307 243.30297 
L 268.078307 238.740594 
L 268.272378 238.740594 
L 268.272378 234.178218 
L 268.51429 234.178218 
L 268.57817 220.491089 
L 268.876481 220.491089 
L 268.876481 215.928713 
L 269.257334 215.928713 
L 269.257334 211.366337 
L 269.73117 211.366337 
L 269.73117 206.80396 
L 269.877126 206.80396 
L 269.979599 197.679208 
L 270.047361 197.679208 
L 270.047361 193.116832 
L 270.302207 193.116832 
L 270.358415 183.992079 
L 270.558172 183.992079 
L 270.600347 170.30495 
L 271.140685 170.30495 
L 271.250319 161.180198 
L 271.445498 161.180198 
L 271.506134 152.055446 
L 272.098546 152.055446 
L 272.098546 147.493069 
L 273.382068 147.493069 
L 273.382068 142.930693 
L 274.281865 142.930693 
L 274.291554 133.805941 
L 275.553738 133.805941 
L 275.553738 129.243564 
L 276.026044 129.243564 
L 276.026044 124.681188 
L 276.57307 124.681188 
L 276.57307 120.118812 
L 276.866725 120.118812 
L 276.866725 115.556436 
L 278.108419 115.556436 
L 278.108419 110.994059 
L 279.139089 110.994059 
L 279.139089 106.431683 
L 280.20468 106.431683 
L 280.20468 101.869307 
L 280.575205 101.869307 
L 280.581136 92.744554 
L 281.301973 92.744554 
L 281.301973 88.182178 
L 282.686596 88.182178 
L 282.686596 83.619802 
L 286.384848 83.619802 
L 286.384848 79.057426 
L 325.945064 79.057426 
L 325.945064 74.49505 
L 338.336112 74.49505 
L 338.336112 69.932673 
L 349.417147 69.932673 
L 349.417147 65.370297 
L 350.946767 65.370297 
L 350.946767 60.807921 
L 353.476115 60.807921 
L 353.476115 56.245545 
L 360.392022 56.245545 
L 360.392022 51.683168 
L 362.720926 51.683168 
L 362.720926 47.120792 
L 372.252882 47.120792 
L 372.252882 42.558416 
L 373.455455 42.558416 
L 373.455455 37.99604 
L 389.660164 37.99604 
L 389.660164 33.433663 
L 390.652259 33.433663 
L 390.652259 28.871287 
L 392.853695 28.871287 
L 392.853695 24.308911 
L 393.58273 24.308911 
L 393.58273 19.746535 
L 395.324739 19.746535 
L 395.324739 15.184158 
L 399.1276 15.184158 
L 399.1276 10.621782 
L 399.1276 10.621782 
L 453.6 10.621782 
L 453.6 10.621782 
" style="fill:none;stroke:#000000;stroke-linecap:square;"/>
   </g>
   <g id="patch_3">
    <path d="M 7.2 7.2 
L 453.6 7.2 
" style="fill:none;stroke:#000000;stroke-linecap:square;stroke-linejoin:miter;"/>
   </g>
   <g id="patch_4">
    <path d="M 453.6 352.8 
L 453.6 7.2 
" style="fill:none;stroke:#000000;stroke-linecap:square;stroke-linejoin:miter;"/>
   </g>
   <g id="patch_5">
    <path d="M 7.2 352.8 
L 453.6 352.8 
" style="fill:none;stroke:#000000;stroke-linecap:square;stroke-linejoin:miter;"/>
   </g>
   <g id="patch_6">
    <path d="M 7.2 352.8 
L 7.2 7.2 
" style="fill:none;stroke:#000000;stroke-linecap:square;stroke-linejoin:miter;"/>
   </g>
   <g id="matplotlib.axis_1">
    <g id="xtick_1">
     <g id="line2d_8">
      <path clip-path="url(#p0c58fc0560)" d="M 59.617497 352.8 
L 59.617497 7.2 
" style="fill:none;stroke:#000000;stroke-dasharray:1.000000,3.000000;stroke-dashoffset:0.0;stroke-width:0.5;"/>
     </g>
     <g id="line2d_9">
      <defs>
       <path d="M 0 0 
L 0 -4 
" id="m62b9a3bb72" style="stroke:#000000;stroke-width:0.5;"/>
      </defs>
      <g>
       <use style="stroke:#000000;stroke-width:0.5;" x="59.6174973142" xlink:href="#m62b9a3bb72" y="352.8"/>
      </g>
     </g>
     <g id="line2d_10">
      <defs>
       <path d="M 0 0 
L 0 4 
" id="m170065ab9f" style="stroke:#000000;stroke-width:0.5;"/>
      </defs>
      <g>
       <use style="stroke:#000000;stroke-width:0.5;" x="59.6174973142" xlink:href="#m170065ab9f" y="7.2"/>
      </g>
     </g>
     <g id="text_1">
      <!-- -6 -->
      <defs>
       <path d="M 33.015625 40.375 
Q 26.375 40.375 22.484375 35.828125 
Q 18.609375 31.296875 18.609375 23.390625 
Q 18.609375 15.53125 22.484375 10.953125 
Q 26.375 6.390625 33.015625 6.390625 
Q 39.65625 6.390625 43.53125 10.953125 
Q 47.40625 15.53125 47.40625 23.390625 
Q 47.40625 31.296875 43.53125 35.828125 
Q 39.65625 40.375 33.015625 40.375 
M 52.59375 71.296875 
L 52.59375 62.3125 
Q 48.875 64.0625 45.09375 64.984375 
Q 41.3125 65.921875 37.59375 65.921875 
Q 27.828125 65.921875 22.671875 59.328125 
Q 17.53125 52.734375 16.796875 39.40625 
Q 19.671875 43.65625 24.015625 45.921875 
Q 28.375 48.1875 33.59375 48.1875 
Q 44.578125 48.1875 50.953125 41.515625 
Q 57.328125 34.859375 57.328125 23.390625 
Q 57.328125 12.15625 50.6875 5.359375 
Q 44.046875 -1.421875 33.015625 -1.421875 
Q 20.359375 -1.421875 13.671875 8.265625 
Q 6.984375 17.96875 6.984375 36.375 
Q 6.984375 53.65625 15.1875 63.9375 
Q 23.390625 74.21875 37.203125 74.21875 
Q 40.921875 74.21875 44.703125 73.484375 
Q 48.484375 72.75 52.59375 71.296875 
" id="BitstreamVeraSans-Roman-36"/>
       <path d="M 4.890625 31.390625 
L 31.203125 31.390625 
L 31.203125 23.390625 
L 4.890625 23.390625 
z
" id="BitstreamVeraSans-Roman-2d"/>
      </defs>
      <g transform="translate(49.6471848142 371.996875)scale(0.2 -0.2)">
       <use xlink:href="#BitstreamVeraSans-Roman-2d"/>
       <use x="36.083984375" xlink:href="#BitstreamVeraSans-Roman-36"/>
      </g>
     </g>
    </g>
    <g id="xtick_2">
     <g id="line2d_11">
      <path clip-path="url(#p0c58fc0560)" d="M 112.148498 352.8 
L 112.148498 7.2 
" style="fill:none;stroke:#000000;stroke-dasharray:1.000000,3.000000;stroke-dashoffset:0.0;stroke-width:0.5;"/>
     </g>
     <g id="line2d_12">
      <g>
       <use style="stroke:#000000;stroke-width:0.5;" x="112.148497672" xlink:href="#m62b9a3bb72" y="352.8"/>
      </g>
     </g>
     <g id="line2d_13">
      <g>
       <use style="stroke:#000000;stroke-width:0.5;" x="112.148497672" xlink:href="#m170065ab9f" y="7.2"/>
      </g>
     </g>
     <g id="text_2">
      <!-- -4 -->
      <defs>
       <path d="M 37.796875 64.3125 
L 12.890625 25.390625 
L 37.796875 25.390625 
z
M 35.203125 72.90625 
L 47.609375 72.90625 
L 47.609375 25.390625 
L 58.015625 25.390625 
L 58.015625 17.1875 
L 47.609375 17.1875 
L 47.609375 0 
L 37.796875 0 
L 37.796875 17.1875 
L 4.890625 17.1875 
L 4.890625 26.703125 
z
" id="BitstreamVeraSans-Roman-34"/>
      </defs>
      <g transform="translate(102.178185172 371.996875)scale(0.2 -0.2)">
       <use xlink:href="#BitstreamVeraSans-Roman-2d"/>
       <use x="36.083984375" xlink:href="#BitstreamVeraSans-Roman-34"/>
      </g>
     </g>
    </g>
    <g id="xtick_3">
     <g id="line2d_14">
      <path clip-path="url(#p0c58fc0560)" d="M 164.679498 352.8 
L 164.679498 7.2 
" style="fill:none;stroke:#000000;stroke-dasharray:1.000000,3.000000;stroke-dashoffset:0.0;stroke-width:0.5;"/>
     </g>
     <g id="line2d_15">
      <g>
       <use style="stroke:#000000;stroke-width:0.5;" x="164.67949803" xlink:href="#m62b9a3bb72" y="352.8"/>
      </g>
     </g>
     <g id="line2d_16">
      <g>
       <use style="stroke:#000000;stroke-width:0.5;" x="164.67949803" xlink:href="#m170065ab9f" y="7.2"/>
      </g>
     </g>
     <g id="text_3">
      <!-- -2 -->
      <defs>
       <path d="M 19.1875 8.296875 
L 53.609375 8.296875 
L 53.609375 0 
L 7.328125 0 
L 7.328125 8.296875 
Q 12.9375 14.109375 22.625 23.890625 
Q 32.328125 33.6875 34.8125 36.53125 
Q 39.546875 41.84375 41.421875 45.53125 
Q 43.3125 49.21875 43.3125 52.78125 
Q 43.3125 58.59375 39.234375 62.25 
Q 35.15625 65.921875 28.609375 65.921875 
Q 23.96875 65.921875 18.8125 64.3125 
Q 13.671875 62.703125 7.8125 59.421875 
L 7.8125 69.390625 
Q 13.765625 71.78125 18.9375 73 
Q 24.125 74.21875 28.421875 74.21875 
Q 39.75 74.21875 46.484375 68.546875 
Q 53.21875 62.890625 53.21875 53.421875 
Q 53.21875 48.921875 51.53125 44.890625 
Q 49.859375 40.875 45.40625 35.40625 
Q 44.1875 33.984375 37.640625 27.21875 
Q 31.109375 20.453125 19.1875 8.296875 
" id="BitstreamVeraSans-Roman-32"/>
      </defs>
      <g transform="translate(154.70918553 371.996875)scale(0.2 -0.2)">
       <use xlink:href="#BitstreamVeraSans-Roman-2d"/>
       <use x="36.083984375" xlink:href="#BitstreamVeraSans-Roman-32"/>
      </g>
     </g>
    </g>
    <g id="xtick_4">
     <g id="line2d_17">
      <path clip-path="url(#p0c58fc0560)" d="M 217.210498 352.8 
L 217.210498 7.2 
" style="fill:none;stroke:#000000;stroke-dasharray:1.000000,3.000000;stroke-dashoffset:0.0;stroke-width:0.5;"/>
     </g>
     <g id="line2d_18">
      <g>
       <use style="stroke:#000000;stroke-width:0.5;" x="217.210498389" xlink:href="#m62b9a3bb72" y="352.8"/>
      </g>
     </g>
     <g id="line2d_19">
      <g>
       <use style="stroke:#000000;stroke-width:0.5;" x="217.210498389" xlink:href="#m170065ab9f" y="7.2"/>
      </g>
     </g>
     <g id="text_4">
      <!-- 0 -->
      <defs>
       <path d="M 31.78125 66.40625 
Q 24.171875 66.40625 20.328125 58.90625 
Q 16.5 51.421875 16.5 36.375 
Q 16.5 21.390625 20.328125 13.890625 
Q 24.171875 6.390625 31.78125 6.390625 
Q 39.453125 6.390625 43.28125 13.890625 
Q 47.125 21.390625 47.125 36.375 
Q 47.125 51.421875 43.28125 58.90625 
Q 39.453125 66.40625 31.78125 66.40625 
M 31.78125 74.21875 
Q 44.046875 74.21875 50.515625 64.515625 
Q 56.984375 54.828125 56.984375 36.375 
Q 56.984375 17.96875 50.515625 8.265625 
Q 44.046875 -1.421875 31.78125 -1.421875 
Q 19.53125 -1.421875 13.0625 8.265625 
Q 6.59375 17.96875 6.59375 36.375 
Q 6.59375 54.828125 13.0625 64.515625 
Q 19.53125 74.21875 31.78125 74.21875 
" id="BitstreamVeraSans-Roman-30"/>
      </defs>
      <g transform="translate(210.847998389 371.996875)scale(0.2 -0.2)">
       <use xlink:href="#BitstreamVeraSans-Roman-30"/>
      </g>
     </g>
    </g>
    <g id="xtick_5">
     <g id="line2d_20">
      <path clip-path="url(#p0c58fc0560)" d="M 269.741499 352.8 
L 269.741499 7.2 
" style="fill:none;stroke:#000000;stroke-dasharray:1.000000,3.000000;stroke-dashoffset:0.0;stroke-width:0.5;"/>
     </g>
     <g id="line2d_21">
      <g>
       <use style="stroke:#000000;stroke-width:0.5;" x="269.741498747" xlink:href="#m62b9a3bb72" y="352.8"/>
      </g>
     </g>
     <g id="line2d_22">
      <g>
       <use style="stroke:#000000;stroke-width:0.5;" x="269.741498747" xlink:href="#m170065ab9f" y="7.2"/>
      </g>
     </g>
     <g id="text_5">
      <!-- 2 -->
      <g transform="translate(263.378998747 371.996875)scale(0.2 -0.2)">
       <use xlink:href="#BitstreamVeraSans-Roman-32"/>
      </g>
     </g>
    </g>
    <g id="xtick_6">
     <g id="line2d_23">
      <path clip-path="url(#p0c58fc0560)" d="M 322.272499 352.8 
L 322.272499 7.2 
" style="fill:none;stroke:#000000;stroke-dasharray:1.000000,3.000000;stroke-dashoffset:0.0;stroke-width:0.5;"/>
     </g>
     <g id="line2d_24">
      <g>
       <use style="stroke:#000000;stroke-width:0.5;" x="322.272499105" xlink:href="#m62b9a3bb72" y="352.8"/>
      </g>
     </g>
     <g id="line2d_25">
      <g>
       <use style="stroke:#000000;stroke-width:0.5;" x="322.272499105" xlink:href="#m170065ab9f" y="7.2"/>
      </g>
     </g>
     <g id="text_6">
      <!-- 4 -->
      <g transform="translate(315.909999105 371.996875)scale(0.2 -0.2)">
       <use xlink:href="#BitstreamVeraSans-Roman-34"/>
      </g>
     </g>
    </g>
    <g id="xtick_7">
     <g id="line2d_26">
      <path clip-path="url(#p0c58fc0560)" d="M 374.803499 352.8 
L 374.803499 7.2 
" style="fill:none;stroke:#000000;stroke-dasharray:1.000000,3.000000;stroke-dashoffset:0.0;stroke-width:0.5;"/>
     </g>
     <g id="line2d_27">
      <g>
       <use style="stroke:#000000;stroke-width:0.5;" x="374.803499463" xlink:href="#m62b9a3bb72" y="352.8"/>
      </g>
     </g>
     <g id="line2d_28">
      <g>
       <use style="stroke:#000000;stroke-width:0.5;" x="374.803499463" xlink:href="#m170065ab9f" y="7.2"/>
      </g>
     </g>
     <g id="text_7">
      <!-- 6 -->
      <g transform="translate(368.440999463 371.996875)scale(0.2 -0.2)">
       <use xlink:href="#BitstreamVeraSans-Roman-36"/>
      </g>
     </g>
    </g>
    <g id="xtick_8">
     <g id="line2d_29">
      <path clip-path="url(#p0c58fc0560)" d="M 427.3345 352.8 
L 427.3345 7.2 
" style="fill:none;stroke:#000000;stroke-dasharray:1.000000,3.000000;stroke-dashoffset:0.0;stroke-width:0.5;"/>
     </g>
     <g id="line2d_30">
      <g>
       <use style="stroke:#000000;stroke-width:0.5;" x="427.334499821" xlink:href="#m62b9a3bb72" y="352.8"/>
      </g>
     </g>
     <g id="line2d_31">
      <g>
       <use style="stroke:#000000;stroke-width:0.5;" x="427.334499821" xlink:href="#m170065ab9f" y="7.2"/>
      </g>
     </g>
     <g id="text_8">
      <!-- 8 -->
      <defs>
       <path d="M 31.78125 34.625 
Q 24.75 34.625 20.71875 30.859375 
Q 16.703125 27.09375 16.703125 20.515625 
Q 16.703125 13.921875 20.71875 10.15625 
Q 24.75 6.390625 31.78125 6.390625 
Q 38.8125 6.390625 42.859375 10.171875 
Q 46.921875 13.96875 46.921875 20.515625 
Q 46.921875 27.09375 42.890625 30.859375 
Q 38.875 34.625 31.78125 34.625 
M 21.921875 38.8125 
Q 15.578125 40.375 12.03125 44.71875 
Q 8.5 49.078125 8.5 55.328125 
Q 8.5 64.0625 14.71875 69.140625 
Q 20.953125 74.21875 31.78125 74.21875 
Q 42.671875 74.21875 48.875 69.140625 
Q 55.078125 64.0625 55.078125 55.328125 
Q 55.078125 49.078125 51.53125 44.71875 
Q 48 40.375 41.703125 38.8125 
Q 48.828125 37.15625 52.796875 32.3125 
Q 56.78125 27.484375 56.78125 20.515625 
Q 56.78125 9.90625 50.3125 4.234375 
Q 43.84375 -1.421875 31.78125 -1.421875 
Q 19.734375 -1.421875 13.25 4.234375 
Q 6.78125 9.90625 6.78125 20.515625 
Q 6.78125 27.484375 10.78125 32.3125 
Q 14.796875 37.15625 21.921875 38.8125 
M 18.3125 54.390625 
Q 18.3125 48.734375 21.84375 45.5625 
Q 25.390625 42.390625 31.78125 42.390625 
Q 38.140625 42.390625 41.71875 45.5625 
Q 45.3125 48.734375 45.3125 54.390625 
Q 45.3125 60.0625 41.71875 63.234375 
Q 38.140625 66.40625 31.78125 66.40625 
Q 25.390625 66.40625 21.84375 63.234375 
Q 18.3125 60.0625 18.3125 54.390625 
" id="BitstreamVeraSans-Roman-38"/>
      </defs>
      <g transform="translate(420.971999821 371.996875)scale(0.2 -0.2)">
       <use xlink:href="#BitstreamVeraSans-Roman-38"/>
      </g>
     </g>
    </g>
    <g id="xtick_9">
     <g id="line2d_32">
      <defs>
       <path d="M 0 0 
L 0 -2 
" id="m2637b19477" style="stroke:#000000;stroke-width:0.5;"/>
      </defs>
      <g>
       <use style="stroke:#000000;stroke-width:0.5;" x="59.6174973142" xlink:href="#m2637b19477" y="352.8"/>
      </g>
     </g>
     <g id="line2d_33">
      <defs>
       <path d="M 0 0 
L 0 2 
" id="m4739b7eece" style="stroke:#000000;stroke-width:0.5;"/>
      </defs>
      <g>
       <use style="stroke:#000000;stroke-width:0.5;" x="59.6174973142" xlink:href="#m4739b7eece" y="7.2"/>
      </g>
     </g>
    </g>
    <g id="xtick_10">
     <g id="line2d_34">
      <g>
       <use style="stroke:#000000;stroke-width:0.5;" x="112.148497672" xlink:href="#m2637b19477" y="352.8"/>
      </g>
     </g>
     <g id="line2d_35">
      <g>
       <use style="stroke:#000000;stroke-width:0.5;" x="112.148497672" xlink:href="#m4739b7eece" y="7.2"/>
      </g>
     </g>
    </g>
    <g id="xtick_11">
     <g id="line2d_36">
      <g>
       <use style="stroke:#000000;stroke-width:0.5;" x="164.67949803" xlink:href="#m2637b19477" y="352.8"/>
      </g>
     </g>
     <g id="line2d_37">
      <g>
       <use style="stroke:#000000;stroke-width:0.5;" x="164.67949803" xlink:href="#m4739b7eece" y="7.2"/>
      </g>
     </g>
    </g>
    <g id="xtick_12">
     <g id="line2d_38">
      <g>
       <use style="stroke:#000000;stroke-width:0.5;" x="217.210498389" xlink:href="#m2637b19477" y="352.8"/>
      </g>
     </g>
     <g id="line2d_39">
      <g>
       <use style="stroke:#000000;stroke-width:0.5;" x="217.210498389" xlink:href="#m4739b7eece" y="7.2"/>
      </g>
     </g>
    </g>
    <g id="xtick_13">
     <g id="line2d_40">
      <g>
       <use style="stroke:#000000;stroke-width:0.5;" x="269.741498747" xlink:href="#m2637b19477" y="352.8"/>
      </g>
     </g>
     <g id="line2d_41">
      <g>
       <use style="stroke:#000000;stroke-width:0.5;" x="269.741498747" xlink:href="#m4739b7eece" y="7.2"/>
      </g>
     </g>
    </g>
    <g id="xtick_14">
     <g id="line2d_42">
      <g>
       <use style="stroke:#000000;stroke-width:0.5;" x="322.272499105" xlink:href="#m2637b19477" y="352.8"/>
      </g>
     </g>
     <g id="line2d_43">
      <g>
       <use style="stroke:#000000;stroke-width:0.5;" x="322.272499105" xlink:href="#m4739b7eece" y="7.2"/>
      </g>
     </g>
    </g>
    <g id="xtick_15">
     <g id="line2d_44">
      <g>
       <use style="stroke:#000000;stroke-width:0.5;" x="374.803499463" xlink:href="#m2637b19477" y="352.8"/>
      </g>
     </g>
     <g id="line2d_45">
      <g>
       <use style="stroke:#000000;stroke-width:0.5;" x="374.803499463" xlink:href="#m4739b7eece" y="7.2"/>
      </g>
     </g>
    </g>
    <g id="xtick_16">
     <g id="line2d_46">
      <g>
       <use style="stroke:#000000;stroke-width:0.5;" x="427.334499821" xlink:href="#m2637b19477" y="352.8"/>
      </g>
     </g>
     <g id="line2d_47">
      <g>
       <use style="stroke:#000000;stroke-width:0.5;" x="427.334499821" xlink:href="#m4739b7eece" y="7.2"/>
      </g>
     </g>
    </g>
    <g id="text_9">
     <!-- log10 of Df -->
     <defs>
      <path id="BitstreamVeraSans-Roman-20"/>
      <path d="M 12.40625 8.296875 
L 28.515625 8.296875 
L 28.515625 63.921875 
L 10.984375 60.40625 
L 10.984375 69.390625 
L 28.421875 72.90625 
L 38.28125 72.90625 
L 38.28125 8.296875 
L 54.390625 8.296875 
L 54.390625 0 
L 12.40625 0 
z
" id="BitstreamVeraSans-Roman-31"/>
      <path d="M 30.609375 48.390625 
Q 23.390625 48.390625 19.1875 42.75 
Q 14.984375 37.109375 14.984375 27.296875 
Q 14.984375 17.484375 19.15625 11.84375 
Q 23.34375 6.203125 30.609375 6.203125 
Q 37.796875 6.203125 41.984375 11.859375 
Q 46.1875 17.53125 46.1875 27.296875 
Q 46.1875 37.015625 41.984375 42.703125 
Q 37.796875 48.390625 30.609375 48.390625 
M 30.609375 56 
Q 42.328125 56 49.015625 48.375 
Q 55.71875 40.765625 55.71875 27.296875 
Q 55.71875 13.875 49.015625 6.21875 
Q 42.328125 -1.421875 30.609375 -1.421875 
Q 18.84375 -1.421875 12.171875 6.21875 
Q 5.515625 13.875 5.515625 27.296875 
Q 5.515625 40.765625 12.171875 48.375 
Q 18.84375 56 30.609375 56 
" id="BitstreamVeraSans-Roman-6f"/>
      <path d="M 9.421875 75.984375 
L 18.40625 75.984375 
L 18.40625 0 
L 9.421875 0 
z
" id="BitstreamVeraSans-Roman-6c"/>
      <path d="M 19.671875 64.796875 
L 19.671875 8.109375 
L 31.59375 8.109375 
Q 46.6875 8.109375 53.6875 14.9375 
Q 60.6875 21.78125 60.6875 36.53125 
Q 60.6875 51.171875 53.6875 57.984375 
Q 46.6875 64.796875 31.59375 64.796875 
z
M 9.8125 72.90625 
L 30.078125 72.90625 
Q 51.265625 72.90625 61.171875 64.09375 
Q 71.09375 55.28125 71.09375 36.53125 
Q 71.09375 17.671875 61.125 8.828125 
Q 51.171875 0 30.078125 0 
L 9.8125 0 
z
" id="BitstreamVeraSans-Roman-44"/>
      <path d="M 45.40625 27.984375 
Q 45.40625 37.75 41.375 43.109375 
Q 37.359375 48.484375 30.078125 48.484375 
Q 22.859375 48.484375 18.828125 43.109375 
Q 14.796875 37.75 14.796875 27.984375 
Q 14.796875 18.265625 18.828125 12.890625 
Q 22.859375 7.515625 30.078125 7.515625 
Q 37.359375 7.515625 41.375 12.890625 
Q 45.40625 18.265625 45.40625 27.984375 
M 54.390625 6.78125 
Q 54.390625 -7.171875 48.1875 -13.984375 
Q 42 -20.796875 29.203125 -20.796875 
Q 24.46875 -20.796875 20.265625 -20.09375 
Q 16.0625 -19.390625 12.109375 -17.921875 
L 12.109375 -9.1875 
Q 16.0625 -11.328125 19.921875 -12.34375 
Q 23.78125 -13.375 27.78125 -13.375 
Q 36.625 -13.375 41.015625 -8.765625 
Q 45.40625 -4.15625 45.40625 5.171875 
L 45.40625 9.625 
Q 42.625 4.78125 38.28125 2.390625 
Q 33.9375 0 27.875 0 
Q 17.828125 0 11.671875 7.65625 
Q 5.515625 15.328125 5.515625 27.984375 
Q 5.515625 40.671875 11.671875 48.328125 
Q 17.828125 56 27.875 56 
Q 33.9375 56 38.28125 53.609375 
Q 42.625 51.21875 45.40625 46.390625 
L 45.40625 54.6875 
L 54.390625 54.6875 
z
" id="BitstreamVeraSans-Roman-67"/>
      <path d="M 37.109375 75.984375 
L 37.109375 68.5 
L 28.515625 68.5 
Q 23.6875 68.5 21.796875 66.546875 
Q 19.921875 64.59375 19.921875 59.515625 
L 19.921875 54.6875 
L 34.71875 54.6875 
L 34.71875 47.703125 
L 19.921875 47.703125 
L 19.921875 0 
L 10.890625 0 
L 10.890625 47.703125 
L 2.296875 47.703125 
L 2.296875 54.6875 
L 10.890625 54.6875 
L 10.890625 58.5 
Q 10.890625 67.625 15.140625 71.796875 
Q 19.390625 75.984375 28.609375 75.984375 
z
" id="BitstreamVeraSans-Roman-66"/>
     </defs>
     <g transform="translate(175.2140625 396.353125)scale(0.2 -0.2)">
      <use xlink:href="#BitstreamVeraSans-Roman-6c"/>
      <use x="27.783203125" xlink:href="#BitstreamVeraSans-Roman-6f"/>
      <use x="88.96484375" xlink:href="#BitstreamVeraSans-Roman-67"/>
      <use x="152.44140625" xlink:href="#BitstreamVeraSans-Roman-31"/>
      <use x="216.064453125" xlink:href="#BitstreamVeraSans-Roman-30"/>
      <use x="279.6875" xlink:href="#BitstreamVeraSans-Roman-20"/>
      <use x="311.474609375" xlink:href="#BitstreamVeraSans-Roman-6f"/>
      <use x="372.65625" xlink:href="#BitstreamVeraSans-Roman-66"/>
      <use x="407.861328125" xlink:href="#BitstreamVeraSans-Roman-20"/>
      <use x="439.6484375" xlink:href="#BitstreamVeraSans-Roman-44"/>
      <use x="516.650390625" xlink:href="#BitstreamVeraSans-Roman-66"/>
     </g>
    </g>
   </g>
   <g id="matplotlib.axis_2">
    <g id="ytick_1">
     <g id="line2d_48">
      <path clip-path="url(#p0c58fc0560)" d="M 7.2 352.8 
L 453.6 352.8 
" style="fill:none;stroke:#000000;stroke-dasharray:1.000000,3.000000;stroke-dashoffset:0.0;stroke-width:0.5;"/>
     </g>
     <g id="line2d_49">
      <defs>
       <path d="M 0 0 
L 4 0 
" id="mac3333cdad" style="stroke:#000000;stroke-width:0.5;"/>
      </defs>
      <g>
       <use style="stroke:#000000;stroke-width:0.5;" x="7.2" xlink:href="#mac3333cdad" y="352.8"/>
      </g>
     </g>
     <g id="line2d_50">
      <defs>
       <path d="M 0 0 
L -4 0 
" id="m772e323850" style="stroke:#000000;stroke-width:0.5;"/>
      </defs>
      <g>
       <use style="stroke:#000000;stroke-width:0.5;" x="453.6" xlink:href="#m772e323850" y="352.8"/>
      </g>
     </g>
    </g>
    <g id="ytick_2">
     <g id="line2d_51">
      <path clip-path="url(#p0c58fc0560)" d="M 7.2 284.364356 
L 453.6 284.364356 
" style="fill:none;stroke:#000000;stroke-dasharray:1.000000,3.000000;stroke-dashoffset:0.0;stroke-width:0.5;"/>
     </g>
     <g id="line2d_52">
      <g>
       <use style="stroke:#000000;stroke-width:0.5;" x="7.2" xlink:href="#mac3333cdad" y="284.364356436"/>
      </g>
     </g>
     <g id="line2d_53">
      <g>
       <use style="stroke:#000000;stroke-width:0.5;" x="453.6" xlink:href="#m772e323850" y="284.364356436"/>
      </g>
     </g>
    </g>
    <g id="ytick_3">
     <g id="line2d_54">
      <path clip-path="url(#p0c58fc0560)" d="M 7.2 215.928713 
L 453.6 215.928713 
" style="fill:none;stroke:#000000;stroke-dasharray:1.000000,3.000000;stroke-dashoffset:0.0;stroke-width:0.5;"/>
     </g>
     <g id="line2d_55">
      <g>
       <use style="stroke:#000000;stroke-width:0.5;" x="7.2" xlink:href="#mac3333cdad" y="215.928712871"/>
      </g>
     </g>
     <g id="line2d_56">
      <g>
       <use style="stroke:#000000;stroke-width:0.5;" x="453.6" xlink:href="#m772e323850" y="215.928712871"/>
      </g>
     </g>
    </g>
    <g id="ytick_4">
     <g id="line2d_57">
      <path clip-path="url(#p0c58fc0560)" d="M 7.2 147.493069 
L 453.6 147.493069 
" style="fill:none;stroke:#000000;stroke-dasharray:1.000000,3.000000;stroke-dashoffset:0.0;stroke-width:0.5;"/>
     </g>
     <g id="line2d_58">
      <g>
       <use style="stroke:#000000;stroke-width:0.5;" x="7.2" xlink:href="#mac3333cdad" y="147.493069307"/>
      </g>
     </g>
     <g id="line2d_59">
      <g>
       <use style="stroke:#000000;stroke-width:0.5;" x="453.6" xlink:href="#m772e323850" y="147.493069307"/>
      </g>
     </g>
    </g>
    <g id="ytick_5">
     <g id="line2d_60">
      <path clip-path="url(#p0c58fc0560)" d="M 7.2 79.057426 
L 453.6 79.057426 
" style="fill:none;stroke:#000000;stroke-dasharray:1.000000,3.000000;stroke-dashoffset:0.0;stroke-width:0.5;"/>
     </g>
     <g id="line2d_61">
      <g>
       <use style="stroke:#000000;stroke-width:0.5;" x="7.2" xlink:href="#mac3333cdad" y="79.0574257426"/>
      </g>
     </g>
     <g id="line2d_62">
      <g>
       <use style="stroke:#000000;stroke-width:0.5;" x="453.6" xlink:href="#m772e323850" y="79.0574257426"/>
      </g>
     </g>
    </g>
    <g id="ytick_6">
     <g id="line2d_63">
      <path clip-path="url(#p0c58fc0560)" d="M 7.2 10.621782 
L 453.6 10.621782 
" style="fill:none;stroke:#000000;stroke-dasharray:1.000000,3.000000;stroke-dashoffset:0.0;stroke-width:0.5;"/>
     </g>
     <g id="line2d_64">
      <g>
       <use style="stroke:#000000;stroke-width:0.5;" x="7.2" xlink:href="#mac3333cdad" y="10.6217821782"/>
      </g>
     </g>
     <g id="line2d_65">
      <g>
       <use style="stroke:#000000;stroke-width:0.5;" x="453.6" xlink:href="#m772e323850" y="10.6217821782"/>
      </g>
     </g>
    </g>
   </g>
   <g id="text_10">
    <!-- {f1-f5}, 5-D -->
    <defs>
     <path d="M 12.5 -9.28125 
L 15.921875 -9.28125 
Q 22.75 -9.28125 24.828125 -7.171875 
Q 26.90625 -5.078125 26.90625 1.90625 
L 26.90625 14.015625 
Q 26.90625 21.625 29.09375 25.09375 
Q 31.296875 28.5625 36.71875 29.890625 
Q 31.296875 31.109375 29.09375 34.5625 
Q 26.90625 38.03125 26.90625 45.703125 
L 26.90625 57.8125 
Q 26.90625 64.75 24.828125 66.875 
Q 22.75 69 15.921875 69 
L 12.5 69 
L 12.5 75.984375 
L 15.578125 75.984375 
Q 27.734375 75.984375 31.8125 72.390625 
Q 35.890625 68.796875 35.890625 58.015625 
L 35.890625 46.296875 
Q 35.890625 39.015625 38.515625 36.203125 
Q 41.15625 33.40625 48.09375 33.40625 
L 51.125 33.40625 
L 51.125 26.421875 
L 48.09375 26.421875 
Q 41.15625 26.421875 38.515625 23.578125 
Q 35.890625 20.75 35.890625 13.375 
L 35.890625 1.703125 
Q 35.890625 -9.078125 31.8125 -12.6875 
Q 27.734375 -16.3125 15.578125 -16.3125 
L 12.5 -16.3125 
z
" id="BitstreamVeraSans-Roman-7d"/>
     <path d="M 51.125 -9.28125 
L 51.125 -16.3125 
L 48.09375 -16.3125 
Q 35.9375 -16.3125 31.8125 -12.6875 
Q 27.6875 -9.078125 27.6875 1.703125 
L 27.6875 13.375 
Q 27.6875 20.75 25.046875 23.578125 
Q 22.40625 26.421875 15.484375 26.421875 
L 12.5 26.421875 
L 12.5 33.40625 
L 15.484375 33.40625 
Q 22.46875 33.40625 25.078125 36.203125 
Q 27.6875 39.015625 27.6875 46.296875 
L 27.6875 58.015625 
Q 27.6875 68.796875 31.8125 72.390625 
Q 35.9375 75.984375 48.09375 75.984375 
L 51.125 75.984375 
L 51.125 69 
L 47.796875 69 
Q 40.921875 69 38.8125 66.84375 
Q 36.71875 64.703125 36.71875 57.8125 
L 36.71875 45.703125 
Q 36.71875 38.03125 34.5 34.5625 
Q 32.28125 31.109375 26.90625 29.890625 
Q 32.328125 28.5625 34.515625 25.09375 
Q 36.71875 21.625 36.71875 14.015625 
L 36.71875 1.90625 
Q 36.71875 -4.984375 38.8125 -7.125 
Q 40.921875 -9.28125 47.796875 -9.28125 
z
" id="BitstreamVeraSans-Roman-7b"/>
     <path d="M 11.71875 12.40625 
L 22.015625 12.40625 
L 22.015625 4 
L 14.015625 -11.625 
L 7.71875 -11.625 
L 11.71875 4 
z
" id="BitstreamVeraSans-Roman-2c"/>
     <path d="M 10.796875 72.90625 
L 49.515625 72.90625 
L 49.515625 64.59375 
L 19.828125 64.59375 
L 19.828125 46.734375 
Q 21.96875 47.46875 24.109375 47.828125 
Q 26.265625 48.1875 28.421875 48.1875 
Q 40.625 48.1875 47.75 41.5 
Q 54.890625 34.8125 54.890625 23.390625 
Q 54.890625 11.625 47.5625 5.09375 
Q 40.234375 -1.421875 26.90625 -1.421875 
Q 22.3125 -1.421875 17.546875 -0.640625 
Q 12.796875 0.140625 7.71875 1.703125 
L 7.71875 11.625 
Q 12.109375 9.234375 16.796875 8.0625 
Q 21.484375 6.890625 26.703125 6.890625 
Q 35.15625 6.890625 40.078125 11.328125 
Q 45.015625 15.765625 45.015625 23.390625 
Q 45.015625 31 40.078125 35.4375 
Q 35.15625 39.890625 26.703125 39.890625 
Q 22.75 39.890625 18.8125 39.015625 
Q 14.890625 38.140625 10.796875 36.28125 
z
" id="BitstreamVeraSans-Roman-35"/>
    </defs>
    <g transform="translate(324.422 345.888)scale(0.2 -0.2)">
     <use xlink:href="#BitstreamVeraSans-Roman-7b"/>
     <use x="63.623046875" xlink:href="#BitstreamVeraSans-Roman-66"/>
     <use x="98.828125" xlink:href="#BitstreamVeraSans-Roman-31"/>
     <use x="162.451171875" xlink:href="#BitstreamVeraSans-Roman-2d"/>
     <use x="198.53515625" xlink:href="#BitstreamVeraSans-Roman-66"/>
     <use x="233.740234375" xlink:href="#BitstreamVeraSans-Roman-35"/>
     <use x="297.36328125" xlink:href="#BitstreamVeraSans-Roman-7d"/>
     <use x="360.986328125" xlink:href="#BitstreamVeraSans-Roman-2c"/>
     <use x="392.7734375" xlink:href="#BitstreamVeraSans-Roman-20"/>
     <use x="424.560546875" xlink:href="#BitstreamVeraSans-Roman-35"/>
     <use x="488.18359375" xlink:href="#BitstreamVeraSans-Roman-2d"/>
     <use x="524.267578125" xlink:href="#BitstreamVeraSans-Roman-44"/>
    </g>
   </g>
   <g id="text_11">
    <!-- 1.2.1.2 -->
    <defs>
     <path d="M 10.6875 12.40625 
L 21 12.40625 
L 21 0 
L 10.6875 0 
z
" id="BitstreamVeraSans-Roman-2e"/>
    </defs>
    <g style="fill:#808080;" transform="translate(212.9078125 347.2643125)scale(0.1 -0.1)">
     <use xlink:href="#BitstreamVeraSans-Roman-31"/>
     <use x="63.623046875" xlink:href="#BitstreamVeraSans-Roman-2e"/>
     <use x="95.41015625" xlink:href="#BitstreamVeraSans-Roman-32"/>
     <use x="159.033203125" xlink:href="#BitstreamVeraSans-Roman-2e"/>
     <use x="190.8203125" xlink:href="#BitstreamVeraSans-Roman-31"/>
     <use x="254.443359375" xlink:href="#BitstreamVeraSans-Roman-2e"/>
     <use x="286.23046875" xlink:href="#BitstreamVeraSans-Roman-32"/>
    </g>
   </g>
  </g>
 </g>
 <defs>
  <clipPath id="p0c58fc0560">
   <rect height="345.6" width="446.4" x="7.2" y="7.2"/>
  </clipPath>
 </defs>
</svg>
