<?xml version="1.0" encoding="utf-8" standalone="no"?>
<!DOCTYPE svg PUBLIC "-//W3C//DTD SVG 1.1//EN"
  "http://www.w3.org/Graphics/SVG/1.1/DTD/svg11.dtd">
<!-- Created with matplotlib (http://matplotlib.org/) -->
<svg height="432pt" version="1.1" viewBox="0 0 538 432" width="538pt" xmlns="http://www.w3.org/2000/svg" xmlns:xlink="http://www.w3.org/1999/xlink">
 <defs>
  <style type="text/css">
*{stroke-linecap:butt;stroke-linejoin:round;stroke-miterlimit:100000;}
  </style>
 </defs>
 <g id="figure_1">
  <g id="patch_1">
   <path d="M 0 432.43625 
L 538.8 432.43625 
L 538.8 0 
L 0 0 
z
" style="fill:#ffffff;"/>
  </g>
  <g id="axes_1">
   <g id="patch_2">
    <path d="M 85.2 376.03625 
L 531.6 376.03625 
L 531.6 30.43625 
L 85.2 30.43625 
z
" style="fill:#ffffff;"/>
   </g>
   <g id="line2d_1">
    <defs>
     <path d="M 0 1.5 
C 0.397805 1.5 0.77937 1.341951 1.06066 1.06066 
C 1.341951 0.77937 1.5 0.397805 1.5 0 
C 1.5 -0.397805 1.341951 -0.77937 1.06066 -1.06066 
C 0.77937 -1.341951 0.397805 -1.5 0 -1.5 
C -0.397805 -1.5 -0.77937 -1.341951 -1.06066 -1.06066 
C -1.341951 -0.77937 -1.5 -0.397805 -1.5 0 
C -1.5 0.397805 -1.341951 0.77937 -1.06066 1.06066 
C -0.77937 1.341951 -0.397805 1.5 0 1.5 
z
" id="mf768961086" style="stroke:#00bfbf;stroke-width:0.5;"/>
    </defs>
    <g>
     <use style="fill:#00bfbf;stroke:#00bfbf;stroke-width:0.5;" x="332.466044161" xlink:href="#mf768961086" y="33.8580321782"/>
     <use style="fill:#00bfbf;stroke:#00bfbf;stroke-width:0.5;" x="332.466044161" xlink:href="#mf768961086" y="33.8580321782"/>
    </g>
   </g>
   <g id="line2d_2">
    <path d="M 69.718457 376.03625 
L 69.718457 363.959372 
L 85.2 363.959372 
L 85.2 359.262808 
L 100.681543 359.262808 
L 100.681543 358.59187 
L 105.665486 358.59187 
L 105.665486 356.579057 
L 127.006973 356.579057 
L 127.006973 355.90812 
L 132.998688 355.90812 
L 132.998688 355.237182 
L 139.750175 355.237182 
L 139.750175 351.211556 
L 143.331451 351.211556 
L 143.331451 349.86968 
L 144.927497 349.86968 
L 144.927497 347.856867 
L 145.684693 347.856867 
L 145.684693 346.514992 
L 146.417059 346.514992 
L 146.417059 345.844054 
L 150.964471 345.844054 
L 150.964471 342.489366 
L 153.725407 342.489366 
L 153.725407 341.147491 
L 154.238881 341.147491 
L 154.238881 338.46374 
L 154.740815 338.46374 
L 154.740815 337.792802 
L 156.642827 337.792802 
L 156.642827 337.121864 
L 158.812994 337.121864 
L 158.812994 335.109051 
L 160.40904 335.109051 
L 160.40904 333.767176 
L 160.790847 333.767176 
L 160.790847 332.425301 
L 162.255971 332.425301 
L 162.255971 331.083425 
L 163.295003 331.083425 
L 163.295003 325.044986 
L 164.92603 325.044986 
L 164.92603 324.374048 
L 166.446014 324.374048 
L 166.446014 323.703111 
L 166.73798 323.703111 
L 166.73798 322.361235 
L 167.310708 322.361235 
L 167.310708 321.01936 
L 168.413902 321.01936 
L 168.413902 319.677485 
L 170.954723 319.677485 
L 170.954723 317.664672 
L 171.429957 317.664672 
L 171.429957 316.993734 
L 171.663835 316.993734 
L 171.663835 314.309983 
L 172.797842 314.309983 
L 172.797842 313.639046 
L 174.500392 313.639046 
L 174.500392 312.968108 
L 178.776545 312.968108 
L 178.776545 311.626233 
L 180.407572 311.626233 
L 180.407572 308.271544 
L 181.028033 308.271544 
L 181.028033 303.57498 
L 181.482323 303.57498 
L 181.482323 300.220292 
L 182.219523 300.220292 
L 182.219523 298.878417 
L 183.760489 298.878417 
L 183.760489 298.207479 
L 184.558257 298.207479 
L 184.558257 295.523728 
L 185.201966 295.523728 
L 185.201966 294.85279 
L 186.436266 294.85279 
L 186.436266 293.510915 
L 186.556026 293.510915 
L 186.556026 292.839977 
L 187.491666 292.839977 
L 187.491666 292.16904 
L 189.463694 292.16904 
L 189.463694 291.498102 
L 190.388039 291.498102 
L 190.388039 290.827164 
L 190.687844 290.827164 
L 190.687844 290.156227 
L 191.372125 290.156227 
L 191.372125 288.143414 
L 192.129321 288.143414 
L 192.129321 287.472476 
L 192.314676 287.472476 
L 192.40678 284.117788 
L 192.771444 284.117788 
L 192.771444 280.092161 
L 193.219057 280.092161 
L 193.219057 278.079348 
L 196.963865 278.079348 
L 196.963865 277.408411 
L 197.335507 277.408411 
L 197.335507 274.72466 
L 198.90103 274.72466 
L 198.90103 271.369972 
L 200.428247 271.369972 
L 200.428247 270.028096 
L 200.810054 270.028096 
L 200.810054 268.015283 
L 201.797403 268.015283 
L 201.797403 264.660595 
L 202.56868 264.660595 
L 202.56868 263.989657 
L 203.14436 263.989657 
L 203.20112 260.634969 
L 204.090199 260.634969 
L 204.090199 259.964031 
L 204.787391 259.964031 
L 204.787391 259.293093 
L 205.81922 259.293093 
L 205.81922 258.622156 
L 207.796219 258.622156 
L 207.796219 253.254654 
L 210.97393 253.254654 
L 210.97393 251.912779 
L 212.520233 251.912779 
L 212.520233 250.570903 
L 214.824867 250.570903 
L 214.824867 249.899966 
L 215.651577 249.899966 
L 215.651577 249.229028 
L 218.483368 249.229028 
L 218.483368 248.55809 
L 225.536202 248.55809 
L 225.536202 247.216215 
L 228.664151 247.216215 
L 228.664151 245.87434 
L 229.272191 245.87434 
L 229.272191 244.532464 
L 229.63964 244.532464 
L 229.63964 243.190589 
L 229.829727 243.190589 
L 229.829727 241.177776 
L 231.535276 241.177776 
L 231.535276 240.506838 
L 231.788907 240.506838 
L 231.788907 239.835901 
L 232.578655 239.835901 
L 232.578655 239.164963 
L 233.864592 239.164963 
L 233.864592 235.810274 
L 236.246543 235.810274 
L 236.323872 232.455586 
L 236.945566 232.455586 
L 236.945566 231.784648 
L 239.508038 231.784648 
L 239.519192 229.100898 
L 239.884171 229.100898 
L 239.906101 227.759022 
L 240.135069 227.759022 
L 240.221682 222.391521 
L 241.06982 222.391521 
L 241.101007 220.378708 
L 241.328391 220.378708 
L 241.379748 219.036832 
L 241.45145 219.036832 
L 241.492319 217.024019 
L 241.756163 217.024019 
L 241.846773 214.340269 
L 241.94702 214.340269 
L 242.056775 211.656518 
L 242.066727 211.656518 
L 242.106487 206.959954 
L 242.205578 206.959954 
L 242.205578 206.289016 
L 242.655819 206.289016 
L 242.655819 205.618079 
L 243.078155 205.618079 
L 243.078155 204.947141 
L 243.295784 204.947141 
L 243.389748 203.605266 
L 243.501985 203.605266 
L 243.511313 200.921515 
L 243.660028 200.921515 
L 243.660028 200.250577 
L 243.780135 200.250577 
L 243.780135 199.57964 
L 244.335243 199.57964 
L 244.335243 198.908702 
L 245.337066 198.908702 
L 245.337066 197.566827 
L 246.105717 197.566827 
L 246.105717 196.224951 
L 249.078818 196.224951 
L 249.078818 195.554014 
L 250.198644 195.554014 
L 250.212465 194.212138 
L 250.446127 194.212138 
L 250.452963 191.528387 
L 250.589236 191.528387 
L 250.596028 190.186512 
L 251.46184 190.186512 
L 251.46184 188.844637 
L 252.339347 188.844637 
L 252.339347 188.173699 
L 253.213898 188.173699 
L 253.213898 187.502761 
L 253.448217 187.502761 
L 253.448217 186.831824 
L 253.739174 186.831824 
L 253.739174 185.489948 
L 254.984002 185.489948 
L 254.984002 184.819011 
L 255.327286 184.819011 
L 255.327286 184.148073 
L 255.507872 184.148073 
L 255.611188 182.13526 
L 255.778736 182.13526 
L 255.880809 179.451509 
L 255.912946 179.451509 
L 255.982417 175.425883 
L 256.141917 175.425883 
L 256.247621 172.742132 
L 256.295025 172.742132 
L 256.405244 168.045569 
L 256.613693 168.045569 
L 256.613693 167.374631 
L 256.727516 167.374631 
L 256.727516 166.703693 
L 256.871548 166.703693 
L 256.953437 165.361818 
L 257.070628 165.361818 
L 257.07571 163.349005 
L 257.908481 163.349005 
L 257.908481 162.678067 
L 258.08886 162.678067 
L 258.08886 162.007129 
L 258.96486 162.007129 
L 258.96486 161.336192 
L 260.972763 161.336192 
L 260.972763 160.665254 
L 261.163971 160.665254 
L 261.163971 159.994316 
L 262.031183 159.994316 
L 262.031183 159.323379 
L 262.310249 159.323379 
L 262.310249 158.652441 
L 263.900196 158.652441 
L 263.900196 157.981503 
L 264.392563 157.981503 
L 264.392563 157.310566 
L 264.708863 157.310566 
L 264.813309 154.626815 
L 264.820494 154.626815 
L 264.881475 153.28494 
L 264.935144 153.28494 
L 264.974419 149.259313 
L 265.116659 149.259313 
L 265.137917 147.917438 
L 265.415944 147.917438 
L 265.492758 145.233687 
L 265.593609 145.233687 
L 265.593609 144.56275 
L 265.766429 144.56275 
L 265.766429 143.891812 
L 266.023178 143.891812 
L 266.063985 142.549937 
L 268.197693 142.549937 
L 268.203868 141.208061 
L 269.179383 141.208061 
L 269.179383 140.537124 
L 269.563193 140.537124 
L 269.563193 139.866186 
L 269.707964 139.866186 
L 269.707964 139.195248 
L 269.848934 139.195248 
L 269.848934 138.524311 
L 270.362083 138.524311 
L 270.392892 137.182435 
L 270.748307 137.182435 
L 270.748307 136.511498 
L 270.975785 136.511498 
L 270.975785 135.84056 
L 271.125257 135.84056 
L 271.155032 133.156809 
L 271.322115 133.156809 
L 271.426579 131.143996 
L 271.503942 131.143996 
L 271.588998 128.460245 
L 271.647287 128.460245 
L 271.647287 127.789308 
L 271.894639 127.789308 
L 271.965183 126.447432 
L 273.655212 126.447432 
L 273.74211 123.763682 
L 273.768595 123.763682 
L 273.816669 122.421806 
L 274.981513 122.421806 
L 274.98607 121.079931 
L 275.769683 121.079931 
L 275.857513 119.738055 
L 275.918789 119.738055 
L 276.016918 114.370554 
L 276.278657 114.370554 
L 276.328064 111.686803 
L 277.854004 111.686803 
L 277.854004 111.015866 
L 278.039607 111.015866 
L 278.132823 109.003053 
L 278.16842 109.003053 
L 278.16842 108.332115 
L 278.964248 108.332115 
L 279.019478 106.319302 
L 279.110596 106.319302 
L 279.133317 104.977426 
L 279.491889 104.977426 
L 279.491889 104.306489 
L 279.81728 104.306489 
L 279.861287 102.964613 
L 279.959986 102.964613 
L 279.992789 100.9518 
L 280.174155 100.9518 
L 280.255292 97.597112 
L 280.294852 97.597112 
L 280.294852 96.926174 
L 280.464878 96.926174 
L 280.464878 96.255237 
L 281.523433 96.255237 
L 281.523433 95.584299 
L 281.696207 95.584299 
L 281.696207 94.913361 
L 281.810651 94.913361 
L 281.827432 93.571486 
L 282.901586 93.571486 
L 282.901586 92.229611 
L 283.368286 92.229611 
L 283.368286 91.558673 
L 283.5771 91.558673 
L 283.595705 90.216797 
L 284.172453 90.216797 
L 284.172453 89.54586 
L 284.97054 89.54586 
L 284.97054 88.874922 
L 285.64091 88.874922 
L 285.64091 88.203984 
L 286.21745 88.203984 
L 286.309593 85.520234 
L 286.328799 85.520234 
L 286.328799 84.849296 
L 286.484579 84.849296 
L 286.543057 80.82367 
L 287.613058 80.82367 
L 287.613058 80.152732 
L 288.319013 80.152732 
L 288.319013 79.481795 
L 288.838502 79.481795 
L 288.889915 77.468982 
L 289.055587 77.468982 
L 289.09439 76.127106 
L 290.126647 76.127106 
L 290.140525 74.785231 
L 291.220403 74.785231 
L 291.223708 72.772418 
L 291.374091 72.772418 
L 291.386122 70.759605 
L 292.330272 70.759605 
L 292.330272 70.088667 
L 292.783683 70.088667 
L 292.783683 69.417729 
L 293.327529 69.417729 
L 293.338552 68.075854 
L 293.46045 68.075854 
L 293.462443 66.733979 
L 294.325333 66.733979 
L 294.325333 66.063041 
L 295.247372 66.063041 
L 295.25473 64.050228 
L 295.3648 64.050228 
L 295.372119 62.708353 
L 295.64305 62.708353 
L 295.64305 62.037415 
L 296.186715 62.037415 
L 296.186715 61.366477 
L 297.865601 61.366477 
L 297.865601 60.695539 
L 298.664317 60.695539 
L 298.664317 60.024602 
L 299.829251 60.024602 
L 299.829251 59.353664 
L 300.281665 59.353664 
L 300.281665 58.682726 
L 300.895748 58.682726 
L 300.930721 56.669913 
L 301.414677 56.669913 
L 301.414677 55.998976 
L 301.698303 55.998976 
L 301.733419 53.315225 
L 302.665869 53.315225 
L 302.665869 52.644287 
L 302.943915 52.644287 
L 303.042754 51.302412 
L 303.063507 51.302412 
L 303.063507 50.631474 
L 304.227941 50.631474 
L 304.227941 49.960537 
L 306.640173 49.960537 
L 306.640173 49.289599 
L 307.656675 49.289599 
L 307.72307 47.276786 
L 308.18806 47.276786 
L 308.18806 46.605848 
L 308.406516 46.605848 
L 308.406516 45.93491 
L 308.75337 45.93491 
L 308.75337 45.263973 
L 311.522705 45.263973 
L 311.532024 43.922097 
L 312.455464 43.922097 
L 312.455464 43.25116 
L 313.287754 43.25116 
L 313.294725 41.238347 
L 314.098053 41.238347 
L 314.098053 40.567409 
L 315.396416 40.567409 
L 315.396416 39.896471 
L 316.306106 39.896471 
L 316.349059 38.554596 
L 320.280497 38.554596 
L 320.280497 37.883658 
L 322.015421 37.883658 
L 322.02624 36.541783 
L 326.069279 36.541783 
L 326.069279 35.870845 
L 326.537124 35.870845 
L 326.537124 35.199908 
L 328.69206 35.199908 
L 328.69206 34.52897 
L 332.466044 34.52897 
L 332.466044 33.858032 
L 445.2 33.858032 
L 445.2 33.858032 
" style="fill:none;stroke:#00bfbf;stroke-linecap:square;stroke-width:1.5;"/>
   </g>
   <g id="line2d_3">
    <defs>
     <path d="M -6 0 
L 6 0 
M 0 6 
L 0 -6 
" id="mf284e96b06" style="stroke:#00bfbf;stroke-width:1.5;"/>
    </defs>
    <g>
     <use style="fill:none;stroke:#00bfbf;stroke-width:1.5;" x="172.797842303" xlink:href="#mf284e96b06" y="313.639045574"/>
     <use style="fill:none;stroke:#00bfbf;stroke-width:1.5;" x="242.096553149" xlink:href="#mf284e96b06" y="207.630891817"/>
     <use style="fill:none;stroke:#00bfbf;stroke-width:1.5;" x="286.529470942" xlink:href="#mf284e96b06" y="82.1655452825"/>
     <use style="fill:none;stroke:#00bfbf;stroke-width:1.5;" x="332.466044161" xlink:href="#mf284e96b06" y="33.8580321782"/>
     <use style="fill:none;stroke:#00bfbf;stroke-width:1.5;" x="332.466044161" xlink:href="#mf284e96b06" y="33.8580321782"/>
     <use style="fill:none;stroke:#00bfbf;stroke-width:1.5;" x="445.2" xlink:href="#mf284e96b06" y="33.8580321782"/>
    </g>
   </g>
   <g id="line2d_4"/>
   <g id="line2d_5">
    <path clip-path="url(#p15e40bdb01)" d="M 239.496879 231.784648 
" style="fill:none;stroke:#00bfbf;stroke-linecap:square;"/>
    <defs>
     <path d="M -12 12 
L 12 -12 
M -12 -12 
L 12 12 
" id="m25b64b68f6" style="stroke:#00bfbf;stroke-width:3.0;"/>
    </defs>
    <g clip-path="url(#p15e40bdb01)">
     <use style="fill:#00bfbf;stroke:#00bfbf;stroke-width:3.0;" x="239.496879067" xlink:href="#m25b64b68f6" y="231.784648369"/>
    </g>
   </g>
   <g id="line2d_6">
    <defs>
     <path d="M 0 1.5 
C 0.397805 1.5 0.77937 1.341951 1.06066 1.06066 
C 1.341951 0.77937 1.5 0.397805 1.5 0 
C 1.5 -0.397805 1.341951 -0.77937 1.06066 -1.06066 
C 0.77937 -1.341951 0.397805 -1.5 0 -1.5 
C -0.397805 -1.5 -0.77937 -1.341951 -1.06066 -1.06066 
C -1.341951 -0.77937 -1.5 -0.397805 -1.5 0 
C -1.5 0.397805 -1.341951 0.77937 -1.06066 1.06066 
C -0.77937 1.341951 -0.397805 1.5 0 1.5 
z
" id="m2ca15927f4" style="stroke:#008000;stroke-width:0.5;"/>
    </defs>
    <g>
     <use style="fill:#008000;stroke:#008000;stroke-width:0.5;" x="336.589680287" xlink:href="#m2ca15927f4" y="33.8580321782"/>
     <use style="fill:#008000;stroke:#008000;stroke-width:0.5;" x="336.589680287" xlink:href="#m2ca15927f4" y="33.8580321782"/>
    </g>
   </g>
   <g id="line2d_7">
    <path d="M 60.662335 376.03625 
L 60.662335 363.288434 
L 76.143878 363.288434 
L 76.143878 361.275621 
L 91.625421 361.275621 
L 91.625421 360.604683 
L 96.609364 360.604683 
L 96.609364 359.933746 
L 104.12452 359.933746 
L 104.12452 359.262808 
L 114.219674 359.262808 
L 114.219674 358.59187 
L 131.644628 358.59187 
L 131.644628 357.249995 
L 141.31271 357.249995 
L 141.31271 355.90812 
L 144.669285 355.90812 
L 144.669285 354.566244 
L 145.684693 354.566244 
L 145.684693 353.224369 
L 148.913936 353.224369 
L 148.913936 352.553431 
L 167.591657 352.553431 
L 167.591657 351.882493 
L 167.960841 351.882493 
L 167.960841 351.211556 
L 170.71326 351.211556 
L 170.71326 350.540618 
L 171.193604 350.540618 
L 171.193604 349.198743 
L 171.508189 349.198743 
L 171.508189 347.856867 
L 172.724007 347.856867 
L 172.724007 346.514992 
L 172.871434 346.514992 
L 172.871434 345.844054 
L 174.294536 345.844054 
L 174.294536 345.173117 
L 175.106813 345.173117 
L 175.106813 344.502179 
L 175.890583 344.502179 
L 175.890583 343.831241 
L 176.145844 343.831241 
L 176.145844 343.160304 
L 176.398221 343.160304 
L 176.398221 341.818428 
L 177.016963 341.818428 
L 177.016963 341.147491 
L 177.380144 341.147491 
L 177.380144 339.805615 
L 179.223263 339.805615 
L 179.223263 339.134677 
L 179.661221 339.134677 
L 179.661221 338.46374 
L 181.631722 338.46374 
L 181.631722 337.792802 
L 184.946704 337.792802 
L 184.946704 337.121864 
L 187.145378 337.121864 
L 187.145378 335.779989 
L 189.844908 335.779989 
L 189.844908 335.109051 
L 190.388039 335.109051 
L 190.388039 334.438114 
L 191.879764 334.438114 
L 191.879764 333.096238 
L 192.253062 333.096238 
L 192.253062 331.754363 
L 192.376121 331.754363 
L 192.376121 331.083425 
L 192.861687 331.083425 
L 192.861687 330.412488 
L 194.370608 330.412488 
L 194.370608 329.74155 
L 194.760022 329.74155 
L 194.760022 329.070612 
L 195.572299 329.070612 
L 195.572299 327.728737 
L 196.863707 327.728737 
L 196.863707 326.386862 
L 197.555559 326.386862 
L 197.555559 323.032173 
L 205.802408 323.032173 
L 205.802408 321.690298 
L 206.821554 321.690298 
L 206.821554 321.01936 
L 209.683157 321.01936 
L 209.683157 320.348422 
L 210.324135 320.348422 
L 210.351591 316.993734 
L 210.94723 316.993734 
L 210.94723 316.322796 
L 211.527396 316.322796 
L 211.527396 314.980921 
L 211.76046 314.980921 
L 211.76046 314.309983 
L 216.080288 314.309983 
L 216.080288 312.29717 
L 232.990698 312.29717 
L 232.990698 310.955295 
L 233.802263 310.955295 
L 233.802263 306.258731 
L 234.640931 306.258731 
L 234.640931 304.916856 
L 235.161971 304.916856 
L 235.161971 304.245918 
L 236.246543 304.245918 
L 236.246543 302.904043 
L 238.111637 302.904043 
L 238.111637 302.233105 
L 239.500599 302.233105 
L 239.508038 300.89123 
L 239.854899 300.89123 
L 239.949895 298.207479 
L 240.532866 298.207479 
L 240.589626 295.523728 
L 240.948121 295.523728 
L 240.975996 294.181853 
L 241.252853 294.181853 
L 241.355796 292.839977 
L 241.996976 292.839977 
L 241.996976 292.16904 
L 242.109797 292.16904 
L 242.109797 291.498102 
L 242.23522 291.498102 
L 242.274681 290.156227 
L 242.477462 290.156227 
L 242.477462 289.485289 
L 243.847603 289.485289 
L 243.847603 288.814351 
L 244.054863 288.814351 
L 244.145694 287.472476 
L 244.71253 287.472476 
L 244.71253 286.801538 
L 244.847628 286.801538 
L 244.847628 286.130601 
L 252.310017 286.130601 
L 252.310017 285.459663 
L 252.680095 285.459663 
L 252.680095 284.117788 
L 253.011659 284.117788 
L 253.011659 283.44685 
L 253.474101 283.44685 
L 253.474101 282.775912 
L 253.668269 282.775912 
L 253.668269 282.104975 
L 254.29462 282.104975 
L 254.29462 280.763099 
L 255.493333 280.763099 
L 255.602144 278.079348 
L 256.212442 278.079348 
L 256.317813 275.395598 
L 256.387785 275.395598 
L 256.436636 272.711847 
L 256.499287 272.711847 
L 256.520132 271.369972 
L 256.624065 271.369972 
L 256.624065 270.699034 
L 257.311563 270.699034 
L 257.421894 268.686221 
L 257.815285 268.686221 
L 257.890527 263.989657 
L 257.988288 263.989657 
L 257.988288 263.318719 
L 258.581873 263.318719 
L 258.632477 261.976844 
L 262.290144 261.976844 
L 262.333014 258.622156 
L 263.000177 258.622156 
L 263.000177 257.951218 
L 263.579744 257.951218 
L 263.579744 257.28028 
L 264.632924 257.28028 
L 264.632924 256.609343 
L 264.896993 256.609343 
L 264.939908 253.925592 
L 265.07053 253.925592 
L 265.141458 252.583717 
L 265.578568 252.583717 
L 265.657132 251.241841 
L 265.691705 251.241841 
L 265.691705 250.570903 
L 265.909431 250.570903 
L 266.014099 246.545277 
L 266.499128 246.545277 
L 266.499128 245.87434 
L 268.99938 245.87434 
L 268.99938 245.203402 
L 269.163617 245.203402 
L 269.195138 243.190589 
L 269.687752 243.190589 
L 269.718543 241.177776 
L 270.118791 241.177776 
L 270.118791 240.506838 
L 270.314385 240.506838 
L 270.314385 238.494025 
L 270.766664 238.494025 
L 270.766664 237.823088 
L 270.936667 237.823088 
L 270.936667 237.15215 
L 271.109 237.15215 
L 271.19737 233.797461 
L 271.269251 233.797461 
L 271.32301 231.113711 
L 271.655223 231.113711 
L 271.741463 228.42996 
L 271.769551 228.42996 
L 271.769551 227.759022 
L 271.921664 227.759022 
L 272.025969 225.075272 
L 272.041572 225.075272 
L 272.069286 223.733396 
L 274.41214 223.733396 
L 274.413698 222.391521 
L 275.194727 222.391521 
L 275.194727 221.720583 
L 275.376089 221.720583 
L 275.376089 221.049645 
L 276.036492 221.049645 
L 276.13627 217.694957 
L 276.430111 217.694957 
L 276.452883 215.682144 
L 276.60599 215.682144 
L 276.694821 211.656518 
L 276.720136 211.656518 
L 276.749634 210.314643 
L 279.023282 210.314643 
L 279.023282 209.643705 
L 279.723478 209.643705 
L 279.816669 207.630892 
L 279.835016 207.630892 
L 279.835016 206.959954 
L 279.952082 206.959954 
L 280.038268 204.276203 
L 280.074586 204.276203 
L 280.113259 200.921515 
L 280.321186 200.921515 
L 280.396427 199.57964 
L 280.49042 199.57964 
L 280.591111 196.224951 
L 280.61946 196.224951 
L 280.61946 195.554014 
L 282.243453 195.554014 
L 282.261009 194.212138 
L 282.411856 194.212138 
L 282.411856 193.5412 
L 283.330679 193.5412 
L 283.424577 190.186512 
L 283.648334 190.186512 
L 283.698784 187.502761 
L 283.80446 187.502761 
L 283.891294 184.819011 
L 285.88283 184.819011 
L 285.88283 184.148073 
L 286.312338 184.148073 
L 286.347989 178.780571 
L 286.531736 178.780571 
L 286.576985 177.438696 
L 286.676213 177.438696 
L 286.722069 173.41307 
L 286.909903 173.41307 
L 286.909903 172.742132 
L 288.797205 172.742132 
L 288.901731 170.729319 
L 288.914763 170.729319 
L 288.960313 166.703693 
L 289.123852 166.703693 
L 289.163343 164.019942 
L 289.244522 164.019942 
L 289.257355 161.336192 
L 290.481281 161.336192 
L 290.481281 160.665254 
L 290.642382 160.665254 
L 290.642382 159.994316 
L 291.224075 159.994316 
L 291.296648 155.96869 
L 291.411984 155.96869 
L 291.520208 153.955877 
L 291.52528 153.955877 
L 291.581713 151.272127 
L 292.928375 151.272127 
L 292.928375 150.601189 
L 293.290075 150.601189 
L 293.380926 145.233687 
L 293.517175 145.233687 
L 293.615686 141.878999 
L 293.630853 141.878999 
L 293.65128 139.866186 
L 295.279237 139.866186 
L 295.296987 137.853373 
L 295.40137 137.853373 
L 295.45186 136.511498 
L 295.539188 136.511498 
L 295.539188 135.84056 
L 296.697356 135.84056 
L 296.697356 135.169622 
L 296.977184 135.169622 
L 297.079669 131.814934 
L 297.148483 131.814934 
L 297.251869 129.802121 
L 297.27036 129.802121 
L 297.283239 127.11837 
L 297.393804 127.11837 
L 297.393804 126.447432 
L 298.567809 126.447432 
L 298.676943 125.105557 
L 298.687985 125.105557 
L 298.68851 123.763682 
L 300.107965 123.763682 
L 300.207879 120.408993 
L 300.221625 120.408993 
L 300.228985 119.067118 
L 300.389333 119.067118 
L 300.436047 117.054305 
L 301.229671 117.054305 
L 301.229671 116.383367 
L 301.61523 116.383367 
L 301.641036 114.370554 
L 301.74855 114.370554 
L 301.827248 111.015866 
L 302.747105 111.015866 
L 302.747105 110.344928 
L 302.964325 110.344928 
L 302.994256 108.332115 
L 303.076036 108.332115 
L 303.150201 105.648364 
L 303.889022 105.648364 
L 303.889022 104.977426 
L 304.203316 104.977426 
L 304.259504 102.293676 
L 304.322904 102.293676 
L 304.403225 100.280863 
L 304.434541 100.280863 
L 304.434541 99.609925 
L 304.997986 99.609925 
L 304.997986 98.938987 
L 305.409099 98.938987 
L 305.428544 97.597112 
L 305.535576 97.597112 
L 305.614359 94.242424 
L 306.554956 94.242424 
L 306.585244 91.558673 
L 306.717362 91.558673 
L 306.753659 89.54586 
L 307.656499 89.54586 
L 307.737622 87.533047 
L 307.797136 87.533047 
L 307.840446 84.849296 
L 308.482253 84.849296 
L 308.482253 84.178358 
L 308.691484 84.178358 
L 308.691484 83.507421 
L 308.832448 83.507421 
L 308.83979 82.165545 
L 309.472392 82.165545 
L 309.472392 81.494608 
L 309.76946 81.494608 
L 309.809752 78.810857 
L 310.290796 78.810857 
L 310.290796 78.139919 
L 310.606859 78.139919 
L 310.690863 75.456168 
L 310.746078 75.456168 
L 310.746078 74.785231 
L 311.598181 74.785231 
L 311.648847 73.443355 
L 312.378848 73.443355 
L 312.395644 72.10148 
L 312.493319 72.10148 
L 312.493319 71.430542 
L 313.2378 71.430542 
L 313.338416 70.088667 
L 313.351234 70.088667 
L 313.361592 68.075854 
L 313.87506 68.075854 
L 313.87506 67.404916 
L 314.106621 67.404916 
L 314.106621 66.733979 
L 314.832192 66.733979 
L 314.940877 65.392103 
L 315.678615 65.392103 
L 315.687702 61.366477 
L 316.297625 61.366477 
L 316.39419 59.353664 
L 316.412502 59.353664 
L 316.412502 58.682726 
L 317.10484 58.682726 
L 317.10484 58.011789 
L 317.702887 58.011789 
L 317.759135 56.669913 
L 318.354091 56.669913 
L 318.354091 55.998976 
L 319.050518 55.998976 
L 319.050518 55.328038 
L 319.636761 55.328038 
L 319.72855 51.97335 
L 320.836691 51.97335 
L 320.924077 50.631474 
L 321.413602 50.631474 
L 321.44911 47.947724 
L 321.954851 47.947724 
L 321.987657 45.93491 
L 322.516419 45.93491 
L 322.516419 45.263973 
L 323.079209 45.263973 
L 323.106531 43.922097 
L 323.596652 43.922097 
L 323.648465 41.238347 
L 324.105747 41.238347 
L 324.105747 40.567409 
L 324.681282 40.567409 
L 324.681282 39.896471 
L 325.167951 39.896471 
L 325.167951 39.225534 
L 326.106429 39.225534 
L 326.106429 38.554596 
L 327.45941 38.554596 
L 327.45941 37.883658 
L 328.661584 37.883658 
L 328.661584 37.212721 
L 331.041433 37.212721 
L 331.041433 36.541783 
L 333.179829 36.541783 
L 333.179829 35.870845 
L 333.474121 35.870845 
L 333.474121 35.199908 
L 335.098541 35.199908 
L 335.098541 34.52897 
L 336.58968 34.52897 
L 336.58968 33.858032 
L 445.2 33.858032 
L 445.2 33.858032 
" style="fill:none;stroke:#008000;stroke-linecap:square;stroke-width:1.5;"/>
   </g>
   <g id="line2d_8">
    <defs>
     <path d="M -0 6 
L 6 -6 
L -6 -6 
z
" id="me788ec065c" style="stroke:#008000;stroke-linejoin:miter;stroke-width:1.5;"/>
    </defs>
    <g>
     <use style="fill:none;stroke:#008000;stroke-linejoin:miter;stroke-width:1.5;" x="197.555559299" xlink:href="#me788ec065c" y="323.032173122"/>
     <use style="fill:none;stroke:#008000;stroke-linejoin:miter;stroke-width:1.5;" x="271.269250914" xlink:href="#me788ec065c" y="233.126523733"/>
     <use style="fill:none;stroke:#008000;stroke-linejoin:miter;stroke-width:1.5;" x="307.817753755" xlink:href="#me788ec065c" y="86.1911713745"/>
     <use style="fill:none;stroke:#008000;stroke-linejoin:miter;stroke-width:1.5;" x="336.589680287" xlink:href="#me788ec065c" y="33.8580321782"/>
     <use style="fill:none;stroke:#008000;stroke-linejoin:miter;stroke-width:1.5;" x="336.589680287" xlink:href="#me788ec065c" y="33.8580321782"/>
     <use style="fill:none;stroke:#008000;stroke-linejoin:miter;stroke-width:1.5;" x="445.2" xlink:href="#me788ec065c" y="33.8580321782"/>
    </g>
   </g>
   <g id="line2d_9"/>
   <g id="line2d_10">
    <path clip-path="url(#p15e40bdb01)" d="M 239.493158 302.233105 
" style="fill:none;stroke:#008000;stroke-linecap:square;"/>
    <defs>
     <path d="M -12 12 
L 12 -12 
M -12 -12 
L 12 12 
" id="m19861a08d1" style="stroke:#008000;stroke-width:3.0;"/>
    </defs>
    <g clip-path="url(#p15e40bdb01)">
     <use style="fill:#008000;stroke:#008000;stroke-width:3.0;" x="239.493158093" xlink:href="#m19861a08d1" y="302.23310498"/>
    </g>
   </g>
   <g id="line2d_11">
    <defs>
     <path d="M 0 1.5 
C 0.397805 1.5 0.77937 1.341951 1.06066 1.06066 
C 1.341951 0.77937 1.5 0.397805 1.5 0 
C 1.5 -0.397805 1.341951 -0.77937 1.06066 -1.06066 
C 0.77937 -1.341951 0.397805 -1.5 0 -1.5 
C -0.397805 -1.5 -0.77937 -1.341951 -1.06066 -1.06066 
C -1.341951 -0.77937 -1.5 -0.397805 -1.5 0 
C -1.5 0.397805 -1.341951 0.77937 -1.06066 1.06066 
C -0.77937 1.341951 -0.397805 1.5 0 1.5 
z
" id="m6fa104e53c" style="stroke:#0000ff;stroke-width:0.5;"/>
    </defs>
    <g>
     <use style="fill:#0000ff;stroke:#0000ff;stroke-width:0.5;" x="332.085184316" xlink:href="#m6fa104e53c" y="268.686220879"/>
     <use style="fill:#0000ff;stroke:#0000ff;stroke-width:0.5;" x="332.085184316" xlink:href="#m6fa104e53c" y="268.686220879"/>
    </g>
   </g>
   <g id="line2d_12">
    <path d="M 49.252971 376.03625 
L 49.252971 367.984998 
L 64.734514 367.984998 
L 64.734514 363.959372 
L 80.216056 363.959372 
L 80.216056 362.617496 
L 142.142227 362.617496 
L 142.142227 361.946559 
L 146.560694 361.946559 
L 146.560694 361.275621 
L 154.641327 361.275621 
L 154.641327 359.262808 
L 156.914658 359.262808 
L 156.914658 358.59187 
L 157.797585 358.59187 
L 157.797585 357.920933 
L 160.715006 357.920933 
L 160.715006 357.249995 
L 161.166236 357.249995 
L 161.166236 356.579057 
L 161.754037 356.579057 
L 161.754037 355.90812 
L 161.898601 355.90812 
L 161.898601 354.566244 
L 166.32815 354.566244 
L 166.32815 353.895306 
L 166.795919 353.895306 
L 166.795919 353.224369 
L 168.998208 353.224369 
L 168.998208 351.882493 
L 169.413758 351.882493 
L 169.413758 348.527805 
L 171.002704 348.527805 
L 171.002704 347.856867 
L 173.017895 347.856867 
L 173.017895 346.514992 
L 173.279128 346.514992 
L 173.279128 345.844054 
L 175.658326 345.844054 
L 175.736013 343.831241 
L 176.044089 343.831241 
L 176.044089 343.160304 
L 178.435544 343.160304 
L 178.435544 342.489366 
L 179.311544 342.489366 
L 179.311544 341.818428 
L 181.868702 341.818428 
L 181.868702 341.147491 
L 182.219523 341.147491 
L 182.219523 340.476553 
L 182.961243 340.476553 
L 182.961243 338.46374 
L 184.26904 338.46374 
L 184.26904 337.792802 
L 185.100211 337.792802 
L 185.100211 337.121864 
L 186.243305 337.121864 
L 186.243305 335.779989 
L 187.05212 335.779989 
L 187.05212 334.438114 
L 194.054113 334.438114 
L 194.054113 333.767176 
L 199.908802 333.767176 
L 199.908802 333.096238 
L 201.941812 333.096238 
L 201.941812 332.425301 
L 202.812275 332.425301 
L 202.812275 330.412488 
L 203.336759 330.412488 
L 203.336759 329.070612 
L 208.486864 329.070612 
L 208.486864 327.728737 
L 210.008732 327.728737 
L 210.008732 326.386862 
L 217.626348 326.386862 
L 217.626348 325.715924 
L 225.739646 325.715924 
L 225.739646 325.044986 
L 235.463511 325.044986 
L 235.463511 323.703111 
L 240.150251 323.703111 
L 240.150251 323.032173 
L 240.438895 323.032173 
L 240.438895 322.361235 
L 240.736531 322.361235 
L 240.736531 321.690298 
L 241.1881 321.690298 
L 241.1881 321.01936 
L 241.45963 321.01936 
L 241.529038 319.677485 
L 241.748091 319.677485 
L 241.792451 318.335609 
L 242.26285 318.335609 
L 242.290446 316.322796 
L 242.850702 316.322796 
L 242.850702 315.651859 
L 242.984778 315.651859 
L 242.984778 314.309983 
L 243.442195 314.309983 
L 243.442195 313.639046 
L 248.326383 313.639046 
L 248.326383 312.29717 
L 255.304197 312.29717 
L 255.389835 310.955295 
L 255.603591 310.955295 
L 255.614442 309.613419 
L 256.129199 309.613419 
L 256.129199 308.942482 
L 256.959566 308.942482 
L 256.959566 308.271544 
L 257.081806 308.271544 
L 257.081806 307.600606 
L 258.81684 307.600606 
L 258.81684 306.258731 
L 259.823975 306.258731 
L 259.823975 304.916856 
L 264.458373 304.916856 
L 264.458373 304.245918 
L 264.990823 304.245918 
L 264.990823 302.904043 
L 265.205101 302.904043 
L 265.205101 302.233105 
L 265.372533 302.233105 
L 265.372533 301.562167 
L 265.933138 301.562167 
L 265.933138 300.89123 
L 267.726476 300.89123 
L 267.726476 300.220292 
L 271.469295 300.220292 
L 271.469295 298.878417 
L 271.897255 298.878417 
L 271.897255 298.207479 
L 272.458467 298.207479 
L 272.458467 297.536541 
L 273.283061 297.536541 
L 273.283061 296.865604 
L 276.150982 296.865604 
L 276.150982 296.194666 
L 276.305307 296.194666 
L 276.305307 295.523728 
L 276.525031 295.523728 
L 276.525031 294.85279 
L 280.001164 294.85279 
L 280.105772 293.510915 
L 280.419545 293.510915 
L 280.419545 292.839977 
L 280.805664 292.839977 
L 280.865987 291.498102 
L 281.435176 291.498102 
L 281.435176 290.827164 
L 283.374547 290.827164 
L 283.374547 290.156227 
L 283.538601 290.156227 
L 283.538601 289.485289 
L 283.788897 289.485289 
L 283.788897 288.814351 
L 284.44952 288.814351 
L 284.44952 288.143414 
L 284.613001 288.143414 
L 284.613001 287.472476 
L 286.300808 287.472476 
L 286.304652 286.130601 
L 286.959904 286.130601 
L 286.959904 285.459663 
L 288.964863 285.459663 
L 288.964863 284.788725 
L 291.507597 284.788725 
L 291.507597 284.117788 
L 295.334768 284.117788 
L 295.334768 282.775912 
L 295.482707 282.775912 
L 295.482707 282.104975 
L 295.974574 282.104975 
L 295.974574 281.434037 
L 297.415072 281.434037 
L 297.415072 280.763099 
L 300.250366 280.763099 
L 300.250366 280.092161 
L 300.765224 280.092161 
L 300.765224 278.750286 
L 301.93478 278.750286 
L 301.93478 278.079348 
L 303.258674 278.079348 
L 303.258674 277.408411 
L 303.469217 277.408411 
L 303.469217 276.737473 
L 305.409488 276.737473 
L 305.444709 275.395598 
L 306.995664 275.395598 
L 306.995664 274.72466 
L 307.662057 274.72466 
L 307.662057 274.053722 
L 308.693297 274.053722 
L 308.693297 273.382785 
L 309.701952 273.382785 
L 309.701952 272.711847 
L 314.904029 272.711847 
L 314.904029 272.040909 
L 318.426761 272.040909 
L 318.49742 270.699034 
L 319.002769 270.699034 
L 319.002769 270.028096 
L 319.693727 270.028096 
L 319.693727 269.357159 
L 332.085184 269.357159 
L 332.085184 268.686221 
L 445.2 268.686221 
L 445.2 268.686221 
" style="fill:none;stroke:#0000ff;stroke-linecap:square;stroke-width:1.5;"/>
   </g>
   <g id="line2d_13">
    <defs>
     <path d="M 0 -6 
L -1.347084 -1.854102 
L -5.706339 -1.854102 
L -2.179628 0.708204 
L -3.526712 4.854102 
L -0 2.291796 
L 3.526712 4.854102 
L 2.179628 0.708204 
L 5.706339 -1.854102 
L 1.347084 -1.854102 
z
" id="m3a3280d4a2" style="stroke:#0000ff;stroke-linejoin:bevel;stroke-width:1.5;"/>
    </defs>
    <g>
     <use style="fill:none;stroke:#0000ff;stroke-linejoin:bevel;stroke-width:1.5;" x="80.2160564739" xlink:href="#m3a3280d4a2" y="362.61749636"/>
     <use style="fill:none;stroke:#0000ff;stroke-linejoin:bevel;stroke-width:1.5;" x="199.908801671" xlink:href="#m3a3280d4a2" y="333.767176034"/>
     <use style="fill:none;stroke:#0000ff;stroke-linejoin:bevel;stroke-width:1.5;" x="276.150982479" xlink:href="#m3a3280d4a2" y="296.194665842"/>
     <use style="fill:none;stroke:#0000ff;stroke-linejoin:bevel;stroke-width:1.5;" x="332.085184316" xlink:href="#m3a3280d4a2" y="269.357158561"/>
     <use style="fill:none;stroke:#0000ff;stroke-linejoin:bevel;stroke-width:1.5;" x="332.085184316" xlink:href="#m3a3280d4a2" y="268.686220879"/>
     <use style="fill:none;stroke:#0000ff;stroke-linejoin:bevel;stroke-width:1.5;" x="445.2" xlink:href="#m3a3280d4a2" y="268.686220879"/>
    </g>
   </g>
   <g id="line2d_14"/>
   <g id="line2d_15">
    <path clip-path="url(#p15e40bdb01)" d="M 239.490181 323.703111 
" style="fill:none;stroke:#0000ff;stroke-linecap:square;"/>
    <defs>
     <path d="M -12 12 
L 12 -12 
M -12 -12 
L 12 12 
" id="mef5f2d8bcc" style="stroke:#0000ff;stroke-width:3.0;"/>
    </defs>
    <g clip-path="url(#p15e40bdb01)">
     <use style="fill:#0000ff;stroke:#0000ff;stroke-width:3.0;" x="239.490180868" xlink:href="#mef5f2d8bcc" y="323.703110804"/>
    </g>
   </g>
   <g id="line2d_16">
    <path d="M 445.2 268.686221 
L 484.8 369.192686 
" style="fill:none;stroke:#0000ff;stroke-linecap:square;stroke-width:1.5;"/>
    <g>
     <use style="fill:none;stroke:#0000ff;stroke-linejoin:bevel;stroke-width:1.5;" x="445.2" xlink:href="#m3a3280d4a2" y="268.686220879"/>
     <use style="fill:none;stroke:#0000ff;stroke-linejoin:bevel;stroke-width:1.5;" x="484.8" xlink:href="#m3a3280d4a2" y="369.192685644"/>
    </g>
   </g>
   <g id="line2d_17">
    <path d="M 445.2 33.858032 
L 484.8 204.947141 
" style="fill:none;stroke:#008000;stroke-linecap:square;stroke-width:1.5;"/>
    <g>
     <use style="fill:none;stroke:#008000;stroke-linejoin:miter;stroke-width:1.5;" x="445.2" xlink:href="#me788ec065c" y="33.8580321782"/>
     <use style="fill:none;stroke:#008000;stroke-linejoin:miter;stroke-width:1.5;" x="484.8" xlink:href="#me788ec065c" y="204.947141089"/>
    </g>
   </g>
   <g id="line2d_18">
    <path d="M 445.2 33.858032 
L 484.8 40.701597 
" style="fill:none;stroke:#00bfbf;stroke-linecap:square;stroke-width:1.5;"/>
    <g>
     <use style="fill:none;stroke:#00bfbf;stroke-width:1.5;" x="445.2" xlink:href="#mf284e96b06" y="33.8580321782"/>
     <use style="fill:none;stroke:#00bfbf;stroke-width:1.5;" x="484.8" xlink:href="#mf284e96b06" y="40.7015965347"/>
    </g>
   </g>
   <g id="line2d_19">
    <path d="M 445.2 376.03625 
L 445.2 33.858032 
" style="fill:none;stroke:#000000;stroke-linecap:square;"/>
   </g>
   <g id="patch_3">
    <path d="M 85.2 30.43625 
L 531.6 30.43625 
" style="fill:none;stroke:#000000;stroke-linecap:square;stroke-linejoin:miter;"/>
   </g>
   <g id="patch_4">
    <path d="M 531.6 376.03625 
L 531.6 30.43625 
" style="fill:none;stroke:#000000;stroke-linecap:square;stroke-linejoin:miter;"/>
   </g>
   <g id="patch_5">
    <path d="M 85.2 376.03625 
L 531.6 376.03625 
" style="fill:none;stroke:#000000;stroke-linecap:square;stroke-linejoin:miter;"/>
   </g>
   <g id="patch_6">
    <path d="M 85.2 376.03625 
L 85.2 30.43625 
" style="fill:none;stroke:#000000;stroke-linecap:square;stroke-linejoin:miter;"/>
   </g>
   <g id="matplotlib.axis_1">
    <g id="xtick_1">
     <g id="line2d_20">
      <path clip-path="url(#p15e40bdb01)" d="M 85.2 376.03625 
L 85.2 30.43625 
" style="fill:none;stroke:#000000;stroke-dasharray:1.000000,3.000000;stroke-dashoffset:0.0;stroke-width:0.5;"/>
     </g>
     <g id="line2d_21">
      <defs>
       <path d="M 0 0 
L 0 -4 
" id="maeab65f101" style="stroke:#000000;stroke-width:0.5;"/>
      </defs>
      <g>
       <use style="stroke:#000000;stroke-width:0.5;" x="85.2" xlink:href="#maeab65f101" y="376.03625"/>
      </g>
     </g>
     <g id="line2d_22">
      <defs>
       <path d="M 0 0 
L 0 4 
" id="m15c58ba12a" style="stroke:#000000;stroke-width:0.5;"/>
      </defs>
      <g>
       <use style="stroke:#000000;stroke-width:0.5;" x="85.2" xlink:href="#m15c58ba12a" y="30.43625"/>
      </g>
     </g>
     <g id="text_1">
      <!-- 0 -->
      <defs>
       <path d="M 31.78125 66.40625 
Q 24.171875 66.40625 20.328125 58.90625 
Q 16.5 51.421875 16.5 36.375 
Q 16.5 21.390625 20.328125 13.890625 
Q 24.171875 6.390625 31.78125 6.390625 
Q 39.453125 6.390625 43.28125 13.890625 
Q 47.125 21.390625 47.125 36.375 
Q 47.125 51.421875 43.28125 58.90625 
Q 39.453125 66.40625 31.78125 66.40625 
M 31.78125 74.21875 
Q 44.046875 74.21875 50.515625 64.515625 
Q 56.984375 54.828125 56.984375 36.375 
Q 56.984375 17.96875 50.515625 8.265625 
Q 44.046875 -1.421875 31.78125 -1.421875 
Q 19.53125 -1.421875 13.0625 8.265625 
Q 6.59375 17.96875 6.59375 36.375 
Q 6.59375 54.828125 13.0625 64.515625 
Q 19.53125 74.21875 31.78125 74.21875 
" id="BitstreamVeraSans-Roman-30"/>
      </defs>
      <g transform="translate(78.8375 395.233125)scale(0.2 -0.2)">
       <use xlink:href="#BitstreamVeraSans-Roman-30"/>
      </g>
     </g>
    </g>
    <g id="xtick_2">
     <g id="line2d_23">
      <path clip-path="url(#p15e40bdb01)" d="M 136.628571 376.03625 
L 136.628571 30.43625 
" style="fill:none;stroke:#000000;stroke-dasharray:1.000000,3.000000;stroke-dashoffset:0.0;stroke-width:0.5;"/>
     </g>
     <g id="line2d_24">
      <g>
       <use style="stroke:#000000;stroke-width:0.5;" x="136.628571429" xlink:href="#maeab65f101" y="376.03625"/>
      </g>
     </g>
     <g id="line2d_25">
      <g>
       <use style="stroke:#000000;stroke-width:0.5;" x="136.628571429" xlink:href="#m15c58ba12a" y="30.43625"/>
      </g>
     </g>
     <g id="text_2">
      <!-- 1 -->
      <defs>
       <path d="M 12.40625 8.296875 
L 28.515625 8.296875 
L 28.515625 63.921875 
L 10.984375 60.40625 
L 10.984375 69.390625 
L 28.421875 72.90625 
L 38.28125 72.90625 
L 38.28125 8.296875 
L 54.390625 8.296875 
L 54.390625 0 
L 12.40625 0 
z
" id="BitstreamVeraSans-Roman-31"/>
      </defs>
      <g transform="translate(130.266071429 395.233125)scale(0.2 -0.2)">
       <use xlink:href="#BitstreamVeraSans-Roman-31"/>
      </g>
     </g>
    </g>
    <g id="xtick_3">
     <g id="line2d_26">
      <path clip-path="url(#p15e40bdb01)" d="M 188.057143 376.03625 
L 188.057143 30.43625 
" style="fill:none;stroke:#000000;stroke-dasharray:1.000000,3.000000;stroke-dashoffset:0.0;stroke-width:0.5;"/>
     </g>
     <g id="line2d_27">
      <g>
       <use style="stroke:#000000;stroke-width:0.5;" x="188.057142857" xlink:href="#maeab65f101" y="376.03625"/>
      </g>
     </g>
     <g id="line2d_28">
      <g>
       <use style="stroke:#000000;stroke-width:0.5;" x="188.057142857" xlink:href="#m15c58ba12a" y="30.43625"/>
      </g>
     </g>
     <g id="text_3">
      <!-- 2 -->
      <defs>
       <path d="M 19.1875 8.296875 
L 53.609375 8.296875 
L 53.609375 0 
L 7.328125 0 
L 7.328125 8.296875 
Q 12.9375 14.109375 22.625 23.890625 
Q 32.328125 33.6875 34.8125 36.53125 
Q 39.546875 41.84375 41.421875 45.53125 
Q 43.3125 49.21875 43.3125 52.78125 
Q 43.3125 58.59375 39.234375 62.25 
Q 35.15625 65.921875 28.609375 65.921875 
Q 23.96875 65.921875 18.8125 64.3125 
Q 13.671875 62.703125 7.8125 59.421875 
L 7.8125 69.390625 
Q 13.765625 71.78125 18.9375 73 
Q 24.125 74.21875 28.421875 74.21875 
Q 39.75 74.21875 46.484375 68.546875 
Q 53.21875 62.890625 53.21875 53.421875 
Q 53.21875 48.921875 51.53125 44.890625 
Q 49.859375 40.875 45.40625 35.40625 
Q 44.1875 33.984375 37.640625 27.21875 
Q 31.109375 20.453125 19.1875 8.296875 
" id="BitstreamVeraSans-Roman-32"/>
      </defs>
      <g transform="translate(181.694642857 395.233125)scale(0.2 -0.2)">
       <use xlink:href="#BitstreamVeraSans-Roman-32"/>
      </g>
     </g>
    </g>
    <g id="xtick_4">
     <g id="line2d_29">
      <path clip-path="url(#p15e40bdb01)" d="M 239.485714 376.03625 
L 239.485714 30.43625 
" style="fill:none;stroke:#000000;stroke-dasharray:1.000000,3.000000;stroke-dashoffset:0.0;stroke-width:0.5;"/>
     </g>
     <g id="line2d_30">
      <g>
       <use style="stroke:#000000;stroke-width:0.5;" x="239.485714286" xlink:href="#maeab65f101" y="376.03625"/>
      </g>
     </g>
     <g id="line2d_31">
      <g>
       <use style="stroke:#000000;stroke-width:0.5;" x="239.485714286" xlink:href="#m15c58ba12a" y="30.43625"/>
      </g>
     </g>
     <g id="text_4">
      <!-- 3 -->
      <defs>
       <path d="M 40.578125 39.3125 
Q 47.65625 37.796875 51.625 33 
Q 55.609375 28.21875 55.609375 21.1875 
Q 55.609375 10.40625 48.1875 4.484375 
Q 40.765625 -1.421875 27.09375 -1.421875 
Q 22.515625 -1.421875 17.65625 -0.515625 
Q 12.796875 0.390625 7.625 2.203125 
L 7.625 11.71875 
Q 11.71875 9.328125 16.59375 8.109375 
Q 21.484375 6.890625 26.8125 6.890625 
Q 36.078125 6.890625 40.9375 10.546875 
Q 45.796875 14.203125 45.796875 21.1875 
Q 45.796875 27.640625 41.28125 31.265625 
Q 36.765625 34.90625 28.71875 34.90625 
L 20.21875 34.90625 
L 20.21875 43.015625 
L 29.109375 43.015625 
Q 36.375 43.015625 40.234375 45.921875 
Q 44.09375 48.828125 44.09375 54.296875 
Q 44.09375 59.90625 40.109375 62.90625 
Q 36.140625 65.921875 28.71875 65.921875 
Q 24.65625 65.921875 20.015625 65.03125 
Q 15.375 64.15625 9.8125 62.3125 
L 9.8125 71.09375 
Q 15.4375 72.65625 20.34375 73.4375 
Q 25.25 74.21875 29.59375 74.21875 
Q 40.828125 74.21875 47.359375 69.109375 
Q 53.90625 64.015625 53.90625 55.328125 
Q 53.90625 49.265625 50.4375 45.09375 
Q 46.96875 40.921875 40.578125 39.3125 
" id="BitstreamVeraSans-Roman-33"/>
      </defs>
      <g transform="translate(233.123214286 395.233125)scale(0.2 -0.2)">
       <use xlink:href="#BitstreamVeraSans-Roman-33"/>
      </g>
     </g>
    </g>
    <g id="xtick_5">
     <g id="line2d_32">
      <path clip-path="url(#p15e40bdb01)" d="M 290.914286 376.03625 
L 290.914286 30.43625 
" style="fill:none;stroke:#000000;stroke-dasharray:1.000000,3.000000;stroke-dashoffset:0.0;stroke-width:0.5;"/>
     </g>
     <g id="line2d_33">
      <g>
       <use style="stroke:#000000;stroke-width:0.5;" x="290.914285714" xlink:href="#maeab65f101" y="376.03625"/>
      </g>
     </g>
     <g id="line2d_34">
      <g>
       <use style="stroke:#000000;stroke-width:0.5;" x="290.914285714" xlink:href="#m15c58ba12a" y="30.43625"/>
      </g>
     </g>
     <g id="text_5">
      <!-- 4 -->
      <defs>
       <path d="M 37.796875 64.3125 
L 12.890625 25.390625 
L 37.796875 25.390625 
z
M 35.203125 72.90625 
L 47.609375 72.90625 
L 47.609375 25.390625 
L 58.015625 25.390625 
L 58.015625 17.1875 
L 47.609375 17.1875 
L 47.609375 0 
L 37.796875 0 
L 37.796875 17.1875 
L 4.890625 17.1875 
L 4.890625 26.703125 
z
" id="BitstreamVeraSans-Roman-34"/>
      </defs>
      <g transform="translate(284.551785714 395.233125)scale(0.2 -0.2)">
       <use xlink:href="#BitstreamVeraSans-Roman-34"/>
      </g>
     </g>
    </g>
    <g id="xtick_6">
     <g id="line2d_35">
      <path clip-path="url(#p15e40bdb01)" d="M 342.342857 376.03625 
L 342.342857 30.43625 
" style="fill:none;stroke:#000000;stroke-dasharray:1.000000,3.000000;stroke-dashoffset:0.0;stroke-width:0.5;"/>
     </g>
     <g id="line2d_36">
      <g>
       <use style="stroke:#000000;stroke-width:0.5;" x="342.342857143" xlink:href="#maeab65f101" y="376.03625"/>
      </g>
     </g>
     <g id="line2d_37">
      <g>
       <use style="stroke:#000000;stroke-width:0.5;" x="342.342857143" xlink:href="#m15c58ba12a" y="30.43625"/>
      </g>
     </g>
     <g id="text_6">
      <!-- 5 -->
      <defs>
       <path d="M 10.796875 72.90625 
L 49.515625 72.90625 
L 49.515625 64.59375 
L 19.828125 64.59375 
L 19.828125 46.734375 
Q 21.96875 47.46875 24.109375 47.828125 
Q 26.265625 48.1875 28.421875 48.1875 
Q 40.625 48.1875 47.75 41.5 
Q 54.890625 34.8125 54.890625 23.390625 
Q 54.890625 11.625 47.5625 5.09375 
Q 40.234375 -1.421875 26.90625 -1.421875 
Q 22.3125 -1.421875 17.546875 -0.640625 
Q 12.796875 0.140625 7.71875 1.703125 
L 7.71875 11.625 
Q 12.109375 9.234375 16.796875 8.0625 
Q 21.484375 6.890625 26.703125 6.890625 
Q 35.15625 6.890625 40.078125 11.328125 
Q 45.015625 15.765625 45.015625 23.390625 
Q 45.015625 31 40.078125 35.4375 
Q 35.15625 39.890625 26.703125 39.890625 
Q 22.75 39.890625 18.8125 39.015625 
Q 14.890625 38.140625 10.796875 36.28125 
z
" id="BitstreamVeraSans-Roman-35"/>
      </defs>
      <g transform="translate(335.980357143 395.233125)scale(0.2 -0.2)">
       <use xlink:href="#BitstreamVeraSans-Roman-35"/>
      </g>
     </g>
    </g>
    <g id="xtick_7">
     <g id="line2d_38">
      <path clip-path="url(#p15e40bdb01)" d="M 393.771429 376.03625 
L 393.771429 30.43625 
" style="fill:none;stroke:#000000;stroke-dasharray:1.000000,3.000000;stroke-dashoffset:0.0;stroke-width:0.5;"/>
     </g>
     <g id="line2d_39">
      <g>
       <use style="stroke:#000000;stroke-width:0.5;" x="393.771428571" xlink:href="#maeab65f101" y="376.03625"/>
      </g>
     </g>
     <g id="line2d_40">
      <g>
       <use style="stroke:#000000;stroke-width:0.5;" x="393.771428571" xlink:href="#m15c58ba12a" y="30.43625"/>
      </g>
     </g>
     <g id="text_7">
      <!-- 6 -->
      <defs>
       <path d="M 33.015625 40.375 
Q 26.375 40.375 22.484375 35.828125 
Q 18.609375 31.296875 18.609375 23.390625 
Q 18.609375 15.53125 22.484375 10.953125 
Q 26.375 6.390625 33.015625 6.390625 
Q 39.65625 6.390625 43.53125 10.953125 
Q 47.40625 15.53125 47.40625 23.390625 
Q 47.40625 31.296875 43.53125 35.828125 
Q 39.65625 40.375 33.015625 40.375 
M 52.59375 71.296875 
L 52.59375 62.3125 
Q 48.875 64.0625 45.09375 64.984375 
Q 41.3125 65.921875 37.59375 65.921875 
Q 27.828125 65.921875 22.671875 59.328125 
Q 17.53125 52.734375 16.796875 39.40625 
Q 19.671875 43.65625 24.015625 45.921875 
Q 28.375 48.1875 33.59375 48.1875 
Q 44.578125 48.1875 50.953125 41.515625 
Q 57.328125 34.859375 57.328125 23.390625 
Q 57.328125 12.15625 50.6875 5.359375 
Q 44.046875 -1.421875 33.015625 -1.421875 
Q 20.359375 -1.421875 13.671875 8.265625 
Q 6.984375 17.96875 6.984375 36.375 
Q 6.984375 53.65625 15.1875 63.9375 
Q 23.390625 74.21875 37.203125 74.21875 
Q 40.921875 74.21875 44.703125 73.484375 
Q 48.484375 72.75 52.59375 71.296875 
" id="BitstreamVeraSans-Roman-36"/>
      </defs>
      <g transform="translate(387.408928571 395.233125)scale(0.2 -0.2)">
       <use xlink:href="#BitstreamVeraSans-Roman-36"/>
      </g>
     </g>
    </g>
    <g id="xtick_8">
     <g id="line2d_41">
      <path clip-path="url(#p15e40bdb01)" d="M 445.2 376.03625 
L 445.2 30.43625 
" style="fill:none;stroke:#000000;stroke-dasharray:1.000000,3.000000;stroke-dashoffset:0.0;stroke-width:0.5;"/>
     </g>
     <g id="line2d_42">
      <g>
       <use style="stroke:#000000;stroke-width:0.5;" x="445.2" xlink:href="#maeab65f101" y="376.03625"/>
      </g>
     </g>
     <g id="line2d_43">
      <g>
       <use style="stroke:#000000;stroke-width:0.5;" x="445.2" xlink:href="#m15c58ba12a" y="30.43625"/>
      </g>
     </g>
     <g id="text_8">
      <!-- 7 -->
      <defs>
       <path d="M 8.203125 72.90625 
L 55.078125 72.90625 
L 55.078125 68.703125 
L 28.609375 0 
L 18.3125 0 
L 43.21875 64.59375 
L 8.203125 64.59375 
z
" id="BitstreamVeraSans-Roman-37"/>
      </defs>
      <g transform="translate(438.8375 395.233125)scale(0.2 -0.2)">
       <use xlink:href="#BitstreamVeraSans-Roman-37"/>
      </g>
     </g>
    </g>
    <g id="xtick_9">
     <g id="line2d_44">
      <path clip-path="url(#p15e40bdb01)" d="M 496.628571 376.03625 
L 496.628571 30.43625 
" style="fill:none;stroke:#000000;stroke-dasharray:1.000000,3.000000;stroke-dashoffset:0.0;stroke-width:0.5;"/>
     </g>
     <g id="line2d_45">
      <g>
       <use style="stroke:#000000;stroke-width:0.5;" x="496.628571429" xlink:href="#maeab65f101" y="376.03625"/>
      </g>
     </g>
     <g id="line2d_46">
      <g>
       <use style="stroke:#000000;stroke-width:0.5;" x="496.628571429" xlink:href="#m15c58ba12a" y="30.43625"/>
      </g>
     </g>
     <g id="text_9">
      <!-- 8 -->
      <defs>
       <path d="M 31.78125 34.625 
Q 24.75 34.625 20.71875 30.859375 
Q 16.703125 27.09375 16.703125 20.515625 
Q 16.703125 13.921875 20.71875 10.15625 
Q 24.75 6.390625 31.78125 6.390625 
Q 38.8125 6.390625 42.859375 10.171875 
Q 46.921875 13.96875 46.921875 20.515625 
Q 46.921875 27.09375 42.890625 30.859375 
Q 38.875 34.625 31.78125 34.625 
M 21.921875 38.8125 
Q 15.578125 40.375 12.03125 44.71875 
Q 8.5 49.078125 8.5 55.328125 
Q 8.5 64.0625 14.71875 69.140625 
Q 20.953125 74.21875 31.78125 74.21875 
Q 42.671875 74.21875 48.875 69.140625 
Q 55.078125 64.0625 55.078125 55.328125 
Q 55.078125 49.078125 51.53125 44.71875 
Q 48 40.375 41.703125 38.8125 
Q 48.828125 37.15625 52.796875 32.3125 
Q 56.78125 27.484375 56.78125 20.515625 
Q 56.78125 9.90625 50.3125 4.234375 
Q 43.84375 -1.421875 31.78125 -1.421875 
Q 19.734375 -1.421875 13.25 4.234375 
Q 6.78125 9.90625 6.78125 20.515625 
Q 6.78125 27.484375 10.78125 32.3125 
Q 14.796875 37.15625 21.921875 38.8125 
M 18.3125 54.390625 
Q 18.3125 48.734375 21.84375 45.5625 
Q 25.390625 42.390625 31.78125 42.390625 
Q 38.140625 42.390625 41.71875 45.5625 
Q 45.3125 48.734375 45.3125 54.390625 
Q 45.3125 60.0625 41.71875 63.234375 
Q 38.140625 66.40625 31.78125 66.40625 
Q 25.390625 66.40625 21.84375 63.234375 
Q 18.3125 60.0625 18.3125 54.390625 
" id="BitstreamVeraSans-Roman-38"/>
      </defs>
      <g transform="translate(490.266071429 395.233125)scale(0.2 -0.2)">
       <use xlink:href="#BitstreamVeraSans-Roman-38"/>
      </g>
     </g>
    </g>
    <g id="xtick_10">
     <g id="line2d_47">
      <defs>
       <path d="M 0 0 
L 0 -2 
" id="mc124666030" style="stroke:#000000;stroke-width:0.5;"/>
      </defs>
      <g>
       <use style="stroke:#000000;stroke-width:0.5;" x="100.681542634" xlink:href="#mc124666030" y="376.03625"/>
      </g>
     </g>
     <g id="line2d_48">
      <defs>
       <path d="M 0 0 
L 0 2 
" id="m98db12478c" style="stroke:#000000;stroke-width:0.5;"/>
      </defs>
      <g>
       <use style="stroke:#000000;stroke-width:0.5;" x="100.681542634" xlink:href="#m98db12478c" y="30.43625"/>
      </g>
     </g>
    </g>
    <g id="xtick_11">
     <g id="line2d_49">
      <g>
       <use style="stroke:#000000;stroke-width:0.5;" x="116.163085268" xlink:href="#mc124666030" y="376.03625"/>
      </g>
     </g>
     <g id="line2d_50">
      <g>
       <use style="stroke:#000000;stroke-width:0.5;" x="116.163085268" xlink:href="#m98db12478c" y="30.43625"/>
      </g>
     </g>
    </g>
    <g id="xtick_12">
     <g id="line2d_51">
      <g>
       <use style="stroke:#000000;stroke-width:0.5;" x="125.219207163" xlink:href="#mc124666030" y="376.03625"/>
      </g>
     </g>
     <g id="line2d_52">
      <g>
       <use style="stroke:#000000;stroke-width:0.5;" x="125.219207163" xlink:href="#m98db12478c" y="30.43625"/>
      </g>
     </g>
    </g>
    <g id="xtick_13">
     <g id="line2d_53">
      <g>
       <use style="stroke:#000000;stroke-width:0.5;" x="131.644627902" xlink:href="#mc124666030" y="376.03625"/>
      </g>
     </g>
     <g id="line2d_54">
      <g>
       <use style="stroke:#000000;stroke-width:0.5;" x="131.644627902" xlink:href="#m98db12478c" y="30.43625"/>
      </g>
     </g>
    </g>
    <g id="xtick_14">
     <g id="line2d_55">
      <g>
       <use style="stroke:#000000;stroke-width:0.5;" x="152.110114063" xlink:href="#mc124666030" y="376.03625"/>
      </g>
     </g>
     <g id="line2d_56">
      <g>
       <use style="stroke:#000000;stroke-width:0.5;" x="152.110114063" xlink:href="#m98db12478c" y="30.43625"/>
      </g>
     </g>
    </g>
    <g id="xtick_15">
     <g id="line2d_57">
      <g>
       <use style="stroke:#000000;stroke-width:0.5;" x="167.591656697" xlink:href="#mc124666030" y="376.03625"/>
      </g>
     </g>
     <g id="line2d_58">
      <g>
       <use style="stroke:#000000;stroke-width:0.5;" x="167.591656697" xlink:href="#m98db12478c" y="30.43625"/>
      </g>
     </g>
    </g>
    <g id="xtick_16">
     <g id="line2d_59">
      <g>
       <use style="stroke:#000000;stroke-width:0.5;" x="176.647778591" xlink:href="#mc124666030" y="376.03625"/>
      </g>
     </g>
     <g id="line2d_60">
      <g>
       <use style="stroke:#000000;stroke-width:0.5;" x="176.647778591" xlink:href="#m98db12478c" y="30.43625"/>
      </g>
     </g>
    </g>
    <g id="xtick_17">
     <g id="line2d_61">
      <g>
       <use style="stroke:#000000;stroke-width:0.5;" x="183.073199331" xlink:href="#mc124666030" y="376.03625"/>
      </g>
     </g>
     <g id="line2d_62">
      <g>
       <use style="stroke:#000000;stroke-width:0.5;" x="183.073199331" xlink:href="#m98db12478c" y="30.43625"/>
      </g>
     </g>
    </g>
    <g id="xtick_18">
     <g id="line2d_63">
      <g>
       <use style="stroke:#000000;stroke-width:0.5;" x="203.538685491" xlink:href="#mc124666030" y="376.03625"/>
      </g>
     </g>
     <g id="line2d_64">
      <g>
       <use style="stroke:#000000;stroke-width:0.5;" x="203.538685491" xlink:href="#m98db12478c" y="30.43625"/>
      </g>
     </g>
    </g>
    <g id="xtick_19">
     <g id="line2d_65">
      <g>
       <use style="stroke:#000000;stroke-width:0.5;" x="219.020228125" xlink:href="#mc124666030" y="376.03625"/>
      </g>
     </g>
     <g id="line2d_66">
      <g>
       <use style="stroke:#000000;stroke-width:0.5;" x="219.020228125" xlink:href="#m98db12478c" y="30.43625"/>
      </g>
     </g>
    </g>
    <g id="xtick_20">
     <g id="line2d_67">
      <g>
       <use style="stroke:#000000;stroke-width:0.5;" x="228.07635002" xlink:href="#mc124666030" y="376.03625"/>
      </g>
     </g>
     <g id="line2d_68">
      <g>
       <use style="stroke:#000000;stroke-width:0.5;" x="228.07635002" xlink:href="#m98db12478c" y="30.43625"/>
      </g>
     </g>
    </g>
    <g id="xtick_21">
     <g id="line2d_69">
      <g>
       <use style="stroke:#000000;stroke-width:0.5;" x="234.50177076" xlink:href="#mc124666030" y="376.03625"/>
      </g>
     </g>
     <g id="line2d_70">
      <g>
       <use style="stroke:#000000;stroke-width:0.5;" x="234.50177076" xlink:href="#m98db12478c" y="30.43625"/>
      </g>
     </g>
    </g>
    <g id="xtick_22">
     <g id="line2d_71">
      <g>
       <use style="stroke:#000000;stroke-width:0.5;" x="254.96725692" xlink:href="#mc124666030" y="376.03625"/>
      </g>
     </g>
     <g id="line2d_72">
      <g>
       <use style="stroke:#000000;stroke-width:0.5;" x="254.96725692" xlink:href="#m98db12478c" y="30.43625"/>
      </g>
     </g>
    </g>
    <g id="xtick_23">
     <g id="line2d_73">
      <g>
       <use style="stroke:#000000;stroke-width:0.5;" x="270.448799554" xlink:href="#mc124666030" y="376.03625"/>
      </g>
     </g>
     <g id="line2d_74">
      <g>
       <use style="stroke:#000000;stroke-width:0.5;" x="270.448799554" xlink:href="#m98db12478c" y="30.43625"/>
      </g>
     </g>
    </g>
    <g id="xtick_24">
     <g id="line2d_75">
      <g>
       <use style="stroke:#000000;stroke-width:0.5;" x="279.504921448" xlink:href="#mc124666030" y="376.03625"/>
      </g>
     </g>
     <g id="line2d_76">
      <g>
       <use style="stroke:#000000;stroke-width:0.5;" x="279.504921448" xlink:href="#m98db12478c" y="30.43625"/>
      </g>
     </g>
    </g>
    <g id="xtick_25">
     <g id="line2d_77">
      <g>
       <use style="stroke:#000000;stroke-width:0.5;" x="285.930342188" xlink:href="#mc124666030" y="376.03625"/>
      </g>
     </g>
     <g id="line2d_78">
      <g>
       <use style="stroke:#000000;stroke-width:0.5;" x="285.930342188" xlink:href="#m98db12478c" y="30.43625"/>
      </g>
     </g>
    </g>
    <g id="xtick_26">
     <g id="line2d_79">
      <g>
       <use style="stroke:#000000;stroke-width:0.5;" x="306.395828348" xlink:href="#mc124666030" y="376.03625"/>
      </g>
     </g>
     <g id="line2d_80">
      <g>
       <use style="stroke:#000000;stroke-width:0.5;" x="306.395828348" xlink:href="#m98db12478c" y="30.43625"/>
      </g>
     </g>
    </g>
    <g id="xtick_27">
     <g id="line2d_81">
      <g>
       <use style="stroke:#000000;stroke-width:0.5;" x="321.877370983" xlink:href="#mc124666030" y="376.03625"/>
      </g>
     </g>
     <g id="line2d_82">
      <g>
       <use style="stroke:#000000;stroke-width:0.5;" x="321.877370983" xlink:href="#m98db12478c" y="30.43625"/>
      </g>
     </g>
    </g>
    <g id="xtick_28">
     <g id="line2d_83">
      <g>
       <use style="stroke:#000000;stroke-width:0.5;" x="330.933492877" xlink:href="#mc124666030" y="376.03625"/>
      </g>
     </g>
     <g id="line2d_84">
      <g>
       <use style="stroke:#000000;stroke-width:0.5;" x="330.933492877" xlink:href="#m98db12478c" y="30.43625"/>
      </g>
     </g>
    </g>
    <g id="xtick_29">
     <g id="line2d_85">
      <g>
       <use style="stroke:#000000;stroke-width:0.5;" x="337.358913617" xlink:href="#mc124666030" y="376.03625"/>
      </g>
     </g>
     <g id="line2d_86">
      <g>
       <use style="stroke:#000000;stroke-width:0.5;" x="337.358913617" xlink:href="#m98db12478c" y="30.43625"/>
      </g>
     </g>
    </g>
    <g id="xtick_30">
     <g id="line2d_87">
      <g>
       <use style="stroke:#000000;stroke-width:0.5;" x="357.824399777" xlink:href="#mc124666030" y="376.03625"/>
      </g>
     </g>
     <g id="line2d_88">
      <g>
       <use style="stroke:#000000;stroke-width:0.5;" x="357.824399777" xlink:href="#m98db12478c" y="30.43625"/>
      </g>
     </g>
    </g>
    <g id="xtick_31">
     <g id="line2d_89">
      <g>
       <use style="stroke:#000000;stroke-width:0.5;" x="373.305942411" xlink:href="#mc124666030" y="376.03625"/>
      </g>
     </g>
     <g id="line2d_90">
      <g>
       <use style="stroke:#000000;stroke-width:0.5;" x="373.305942411" xlink:href="#m98db12478c" y="30.43625"/>
      </g>
     </g>
    </g>
    <g id="xtick_32">
     <g id="line2d_91">
      <g>
       <use style="stroke:#000000;stroke-width:0.5;" x="382.362064305" xlink:href="#mc124666030" y="376.03625"/>
      </g>
     </g>
     <g id="line2d_92">
      <g>
       <use style="stroke:#000000;stroke-width:0.5;" x="382.362064305" xlink:href="#m98db12478c" y="30.43625"/>
      </g>
     </g>
    </g>
    <g id="xtick_33">
     <g id="line2d_93">
      <g>
       <use style="stroke:#000000;stroke-width:0.5;" x="388.787485045" xlink:href="#mc124666030" y="376.03625"/>
      </g>
     </g>
     <g id="line2d_94">
      <g>
       <use style="stroke:#000000;stroke-width:0.5;" x="388.787485045" xlink:href="#m98db12478c" y="30.43625"/>
      </g>
     </g>
    </g>
    <g id="xtick_34">
     <g id="line2d_95">
      <g>
       <use style="stroke:#000000;stroke-width:0.5;" x="409.252971206" xlink:href="#mc124666030" y="376.03625"/>
      </g>
     </g>
     <g id="line2d_96">
      <g>
       <use style="stroke:#000000;stroke-width:0.5;" x="409.252971206" xlink:href="#m98db12478c" y="30.43625"/>
      </g>
     </g>
    </g>
    <g id="xtick_35">
     <g id="line2d_97">
      <g>
       <use style="stroke:#000000;stroke-width:0.5;" x="424.73451384" xlink:href="#mc124666030" y="376.03625"/>
      </g>
     </g>
     <g id="line2d_98">
      <g>
       <use style="stroke:#000000;stroke-width:0.5;" x="424.73451384" xlink:href="#m98db12478c" y="30.43625"/>
      </g>
     </g>
    </g>
    <g id="xtick_36">
     <g id="line2d_99">
      <g>
       <use style="stroke:#000000;stroke-width:0.5;" x="433.790635734" xlink:href="#mc124666030" y="376.03625"/>
      </g>
     </g>
     <g id="line2d_100">
      <g>
       <use style="stroke:#000000;stroke-width:0.5;" x="433.790635734" xlink:href="#m98db12478c" y="30.43625"/>
      </g>
     </g>
    </g>
    <g id="xtick_37">
     <g id="line2d_101">
      <g>
       <use style="stroke:#000000;stroke-width:0.5;" x="440.216056474" xlink:href="#mc124666030" y="376.03625"/>
      </g>
     </g>
     <g id="line2d_102">
      <g>
       <use style="stroke:#000000;stroke-width:0.5;" x="440.216056474" xlink:href="#m98db12478c" y="30.43625"/>
      </g>
     </g>
    </g>
    <g id="xtick_38">
     <g id="line2d_103">
      <g>
       <use style="stroke:#000000;stroke-width:0.5;" x="460.681542634" xlink:href="#mc124666030" y="376.03625"/>
      </g>
     </g>
     <g id="line2d_104">
      <g>
       <use style="stroke:#000000;stroke-width:0.5;" x="460.681542634" xlink:href="#m98db12478c" y="30.43625"/>
      </g>
     </g>
    </g>
    <g id="xtick_39">
     <g id="line2d_105">
      <g>
       <use style="stroke:#000000;stroke-width:0.5;" x="476.163085268" xlink:href="#mc124666030" y="376.03625"/>
      </g>
     </g>
     <g id="line2d_106">
      <g>
       <use style="stroke:#000000;stroke-width:0.5;" x="476.163085268" xlink:href="#m98db12478c" y="30.43625"/>
      </g>
     </g>
    </g>
    <g id="xtick_40">
     <g id="line2d_107">
      <g>
       <use style="stroke:#000000;stroke-width:0.5;" x="485.219207163" xlink:href="#mc124666030" y="376.03625"/>
      </g>
     </g>
     <g id="line2d_108">
      <g>
       <use style="stroke:#000000;stroke-width:0.5;" x="485.219207163" xlink:href="#m98db12478c" y="30.43625"/>
      </g>
     </g>
    </g>
    <g id="xtick_41">
     <g id="line2d_109">
      <g>
       <use style="stroke:#000000;stroke-width:0.5;" x="491.644627902" xlink:href="#mc124666030" y="376.03625"/>
      </g>
     </g>
     <g id="line2d_110">
      <g>
       <use style="stroke:#000000;stroke-width:0.5;" x="491.644627902" xlink:href="#m98db12478c" y="30.43625"/>
      </g>
     </g>
    </g>
    <g id="xtick_42">
     <g id="line2d_111">
      <g>
       <use style="stroke:#000000;stroke-width:0.5;" x="512.110114063" xlink:href="#mc124666030" y="376.03625"/>
      </g>
     </g>
     <g id="line2d_112">
      <g>
       <use style="stroke:#000000;stroke-width:0.5;" x="512.110114063" xlink:href="#m98db12478c" y="30.43625"/>
      </g>
     </g>
    </g>
    <g id="xtick_43">
     <g id="line2d_113">
      <g>
       <use style="stroke:#000000;stroke-width:0.5;" x="527.591656697" xlink:href="#mc124666030" y="376.03625"/>
      </g>
     </g>
     <g id="line2d_114">
      <g>
       <use style="stroke:#000000;stroke-width:0.5;" x="527.591656697" xlink:href="#m98db12478c" y="30.43625"/>
      </g>
     </g>
    </g>
    <g id="text_10">
     <!-- log10 of (# f-evals / dimension) -->
     <defs>
      <path id="BitstreamVeraSans-Roman-20"/>
      <path d="M 51.125 44 
L 36.921875 44 
L 32.8125 27.6875 
L 47.125 27.6875 
z
M 43.796875 71.78125 
L 38.71875 51.515625 
L 52.984375 51.515625 
L 58.109375 71.78125 
L 65.921875 71.78125 
L 60.890625 51.515625 
L 76.125 51.515625 
L 76.125 44 
L 58.984375 44 
L 54.984375 27.6875 
L 70.515625 27.6875 
L 70.515625 20.21875 
L 53.078125 20.21875 
L 48 0 
L 40.1875 0 
L 45.21875 20.21875 
L 30.90625 20.21875 
L 25.875 0 
L 18.015625 0 
L 23.09375 20.21875 
L 7.71875 20.21875 
L 7.71875 27.6875 
L 24.90625 27.6875 
L 29 44 
L 13.28125 44 
L 13.28125 51.515625 
L 30.90625 51.515625 
L 35.890625 71.78125 
z
" id="BitstreamVeraSans-Roman-23"/>
      <path d="M 52 44.1875 
Q 55.375 50.25 60.0625 53.125 
Q 64.75 56 71.09375 56 
Q 79.640625 56 84.28125 50.015625 
Q 88.921875 44.046875 88.921875 33.015625 
L 88.921875 0 
L 79.890625 0 
L 79.890625 32.71875 
Q 79.890625 40.578125 77.09375 44.375 
Q 74.3125 48.1875 68.609375 48.1875 
Q 61.625 48.1875 57.5625 43.546875 
Q 53.515625 38.921875 53.515625 30.90625 
L 53.515625 0 
L 44.484375 0 
L 44.484375 32.71875 
Q 44.484375 40.625 41.703125 44.40625 
Q 38.921875 48.1875 33.109375 48.1875 
Q 26.21875 48.1875 22.15625 43.53125 
Q 18.109375 38.875 18.109375 30.90625 
L 18.109375 0 
L 9.078125 0 
L 9.078125 54.6875 
L 18.109375 54.6875 
L 18.109375 46.1875 
Q 21.1875 51.21875 25.484375 53.609375 
Q 29.78125 56 35.6875 56 
Q 41.65625 56 45.828125 52.96875 
Q 50 49.953125 52 44.1875 
" id="BitstreamVeraSans-Roman-6d"/>
      <path d="M 54.890625 33.015625 
L 54.890625 0 
L 45.90625 0 
L 45.90625 32.71875 
Q 45.90625 40.484375 42.875 44.328125 
Q 39.84375 48.1875 33.796875 48.1875 
Q 26.515625 48.1875 22.3125 43.546875 
Q 18.109375 38.921875 18.109375 30.90625 
L 18.109375 0 
L 9.078125 0 
L 9.078125 54.6875 
L 18.109375 54.6875 
L 18.109375 46.1875 
Q 21.34375 51.125 25.703125 53.5625 
Q 30.078125 56 35.796875 56 
Q 45.21875 56 50.046875 50.171875 
Q 54.890625 44.34375 54.890625 33.015625 
" id="BitstreamVeraSans-Roman-6e"/>
      <path d="M 31 75.875 
Q 24.46875 64.65625 21.28125 53.65625 
Q 18.109375 42.671875 18.109375 31.390625 
Q 18.109375 20.125 21.3125 9.0625 
Q 24.515625 -2 31 -13.1875 
L 23.1875 -13.1875 
Q 15.875 -1.703125 12.234375 9.375 
Q 8.59375 20.453125 8.59375 31.390625 
Q 8.59375 42.28125 12.203125 53.3125 
Q 15.828125 64.359375 23.1875 75.875 
z
" id="BitstreamVeraSans-Roman-28"/>
      <path d="M 30.609375 48.390625 
Q 23.390625 48.390625 19.1875 42.75 
Q 14.984375 37.109375 14.984375 27.296875 
Q 14.984375 17.484375 19.15625 11.84375 
Q 23.34375 6.203125 30.609375 6.203125 
Q 37.796875 6.203125 41.984375 11.859375 
Q 46.1875 17.53125 46.1875 27.296875 
Q 46.1875 37.015625 41.984375 42.703125 
Q 37.796875 48.390625 30.609375 48.390625 
M 30.609375 56 
Q 42.328125 56 49.015625 48.375 
Q 55.71875 40.765625 55.71875 27.296875 
Q 55.71875 13.875 49.015625 6.21875 
Q 42.328125 -1.421875 30.609375 -1.421875 
Q 18.84375 -1.421875 12.171875 6.21875 
Q 5.515625 13.875 5.515625 27.296875 
Q 5.515625 40.765625 12.171875 48.375 
Q 18.84375 56 30.609375 56 
" id="BitstreamVeraSans-Roman-6f"/>
      <path d="M 9.421875 75.984375 
L 18.40625 75.984375 
L 18.40625 0 
L 9.421875 0 
z
" id="BitstreamVeraSans-Roman-6c"/>
      <path d="M 2.984375 54.6875 
L 12.5 54.6875 
L 29.59375 8.796875 
L 46.6875 54.6875 
L 56.203125 54.6875 
L 35.6875 0 
L 23.484375 0 
z
" id="BitstreamVeraSans-Roman-76"/>
      <path d="M 9.421875 54.6875 
L 18.40625 54.6875 
L 18.40625 0 
L 9.421875 0 
z
M 9.421875 75.984375 
L 18.40625 75.984375 
L 18.40625 64.59375 
L 9.421875 64.59375 
z
" id="BitstreamVeraSans-Roman-69"/>
      <path d="M 4.890625 31.390625 
L 31.203125 31.390625 
L 31.203125 23.390625 
L 4.890625 23.390625 
z
" id="BitstreamVeraSans-Roman-2d"/>
      <path d="M 25.390625 72.90625 
L 33.6875 72.90625 
L 8.296875 -9.28125 
L 0 -9.28125 
z
" id="BitstreamVeraSans-Roman-2f"/>
      <path d="M 56.203125 29.59375 
L 56.203125 25.203125 
L 14.890625 25.203125 
Q 15.484375 15.921875 20.484375 11.0625 
Q 25.484375 6.203125 34.421875 6.203125 
Q 39.59375 6.203125 44.453125 7.46875 
Q 49.3125 8.734375 54.109375 11.28125 
L 54.109375 2.78125 
Q 49.265625 0.734375 44.1875 -0.34375 
Q 39.109375 -1.421875 33.890625 -1.421875 
Q 20.796875 -1.421875 13.15625 6.1875 
Q 5.515625 13.8125 5.515625 26.8125 
Q 5.515625 40.234375 12.765625 48.109375 
Q 20.015625 56 32.328125 56 
Q 43.359375 56 49.78125 48.890625 
Q 56.203125 41.796875 56.203125 29.59375 
M 47.21875 32.234375 
Q 47.125 39.59375 43.09375 43.984375 
Q 39.0625 48.390625 32.421875 48.390625 
Q 24.90625 48.390625 20.390625 44.140625 
Q 15.875 39.890625 15.1875 32.171875 
z
" id="BitstreamVeraSans-Roman-65"/>
      <path d="M 45.40625 46.390625 
L 45.40625 75.984375 
L 54.390625 75.984375 
L 54.390625 0 
L 45.40625 0 
L 45.40625 8.203125 
Q 42.578125 3.328125 38.25 0.953125 
Q 33.9375 -1.421875 27.875 -1.421875 
Q 17.96875 -1.421875 11.734375 6.484375 
Q 5.515625 14.40625 5.515625 27.296875 
Q 5.515625 40.1875 11.734375 48.09375 
Q 17.96875 56 27.875 56 
Q 33.9375 56 38.25 53.625 
Q 42.578125 51.265625 45.40625 46.390625 
M 14.796875 27.296875 
Q 14.796875 17.390625 18.875 11.75 
Q 22.953125 6.109375 30.078125 6.109375 
Q 37.203125 6.109375 41.296875 11.75 
Q 45.40625 17.390625 45.40625 27.296875 
Q 45.40625 37.203125 41.296875 42.84375 
Q 37.203125 48.484375 30.078125 48.484375 
Q 22.953125 48.484375 18.875 42.84375 
Q 14.796875 37.203125 14.796875 27.296875 
" id="BitstreamVeraSans-Roman-64"/>
      <path d="M 45.40625 27.984375 
Q 45.40625 37.75 41.375 43.109375 
Q 37.359375 48.484375 30.078125 48.484375 
Q 22.859375 48.484375 18.828125 43.109375 
Q 14.796875 37.75 14.796875 27.984375 
Q 14.796875 18.265625 18.828125 12.890625 
Q 22.859375 7.515625 30.078125 7.515625 
Q 37.359375 7.515625 41.375 12.890625 
Q 45.40625 18.265625 45.40625 27.984375 
M 54.390625 6.78125 
Q 54.390625 -7.171875 48.1875 -13.984375 
Q 42 -20.796875 29.203125 -20.796875 
Q 24.46875 -20.796875 20.265625 -20.09375 
Q 16.0625 -19.390625 12.109375 -17.921875 
L 12.109375 -9.1875 
Q 16.0625 -11.328125 19.921875 -12.34375 
Q 23.78125 -13.375 27.78125 -13.375 
Q 36.625 -13.375 41.015625 -8.765625 
Q 45.40625 -4.15625 45.40625 5.171875 
L 45.40625 9.625 
Q 42.625 4.78125 38.28125 2.390625 
Q 33.9375 0 27.875 0 
Q 17.828125 0 11.671875 7.65625 
Q 5.515625 15.328125 5.515625 27.984375 
Q 5.515625 40.671875 11.671875 48.328125 
Q 17.828125 56 27.875 56 
Q 33.9375 56 38.28125 53.609375 
Q 42.625 51.21875 45.40625 46.390625 
L 45.40625 54.6875 
L 54.390625 54.6875 
z
" id="BitstreamVeraSans-Roman-67"/>
      <path d="M 37.109375 75.984375 
L 37.109375 68.5 
L 28.515625 68.5 
Q 23.6875 68.5 21.796875 66.546875 
Q 19.921875 64.59375 19.921875 59.515625 
L 19.921875 54.6875 
L 34.71875 54.6875 
L 34.71875 47.703125 
L 19.921875 47.703125 
L 19.921875 0 
L 10.890625 0 
L 10.890625 47.703125 
L 2.296875 47.703125 
L 2.296875 54.6875 
L 10.890625 54.6875 
L 10.890625 58.5 
Q 10.890625 67.625 15.140625 71.796875 
Q 19.390625 75.984375 28.609375 75.984375 
z
" id="BitstreamVeraSans-Roman-66"/>
      <path d="M 34.28125 27.484375 
Q 23.390625 27.484375 19.1875 25 
Q 14.984375 22.515625 14.984375 16.5 
Q 14.984375 11.71875 18.140625 8.90625 
Q 21.296875 6.109375 26.703125 6.109375 
Q 34.1875 6.109375 38.703125 11.40625 
Q 43.21875 16.703125 43.21875 25.484375 
L 43.21875 27.484375 
z
M 52.203125 31.203125 
L 52.203125 0 
L 43.21875 0 
L 43.21875 8.296875 
Q 40.140625 3.328125 35.546875 0.953125 
Q 30.953125 -1.421875 24.3125 -1.421875 
Q 15.921875 -1.421875 10.953125 3.296875 
Q 6 8.015625 6 15.921875 
Q 6 25.140625 12.171875 29.828125 
Q 18.359375 34.515625 30.609375 34.515625 
L 43.21875 34.515625 
L 43.21875 35.40625 
Q 43.21875 41.609375 39.140625 45 
Q 35.0625 48.390625 27.6875 48.390625 
Q 23 48.390625 18.546875 47.265625 
Q 14.109375 46.140625 10.015625 43.890625 
L 10.015625 52.203125 
Q 14.9375 54.109375 19.578125 55.046875 
Q 24.21875 56 28.609375 56 
Q 40.484375 56 46.34375 49.84375 
Q 52.203125 43.703125 52.203125 31.203125 
" id="BitstreamVeraSans-Roman-61"/>
      <path d="M 44.28125 53.078125 
L 44.28125 44.578125 
Q 40.484375 46.53125 36.375 47.5 
Q 32.28125 48.484375 27.875 48.484375 
Q 21.1875 48.484375 17.84375 46.4375 
Q 14.5 44.390625 14.5 40.28125 
Q 14.5 37.15625 16.890625 35.375 
Q 19.28125 33.59375 26.515625 31.984375 
L 29.59375 31.296875 
Q 39.15625 29.25 43.1875 25.515625 
Q 47.21875 21.78125 47.21875 15.09375 
Q 47.21875 7.46875 41.1875 3.015625 
Q 35.15625 -1.421875 24.609375 -1.421875 
Q 20.21875 -1.421875 15.453125 -0.5625 
Q 10.6875 0.296875 5.421875 2 
L 5.421875 11.28125 
Q 10.40625 8.6875 15.234375 7.390625 
Q 20.0625 6.109375 24.8125 6.109375 
Q 31.15625 6.109375 34.5625 8.28125 
Q 37.984375 10.453125 37.984375 14.40625 
Q 37.984375 18.0625 35.515625 20.015625 
Q 33.0625 21.96875 24.703125 23.78125 
L 21.578125 24.515625 
Q 13.234375 26.265625 9.515625 29.90625 
Q 5.8125 33.546875 5.8125 39.890625 
Q 5.8125 47.609375 11.28125 51.796875 
Q 16.75 56 26.8125 56 
Q 31.78125 56 36.171875 55.265625 
Q 40.578125 54.546875 44.28125 53.078125 
" id="BitstreamVeraSans-Roman-73"/>
      <path d="M 8.015625 75.875 
L 15.828125 75.875 
Q 23.140625 64.359375 26.78125 53.3125 
Q 30.421875 42.28125 30.421875 31.390625 
Q 30.421875 20.453125 26.78125 9.375 
Q 23.140625 -1.703125 15.828125 -13.1875 
L 8.015625 -13.1875 
Q 14.5 -2 17.703125 9.0625 
Q 20.90625 20.125 20.90625 31.390625 
Q 20.90625 42.671875 17.703125 53.65625 
Q 14.5 64.65625 8.015625 75.875 
" id="BitstreamVeraSans-Roman-29"/>
     </defs>
     <g transform="translate(166.05515625 418.0696875)scale(0.18 -0.18)">
      <use xlink:href="#BitstreamVeraSans-Roman-6c"/>
      <use x="27.783203125" xlink:href="#BitstreamVeraSans-Roman-6f"/>
      <use x="88.96484375" xlink:href="#BitstreamVeraSans-Roman-67"/>
      <use x="152.44140625" xlink:href="#BitstreamVeraSans-Roman-31"/>
      <use x="216.064453125" xlink:href="#BitstreamVeraSans-Roman-30"/>
      <use x="279.6875" xlink:href="#BitstreamVeraSans-Roman-20"/>
      <use x="311.474609375" xlink:href="#BitstreamVeraSans-Roman-6f"/>
      <use x="372.65625" xlink:href="#BitstreamVeraSans-Roman-66"/>
      <use x="407.861328125" xlink:href="#BitstreamVeraSans-Roman-20"/>
      <use x="439.6484375" xlink:href="#BitstreamVeraSans-Roman-28"/>
      <use x="478.662109375" xlink:href="#BitstreamVeraSans-Roman-23"/>
      <use x="562.451171875" xlink:href="#BitstreamVeraSans-Roman-20"/>
      <use x="594.23828125" xlink:href="#BitstreamVeraSans-Roman-66"/>
      <use x="629.365234375" xlink:href="#BitstreamVeraSans-Roman-2d"/>
      <use x="665.44921875" xlink:href="#BitstreamVeraSans-Roman-65"/>
      <use x="726.97265625" xlink:href="#BitstreamVeraSans-Roman-76"/>
      <use x="786.15234375" xlink:href="#BitstreamVeraSans-Roman-61"/>
      <use x="847.431640625" xlink:href="#BitstreamVeraSans-Roman-6c"/>
      <use x="875.21484375" xlink:href="#BitstreamVeraSans-Roman-73"/>
      <use x="927.314453125" xlink:href="#BitstreamVeraSans-Roman-20"/>
      <use x="959.1015625" xlink:href="#BitstreamVeraSans-Roman-2f"/>
      <use x="992.79296875" xlink:href="#BitstreamVeraSans-Roman-20"/>
      <use x="1024.58007812" xlink:href="#BitstreamVeraSans-Roman-64"/>
      <use x="1088.05664062" xlink:href="#BitstreamVeraSans-Roman-69"/>
      <use x="1115.83984375" xlink:href="#BitstreamVeraSans-Roman-6d"/>
      <use x="1213.25195312" xlink:href="#BitstreamVeraSans-Roman-65"/>
      <use x="1274.77539062" xlink:href="#BitstreamVeraSans-Roman-6e"/>
      <use x="1338.15429688" xlink:href="#BitstreamVeraSans-Roman-73"/>
      <use x="1390.25390625" xlink:href="#BitstreamVeraSans-Roman-69"/>
      <use x="1418.03710938" xlink:href="#BitstreamVeraSans-Roman-6f"/>
      <use x="1479.21875" xlink:href="#BitstreamVeraSans-Roman-6e"/>
      <use x="1542.59765625" xlink:href="#BitstreamVeraSans-Roman-29"/>
     </g>
    </g>
   </g>
   <g id="matplotlib.axis_2">
    <g id="ytick_1">
     <g id="line2d_115">
      <path clip-path="url(#p15e40bdb01)" d="M 85.2 376.03625 
L 531.6 376.03625 
" style="fill:none;stroke:#000000;stroke-dasharray:1.000000,3.000000;stroke-dashoffset:0.0;stroke-width:0.5;"/>
     </g>
     <g id="line2d_116">
      <defs>
       <path d="M 0 0 
L 4 0 
" id="m5b06b65755" style="stroke:#000000;stroke-width:0.5;"/>
      </defs>
      <g>
       <use style="stroke:#000000;stroke-width:0.5;" x="85.2" xlink:href="#m5b06b65755" y="376.03625"/>
      </g>
     </g>
     <g id="line2d_117">
      <defs>
       <path d="M 0 0 
L -4 0 
" id="m1e724716ae" style="stroke:#000000;stroke-width:0.5;"/>
      </defs>
      <g>
       <use style="stroke:#000000;stroke-width:0.5;" x="531.6" xlink:href="#m1e724716ae" y="376.03625"/>
      </g>
     </g>
     <g id="text_11">
      <!-- 0.0 -->
      <defs>
       <path d="M 10.6875 12.40625 
L 21 12.40625 
L 21 0 
L 10.6875 0 
z
" id="BitstreamVeraSans-Roman-2e"/>
      </defs>
      <g transform="translate(49.39375 381.555)scale(0.2 -0.2)">
       <use xlink:href="#BitstreamVeraSans-Roman-30"/>
       <use x="63.623046875" xlink:href="#BitstreamVeraSans-Roman-2e"/>
       <use x="95.41015625" xlink:href="#BitstreamVeraSans-Roman-30"/>
      </g>
     </g>
    </g>
    <g id="ytick_2">
     <g id="line2d_118">
      <path clip-path="url(#p15e40bdb01)" d="M 85.2 307.600606 
L 531.6 307.600606 
" style="fill:none;stroke:#000000;stroke-dasharray:1.000000,3.000000;stroke-dashoffset:0.0;stroke-width:0.5;"/>
     </g>
     <g id="line2d_119">
      <g>
       <use style="stroke:#000000;stroke-width:0.5;" x="85.2" xlink:href="#m5b06b65755" y="307.600606436"/>
      </g>
     </g>
     <g id="line2d_120">
      <g>
       <use style="stroke:#000000;stroke-width:0.5;" x="531.6" xlink:href="#m1e724716ae" y="307.600606436"/>
      </g>
     </g>
     <g id="text_12">
      <!-- 0.2 -->
      <g transform="translate(49.39375 313.119356436)scale(0.2 -0.2)">
       <use xlink:href="#BitstreamVeraSans-Roman-30"/>
       <use x="63.623046875" xlink:href="#BitstreamVeraSans-Roman-2e"/>
       <use x="95.41015625" xlink:href="#BitstreamVeraSans-Roman-32"/>
      </g>
     </g>
    </g>
    <g id="ytick_3">
     <g id="line2d_121">
      <path clip-path="url(#p15e40bdb01)" d="M 85.2 239.164963 
L 531.6 239.164963 
" style="fill:none;stroke:#000000;stroke-dasharray:1.000000,3.000000;stroke-dashoffset:0.0;stroke-width:0.5;"/>
     </g>
     <g id="line2d_122">
      <g>
       <use style="stroke:#000000;stroke-width:0.5;" x="85.2" xlink:href="#m5b06b65755" y="239.164962871"/>
      </g>
     </g>
     <g id="line2d_123">
      <g>
       <use style="stroke:#000000;stroke-width:0.5;" x="531.6" xlink:href="#m1e724716ae" y="239.164962871"/>
      </g>
     </g>
     <g id="text_13">
      <!-- 0.4 -->
      <g transform="translate(49.39375 244.683712871)scale(0.2 -0.2)">
       <use xlink:href="#BitstreamVeraSans-Roman-30"/>
       <use x="63.623046875" xlink:href="#BitstreamVeraSans-Roman-2e"/>
       <use x="95.41015625" xlink:href="#BitstreamVeraSans-Roman-34"/>
      </g>
     </g>
    </g>
    <g id="ytick_4">
     <g id="line2d_124">
      <path clip-path="url(#p15e40bdb01)" d="M 85.2 170.729319 
L 531.6 170.729319 
" style="fill:none;stroke:#000000;stroke-dasharray:1.000000,3.000000;stroke-dashoffset:0.0;stroke-width:0.5;"/>
     </g>
     <g id="line2d_125">
      <g>
       <use style="stroke:#000000;stroke-width:0.5;" x="85.2" xlink:href="#m5b06b65755" y="170.729319307"/>
      </g>
     </g>
     <g id="line2d_126">
      <g>
       <use style="stroke:#000000;stroke-width:0.5;" x="531.6" xlink:href="#m1e724716ae" y="170.729319307"/>
      </g>
     </g>
     <g id="text_14">
      <!-- 0.6 -->
      <g transform="translate(49.39375 176.248069307)scale(0.2 -0.2)">
       <use xlink:href="#BitstreamVeraSans-Roman-30"/>
       <use x="63.623046875" xlink:href="#BitstreamVeraSans-Roman-2e"/>
       <use x="95.41015625" xlink:href="#BitstreamVeraSans-Roman-36"/>
      </g>
     </g>
    </g>
    <g id="ytick_5">
     <g id="line2d_127">
      <path clip-path="url(#p15e40bdb01)" d="M 85.2 102.293676 
L 531.6 102.293676 
" style="fill:none;stroke:#000000;stroke-dasharray:1.000000,3.000000;stroke-dashoffset:0.0;stroke-width:0.5;"/>
     </g>
     <g id="line2d_128">
      <g>
       <use style="stroke:#000000;stroke-width:0.5;" x="85.2" xlink:href="#m5b06b65755" y="102.293675743"/>
      </g>
     </g>
     <g id="line2d_129">
      <g>
       <use style="stroke:#000000;stroke-width:0.5;" x="531.6" xlink:href="#m1e724716ae" y="102.293675743"/>
      </g>
     </g>
     <g id="text_15">
      <!-- 0.8 -->
      <g transform="translate(49.39375 107.812425743)scale(0.2 -0.2)">
       <use xlink:href="#BitstreamVeraSans-Roman-30"/>
       <use x="63.623046875" xlink:href="#BitstreamVeraSans-Roman-2e"/>
       <use x="95.41015625" xlink:href="#BitstreamVeraSans-Roman-38"/>
      </g>
     </g>
    </g>
    <g id="ytick_6">
     <g id="line2d_130">
      <path clip-path="url(#p15e40bdb01)" d="M 85.2 33.858032 
L 531.6 33.858032 
" style="fill:none;stroke:#000000;stroke-dasharray:1.000000,3.000000;stroke-dashoffset:0.0;stroke-width:0.5;"/>
     </g>
     <g id="line2d_131">
      <g>
       <use style="stroke:#000000;stroke-width:0.5;" x="85.2" xlink:href="#m5b06b65755" y="33.8580321782"/>
      </g>
     </g>
     <g id="line2d_132">
      <g>
       <use style="stroke:#000000;stroke-width:0.5;" x="531.6" xlink:href="#m1e724716ae" y="33.8580321782"/>
      </g>
     </g>
     <g id="text_16">
      <!-- 1.0 -->
      <g transform="translate(49.39375 39.3767821782)scale(0.2 -0.2)">
       <use xlink:href="#BitstreamVeraSans-Roman-31"/>
       <use x="63.623046875" xlink:href="#BitstreamVeraSans-Roman-2e"/>
       <use x="95.41015625" xlink:href="#BitstreamVeraSans-Roman-30"/>
      </g>
     </g>
    </g>
    <g id="text_17">
     <!-- Proportion of function+target pairs -->
     <defs>
      <path d="M 19.671875 64.796875 
L 19.671875 37.40625 
L 32.078125 37.40625 
Q 38.96875 37.40625 42.71875 40.96875 
Q 46.484375 44.53125 46.484375 51.125 
Q 46.484375 57.671875 42.71875 61.234375 
Q 38.96875 64.796875 32.078125 64.796875 
z
M 9.8125 72.90625 
L 32.078125 72.90625 
Q 44.34375 72.90625 50.609375 67.359375 
Q 56.890625 61.8125 56.890625 51.125 
Q 56.890625 40.328125 50.609375 34.8125 
Q 44.34375 29.296875 32.078125 29.296875 
L 19.671875 29.296875 
L 19.671875 0 
L 9.8125 0 
z
" id="BitstreamVeraSans-Roman-50"/>
      <path d="M 46 62.703125 
L 46 35.5 
L 73.1875 35.5 
L 73.1875 27.203125 
L 46 27.203125 
L 46 0 
L 37.796875 0 
L 37.796875 27.203125 
L 10.59375 27.203125 
L 10.59375 35.5 
L 37.796875 35.5 
L 37.796875 62.703125 
z
" id="BitstreamVeraSans-Roman-2b"/>
      <path d="M 18.109375 8.203125 
L 18.109375 -20.796875 
L 9.078125 -20.796875 
L 9.078125 54.6875 
L 18.109375 54.6875 
L 18.109375 46.390625 
Q 20.953125 51.265625 25.265625 53.625 
Q 29.59375 56 35.59375 56 
Q 45.5625 56 51.78125 48.09375 
Q 58.015625 40.1875 58.015625 27.296875 
Q 58.015625 14.40625 51.78125 6.484375 
Q 45.5625 -1.421875 35.59375 -1.421875 
Q 29.59375 -1.421875 25.265625 0.953125 
Q 20.953125 3.328125 18.109375 8.203125 
M 48.6875 27.296875 
Q 48.6875 37.203125 44.609375 42.84375 
Q 40.53125 48.484375 33.40625 48.484375 
Q 26.265625 48.484375 22.1875 42.84375 
Q 18.109375 37.203125 18.109375 27.296875 
Q 18.109375 17.390625 22.1875 11.75 
Q 26.265625 6.109375 33.40625 6.109375 
Q 40.53125 6.109375 44.609375 11.75 
Q 48.6875 17.390625 48.6875 27.296875 
" id="BitstreamVeraSans-Roman-70"/>
      <path d="M 18.3125 70.21875 
L 18.3125 54.6875 
L 36.8125 54.6875 
L 36.8125 47.703125 
L 18.3125 47.703125 
L 18.3125 18.015625 
Q 18.3125 11.328125 20.140625 9.421875 
Q 21.96875 7.515625 27.59375 7.515625 
L 36.8125 7.515625 
L 36.8125 0 
L 27.59375 0 
Q 17.1875 0 13.234375 3.875 
Q 9.28125 7.765625 9.28125 18.015625 
L 9.28125 47.703125 
L 2.6875 47.703125 
L 2.6875 54.6875 
L 9.28125 54.6875 
L 9.28125 70.21875 
z
" id="BitstreamVeraSans-Roman-74"/>
      <path d="M 8.5 21.578125 
L 8.5 54.6875 
L 17.484375 54.6875 
L 17.484375 21.921875 
Q 17.484375 14.15625 20.5 10.265625 
Q 23.53125 6.390625 29.59375 6.390625 
Q 36.859375 6.390625 41.078125 11.03125 
Q 45.3125 15.671875 45.3125 23.6875 
L 45.3125 54.6875 
L 54.296875 54.6875 
L 54.296875 0 
L 45.3125 0 
L 45.3125 8.40625 
Q 42.046875 3.421875 37.71875 1 
Q 33.40625 -1.421875 27.6875 -1.421875 
Q 18.265625 -1.421875 13.375 4.4375 
Q 8.5 10.296875 8.5 21.578125 
" id="BitstreamVeraSans-Roman-75"/>
      <path d="M 41.109375 46.296875 
Q 39.59375 47.171875 37.8125 47.578125 
Q 36.03125 48 33.890625 48 
Q 26.265625 48 22.1875 43.046875 
Q 18.109375 38.09375 18.109375 28.8125 
L 18.109375 0 
L 9.078125 0 
L 9.078125 54.6875 
L 18.109375 54.6875 
L 18.109375 46.1875 
Q 20.953125 51.171875 25.484375 53.578125 
Q 30.03125 56 36.53125 56 
Q 37.453125 56 38.578125 55.875 
Q 39.703125 55.765625 41.0625 55.515625 
z
" id="BitstreamVeraSans-Roman-72"/>
      <path d="M 48.78125 52.59375 
L 48.78125 44.1875 
Q 44.96875 46.296875 41.140625 47.34375 
Q 37.3125 48.390625 33.40625 48.390625 
Q 24.65625 48.390625 19.8125 42.84375 
Q 14.984375 37.3125 14.984375 27.296875 
Q 14.984375 17.28125 19.8125 11.734375 
Q 24.65625 6.203125 33.40625 6.203125 
Q 37.3125 6.203125 41.140625 7.25 
Q 44.96875 8.296875 48.78125 10.40625 
L 48.78125 2.09375 
Q 45.015625 0.34375 40.984375 -0.53125 
Q 36.96875 -1.421875 32.421875 -1.421875 
Q 20.0625 -1.421875 12.78125 6.34375 
Q 5.515625 14.109375 5.515625 27.296875 
Q 5.515625 40.671875 12.859375 48.328125 
Q 20.21875 56 33.015625 56 
Q 37.15625 56 41.109375 55.140625 
Q 45.0625 54.296875 48.78125 52.59375 
" id="BitstreamVeraSans-Roman-63"/>
     </defs>
     <g transform="translate(40.6503125 361.225625)rotate(-90.0)scale(0.18 -0.18)">
      <use xlink:href="#BitstreamVeraSans-Roman-50"/>
      <use x="60.287109375" xlink:href="#BitstreamVeraSans-Roman-72"/>
      <use x="101.369140625" xlink:href="#BitstreamVeraSans-Roman-6f"/>
      <use x="162.55078125" xlink:href="#BitstreamVeraSans-Roman-70"/>
      <use x="226.02734375" xlink:href="#BitstreamVeraSans-Roman-6f"/>
      <use x="287.208984375" xlink:href="#BitstreamVeraSans-Roman-72"/>
      <use x="328.322265625" xlink:href="#BitstreamVeraSans-Roman-74"/>
      <use x="367.53125" xlink:href="#BitstreamVeraSans-Roman-69"/>
      <use x="395.314453125" xlink:href="#BitstreamVeraSans-Roman-6f"/>
      <use x="456.49609375" xlink:href="#BitstreamVeraSans-Roman-6e"/>
      <use x="519.875" xlink:href="#BitstreamVeraSans-Roman-20"/>
      <use x="551.662109375" xlink:href="#BitstreamVeraSans-Roman-6f"/>
      <use x="612.84375" xlink:href="#BitstreamVeraSans-Roman-66"/>
      <use x="648.048828125" xlink:href="#BitstreamVeraSans-Roman-20"/>
      <use x="679.8359375" xlink:href="#BitstreamVeraSans-Roman-66"/>
      <use x="715.041015625" xlink:href="#BitstreamVeraSans-Roman-75"/>
      <use x="778.419921875" xlink:href="#BitstreamVeraSans-Roman-6e"/>
      <use x="841.798828125" xlink:href="#BitstreamVeraSans-Roman-63"/>
      <use x="896.779296875" xlink:href="#BitstreamVeraSans-Roman-74"/>
      <use x="935.98828125" xlink:href="#BitstreamVeraSans-Roman-69"/>
      <use x="963.771484375" xlink:href="#BitstreamVeraSans-Roman-6f"/>
      <use x="1024.953125" xlink:href="#BitstreamVeraSans-Roman-6e"/>
      <use x="1088.33203125" xlink:href="#BitstreamVeraSans-Roman-2b"/>
      <use x="1172.12109375" xlink:href="#BitstreamVeraSans-Roman-74"/>
      <use x="1211.33007812" xlink:href="#BitstreamVeraSans-Roman-61"/>
      <use x="1272.609375" xlink:href="#BitstreamVeraSans-Roman-72"/>
      <use x="1313.70703125" xlink:href="#BitstreamVeraSans-Roman-67"/>
      <use x="1377.18359375" xlink:href="#BitstreamVeraSans-Roman-65"/>
      <use x="1438.70703125" xlink:href="#BitstreamVeraSans-Roman-74"/>
      <use x="1477.91601562" xlink:href="#BitstreamVeraSans-Roman-20"/>
      <use x="1509.703125" xlink:href="#BitstreamVeraSans-Roman-70"/>
      <use x="1573.1796875" xlink:href="#BitstreamVeraSans-Roman-61"/>
      <use x="1634.45898438" xlink:href="#BitstreamVeraSans-Roman-69"/>
      <use x="1662.2421875" xlink:href="#BitstreamVeraSans-Roman-72"/>
      <use x="1703.35546875" xlink:href="#BitstreamVeraSans-Roman-73"/>
     </g>
    </g>
   </g>
   <g id="text_18">
    <!-- 5-D -->
    <defs>
     <path d="M 19.671875 64.796875 
L 19.671875 8.109375 
L 31.59375 8.109375 
Q 46.6875 8.109375 53.6875 14.9375 
Q 60.6875 21.78125 60.6875 36.53125 
Q 60.6875 51.171875 53.6875 57.984375 
Q 46.6875 64.796875 31.59375 64.796875 
z
M 9.8125 72.90625 
L 30.078125 72.90625 
Q 51.265625 72.90625 61.171875 64.09375 
Q 71.09375 55.28125 71.09375 36.53125 
Q 71.09375 17.671875 61.125 8.828125 
Q 51.171875 0 30.078125 0 
L 9.8125 0 
z
" id="BitstreamVeraSans-Roman-44"/>
    </defs>
    <g transform="translate(492.0 373.331748144)scale(0.15 -0.15)">
     <use xlink:href="#BitstreamVeraSans-Roman-35"/>
     <use x="63.623046875" xlink:href="#BitstreamVeraSans-Roman-2d"/>
     <use x="99.70703125" xlink:href="#BitstreamVeraSans-Roman-44"/>
    </g>
   </g>
   <g id="text_19">
    <!-- 3-D -->
    <g transform="translate(492.0 209.086203589)scale(0.15 -0.15)">
     <use xlink:href="#BitstreamVeraSans-Roman-33"/>
     <use x="63.623046875" xlink:href="#BitstreamVeraSans-Roman-2d"/>
     <use x="99.70703125" xlink:href="#BitstreamVeraSans-Roman-44"/>
    </g>
   </g>
   <g id="text_20">
    <!-- 2-D -->
    <g transform="translate(492.0 44.8406590347)scale(0.15 -0.15)">
     <use xlink:href="#BitstreamVeraSans-Roman-32"/>
     <use x="63.623046875" xlink:href="#BitstreamVeraSans-Roman-2d"/>
     <use x="99.70703125" xlink:href="#BitstreamVeraSans-Roman-44"/>
    </g>
   </g>
   <g id="text_21">
    <!-- bbob - f16 -->
    <defs>
     <path d="M 48.6875 27.296875 
Q 48.6875 37.203125 44.609375 42.84375 
Q 40.53125 48.484375 33.40625 48.484375 
Q 26.265625 48.484375 22.1875 42.84375 
Q 18.109375 37.203125 18.109375 27.296875 
Q 18.109375 17.390625 22.1875 11.75 
Q 26.265625 6.109375 33.40625 6.109375 
Q 40.53125 6.109375 44.609375 11.75 
Q 48.6875 17.390625 48.6875 27.296875 
M 18.109375 46.390625 
Q 20.953125 51.265625 25.265625 53.625 
Q 29.59375 56 35.59375 56 
Q 45.5625 56 51.78125 48.09375 
Q 58.015625 40.1875 58.015625 27.296875 
Q 58.015625 14.40625 51.78125 6.484375 
Q 45.5625 -1.421875 35.59375 -1.421875 
Q 29.59375 -1.421875 25.265625 0.953125 
Q 20.953125 3.328125 18.109375 8.203125 
L 18.109375 0 
L 9.078125 0 
L 9.078125 75.984375 
L 18.109375 75.984375 
z
" id="BitstreamVeraSans-Roman-62"/>
    </defs>
    <g transform="translate(89.664 50.007246875)scale(0.1666 -0.1666)">
     <use xlink:href="#BitstreamVeraSans-Roman-62"/>
     <use x="63.4765625" xlink:href="#BitstreamVeraSans-Roman-62"/>
     <use x="126.953125" xlink:href="#BitstreamVeraSans-Roman-6f"/>
     <use x="188.134765625" xlink:href="#BitstreamVeraSans-Roman-62"/>
     <use x="251.611328125" xlink:href="#BitstreamVeraSans-Roman-20"/>
     <use x="283.3984375" xlink:href="#BitstreamVeraSans-Roman-2d"/>
     <use x="319.482421875" xlink:href="#BitstreamVeraSans-Roman-20"/>
     <use x="351.26953125" xlink:href="#BitstreamVeraSans-Roman-66"/>
     <use x="386.474609375" xlink:href="#BitstreamVeraSans-Roman-31"/>
     <use x="450.09765625" xlink:href="#BitstreamVeraSans-Roman-36"/>
    </g>
    <!-- 51 targets in 100..1e-08 -->
    <g transform="translate(89.664 68.6628025)scale(0.1666 -0.1666)">
     <use xlink:href="#BitstreamVeraSans-Roman-35"/>
     <use x="63.623046875" xlink:href="#BitstreamVeraSans-Roman-31"/>
     <use x="127.24609375" xlink:href="#BitstreamVeraSans-Roman-20"/>
     <use x="159.033203125" xlink:href="#BitstreamVeraSans-Roman-74"/>
     <use x="198.2421875" xlink:href="#BitstreamVeraSans-Roman-61"/>
     <use x="259.521484375" xlink:href="#BitstreamVeraSans-Roman-72"/>
     <use x="300.619140625" xlink:href="#BitstreamVeraSans-Roman-67"/>
     <use x="364.095703125" xlink:href="#BitstreamVeraSans-Roman-65"/>
     <use x="425.619140625" xlink:href="#BitstreamVeraSans-Roman-74"/>
     <use x="464.828125" xlink:href="#BitstreamVeraSans-Roman-73"/>
     <use x="516.927734375" xlink:href="#BitstreamVeraSans-Roman-20"/>
     <use x="548.71484375" xlink:href="#BitstreamVeraSans-Roman-69"/>
     <use x="576.498046875" xlink:href="#BitstreamVeraSans-Roman-6e"/>
     <use x="639.876953125" xlink:href="#BitstreamVeraSans-Roman-20"/>
     <use x="671.6640625" xlink:href="#BitstreamVeraSans-Roman-31"/>
     <use x="735.287109375" xlink:href="#BitstreamVeraSans-Roman-30"/>
     <use x="798.91015625" xlink:href="#BitstreamVeraSans-Roman-30"/>
     <use x="862.533203125" xlink:href="#BitstreamVeraSans-Roman-2e"/>
     <use x="894.3203125" xlink:href="#BitstreamVeraSans-Roman-2e"/>
     <use x="926.107421875" xlink:href="#BitstreamVeraSans-Roman-31"/>
     <use x="989.73046875" xlink:href="#BitstreamVeraSans-Roman-65"/>
     <use x="1051.25390625" xlink:href="#BitstreamVeraSans-Roman-2d"/>
     <use x="1087.33789062" xlink:href="#BitstreamVeraSans-Roman-30"/>
     <use x="1150.9609375" xlink:href="#BitstreamVeraSans-Roman-38"/>
    </g>
    <!-- 15 instances -->
    <g transform="translate(89.664 87.318358125)scale(0.1666 -0.1666)">
     <use xlink:href="#BitstreamVeraSans-Roman-31"/>
     <use x="63.623046875" xlink:href="#BitstreamVeraSans-Roman-35"/>
     <use x="127.24609375" xlink:href="#BitstreamVeraSans-Roman-20"/>
     <use x="159.033203125" xlink:href="#BitstreamVeraSans-Roman-69"/>
     <use x="186.81640625" xlink:href="#BitstreamVeraSans-Roman-6e"/>
     <use x="250.1953125" xlink:href="#BitstreamVeraSans-Roman-73"/>
     <use x="302.294921875" xlink:href="#BitstreamVeraSans-Roman-74"/>
     <use x="341.50390625" xlink:href="#BitstreamVeraSans-Roman-61"/>
     <use x="402.783203125" xlink:href="#BitstreamVeraSans-Roman-6e"/>
     <use x="466.162109375" xlink:href="#BitstreamVeraSans-Roman-63"/>
     <use x="521.142578125" xlink:href="#BitstreamVeraSans-Roman-65"/>
     <use x="582.666015625" xlink:href="#BitstreamVeraSans-Roman-73"/>
    </g>
   </g>
   <g id="text_22">
    <!-- 1.2.1 -->
    <g style="fill:#808080;" transform="translate(295.678125 370.5005625)scale(0.1 -0.1)">
     <use xlink:href="#BitstreamVeraSans-Roman-31"/>
     <use x="63.623046875" xlink:href="#BitstreamVeraSans-Roman-2e"/>
     <use x="95.41015625" xlink:href="#BitstreamVeraSans-Roman-32"/>
     <use x="159.033203125" xlink:href="#BitstreamVeraSans-Roman-2e"/>
     <use x="190.8203125" xlink:href="#BitstreamVeraSans-Roman-31"/>
    </g>
   </g>
   <g id="text_23">
    <!-- 16 Weierstrass -->
    <defs>
     <path d="M 3.328125 72.90625 
L 13.28125 72.90625 
L 28.609375 11.28125 
L 43.890625 72.90625 
L 54.984375 72.90625 
L 70.3125 11.28125 
L 85.59375 72.90625 
L 95.609375 72.90625 
L 77.296875 0 
L 64.890625 0 
L 49.515625 63.28125 
L 33.984375 0 
L 21.578125 0 
z
" id="BitstreamVeraSans-Roman-57"/>
    </defs>
    <g transform="translate(218.68125 25.43625)scale(0.24 -0.24)">
     <use xlink:href="#BitstreamVeraSans-Roman-31"/>
     <use x="63.623046875" xlink:href="#BitstreamVeraSans-Roman-36"/>
     <use x="127.24609375" xlink:href="#BitstreamVeraSans-Roman-20"/>
     <use x="159.033203125" xlink:href="#BitstreamVeraSans-Roman-57"/>
     <use x="257.83203125" xlink:href="#BitstreamVeraSans-Roman-65"/>
     <use x="319.35546875" xlink:href="#BitstreamVeraSans-Roman-69"/>
     <use x="347.138671875" xlink:href="#BitstreamVeraSans-Roman-65"/>
     <use x="408.662109375" xlink:href="#BitstreamVeraSans-Roman-72"/>
     <use x="449.775390625" xlink:href="#BitstreamVeraSans-Roman-73"/>
     <use x="501.875" xlink:href="#BitstreamVeraSans-Roman-74"/>
     <use x="541.083984375" xlink:href="#BitstreamVeraSans-Roman-72"/>
     <use x="582.197265625" xlink:href="#BitstreamVeraSans-Roman-61"/>
     <use x="643.4765625" xlink:href="#BitstreamVeraSans-Roman-73"/>
     <use x="695.576171875" xlink:href="#BitstreamVeraSans-Roman-73"/>
    </g>
   </g>
  </g>
 </g>
 <defs>
  <clipPath id="p15e40bdb01">
   <rect height="345.6" width="446.4" x="85.2" y="30.43625"/>
  </clipPath>
 </defs>
</svg>
