<?xml version="1.0" encoding="utf-8" standalone="no"?>
<!DOCTYPE svg PUBLIC "-//W3C//DTD SVG 1.1//EN"
  "http://www.w3.org/Graphics/SVG/1.1/DTD/svg11.dtd">
<!-- Created with matplotlib (http://matplotlib.org/) -->
<svg height="413pt" version="1.1" viewBox="0 0 526 413" width="526pt" xmlns="http://www.w3.org/2000/svg" xmlns:xlink="http://www.w3.org/1999/xlink">
 <defs>
  <style type="text/css">
*{stroke-linecap:butt;stroke-linejoin:round;stroke-miterlimit:100000;}
  </style>
 </defs>
 <g id="figure_1">
  <g id="patch_1">
   <path d="M 0 413.968843 
L 526.64464 413.968843 
L 526.64464 0 
L 0 0 
z
" style="fill:#ffffff;"/>
  </g>
  <g id="axes_1">
   <g id="patch_2">
    <path d="M 67.3625 359.056343 
L 513.7625 359.056343 
L 513.7625 13.456343 
L 67.3625 13.456343 
z
" style="fill:#ffffff;"/>
   </g>
   <g id="line2d_1">
    <path clip-path="url(#p69c28ac8b9)" d="M 383.393295 359.056343 
L 383.393295 353.353373 
L 384.44405 353.353373 
L 384.44405 347.650402 
L 387.043951 347.650402 
L 387.043951 341.947432 
L 389.103896 341.947432 
L 389.103896 336.244462 
L 393.449764 336.244462 
L 393.449764 330.541491 
L 395.716856 330.541491 
L 395.716856 324.838521 
L 398.06062 324.838521 
L 398.06062 319.135551 
L 398.82333 319.135551 
L 398.82333 313.43258 
L 399.276665 313.43258 
L 399.276665 307.72961 
L 399.502145 307.72961 
L 399.502145 302.02664 
L 399.726838 302.02664 
L 399.726838 296.32367 
L 401.132013 296.32367 
L 401.132013 290.620699 
L 401.642091 290.620699 
L 401.642091 284.917729 
L 401.642091 284.917729 
L 401.642091 279.214759 
L 403.360937 279.214759 
L 403.360937 273.511788 
L 404.551331 273.511788 
L 404.551331 267.808818 
L 404.897307 267.808818 
L 404.897307 262.105848 
L 404.966281 262.105848 
L 404.966281 256.402877 
L 407.001924 256.402877 
L 407.001924 250.699907 
L 408.845607 250.699907 
L 408.845607 244.996937 
L 412.504869 244.996937 
L 412.504869 239.293967 
L 427.780337 239.293967 
L 427.780337 233.590996 
L 430.667504 233.590996 
L 430.667504 227.888026 
L 430.944632 227.888026 
L 430.944632 222.185056 
L 441.428784 222.185056 
L 441.428784 216.482085 
L 442.938878 216.482085 
L 442.938878 210.779115 
L 464.144632 210.779115 
L 464.144632 205.076145 
L 482.79666 205.076145 
L 482.79666 199.373175 
L 504.170444 199.373175 
L 504.170444 193.670204 
L 504.170444 193.670204 
L 504.170444 193.670204 
L 513.7625 193.670204 
" style="fill:none;stroke:#f5deb3;stroke-linecap:square;"/>
   </g>
   <g id="line2d_2">
    <path clip-path="url(#p69c28ac8b9)" d="M 609.495114 359.056343 
" style="fill:none;stroke:#f5deb3;stroke-linecap:square;"/>
   </g>
   <g id="line2d_3">
    <path clip-path="url(#p69c28ac8b9)" d="M 256.668226 359.056343 
L 256.668226 353.353373 
L 317.685389 353.353373 
L 317.685389 347.650402 
L 317.95147 347.650402 
L 317.95147 341.947432 
L 319.265661 341.947432 
L 319.265661 336.244462 
L 322.562326 336.244462 
L 322.562326 330.541491 
L 324.749807 330.541491 
L 324.749807 324.838521 
L 327.096412 324.838521 
L 327.096412 319.135551 
L 329.804133 319.135551 
L 329.804133 313.43258 
L 331.332704 313.43258 
L 331.332704 307.72961 
L 331.762869 307.72961 
L 331.762869 302.02664 
L 332.190185 302.02664 
L 332.190185 296.32367 
L 333.871701 296.32367 
L 333.871701 290.620699 
L 334.900822 290.620699 
L 334.900822 284.917729 
L 337.305741 284.917729 
L 337.305741 279.214759 
L 339.43418 279.214759 
L 339.43418 273.511788 
L 339.43418 273.511788 
L 339.43418 267.808818 
L 344.730536 267.808818 
L 344.730536 262.105848 
L 345.080263 262.105848 
L 345.080263 256.402877 
L 346.801019 256.402877 
L 346.801019 250.699907 
L 349.299054 250.699907 
L 349.299054 244.996937 
L 351.861159 244.996937 
L 351.861159 239.293967 
L 358.988344 239.293967 
L 358.988344 233.590996 
L 359.408701 233.590996 
L 359.408701 227.888026 
L 359.687425 227.888026 
L 359.687425 222.185056 
L 359.687425 222.185056 
L 359.687425 216.482085 
L 360.516445 216.482085 
L 360.516445 210.779115 
L 373.302175 210.779115 
L 373.302175 205.076145 
L 383.585618 205.076145 
L 383.585618 199.373175 
L 383.968554 199.373175 
L 383.968554 193.670204 
L 392.787118 193.670204 
L 392.787118 187.967234 
L 393.696512 187.967234 
L 393.696512 182.264264 
L 395.637245 182.264264 
L 395.637245 176.561293 
L 396.507608 176.561293 
L 396.507608 170.858323 
L 397.133305 170.858323 
L 397.133305 165.155353 
L 399.502145 165.155353 
L 399.502145 159.452382 
L 401.642091 159.452382 
L 401.642091 153.749412 
L 402.292035 153.749412 
L 402.292035 148.046442 
L 417.062828 148.046442 
L 417.062828 142.343472 
L 425.061551 142.343472 
L 425.061551 136.640501 
L 426.013775 136.640501 
L 426.013775 130.937531 
L 427.440605 130.937531 
L 427.440605 125.234561 
L 435.9958 125.234561 
L 435.9958 119.53159 
L 486.932599 119.53159 
L 486.932599 113.82862 
L 495.492984 113.82862 
L 495.492984 108.12565 
L 503.260267 108.12565 
L 503.260267 102.422679 
L 527.64464 102.422679 
" style="fill:none;stroke:#f5deb3;stroke-linecap:square;"/>
   </g>
   <g id="line2d_4">
    <path clip-path="url(#p69c28ac8b9)" d="M 334.900822 359.056343 
L 334.900822 353.353373 
L 402.721723 353.353373 
L 402.721723 347.650402 
L 404.551331 347.650402 
L 404.551331 341.947432 
L 415.500975 341.947432 
L 415.500975 336.244462 
L 416.776434 336.244462 
L 416.776434 330.541491 
L 417.119955 330.541491 
L 417.119955 324.838521 
L 417.801558 324.838521 
L 417.801558 319.135551 
L 418.027169 319.135551 
L 418.027169 313.43258 
L 418.139679 313.43258 
L 418.139679 307.72961 
L 418.195861 307.72961 
L 418.195861 302.02664 
L 418.699305 302.02664 
L 418.699305 296.32367 
L 419.032766 296.32367 
L 419.032766 290.620699 
L 419.25412 290.620699 
L 419.25412 284.917729 
L 421.48026 284.917729 
L 421.48026 279.214759 
L 421.905815 279.214759 
L 421.905815 273.511788 
L 426.410545 273.511788 
L 426.410545 267.808818 
L 428.693548 267.808818 
L 428.693548 262.105848 
L 430.760012 262.105848 
L 430.760012 256.402877 
L 431.723425 256.402877 
L 431.723425 250.699907 
L 431.996064 250.699907 
L 431.996064 244.996937 
L 433.563902 244.996937 
L 433.563902 239.293967 
L 433.740681 239.293967 
L 433.740681 233.590996 
L 434.048885 233.590996 
L 434.048885 227.888026 
L 435.094545 227.888026 
L 435.094545 222.185056 
L 437.136362 222.185056 
L 437.136362 216.482085 
L 437.220051 216.482085 
L 437.220051 210.779115 
L 440.680094 210.779115 
L 440.680094 205.076145 
L 441.936086 205.076145 
L 441.936086 199.373175 
L 443.888624 199.373175 
L 443.888624 193.670204 
L 443.926324 193.670204 
L 443.926324 187.967234 
L 444.377021 187.967234 
L 444.377021 182.264264 
L 448.753856 182.264264 
L 448.753856 176.561293 
L 451.86037 176.561293 
L 451.86037 170.858323 
L 453.732682 170.858323 
L 453.732682 165.155353 
L 455.64655 165.155353 
L 455.64655 159.452382 
L 457.566327 159.452382 
L 457.566327 153.749412 
L 457.627315 153.749412 
L 457.627315 148.046442 
L 463.173068 148.046442 
L 463.173068 142.343472 
L 463.896195 142.343472 
L 463.896195 136.640501 
L 465.750006 136.640501 
L 465.750006 130.937531 
L 469.862234 130.937531 
L 469.862234 125.234561 
L 476.243181 125.234561 
L 476.243181 119.53159 
L 480.207333 119.53159 
L 480.207333 113.82862 
L 484.466896 113.82862 
L 484.466896 108.12565 
L 490.15997 108.12565 
L 490.15997 102.422679 
L 490.196778 102.422679 
L 490.196778 96.719709 
L 492.153864 96.719709 
L 492.153864 91.016739 
L 492.580827 91.016739 
L 492.580827 85.313769 
L 496.133849 85.313769 
L 496.133849 79.610798 
L 497.692328 79.610798 
L 497.692328 73.907828 
L 500.261447 73.907828 
L 500.261447 68.204858 
L 501.369526 68.204858 
L 501.369526 62.501887 
L 502.504525 62.501887 
L 502.504525 56.798917 
L 524.566138 56.798917 
L 524.566138 51.095947 
L 527.64464 51.095947 
" style="fill:none;stroke:#f5deb3;stroke-linecap:square;"/>
   </g>
   <g id="line2d_5">
    <path clip-path="url(#p69c28ac8b9)" d="M 416.199804 359.056343 
L 416.199804 353.353373 
L 442.862291 353.353373 
L 442.862291 347.650402 
L 448.368005 347.650402 
L 448.368005 341.947432 
L 455.363064 341.947432 
L 455.363064 336.244462 
L 458.595352 336.244462 
L 458.595352 330.541491 
L 460.779831 330.541491 
L 460.779831 324.838521 
L 468.331331 324.838521 
L 468.331331 319.135551 
L 469.406765 319.135551 
L 469.406765 313.43258 
L 470.863022 313.43258 
L 470.863022 307.72961 
L 472.068203 307.72961 
L 472.068203 302.02664 
L 473.70426 302.02664 
L 473.70426 296.32367 
L 477.015123 296.32367 
L 477.015123 290.620699 
L 478.266764 290.620699 
L 478.266764 284.917729 
L 479.233441 284.917729 
L 479.233441 279.214759 
L 481.609634 279.214759 
L 481.609634 273.511788 
L 483.494451 273.511788 
L 483.494451 267.808818 
L 484.887775 267.808818 
L 484.887775 262.105848 
L 486.134187 262.105848 
L 486.134187 256.402877 
L 490.490489 256.402877 
L 490.490489 250.699907 
L 492.509862 250.699907 
L 492.509862 244.996937 
L 493.128172 244.996937 
L 493.128172 239.293967 
L 498.490043 239.293967 
L 498.490043 233.590996 
L 500.402966 233.590996 
L 500.402966 227.888026 
L 504.892384 227.888026 
L 504.892384 222.185056 
L 518.926236 222.185056 
L 518.926236 216.482085 
L 520.463716 216.482085 
L 520.463716 210.779115 
L 520.899616 210.779115 
L 520.899616 205.076145 
L 527.64464 205.076145 
" style="fill:none;stroke:#f5deb3;stroke-linecap:square;"/>
   </g>
   <g id="line2d_6"/>
   <g id="line2d_7">
    <path clip-path="url(#p69c28ac8b9)" d="M 389.3678 359.056343 
L 389.3678 353.353373 
L 393.614367 353.353373 
L 393.614367 347.650402 
L 396.350231 347.650402 
L 396.350231 341.947432 
L 447.838099 341.947432 
L 447.838099 336.244462 
L 449.794596 336.244462 
L 449.794596 330.541491 
L 451.05548 330.541491 
L 451.05548 324.838521 
L 452.589469 324.838521 
L 452.589469 319.135551 
L 453.635482 319.135551 
L 453.635482 313.43258 
L 453.700298 313.43258 
L 453.700298 307.72961 
L 454.824168 307.72961 
L 454.824168 302.02664 
L 455.205032 302.02664 
L 455.205032 296.32367 
L 455.677972 296.32367 
L 455.677972 290.620699 
L 455.677972 290.620699 
L 455.677972 284.917729 
L 456.17865 284.917729 
L 456.17865 279.214759 
L 456.489612 279.214759 
L 456.489612 273.511788 
L 456.706397 273.511788 
L 456.706397 267.808818 
L 456.768202 267.808818 
L 456.768202 262.105848 
L 456.860799 262.105848 
L 456.860799 256.402877 
L 457.168499 256.402877 
L 457.168499 250.699907 
L 457.596828 250.699907 
L 457.596828 244.996937 
L 457.718688 244.996937 
L 457.718688 239.293967 
L 458.384831 239.293967 
L 458.384831 233.590996 
L 459.519489 233.590996 
L 459.519489 227.888026 
L 459.696835 227.888026 
L 459.696835 222.185056 
L 459.932542 222.185056 
L 459.932542 216.482085 
L 461.213757 216.482085 
L 461.213757 210.779115 
L 461.271394 210.779115 
L 461.271394 205.076145 
L 461.328979 205.076145 
L 461.328979 199.373175 
L 462.328494 199.373175 
L 462.328494 193.670204 
L 464.720625 193.670204 
L 464.720625 187.967234 
L 468.666123 187.967234 
L 468.666123 182.264264 
L 469.024735 182.264264 
L 469.024735 176.561293 
L 471.726157 176.561293 
L 471.726157 170.858323 
L 474.530449 170.858323 
L 474.530449 165.155353 
L 475.021132 165.155353 
L 475.021132 159.452382 
L 475.207082 159.452382 
L 475.207082 153.749412 
L 475.53121 153.749412 
L 475.53121 148.046442 
L 477.576893 148.046442 
L 477.576893 142.343472 
L 478.487738 142.343472 
L 478.487738 136.640501 
L 478.92743 136.640501 
L 478.92743 130.937531 
L 480.464574 130.937531 
L 480.464574 125.234561 
L 482.92035 125.234561 
L 482.92035 119.53159 
L 511.169968 119.53159 
L 511.169968 113.82862 
L 516.242591 113.82862 
L 516.242591 108.12565 
L 522.747808 108.12565 
L 522.747808 102.422679 
L 524.9001 102.422679 
L 524.9001 96.719709 
L 527.64464 96.719709 
" style="fill:none;stroke:#f5deb3;stroke-linecap:square;"/>
   </g>
   <g id="line2d_8">
    <path clip-path="url(#p69c28ac8b9)" d="M 594.864042 359.056343 
" style="fill:none;stroke:#f5deb3;stroke-linecap:square;"/>
   </g>
   <g id="line2d_9">
    <path clip-path="url(#p69c28ac8b9)" d="M 347.139731 359.056343 
L 347.139731 353.353373 
L 375.733181 353.353373 
L 375.733181 347.650402 
L 392.117597 347.650402 
L 392.117597 341.947432 
L 418.139679 341.947432 
L 418.139679 336.244462 
L 422.170369 336.244462 
L 422.170369 330.541491 
L 423.217868 330.541491 
L 423.217868 324.838521 
L 424.605546 324.838521 
L 424.605546 319.135551 
L 424.85928 319.135551 
L 424.85928 313.43258 
L 435.051313 313.43258 
L 435.051313 307.72961 
L 436.968656 307.72961 
L 436.968656 302.02664 
L 440.996392 302.02664 
L 440.996392 296.32367 
L 441.232601 296.32367 
L 441.232601 290.620699 
L 441.624373 290.620699 
L 441.624373 284.917729 
L 444.898886 284.917729 
L 444.898886 279.214759 
L 444.936001 279.214759 
L 444.936001 273.511788 
L 445.820417 273.511788 
L 445.820417 267.808818 
L 446.185376 267.808818 
L 446.185376 262.105848 
L 446.439625 262.105848 
L 446.439625 256.402877 
L 446.548282 256.402877 
L 446.548282 250.699907 
L 446.837145 250.699907 
L 446.837145 244.996937 
L 447.196413 244.996937 
L 447.196413 239.293967 
L 447.518054 239.293967 
L 447.518054 233.590996 
L 447.589312 233.590996 
L 447.589312 227.888026 
L 449.414938 227.888026 
L 449.414938 222.185056 
L 449.794596 222.185056 
L 449.794596 216.482085 
L 450.035039 216.482085 
L 450.035039 210.779115 
L 451.122939 210.779115 
L 451.122939 205.076145 
L 451.726917 205.076145 
L 451.726917 199.373175 
L 452.1928 199.373175 
L 452.1928 193.670204 
L 453.538135 193.670204 
L 453.538135 187.967234 
L 453.603049 187.967234 
L 453.603049 182.264264 
L 453.829736 182.264264 
L 453.829736 176.561293 
L 453.894357 176.561293 
L 453.894357 170.858323 
L 454.887801 170.858323 
L 454.887801 165.155353 
L 455.173379 165.155353 
L 455.173379 159.452382 
L 455.897497 159.452382 
L 455.897497 153.749412 
L 457.474738 153.749412 
L 457.474738 148.046442 
L 458.264225 148.046442 
L 458.264225 142.343472 
L 458.324556 142.343472 
L 458.324556 136.640501 
L 459.133558 136.640501 
L 459.133558 130.937531 
L 459.578659 130.937531 
L 459.578659 125.234561 
L 459.844253 125.234561 
L 459.844253 119.53159 
L 460.518068 119.53159 
L 460.518068 113.82862 
L 461.098328 113.82862 
L 461.098328 108.12565 
L 462.554797 108.12565 
L 462.554797 102.422679 
L 463.396433 102.422679 
L 463.396433 96.719709 
L 463.646798 96.719709 
L 463.646798 91.016739 
L 464.392116 91.016739 
L 464.392116 85.313769 
L 465.615495 85.313769 
L 465.615495 79.610798 
L 467.812851 79.610798 
L 467.812851 73.907828 
L 468.563295 73.907828 
L 468.563295 68.204858 
L 473.394675 68.204858 
L 473.394675 62.501887 
L 473.561559 62.501887 
L 473.561559 56.798917 
L 473.609161 56.798917 
L 473.609161 51.095947 
L 478.155992 51.095947 
L 478.155992 45.392976 
L 482.79666 45.392976 
L 482.79666 39.690006 
L 488.045449 39.690006 
L 488.045449 33.987036 
L 489.549586 33.987036 
L 489.549586 28.284066 
L 514.080952 28.284066 
L 514.080952 22.581095 
L 519.850789 22.581095 
L 519.850789 16.878125 
L 519.850789 16.878125 
" style="fill:none;stroke:#f5deb3;stroke-linecap:square;"/>
   </g>
   <g id="line2d_10">
    <path clip-path="url(#p69c28ac8b9)" d="M 553.828379 359.056343 
" style="fill:none;stroke:#f5deb3;stroke-linecap:square;"/>
   </g>
   <g id="line2d_11">
    <path clip-path="url(#p69c28ac8b9)" d="M 349.299054 359.056343 
L 349.299054 353.353373 
L 406.667078 353.353373 
L 406.667078 347.650402 
L 410.003606 347.650402 
L 410.003606 341.947432 
L 411.764618 341.947432 
L 411.764618 336.244462 
L 418.531927 336.244462 
L 418.531927 330.541491 
L 420.6747 330.541491 
L 420.6747 324.838521 
L 425.363775 324.838521 
L 425.363775 319.135551 
L 425.61455 319.135551 
L 425.61455 313.43258 
L 428.741256 313.43258 
L 428.741256 307.72961 
L 429.452669 307.72961 
L 429.452669 302.02664 
L 430.898527 302.02664 
L 430.898527 296.32367 
L 431.723425 296.32367 
L 431.723425 290.620699 
L 445.305982 290.620699 
L 445.305982 284.917729 
L 454.152198 284.917729 
L 454.152198 279.214759 
L 466.974518 279.214759 
L 466.974518 273.511788 
L 467.185124 273.511788 
L 467.185124 267.808818 
L 494.794309 267.808818 
L 494.794309 262.105848 
L 527.64464 262.105848 
" style="fill:none;stroke:#f5deb3;stroke-linecap:square;"/>
   </g>
   <g id="line2d_12">
    <path clip-path="url(#p69c28ac8b9)" d="M 327.784069 359.056343 
L 327.784069 353.353373 
L 335.510507 353.353373 
L 335.510507 347.650402 
L 337.893222 347.650402 
L 337.893222 341.947432 
L 339.052377 341.947432 
L 339.052377 336.244462 
L 339.052377 336.244462 
L 339.052377 330.541491 
L 343.491343 330.541491 
L 343.491343 324.838521 
L 345.601325 324.838521 
L 345.601325 319.135551 
L 345.601325 319.135551 
L 345.601325 313.43258 
L 346.630994 313.43258 
L 346.630994 307.72961 
L 349.624937 307.72961 
L 349.624937 302.02664 
L 350.592823 302.02664 
L 350.592823 296.32367 
L 352.486099 296.32367 
L 352.486099 290.620699 
L 352.486099 290.620699 
L 352.486099 284.917729 
L 361.199251 284.917729 
L 361.199251 279.214759 
L 362.009193 279.214759 
L 362.009193 273.511788 
L 362.009193 273.511788 
L 362.009193 267.808818 
L 362.809094 267.808818 
L 362.809094 262.105848 
L 365.913076 262.105848 
L 365.913076 256.402877 
L 366.666289 256.402877 
L 366.666289 250.699907 
L 368.146841 250.699907 
L 368.146841 244.996937 
L 370.305855 244.996937 
L 370.305855 239.293967 
L 376.38059 239.293967 
L 376.38059 233.590996 
L 378.284731 233.590996 
L 378.284731 227.888026 
L 389.191984 227.888026 
L 389.191984 222.185056 
L 393.284739 222.185056 
L 393.284739 216.482085 
L 397.598628 216.482085 
L 397.598628 210.779115 
L 397.598628 210.779115 
L 397.598628 205.076145 
L 398.06062 205.076145 
L 398.06062 199.373175 
L 404.620674 199.373175 
L 404.620674 193.670204 
L 452.75403 193.670204 
L 452.75403 187.967234 
L 469.811785 187.967234 
L 469.811785 182.264264 
L 527.64464 182.264264 
" style="fill:none;stroke:#f5deb3;stroke-linecap:square;"/>
   </g>
   <g id="line2d_13">
    <path clip-path="url(#p69c28ac8b9)" d="M 485.226487 359.056343 
L 485.226487 353.353373 
L 490.545411 353.353373 
L 490.545411 347.650402 
L 503.064624 347.650402 
L 503.064624 341.947432 
L 503.064624 341.947432 
L 503.064624 336.244462 
L 512.771676 336.244462 
L 512.771676 330.541491 
L 519.126312 330.541491 
L 519.126312 324.838521 
L 519.126312 324.838521 
L 519.126312 319.135551 
L 527.64464 319.135551 
" style="fill:none;stroke:#f5deb3;stroke-linecap:square;"/>
   </g>
   <g id="line2d_14">
    <path clip-path="url(#p69c28ac8b9)" d="M 377.97125 359.056343 
L 377.97125 353.353373 
L 384.254272 353.353373 
L 384.254272 347.650402 
L 402.435583 347.650402 
L 402.435583 341.947432 
L 407.666446 341.947432 
L 407.666446 336.244462 
L 412.074089 336.244462 
L 412.074089 330.541491 
L 414.319174 330.541491 
L 414.319174 324.838521 
L 418.083449 324.838521 
L 418.083449 319.135551 
L 422.800907 319.135551 
L 422.800907 313.43258 
L 425.011043 313.43258 
L 425.011043 307.72961 
L 430.482089 307.72961 
L 430.482089 302.02664 
L 430.760012 302.02664 
L 430.760012 296.32367 
L 431.495342 296.32367 
L 431.495342 290.620699 
L 433.030638 290.620699 
L 433.030638 284.917729 
L 436.251006 284.917729 
L 436.251006 279.214759 
L 439.439585 279.214759 
L 439.439585 273.511788 
L 446.873162 273.511788 
L 446.873162 267.808818 
L 449.137412 267.808818 
L 449.137412 262.105848 
L 450.886523 262.105848 
L 450.886523 256.402877 
L 456.922456 256.402877 
L 456.922456 250.699907 
L 462.611249 250.699907 
L 462.611249 244.996937 
L 469.862234 244.996937 
L 469.862234 239.293967 
L 470.214278 239.293967 
L 470.214278 233.590996 
L 470.813349 233.590996 
L 470.813349 227.888026 
L 477.352772 227.888026 
L 477.352772 222.185056 
L 477.755632 222.185056 
L 477.755632 216.482085 
L 478.751913 216.482085 
L 478.751913 210.779115 
L 487.395419 210.779115 
L 487.395419 205.076145 
L 494.639924 205.076145 
L 494.639924 199.373175 
L 500.119618 199.373175 
L 500.119618 193.670204 
L 505.953164 193.670204 
L 505.953164 187.967234 
L 509.158265 187.967234 
L 509.158265 182.264264 
L 513.953759 182.264264 
L 513.953759 176.561293 
L 517.568276 176.561293 
L 517.568276 170.858323 
L 527.64464 170.858323 
" style="fill:none;stroke:#f5deb3;stroke-linecap:square;"/>
   </g>
   <g id="line2d_15">
    <path clip-path="url(#p69c28ac8b9)" d="M 672.864424 359.056343 
" style="fill:none;stroke:#f5deb3;stroke-linecap:square;"/>
   </g>
   <g id="line2d_16">
    <path clip-path="url(#p69c28ac8b9)" d="M 590.559811 359.056343 
" style="fill:none;stroke:#f5deb3;stroke-linecap:square;"/>
   </g>
   <g id="line2d_17">
    <path clip-path="url(#p69c28ac8b9)" d="M 491.742023 359.056343 
L 491.742023 353.353373 
L 520.02485 353.353373 
L 520.02485 347.650402 
L 522.603222 347.650402 
L 522.603222 341.947432 
L 524.393092 341.947432 
L 524.393092 336.244462 
L 527.531971 336.244462 
L 527.531971 330.541491 
L 527.64464 330.541491 
" style="fill:none;stroke:#f5deb3;stroke-linecap:square;"/>
   </g>
   <g id="line2d_18">
    <path clip-path="url(#p69c28ac8b9)" d="M 334.900822 359.056343 
L 334.900822 353.353373 
L 335.104692 353.353373 
L 335.104692 347.650402 
L 337.305741 347.650402 
L 337.305741 341.947432 
L 340.566218 341.947432 
L 340.566218 336.244462 
L 344.025342 336.244462 
L 344.025342 330.541491 
L 344.730536 330.541491 
L 344.730536 324.838521 
L 345.601325 324.838521 
L 345.601325 319.135551 
L 347.139731 319.135551 
L 347.139731 313.43258 
L 348.807124 313.43258 
L 348.807124 307.72961 
L 350.271804 307.72961 
L 350.271804 302.02664 
L 352.174385 302.02664 
L 352.174385 296.32367 
L 352.486099 296.32367 
L 352.486099 290.620699 
L 355.671269 290.620699 
L 355.671269 284.917729 
L 356.553167 284.917729 
L 356.553167 279.214759 
L 356.844475 279.214759 
L 356.844475 273.511788 
L 359.687425 273.511788 
L 359.687425 267.808818 
L 359.687425 267.808818 
L 359.687425 262.105848 
L 361.334949 262.105848 
L 361.334949 256.402877 
L 362.941452 256.402877 
L 362.941452 250.699907 
L 366.165126 250.699907 
L 366.165126 244.996937 
L 368.874569 244.996937 
L 368.874569 239.293967 
L 375.841535 239.293967 
L 375.841535 233.590996 
L 385.849869 233.590996 
L 385.849869 227.888026 
L 394.512256 227.888026 
L 394.512256 222.185056 
L 396.113443 222.185056 
L 396.113443 216.482085 
L 404.620674 216.482085 
L 404.620674 210.779115 
L 409.427204 210.779115 
L 409.427204 205.076145 
L 409.61991 205.076145 
L 409.61991 199.373175 
L 422.591411 199.373175 
L 422.591411 193.670204 
L 428.166423 193.670204 
L 428.166423 187.967234 
L 442.207605 187.967234 
L 442.207605 182.264264 
L 472.771013 182.264264 
L 472.771013 176.561293 
L 482.837916 176.561293 
L 482.837916 170.858323 
L 494.760033 170.858323 
L 494.760033 165.155353 
L 496.73517 165.155353 
L 496.73517 159.452382 
L 499.357883 159.452382 
L 499.357883 153.749412 
L 500.387257 153.749412 
L 500.387257 148.046442 
L 503.305331 148.046442 
L 503.305331 142.343472 
L 504.140805 142.343472 
L 504.140805 136.640501 
L 506.712538 136.640501 
L 506.712538 130.937531 
L 508.177147 130.937531 
L 508.177147 125.234561 
L 512.745737 125.234561 
L 512.745737 119.53159 
L 515.612838 119.53159 
L 515.612838 113.82862 
L 521.287152 113.82862 
L 521.287152 108.12565 
L 527.64464 108.12565 
" style="fill:none;stroke:#f5deb3;stroke-linecap:square;"/>
   </g>
   <g id="line2d_19">
    <path clip-path="url(#p69c28ac8b9)" d="M 566.521508 359.056343 
" style="fill:none;stroke:#f5deb3;stroke-linecap:square;"/>
   </g>
   <g id="line2d_20">
    <path clip-path="url(#p69c28ac8b9)" d="M 361.470363 359.056343 
L 361.470363 353.353373 
L 367.28732 353.353373 
L 367.28732 347.650402 
L 369.713339 347.650402 
L 369.713339 341.947432 
L 374.639519 341.947432 
L 374.639519 336.244462 
L 376.487863 336.244462 
L 376.487863 330.541491 
L 377.550894 330.541491 
L 377.550894 324.838521 
L 378.180406 324.838521 
L 378.180406 319.135551 
L 378.907158 319.135551 
L 378.907158 313.43258 
L 380.839479 313.43258 
L 380.839479 307.72961 
L 381.537049 307.72961 
L 381.537049 302.02664 
L 386.861679 302.02664 
L 386.861679 296.32367 
L 387.677882 296.32367 
L 387.677882 290.620699 
L 389.191984 290.620699 
L 389.191984 284.917729 
L 390.58528 284.917729 
L 390.58528 279.214759 
L 390.671371 279.214759 
L 390.671371 273.511788 
L 391.695591 273.511788 
L 391.695591 267.808818 
L 391.864725 267.808818 
L 391.864725 262.105848 
L 396.899379 262.105848 
L 396.899379 256.402877 
L 399.950753 256.402877 
L 399.950753 250.699907 
L 403.99388 250.699907 
L 403.99388 244.996937 
L 406.5999 244.996937 
L 406.5999 239.293967 
L 412.627423 239.293967 
L 412.627423 233.590996 
L 413.297339 233.590996 
L 413.297339 227.888026 
L 423.735309 227.888026 
L 423.735309 222.185056 
L 426.45997 222.185056 
L 426.45997 216.482085 
L 429.969432 216.482085 
L 429.969432 210.779115 
L 433.696532 210.779115 
L 433.696532 205.076145 
L 437.261855 205.076145 
L 437.261855 199.373175 
L 445.637161 199.373175 
L 445.637161 193.670204 
L 450.137813 193.670204 
L 450.137813 187.967234 
L 502.38278 187.967234 
L 502.38278 182.264264 
L 511.910118 182.264264 
L 511.910118 176.561293 
L 519.874024 176.561293 
L 519.874024 170.858323 
L 527.64464 170.858323 
" style="fill:none;stroke:#f5deb3;stroke-linecap:square;"/>
   </g>
   <g id="line2d_21"/>
   <g id="line2d_22">
    <path clip-path="url(#p69c28ac8b9)" d="M 348.971518 359.056343 
L 348.971518 353.353373 
L 353.258857 353.353373 
L 353.258857 347.650402 
L 353.565387 347.650402 
L 353.565387 341.947432 
L 359.96495 341.947432 
L 359.96495 336.244462 
L 367.163591 336.244462 
L 367.163591 330.541491 
L 367.657089 330.541491 
L 367.657089 324.838521 
L 369.115332 324.838521 
L 369.115332 319.135551 
L 371.47481 319.135551 
L 371.47481 313.43258 
L 373.751043 313.43258 
L 373.751043 307.72961 
L 377.339684 307.72961 
L 377.339684 302.02664 
L 379.010315 302.02664 
L 379.010315 296.32367 
L 385.19763 296.32367 
L 385.19763 290.620699 
L 385.477969 290.620699 
L 385.477969 284.917729 
L 394.268614 284.917729 
L 394.268614 279.214759 
L 400.838719 279.214759 
L 400.838719 273.511788 
L 404.412419 273.511788 
L 404.412419 267.808818 
L 405.172759 267.808818 
L 405.172759 262.105848 
L 407.202 262.105848 
L 407.202 256.402877 
L 410.25814 256.402877 
L 410.25814 250.699907 
L 411.453656 250.699907 
L 411.453656 244.996937 
L 413.236724 244.996937 
L 413.236724 239.293967 
L 415.383764 239.293967 
L 415.383764 233.590996 
L 418.476037 233.590996 
L 418.476037 227.888026 
L 451.593188 227.888026 
L 451.593188 222.185056 
L 452.126451 222.185056 
L 452.126451 216.482085 
L 468.382951 216.482085 
L 468.382951 210.779115 
L 473.370799 210.779115 
L 473.370799 205.076145 
L 476.584883 205.076145 
L 476.584883 199.373175 
L 478.531843 199.373175 
L 478.531843 193.670204 
L 480.013727 193.670204 
L 480.013727 187.967234 
L 481.251339 187.967234 
L 481.251339 182.264264 
L 484.366281 182.264264 
L 484.366281 176.561293 
L 486.407928 176.561293 
L 486.407928 170.858323 
L 489.270218 170.858323 
L 489.270218 165.155353 
L 505.649791 165.155353 
L 505.649791 159.452382 
L 506.097128 159.452382 
L 506.097128 153.749412 
L 511.050219 153.749412 
L 511.050219 148.046442 
L 513.08214 148.046442 
L 513.08214 142.343472 
L 520.233106 142.343472 
L 520.233106 136.640501 
L 524.295549 136.640501 
L 524.295549 130.937531 
L 526.57588 130.937531 
L 526.57588 125.234561 
L 527.64464 125.234561 
" style="fill:none;stroke:#f5deb3;stroke-linecap:square;"/>
   </g>
   <g id="line2d_23">
    <path clip-path="url(#p69c28ac8b9)" d="M 521.309876 359.056343 
L 521.309876 353.353373 
L 527.64464 353.353373 
" style="fill:none;stroke:#f5deb3;stroke-linecap:square;"/>
   </g>
   <g id="line2d_24">
    <path clip-path="url(#p69c28ac8b9)" d="M 387.316399 359.056343 
L 387.316399 353.353373 
L 391.270806 353.353373 
L 391.270806 347.650402 
L 392.620388 347.650402 
L 392.620388 341.947432 
L 405.03518 341.947432 
L 405.03518 336.244462 
L 405.172759 336.244462 
L 405.172759 330.541491 
L 409.491503 330.541491 
L 409.491503 324.838521 
L 414.675993 324.838521 
L 414.675993 319.135551 
L 421.48026 319.135551 
L 421.48026 313.43258 
L 440.04281 313.43258 
L 440.04281 307.72961 
L 446.76505 307.72961 
L 446.76505 302.02664 
L 451.291279 302.02664 
L 451.291279 296.32367 
L 462.356825 296.32367 
L 462.356825 290.620699 
L 476.607598 290.620699 
L 476.607598 284.917729 
L 486.971294 284.917729 
L 486.971294 279.214759 
L 487.260772 279.214759 
L 487.260772 273.511788 
L 488.026424 273.511788 
L 488.026424 267.808818 
L 488.064469 267.808818 
L 488.064469 262.105848 
L 494.347295 262.105848 
L 494.347295 256.402877 
L 495.847933 256.402877 
L 495.847933 250.699907 
L 496.049888 250.699907 
L 496.049888 244.996937 
L 499.053861 244.996937 
L 499.053861 239.293967 
L 502.153889 239.293967 
L 502.153889 233.590996 
L 502.230276 233.590996 
L 502.230276 227.888026 
L 503.245239 227.888026 
L 503.245239 222.185056 
L 503.455319 222.185056 
L 503.455319 216.482085 
L 504.170444 216.482085 
L 504.170444 210.779115 
L 505.140977 210.779115 
L 505.140977 205.076145 
L 506.341132 205.076145 
L 506.341132 199.373175 
L 506.911644 199.373175 
L 506.911644 193.670204 
L 509.840349 193.670204 
L 509.840349 187.967234 
L 510.057102 187.967234 
L 510.057102 182.264264 
L 510.151702 182.264264 
L 510.151702 176.561293 
L 510.60923 176.561293 
L 510.60923 170.858323 
L 511.527886 170.858323 
L 511.527886 165.155353 
L 512.067623 165.155353 
L 512.067623 159.452382 
L 513.146632 159.452382 
L 513.146632 153.749412 
L 513.365425 153.749412 
L 513.365425 148.046442 
L 513.391116 148.046442 
L 513.391116 142.343472 
L 514.334586 142.343472 
L 514.334586 136.640501 
L 518.310358 136.640501 
L 518.310358 130.937531 
L 521.002426 130.937531 
L 521.002426 125.234561 
L 521.446052 125.234561 
L 521.446052 119.53159 
L 523.047072 119.53159 
L 523.047072 113.82862 
L 524.143522 113.82862 
L 524.143522 108.12565 
L 525.69038 108.12565 
L 525.69038 102.422679 
L 526.993314 102.422679 
L 526.993314 96.719709 
L 527.107636 96.719709 
L 527.107636 91.016739 
L 527.64464 91.016739 
" style="fill:none;stroke:#f5deb3;stroke-linecap:square;"/>
   </g>
   <g id="line2d_25">
    <path clip-path="url(#p69c28ac8b9)" d="M 629.306791 359.056343 
" style="fill:none;stroke:#f5deb3;stroke-linecap:square;"/>
   </g>
   <g id="line2d_26">
    <path clip-path="url(#p69c28ac8b9)" d="M 491.88557 359.056343 
L 491.88557 353.353373 
L 495.119026 353.353373 
L 495.119026 347.650402 
L 498.263129 347.650402 
L 498.263129 341.947432 
L 506.712538 341.947432 
L 506.712538 336.244462 
L 507.36445 336.244462 
L 507.36445 330.541491 
L 507.491231 330.541491 
L 507.491231 324.838521 
L 507.856094 324.838521 
L 507.856094 319.135551 
L 507.926024 319.135551 
L 507.926024 313.43258 
L 508.496611 313.43258 
L 508.496611 307.72961 
L 509.14455 307.72961 
L 509.14455 302.02664 
L 509.921717 302.02664 
L 509.921717 296.32367 
L 509.962362 296.32367 
L 509.962362 290.620699 
L 510.353953 290.620699 
L 510.353953 284.917729 
L 510.890208 284.917729 
L 510.890208 279.214759 
L 511.050219 279.214759 
L 511.050219 273.511788 
L 511.130076 273.511788 
L 511.130076 267.808818 
L 511.342547 267.808818 
L 511.342547 262.105848 
L 512.49879 262.105848 
L 512.49879 256.402877 
L 519.079291 256.402877 
L 519.079291 250.699907 
L 519.138062 250.699907 
L 519.138062 244.996937 
L 519.220251 244.996937 
L 519.220251 239.293967 
L 519.547966 239.293967 
L 519.547966 233.590996 
L 519.839168 233.590996 
L 519.839168 227.888026 
L 520.279294 227.888026 
L 520.279294 222.185056 
L 520.406141 222.185056 
L 520.406141 216.482085 
L 520.555729 216.482085 
L 520.555729 210.779115 
L 520.750824 210.779115 
L 520.750824 205.076145 
L 520.762281 205.076145 
L 520.762281 199.373175 
L 520.94533 199.373175 
L 520.94533 193.670204 
L 520.979594 193.670204 
L 520.979594 187.967234 
L 521.502707 187.967234 
L 521.502707 182.264264 
L 521.570628 182.264264 
L 521.570628 176.561293 
L 521.706255 176.561293 
L 521.706255 170.858323 
L 521.7514 170.858323 
L 521.7514 165.155353 
L 521.897906 165.155353 
L 521.897906 159.452382 
L 522.212332 159.452382 
L 522.212332 153.749412 
L 523.575694 153.749412 
L 523.575694 148.046442 
L 523.740004 148.046442 
L 523.740004 142.343472 
L 523.83839 142.343472 
L 523.83839 136.640501 
L 523.914808 136.640501 
L 523.914808 130.937531 
L 523.936625 130.937531 
L 523.936625 125.234561 
L 524.436397 125.234561 
L 524.436397 119.53159 
L 527.64464 119.53159 
" style="fill:none;stroke:#f5deb3;stroke-linecap:square;"/>
   </g>
   <g id="line2d_27"/>
   <g id="line2d_28">
    <path clip-path="url(#p69c28ac8b9)" d="M 367.902429 359.056343 
L 367.902429 353.353373 
L 370.305855 353.353373 
L 370.305855 347.650402 
L 377.866418 347.650402 
L 377.866418 341.947432 
L 389.191984 341.947432 
L 389.191984 336.244462 
L 423.061823 336.244462 
L 423.061823 330.541491 
L 449.206906 330.541491 
L 449.206906 324.838521 
L 456.768202 324.838521 
L 456.768202 319.135551 
L 458.595352 319.135551 
L 458.595352 313.43258 
L 458.894909 313.43258 
L 458.894909 307.72961 
L 462.385144 307.72961 
L 462.385144 302.02664 
L 463.563451 302.02664 
L 463.563451 296.32367 
L 464.693313 296.32367 
L 464.693313 290.620699 
L 467.000881 290.620699 
L 467.000881 284.917729 
L 467.838874 284.917729 
L 467.838874 279.214759 
L 468.511819 279.214759 
L 468.511819 273.511788 
L 468.717475 273.511788 
L 468.717475 267.808818 
L 469.6602 267.808818 
L 469.6602 262.105848 
L 471.382287 262.105848 
L 471.382287 256.402877 
L 475.323029 256.402877 
L 475.323029 250.699907 
L 475.62352 250.699907 
L 475.62352 244.996937 
L 475.922618 244.996937 
L 475.922618 239.293967 
L 477.015123 239.293967 
L 477.015123 233.590996 
L 477.933876 233.590996 
L 477.933876 227.888026 
L 478.04503 227.888026 
L 478.04503 222.185056 
L 478.178162 222.185056 
L 478.178162 216.482085 
L 481.230201 216.482085 
L 481.230201 210.779115 
L 481.567585 210.779115 
L 481.567585 205.076145 
L 482.257917 205.076145 
L 482.257917 199.373175 
L 482.278721 199.373175 
L 482.278721 193.670204 
L 482.899751 193.670204 
L 482.899751 187.967234 
L 484.144374 187.967234 
L 484.144374 182.264264 
L 485.780519 182.264264 
L 485.780519 176.561293 
L 486.232085 176.561293 
L 486.232085 170.858323 
L 487.202981 170.858323 
L 487.202981 165.155353 
L 487.816774 165.155353 
L 487.816774 159.452382 
L 488.87706 159.452382 
L 488.87706 153.749412 
L 491.164618 153.749412 
L 491.164618 148.046442 
L 491.417869 148.046442 
L 491.417869 142.343472 
L 493.618588 142.343472 
L 493.618588 136.640501 
L 494.845689 136.640501 
L 494.845689 130.937531 
L 495.577673 130.937531 
L 495.577673 125.234561 
L 495.814212 125.234561 
L 495.814212 119.53159 
L 496.585364 119.53159 
L 496.585364 113.82862 
L 507.547498 113.82862 
L 507.547498 108.12565 
L 527.64464 108.12565 
" style="fill:none;stroke:#f5deb3;stroke-linecap:square;"/>
   </g>
   <g id="line2d_29">
    <path clip-path="url(#p69c28ac8b9)" d="M 313.271736 359.056343 
L 313.271736 353.353373 
L 313.271736 353.353373 
L 313.271736 347.650402 
L 313.271736 347.650402 
L 313.271736 341.947432 
L 337.893222 341.947432 
L 337.893222 336.244462 
L 337.893222 336.244462 
L 337.893222 330.541491 
L 337.893222 330.541491 
L 337.893222 324.838521 
L 340.191074 324.838521 
L 340.191074 319.135551 
L 340.191074 319.135551 
L 340.191074 313.43258 
L 340.191074 313.43258 
L 340.191074 307.72961 
L 340.752975 307.72961 
L 340.752975 302.02664 
L 340.752975 302.02664 
L 340.752975 296.32367 
L 340.752975 296.32367 
L 340.752975 290.620699 
L 344.378902 290.620699 
L 344.378902 284.917729 
L 344.378902 284.917729 
L 344.378902 279.214759 
L 344.378902 279.214759 
L 344.378902 273.511788 
L 350.271804 273.511788 
L 350.271804 267.808818 
L 350.271804 267.808818 
L 350.271804 262.105848 
L 350.271804 262.105848 
L 350.271804 256.402877 
L 350.752735 256.402877 
L 350.752735 250.699907 
L 350.752735 250.699907 
L 350.752735 244.996937 
L 350.752735 244.996937 
L 350.752735 239.293967 
L 353.258857 239.293967 
L 353.258857 233.590996 
L 353.258857 233.590996 
L 353.258857 227.888026 
L 353.258857 227.888026 
L 353.258857 222.185056 
L 369.950999 222.185056 
L 369.950999 216.482085 
L 369.950999 216.482085 
L 369.950999 210.779115 
L 369.950999 210.779115 
L 369.950999 205.076145 
L 403.431571 205.076145 
L 403.431571 199.373175 
L 403.431571 199.373175 
L 403.431571 193.670204 
L 403.431571 193.670204 
L 403.431571 187.967234 
L 460.779831 187.967234 
L 460.779831 182.264264 
L 460.779831 182.264264 
L 460.779831 176.561293 
L 460.779831 176.561293 
L 460.779831 170.858323 
L 527.64464 170.858323 
" style="fill:none;stroke:#f5deb3;stroke-linecap:square;"/>
   </g>
   <g id="line2d_30">
    <path clip-path="url(#p69c28ac8b9)" d="M 514.296604 359.056343 
L 514.296604 353.353373 
L 527.64464 353.353373 
" style="fill:none;stroke:#f5deb3;stroke-linecap:square;"/>
   </g>
   <g id="line2d_31">
    <path clip-path="url(#p69c28ac8b9)" d="M 304.737207 359.056343 
L 304.737207 353.353373 
L 331.332704 353.353373 
L 331.332704 347.650402 
L 333.663893 347.650402 
L 333.663893 341.947432 
L 335.510507 341.947432 
L 335.510507 336.244462 
L 355.671269 336.244462 
L 355.671269 330.541491 
L 360.516445 330.541491 
L 360.516445 324.838521 
L 362.941452 324.838521 
L 362.941452 319.135551 
L 368.024751 319.135551 
L 368.024751 313.43258 
L 370.423708 313.43258 
L 370.423708 307.72961 
L 372.622963 307.72961 
L 372.622963 302.02664 
L 376.594957 302.02664 
L 376.594957 296.32367 
L 377.866418 296.32367 
L 377.866418 290.620699 
L 380.538197 290.620699 
L 380.538197 284.917729 
L 381.9323 284.917729 
L 381.9323 279.214759 
L 382.715612 279.214759 
L 382.715612 273.511788 
L 382.715612 273.511788 
L 382.715612 267.808818 
L 382.81286 267.808818 
L 382.81286 262.105848 
L 384.159173 262.105848 
L 384.159173 256.402877 
L 384.254272 256.402877 
L 384.254272 250.699907 
L 386.403731 250.699907 
L 386.403731 244.996937 
L 386.678889 244.996937 
L 386.678889 239.293967 
L 386.770349 239.293967 
L 386.770349 233.590996 
L 386.861679 233.590996 
L 386.861679 227.888026 
L 387.225711 227.888026 
L 387.225711 222.185056 
L 388.927358 222.185056 
L 388.927358 216.482085 
L 388.927358 216.482085 
L 388.927358 210.779115 
L 391.100107 210.779115 
L 391.100107 205.076145 
L 393.284739 205.076145 
L 393.284739 199.373175 
L 397.055424 199.373175 
L 397.055424 193.670204 
L 397.211092 193.670204 
L 397.211092 187.967234 
L 397.521307 187.967234 
L 397.521307 182.264264 
L 399.050396 182.264264 
L 399.050396 176.561293 
L 399.726838 176.561293 
L 399.726838 170.858323 
L 400.838719 170.858323 
L 400.838719 165.155353 
L 401.496765 165.155353 
L 401.496765 159.452382 
L 402.721723 159.452382 
L 402.721723 153.749412 
L 406.330486 153.749412 
L 406.330486 148.046442 
L 408.061899 148.046442 
L 408.061899 142.343472 
L 408.25872 142.343472 
L 408.25872 136.640501 
L 409.748062 136.640501 
L 409.748062 130.937531 
L 411.015776 130.937531 
L 411.015776 125.234561 
L 411.203803 125.234561 
L 411.203803 119.53159 
L 414.675993 119.53159 
L 414.675993 113.82862 
L 416.199804 113.82862 
L 416.199804 108.12565 
L 419.032766 108.12565 
L 419.032766 102.422679 
L 420.186492 102.422679 
L 420.186492 96.719709 
L 421.319951 96.719709 
L 421.319951 91.016739 
L 425.263191 91.016739 
L 425.263191 85.313769 
L 425.363775 85.313769 
L 425.363775 79.610798 
L 431.768945 79.610798 
L 431.768945 73.907828 
L 432.896631 73.907828 
L 432.896631 68.204858 
L 433.297821 68.204858 
L 433.297821 62.501887 
L 443.396501 62.501887 
L 443.396501 56.798917 
L 448.227122 56.798917 
L 448.227122 51.095947 
L 451.425635 51.095947 
L 451.425635 45.392976 
L 463.340664 45.392976 
L 463.340664 39.690006 
L 478.089438 39.690006 
L 478.089438 33.987036 
L 478.089438 33.987036 
L 478.089438 33.987036 
L 513.7625 33.987036 
" style="fill:none;stroke:#000000;stroke-linecap:square;"/>
   </g>
   <g id="line2d_32"/>
   <g id="line2d_33">
    <path clip-path="url(#p69c28ac8b9)" d="M 402.864319 359.056343 
L 402.864319 353.353373 
L 427.731913 353.353373 
L 427.731913 347.650402 
L 429.169044 347.650402 
L 429.169044 341.947432 
L 432.672665 341.947432 
L 432.672665 336.244462 
L 434.53025 336.244462 
L 434.53025 330.541491 
L 440.561082 330.541491 
L 440.561082 324.838521 
L 446.909159 324.838521 
L 446.909159 319.135551 
L 454.409012 319.135551 
L 454.409012 313.43258 
L 459.489884 313.43258 
L 459.489884 307.72961 
L 460.721753 307.72961 
L 460.721753 302.02664 
L 463.061095 302.02664 
L 463.061095 296.32367 
L 485.02746 296.32367 
L 485.02746 290.620699 
L 487.854943 290.620699 
L 487.854943 284.917729 
L 488.064469 284.917729 
L 488.064469 279.214759 
L 493.792838 279.214759 
L 493.792838 273.511788 
L 493.792838 273.511788 
L 493.792838 273.511788 
L 513.7625 273.511788 
" style="fill:none;stroke:#00bfbf;stroke-linecap:square;"/>
   </g>
   <g id="line2d_34"/>
   <g id="line2d_35">
    <path clip-path="url(#p69c28ac8b9)" d="M 478.288895 359.056343 
L 478.288895 353.353373 
L 485.780519 353.353373 
L 485.780519 347.650402 
L 486.485926 347.650402 
L 486.485926 341.947432 
L 490.030976 341.947432 
L 490.030976 336.244462 
L 495.476033 336.244462 
L 495.476033 330.541491 
L 496.083485 330.541491 
L 496.083485 324.838521 
L 499.866704 324.838521 
L 499.866704 319.135551 
L 505.751074 319.135551 
L 505.751074 313.43258 
L 512.316222 313.43258 
L 512.316222 307.72961 
L 512.316222 307.72961 
L 512.316222 307.72961 
L 513.7625 307.72961 
" style="fill:none;stroke:#bf00bf;stroke-linecap:square;"/>
   </g>
   <g id="line2d_36"/>
   <g id="line2d_37"/>
   <g id="line2d_38">
    <path clip-path="url(#p69c28ac8b9)" d="M 513.7625 359.056343 
L 513.7625 13.456343 
" style="fill:none;stroke:#000000;stroke-linecap:square;"/>
   </g>
   <g id="patch_3">
    <path d="M 67.3625 13.456343 
L 513.7625 13.456343 
" style="fill:none;stroke:#000000;stroke-linecap:square;stroke-linejoin:miter;"/>
   </g>
   <g id="patch_4">
    <path d="M 513.7625 359.056343 
L 513.7625 13.456343 
" style="fill:none;stroke:#000000;stroke-linecap:square;stroke-linejoin:miter;"/>
   </g>
   <g id="patch_5">
    <path d="M 67.3625 359.056343 
L 513.7625 359.056343 
" style="fill:none;stroke:#000000;stroke-linecap:square;stroke-linejoin:miter;"/>
   </g>
   <g id="patch_6">
    <path d="M 67.3625 359.056343 
L 67.3625 13.456343 
" style="fill:none;stroke:#000000;stroke-linecap:square;stroke-linejoin:miter;"/>
   </g>
   <g id="matplotlib.axis_1">
    <g id="xtick_1">
     <g id="line2d_39">
      <path clip-path="url(#p69c28ac8b9)" d="M 67.3625 359.056343 
L 67.3625 13.456343 
" style="fill:none;stroke:#000000;stroke-dasharray:1.000000,3.000000;stroke-dashoffset:0.0;stroke-width:0.5;"/>
     </g>
     <g id="line2d_40">
      <defs>
       <path d="M 0 0 
L 0 -4 
" id="ma587671024" style="stroke:#000000;stroke-width:0.5;"/>
      </defs>
      <g>
       <use style="stroke:#000000;stroke-width:0.5;" x="67.3625" xlink:href="#ma587671024" y="359.056342822"/>
      </g>
     </g>
     <g id="line2d_41">
      <defs>
       <path d="M 0 0 
L 0 4 
" id="m5f33005cc2" style="stroke:#000000;stroke-width:0.5;"/>
      </defs>
      <g>
       <use style="stroke:#000000;stroke-width:0.5;" x="67.3625" xlink:href="#m5f33005cc2" y="13.4563428218"/>
      </g>
     </g>
     <g id="text_1">
      <!-- 0 -->
      <defs>
       <path d="M 31.78125 66.40625 
Q 24.171875 66.40625 20.328125 58.90625 
Q 16.5 51.421875 16.5 36.375 
Q 16.5 21.390625 20.328125 13.890625 
Q 24.171875 6.390625 31.78125 6.390625 
Q 39.453125 6.390625 43.28125 13.890625 
Q 47.125 21.390625 47.125 36.375 
Q 47.125 51.421875 43.28125 58.90625 
Q 39.453125 66.40625 31.78125 66.40625 
M 31.78125 74.21875 
Q 44.046875 74.21875 50.515625 64.515625 
Q 56.984375 54.828125 56.984375 36.375 
Q 56.984375 17.96875 50.515625 8.265625 
Q 44.046875 -1.421875 31.78125 -1.421875 
Q 19.53125 -1.421875 13.0625 8.265625 
Q 6.59375 17.96875 6.59375 36.375 
Q 6.59375 54.828125 13.0625 64.515625 
Q 19.53125 74.21875 31.78125 74.21875 
" id="BitstreamVeraSans-Roman-30"/>
      </defs>
      <g transform="translate(61.0 378.253217822)scale(0.2 -0.2)">
       <use xlink:href="#BitstreamVeraSans-Roman-30"/>
      </g>
     </g>
    </g>
    <g id="xtick_2">
     <g id="line2d_42">
      <path clip-path="url(#p69c28ac8b9)" d="M 215.935713 359.056343 
L 215.935713 13.456343 
" style="fill:none;stroke:#000000;stroke-dasharray:1.000000,3.000000;stroke-dashoffset:0.0;stroke-width:0.5;"/>
     </g>
     <g id="line2d_43">
      <g>
       <use style="stroke:#000000;stroke-width:0.5;" x="215.935713197" xlink:href="#ma587671024" y="359.056342822"/>
      </g>
     </g>
     <g id="line2d_44">
      <g>
       <use style="stroke:#000000;stroke-width:0.5;" x="215.935713197" xlink:href="#m5f33005cc2" y="13.4563428218"/>
      </g>
     </g>
     <g id="text_2">
      <!-- 1 -->
      <defs>
       <path d="M 12.40625 8.296875 
L 28.515625 8.296875 
L 28.515625 63.921875 
L 10.984375 60.40625 
L 10.984375 69.390625 
L 28.421875 72.90625 
L 38.28125 72.90625 
L 38.28125 8.296875 
L 54.390625 8.296875 
L 54.390625 0 
L 12.40625 0 
z
" id="BitstreamVeraSans-Roman-31"/>
      </defs>
      <g transform="translate(209.573213197 378.253217822)scale(0.2 -0.2)">
       <use xlink:href="#BitstreamVeraSans-Roman-31"/>
      </g>
     </g>
    </g>
    <g id="xtick_3">
     <g id="line2d_45">
      <path clip-path="url(#p69c28ac8b9)" d="M 364.508926 359.056343 
L 364.508926 13.456343 
" style="fill:none;stroke:#000000;stroke-dasharray:1.000000,3.000000;stroke-dashoffset:0.0;stroke-width:0.5;"/>
     </g>
     <g id="line2d_46">
      <g>
       <use style="stroke:#000000;stroke-width:0.5;" x="364.508926394" xlink:href="#ma587671024" y="359.056342822"/>
      </g>
     </g>
     <g id="line2d_47">
      <g>
       <use style="stroke:#000000;stroke-width:0.5;" x="364.508926394" xlink:href="#m5f33005cc2" y="13.4563428218"/>
      </g>
     </g>
     <g id="text_3">
      <!-- 2 -->
      <defs>
       <path d="M 19.1875 8.296875 
L 53.609375 8.296875 
L 53.609375 0 
L 7.328125 0 
L 7.328125 8.296875 
Q 12.9375 14.109375 22.625 23.890625 
Q 32.328125 33.6875 34.8125 36.53125 
Q 39.546875 41.84375 41.421875 45.53125 
Q 43.3125 49.21875 43.3125 52.78125 
Q 43.3125 58.59375 39.234375 62.25 
Q 35.15625 65.921875 28.609375 65.921875 
Q 23.96875 65.921875 18.8125 64.3125 
Q 13.671875 62.703125 7.8125 59.421875 
L 7.8125 69.390625 
Q 13.765625 71.78125 18.9375 73 
Q 24.125 74.21875 28.421875 74.21875 
Q 39.75 74.21875 46.484375 68.546875 
Q 53.21875 62.890625 53.21875 53.421875 
Q 53.21875 48.921875 51.53125 44.890625 
Q 49.859375 40.875 45.40625 35.40625 
Q 44.1875 33.984375 37.640625 27.21875 
Q 31.109375 20.453125 19.1875 8.296875 
" id="BitstreamVeraSans-Roman-32"/>
      </defs>
      <g transform="translate(358.146426394 378.253217822)scale(0.2 -0.2)">
       <use xlink:href="#BitstreamVeraSans-Roman-32"/>
      </g>
     </g>
    </g>
    <g id="xtick_4">
     <g id="line2d_48">
      <path clip-path="url(#p69c28ac8b9)" d="M 513.08214 359.056343 
L 513.08214 13.456343 
" style="fill:none;stroke:#000000;stroke-dasharray:1.000000,3.000000;stroke-dashoffset:0.0;stroke-width:0.5;"/>
     </g>
     <g id="line2d_49">
      <g>
       <use style="stroke:#000000;stroke-width:0.5;" x="513.082139591" xlink:href="#ma587671024" y="359.056342822"/>
      </g>
     </g>
     <g id="line2d_50">
      <g>
       <use style="stroke:#000000;stroke-width:0.5;" x="513.082139591" xlink:href="#m5f33005cc2" y="13.4563428218"/>
      </g>
     </g>
     <g id="text_4">
      <!-- 3 -->
      <defs>
       <path d="M 40.578125 39.3125 
Q 47.65625 37.796875 51.625 33 
Q 55.609375 28.21875 55.609375 21.1875 
Q 55.609375 10.40625 48.1875 4.484375 
Q 40.765625 -1.421875 27.09375 -1.421875 
Q 22.515625 -1.421875 17.65625 -0.515625 
Q 12.796875 0.390625 7.625 2.203125 
L 7.625 11.71875 
Q 11.71875 9.328125 16.59375 8.109375 
Q 21.484375 6.890625 26.8125 6.890625 
Q 36.078125 6.890625 40.9375 10.546875 
Q 45.796875 14.203125 45.796875 21.1875 
Q 45.796875 27.640625 41.28125 31.265625 
Q 36.765625 34.90625 28.71875 34.90625 
L 20.21875 34.90625 
L 20.21875 43.015625 
L 29.109375 43.015625 
Q 36.375 43.015625 40.234375 45.921875 
Q 44.09375 48.828125 44.09375 54.296875 
Q 44.09375 59.90625 40.109375 62.90625 
Q 36.140625 65.921875 28.71875 65.921875 
Q 24.65625 65.921875 20.015625 65.03125 
Q 15.375 64.15625 9.8125 62.3125 
L 9.8125 71.09375 
Q 15.4375 72.65625 20.34375 73.4375 
Q 25.25 74.21875 29.59375 74.21875 
Q 40.828125 74.21875 47.359375 69.109375 
Q 53.90625 64.015625 53.90625 55.328125 
Q 53.90625 49.265625 50.4375 45.09375 
Q 46.96875 40.921875 40.578125 39.3125 
" id="BitstreamVeraSans-Roman-33"/>
      </defs>
      <g transform="translate(506.719639591 378.253217822)scale(0.2 -0.2)">
       <use xlink:href="#BitstreamVeraSans-Roman-33"/>
      </g>
     </g>
    </g>
    <g id="xtick_5">
     <g id="line2d_51">
      <defs>
       <path d="M 0 0 
L 0 -2 
" id="m98c20ccbbf" style="stroke:#000000;stroke-width:0.5;"/>
      </defs>
      <g>
       <use style="stroke:#000000;stroke-width:0.5;" x="112.087493724" xlink:href="#m98c20ccbbf" y="359.056342822"/>
      </g>
     </g>
     <g id="line2d_52">
      <defs>
       <path d="M 0 0 
L 0 2 
" id="m4c8c51636f" style="stroke:#000000;stroke-width:0.5;"/>
      </defs>
      <g>
       <use style="stroke:#000000;stroke-width:0.5;" x="112.087493724" xlink:href="#m4c8c51636f" y="13.4563428218"/>
      </g>
     </g>
    </g>
    <g id="xtick_6">
     <g id="line2d_53">
      <g>
       <use style="stroke:#000000;stroke-width:0.5;" x="138.249937898" xlink:href="#m98c20ccbbf" y="359.056342822"/>
      </g>
     </g>
     <g id="line2d_54">
      <g>
       <use style="stroke:#000000;stroke-width:0.5;" x="138.249937898" xlink:href="#m4c8c51636f" y="13.4563428218"/>
      </g>
     </g>
    </g>
    <g id="xtick_7">
     <g id="line2d_55">
      <g>
       <use style="stroke:#000000;stroke-width:0.5;" x="156.812487449" xlink:href="#m98c20ccbbf" y="359.056342822"/>
      </g>
     </g>
     <g id="line2d_56">
      <g>
       <use style="stroke:#000000;stroke-width:0.5;" x="156.812487449" xlink:href="#m4c8c51636f" y="13.4563428218"/>
      </g>
     </g>
    </g>
    <g id="xtick_8">
     <g id="line2d_57">
      <g>
       <use style="stroke:#000000;stroke-width:0.5;" x="171.210719472" xlink:href="#m98c20ccbbf" y="359.056342822"/>
      </g>
     </g>
     <g id="line2d_58">
      <g>
       <use style="stroke:#000000;stroke-width:0.5;" x="171.210719472" xlink:href="#m4c8c51636f" y="13.4563428218"/>
      </g>
     </g>
    </g>
    <g id="xtick_9">
     <g id="line2d_59">
      <g>
       <use style="stroke:#000000;stroke-width:0.5;" x="182.974931623" xlink:href="#m98c20ccbbf" y="359.056342822"/>
      </g>
     </g>
     <g id="line2d_60">
      <g>
       <use style="stroke:#000000;stroke-width:0.5;" x="182.974931623" xlink:href="#m4c8c51636f" y="13.4563428218"/>
      </g>
     </g>
    </g>
    <g id="xtick_10">
     <g id="line2d_61">
      <g>
       <use style="stroke:#000000;stroke-width:0.5;" x="192.921431271" xlink:href="#m98c20ccbbf" y="359.056342822"/>
      </g>
     </g>
     <g id="line2d_62">
      <g>
       <use style="stroke:#000000;stroke-width:0.5;" x="192.921431271" xlink:href="#m4c8c51636f" y="13.4563428218"/>
      </g>
     </g>
    </g>
    <g id="xtick_11">
     <g id="line2d_63">
      <g>
       <use style="stroke:#000000;stroke-width:0.5;" x="201.537481173" xlink:href="#m98c20ccbbf" y="359.056342822"/>
      </g>
     </g>
     <g id="line2d_64">
      <g>
       <use style="stroke:#000000;stroke-width:0.5;" x="201.537481173" xlink:href="#m4c8c51636f" y="13.4563428218"/>
      </g>
     </g>
    </g>
    <g id="xtick_12">
     <g id="line2d_65">
      <g>
       <use style="stroke:#000000;stroke-width:0.5;" x="209.137375796" xlink:href="#m98c20ccbbf" y="359.056342822"/>
      </g>
     </g>
     <g id="line2d_66">
      <g>
       <use style="stroke:#000000;stroke-width:0.5;" x="209.137375796" xlink:href="#m4c8c51636f" y="13.4563428218"/>
      </g>
     </g>
    </g>
    <g id="xtick_13">
     <g id="line2d_67">
      <g>
       <use style="stroke:#000000;stroke-width:0.5;" x="260.660706921" xlink:href="#m98c20ccbbf" y="359.056342822"/>
      </g>
     </g>
     <g id="line2d_68">
      <g>
       <use style="stroke:#000000;stroke-width:0.5;" x="260.660706921" xlink:href="#m4c8c51636f" y="13.4563428218"/>
      </g>
     </g>
    </g>
    <g id="xtick_14">
     <g id="line2d_69">
      <g>
       <use style="stroke:#000000;stroke-width:0.5;" x="286.823151095" xlink:href="#m98c20ccbbf" y="359.056342822"/>
      </g>
     </g>
     <g id="line2d_70">
      <g>
       <use style="stroke:#000000;stroke-width:0.5;" x="286.823151095" xlink:href="#m4c8c51636f" y="13.4563428218"/>
      </g>
     </g>
    </g>
    <g id="xtick_15">
     <g id="line2d_71">
      <g>
       <use style="stroke:#000000;stroke-width:0.5;" x="305.385700646" xlink:href="#m98c20ccbbf" y="359.056342822"/>
      </g>
     </g>
     <g id="line2d_72">
      <g>
       <use style="stroke:#000000;stroke-width:0.5;" x="305.385700646" xlink:href="#m4c8c51636f" y="13.4563428218"/>
      </g>
     </g>
    </g>
    <g id="xtick_16">
     <g id="line2d_73">
      <g>
       <use style="stroke:#000000;stroke-width:0.5;" x="319.783932669" xlink:href="#m98c20ccbbf" y="359.056342822"/>
      </g>
     </g>
     <g id="line2d_74">
      <g>
       <use style="stroke:#000000;stroke-width:0.5;" x="319.783932669" xlink:href="#m4c8c51636f" y="13.4563428218"/>
      </g>
     </g>
    </g>
    <g id="xtick_17">
     <g id="line2d_75">
      <g>
       <use style="stroke:#000000;stroke-width:0.5;" x="331.54814482" xlink:href="#m98c20ccbbf" y="359.056342822"/>
      </g>
     </g>
     <g id="line2d_76">
      <g>
       <use style="stroke:#000000;stroke-width:0.5;" x="331.54814482" xlink:href="#m4c8c51636f" y="13.4563428218"/>
      </g>
     </g>
    </g>
    <g id="xtick_18">
     <g id="line2d_77">
      <g>
       <use style="stroke:#000000;stroke-width:0.5;" x="341.494644468" xlink:href="#m98c20ccbbf" y="359.056342822"/>
      </g>
     </g>
     <g id="line2d_78">
      <g>
       <use style="stroke:#000000;stroke-width:0.5;" x="341.494644468" xlink:href="#m4c8c51636f" y="13.4563428218"/>
      </g>
     </g>
    </g>
    <g id="xtick_19">
     <g id="line2d_79">
      <g>
       <use style="stroke:#000000;stroke-width:0.5;" x="350.11069437" xlink:href="#m98c20ccbbf" y="359.056342822"/>
      </g>
     </g>
     <g id="line2d_80">
      <g>
       <use style="stroke:#000000;stroke-width:0.5;" x="350.11069437" xlink:href="#m4c8c51636f" y="13.4563428218"/>
      </g>
     </g>
    </g>
    <g id="xtick_20">
     <g id="line2d_81">
      <g>
       <use style="stroke:#000000;stroke-width:0.5;" x="357.710588993" xlink:href="#m98c20ccbbf" y="359.056342822"/>
      </g>
     </g>
     <g id="line2d_82">
      <g>
       <use style="stroke:#000000;stroke-width:0.5;" x="357.710588993" xlink:href="#m4c8c51636f" y="13.4563428218"/>
      </g>
     </g>
    </g>
    <g id="xtick_21">
     <g id="line2d_83">
      <g>
       <use style="stroke:#000000;stroke-width:0.5;" x="409.233920118" xlink:href="#m98c20ccbbf" y="359.056342822"/>
      </g>
     </g>
     <g id="line2d_84">
      <g>
       <use style="stroke:#000000;stroke-width:0.5;" x="409.233920118" xlink:href="#m4c8c51636f" y="13.4563428218"/>
      </g>
     </g>
    </g>
    <g id="xtick_22">
     <g id="line2d_85">
      <g>
       <use style="stroke:#000000;stroke-width:0.5;" x="435.396364292" xlink:href="#m98c20ccbbf" y="359.056342822"/>
      </g>
     </g>
     <g id="line2d_86">
      <g>
       <use style="stroke:#000000;stroke-width:0.5;" x="435.396364292" xlink:href="#m4c8c51636f" y="13.4563428218"/>
      </g>
     </g>
    </g>
    <g id="xtick_23">
     <g id="line2d_87">
      <g>
       <use style="stroke:#000000;stroke-width:0.5;" x="453.958913843" xlink:href="#m98c20ccbbf" y="359.056342822"/>
      </g>
     </g>
     <g id="line2d_88">
      <g>
       <use style="stroke:#000000;stroke-width:0.5;" x="453.958913843" xlink:href="#m4c8c51636f" y="13.4563428218"/>
      </g>
     </g>
    </g>
    <g id="xtick_24">
     <g id="line2d_89">
      <g>
       <use style="stroke:#000000;stroke-width:0.5;" x="468.357145866" xlink:href="#m98c20ccbbf" y="359.056342822"/>
      </g>
     </g>
     <g id="line2d_90">
      <g>
       <use style="stroke:#000000;stroke-width:0.5;" x="468.357145866" xlink:href="#m4c8c51636f" y="13.4563428218"/>
      </g>
     </g>
    </g>
    <g id="xtick_25">
     <g id="line2d_91">
      <g>
       <use style="stroke:#000000;stroke-width:0.5;" x="480.121358017" xlink:href="#m98c20ccbbf" y="359.056342822"/>
      </g>
     </g>
     <g id="line2d_92">
      <g>
       <use style="stroke:#000000;stroke-width:0.5;" x="480.121358017" xlink:href="#m4c8c51636f" y="13.4563428218"/>
      </g>
     </g>
    </g>
    <g id="xtick_26">
     <g id="line2d_93">
      <g>
       <use style="stroke:#000000;stroke-width:0.5;" x="490.067857665" xlink:href="#m98c20ccbbf" y="359.056342822"/>
      </g>
     </g>
     <g id="line2d_94">
      <g>
       <use style="stroke:#000000;stroke-width:0.5;" x="490.067857665" xlink:href="#m4c8c51636f" y="13.4563428218"/>
      </g>
     </g>
    </g>
    <g id="xtick_27">
     <g id="line2d_95">
      <g>
       <use style="stroke:#000000;stroke-width:0.5;" x="498.683907567" xlink:href="#m98c20ccbbf" y="359.056342822"/>
      </g>
     </g>
     <g id="line2d_96">
      <g>
       <use style="stroke:#000000;stroke-width:0.5;" x="498.683907567" xlink:href="#m4c8c51636f" y="13.4563428218"/>
      </g>
     </g>
    </g>
    <g id="xtick_28">
     <g id="line2d_97">
      <g>
       <use style="stroke:#000000;stroke-width:0.5;" x="506.28380219" xlink:href="#m98c20ccbbf" y="359.056342822"/>
      </g>
     </g>
     <g id="line2d_98">
      <g>
       <use style="stroke:#000000;stroke-width:0.5;" x="506.28380219" xlink:href="#m4c8c51636f" y="13.4563428218"/>
      </g>
     </g>
    </g>
    <g id="text_5">
     <!-- log10 of FEvals / DIM -->
     <defs>
      <path id="BitstreamVeraSans-Roman-20"/>
      <path d="M 9.8125 72.90625 
L 24.515625 72.90625 
L 43.109375 23.296875 
L 61.8125 72.90625 
L 76.515625 72.90625 
L 76.515625 0 
L 66.890625 0 
L 66.890625 64.015625 
L 48.09375 14.015625 
L 38.1875 14.015625 
L 19.390625 64.015625 
L 19.390625 0 
L 9.8125 0 
z
" id="BitstreamVeraSans-Roman-4d"/>
      <path d="M 30.609375 48.390625 
Q 23.390625 48.390625 19.1875 42.75 
Q 14.984375 37.109375 14.984375 27.296875 
Q 14.984375 17.484375 19.15625 11.84375 
Q 23.34375 6.203125 30.609375 6.203125 
Q 37.796875 6.203125 41.984375 11.859375 
Q 46.1875 17.53125 46.1875 27.296875 
Q 46.1875 37.015625 41.984375 42.703125 
Q 37.796875 48.390625 30.609375 48.390625 
M 30.609375 56 
Q 42.328125 56 49.015625 48.375 
Q 55.71875 40.765625 55.71875 27.296875 
Q 55.71875 13.875 49.015625 6.21875 
Q 42.328125 -1.421875 30.609375 -1.421875 
Q 18.84375 -1.421875 12.171875 6.21875 
Q 5.515625 13.875 5.515625 27.296875 
Q 5.515625 40.765625 12.171875 48.375 
Q 18.84375 56 30.609375 56 
" id="BitstreamVeraSans-Roman-6f"/>
      <path d="M 9.421875 75.984375 
L 18.40625 75.984375 
L 18.40625 0 
L 9.421875 0 
z
" id="BitstreamVeraSans-Roman-6c"/>
      <path d="M 9.8125 72.90625 
L 51.703125 72.90625 
L 51.703125 64.59375 
L 19.671875 64.59375 
L 19.671875 43.109375 
L 48.578125 43.109375 
L 48.578125 34.8125 
L 19.671875 34.8125 
L 19.671875 0 
L 9.8125 0 
z
" id="BitstreamVeraSans-Roman-46"/>
      <path d="M 9.8125 72.90625 
L 55.90625 72.90625 
L 55.90625 64.59375 
L 19.671875 64.59375 
L 19.671875 43.015625 
L 54.390625 43.015625 
L 54.390625 34.71875 
L 19.671875 34.71875 
L 19.671875 8.296875 
L 56.78125 8.296875 
L 56.78125 0 
L 9.8125 0 
z
" id="BitstreamVeraSans-Roman-45"/>
      <path d="M 19.671875 64.796875 
L 19.671875 8.109375 
L 31.59375 8.109375 
Q 46.6875 8.109375 53.6875 14.9375 
Q 60.6875 21.78125 60.6875 36.53125 
Q 60.6875 51.171875 53.6875 57.984375 
Q 46.6875 64.796875 31.59375 64.796875 
z
M 9.8125 72.90625 
L 30.078125 72.90625 
Q 51.265625 72.90625 61.171875 64.09375 
Q 71.09375 55.28125 71.09375 36.53125 
Q 71.09375 17.671875 61.125 8.828125 
Q 51.171875 0 30.078125 0 
L 9.8125 0 
z
" id="BitstreamVeraSans-Roman-44"/>
      <path d="M 25.390625 72.90625 
L 33.6875 72.90625 
L 8.296875 -9.28125 
L 0 -9.28125 
z
" id="BitstreamVeraSans-Roman-2f"/>
      <path d="M 2.984375 54.6875 
L 12.5 54.6875 
L 29.59375 8.796875 
L 46.6875 54.6875 
L 56.203125 54.6875 
L 35.6875 0 
L 23.484375 0 
z
" id="BitstreamVeraSans-Roman-76"/>
      <path d="M 45.40625 27.984375 
Q 45.40625 37.75 41.375 43.109375 
Q 37.359375 48.484375 30.078125 48.484375 
Q 22.859375 48.484375 18.828125 43.109375 
Q 14.796875 37.75 14.796875 27.984375 
Q 14.796875 18.265625 18.828125 12.890625 
Q 22.859375 7.515625 30.078125 7.515625 
Q 37.359375 7.515625 41.375 12.890625 
Q 45.40625 18.265625 45.40625 27.984375 
M 54.390625 6.78125 
Q 54.390625 -7.171875 48.1875 -13.984375 
Q 42 -20.796875 29.203125 -20.796875 
Q 24.46875 -20.796875 20.265625 -20.09375 
Q 16.0625 -19.390625 12.109375 -17.921875 
L 12.109375 -9.1875 
Q 16.0625 -11.328125 19.921875 -12.34375 
Q 23.78125 -13.375 27.78125 -13.375 
Q 36.625 -13.375 41.015625 -8.765625 
Q 45.40625 -4.15625 45.40625 5.171875 
L 45.40625 9.625 
Q 42.625 4.78125 38.28125 2.390625 
Q 33.9375 0 27.875 0 
Q 17.828125 0 11.671875 7.65625 
Q 5.515625 15.328125 5.515625 27.984375 
Q 5.515625 40.671875 11.671875 48.328125 
Q 17.828125 56 27.875 56 
Q 33.9375 56 38.28125 53.609375 
Q 42.625 51.21875 45.40625 46.390625 
L 45.40625 54.6875 
L 54.390625 54.6875 
z
" id="BitstreamVeraSans-Roman-67"/>
      <path d="M 37.109375 75.984375 
L 37.109375 68.5 
L 28.515625 68.5 
Q 23.6875 68.5 21.796875 66.546875 
Q 19.921875 64.59375 19.921875 59.515625 
L 19.921875 54.6875 
L 34.71875 54.6875 
L 34.71875 47.703125 
L 19.921875 47.703125 
L 19.921875 0 
L 10.890625 0 
L 10.890625 47.703125 
L 2.296875 47.703125 
L 2.296875 54.6875 
L 10.890625 54.6875 
L 10.890625 58.5 
Q 10.890625 67.625 15.140625 71.796875 
Q 19.390625 75.984375 28.609375 75.984375 
z
" id="BitstreamVeraSans-Roman-66"/>
      <path d="M 34.28125 27.484375 
Q 23.390625 27.484375 19.1875 25 
Q 14.984375 22.515625 14.984375 16.5 
Q 14.984375 11.71875 18.140625 8.90625 
Q 21.296875 6.109375 26.703125 6.109375 
Q 34.1875 6.109375 38.703125 11.40625 
Q 43.21875 16.703125 43.21875 25.484375 
L 43.21875 27.484375 
z
M 52.203125 31.203125 
L 52.203125 0 
L 43.21875 0 
L 43.21875 8.296875 
Q 40.140625 3.328125 35.546875 0.953125 
Q 30.953125 -1.421875 24.3125 -1.421875 
Q 15.921875 -1.421875 10.953125 3.296875 
Q 6 8.015625 6 15.921875 
Q 6 25.140625 12.171875 29.828125 
Q 18.359375 34.515625 30.609375 34.515625 
L 43.21875 34.515625 
L 43.21875 35.40625 
Q 43.21875 41.609375 39.140625 45 
Q 35.0625 48.390625 27.6875 48.390625 
Q 23 48.390625 18.546875 47.265625 
Q 14.109375 46.140625 10.015625 43.890625 
L 10.015625 52.203125 
Q 14.9375 54.109375 19.578125 55.046875 
Q 24.21875 56 28.609375 56 
Q 40.484375 56 46.34375 49.84375 
Q 52.203125 43.703125 52.203125 31.203125 
" id="BitstreamVeraSans-Roman-61"/>
      <path d="M 44.28125 53.078125 
L 44.28125 44.578125 
Q 40.484375 46.53125 36.375 47.5 
Q 32.28125 48.484375 27.875 48.484375 
Q 21.1875 48.484375 17.84375 46.4375 
Q 14.5 44.390625 14.5 40.28125 
Q 14.5 37.15625 16.890625 35.375 
Q 19.28125 33.59375 26.515625 31.984375 
L 29.59375 31.296875 
Q 39.15625 29.25 43.1875 25.515625 
Q 47.21875 21.78125 47.21875 15.09375 
Q 47.21875 7.46875 41.1875 3.015625 
Q 35.15625 -1.421875 24.609375 -1.421875 
Q 20.21875 -1.421875 15.453125 -0.5625 
Q 10.6875 0.296875 5.421875 2 
L 5.421875 11.28125 
Q 10.40625 8.6875 15.234375 7.390625 
Q 20.0625 6.109375 24.8125 6.109375 
Q 31.15625 6.109375 34.5625 8.28125 
Q 37.984375 10.453125 37.984375 14.40625 
Q 37.984375 18.0625 35.515625 20.015625 
Q 33.0625 21.96875 24.703125 23.78125 
L 21.578125 24.515625 
Q 13.234375 26.265625 9.515625 29.90625 
Q 5.8125 33.546875 5.8125 39.890625 
Q 5.8125 47.609375 11.28125 51.796875 
Q 16.75 56 26.8125 56 
Q 31.78125 56 36.171875 55.265625 
Q 40.578125 54.546875 44.28125 53.078125 
" id="BitstreamVeraSans-Roman-73"/>
      <path d="M 9.8125 72.90625 
L 19.671875 72.90625 
L 19.671875 0 
L 9.8125 0 
z
" id="BitstreamVeraSans-Roman-49"/>
     </defs>
     <g transform="translate(185.4890625 402.609467822)scale(0.2 -0.2)">
      <use xlink:href="#BitstreamVeraSans-Roman-6c"/>
      <use x="27.783203125" xlink:href="#BitstreamVeraSans-Roman-6f"/>
      <use x="88.96484375" xlink:href="#BitstreamVeraSans-Roman-67"/>
      <use x="152.44140625" xlink:href="#BitstreamVeraSans-Roman-31"/>
      <use x="216.064453125" xlink:href="#BitstreamVeraSans-Roman-30"/>
      <use x="279.6875" xlink:href="#BitstreamVeraSans-Roman-20"/>
      <use x="311.474609375" xlink:href="#BitstreamVeraSans-Roman-6f"/>
      <use x="372.65625" xlink:href="#BitstreamVeraSans-Roman-66"/>
      <use x="407.861328125" xlink:href="#BitstreamVeraSans-Roman-20"/>
      <use x="439.6484375" xlink:href="#BitstreamVeraSans-Roman-46"/>
      <use x="497.16796875" xlink:href="#BitstreamVeraSans-Roman-45"/>
      <use x="560.3515625" xlink:href="#BitstreamVeraSans-Roman-76"/>
      <use x="619.53125" xlink:href="#BitstreamVeraSans-Roman-61"/>
      <use x="680.810546875" xlink:href="#BitstreamVeraSans-Roman-6c"/>
      <use x="708.59375" xlink:href="#BitstreamVeraSans-Roman-73"/>
      <use x="760.693359375" xlink:href="#BitstreamVeraSans-Roman-20"/>
      <use x="792.48046875" xlink:href="#BitstreamVeraSans-Roman-2f"/>
      <use x="826.171875" xlink:href="#BitstreamVeraSans-Roman-20"/>
      <use x="857.958984375" xlink:href="#BitstreamVeraSans-Roman-44"/>
      <use x="934.9609375" xlink:href="#BitstreamVeraSans-Roman-49"/>
      <use x="964.453125" xlink:href="#BitstreamVeraSans-Roman-4d"/>
     </g>
    </g>
   </g>
   <g id="matplotlib.axis_2">
    <g id="ytick_1">
     <g id="line2d_99">
      <path clip-path="url(#p69c28ac8b9)" d="M 67.3625 359.056343 
L 513.7625 359.056343 
" style="fill:none;stroke:#000000;stroke-dasharray:1.000000,3.000000;stroke-dashoffset:0.0;stroke-width:0.5;"/>
     </g>
     <g id="line2d_100">
      <defs>
       <path d="M 0 0 
L 4 0 
" id="m175f54f7a3" style="stroke:#000000;stroke-width:0.5;"/>
      </defs>
      <g>
       <use style="stroke:#000000;stroke-width:0.5;" x="67.3625" xlink:href="#m175f54f7a3" y="359.056342822"/>
      </g>
     </g>
     <g id="line2d_101">
      <defs>
       <path d="M 0 0 
L -4 0 
" id="m5e0d28c71a" style="stroke:#000000;stroke-width:0.5;"/>
      </defs>
      <g>
       <use style="stroke:#000000;stroke-width:0.5;" x="513.7625" xlink:href="#m5e0d28c71a" y="359.056342822"/>
      </g>
     </g>
     <g id="text_6">
      <!-- 0.0 -->
      <defs>
       <path d="M 10.6875 12.40625 
L 21 12.40625 
L 21 0 
L 10.6875 0 
z
" id="BitstreamVeraSans-Roman-2e"/>
      </defs>
      <g transform="translate(31.55625 364.575092822)scale(0.2 -0.2)">
       <use xlink:href="#BitstreamVeraSans-Roman-30"/>
       <use x="63.623046875" xlink:href="#BitstreamVeraSans-Roman-2e"/>
       <use x="95.41015625" xlink:href="#BitstreamVeraSans-Roman-30"/>
      </g>
     </g>
    </g>
    <g id="ytick_2">
     <g id="line2d_102">
      <path clip-path="url(#p69c28ac8b9)" d="M 67.3625 290.620699 
L 513.7625 290.620699 
" style="fill:none;stroke:#000000;stroke-dasharray:1.000000,3.000000;stroke-dashoffset:0.0;stroke-width:0.5;"/>
     </g>
     <g id="line2d_103">
      <g>
       <use style="stroke:#000000;stroke-width:0.5;" x="67.3625" xlink:href="#m175f54f7a3" y="290.620699257"/>
      </g>
     </g>
     <g id="line2d_104">
      <g>
       <use style="stroke:#000000;stroke-width:0.5;" x="513.7625" xlink:href="#m5e0d28c71a" y="290.620699257"/>
      </g>
     </g>
     <g id="text_7">
      <!-- 0.2 -->
      <g transform="translate(31.55625 296.139449257)scale(0.2 -0.2)">
       <use xlink:href="#BitstreamVeraSans-Roman-30"/>
       <use x="63.623046875" xlink:href="#BitstreamVeraSans-Roman-2e"/>
       <use x="95.41015625" xlink:href="#BitstreamVeraSans-Roman-32"/>
      </g>
     </g>
    </g>
    <g id="ytick_3">
     <g id="line2d_105">
      <path clip-path="url(#p69c28ac8b9)" d="M 67.3625 222.185056 
L 513.7625 222.185056 
" style="fill:none;stroke:#000000;stroke-dasharray:1.000000,3.000000;stroke-dashoffset:0.0;stroke-width:0.5;"/>
     </g>
     <g id="line2d_106">
      <g>
       <use style="stroke:#000000;stroke-width:0.5;" x="67.3625" xlink:href="#m175f54f7a3" y="222.185055693"/>
      </g>
     </g>
     <g id="line2d_107">
      <g>
       <use style="stroke:#000000;stroke-width:0.5;" x="513.7625" xlink:href="#m5e0d28c71a" y="222.185055693"/>
      </g>
     </g>
     <g id="text_8">
      <!-- 0.4 -->
      <defs>
       <path d="M 37.796875 64.3125 
L 12.890625 25.390625 
L 37.796875 25.390625 
z
M 35.203125 72.90625 
L 47.609375 72.90625 
L 47.609375 25.390625 
L 58.015625 25.390625 
L 58.015625 17.1875 
L 47.609375 17.1875 
L 47.609375 0 
L 37.796875 0 
L 37.796875 17.1875 
L 4.890625 17.1875 
L 4.890625 26.703125 
z
" id="BitstreamVeraSans-Roman-34"/>
      </defs>
      <g transform="translate(31.55625 227.703805693)scale(0.2 -0.2)">
       <use xlink:href="#BitstreamVeraSans-Roman-30"/>
       <use x="63.623046875" xlink:href="#BitstreamVeraSans-Roman-2e"/>
       <use x="95.41015625" xlink:href="#BitstreamVeraSans-Roman-34"/>
      </g>
     </g>
    </g>
    <g id="ytick_4">
     <g id="line2d_108">
      <path clip-path="url(#p69c28ac8b9)" d="M 67.3625 153.749412 
L 513.7625 153.749412 
" style="fill:none;stroke:#000000;stroke-dasharray:1.000000,3.000000;stroke-dashoffset:0.0;stroke-width:0.5;"/>
     </g>
     <g id="line2d_109">
      <g>
       <use style="stroke:#000000;stroke-width:0.5;" x="67.3625" xlink:href="#m175f54f7a3" y="153.749412129"/>
      </g>
     </g>
     <g id="line2d_110">
      <g>
       <use style="stroke:#000000;stroke-width:0.5;" x="513.7625" xlink:href="#m5e0d28c71a" y="153.749412129"/>
      </g>
     </g>
     <g id="text_9">
      <!-- 0.6 -->
      <defs>
       <path d="M 33.015625 40.375 
Q 26.375 40.375 22.484375 35.828125 
Q 18.609375 31.296875 18.609375 23.390625 
Q 18.609375 15.53125 22.484375 10.953125 
Q 26.375 6.390625 33.015625 6.390625 
Q 39.65625 6.390625 43.53125 10.953125 
Q 47.40625 15.53125 47.40625 23.390625 
Q 47.40625 31.296875 43.53125 35.828125 
Q 39.65625 40.375 33.015625 40.375 
M 52.59375 71.296875 
L 52.59375 62.3125 
Q 48.875 64.0625 45.09375 64.984375 
Q 41.3125 65.921875 37.59375 65.921875 
Q 27.828125 65.921875 22.671875 59.328125 
Q 17.53125 52.734375 16.796875 39.40625 
Q 19.671875 43.65625 24.015625 45.921875 
Q 28.375 48.1875 33.59375 48.1875 
Q 44.578125 48.1875 50.953125 41.515625 
Q 57.328125 34.859375 57.328125 23.390625 
Q 57.328125 12.15625 50.6875 5.359375 
Q 44.046875 -1.421875 33.015625 -1.421875 
Q 20.359375 -1.421875 13.671875 8.265625 
Q 6.984375 17.96875 6.984375 36.375 
Q 6.984375 53.65625 15.1875 63.9375 
Q 23.390625 74.21875 37.203125 74.21875 
Q 40.921875 74.21875 44.703125 73.484375 
Q 48.484375 72.75 52.59375 71.296875 
" id="BitstreamVeraSans-Roman-36"/>
      </defs>
      <g transform="translate(31.55625 159.268162129)scale(0.2 -0.2)">
       <use xlink:href="#BitstreamVeraSans-Roman-30"/>
       <use x="63.623046875" xlink:href="#BitstreamVeraSans-Roman-2e"/>
       <use x="95.41015625" xlink:href="#BitstreamVeraSans-Roman-36"/>
      </g>
     </g>
    </g>
    <g id="ytick_5">
     <g id="line2d_111">
      <path clip-path="url(#p69c28ac8b9)" d="M 67.3625 85.313769 
L 513.7625 85.313769 
" style="fill:none;stroke:#000000;stroke-dasharray:1.000000,3.000000;stroke-dashoffset:0.0;stroke-width:0.5;"/>
     </g>
     <g id="line2d_112">
      <g>
       <use style="stroke:#000000;stroke-width:0.5;" x="67.3625" xlink:href="#m175f54f7a3" y="85.3137685644"/>
      </g>
     </g>
     <g id="line2d_113">
      <g>
       <use style="stroke:#000000;stroke-width:0.5;" x="513.7625" xlink:href="#m5e0d28c71a" y="85.3137685644"/>
      </g>
     </g>
     <g id="text_10">
      <!-- 0.8 -->
      <defs>
       <path d="M 31.78125 34.625 
Q 24.75 34.625 20.71875 30.859375 
Q 16.703125 27.09375 16.703125 20.515625 
Q 16.703125 13.921875 20.71875 10.15625 
Q 24.75 6.390625 31.78125 6.390625 
Q 38.8125 6.390625 42.859375 10.171875 
Q 46.921875 13.96875 46.921875 20.515625 
Q 46.921875 27.09375 42.890625 30.859375 
Q 38.875 34.625 31.78125 34.625 
M 21.921875 38.8125 
Q 15.578125 40.375 12.03125 44.71875 
Q 8.5 49.078125 8.5 55.328125 
Q 8.5 64.0625 14.71875 69.140625 
Q 20.953125 74.21875 31.78125 74.21875 
Q 42.671875 74.21875 48.875 69.140625 
Q 55.078125 64.0625 55.078125 55.328125 
Q 55.078125 49.078125 51.53125 44.71875 
Q 48 40.375 41.703125 38.8125 
Q 48.828125 37.15625 52.796875 32.3125 
Q 56.78125 27.484375 56.78125 20.515625 
Q 56.78125 9.90625 50.3125 4.234375 
Q 43.84375 -1.421875 31.78125 -1.421875 
Q 19.734375 -1.421875 13.25 4.234375 
Q 6.78125 9.90625 6.78125 20.515625 
Q 6.78125 27.484375 10.78125 32.3125 
Q 14.796875 37.15625 21.921875 38.8125 
M 18.3125 54.390625 
Q 18.3125 48.734375 21.84375 45.5625 
Q 25.390625 42.390625 31.78125 42.390625 
Q 38.140625 42.390625 41.71875 45.5625 
Q 45.3125 48.734375 45.3125 54.390625 
Q 45.3125 60.0625 41.71875 63.234375 
Q 38.140625 66.40625 31.78125 66.40625 
Q 25.390625 66.40625 21.84375 63.234375 
Q 18.3125 60.0625 18.3125 54.390625 
" id="BitstreamVeraSans-Roman-38"/>
      </defs>
      <g transform="translate(31.55625 90.8325185644)scale(0.2 -0.2)">
       <use xlink:href="#BitstreamVeraSans-Roman-30"/>
       <use x="63.623046875" xlink:href="#BitstreamVeraSans-Roman-2e"/>
       <use x="95.41015625" xlink:href="#BitstreamVeraSans-Roman-38"/>
      </g>
     </g>
    </g>
    <g id="ytick_6">
     <g id="line2d_114">
      <path clip-path="url(#p69c28ac8b9)" d="M 67.3625 16.878125 
L 513.7625 16.878125 
" style="fill:none;stroke:#000000;stroke-dasharray:1.000000,3.000000;stroke-dashoffset:0.0;stroke-width:0.5;"/>
     </g>
     <g id="line2d_115">
      <g>
       <use style="stroke:#000000;stroke-width:0.5;" x="67.3625" xlink:href="#m175f54f7a3" y="16.878125"/>
      </g>
     </g>
     <g id="line2d_116">
      <g>
       <use style="stroke:#000000;stroke-width:0.5;" x="513.7625" xlink:href="#m5e0d28c71a" y="16.878125"/>
      </g>
     </g>
     <g id="text_11">
      <!-- 1.0 -->
      <g transform="translate(31.55625 22.396875)scale(0.2 -0.2)">
       <use xlink:href="#BitstreamVeraSans-Roman-31"/>
       <use x="63.623046875" xlink:href="#BitstreamVeraSans-Roman-2e"/>
       <use x="95.41015625" xlink:href="#BitstreamVeraSans-Roman-30"/>
      </g>
     </g>
    </g>
    <g id="text_12">
     <!-- proportion of trials -->
     <defs>
      <path d="M 54.890625 33.015625 
L 54.890625 0 
L 45.90625 0 
L 45.90625 32.71875 
Q 45.90625 40.484375 42.875 44.328125 
Q 39.84375 48.1875 33.796875 48.1875 
Q 26.515625 48.1875 22.3125 43.546875 
Q 18.109375 38.921875 18.109375 30.90625 
L 18.109375 0 
L 9.078125 0 
L 9.078125 54.6875 
L 18.109375 54.6875 
L 18.109375 46.1875 
Q 21.34375 51.125 25.703125 53.5625 
Q 30.078125 56 35.796875 56 
Q 45.21875 56 50.046875 50.171875 
Q 54.890625 44.34375 54.890625 33.015625 
" id="BitstreamVeraSans-Roman-6e"/>
      <path d="M 9.421875 54.6875 
L 18.40625 54.6875 
L 18.40625 0 
L 9.421875 0 
z
M 9.421875 75.984375 
L 18.40625 75.984375 
L 18.40625 64.59375 
L 9.421875 64.59375 
z
" id="BitstreamVeraSans-Roman-69"/>
      <path d="M 18.3125 70.21875 
L 18.3125 54.6875 
L 36.8125 54.6875 
L 36.8125 47.703125 
L 18.3125 47.703125 
L 18.3125 18.015625 
Q 18.3125 11.328125 20.140625 9.421875 
Q 21.96875 7.515625 27.59375 7.515625 
L 36.8125 7.515625 
L 36.8125 0 
L 27.59375 0 
Q 17.1875 0 13.234375 3.875 
Q 9.28125 7.765625 9.28125 18.015625 
L 9.28125 47.703125 
L 2.6875 47.703125 
L 2.6875 54.6875 
L 9.28125 54.6875 
L 9.28125 70.21875 
z
" id="BitstreamVeraSans-Roman-74"/>
      <path d="M 41.109375 46.296875 
Q 39.59375 47.171875 37.8125 47.578125 
Q 36.03125 48 33.890625 48 
Q 26.265625 48 22.1875 43.046875 
Q 18.109375 38.09375 18.109375 28.8125 
L 18.109375 0 
L 9.078125 0 
L 9.078125 54.6875 
L 18.109375 54.6875 
L 18.109375 46.1875 
Q 20.953125 51.171875 25.484375 53.578125 
Q 30.03125 56 36.53125 56 
Q 37.453125 56 38.578125 55.875 
Q 39.703125 55.765625 41.0625 55.515625 
z
" id="BitstreamVeraSans-Roman-72"/>
      <path d="M 18.109375 8.203125 
L 18.109375 -20.796875 
L 9.078125 -20.796875 
L 9.078125 54.6875 
L 18.109375 54.6875 
L 18.109375 46.390625 
Q 20.953125 51.265625 25.265625 53.625 
Q 29.59375 56 35.59375 56 
Q 45.5625 56 51.78125 48.09375 
Q 58.015625 40.1875 58.015625 27.296875 
Q 58.015625 14.40625 51.78125 6.484375 
Q 45.5625 -1.421875 35.59375 -1.421875 
Q 29.59375 -1.421875 25.265625 0.953125 
Q 20.953125 3.328125 18.109375 8.203125 
M 48.6875 27.296875 
Q 48.6875 37.203125 44.609375 42.84375 
Q 40.53125 48.484375 33.40625 48.484375 
Q 26.265625 48.484375 22.1875 42.84375 
Q 18.109375 37.203125 18.109375 27.296875 
Q 18.109375 17.390625 22.1875 11.75 
Q 26.265625 6.109375 33.40625 6.109375 
Q 40.53125 6.109375 44.609375 11.75 
Q 48.6875 17.390625 48.6875 27.296875 
" id="BitstreamVeraSans-Roman-70"/>
     </defs>
     <g transform="translate(22.396875 279.484467822)rotate(-90.0)scale(0.2 -0.2)">
      <use xlink:href="#BitstreamVeraSans-Roman-70"/>
      <use x="63.4765625" xlink:href="#BitstreamVeraSans-Roman-72"/>
      <use x="104.55859375" xlink:href="#BitstreamVeraSans-Roman-6f"/>
      <use x="165.740234375" xlink:href="#BitstreamVeraSans-Roman-70"/>
      <use x="229.216796875" xlink:href="#BitstreamVeraSans-Roman-6f"/>
      <use x="290.3984375" xlink:href="#BitstreamVeraSans-Roman-72"/>
      <use x="331.51171875" xlink:href="#BitstreamVeraSans-Roman-74"/>
      <use x="370.720703125" xlink:href="#BitstreamVeraSans-Roman-69"/>
      <use x="398.50390625" xlink:href="#BitstreamVeraSans-Roman-6f"/>
      <use x="459.685546875" xlink:href="#BitstreamVeraSans-Roman-6e"/>
      <use x="523.064453125" xlink:href="#BitstreamVeraSans-Roman-20"/>
      <use x="554.8515625" xlink:href="#BitstreamVeraSans-Roman-6f"/>
      <use x="616.033203125" xlink:href="#BitstreamVeraSans-Roman-66"/>
      <use x="651.23828125" xlink:href="#BitstreamVeraSans-Roman-20"/>
      <use x="683.025390625" xlink:href="#BitstreamVeraSans-Roman-74"/>
      <use x="722.234375" xlink:href="#BitstreamVeraSans-Roman-72"/>
      <use x="763.34765625" xlink:href="#BitstreamVeraSans-Roman-69"/>
      <use x="791.130859375" xlink:href="#BitstreamVeraSans-Roman-61"/>
      <use x="852.41015625" xlink:href="#BitstreamVeraSans-Roman-6c"/>
      <use x="880.193359375" xlink:href="#BitstreamVeraSans-Roman-73"/>
     </g>
    </g>
   </g>
   <g id="text_13">
    <!-- {f6-f9}, 5-D -->
    <defs>
     <path d="M 10.796875 72.90625 
L 49.515625 72.90625 
L 49.515625 64.59375 
L 19.828125 64.59375 
L 19.828125 46.734375 
Q 21.96875 47.46875 24.109375 47.828125 
Q 26.265625 48.1875 28.421875 48.1875 
Q 40.625 48.1875 47.75 41.5 
Q 54.890625 34.8125 54.890625 23.390625 
Q 54.890625 11.625 47.5625 5.09375 
Q 40.234375 -1.421875 26.90625 -1.421875 
Q 22.3125 -1.421875 17.546875 -0.640625 
Q 12.796875 0.140625 7.71875 1.703125 
L 7.71875 11.625 
Q 12.109375 9.234375 16.796875 8.0625 
Q 21.484375 6.890625 26.703125 6.890625 
Q 35.15625 6.890625 40.078125 11.328125 
Q 45.015625 15.765625 45.015625 23.390625 
Q 45.015625 31 40.078125 35.4375 
Q 35.15625 39.890625 26.703125 39.890625 
Q 22.75 39.890625 18.8125 39.015625 
Q 14.890625 38.140625 10.796875 36.28125 
z
" id="BitstreamVeraSans-Roman-35"/>
     <path d="M 12.5 -9.28125 
L 15.921875 -9.28125 
Q 22.75 -9.28125 24.828125 -7.171875 
Q 26.90625 -5.078125 26.90625 1.90625 
L 26.90625 14.015625 
Q 26.90625 21.625 29.09375 25.09375 
Q 31.296875 28.5625 36.71875 29.890625 
Q 31.296875 31.109375 29.09375 34.5625 
Q 26.90625 38.03125 26.90625 45.703125 
L 26.90625 57.8125 
Q 26.90625 64.75 24.828125 66.875 
Q 22.75 69 15.921875 69 
L 12.5 69 
L 12.5 75.984375 
L 15.578125 75.984375 
Q 27.734375 75.984375 31.8125 72.390625 
Q 35.890625 68.796875 35.890625 58.015625 
L 35.890625 46.296875 
Q 35.890625 39.015625 38.515625 36.203125 
Q 41.15625 33.40625 48.09375 33.40625 
L 51.125 33.40625 
L 51.125 26.421875 
L 48.09375 26.421875 
Q 41.15625 26.421875 38.515625 23.578125 
Q 35.890625 20.75 35.890625 13.375 
L 35.890625 1.703125 
Q 35.890625 -9.078125 31.8125 -12.6875 
Q 27.734375 -16.3125 15.578125 -16.3125 
L 12.5 -16.3125 
z
" id="BitstreamVeraSans-Roman-7d"/>
     <path d="M 10.984375 1.515625 
L 10.984375 10.5 
Q 14.703125 8.734375 18.5 7.8125 
Q 22.3125 6.890625 25.984375 6.890625 
Q 35.75 6.890625 40.890625 13.453125 
Q 46.046875 20.015625 46.78125 33.40625 
Q 43.953125 29.203125 39.59375 26.953125 
Q 35.25 24.703125 29.984375 24.703125 
Q 19.046875 24.703125 12.671875 31.3125 
Q 6.296875 37.9375 6.296875 49.421875 
Q 6.296875 60.640625 12.9375 67.421875 
Q 19.578125 74.21875 30.609375 74.21875 
Q 43.265625 74.21875 49.921875 64.515625 
Q 56.59375 54.828125 56.59375 36.375 
Q 56.59375 19.140625 48.40625 8.859375 
Q 40.234375 -1.421875 26.421875 -1.421875 
Q 22.703125 -1.421875 18.890625 -0.6875 
Q 15.09375 0.046875 10.984375 1.515625 
M 30.609375 32.421875 
Q 37.25 32.421875 41.125 36.953125 
Q 45.015625 41.5 45.015625 49.421875 
Q 45.015625 57.28125 41.125 61.84375 
Q 37.25 66.40625 30.609375 66.40625 
Q 23.96875 66.40625 20.09375 61.84375 
Q 16.21875 57.28125 16.21875 49.421875 
Q 16.21875 41.5 20.09375 36.953125 
Q 23.96875 32.421875 30.609375 32.421875 
" id="BitstreamVeraSans-Roman-39"/>
     <path d="M 51.125 -9.28125 
L 51.125 -16.3125 
L 48.09375 -16.3125 
Q 35.9375 -16.3125 31.8125 -12.6875 
Q 27.6875 -9.078125 27.6875 1.703125 
L 27.6875 13.375 
Q 27.6875 20.75 25.046875 23.578125 
Q 22.40625 26.421875 15.484375 26.421875 
L 12.5 26.421875 
L 12.5 33.40625 
L 15.484375 33.40625 
Q 22.46875 33.40625 25.078125 36.203125 
Q 27.6875 39.015625 27.6875 46.296875 
L 27.6875 58.015625 
Q 27.6875 68.796875 31.8125 72.390625 
Q 35.9375 75.984375 48.09375 75.984375 
L 51.125 75.984375 
L 51.125 69 
L 47.796875 69 
Q 40.921875 69 38.8125 66.84375 
Q 36.71875 64.703125 36.71875 57.8125 
L 36.71875 45.703125 
Q 36.71875 38.03125 34.5 34.5625 
Q 32.28125 31.109375 26.90625 29.890625 
Q 32.328125 28.5625 34.515625 25.09375 
Q 36.71875 21.625 36.71875 14.015625 
L 36.71875 1.90625 
Q 36.71875 -4.984375 38.8125 -7.125 
Q 40.921875 -9.28125 47.796875 -9.28125 
z
" id="BitstreamVeraSans-Roman-7b"/>
     <path d="M 11.71875 12.40625 
L 22.015625 12.40625 
L 22.015625 4 
L 14.015625 -11.625 
L 7.71875 -11.625 
L 11.71875 4 
z
" id="BitstreamVeraSans-Roman-2c"/>
     <path d="M 4.890625 31.390625 
L 31.203125 31.390625 
L 31.203125 23.390625 
L 4.890625 23.390625 
z
" id="BitstreamVeraSans-Roman-2d"/>
    </defs>
    <g transform="translate(230.4375 35.5652178218)scale(0.2 -0.2)">
     <use xlink:href="#BitstreamVeraSans-Roman-7b"/>
     <use x="63.623046875" xlink:href="#BitstreamVeraSans-Roman-66"/>
     <use x="98.828125" xlink:href="#BitstreamVeraSans-Roman-36"/>
     <use x="162.451171875" xlink:href="#BitstreamVeraSans-Roman-2d"/>
     <use x="198.53515625" xlink:href="#BitstreamVeraSans-Roman-66"/>
     <use x="233.740234375" xlink:href="#BitstreamVeraSans-Roman-39"/>
     <use x="297.36328125" xlink:href="#BitstreamVeraSans-Roman-7d"/>
     <use x="360.986328125" xlink:href="#BitstreamVeraSans-Roman-2c"/>
     <use x="392.7734375" xlink:href="#BitstreamVeraSans-Roman-20"/>
     <use x="424.560546875" xlink:href="#BitstreamVeraSans-Roman-35"/>
     <use x="488.18359375" xlink:href="#BitstreamVeraSans-Roman-2d"/>
     <use x="524.267578125" xlink:href="#BitstreamVeraSans-Roman-44"/>
    </g>
   </g>
   <g id="text_14">
    <!-- absolute targets -->
    <defs>
     <path d="M 56.203125 29.59375 
L 56.203125 25.203125 
L 14.890625 25.203125 
Q 15.484375 15.921875 20.484375 11.0625 
Q 25.484375 6.203125 34.421875 6.203125 
Q 39.59375 6.203125 44.453125 7.46875 
Q 49.3125 8.734375 54.109375 11.28125 
L 54.109375 2.78125 
Q 49.265625 0.734375 44.1875 -0.34375 
Q 39.109375 -1.421875 33.890625 -1.421875 
Q 20.796875 -1.421875 13.15625 6.1875 
Q 5.515625 13.8125 5.515625 26.8125 
Q 5.515625 40.234375 12.765625 48.109375 
Q 20.015625 56 32.328125 56 
Q 43.359375 56 49.78125 48.890625 
Q 56.203125 41.796875 56.203125 29.59375 
M 47.21875 32.234375 
Q 47.125 39.59375 43.09375 43.984375 
Q 39.0625 48.390625 32.421875 48.390625 
Q 24.90625 48.390625 20.390625 44.140625 
Q 15.875 39.890625 15.1875 32.171875 
z
" id="BitstreamVeraSans-Roman-65"/>
     <path d="M 8.5 21.578125 
L 8.5 54.6875 
L 17.484375 54.6875 
L 17.484375 21.921875 
Q 17.484375 14.15625 20.5 10.265625 
Q 23.53125 6.390625 29.59375 6.390625 
Q 36.859375 6.390625 41.078125 11.03125 
Q 45.3125 15.671875 45.3125 23.6875 
L 45.3125 54.6875 
L 54.296875 54.6875 
L 54.296875 0 
L 45.3125 0 
L 45.3125 8.40625 
Q 42.046875 3.421875 37.71875 1 
Q 33.40625 -1.421875 27.6875 -1.421875 
Q 18.265625 -1.421875 13.375 4.4375 
Q 8.5 10.296875 8.5 21.578125 
" id="BitstreamVeraSans-Roman-75"/>
     <path d="M 48.6875 27.296875 
Q 48.6875 37.203125 44.609375 42.84375 
Q 40.53125 48.484375 33.40625 48.484375 
Q 26.265625 48.484375 22.1875 42.84375 
Q 18.109375 37.203125 18.109375 27.296875 
Q 18.109375 17.390625 22.1875 11.75 
Q 26.265625 6.109375 33.40625 6.109375 
Q 40.53125 6.109375 44.609375 11.75 
Q 48.6875 17.390625 48.6875 27.296875 
M 18.109375 46.390625 
Q 20.953125 51.265625 25.265625 53.625 
Q 29.59375 56 35.59375 56 
Q 45.5625 56 51.78125 48.09375 
Q 58.015625 40.1875 58.015625 27.296875 
Q 58.015625 14.40625 51.78125 6.484375 
Q 45.5625 -1.421875 35.59375 -1.421875 
Q 29.59375 -1.421875 25.265625 0.953125 
Q 20.953125 3.328125 18.109375 8.203125 
L 18.109375 0 
L 9.078125 0 
L 9.078125 75.984375 
L 18.109375 75.984375 
z
" id="BitstreamVeraSans-Roman-62"/>
    </defs>
    <g transform="translate(67.3625 359.056342822)scale(0.14 -0.14)">
     <use xlink:href="#BitstreamVeraSans-Roman-61"/>
     <use x="61.279296875" xlink:href="#BitstreamVeraSans-Roman-62"/>
     <use x="124.755859375" xlink:href="#BitstreamVeraSans-Roman-73"/>
     <use x="176.85546875" xlink:href="#BitstreamVeraSans-Roman-6f"/>
     <use x="238.037109375" xlink:href="#BitstreamVeraSans-Roman-6c"/>
     <use x="265.8203125" xlink:href="#BitstreamVeraSans-Roman-75"/>
     <use x="329.19921875" xlink:href="#BitstreamVeraSans-Roman-74"/>
     <use x="368.408203125" xlink:href="#BitstreamVeraSans-Roman-65"/>
     <use x="429.931640625" xlink:href="#BitstreamVeraSans-Roman-20"/>
     <use x="461.71875" xlink:href="#BitstreamVeraSans-Roman-74"/>
     <use x="500.927734375" xlink:href="#BitstreamVeraSans-Roman-61"/>
     <use x="562.20703125" xlink:href="#BitstreamVeraSans-Roman-72"/>
     <use x="603.3046875" xlink:href="#BitstreamVeraSans-Roman-67"/>
     <use x="666.78125" xlink:href="#BitstreamVeraSans-Roman-65"/>
     <use x="728.3046875" xlink:href="#BitstreamVeraSans-Roman-74"/>
     <use x="767.513671875" xlink:href="#BitstreamVeraSans-Roman-73"/>
    </g>
   </g>
   <g id="text_15">
    <!-- 1.2.1 -->
    <g style="fill:#808080;" transform="translate(277.840625 353.520655322)scale(0.1 -0.1)">
     <use xlink:href="#BitstreamVeraSans-Roman-31"/>
     <use x="63.623046875" xlink:href="#BitstreamVeraSans-Roman-2e"/>
     <use x="95.41015625" xlink:href="#BitstreamVeraSans-Roman-32"/>
     <use x="159.033203125" xlink:href="#BitstreamVeraSans-Roman-2e"/>
     <use x="190.8203125" xlink:href="#BitstreamVeraSans-Roman-31"/>
    </g>
   </g>
   <g id="legend_1">
    <g id="patch_7">
     <path d="M 77.3625 146.881343 
L 214.584375 146.881343 
L 214.584375 23.456343 
L 77.3625 23.456343 
z
" style="fill:#ffffff;opacity:0.2;stroke:#000000;stroke-linejoin:miter;"/>
    </g>
    <g id="line2d_117">
     <path d="M 91.3625 39.653218 
L 119.3625 39.653218 
" style="fill:none;stroke:#000000;stroke-linecap:square;"/>
    </g>
    <g id="line2d_118"/>
    <g id="text_16">
     <!-- 1: 4/4 -->
     <defs>
      <path d="M 11.71875 12.40625 
L 22.015625 12.40625 
L 22.015625 0 
L 11.71875 0 
z
M 11.71875 51.703125 
L 22.015625 51.703125 
L 22.015625 39.3125 
L 11.71875 39.3125 
z
" id="BitstreamVeraSans-Roman-3a"/>
     </defs>
     <g transform="translate(141.3625 46.6532178218)scale(0.2 -0.2)">
      <use xlink:href="#BitstreamVeraSans-Roman-31"/>
      <use x="63.623046875" xlink:href="#BitstreamVeraSans-Roman-3a"/>
      <use x="97.314453125" xlink:href="#BitstreamVeraSans-Roman-20"/>
      <use x="129.1015625" xlink:href="#BitstreamVeraSans-Roman-34"/>
      <use x="192.724609375" xlink:href="#BitstreamVeraSans-Roman-2f"/>
      <use x="226.416015625" xlink:href="#BitstreamVeraSans-Roman-34"/>
     </g>
    </g>
    <g id="line2d_119">
     <path d="M 91.3625 69.009468 
L 119.3625 69.009468 
" style="fill:none;stroke:#00bfbf;stroke-linecap:square;"/>
    </g>
    <g id="line2d_120"/>
    <g id="text_17">
     <!-- -1: 3/4 -->
     <g transform="translate(141.3625 76.0094678218)scale(0.2 -0.2)">
      <use xlink:href="#BitstreamVeraSans-Roman-2d"/>
      <use x="36.083984375" xlink:href="#BitstreamVeraSans-Roman-31"/>
      <use x="99.70703125" xlink:href="#BitstreamVeraSans-Roman-3a"/>
      <use x="133.3984375" xlink:href="#BitstreamVeraSans-Roman-20"/>
      <use x="165.185546875" xlink:href="#BitstreamVeraSans-Roman-33"/>
      <use x="228.80859375" xlink:href="#BitstreamVeraSans-Roman-2f"/>
      <use x="262.5" xlink:href="#BitstreamVeraSans-Roman-34"/>
     </g>
    </g>
    <g id="line2d_121">
     <path d="M 91.3625 98.365718 
L 119.3625 98.365718 
" style="fill:none;stroke:#bf00bf;stroke-linecap:square;"/>
    </g>
    <g id="line2d_122"/>
    <g id="text_18">
     <!-- -4: 1/4 -->
     <g transform="translate(141.3625 105.365717822)scale(0.2 -0.2)">
      <use xlink:href="#BitstreamVeraSans-Roman-2d"/>
      <use x="36.083984375" xlink:href="#BitstreamVeraSans-Roman-34"/>
      <use x="99.70703125" xlink:href="#BitstreamVeraSans-Roman-3a"/>
      <use x="133.3984375" xlink:href="#BitstreamVeraSans-Roman-20"/>
      <use x="165.185546875" xlink:href="#BitstreamVeraSans-Roman-31"/>
      <use x="228.80859375" xlink:href="#BitstreamVeraSans-Roman-2f"/>
      <use x="262.5" xlink:href="#BitstreamVeraSans-Roman-34"/>
     </g>
    </g>
    <g id="line2d_123">
     <path d="M 91.3625 127.721968 
L 119.3625 127.721968 
" style="fill:none;stroke:#ff0000;stroke-linecap:square;stroke-width:3.0;"/>
    </g>
    <g id="line2d_124"/>
    <g id="text_19">
     <!-- -8: 0/4 -->
     <g transform="translate(141.3625 134.721967822)scale(0.2 -0.2)">
      <use xlink:href="#BitstreamVeraSans-Roman-2d"/>
      <use x="36.083984375" xlink:href="#BitstreamVeraSans-Roman-38"/>
      <use x="99.70703125" xlink:href="#BitstreamVeraSans-Roman-3a"/>
      <use x="133.3984375" xlink:href="#BitstreamVeraSans-Roman-20"/>
      <use x="165.185546875" xlink:href="#BitstreamVeraSans-Roman-30"/>
      <use x="228.80859375" xlink:href="#BitstreamVeraSans-Roman-2f"/>
      <use x="262.5" xlink:href="#BitstreamVeraSans-Roman-34"/>
     </g>
    </g>
   </g>
  </g>
 </g>
 <defs>
  <clipPath id="p69c28ac8b9">
   <rect height="345.6" width="446.4" x="67.3625" y="13.4563428218"/>
  </clipPath>
 </defs>
</svg>
