<?xml version="1.0" encoding="utf-8" standalone="no"?>
<!DOCTYPE svg PUBLIC "-//W3C//DTD SVG 1.1//EN"
  "http://www.w3.org/Graphics/SVG/1.1/DTD/svg11.dtd">
<!-- Created with matplotlib (http://matplotlib.org/) -->
<svg height="432pt" version="1.1" viewBox="0 0 543 432" width="543pt" xmlns="http://www.w3.org/2000/svg" xmlns:xlink="http://www.w3.org/1999/xlink">
 <defs>
  <style type="text/css">
*{stroke-linecap:butt;stroke-linejoin:round;}
  </style>
 </defs>
 <g id="figure_1">
  <g id="patch_1">
   <path d="
M0 432.436
L543.192 432.436
L543.192 0
L0 0
z
" style="fill:#ffffff;"/>
  </g>
  <g id="axes_1">
   <g id="patch_2">
    <path d="
M89.5917 376.036
L535.992 376.036
L535.992 30.4362
L89.5917 30.4362
z
" style="fill:#ffffff;"/>
   </g>
   <g id="line2d_1">
    <defs>
     <path d="
M0 1.5
C0.397805 1.5 0.77937 1.34195 1.06066 1.06066
C1.34195 0.77937 1.5 0.397805 1.5 0
C1.5 -0.397805 1.34195 -0.77937 1.06066 -1.06066
C0.77937 -1.34195 0.397805 -1.5 0 -1.5
C-0.397805 -1.5 -0.77937 -1.34195 -1.06066 -1.06066
C-1.34195 -0.77937 -1.5 -0.397805 -1.5 0
C-1.5 0.397805 -1.34195 0.77937 -1.06066 1.06066
C-0.77937 1.34195 -0.397805 1.5 0 1.5
z
" id="m977c291b42" style="stroke:#00bfbf;stroke-width:0.5;"/>
    </defs>
    <g>
     <use style="fill:#00bfbf;stroke:#00bfbf;stroke-width:0.5;" x="402.235803396" xlink:href="#m977c291b42" y="33.8580321782"/>
     <use style="fill:#00bfbf;stroke:#00bfbf;stroke-width:0.5;" x="402.235803396" xlink:href="#m977c291b42" y="33.8580321782"/>
    </g>
   </g>
   <g id="line2d_2">
    <path d="
M74.1101 376.036
L74.1101 355.908
L89.5917 355.908
L89.5917 340.477
L98.6478 340.477
L98.6478 333.767
L105.073 333.767
L105.073 330.412
L114.129 330.412
L114.129 329.071
L120.555 329.071
L120.555 327.729
L123.185 327.729
L123.185 327.058
L133.054 327.058
L133.054 322.361
L139.875 322.361
L139.875 320.348
L141.02 320.348
L141.02 312.968
L142.11 312.968
L142.11 312.297
L143.149 312.297
L143.149 308.272
L144.142 308.272
L144.142 307.601
L145.092 307.601
L145.092 306.93
L151.518 306.93
L151.518 306.259
L152.205 306.259
L152.205 305.588
L152.872 305.588
L152.872 304.246
L155.356 304.246
L155.356 302.233
L159.623 302.233
L159.623 300.891
L162.362 300.891
L162.362 300.22
L164.801 300.22
L164.801 298.207
L166.648 298.207
L166.648 292.84
L167.346 292.84
L167.346 286.802
L168.023 286.802
L168.023 285.46
L171.418 285.46
L171.418 284.118
L180.089 284.118
L180.089 280.092
L183.999 280.092
L183.999 278.75
L184.956 278.75
L184.956 276.067
L186.466 276.067
L186.466 272.712
L186.756 272.712
L186.756 272.041
L206.309 272.041
L206.309 270.699
L213.137 270.699
L213.137 270.028
L222.354 270.028
L222.354 268.686
L228.306 268.686
L228.306 268.015
L228.882 268.015
L228.882 267.344
L231.244 267.344
L231.244 266.673
L233.962 266.673
L233.962 266.002
L236.244 266.002
L236.244 265.332
L236.802 265.332
L236.802 263.99
L237.212 263.99
L237.212 262.648
L238.471 262.648
L238.471 261.306
L244.85 261.306
L244.85 260.635
L246.468 260.635
L246.468 259.293
L246.587 259.293
L246.587 258.622
L247.922 258.622
L247.922 257.28
L248.291 257.28
L248.291 255.938
L249.048 255.938
L249.048 255.267
L250.027 255.267
L250.027 253.926
L250.663 253.926
L250.663 252.584
L251.567 252.584
L251.567 251.913
L252.421 251.913
L252.421 251.242
L253.082 251.242
L253.082 250.571
L255.853 250.571
L255.853 249.9
L259.592 249.9
L259.592 249.229
L260.734 249.229
L260.734 248.558
L261.599 248.558
L261.599 247.887
L262.679 247.887
L262.679 247.216
L264.925 247.216
L264.925 245.874
L265.055 245.874
L265.055 245.203
L266.255 245.203
L266.255 244.532
L266.524 244.532
L266.524 243.862
L266.746 243.862
L266.746 243.191
L268.422 243.191
L268.422 242.52
L269.216 242.52
L269.216 241.849
L269.558 241.849
L269.558 241.178
L270.182 241.178
L270.182 240.507
L274.457 240.507
L274.457 239.836
L274.966 239.836
L274.966 238.494
L275.313 238.494
L275.313 237.152
L276.781 237.152
L276.781 236.481
L277.207 236.481
L277.309 235.139
L277.62 235.139
L277.62 234.468
L278.148 234.468
L278.148 233.797
L279.616 233.797
L279.616 233.127
L280.519 233.127
L280.58 230.443
L280.901 230.443
L280.901 229.772
L281.262 229.772
L281.262 229.101
L281.982 229.101
L281.982 227.759
L282.489 227.759
L282.489 227.088
L283.768 227.088
L283.768 226.417
L283.932 226.417
L284.017 224.404
L284.054 224.404
L284.054 222.392
L286.189 222.392
L286.227 220.379
L287.036 220.379
L287.036 219.708
L287.309 219.708
L287.309 219.037
L287.527 219.037
L287.527 217.695
L290.143 217.695
L290.211 215.011
L290.768 215.011
L290.768 214.34
L291.432 214.34
L291.454 212.998
L293.555 212.998
L293.555 212.327
L294.618 212.327
L294.618 210.986
L295.257 210.986
L295.257 209.644
L296.597 209.644
L296.597 208.973
L297.346 208.973
L297.346 208.302
L346.735 208.302
L346.829 167.375
L346.893 167.375
L346.941 162.007
L347.035 162.007
L347.06 157.982
L347.181 157.982
L347.247 156.64
L347.3 156.64
L347.335 155.298
L347.512 155.298
L347.615 153.285
L347.629 153.285
L347.734 148.588
L347.749 148.588
L347.858 145.905
L347.88 145.905
L347.959 143.221
L348.013 143.221
L348.066 140.537
L348.131 140.537
L348.226 135.841
L348.244 135.841
L348.244 135.17
L348.421 135.17
L348.421 133.828
L348.538 133.828
L348.538 133.157
L348.71 133.157
L348.71 132.486
L348.859 132.486
L348.859 131.815
L349.243 131.815
L349.243 130.473
L362.216 130.473
L362.32 112.358
L362.332 112.358
L362.379 106.99
L362.511 106.99
L362.608 101.623
L362.659 101.623
L362.729 97.5971
L362.796 97.5971
L362.881 93.5715
L362.948 93.5715
L362.948 92.9005
L363.088 92.9005
L363.088 90.8877
L363.407 90.8877
L363.407 90.2168
L371.272 90.2168
L371.35 79.4818
L371.399 79.4818
L371.506 74.7852
L371.513 74.7852
L371.61 71.4305
L371.637 71.4305
L371.707 68.7468
L371.89 68.7468
L371.89 68.0759
L372.14 68.0759
L372.14 67.4049
L377.698 67.4049
L377.758 59.3537
L377.825 59.3537
L377.913 57.3409
L377.945 57.3409
L378.01 55.328
L378.282 55.328
L378.282 54.6571
L382.683 54.6571
L382.771 49.2896
L382.83 49.2896
L382.932 47.9477
L382.954 47.9477
L383.008 46.6058
L386.754 46.6058
L386.799 43.9221
L386.9 43.9221
L386.9 43.2512
L387.047 43.2512
L387.047 42.5802
L390.197 42.5802
L390.199 41.2383
L393.179 41.2383
L393.217 38.5546
L395.81 38.5546
L395.81 37.8837
L395.969 37.8837
L395.969 37.2127
L398.212 37.2127
L398.247 35.8708
L400.364 35.8708
L400.382 34.529
L402.236 34.529
L402.236 33.858
L449.592 33.858
L449.592 33.858" style="fill:none;stroke:#00bfbf;stroke-linecap:square;stroke-width:1.5;"/>
   </g>
   <g id="line2d_3">
    <defs>
     <path d="
M-6 0
L6 0
M0 6
L0 -6" id="m3e4de746de" style="stroke:#00bfbf;stroke-width:1.5;"/>
    </defs>
    <g>
     <use style="fill:none;stroke:#00bfbf;stroke-width:1.5;" x="222.354233158" xlink:href="#m3e4de746de" y="270.028096243"/>
     <use style="fill:none;stroke:#00bfbf;stroke-width:1.5;" x="297.346208626" xlink:href="#m3e4de746de" y="208.972767181"/>
     <use style="fill:none;stroke:#00bfbf;stroke-width:1.5;" x="362.236818506" xlink:href="#m3e4de746de" y="117.725242429"/>
     <use style="fill:none;stroke:#00bfbf;stroke-width:1.5;" x="402.235803396" xlink:href="#m3e4de746de" y="33.8580321782"/>
     <use style="fill:none;stroke:#00bfbf;stroke-width:1.5;" x="402.235803396" xlink:href="#m3e4de746de" y="33.8580321782"/>
     <use style="fill:none;stroke:#00bfbf;stroke-width:1.5;" x="449.591656697" xlink:href="#m3e4de746de" y="33.8580321782"/>
    </g>
   </g>
   <g id="line2d_4"/>
   <g id="line2d_5">
    <path clip-path="url(#p6a1853dde3)" d="
M346.735 208.302" style="fill:none;stroke:#00bfbf;stroke-linecap:square;"/>
    <defs>
     <path d="
M-12 12
L12 -12
M-12 -12
L12 12" id="m09e435d1d9" style="stroke:#00bfbf;stroke-width:3;"/>
    </defs>
    <g clip-path="url(#p6a1853dde3)">
     <use style="fill:#00bfbf;stroke:#00bfbf;stroke-width:3;" x="346.73451384" xlink:href="#m09e435d1d9" y="208.301829499"/>
    </g>
   </g>
   <g id="line2d_6">
    <defs>
     <path d="
M0 1.5
C0.397805 1.5 0.77937 1.34195 1.06066 1.06066
C1.34195 0.77937 1.5 0.397805 1.5 0
C1.5 -0.397805 1.34195 -0.77937 1.06066 -1.06066
C0.77937 -1.34195 0.397805 -1.5 0 -1.5
C-0.397805 -1.5 -0.77937 -1.34195 -1.06066 -1.06066
C-1.34195 -0.77937 -1.5 -0.397805 -1.5 0
C-1.5 0.397805 -1.34195 0.77937 -1.06066 1.06066
C-0.77937 1.34195 -0.397805 1.5 0 1.5
z
" id="mb0b177905e" style="stroke:#008000;stroke-width:0.5;"/>
    </defs>
    <g>
     <use style="fill:#008000;stroke:#008000;stroke-width:0.5;" x="407.291550051" xlink:href="#mb0b177905e" y="33.8580321782"/>
     <use style="fill:#008000;stroke:#008000;stroke-width:0.5;" x="407.291550051" xlink:href="#mb0b177905e" y="33.8580321782"/>
    </g>
   </g>
   <g id="line2d_7">
    <path d="
M65.054 376.036
L65.054 370.669
L80.5355 370.669
L80.5355 367.985
L89.5917 367.985
L89.5917 362.617
L96.0171 362.617
L96.0171 361.947
L101.001 361.947
L101.001 359.934
L105.073 359.934
L105.073 357.25
L114.129 357.25
L114.129 352.553
L116.483 352.553
L116.483 347.857
L128.334 347.857
L128.334 344.502
L130.818 344.502
L130.818 343.831
L136.036 343.831
L136.036 343.16
L137.824 343.16
L137.824 341.147
L144.463 341.147
L144.463 340.477
L145.704 340.477
L145.704 339.806
L146.3 339.806
L146.3 338.464
L147.446 338.464
L147.446 337.793
L151.518 337.793
L151.518 333.767
L154.149 333.767
L154.149 333.096
L154.961 333.096
L154.961 330.412
L161.782 330.412
L161.782 329.071
L163.479 329.071
L163.479 326.387
L163.749 326.387
L163.749 324.374
L165.308 324.374
L165.308 323.703
L166.049 323.703
L166.049 321.69
L167.911 321.69
L167.911 319.677
L168.571 319.677
L168.571 318.336
L169.001 318.336
L169.001 314.981
L169.213 314.981
L169.213 311.626
L169.63 311.626
L169.63 310.284
L174.779 310.284
L174.779 308.272
L175.266 308.272
L175.266 307.601
L177.555 307.601
L177.555 306.93
L177.843 306.93
L177.843 306.259
L181.163 306.259
L181.163 305.588
L184.269 305.588
L184.269 304.246
L184.799 304.246
L184.799 303.575
L186.995 303.575
L186.995 302.904
L187.184 302.904
L187.184 300.22
L187.372 300.22
L187.372 298.207
L188.197 298.207
L188.197 297.537
L188.377 297.537
L188.377 296.195
L188.906 296.195
L188.906 294.182
L193.539 294.182
L193.609 291.498
L195.892 291.498
L195.892 290.827
L197.373 290.827
L197.373 290.156
L202.618 290.156
L202.618 289.485
L204.036 289.485
L204.036 288.814
L209.58 288.814
L209.615 287.472
L209.855 287.472
L209.855 283.447
L211.02 283.447
L211.02 282.105
L212.064 282.105
L212.064 281.434
L213.003 281.434
L213.003 280.092
L213.357 280.092
L213.357 278.75
L215.339 278.75
L215.339 277.408
L215.472 277.408
L215.472 275.396
L217.356 275.396
L217.356 274.725
L219.782 274.725
L219.782 273.383
L219.913 273.383
L219.913 271.37
L220.62 271.37
L220.62 270.699
L224.888 270.699
L224.888 270.028
L225.354 270.028
L225.354 268.686
L227.406 268.686
L227.406 268.015
L227.746 268.015
L227.746 267.344
L228.156 267.344
L228.156 266.673
L229.949 266.673
L229.949 266.002
L230.47 266.002
L230.47 265.332
L233.968 265.332
L233.968 263.99
L234.664 263.99
L234.664 263.319
L236.623 263.319
L236.623 261.977
L237.63 261.977
L237.63 260.635
L240.997 260.635
L240.997 259.964
L242.288 259.964
L242.288 259.293
L243.035 259.293
L243.035 257.951
L245.165 257.951
L245.165 257.28
L246.094 257.28
L246.094 255.938
L246.501 255.938
L246.501 255.267
L247.327 255.267
L247.327 254.597
L247.831 254.597
L247.831 253.926
L248.178 253.926
L248.178 252.584
L250.067 252.584
L250.067 251.913
L250.275 251.913
L250.275 250.571
L251.361 250.571
L251.361 249.9
L252.053 249.9
L252.094 247.216
L252.217 247.216
L252.217 245.874
L253.283 245.874
L253.283 244.532
L255.676 244.532
L255.676 243.862
L256.66 243.862
L256.66 243.191
L259.006 243.191
L259.006 241.849
L261.043 241.849
L261.043 241.178
L261.461 241.178
L261.461 240.507
L262.516 240.507
L262.516 239.836
L263.623 239.836
L263.623 239.165
L263.767 239.165
L263.767 237.823
L265.262 237.823
L265.262 237.152
L266.341 237.152
L266.341 235.81
L266.783 235.81
L266.783 234.468
L267.144 234.468
L267.201 233.127
L267.827 233.127
L267.827 231.785
L268.813 231.785
L268.813 231.114
L270.835 231.114
L270.835 230.443
L271.764 230.443
L271.764 229.101
L273.843 229.101
L273.843 228.43
L274.526 228.43
L274.526 227.759
L275.29 227.759
L275.29 227.088
L276.366 227.088
L276.366 225.746
L277.017 225.746
L277.017 225.075
L277.742 225.075
L277.742 224.404
L278.685 224.404
L278.685 222.392
L280.267 222.392
L280.267 220.379
L280.554 220.379
L280.554 219.708
L281.937 219.708
L281.937 219.037
L282.555 219.037
L282.555 218.366
L283.269 218.366
L283.269 217.695
L284.635 217.695
L284.635 217.024
L289.957 217.024
L289.957 215.011
L291.3 215.011
L291.3 214.34
L346.735 214.34
L346.841 182.806
L346.871 182.806
L346.962 176.097
L346.99 176.097
L347.055 171.4
L347.127 171.4
L347.197 168.046
L347.243 168.046
L347.349 164.02
L347.406 164.02
L347.5 161.336
L347.524 161.336
L347.628 158.652
L347.796 158.652
L347.796 157.982
L347.93 157.982
L348.001 156.64
L348.186 156.64
L348.186 155.969
L348.326 155.969
L348.427 153.956
L348.527 153.956
L348.527 153.285
L362.216 153.285
L362.3 130.473
L362.399 130.473
L362.506 124.435
L362.531 124.435
L362.609 121.08
L362.667 121.08
L362.753 118.396
L362.8 118.396
L362.8 116.383
L362.954 116.383
L362.954 115.712
L363.13 115.712
L363.13 115.041
L371.274 115.041
L371.37 102.294
L371.385 102.294
L371.489 98.268
L371.52 98.268
L371.574 96.2552
L371.632 96.2552
L371.702 93.5715
L371.851 93.5715
L371.851 92.9005
L377.7 92.9005
L377.807 77.469
L377.833 77.469
L377.931 74.1143
L377.961 74.1143
L378.069 71.4305
L382.682 71.4305
L382.728 63.3793
L382.857 63.3793
L382.933 59.3537
L386.758 59.3537
L386.867 50.6315
L386.878 50.6315
L386.97 49.2896
L390.198 49.2896
L390.259 43.2512
L390.407 43.2512
L390.407 42.5802
L393.179 42.5802
L393.209 39.2255
L393.371 39.2255
L393.371 38.5546
L395.81 38.5546
L395.852 36.5418
L400.364 36.5418
L400.364 35.8708
L402.286 35.8708
L402.286 35.1999
L405.689 35.1999
L405.689 34.529
L407.292 34.529
L407.292 33.858
L449.592 33.858
L449.592 33.858" style="fill:none;stroke:#008000;stroke-linecap:square;stroke-width:1.5;"/>
   </g>
   <g id="line2d_8">
    <defs>
     <path d="
M-7.34788e-16 6
L6 -6
L-6 -6
z
" id="m397e16cd68" style="stroke:#008000;stroke-linejoin:miter;stroke-width:1.5;"/>
    </defs>
    <g>
     <use style="fill:none;stroke:#008000;stroke-linejoin:miter;stroke-width:1.5;" x="181.163176019" xlink:href="#m397e16cd68" y="305.58779339"/>
     <use style="fill:none;stroke:#008000;stroke-linejoin:miter;stroke-width:1.5;" x="281.936916791" xlink:href="#m397e16cd68" y="219.036832411"/>
     <use style="fill:none;stroke:#008000;stroke-linejoin:miter;stroke-width:1.5;" x="371.274808797" xlink:href="#m397e16cd68" y="113.699616337"/>
     <use style="fill:none;stroke:#008000;stroke-linejoin:miter;stroke-width:1.5;" x="407.291550051" xlink:href="#m397e16cd68" y="33.8580321782"/>
     <use style="fill:none;stroke:#008000;stroke-linejoin:miter;stroke-width:1.5;" x="407.291550051" xlink:href="#m397e16cd68" y="33.8580321782"/>
     <use style="fill:none;stroke:#008000;stroke-linejoin:miter;stroke-width:1.5;" x="449.591656697" xlink:href="#m397e16cd68" y="33.8580321782"/>
    </g>
   </g>
   <g id="line2d_9"/>
   <g id="line2d_10">
    <path clip-path="url(#p6a1853dde3)" d="
M346.735 214.34" style="fill:none;stroke:#008000;stroke-linecap:square;"/>
    <defs>
     <path d="
M-12 12
L12 -12
M-12 -12
L12 12" id="m8c089fa6cd" style="stroke:#008000;stroke-width:3;"/>
    </defs>
    <g clip-path="url(#p6a1853dde3)">
     <use style="fill:#008000;stroke:#008000;stroke-width:3;" x="346.73451384" xlink:href="#m8c089fa6cd" y="214.340268637"/>
    </g>
   </g>
   <g id="line2d_11">
    <defs>
     <path d="
M0 1.5
C0.397805 1.5 0.77937 1.34195 1.06066 1.06066
C1.34195 0.77937 1.5 0.397805 1.5 0
C1.5 -0.397805 1.34195 -0.77937 1.06066 -1.06066
C0.77937 -1.34195 0.397805 -1.5 0 -1.5
C-0.397805 -1.5 -0.77937 -1.34195 -1.06066 -1.06066
C-1.34195 -0.77937 -1.5 -0.397805 -1.5 0
C-1.5 0.397805 -1.34195 0.77937 -1.06066 1.06066
C-0.77937 1.34195 -0.397805 1.5 0 1.5
z
" id="m76a7ce5b4a" style="stroke:#0000ff;stroke-width:0.5;"/>
    </defs>
    <g>
     <use style="fill:#0000ff;stroke:#0000ff;stroke-width:0.5;" x="427.406944449" xlink:href="#m76a7ce5b4a" y="33.8580321782"/>
     <use style="fill:#0000ff;stroke:#0000ff;stroke-width:0.5;" x="427.406944449" xlink:href="#m76a7ce5b4a" y="33.8580321782"/>
    </g>
   </g>
   <g id="line2d_12">
    <path d="
M53.6446 376.036
L53.6446 372.011
L69.1262 372.011
L69.1262 368.656
L84.6077 368.656
L84.6077 367.314
L107.202 367.314
L107.202 366.643
L109.145 366.643
L109.145 365.972
L122.684 365.972
L122.684 363.959
L124.627 363.959
L124.627 363.288
L126.415 363.288
L126.415 362.617
L127.258 362.617
L127.258 361.947
L129.611 361.947
L129.611 360.605
L131.74 360.605
L131.74 354.566
L132.406 354.566
L132.406 353.895
L133.683 353.895
L133.683 353.224
L146.182 353.224
L146.182 352.553
L146.88 352.553
L146.88 351.212
L149.473 351.212
L149.473 350.541
L152.069 350.541
L152.069 349.199
L156.724 349.199
L156.724 348.528
L157.803 348.528
L157.803 347.857
L159.033 347.857
L159.033 346.515
L159.428 346.515
L159.428 344.502
L160.759 344.502
L160.759 343.16
L162.362 343.16
L162.362 342.489
L167.551 342.489
L167.551 341.818
L170.482 341.818
L170.482 338.464
L170.838 338.464
L170.838 337.793
L172.535 337.793
L172.535 337.122
L177.584 337.122
L177.584 335.78
L182.62 335.78
L182.62 335.109
L184.61 335.109
L184.61 334.438
L186.26 334.438
L186.26 333.767
L186.899 333.767
L186.899 333.096
L190.293 333.096
L190.293 332.425
L193.368 332.425
L193.368 329.742
L194.209 329.742
L194.209 329.071
L195.841 329.071
L195.841 327.058
L199.448 327.058
L199.448 326.387
L203.279 326.387
L203.279 325.716
L208.956 325.716
L208.956 324.374
L210.181 324.374
L210.181 322.361
L212.353 322.361
L212.353 321.69
L212.627 321.69
L212.627 319.677
L218.386 319.677
L218.386 319.007
L220.519 319.007
L220.519 318.336
L224.352 318.336
L224.352 317.665
L224.776 317.665
L224.776 316.994
L225.459 316.994
L225.459 316.323
L232.341 316.323
L232.341 315.652
L236.272 315.652
L236.272 314.981
L237.104 314.981
L237.104 314.31
L238.692 314.31
L238.692 313.639
L239.319 313.639
L239.319 312.297
L240.874 312.297
L240.874 310.955
L242.694 310.955
L242.727 308.942
L245.555 308.942
L245.555 308.272
L249.237 308.272
L249.237 307.601
L249.398 307.601
L249.398 306.93
L252.136 306.93
L252.136 306.259
L253.599 306.259
L253.599 304.917
L254.724 304.917
L254.724 304.246
L256.343 304.246
L256.343 303.575
L258.05 303.575
L258.05 302.904
L258.93 302.904
L258.93 302.233
L260.853 302.233
L260.853 301.562
L263.698 301.562
L263.698 300.891
L265.529 300.891
L265.529 300.22
L267.238 300.22
L267.238 299.549
L267.741 299.549
L267.741 298.207
L269.247 298.207
L269.247 297.537
L269.802 297.537
L269.802 296.866
L270.583 296.866
L270.583 296.195
L270.986 296.195
L270.986 295.524
L272.097 295.524
L272.097 294.853
L272.877 294.853
L272.877 293.511
L273.579 293.511
L273.579 292.84
L274.842 292.84
L274.842 292.169
L275.03 292.169
L275.03 291.498
L275.57 291.498
L275.57 290.827
L275.862 290.827
L275.862 290.156
L277.508 290.156
L277.508 288.814
L278.165 288.814
L278.165 288.143
L278.615 288.143
L278.615 286.802
L346.736 286.802
L346.846 274.054
L346.887 274.054
L346.991 270.028
L347.002 270.028
L347.077 267.344
L347.116 267.344
L347.116 265.332
L347.249 265.332
L347.316 262.648
L347.361 262.648
L347.468 259.293
L347.474 259.293
L347.474 258.622
L347.611 258.622
L347.611 257.951
L347.768 257.951
L347.874 256.609
L347.979 256.609
L347.979 255.938
L362.217 255.938
L362.313 239.836
L362.33 239.836
L362.433 235.81
L362.475 235.81
L362.582 229.772
L362.589 229.772
L362.679 223.062
L362.7 223.062
L362.769 220.379
L362.847 220.379
L362.847 219.037
L371.28 219.037
L371.367 206.289
L371.402 206.289
L371.488 200.251
L371.524 200.251
L371.578 194.212
L371.642 194.212
L371.695 192.87
L377.703 192.87
L377.807 181.464
L377.817 181.464
L377.92 174.084
L377.93 174.084
L377.955 171.4
L382.686 171.4
L382.79 157.982
L382.799 157.982
L382.904 151.272
L382.936 151.272
L382.936 150.601
L386.758 150.601
L386.859 140.537
L386.871 140.537
L386.943 133.828
L390.203 133.828
L390.284 125.106
L390.328 125.106
L390.379 121.751
L393.186 121.751
L393.296 111.687
L393.319 111.687
L393.321 110.345
L395.812 110.345
L395.914 104.306
L395.936 104.306
L395.936 102.965
L398.169 102.965
L398.28 92.9005
L400.295 92.9005
L400.388 84.1784
L402.257 84.1784
L402.312 80.8237
L404.025 80.8237
L404.089 74.7852
L405.68 74.7852
L405.742 70.7596
L407.222 70.7596
L407.281 62.7084
L408.673 62.7084
L408.741 60.0246
L410.026 60.0246
L410.07 56.6699
L411.293 56.6699
L411.337 53.9862
L412.502 53.9862
L412.511 52.6443
L413.646 52.6443
L413.684 49.2896
L414.773 49.2896
L414.778 47.9477
L415.776 47.9477
L415.815 45.9349
L416.767 45.9349
L416.792 43.2512
L417.726 43.2512
L417.752 41.2383
L418.646 41.2383
L418.646 40.5674
L419.521 40.5674
L419.521 39.8965
L421.167 39.8965
L421.188 37.8837
L421.958 37.8837
L421.962 36.5418
L422.729 36.5418
L422.729 35.8708
L426.154 35.8708
L426.154 35.1999
L426.774 35.1999
L426.774 34.529
L427.407 34.529
L427.407 33.858
L449.592 33.858
L449.592 33.858" style="fill:none;stroke:#0000ff;stroke-linecap:square;stroke-width:1.5;"/>
   </g>
   <g id="line2d_13">
    <defs>
     <path d="
M3.67394e-16 -6
L-1.34708 -1.8541
L-5.70634 -1.8541
L-2.17963 0.708204
L-3.52671 4.8541
L-4.20996e-16 2.2918
L3.52671 4.8541
L2.17963 0.708204
L5.70634 -1.8541
L1.34708 -1.8541
z
" id="m0933169453" style="stroke:#0000ff;stroke-linejoin:bevel;stroke-width:1.5;"/>
    </defs>
    <g>
     <use style="fill:none;stroke:#0000ff;stroke-linejoin:bevel;stroke-width:1.5;" x="162.361714593" xlink:href="#m0933169453" y="343.160303582"/>
     <use style="fill:none;stroke:#0000ff;stroke-linejoin:bevel;stroke-width:1.5;" x="272.877137095" xlink:href="#m0933169453" y="294.852790478"/>
     <use style="fill:none;stroke:#0000ff;stroke-linejoin:bevel;stroke-width:1.5;" x="347.979290097" xlink:href="#m0933169453" y="255.938404921"/>
     <use style="fill:none;stroke:#0000ff;stroke-linejoin:bevel;stroke-width:1.5;" x="393.321231708" xlink:href="#m0933169453" y="111.015865609"/>
     <use style="fill:none;stroke:#0000ff;stroke-linejoin:bevel;stroke-width:1.5;" x="427.406944449" xlink:href="#m0933169453" y="33.8580321782"/>
     <use style="fill:none;stroke:#0000ff;stroke-linejoin:bevel;stroke-width:1.5;" x="449.591656697" xlink:href="#m0933169453" y="33.8580321782"/>
    </g>
   </g>
   <g id="line2d_14"/>
   <g id="line2d_15">
    <path clip-path="url(#p6a1853dde3)" d="
M346.735 286.802" style="fill:none;stroke:#0000ff;stroke-linecap:square;"/>
    <defs>
     <path d="
M-12 12
L12 -12
M-12 -12
L12 12" id="ma4a355cd2c" style="stroke:#0000ff;stroke-width:3;"/>
    </defs>
    <g clip-path="url(#p6a1853dde3)">
     <use style="fill:#0000ff;stroke:#0000ff;stroke-width:3;" x="346.73451384" xlink:href="#ma4a355cd2c" y="286.801538294"/>
    </g>
   </g>
   <g id="line2d_16">
    <defs>
     <path d="
M0 1.5
C0.397805 1.5 0.77937 1.34195 1.06066 1.06066
C1.34195 0.77937 1.5 0.397805 1.5 0
C1.5 -0.397805 1.34195 -0.77937 1.06066 -1.06066
C0.77937 -1.34195 0.397805 -1.5 0 -1.5
C-0.397805 -1.5 -0.77937 -1.34195 -1.06066 -1.06066
C-1.34195 -0.77937 -1.5 -0.397805 -1.5 0
C-1.5 0.397805 -1.34195 0.77937 -1.06066 1.06066
C-0.77937 1.34195 -0.397805 1.5 0 1.5
z
" id="m66763a63fb" style="stroke:#000000;stroke-width:0.5;"/>
    </defs>
    <g>
     <use style="stroke:#000000;stroke-width:0.5;" x="426.773428839" xlink:href="#m66763a63fb" y="302.23310498"/>
     <use style="stroke:#000000;stroke-width:0.5;" x="426.773428839" xlink:href="#m66763a63fb" y="302.23310498"/>
    </g>
   </g>
   <g id="line2d_17">
    <path d="
M38.1631 376.036
L38.1631 372.682
L53.6446 372.682
L53.6446 371.34
L62.7007 371.34
L62.7007 370.669
L69.1262 370.669
L69.1262 369.327
L143.551 369.327
L143.551 367.985
L156.164 367.985
L156.164 367.314
L157.485 367.314
L157.485 366.643
L158.427 366.643
L158.427 365.972
L158.732 365.972
L158.732 365.301
L160.199 365.301
L160.199 364.63
L164.412 364.63
L164.412 363.959
L164.646 363.959
L164.646 363.288
L165.632 363.288
L165.632 362.617
L168.615 362.617
L168.615 361.947
L169.255 361.947
L169.255 360.605
L170.482 360.605
L170.542 359.263
L171.702 359.263
L171.702 357.921
L172.15 357.921
L172.261 355.237
L174.415 355.237
L174.415 353.895
L174.91 353.895
L174.91 353.224
L175.633 353.224
L175.633 351.882
L175.962 351.882
L175.962 351.212
L179.055 351.212
L179.055 350.541
L179.218 350.541
L179.218 348.528
L179.972 348.528
L179.972 347.857
L181.335 347.857
L181.335 347.186
L181.627 347.186
L181.627 345.844
L182.998 345.844
L182.998 345.173
L183.999 345.173
L183.999 344.502
L184.419 344.502
L184.419 343.16
L186.053 343.16
L186.053 342.489
L187.014 342.489
L187.014 341.147
L187.659 341.147
L187.659 339.806
L189.184 339.806
L189.184 338.464
L190.17 338.464
L190.219 336.451
L190.44 336.451
L190.44 335.109
L192.957 335.109
L192.957 334.438
L194.598 334.438
L194.598 333.767
L195.04 333.767
L195.04 332.425
L198.05 332.425
L198.05 331.754
L213.039 331.754
L213.039 330.412
L346.744 330.412
L346.769 321.69
L362.223 321.69
L362.229 318.336
L371.277 318.336
L371.279 316.323
L377.7 316.323
L377.702 314.31
L382.686 314.31
L382.686 313.639
L386.757 313.639
L386.757 312.968
L390.199 312.968
L390.199 311.626
L393.181 311.626
L393.182 308.942
L395.812 308.942
L395.812 307.601
L398.165 307.601
L398.165 306.93
L400.294 306.93
L400.294 306.259
L405.68 306.259
L405.68 304.917
L412.5 304.917
L412.5 303.575
L418.629 303.575
L418.629 302.904
L426.773 302.904
L426.773 302.233
L449.592 302.233
L449.592 302.233" style="fill:none;stroke:#000000;stroke-linecap:square;stroke-width:1.5;"/>
   </g>
   <g id="line2d_18">
    <defs>
     <path d="
M0 6
C1.59122 6 3.11748 5.3678 4.24264 4.24264
C5.3678 3.11748 6 1.59122 6 0
C6 -1.59122 5.3678 -3.11748 4.24264 -4.24264
C3.11748 -5.3678 1.59122 -6 0 -6
C-1.59122 -6 -3.11748 -5.3678 -4.24264 -4.24264
C-5.3678 -3.11748 -6 -1.59122 -6 0
C-6 1.59122 -5.3678 3.11748 -4.24264 4.24264
C-3.11748 5.3678 -1.59122 6 0 6
z
" id="ma42492ef9b" style="stroke:#000000;stroke-width:1.5;"/>
    </defs>
    <g>
     <use style="fill:none;stroke:#000000;stroke-width:1.5;" x="69.1261705366" xlink:href="#ma42492ef9b" y="370.668748544"/>
     <use style="fill:none;stroke:#000000;stroke-width:1.5;" x="195.039758447" xlink:href="#ma42492ef9b" y="332.42530067"/>
     <use style="fill:none;stroke:#000000;stroke-width:1.5;" x="213.039013612" xlink:href="#ma42492ef9b" y="330.412487624"/>
     <use style="fill:none;stroke:#000000;stroke-width:1.5;" x="382.685839503" xlink:href="#ma42492ef9b" y="314.309983256"/>
     <use style="fill:none;stroke:#000000;stroke-width:1.5;" x="426.773428839" xlink:href="#ma42492ef9b" y="302.23310498"/>
     <use style="fill:none;stroke:#000000;stroke-width:1.5;" x="449.591656697" xlink:href="#ma42492ef9b" y="302.23310498"/>
    </g>
   </g>
   <g id="line2d_19"/>
   <g id="line2d_20">
    <path clip-path="url(#p6a1853dde3)" d="
M346.735 330.412" style="fill:none;stroke:#000000;stroke-linecap:square;"/>
    <defs>
     <path d="
M-12 12
L12 -12
M-12 -12
L12 12" id="m47417b404f" style="stroke:#000000;stroke-width:3;"/>
    </defs>
    <g clip-path="url(#p6a1853dde3)">
     <use style="stroke:#000000;stroke-width:3;" x="346.73451384" xlink:href="#m47417b404f" y="330.412487624"/>
    </g>
   </g>
   <g id="line2d_21">
    <defs>
     <path d="
M0 1.5
C0.397805 1.5 0.77937 1.34195 1.06066 1.06066
C1.34195 0.77937 1.5 0.397805 1.5 0
C1.5 -0.397805 1.34195 -0.77937 1.06066 -1.06066
C0.77937 -1.34195 0.397805 -1.5 0 -1.5
C-0.397805 -1.5 -0.77937 -1.34195 -1.06066 -1.06066
C-1.34195 -0.77937 -1.5 -0.397805 -1.5 0
C-1.5 0.397805 -1.34195 0.77937 -1.06066 1.06066
C-0.77937 1.34195 -0.397805 1.5 0 1.5
z
" id="ma07bdd5909" style="stroke:#ff0000;stroke-width:0.5;"/>
    </defs>
    <g>
     <use style="fill:#ff0000;stroke:#ff0000;stroke-width:0.5;" x="426.144696554" xlink:href="#ma07bdd5909" y="302.23310498"/>
     <use style="fill:#ff0000;stroke:#ff0000;stroke-width:0.5;" x="426.144696554" xlink:href="#ma07bdd5909" y="302.23310498"/>
    </g>
   </g>
   <g id="line2d_22">
    <path d="
M22.6815 376.036
L22.6815 373.352
L38.1631 373.352
L38.1631 371.34
L47.2192 371.34
L47.2192 370.669
L53.6446 370.669
L53.6446 369.327
L170.182 369.327
L170.182 368.656
L172.562 368.656
L172.562 367.985
L178.994 367.985
L178.994 366.643
L179.578 366.643
L179.578 365.301
L181.188 365.301
L181.206 363.288
L182.707 363.288
L182.707 362.617
L183.354 362.617
L183.354 361.947
L184.53 361.947
L184.53 361.276
L185.527 361.276
L185.527 360.605
L186.201 360.605
L186.201 359.934
L186.539 359.934
L186.539 358.592
L187.353 358.592
L187.353 357.921
L187.562 357.921
L187.562 357.25
L188.016 357.25
L188.084 355.237
L189.015 355.237
L189.015 354.566
L189.909 354.566
L189.909 353.895
L191.031 353.895
L191.031 352.553
L191.444 352.553
L191.444 351.882
L192.326 351.882
L192.326 351.212
L192.737 351.212
L192.781 349.87
L193.676 349.87
L193.676 348.528
L193.876 348.528
L193.929 346.515
L194.033 346.515
L194.033 345.844
L194.261 345.844
L194.261 345.173
L194.608 345.173
L194.608 344.502
L195.869 344.502
L195.869 343.831
L196.24 343.831
L196.24 341.818
L196.872 341.818
L196.872 341.147
L198.471 341.147
L198.471 340.477
L199.027 340.477
L199.027 339.135
L199.892 339.135
L199.98 337.793
L200.601 337.793
L200.601 337.122
L201.16 337.122
L201.16 335.109
L201.273 335.109
L201.273 333.767
L215.868 333.767
L215.868 331.754
L346.749 331.754
L346.788 326.387
L362.225 326.387
L362.248 321.69
L371.278 321.69
L371.285 318.336
L377.703 318.336
L377.705 316.994
L382.686 316.994
L382.688 314.981
L386.759 314.981
L386.759 314.31
L390.199 314.31
L390.202 312.297
L393.187 312.297
L393.187 311.626
L395.813 311.626
L395.816 310.284
L398.165 310.284
L398.166 308.942
L400.295 308.942
L400.295 308.272
L405.68 308.272
L405.68 306.93
L410.016 306.93
L410.016 306.259
L412.5 306.259
L412.5 305.588
L414.736 305.588
L414.736 304.917
L419.506 304.917
L419.506 304.246
L422.702 304.246
L422.702 303.575
L425.497 303.575
L425.497 302.904
L426.145 302.904
L426.145 302.233
L449.592 302.233
L449.592 302.233" style="fill:none;stroke:#ff0000;stroke-linecap:square;stroke-width:1.5;"/>
   </g>
   <g id="line2d_23">
    <defs>
     <path d="
M-6 6
L6 6
L6 -6
L-6 -6
z
" id="m9d489a7eec" style="stroke:#ff0000;stroke-linejoin:miter;stroke-width:1.5;"/>
    </defs>
    <g>
     <use style="fill:none;stroke:#ff0000;stroke-linejoin:miter;stroke-width:1.5;" x="53.6446279024" xlink:href="#m9d489a7eec" y="369.32687318"/>
     <use style="fill:none;stroke:#ff0000;stroke-linejoin:miter;stroke-width:1.5;" x="215.868233222" xlink:href="#m9d489a7eec" y="333.767176034"/>
     <use style="fill:none;stroke:#ff0000;stroke-linejoin:miter;stroke-width:1.5;" x="346.765092047" xlink:href="#m9d489a7eec" y="328.399674578"/>
     <use style="fill:none;stroke:#ff0000;stroke-linejoin:miter;stroke-width:1.5;" x="426.144696554" xlink:href="#m9d489a7eec" y="302.904042662"/>
     <use style="fill:none;stroke:#ff0000;stroke-linejoin:miter;stroke-width:1.5;" x="426.144696554" xlink:href="#m9d489a7eec" y="302.23310498"/>
     <use style="fill:none;stroke:#ff0000;stroke-linejoin:miter;stroke-width:1.5;" x="449.591656697" xlink:href="#m9d489a7eec" y="302.23310498"/>
    </g>
   </g>
   <g id="line2d_24"/>
   <g id="line2d_25">
    <path clip-path="url(#p6a1853dde3)" d="
M346.735 331.754" style="fill:none;stroke:#ff0000;stroke-linecap:square;"/>
    <defs>
     <path d="
M-12 12
L12 -12
M-12 -12
L12 12" id="m4e2b024d89" style="stroke:#ff0000;stroke-width:3;"/>
    </defs>
    <g clip-path="url(#p6a1853dde3)">
     <use style="fill:#ff0000;stroke:#ff0000;stroke-width:3;" x="346.73451384" xlink:href="#m4e2b024d89" y="331.754362988"/>
    </g>
   </g>
   <g id="line2d_26">
    <defs>
     <path d="
M0 1.5
C0.397805 1.5 0.77937 1.34195 1.06066 1.06066
C1.34195 0.77937 1.5 0.397805 1.5 0
C1.5 -0.397805 1.34195 -0.77937 1.06066 -1.06066
C0.77937 -1.34195 0.397805 -1.5 0 -1.5
C-0.397805 -1.5 -0.77937 -1.34195 -1.06066 -1.06066
C-1.34195 -0.77937 -1.5 -0.397805 -1.5 0
C-1.5 0.397805 -1.34195 0.77937 -1.06066 1.06066
C-0.77937 1.34195 -0.397805 1.5 0 1.5
z
" id="m56b4842580" style="stroke:#bf00bf;stroke-width:0.5;"/>
    </defs>
    <g>
     <use style="fill:#bf00bf;stroke:#bf00bf;stroke-width:0.5;" x="405.682342303" xlink:href="#m56b4842580" y="302.23310498"/>
     <use style="fill:#bf00bf;stroke:#bf00bf;stroke-width:0.5;" x="405.682342303" xlink:href="#m56b4842580" y="302.23310498"/>
    </g>
   </g>
   <g id="line2d_27">
    <path d="
M7.2 376.036
L7.2 374.694
L22.6815 374.694
L22.6815 373.352
L38.1631 373.352
L38.1631 372.682
L43.147 372.682
L43.147 372.011
L56.2753 372.011
L56.2753 371.34
L64.4885 371.34
L64.4885 370.669
L66.1437 370.669
L66.1437 369.327
L187.569 369.327
L187.569 367.314
L188.878 367.314
L188.878 366.643
L190.089 366.643
L190.089 365.301
L191.975 365.301
L191.975 364.63
L192.56 364.63
L192.594 362.617
L193.017 362.617
L193.017 361.947
L193.944 361.947
L193.944 360.605
L194.132 360.605
L194.132 359.934
L195.188 359.934
L195.188 359.263
L196.367 359.263
L196.367 358.592
L196.507 358.592
L196.605 357.25
L198.023 357.25
L198.023 355.908
L198.565 355.908
L198.565 355.237
L198.831 355.237
L198.831 354.566
L199.634 354.566
L199.675 351.882
L200.17 351.882
L200.17 351.212
L200.782 351.212
L200.844 349.87
L201.235 349.87
L201.235 349.199
L202.481 349.199
L202.481 348.528
L203.826 348.528
L203.826 347.857
L204.723 347.857
L204.723 347.186
L205.726 347.186
L205.726 346.515
L206.315 346.515
L206.315 344.502
L207.1 344.502
L207.1 343.16
L207.989 343.16
L207.989 342.489
L208.525 342.489
L208.525 341.818
L209.2 341.818
L209.2 341.147
L209.326 341.147
L209.326 340.477
L213.023 340.477
L213.023 339.806
L213.26 339.806
L213.26 339.135
L213.538 339.135
L213.538 337.793
L216.796 337.793
L216.796 337.122
L346.761 337.122
L346.869 322.361
L346.938 322.361
L346.938 321.69
L362.237 321.69
L362.244 318.336
L371.286 318.336
L371.34 314.981
L377.709 314.981
L377.714 311.626
L382.691 311.626
L382.722 309.613
L386.762 309.613
L386.776 307.601
L390.203 307.601
L390.206 304.917
L395.816 304.917
L395.816 304.246
L398.168 304.246
L398.17 302.904
L405.682 302.904
L405.682 302.233
L449.592 302.233
L449.592 302.233" style="fill:none;stroke:#bf00bf;stroke-linecap:square;stroke-width:1.5;"/>
   </g>
   <g id="line2d_28">
    <defs>
     <path d="
M-6.66134e-16 8.48528
L8.48528 0
L1.11022e-15 -8.48528
L-8.48528 -1.77636e-15
z
" id="m949c2a5d0a" style="stroke:#bf00bf;stroke-linejoin:miter;stroke-width:1.5;"/>
    </defs>
    <g>
     <use style="fill:none;stroke:#bf00bf;stroke-linejoin:miter;stroke-width:1.5;" x="66.1437275492" xlink:href="#m949c2a5d0a" y="370.668748544"/>
     <use style="fill:none;stroke:#bf00bf;stroke-linejoin:miter;stroke-width:1.5;" x="205.72550664" xlink:href="#m949c2a5d0a" y="346.514991992"/>
     <use style="fill:none;stroke:#bf00bf;stroke-linejoin:miter;stroke-width:1.5;" x="216.795803893" xlink:href="#m949c2a5d0a" y="337.121864444"/>
     <use style="fill:none;stroke:#bf00bf;stroke-linejoin:miter;stroke-width:1.5;" x="386.776161199" xlink:href="#m949c2a5d0a" y="307.600606436"/>
     <use style="fill:none;stroke:#bf00bf;stroke-linejoin:miter;stroke-width:1.5;" x="405.682342303" xlink:href="#m949c2a5d0a" y="302.23310498"/>
     <use style="fill:none;stroke:#bf00bf;stroke-linejoin:miter;stroke-width:1.5;" x="449.591656697" xlink:href="#m949c2a5d0a" y="302.23310498"/>
    </g>
   </g>
   <g id="line2d_29"/>
   <g id="line2d_30">
    <path clip-path="url(#p6a1853dde3)" d="
M346.735 337.122" style="fill:none;stroke:#bf00bf;stroke-linecap:square;"/>
    <defs>
     <path d="
M-12 12
L12 -12
M-12 -12
L12 12" id="me627894fb0" style="stroke:#bf00bf;stroke-width:3;"/>
    </defs>
    <g clip-path="url(#p6a1853dde3)">
     <use style="fill:#bf00bf;stroke:#bf00bf;stroke-width:3;" x="346.73451384" xlink:href="#me627894fb0" y="337.121864444"/>
    </g>
   </g>
   <g id="line2d_31">
    <path d="
M449.592 302.233
L489.192 369.193" style="fill:none;stroke:#000000;stroke-linecap:square;stroke-width:1.5;"/>
    <g>
     <use style="fill:none;stroke:#000000;stroke-width:1.5;" x="449.591656697" xlink:href="#ma42492ef9b" y="302.23310498"/>
     <use style="fill:none;stroke:#000000;stroke-width:1.5;" x="489.191656697" xlink:href="#ma42492ef9b" y="369.192685644"/>
    </g>
   </g>
   <g id="line2d_32">
    <path d="
M449.592 302.233
L489.192 303.494" style="fill:none;stroke:#ff0000;stroke-linecap:square;stroke-width:1.5;"/>
    <g>
     <use style="fill:none;stroke:#ff0000;stroke-linejoin:miter;stroke-width:1.5;" x="449.591656697" xlink:href="#m9d489a7eec" y="302.23310498"/>
     <use style="fill:none;stroke:#ff0000;stroke-linejoin:miter;stroke-width:1.5;" x="489.191656697" xlink:href="#m9d489a7eec" y="303.494467822"/>
    </g>
   </g>
   <g id="line2d_33">
    <path d="
M449.592 302.233
L489.192 237.796" style="fill:none;stroke:#bf00bf;stroke-linecap:square;stroke-width:1.5;"/>
    <g>
     <use style="fill:none;stroke:#bf00bf;stroke-linejoin:miter;stroke-width:1.5;" x="449.591656697" xlink:href="#m949c2a5d0a" y="302.23310498"/>
     <use style="fill:none;stroke:#bf00bf;stroke-linejoin:miter;stroke-width:1.5;" x="489.191656697" xlink:href="#m949c2a5d0a" y="237.79625"/>
    </g>
   </g>
   <g id="line2d_34">
    <path d="
M449.592 33.858
L489.192 172.098" style="fill:none;stroke:#0000ff;stroke-linecap:square;stroke-width:1.5;"/>
    <g>
     <use style="fill:none;stroke:#0000ff;stroke-linejoin:bevel;stroke-width:1.5;" x="449.591656697" xlink:href="#m0933169453" y="33.8580321782"/>
     <use style="fill:none;stroke:#0000ff;stroke-linejoin:bevel;stroke-width:1.5;" x="489.191656697" xlink:href="#m0933169453" y="172.098032178"/>
    </g>
   </g>
   <g id="line2d_35">
    <path d="
M449.592 33.858
L489.192 106.4" style="fill:none;stroke:#008000;stroke-linecap:square;stroke-width:1.5;"/>
    <g>
     <use style="fill:none;stroke:#008000;stroke-linejoin:miter;stroke-width:1.5;" x="449.591656697" xlink:href="#m397e16cd68" y="33.8580321782"/>
     <use style="fill:none;stroke:#008000;stroke-linejoin:miter;stroke-width:1.5;" x="489.191656697" xlink:href="#m397e16cd68" y="106.399814356"/>
    </g>
   </g>
   <g id="line2d_36">
    <path d="
M449.592 33.858
L489.192 40.7016" style="fill:none;stroke:#00bfbf;stroke-linecap:square;stroke-width:1.5;"/>
    <g>
     <use style="fill:none;stroke:#00bfbf;stroke-width:1.5;" x="449.591656697" xlink:href="#m3e4de746de" y="33.8580321782"/>
     <use style="fill:none;stroke:#00bfbf;stroke-width:1.5;" x="489.191656697" xlink:href="#m3e4de746de" y="40.7015965347"/>
    </g>
   </g>
   <g id="line2d_37">
    <path d="
M449.592 376.036
L449.592 33.858" style="fill:none;stroke:#000000;stroke-linecap:square;"/>
   </g>
   <g id="patch_3">
    <path d="
M89.5917 30.4362
L535.992 30.4362" style="fill:none;stroke:#000000;stroke-linecap:square;stroke-linejoin:miter;"/>
   </g>
   <g id="patch_4">
    <path d="
M535.992 376.036
L535.992 30.4362" style="fill:none;stroke:#000000;stroke-linecap:square;stroke-linejoin:miter;"/>
   </g>
   <g id="patch_5">
    <path d="
M89.5917 376.036
L535.992 376.036" style="fill:none;stroke:#000000;stroke-linecap:square;stroke-linejoin:miter;"/>
   </g>
   <g id="patch_6">
    <path d="
M89.5917 376.036
L89.5917 30.4362" style="fill:none;stroke:#000000;stroke-linecap:square;stroke-linejoin:miter;"/>
   </g>
   <g id="matplotlib.axis_1">
    <g id="xtick_1">
     <g id="line2d_38">
      <path clip-path="url(#p6a1853dde3)" d="
M89.5917 376.036
L89.5917 30.4362" style="fill:none;stroke:#000000;stroke-dasharray:1.000000,3.000000;stroke-dashoffset:0.0;stroke-width:0.5;"/>
     </g>
     <g id="line2d_39">
      <defs>
       <path d="
M0 0
L0 -4" id="m93b0483c22" style="stroke:#000000;stroke-width:0.5;"/>
      </defs>
      <g>
       <use style="stroke:#000000;stroke-width:0.5;" x="89.5916566969" xlink:href="#m93b0483c22" y="376.03625"/>
      </g>
     </g>
     <g id="line2d_40">
      <defs>
       <path d="
M0 0
L0 4" id="m741efc42ff" style="stroke:#000000;stroke-width:0.5;"/>
      </defs>
      <g>
       <use style="stroke:#000000;stroke-width:0.5;" x="89.5916566969" xlink:href="#m741efc42ff" y="30.43625"/>
      </g>
     </g>
     <g id="text_1">
      <!-- 0 -->
      <defs>
       <path d="
M31.7812 66.4062
Q24.1719 66.4062 20.3281 58.9062
Q16.5 51.4219 16.5 36.375
Q16.5 21.3906 20.3281 13.8906
Q24.1719 6.39062 31.7812 6.39062
Q39.4531 6.39062 43.2812 13.8906
Q47.125 21.3906 47.125 36.375
Q47.125 51.4219 43.2812 58.9062
Q39.4531 66.4062 31.7812 66.4062
M31.7812 74.2188
Q44.0469 74.2188 50.5156 64.5156
Q56.9844 54.8281 56.9844 36.375
Q56.9844 17.9688 50.5156 8.26562
Q44.0469 -1.42188 31.7812 -1.42188
Q19.5312 -1.42188 13.0625 8.26562
Q6.59375 17.9688 6.59375 36.375
Q6.59375 54.8281 13.0625 64.5156
Q19.5312 74.2188 31.7812 74.2188" id="BitstreamVeraSans-Roman-30"/>
      </defs>
      <g transform="translate(84.5525941969 395.233125)scale(0.2 -0.2)">
       <use xlink:href="#BitstreamVeraSans-Roman-30"/>
      </g>
     </g>
    </g>
    <g id="xtick_2">
     <g id="line2d_41">
      <path clip-path="url(#p6a1853dde3)" d="
M141.02 376.036
L141.02 30.4362" style="fill:none;stroke:#000000;stroke-dasharray:1.000000,3.000000;stroke-dashoffset:0.0;stroke-width:0.5;"/>
     </g>
     <g id="line2d_42">
      <g>
       <use style="stroke:#000000;stroke-width:0.5;" x="141.020228125" xlink:href="#m93b0483c22" y="376.03625"/>
      </g>
     </g>
     <g id="line2d_43">
      <g>
       <use style="stroke:#000000;stroke-width:0.5;" x="141.020228125" xlink:href="#m741efc42ff" y="30.43625"/>
      </g>
     </g>
     <g id="text_2">
      <!-- 1 -->
      <defs>
       <path d="
M12.4062 8.29688
L28.5156 8.29688
L28.5156 63.9219
L10.9844 60.4062
L10.9844 69.3906
L28.4219 72.9062
L38.2812 72.9062
L38.2812 8.29688
L54.3906 8.29688
L54.3906 0
L12.4062 0
z
" id="BitstreamVeraSans-Roman-31"/>
      </defs>
      <g transform="translate(136.679603125 395.233125)scale(0.2 -0.2)">
       <use xlink:href="#BitstreamVeraSans-Roman-31"/>
      </g>
     </g>
    </g>
    <g id="xtick_3">
     <g id="line2d_44">
      <path clip-path="url(#p6a1853dde3)" d="
M192.449 376.036
L192.449 30.4362" style="fill:none;stroke:#000000;stroke-dasharray:1.000000,3.000000;stroke-dashoffset:0.0;stroke-width:0.5;"/>
     </g>
     <g id="line2d_45">
      <g>
       <use style="stroke:#000000;stroke-width:0.5;" x="192.448799554" xlink:href="#m93b0483c22" y="376.03625"/>
      </g>
     </g>
     <g id="line2d_46">
      <g>
       <use style="stroke:#000000;stroke-width:0.5;" x="192.448799554" xlink:href="#m741efc42ff" y="30.43625"/>
      </g>
     </g>
     <g id="text_3">
      <!-- 2 -->
      <defs>
       <path d="
M19.1875 8.29688
L53.6094 8.29688
L53.6094 0
L7.32812 0
L7.32812 8.29688
Q12.9375 14.1094 22.625 23.8906
Q32.3281 33.6875 34.8125 36.5312
Q39.5469 41.8438 41.4219 45.5312
Q43.3125 49.2188 43.3125 52.7812
Q43.3125 58.5938 39.2344 62.25
Q35.1562 65.9219 28.6094 65.9219
Q23.9688 65.9219 18.8125 64.3125
Q13.6719 62.7031 7.8125 59.4219
L7.8125 69.3906
Q13.7656 71.7812 18.9375 73
Q24.125 74.2188 28.4219 74.2188
Q39.75 74.2188 46.4844 68.5469
Q53.2188 62.8906 53.2188 53.4219
Q53.2188 48.9219 51.5312 44.8906
Q49.8594 40.875 45.4062 35.4062
Q44.1875 33.9844 37.6406 27.2188
Q31.1094 20.4531 19.1875 8.29688" id="BitstreamVeraSans-Roman-32"/>
      </defs>
      <g transform="translate(187.820674554 395.233125)scale(0.2 -0.2)">
       <use xlink:href="#BitstreamVeraSans-Roman-32"/>
      </g>
     </g>
    </g>
    <g id="xtick_4">
     <g id="line2d_47">
      <path clip-path="url(#p6a1853dde3)" d="
M243.877 376.036
L243.877 30.4362" style="fill:none;stroke:#000000;stroke-dasharray:1.000000,3.000000;stroke-dashoffset:0.0;stroke-width:0.5;"/>
     </g>
     <g id="line2d_48">
      <g>
       <use style="stroke:#000000;stroke-width:0.5;" x="243.877370983" xlink:href="#m93b0483c22" y="376.03625"/>
      </g>
     </g>
     <g id="line2d_49">
      <g>
       <use style="stroke:#000000;stroke-width:0.5;" x="243.877370983" xlink:href="#m741efc42ff" y="30.43625"/>
      </g>
     </g>
     <g id="text_4">
      <!-- 3 -->
      <defs>
       <path d="
M40.5781 39.3125
Q47.6562 37.7969 51.625 33
Q55.6094 28.2188 55.6094 21.1875
Q55.6094 10.4062 48.1875 4.48438
Q40.7656 -1.42188 27.0938 -1.42188
Q22.5156 -1.42188 17.6562 -0.515625
Q12.7969 0.390625 7.625 2.20312
L7.625 11.7188
Q11.7188 9.32812 16.5938 8.10938
Q21.4844 6.89062 26.8125 6.89062
Q36.0781 6.89062 40.9375 10.5469
Q45.7969 14.2031 45.7969 21.1875
Q45.7969 27.6406 41.2812 31.2656
Q36.7656 34.9062 28.7188 34.9062
L20.2188 34.9062
L20.2188 43.0156
L29.1094 43.0156
Q36.375 43.0156 40.2344 45.9219
Q44.0938 48.8281 44.0938 54.2969
Q44.0938 59.9062 40.1094 62.9062
Q36.1406 65.9219 28.7188 65.9219
Q24.6562 65.9219 20.0156 65.0312
Q15.375 64.1562 9.8125 62.3125
L9.8125 71.0938
Q15.4375 72.6562 20.3438 73.4375
Q25.25 74.2188 29.5938 74.2188
Q40.8281 74.2188 47.3594 69.1094
Q53.9062 64.0156 53.9062 55.3281
Q53.9062 49.2656 50.4375 45.0938
Q46.9688 40.9219 40.5781 39.3125" id="BitstreamVeraSans-Roman-33"/>
      </defs>
      <g transform="translate(239.078933483 395.233125)scale(0.2 -0.2)">
       <use xlink:href="#BitstreamVeraSans-Roman-33"/>
      </g>
     </g>
    </g>
    <g id="xtick_5">
     <g id="line2d_50">
      <path clip-path="url(#p6a1853dde3)" d="
M295.306 376.036
L295.306 30.4362" style="fill:none;stroke:#000000;stroke-dasharray:1.000000,3.000000;stroke-dashoffset:0.0;stroke-width:0.5;"/>
     </g>
     <g id="line2d_51">
      <g>
       <use style="stroke:#000000;stroke-width:0.5;" x="295.305942411" xlink:href="#m93b0483c22" y="376.03625"/>
      </g>
     </g>
     <g id="line2d_52">
      <g>
       <use style="stroke:#000000;stroke-width:0.5;" x="295.305942411" xlink:href="#m741efc42ff" y="30.43625"/>
      </g>
     </g>
     <g id="text_5">
      <!-- 4 -->
      <defs>
       <path d="
M37.7969 64.3125
L12.8906 25.3906
L37.7969 25.3906
z

M35.2031 72.9062
L47.6094 72.9062
L47.6094 25.3906
L58.0156 25.3906
L58.0156 17.1875
L47.6094 17.1875
L47.6094 0
L37.7969 0
L37.7969 17.1875
L4.89062 17.1875
L4.89062 26.7031
z
" id="BitstreamVeraSans-Roman-34"/>
      </defs>
      <g transform="translate(289.993442411 395.233125)scale(0.2 -0.2)">
       <use xlink:href="#BitstreamVeraSans-Roman-34"/>
      </g>
     </g>
    </g>
    <g id="xtick_6">
     <g id="line2d_53">
      <path clip-path="url(#p6a1853dde3)" d="
M346.735 376.036
L346.735 30.4362" style="fill:none;stroke:#000000;stroke-dasharray:1.000000,3.000000;stroke-dashoffset:0.0;stroke-width:0.5;"/>
     </g>
     <g id="line2d_54">
      <g>
       <use style="stroke:#000000;stroke-width:0.5;" x="346.73451384" xlink:href="#m93b0483c22" y="376.03625"/>
      </g>
     </g>
     <g id="line2d_55">
      <g>
       <use style="stroke:#000000;stroke-width:0.5;" x="346.73451384" xlink:href="#m741efc42ff" y="30.43625"/>
      </g>
     </g>
     <g id="text_6">
      <!-- 5 -->
      <defs>
       <path d="
M10.7969 72.9062
L49.5156 72.9062
L49.5156 64.5938
L19.8281 64.5938
L19.8281 46.7344
Q21.9688 47.4688 24.1094 47.8281
Q26.2656 48.1875 28.4219 48.1875
Q40.625 48.1875 47.75 41.5
Q54.8906 34.8125 54.8906 23.3906
Q54.8906 11.625 47.5625 5.09375
Q40.2344 -1.42188 26.9062 -1.42188
Q22.3125 -1.42188 17.5469 -0.640625
Q12.7969 0.140625 7.71875 1.70312
L7.71875 11.625
Q12.1094 9.23438 16.7969 8.0625
Q21.4844 6.89062 26.7031 6.89062
Q35.1562 6.89062 40.0781 11.3281
Q45.0156 15.7656 45.0156 23.3906
Q45.0156 31 40.0781 35.4375
Q35.1562 39.8906 26.7031 39.8906
Q22.75 39.8906 18.8125 39.0156
Q14.8906 38.1406 10.7969 36.2812
z
" id="BitstreamVeraSans-Roman-35"/>
      </defs>
      <g transform="translate(342.01732634 395.233125)scale(0.2 -0.2)">
       <use xlink:href="#BitstreamVeraSans-Roman-35"/>
      </g>
     </g>
    </g>
    <g id="xtick_7">
     <g id="line2d_56">
      <path clip-path="url(#p6a1853dde3)" d="
M398.163 376.036
L398.163 30.4362" style="fill:none;stroke:#000000;stroke-dasharray:1.000000,3.000000;stroke-dashoffset:0.0;stroke-width:0.5;"/>
     </g>
     <g id="line2d_57">
      <g>
       <use style="stroke:#000000;stroke-width:0.5;" x="398.163085268" xlink:href="#m93b0483c22" y="376.03625"/>
      </g>
     </g>
     <g id="line2d_58">
      <g>
       <use style="stroke:#000000;stroke-width:0.5;" x="398.163085268" xlink:href="#m741efc42ff" y="30.43625"/>
      </g>
     </g>
     <g id="text_7">
      <!-- 6 -->
      <defs>
       <path d="
M33.0156 40.375
Q26.375 40.375 22.4844 35.8281
Q18.6094 31.2969 18.6094 23.3906
Q18.6094 15.5312 22.4844 10.9531
Q26.375 6.39062 33.0156 6.39062
Q39.6562 6.39062 43.5312 10.9531
Q47.4062 15.5312 47.4062 23.3906
Q47.4062 31.2969 43.5312 35.8281
Q39.6562 40.375 33.0156 40.375
M52.5938 71.2969
L52.5938 62.3125
Q48.875 64.0625 45.0938 64.9844
Q41.3125 65.9219 37.5938 65.9219
Q27.8281 65.9219 22.6719 59.3281
Q17.5312 52.7344 16.7969 39.4062
Q19.6719 43.6562 24.0156 45.9219
Q28.375 48.1875 33.5938 48.1875
Q44.5781 48.1875 50.9531 41.5156
Q57.3281 34.8594 57.3281 23.3906
Q57.3281 12.1562 50.6875 5.35938
Q44.0469 -1.42188 33.0156 -1.42188
Q20.3594 -1.42188 13.6719 8.26562
Q6.98438 17.9688 6.98438 36.375
Q6.98438 53.6562 15.1875 63.9375
Q23.3906 74.2188 37.2031 74.2188
Q40.9219 74.2188 44.7031 73.4844
Q48.4844 72.75 52.5938 71.2969" id="BitstreamVeraSans-Roman-36"/>
      </defs>
      <g transform="translate(393.128710268 395.233125)scale(0.2 -0.2)">
       <use xlink:href="#BitstreamVeraSans-Roman-36"/>
      </g>
     </g>
    </g>
    <g id="xtick_8">
     <g id="line2d_59">
      <path clip-path="url(#p6a1853dde3)" d="
M449.592 376.036
L449.592 30.4362" style="fill:none;stroke:#000000;stroke-dasharray:1.000000,3.000000;stroke-dashoffset:0.0;stroke-width:0.5;"/>
     </g>
     <g id="line2d_60">
      <g>
       <use style="stroke:#000000;stroke-width:0.5;" x="449.591656697" xlink:href="#m93b0483c22" y="376.03625"/>
      </g>
     </g>
     <g id="line2d_61">
      <g>
       <use style="stroke:#000000;stroke-width:0.5;" x="449.591656697" xlink:href="#m741efc42ff" y="30.43625"/>
      </g>
     </g>
     <g id="text_8">
      <!-- 7 -->
      <defs>
       <path d="
M8.20312 72.9062
L55.0781 72.9062
L55.0781 68.7031
L28.6094 0
L18.3125 0
L43.2188 64.5938
L8.20312 64.5938
z
" id="BitstreamVeraSans-Roman-37"/>
      </defs>
      <g transform="translate(444.904156697 395.233125)scale(0.2 -0.2)">
       <use xlink:href="#BitstreamVeraSans-Roman-37"/>
      </g>
     </g>
    </g>
    <g id="xtick_9">
     <g id="line2d_62">
      <path clip-path="url(#p6a1853dde3)" d="
M501.02 376.036
L501.02 30.4362" style="fill:none;stroke:#000000;stroke-dasharray:1.000000,3.000000;stroke-dashoffset:0.0;stroke-width:0.5;"/>
     </g>
     <g id="line2d_63">
      <g>
       <use style="stroke:#000000;stroke-width:0.5;" x="501.020228125" xlink:href="#m93b0483c22" y="376.03625"/>
      </g>
     </g>
     <g id="line2d_64">
      <g>
       <use style="stroke:#000000;stroke-width:0.5;" x="501.020228125" xlink:href="#m741efc42ff" y="30.43625"/>
      </g>
     </g>
     <g id="text_9">
      <!-- 8 -->
      <defs>
       <path d="
M31.7812 34.625
Q24.75 34.625 20.7188 30.8594
Q16.7031 27.0938 16.7031 20.5156
Q16.7031 13.9219 20.7188 10.1562
Q24.75 6.39062 31.7812 6.39062
Q38.8125 6.39062 42.8594 10.1719
Q46.9219 13.9688 46.9219 20.5156
Q46.9219 27.0938 42.8906 30.8594
Q38.875 34.625 31.7812 34.625
M21.9219 38.8125
Q15.5781 40.375 12.0312 44.7188
Q8.5 49.0781 8.5 55.3281
Q8.5 64.0625 14.7188 69.1406
Q20.9531 74.2188 31.7812 74.2188
Q42.6719 74.2188 48.875 69.1406
Q55.0781 64.0625 55.0781 55.3281
Q55.0781 49.0781 51.5312 44.7188
Q48 40.375 41.7031 38.8125
Q48.8281 37.1562 52.7969 32.3125
Q56.7812 27.4844 56.7812 20.5156
Q56.7812 9.90625 50.3125 4.23438
Q43.8438 -1.42188 31.7812 -1.42188
Q19.7344 -1.42188 13.25 4.23438
Q6.78125 9.90625 6.78125 20.5156
Q6.78125 27.4844 10.7812 32.3125
Q14.7969 37.1562 21.9219 38.8125
M18.3125 54.3906
Q18.3125 48.7344 21.8438 45.5625
Q25.3906 42.3906 31.7812 42.3906
Q38.1406 42.3906 41.7188 45.5625
Q45.3125 48.7344 45.3125 54.3906
Q45.3125 60.0625 41.7188 63.2344
Q38.1406 66.4062 31.7812 66.4062
Q25.3906 66.4062 21.8438 63.2344
Q18.3125 60.0625 18.3125 54.3906" id="BitstreamVeraSans-Roman-38"/>
      </defs>
      <g transform="translate(496.020228125 395.233125)scale(0.2 -0.2)">
       <use xlink:href="#BitstreamVeraSans-Roman-38"/>
      </g>
     </g>
    </g>
    <g id="xtick_10">
     <g id="line2d_65">
      <defs>
       <path d="
M0 0
L0 -2" id="m177f7580d0" style="stroke:#000000;stroke-width:0.5;"/>
      </defs>
      <g>
       <use style="stroke:#000000;stroke-width:0.5;" x="105.073199331" xlink:href="#m177f7580d0" y="376.03625"/>
      </g>
     </g>
     <g id="line2d_66">
      <defs>
       <path d="
M0 0
L0 2" id="m5284c7e2a0" style="stroke:#000000;stroke-width:0.5;"/>
      </defs>
      <g>
       <use style="stroke:#000000;stroke-width:0.5;" x="105.073199331" xlink:href="#m5284c7e2a0" y="30.43625"/>
      </g>
     </g>
    </g>
    <g id="xtick_11">
     <g id="line2d_67">
      <g>
       <use style="stroke:#000000;stroke-width:0.5;" x="120.554741965" xlink:href="#m177f7580d0" y="376.03625"/>
      </g>
     </g>
     <g id="line2d_68">
      <g>
       <use style="stroke:#000000;stroke-width:0.5;" x="120.554741965" xlink:href="#m5284c7e2a0" y="30.43625"/>
      </g>
     </g>
    </g>
    <g id="xtick_12">
     <g id="line2d_69">
      <g>
       <use style="stroke:#000000;stroke-width:0.5;" x="129.610863859" xlink:href="#m177f7580d0" y="376.03625"/>
      </g>
     </g>
     <g id="line2d_70">
      <g>
       <use style="stroke:#000000;stroke-width:0.5;" x="129.610863859" xlink:href="#m5284c7e2a0" y="30.43625"/>
      </g>
     </g>
    </g>
    <g id="xtick_13">
     <g id="line2d_71">
      <g>
       <use style="stroke:#000000;stroke-width:0.5;" x="136.036284599" xlink:href="#m177f7580d0" y="376.03625"/>
      </g>
     </g>
     <g id="line2d_72">
      <g>
       <use style="stroke:#000000;stroke-width:0.5;" x="136.036284599" xlink:href="#m5284c7e2a0" y="30.43625"/>
      </g>
     </g>
    </g>
    <g id="xtick_14">
     <g id="line2d_73">
      <g>
       <use style="stroke:#000000;stroke-width:0.5;" x="156.50177076" xlink:href="#m177f7580d0" y="376.03625"/>
      </g>
     </g>
     <g id="line2d_74">
      <g>
       <use style="stroke:#000000;stroke-width:0.5;" x="156.50177076" xlink:href="#m5284c7e2a0" y="30.43625"/>
      </g>
     </g>
    </g>
    <g id="xtick_15">
     <g id="line2d_75">
      <g>
       <use style="stroke:#000000;stroke-width:0.5;" x="171.983313394" xlink:href="#m177f7580d0" y="376.03625"/>
      </g>
     </g>
     <g id="line2d_76">
      <g>
       <use style="stroke:#000000;stroke-width:0.5;" x="171.983313394" xlink:href="#m5284c7e2a0" y="30.43625"/>
      </g>
     </g>
    </g>
    <g id="xtick_16">
     <g id="line2d_77">
      <g>
       <use style="stroke:#000000;stroke-width:0.5;" x="181.039435288" xlink:href="#m177f7580d0" y="376.03625"/>
      </g>
     </g>
     <g id="line2d_78">
      <g>
       <use style="stroke:#000000;stroke-width:0.5;" x="181.039435288" xlink:href="#m5284c7e2a0" y="30.43625"/>
      </g>
     </g>
    </g>
    <g id="xtick_17">
     <g id="line2d_79">
      <g>
       <use style="stroke:#000000;stroke-width:0.5;" x="187.464856028" xlink:href="#m177f7580d0" y="376.03625"/>
      </g>
     </g>
     <g id="line2d_80">
      <g>
       <use style="stroke:#000000;stroke-width:0.5;" x="187.464856028" xlink:href="#m5284c7e2a0" y="30.43625"/>
      </g>
     </g>
    </g>
    <g id="xtick_18">
     <g id="line2d_81">
      <g>
       <use style="stroke:#000000;stroke-width:0.5;" x="207.930342188" xlink:href="#m177f7580d0" y="376.03625"/>
      </g>
     </g>
     <g id="line2d_82">
      <g>
       <use style="stroke:#000000;stroke-width:0.5;" x="207.930342188" xlink:href="#m5284c7e2a0" y="30.43625"/>
      </g>
     </g>
    </g>
    <g id="xtick_19">
     <g id="line2d_83">
      <g>
       <use style="stroke:#000000;stroke-width:0.5;" x="223.411884822" xlink:href="#m177f7580d0" y="376.03625"/>
      </g>
     </g>
     <g id="line2d_84">
      <g>
       <use style="stroke:#000000;stroke-width:0.5;" x="223.411884822" xlink:href="#m5284c7e2a0" y="30.43625"/>
      </g>
     </g>
    </g>
    <g id="xtick_20">
     <g id="line2d_85">
      <g>
       <use style="stroke:#000000;stroke-width:0.5;" x="232.468006717" xlink:href="#m177f7580d0" y="376.03625"/>
      </g>
     </g>
     <g id="line2d_86">
      <g>
       <use style="stroke:#000000;stroke-width:0.5;" x="232.468006717" xlink:href="#m5284c7e2a0" y="30.43625"/>
      </g>
     </g>
    </g>
    <g id="xtick_21">
     <g id="line2d_87">
      <g>
       <use style="stroke:#000000;stroke-width:0.5;" x="238.893427456" xlink:href="#m177f7580d0" y="376.03625"/>
      </g>
     </g>
     <g id="line2d_88">
      <g>
       <use style="stroke:#000000;stroke-width:0.5;" x="238.893427456" xlink:href="#m5284c7e2a0" y="30.43625"/>
      </g>
     </g>
    </g>
    <g id="xtick_22">
     <g id="line2d_89">
      <g>
       <use style="stroke:#000000;stroke-width:0.5;" x="259.358913617" xlink:href="#m177f7580d0" y="376.03625"/>
      </g>
     </g>
     <g id="line2d_90">
      <g>
       <use style="stroke:#000000;stroke-width:0.5;" x="259.358913617" xlink:href="#m5284c7e2a0" y="30.43625"/>
      </g>
     </g>
    </g>
    <g id="xtick_23">
     <g id="line2d_91">
      <g>
       <use style="stroke:#000000;stroke-width:0.5;" x="274.840456251" xlink:href="#m177f7580d0" y="376.03625"/>
      </g>
     </g>
     <g id="line2d_92">
      <g>
       <use style="stroke:#000000;stroke-width:0.5;" x="274.840456251" xlink:href="#m5284c7e2a0" y="30.43625"/>
      </g>
     </g>
    </g>
    <g id="xtick_24">
     <g id="line2d_93">
      <g>
       <use style="stroke:#000000;stroke-width:0.5;" x="283.896578145" xlink:href="#m177f7580d0" y="376.03625"/>
      </g>
     </g>
     <g id="line2d_94">
      <g>
       <use style="stroke:#000000;stroke-width:0.5;" x="283.896578145" xlink:href="#m5284c7e2a0" y="30.43625"/>
      </g>
     </g>
    </g>
    <g id="xtick_25">
     <g id="line2d_95">
      <g>
       <use style="stroke:#000000;stroke-width:0.5;" x="290.321998885" xlink:href="#m177f7580d0" y="376.03625"/>
      </g>
     </g>
     <g id="line2d_96">
      <g>
       <use style="stroke:#000000;stroke-width:0.5;" x="290.321998885" xlink:href="#m5284c7e2a0" y="30.43625"/>
      </g>
     </g>
    </g>
    <g id="xtick_26">
     <g id="line2d_97">
      <g>
       <use style="stroke:#000000;stroke-width:0.5;" x="310.787485045" xlink:href="#m177f7580d0" y="376.03625"/>
      </g>
     </g>
     <g id="line2d_98">
      <g>
       <use style="stroke:#000000;stroke-width:0.5;" x="310.787485045" xlink:href="#m5284c7e2a0" y="30.43625"/>
      </g>
     </g>
    </g>
    <g id="xtick_27">
     <g id="line2d_99">
      <g>
       <use style="stroke:#000000;stroke-width:0.5;" x="326.269027679" xlink:href="#m177f7580d0" y="376.03625"/>
      </g>
     </g>
     <g id="line2d_100">
      <g>
       <use style="stroke:#000000;stroke-width:0.5;" x="326.269027679" xlink:href="#m5284c7e2a0" y="30.43625"/>
      </g>
     </g>
    </g>
    <g id="xtick_28">
     <g id="line2d_101">
      <g>
       <use style="stroke:#000000;stroke-width:0.5;" x="335.325149574" xlink:href="#m177f7580d0" y="376.03625"/>
      </g>
     </g>
     <g id="line2d_102">
      <g>
       <use style="stroke:#000000;stroke-width:0.5;" x="335.325149574" xlink:href="#m5284c7e2a0" y="30.43625"/>
      </g>
     </g>
    </g>
    <g id="xtick_29">
     <g id="line2d_103">
      <g>
       <use style="stroke:#000000;stroke-width:0.5;" x="341.750570314" xlink:href="#m177f7580d0" y="376.03625"/>
      </g>
     </g>
     <g id="line2d_104">
      <g>
       <use style="stroke:#000000;stroke-width:0.5;" x="341.750570314" xlink:href="#m5284c7e2a0" y="30.43625"/>
      </g>
     </g>
    </g>
    <g id="xtick_30">
     <g id="line2d_105">
      <g>
       <use style="stroke:#000000;stroke-width:0.5;" x="362.216056474" xlink:href="#m177f7580d0" y="376.03625"/>
      </g>
     </g>
     <g id="line2d_106">
      <g>
       <use style="stroke:#000000;stroke-width:0.5;" x="362.216056474" xlink:href="#m5284c7e2a0" y="30.43625"/>
      </g>
     </g>
    </g>
    <g id="xtick_31">
     <g id="line2d_107">
      <g>
       <use style="stroke:#000000;stroke-width:0.5;" x="377.697599108" xlink:href="#m177f7580d0" y="376.03625"/>
      </g>
     </g>
     <g id="line2d_108">
      <g>
       <use style="stroke:#000000;stroke-width:0.5;" x="377.697599108" xlink:href="#m5284c7e2a0" y="30.43625"/>
      </g>
     </g>
    </g>
    <g id="xtick_32">
     <g id="line2d_109">
      <g>
       <use style="stroke:#000000;stroke-width:0.5;" x="386.753721002" xlink:href="#m177f7580d0" y="376.03625"/>
      </g>
     </g>
     <g id="line2d_110">
      <g>
       <use style="stroke:#000000;stroke-width:0.5;" x="386.753721002" xlink:href="#m5284c7e2a0" y="30.43625"/>
      </g>
     </g>
    </g>
    <g id="xtick_33">
     <g id="line2d_111">
      <g>
       <use style="stroke:#000000;stroke-width:0.5;" x="393.179141742" xlink:href="#m177f7580d0" y="376.03625"/>
      </g>
     </g>
     <g id="line2d_112">
      <g>
       <use style="stroke:#000000;stroke-width:0.5;" x="393.179141742" xlink:href="#m5284c7e2a0" y="30.43625"/>
      </g>
     </g>
    </g>
    <g id="xtick_34">
     <g id="line2d_113">
      <g>
       <use style="stroke:#000000;stroke-width:0.5;" x="413.644627902" xlink:href="#m177f7580d0" y="376.03625"/>
      </g>
     </g>
     <g id="line2d_114">
      <g>
       <use style="stroke:#000000;stroke-width:0.5;" x="413.644627902" xlink:href="#m5284c7e2a0" y="30.43625"/>
      </g>
     </g>
    </g>
    <g id="xtick_35">
     <g id="line2d_115">
      <g>
       <use style="stroke:#000000;stroke-width:0.5;" x="429.126170537" xlink:href="#m177f7580d0" y="376.03625"/>
      </g>
     </g>
     <g id="line2d_116">
      <g>
       <use style="stroke:#000000;stroke-width:0.5;" x="429.126170537" xlink:href="#m5284c7e2a0" y="30.43625"/>
      </g>
     </g>
    </g>
    <g id="xtick_36">
     <g id="line2d_117">
      <g>
       <use style="stroke:#000000;stroke-width:0.5;" x="438.182292431" xlink:href="#m177f7580d0" y="376.03625"/>
      </g>
     </g>
     <g id="line2d_118">
      <g>
       <use style="stroke:#000000;stroke-width:0.5;" x="438.182292431" xlink:href="#m5284c7e2a0" y="30.43625"/>
      </g>
     </g>
    </g>
    <g id="xtick_37">
     <g id="line2d_119">
      <g>
       <use style="stroke:#000000;stroke-width:0.5;" x="444.607713171" xlink:href="#m177f7580d0" y="376.03625"/>
      </g>
     </g>
     <g id="line2d_120">
      <g>
       <use style="stroke:#000000;stroke-width:0.5;" x="444.607713171" xlink:href="#m5284c7e2a0" y="30.43625"/>
      </g>
     </g>
    </g>
    <g id="xtick_38">
     <g id="line2d_121">
      <g>
       <use style="stroke:#000000;stroke-width:0.5;" x="465.073199331" xlink:href="#m177f7580d0" y="376.03625"/>
      </g>
     </g>
     <g id="line2d_122">
      <g>
       <use style="stroke:#000000;stroke-width:0.5;" x="465.073199331" xlink:href="#m5284c7e2a0" y="30.43625"/>
      </g>
     </g>
    </g>
    <g id="xtick_39">
     <g id="line2d_123">
      <g>
       <use style="stroke:#000000;stroke-width:0.5;" x="480.554741965" xlink:href="#m177f7580d0" y="376.03625"/>
      </g>
     </g>
     <g id="line2d_124">
      <g>
       <use style="stroke:#000000;stroke-width:0.5;" x="480.554741965" xlink:href="#m5284c7e2a0" y="30.43625"/>
      </g>
     </g>
    </g>
    <g id="xtick_40">
     <g id="line2d_125">
      <g>
       <use style="stroke:#000000;stroke-width:0.5;" x="489.610863859" xlink:href="#m177f7580d0" y="376.03625"/>
      </g>
     </g>
     <g id="line2d_126">
      <g>
       <use style="stroke:#000000;stroke-width:0.5;" x="489.610863859" xlink:href="#m5284c7e2a0" y="30.43625"/>
      </g>
     </g>
    </g>
    <g id="xtick_41">
     <g id="line2d_127">
      <g>
       <use style="stroke:#000000;stroke-width:0.5;" x="496.036284599" xlink:href="#m177f7580d0" y="376.03625"/>
      </g>
     </g>
     <g id="line2d_128">
      <g>
       <use style="stroke:#000000;stroke-width:0.5;" x="496.036284599" xlink:href="#m5284c7e2a0" y="30.43625"/>
      </g>
     </g>
    </g>
    <g id="xtick_42">
     <g id="line2d_129">
      <g>
       <use style="stroke:#000000;stroke-width:0.5;" x="516.50177076" xlink:href="#m177f7580d0" y="376.03625"/>
      </g>
     </g>
     <g id="line2d_130">
      <g>
       <use style="stroke:#000000;stroke-width:0.5;" x="516.50177076" xlink:href="#m5284c7e2a0" y="30.43625"/>
      </g>
     </g>
    </g>
    <g id="xtick_43">
     <g id="line2d_131">
      <g>
       <use style="stroke:#000000;stroke-width:0.5;" x="531.983313394" xlink:href="#m177f7580d0" y="376.03625"/>
      </g>
     </g>
     <g id="line2d_132">
      <g>
       <use style="stroke:#000000;stroke-width:0.5;" x="531.983313394" xlink:href="#m5284c7e2a0" y="30.43625"/>
      </g>
     </g>
    </g>
    <g id="text_10">
     <!-- log10 of (# f-evals / dimension) -->
     <defs>
      <path id="BitstreamVeraSans-Roman-20"/>
      <path d="
M51.125 44
L36.9219 44
L32.8125 27.6875
L47.125 27.6875
z

M43.7969 71.7812
L38.7188 51.5156
L52.9844 51.5156
L58.1094 71.7812
L65.9219 71.7812
L60.8906 51.5156
L76.125 51.5156
L76.125 44
L58.9844 44
L54.9844 27.6875
L70.5156 27.6875
L70.5156 20.2188
L53.0781 20.2188
L48 0
L40.1875 0
L45.2188 20.2188
L30.9062 20.2188
L25.875 0
L18.0156 0
L23.0938 20.2188
L7.71875 20.2188
L7.71875 27.6875
L24.9062 27.6875
L29 44
L13.2812 44
L13.2812 51.5156
L30.9062 51.5156
L35.8906 71.7812
z
" id="BitstreamVeraSans-Roman-23"/>
      <path d="
M52 44.1875
Q55.375 50.25 60.0625 53.125
Q64.75 56 71.0938 56
Q79.6406 56 84.2812 50.0156
Q88.9219 44.0469 88.9219 33.0156
L88.9219 0
L79.8906 0
L79.8906 32.7188
Q79.8906 40.5781 77.0938 44.375
Q74.3125 48.1875 68.6094 48.1875
Q61.625 48.1875 57.5625 43.5469
Q53.5156 38.9219 53.5156 30.9062
L53.5156 0
L44.4844 0
L44.4844 32.7188
Q44.4844 40.625 41.7031 44.4062
Q38.9219 48.1875 33.1094 48.1875
Q26.2188 48.1875 22.1562 43.5312
Q18.1094 38.875 18.1094 30.9062
L18.1094 0
L9.07812 0
L9.07812 54.6875
L18.1094 54.6875
L18.1094 46.1875
Q21.1875 51.2188 25.4844 53.6094
Q29.7812 56 35.6875 56
Q41.6562 56 45.8281 52.9688
Q50 49.9531 52 44.1875" id="BitstreamVeraSans-Roman-6d"/>
      <path d="
M54.8906 33.0156
L54.8906 0
L45.9062 0
L45.9062 32.7188
Q45.9062 40.4844 42.875 44.3281
Q39.8438 48.1875 33.7969 48.1875
Q26.5156 48.1875 22.3125 43.5469
Q18.1094 38.9219 18.1094 30.9062
L18.1094 0
L9.07812 0
L9.07812 54.6875
L18.1094 54.6875
L18.1094 46.1875
Q21.3438 51.125 25.7031 53.5625
Q30.0781 56 35.7969 56
Q45.2188 56 50.0469 50.1719
Q54.8906 44.3438 54.8906 33.0156" id="BitstreamVeraSans-Roman-6e"/>
      <path d="
M31 75.875
Q24.4688 64.6562 21.2812 53.6562
Q18.1094 42.6719 18.1094 31.3906
Q18.1094 20.125 21.3125 9.0625
Q24.5156 -2 31 -13.1875
L23.1875 -13.1875
Q15.875 -1.70312 12.2344 9.375
Q8.59375 20.4531 8.59375 31.3906
Q8.59375 42.2812 12.2031 53.3125
Q15.8281 64.3594 23.1875 75.875
z
" id="BitstreamVeraSans-Roman-28"/>
      <path d="
M30.6094 48.3906
Q23.3906 48.3906 19.1875 42.75
Q14.9844 37.1094 14.9844 27.2969
Q14.9844 17.4844 19.1562 11.8438
Q23.3438 6.20312 30.6094 6.20312
Q37.7969 6.20312 41.9844 11.8594
Q46.1875 17.5312 46.1875 27.2969
Q46.1875 37.0156 41.9844 42.7031
Q37.7969 48.3906 30.6094 48.3906
M30.6094 56
Q42.3281 56 49.0156 48.375
Q55.7188 40.7656 55.7188 27.2969
Q55.7188 13.875 49.0156 6.21875
Q42.3281 -1.42188 30.6094 -1.42188
Q18.8438 -1.42188 12.1719 6.21875
Q5.51562 13.875 5.51562 27.2969
Q5.51562 40.7656 12.1719 48.375
Q18.8438 56 30.6094 56" id="BitstreamVeraSans-Roman-6f"/>
      <path d="
M9.42188 75.9844
L18.4062 75.9844
L18.4062 0
L9.42188 0
z
" id="BitstreamVeraSans-Roman-6c"/>
      <path d="
M2.98438 54.6875
L12.5 54.6875
L29.5938 8.79688
L46.6875 54.6875
L56.2031 54.6875
L35.6875 0
L23.4844 0
z
" id="BitstreamVeraSans-Roman-76"/>
      <path d="
M9.42188 54.6875
L18.4062 54.6875
L18.4062 0
L9.42188 0
z

M9.42188 75.9844
L18.4062 75.9844
L18.4062 64.5938
L9.42188 64.5938
z
" id="BitstreamVeraSans-Roman-69"/>
      <path d="
M4.89062 31.3906
L31.2031 31.3906
L31.2031 23.3906
L4.89062 23.3906
z
" id="BitstreamVeraSans-Roman-2d"/>
      <path d="
M25.3906 72.9062
L33.6875 72.9062
L8.29688 -9.28125
L0 -9.28125
z
" id="BitstreamVeraSans-Roman-2f"/>
      <path d="
M56.2031 29.5938
L56.2031 25.2031
L14.8906 25.2031
Q15.4844 15.9219 20.4844 11.0625
Q25.4844 6.20312 34.4219 6.20312
Q39.5938 6.20312 44.4531 7.46875
Q49.3125 8.73438 54.1094 11.2812
L54.1094 2.78125
Q49.2656 0.734375 44.1875 -0.34375
Q39.1094 -1.42188 33.8906 -1.42188
Q20.7969 -1.42188 13.1562 6.1875
Q5.51562 13.8125 5.51562 26.8125
Q5.51562 40.2344 12.7656 48.1094
Q20.0156 56 32.3281 56
Q43.3594 56 49.7812 48.8906
Q56.2031 41.7969 56.2031 29.5938
M47.2188 32.2344
Q47.125 39.5938 43.0938 43.9844
Q39.0625 48.3906 32.4219 48.3906
Q24.9062 48.3906 20.3906 44.1406
Q15.875 39.8906 15.1875 32.1719
z
" id="BitstreamVeraSans-Roman-65"/>
      <path d="
M45.4062 46.3906
L45.4062 75.9844
L54.3906 75.9844
L54.3906 0
L45.4062 0
L45.4062 8.20312
Q42.5781 3.32812 38.25 0.953125
Q33.9375 -1.42188 27.875 -1.42188
Q17.9688 -1.42188 11.7344 6.48438
Q5.51562 14.4062 5.51562 27.2969
Q5.51562 40.1875 11.7344 48.0938
Q17.9688 56 27.875 56
Q33.9375 56 38.25 53.625
Q42.5781 51.2656 45.4062 46.3906
M14.7969 27.2969
Q14.7969 17.3906 18.875 11.75
Q22.9531 6.10938 30.0781 6.10938
Q37.2031 6.10938 41.2969 11.75
Q45.4062 17.3906 45.4062 27.2969
Q45.4062 37.2031 41.2969 42.8438
Q37.2031 48.4844 30.0781 48.4844
Q22.9531 48.4844 18.875 42.8438
Q14.7969 37.2031 14.7969 27.2969" id="BitstreamVeraSans-Roman-64"/>
      <path d="
M45.4062 27.9844
Q45.4062 37.75 41.375 43.1094
Q37.3594 48.4844 30.0781 48.4844
Q22.8594 48.4844 18.8281 43.1094
Q14.7969 37.75 14.7969 27.9844
Q14.7969 18.2656 18.8281 12.8906
Q22.8594 7.51562 30.0781 7.51562
Q37.3594 7.51562 41.375 12.8906
Q45.4062 18.2656 45.4062 27.9844
M54.3906 6.78125
Q54.3906 -7.17188 48.1875 -13.9844
Q42 -20.7969 29.2031 -20.7969
Q24.4688 -20.7969 20.2656 -20.0938
Q16.0625 -19.3906 12.1094 -17.9219
L12.1094 -9.1875
Q16.0625 -11.3281 19.9219 -12.3438
Q23.7812 -13.375 27.7812 -13.375
Q36.625 -13.375 41.0156 -8.76562
Q45.4062 -4.15625 45.4062 5.17188
L45.4062 9.625
Q42.625 4.78125 38.2812 2.39062
Q33.9375 0 27.875 0
Q17.8281 0 11.6719 7.65625
Q5.51562 15.3281 5.51562 27.9844
Q5.51562 40.6719 11.6719 48.3281
Q17.8281 56 27.875 56
Q33.9375 56 38.2812 53.6094
Q42.625 51.2188 45.4062 46.3906
L45.4062 54.6875
L54.3906 54.6875
z
" id="BitstreamVeraSans-Roman-67"/>
      <path d="
M37.1094 75.9844
L37.1094 68.5
L28.5156 68.5
Q23.6875 68.5 21.7969 66.5469
Q19.9219 64.5938 19.9219 59.5156
L19.9219 54.6875
L34.7188 54.6875
L34.7188 47.7031
L19.9219 47.7031
L19.9219 0
L10.8906 0
L10.8906 47.7031
L2.29688 47.7031
L2.29688 54.6875
L10.8906 54.6875
L10.8906 58.5
Q10.8906 67.625 15.1406 71.7969
Q19.3906 75.9844 28.6094 75.9844
z
" id="BitstreamVeraSans-Roman-66"/>
      <path d="
M34.2812 27.4844
Q23.3906 27.4844 19.1875 25
Q14.9844 22.5156 14.9844 16.5
Q14.9844 11.7188 18.1406 8.90625
Q21.2969 6.10938 26.7031 6.10938
Q34.1875 6.10938 38.7031 11.4062
Q43.2188 16.7031 43.2188 25.4844
L43.2188 27.4844
z

M52.2031 31.2031
L52.2031 0
L43.2188 0
L43.2188 8.29688
Q40.1406 3.32812 35.5469 0.953125
Q30.9531 -1.42188 24.3125 -1.42188
Q15.9219 -1.42188 10.9531 3.29688
Q6 8.01562 6 15.9219
Q6 25.1406 12.1719 29.8281
Q18.3594 34.5156 30.6094 34.5156
L43.2188 34.5156
L43.2188 35.4062
Q43.2188 41.6094 39.1406 45
Q35.0625 48.3906 27.6875 48.3906
Q23 48.3906 18.5469 47.2656
Q14.1094 46.1406 10.0156 43.8906
L10.0156 52.2031
Q14.9375 54.1094 19.5781 55.0469
Q24.2188 56 28.6094 56
Q40.4844 56 46.3438 49.8438
Q52.2031 43.7031 52.2031 31.2031" id="BitstreamVeraSans-Roman-61"/>
      <path d="
M44.2812 53.0781
L44.2812 44.5781
Q40.4844 46.5312 36.375 47.5
Q32.2812 48.4844 27.875 48.4844
Q21.1875 48.4844 17.8438 46.4375
Q14.5 44.3906 14.5 40.2812
Q14.5 37.1562 16.8906 35.375
Q19.2812 33.5938 26.5156 31.9844
L29.5938 31.2969
Q39.1562 29.25 43.1875 25.5156
Q47.2188 21.7812 47.2188 15.0938
Q47.2188 7.46875 41.1875 3.01562
Q35.1562 -1.42188 24.6094 -1.42188
Q20.2188 -1.42188 15.4531 -0.5625
Q10.6875 0.296875 5.42188 2
L5.42188 11.2812
Q10.4062 8.6875 15.2344 7.39062
Q20.0625 6.10938 24.8125 6.10938
Q31.1562 6.10938 34.5625 8.28125
Q37.9844 10.4531 37.9844 14.4062
Q37.9844 18.0625 35.5156 20.0156
Q33.0625 21.9688 24.7031 23.7812
L21.5781 24.5156
Q13.2344 26.2656 9.51562 29.9062
Q5.8125 33.5469 5.8125 39.8906
Q5.8125 47.6094 11.2812 51.7969
Q16.75 56 26.8125 56
Q31.7812 56 36.1719 55.2656
Q40.5781 54.5469 44.2812 53.0781" id="BitstreamVeraSans-Roman-73"/>
      <path d="
M8.01562 75.875
L15.8281 75.875
Q23.1406 64.3594 26.7812 53.3125
Q30.4219 42.2812 30.4219 31.3906
Q30.4219 20.4531 26.7812 9.375
Q23.1406 -1.70312 15.8281 -13.1875
L8.01562 -13.1875
Q14.5 -2 17.7031 9.0625
Q20.9062 20.125 20.9062 31.3906
Q20.9062 42.6719 17.7031 53.6562
Q14.5 64.6562 8.01562 75.875" id="BitstreamVeraSans-Roman-29"/>
     </defs>
     <g transform="translate(171.708219197 418.0696875)scale(0.18 -0.18)">
      <use xlink:href="#BitstreamVeraSans-Roman-6c"/>
      <use x="27.783203125" xlink:href="#BitstreamVeraSans-Roman-6f"/>
      <use x="88.96484375" xlink:href="#BitstreamVeraSans-Roman-67"/>
      <use x="152.44140625" xlink:href="#BitstreamVeraSans-Roman-31"/>
      <use x="216.064453125" xlink:href="#BitstreamVeraSans-Roman-30"/>
      <use x="279.6875" xlink:href="#BitstreamVeraSans-Roman-20"/>
      <use x="311.474609375" xlink:href="#BitstreamVeraSans-Roman-6f"/>
      <use x="372.65625" xlink:href="#BitstreamVeraSans-Roman-66"/>
      <use x="407.861328125" xlink:href="#BitstreamVeraSans-Roman-20"/>
      <use x="439.6484375" xlink:href="#BitstreamVeraSans-Roman-28"/>
      <use x="478.662109375" xlink:href="#BitstreamVeraSans-Roman-23"/>
      <use x="562.451171875" xlink:href="#BitstreamVeraSans-Roman-20"/>
      <use x="594.23828125" xlink:href="#BitstreamVeraSans-Roman-66"/>
      <use x="623.943359375" xlink:href="#BitstreamVeraSans-Roman-2d"/>
      <use x="660.02734375" xlink:href="#BitstreamVeraSans-Roman-65"/>
      <use x="721.55078125" xlink:href="#BitstreamVeraSans-Roman-76"/>
      <use x="780.73046875" xlink:href="#BitstreamVeraSans-Roman-61"/>
      <use x="842.009765625" xlink:href="#BitstreamVeraSans-Roman-6c"/>
      <use x="869.79296875" xlink:href="#BitstreamVeraSans-Roman-73"/>
      <use x="921.892578125" xlink:href="#BitstreamVeraSans-Roman-20"/>
      <use x="953.6796875" xlink:href="#BitstreamVeraSans-Roman-2f"/>
      <use x="987.37109375" xlink:href="#BitstreamVeraSans-Roman-20"/>
      <use x="1019.15820312" xlink:href="#BitstreamVeraSans-Roman-64"/>
      <use x="1082.63476562" xlink:href="#BitstreamVeraSans-Roman-69"/>
      <use x="1110.41796875" xlink:href="#BitstreamVeraSans-Roman-6d"/>
      <use x="1207.83007812" xlink:href="#BitstreamVeraSans-Roman-65"/>
      <use x="1269.35351562" xlink:href="#BitstreamVeraSans-Roman-6e"/>
      <use x="1332.73242188" xlink:href="#BitstreamVeraSans-Roman-73"/>
      <use x="1384.83203125" xlink:href="#BitstreamVeraSans-Roman-69"/>
      <use x="1412.61523438" xlink:href="#BitstreamVeraSans-Roman-6f"/>
      <use x="1473.796875" xlink:href="#BitstreamVeraSans-Roman-6e"/>
      <use x="1537.17578125" xlink:href="#BitstreamVeraSans-Roman-29"/>
     </g>
    </g>
   </g>
   <g id="matplotlib.axis_2">
    <g id="ytick_1">
     <g id="line2d_133">
      <path clip-path="url(#p6a1853dde3)" d="
M89.5917 376.036
L535.992 376.036" style="fill:none;stroke:#000000;stroke-dasharray:1.000000,3.000000;stroke-dashoffset:0.0;stroke-width:0.5;"/>
     </g>
     <g id="line2d_134">
      <defs>
       <path d="
M0 0
L4 0" id="m728421d6d4" style="stroke:#000000;stroke-width:0.5;"/>
      </defs>
      <g>
       <use style="stroke:#000000;stroke-width:0.5;" x="89.5916566969" xlink:href="#m728421d6d4" y="376.03625"/>
      </g>
     </g>
     <g id="line2d_135">
      <defs>
       <path d="
M0 0
L-4 0" id="mcb0005524f" style="stroke:#000000;stroke-width:0.5;"/>
      </defs>
      <g>
       <use style="stroke:#000000;stroke-width:0.5;" x="535.991656697" xlink:href="#mcb0005524f" y="376.03625"/>
      </g>
     </g>
     <g id="text_11">
      <!-- 0.0 -->
      <defs>
       <path d="
M10.6875 12.4062
L21 12.4062
L21 0
L10.6875 0
z
" id="BitstreamVeraSans-Roman-2e"/>
      </defs>
      <g transform="translate(56.4322816969 381.555)scale(0.2 -0.2)">
       <use xlink:href="#BitstreamVeraSans-Roman-30"/>
       <use x="63.623046875" xlink:href="#BitstreamVeraSans-Roman-2e"/>
       <use x="95.41015625" xlink:href="#BitstreamVeraSans-Roman-30"/>
      </g>
     </g>
    </g>
    <g id="ytick_2">
     <g id="line2d_136">
      <path clip-path="url(#p6a1853dde3)" d="
M89.5917 307.601
L535.992 307.601" style="fill:none;stroke:#000000;stroke-dasharray:1.000000,3.000000;stroke-dashoffset:0.0;stroke-width:0.5;"/>
     </g>
     <g id="line2d_137">
      <g>
       <use style="stroke:#000000;stroke-width:0.5;" x="89.5916566969" xlink:href="#m728421d6d4" y="307.600606436"/>
      </g>
     </g>
     <g id="line2d_138">
      <g>
       <use style="stroke:#000000;stroke-width:0.5;" x="535.991656697" xlink:href="#mcb0005524f" y="307.600606436"/>
      </g>
     </g>
     <g id="text_12">
      <!-- 0.2 -->
      <g transform="translate(57.1072816969 313.119356436)scale(0.2 -0.2)">
       <use xlink:href="#BitstreamVeraSans-Roman-30"/>
       <use x="63.623046875" xlink:href="#BitstreamVeraSans-Roman-2e"/>
       <use x="95.41015625" xlink:href="#BitstreamVeraSans-Roman-32"/>
      </g>
     </g>
    </g>
    <g id="ytick_3">
     <g id="line2d_139">
      <path clip-path="url(#p6a1853dde3)" d="
M89.5917 239.165
L535.992 239.165" style="fill:none;stroke:#000000;stroke-dasharray:1.000000,3.000000;stroke-dashoffset:0.0;stroke-width:0.5;"/>
     </g>
     <g id="line2d_140">
      <g>
       <use style="stroke:#000000;stroke-width:0.5;" x="89.5916566969" xlink:href="#m728421d6d4" y="239.164962871"/>
      </g>
     </g>
     <g id="line2d_141">
      <g>
       <use style="stroke:#000000;stroke-width:0.5;" x="535.991656697" xlink:href="#mcb0005524f" y="239.164962871"/>
      </g>
     </g>
     <g id="text_13">
      <!-- 0.4 -->
      <g transform="translate(56.2260316969 244.683712871)scale(0.2 -0.2)">
       <use xlink:href="#BitstreamVeraSans-Roman-30"/>
       <use x="63.623046875" xlink:href="#BitstreamVeraSans-Roman-2e"/>
       <use x="95.41015625" xlink:href="#BitstreamVeraSans-Roman-34"/>
      </g>
     </g>
    </g>
    <g id="ytick_4">
     <g id="line2d_142">
      <path clip-path="url(#p6a1853dde3)" d="
M89.5917 170.729
L535.992 170.729" style="fill:none;stroke:#000000;stroke-dasharray:1.000000,3.000000;stroke-dashoffset:0.0;stroke-width:0.5;"/>
     </g>
     <g id="line2d_143">
      <g>
       <use style="stroke:#000000;stroke-width:0.5;" x="89.5916566969" xlink:href="#m728421d6d4" y="170.729319307"/>
      </g>
     </g>
     <g id="line2d_144">
      <g>
       <use style="stroke:#000000;stroke-width:0.5;" x="535.991656697" xlink:href="#mcb0005524f" y="170.729319307"/>
      </g>
     </g>
     <g id="text_14">
      <!-- 0.6 -->
      <g transform="translate(56.3635316969 176.248069307)scale(0.2 -0.2)">
       <use xlink:href="#BitstreamVeraSans-Roman-30"/>
       <use x="63.623046875" xlink:href="#BitstreamVeraSans-Roman-2e"/>
       <use x="95.41015625" xlink:href="#BitstreamVeraSans-Roman-36"/>
      </g>
     </g>
    </g>
    <g id="ytick_5">
     <g id="line2d_145">
      <path clip-path="url(#p6a1853dde3)" d="
M89.5917 102.294
L535.992 102.294" style="fill:none;stroke:#000000;stroke-dasharray:1.000000,3.000000;stroke-dashoffset:0.0;stroke-width:0.5;"/>
     </g>
     <g id="line2d_146">
      <g>
       <use style="stroke:#000000;stroke-width:0.5;" x="89.5916566969" xlink:href="#m728421d6d4" y="102.293675743"/>
      </g>
     </g>
     <g id="line2d_147">
      <g>
       <use style="stroke:#000000;stroke-width:0.5;" x="535.991656697" xlink:href="#mcb0005524f" y="102.293675743"/>
      </g>
     </g>
     <g id="text_15">
      <!-- 0.8 -->
      <g transform="translate(56.4729066969 107.812425743)scale(0.2 -0.2)">
       <use xlink:href="#BitstreamVeraSans-Roman-30"/>
       <use x="63.623046875" xlink:href="#BitstreamVeraSans-Roman-2e"/>
       <use x="95.41015625" xlink:href="#BitstreamVeraSans-Roman-38"/>
      </g>
     </g>
    </g>
    <g id="ytick_6">
     <g id="line2d_148">
      <path clip-path="url(#p6a1853dde3)" d="
M89.5917 33.858
L535.992 33.858" style="fill:none;stroke:#000000;stroke-dasharray:1.000000,3.000000;stroke-dashoffset:0.0;stroke-width:0.5;"/>
     </g>
     <g id="line2d_149">
      <g>
       <use style="stroke:#000000;stroke-width:0.5;" x="89.5916566969" xlink:href="#m728421d6d4" y="33.8580321782"/>
      </g>
     </g>
     <g id="line2d_150">
      <g>
       <use style="stroke:#000000;stroke-width:0.5;" x="535.991656697" xlink:href="#mcb0005524f" y="33.8580321782"/>
      </g>
     </g>
     <g id="text_16">
      <!-- 1.0 -->
      <g transform="translate(57.3104066969 39.3767821782)scale(0.2 -0.2)">
       <use xlink:href="#BitstreamVeraSans-Roman-31"/>
       <use x="63.623046875" xlink:href="#BitstreamVeraSans-Roman-2e"/>
       <use x="95.41015625" xlink:href="#BitstreamVeraSans-Roman-30"/>
      </g>
     </g>
    </g>
    <g id="text_17">
     <!-- Proportion of function+target pairs -->
     <defs>
      <path d="
M19.6719 64.7969
L19.6719 37.4062
L32.0781 37.4062
Q38.9688 37.4062 42.7188 40.9688
Q46.4844 44.5312 46.4844 51.125
Q46.4844 57.6719 42.7188 61.2344
Q38.9688 64.7969 32.0781 64.7969
z

M9.8125 72.9062
L32.0781 72.9062
Q44.3438 72.9062 50.6094 67.3594
Q56.8906 61.8125 56.8906 51.125
Q56.8906 40.3281 50.6094 34.8125
Q44.3438 29.2969 32.0781 29.2969
L19.6719 29.2969
L19.6719 0
L9.8125 0
z
" id="BitstreamVeraSans-Roman-50"/>
      <path d="
M46 62.7031
L46 35.5
L73.1875 35.5
L73.1875 27.2031
L46 27.2031
L46 0
L37.7969 0
L37.7969 27.2031
L10.5938 27.2031
L10.5938 35.5
L37.7969 35.5
L37.7969 62.7031
z
" id="BitstreamVeraSans-Roman-2b"/>
      <path d="
M18.1094 8.20312
L18.1094 -20.7969
L9.07812 -20.7969
L9.07812 54.6875
L18.1094 54.6875
L18.1094 46.3906
Q20.9531 51.2656 25.2656 53.625
Q29.5938 56 35.5938 56
Q45.5625 56 51.7812 48.0938
Q58.0156 40.1875 58.0156 27.2969
Q58.0156 14.4062 51.7812 6.48438
Q45.5625 -1.42188 35.5938 -1.42188
Q29.5938 -1.42188 25.2656 0.953125
Q20.9531 3.32812 18.1094 8.20312
M48.6875 27.2969
Q48.6875 37.2031 44.6094 42.8438
Q40.5312 48.4844 33.4062 48.4844
Q26.2656 48.4844 22.1875 42.8438
Q18.1094 37.2031 18.1094 27.2969
Q18.1094 17.3906 22.1875 11.75
Q26.2656 6.10938 33.4062 6.10938
Q40.5312 6.10938 44.6094 11.75
Q48.6875 17.3906 48.6875 27.2969" id="BitstreamVeraSans-Roman-70"/>
      <path d="
M18.3125 70.2188
L18.3125 54.6875
L36.8125 54.6875
L36.8125 47.7031
L18.3125 47.7031
L18.3125 18.0156
Q18.3125 11.3281 20.1406 9.42188
Q21.9688 7.51562 27.5938 7.51562
L36.8125 7.51562
L36.8125 0
L27.5938 0
Q17.1875 0 13.2344 3.875
Q9.28125 7.76562 9.28125 18.0156
L9.28125 47.7031
L2.6875 47.7031
L2.6875 54.6875
L9.28125 54.6875
L9.28125 70.2188
z
" id="BitstreamVeraSans-Roman-74"/>
      <path d="
M8.5 21.5781
L8.5 54.6875
L17.4844 54.6875
L17.4844 21.9219
Q17.4844 14.1562 20.5 10.2656
Q23.5312 6.39062 29.5938 6.39062
Q36.8594 6.39062 41.0781 11.0312
Q45.3125 15.6719 45.3125 23.6875
L45.3125 54.6875
L54.2969 54.6875
L54.2969 0
L45.3125 0
L45.3125 8.40625
Q42.0469 3.42188 37.7188 1
Q33.4062 -1.42188 27.6875 -1.42188
Q18.2656 -1.42188 13.375 4.4375
Q8.5 10.2969 8.5 21.5781" id="BitstreamVeraSans-Roman-75"/>
      <path d="
M41.1094 46.2969
Q39.5938 47.1719 37.8125 47.5781
Q36.0312 48 33.8906 48
Q26.2656 48 22.1875 43.0469
Q18.1094 38.0938 18.1094 28.8125
L18.1094 0
L9.07812 0
L9.07812 54.6875
L18.1094 54.6875
L18.1094 46.1875
Q20.9531 51.1719 25.4844 53.5781
Q30.0312 56 36.5312 56
Q37.4531 56 38.5781 55.875
Q39.7031 55.7656 41.0625 55.5156
z
" id="BitstreamVeraSans-Roman-72"/>
      <path d="
M48.7812 52.5938
L48.7812 44.1875
Q44.9688 46.2969 41.1406 47.3438
Q37.3125 48.3906 33.4062 48.3906
Q24.6562 48.3906 19.8125 42.8438
Q14.9844 37.3125 14.9844 27.2969
Q14.9844 17.2812 19.8125 11.7344
Q24.6562 6.20312 33.4062 6.20312
Q37.3125 6.20312 41.1406 7.25
Q44.9688 8.29688 48.7812 10.4062
L48.7812 2.09375
Q45.0156 0.34375 40.9844 -0.53125
Q36.9688 -1.42188 32.4219 -1.42188
Q20.0625 -1.42188 12.7812 6.34375
Q5.51562 14.1094 5.51562 27.2969
Q5.51562 40.6719 12.8594 48.3281
Q20.2188 56 33.0156 56
Q37.1562 56 41.1094 55.1406
Q45.0625 54.2969 48.7812 52.5938" id="BitstreamVeraSans-Roman-63"/>
     </defs>
     <g transform="translate(47.4825941969 360.275)rotate(-90.0)scale(0.18 -0.18)">
      <use xlink:href="#BitstreamVeraSans-Roman-50"/>
      <use x="58.552734375" xlink:href="#BitstreamVeraSans-Roman-72"/>
      <use x="97.416015625" xlink:href="#BitstreamVeraSans-Roman-6f"/>
      <use x="158.59765625" xlink:href="#BitstreamVeraSans-Roman-70"/>
      <use x="222.07421875" xlink:href="#BitstreamVeraSans-Roman-6f"/>
      <use x="283.255859375" xlink:href="#BitstreamVeraSans-Roman-72"/>
      <use x="324.369140625" xlink:href="#BitstreamVeraSans-Roman-74"/>
      <use x="363.578125" xlink:href="#BitstreamVeraSans-Roman-69"/>
      <use x="391.361328125" xlink:href="#BitstreamVeraSans-Roman-6f"/>
      <use x="452.54296875" xlink:href="#BitstreamVeraSans-Roman-6e"/>
      <use x="515.921875" xlink:href="#BitstreamVeraSans-Roman-20"/>
      <use x="547.708984375" xlink:href="#BitstreamVeraSans-Roman-6f"/>
      <use x="608.890625" xlink:href="#BitstreamVeraSans-Roman-66"/>
      <use x="644.095703125" xlink:href="#BitstreamVeraSans-Roman-20"/>
      <use x="675.8828125" xlink:href="#BitstreamVeraSans-Roman-66"/>
      <use x="711.087890625" xlink:href="#BitstreamVeraSans-Roman-75"/>
      <use x="774.466796875" xlink:href="#BitstreamVeraSans-Roman-6e"/>
      <use x="837.845703125" xlink:href="#BitstreamVeraSans-Roman-63"/>
      <use x="892.826171875" xlink:href="#BitstreamVeraSans-Roman-74"/>
      <use x="932.03515625" xlink:href="#BitstreamVeraSans-Roman-69"/>
      <use x="959.818359375" xlink:href="#BitstreamVeraSans-Roman-6f"/>
      <use x="1021.0" xlink:href="#BitstreamVeraSans-Roman-6e"/>
      <use x="1084.37890625" xlink:href="#BitstreamVeraSans-Roman-2b"/>
      <use x="1168.16796875" xlink:href="#BitstreamVeraSans-Roman-74"/>
      <use x="1207.37695312" xlink:href="#BitstreamVeraSans-Roman-61"/>
      <use x="1268.65625" xlink:href="#BitstreamVeraSans-Roman-72"/>
      <use x="1308.01953125" xlink:href="#BitstreamVeraSans-Roman-67"/>
      <use x="1371.49609375" xlink:href="#BitstreamVeraSans-Roman-65"/>
      <use x="1433.01953125" xlink:href="#BitstreamVeraSans-Roman-74"/>
      <use x="1472.22851562" xlink:href="#BitstreamVeraSans-Roman-20"/>
      <use x="1504.015625" xlink:href="#BitstreamVeraSans-Roman-70"/>
      <use x="1567.4921875" xlink:href="#BitstreamVeraSans-Roman-61"/>
      <use x="1628.77148438" xlink:href="#BitstreamVeraSans-Roman-69"/>
      <use x="1656.5546875" xlink:href="#BitstreamVeraSans-Roman-72"/>
      <use x="1697.66796875" xlink:href="#BitstreamVeraSans-Roman-73"/>
     </g>
    </g>
   </g>
   <g id="text_18">
    <!-- 10-D -->
    <defs>
     <path d="
M19.6719 64.7969
L19.6719 8.10938
L31.5938 8.10938
Q46.6875 8.10938 53.6875 14.9375
Q60.6875 21.7812 60.6875 36.5312
Q60.6875 51.1719 53.6875 57.9844
Q46.6875 64.7969 31.5938 64.7969
z

M9.8125 72.9062
L30.0781 72.9062
Q51.2656 72.9062 61.1719 64.0938
Q71.0938 55.2812 71.0938 36.5312
Q71.0938 17.6719 61.125 8.82812
Q51.1719 0 30.0781 0
L9.8125 0
z
" id="BitstreamVeraSans-Roman-44"/>
    </defs>
    <g transform="translate(496.391656697 373.331748144)scale(0.15 -0.15)">
     <use xlink:href="#BitstreamVeraSans-Roman-31"/>
     <use x="63.623046875" xlink:href="#BitstreamVeraSans-Roman-30"/>
     <use x="127.24609375" xlink:href="#BitstreamVeraSans-Roman-2d"/>
     <use x="163.330078125" xlink:href="#BitstreamVeraSans-Roman-44"/>
    </g>
   </g>
   <g id="text_19">
    <!-- 20-D -->
    <g transform="translate(496.391656697 307.633530322)scale(0.15 -0.15)">
     <use xlink:href="#BitstreamVeraSans-Roman-32"/>
     <use x="63.623046875" xlink:href="#BitstreamVeraSans-Roman-30"/>
     <use x="127.24609375" xlink:href="#BitstreamVeraSans-Roman-2d"/>
     <use x="163.330078125" xlink:href="#BitstreamVeraSans-Roman-44"/>
    </g>
   </g>
   <g id="text_20">
    <!-- 40-D -->
    <g transform="translate(496.391656697 241.9353125)scale(0.15 -0.15)">
     <use xlink:href="#BitstreamVeraSans-Roman-34"/>
     <use x="63.623046875" xlink:href="#BitstreamVeraSans-Roman-30"/>
     <use x="127.24609375" xlink:href="#BitstreamVeraSans-Roman-2d"/>
     <use x="163.330078125" xlink:href="#BitstreamVeraSans-Roman-44"/>
    </g>
   </g>
   <g id="text_21">
    <!-- 5-D -->
    <g transform="translate(496.391656697 176.237094678)scale(0.15 -0.15)">
     <use xlink:href="#BitstreamVeraSans-Roman-35"/>
     <use x="63.623046875" xlink:href="#BitstreamVeraSans-Roman-2d"/>
     <use x="99.70703125" xlink:href="#BitstreamVeraSans-Roman-44"/>
    </g>
   </g>
   <g id="text_22">
    <!-- 3-D -->
    <g transform="translate(496.391656697 110.538876856)scale(0.15 -0.15)">
     <use xlink:href="#BitstreamVeraSans-Roman-33"/>
     <use x="63.623046875" xlink:href="#BitstreamVeraSans-Roman-2d"/>
     <use x="99.70703125" xlink:href="#BitstreamVeraSans-Roman-44"/>
    </g>
   </g>
   <g id="text_23">
    <!-- 2-D -->
    <g transform="translate(496.391656697 44.8406590347)scale(0.15 -0.15)">
     <use xlink:href="#BitstreamVeraSans-Roman-32"/>
     <use x="63.623046875" xlink:href="#BitstreamVeraSans-Roman-2d"/>
     <use x="99.70703125" xlink:href="#BitstreamVeraSans-Roman-44"/>
    </g>
   </g>
   <g id="text_24">
    <!-- bbob - f22 -->
    <defs>
     <path d="
M48.6875 27.2969
Q48.6875 37.2031 44.6094 42.8438
Q40.5312 48.4844 33.4062 48.4844
Q26.2656 48.4844 22.1875 42.8438
Q18.1094 37.2031 18.1094 27.2969
Q18.1094 17.3906 22.1875 11.75
Q26.2656 6.10938 33.4062 6.10938
Q40.5312 6.10938 44.6094 11.75
Q48.6875 17.3906 48.6875 27.2969
M18.1094 46.3906
Q20.9531 51.2656 25.2656 53.625
Q29.5938 56 35.5938 56
Q45.5625 56 51.7812 48.0938
Q58.0156 40.1875 58.0156 27.2969
Q58.0156 14.4062 51.7812 6.48438
Q45.5625 -1.42188 35.5938 -1.42188
Q29.5938 -1.42188 25.2656 0.953125
Q20.9531 3.32812 18.1094 8.20312
L18.1094 0
L9.07812 0
L9.07812 75.9844
L18.1094 75.9844
z
" id="BitstreamVeraSans-Roman-62"/>
    </defs>
    <g transform="translate(94.0556566969 50.007246875)scale(0.1666 -0.1666)">
     <use xlink:href="#BitstreamVeraSans-Roman-62"/>
     <use x="63.4765625" xlink:href="#BitstreamVeraSans-Roman-62"/>
     <use x="126.953125" xlink:href="#BitstreamVeraSans-Roman-6f"/>
     <use x="188.134765625" xlink:href="#BitstreamVeraSans-Roman-62"/>
     <use x="251.611328125" xlink:href="#BitstreamVeraSans-Roman-20"/>
     <use x="283.3984375" xlink:href="#BitstreamVeraSans-Roman-2d"/>
     <use x="319.482421875" xlink:href="#BitstreamVeraSans-Roman-20"/>
     <use x="351.26953125" xlink:href="#BitstreamVeraSans-Roman-66"/>
     <use x="386.474609375" xlink:href="#BitstreamVeraSans-Roman-32"/>
     <use x="450.09765625" xlink:href="#BitstreamVeraSans-Roman-32"/>
    </g>
    <!-- 51 targets in 100..1e-08 -->
    <g transform="translate(94.0556566969 68.6628025)scale(0.1666 -0.1666)">
     <use xlink:href="#BitstreamVeraSans-Roman-35"/>
     <use x="63.623046875" xlink:href="#BitstreamVeraSans-Roman-31"/>
     <use x="127.24609375" xlink:href="#BitstreamVeraSans-Roman-20"/>
     <use x="159.033203125" xlink:href="#BitstreamVeraSans-Roman-74"/>
     <use x="198.2421875" xlink:href="#BitstreamVeraSans-Roman-61"/>
     <use x="259.521484375" xlink:href="#BitstreamVeraSans-Roman-72"/>
     <use x="298.884765625" xlink:href="#BitstreamVeraSans-Roman-67"/>
     <use x="362.361328125" xlink:href="#BitstreamVeraSans-Roman-65"/>
     <use x="423.884765625" xlink:href="#BitstreamVeraSans-Roman-74"/>
     <use x="463.09375" xlink:href="#BitstreamVeraSans-Roman-73"/>
     <use x="515.193359375" xlink:href="#BitstreamVeraSans-Roman-20"/>
     <use x="546.98046875" xlink:href="#BitstreamVeraSans-Roman-69"/>
     <use x="574.763671875" xlink:href="#BitstreamVeraSans-Roman-6e"/>
     <use x="638.142578125" xlink:href="#BitstreamVeraSans-Roman-20"/>
     <use x="669.9296875" xlink:href="#BitstreamVeraSans-Roman-31"/>
     <use x="733.552734375" xlink:href="#BitstreamVeraSans-Roman-30"/>
     <use x="797.17578125" xlink:href="#BitstreamVeraSans-Roman-30"/>
     <use x="860.798828125" xlink:href="#BitstreamVeraSans-Roman-2e"/>
     <use x="892.5859375" xlink:href="#BitstreamVeraSans-Roman-2e"/>
     <use x="924.373046875" xlink:href="#BitstreamVeraSans-Roman-31"/>
     <use x="987.99609375" xlink:href="#BitstreamVeraSans-Roman-65"/>
     <use x="1049.51953125" xlink:href="#BitstreamVeraSans-Roman-2d"/>
     <use x="1085.60351562" xlink:href="#BitstreamVeraSans-Roman-30"/>
     <use x="1149.2265625" xlink:href="#BitstreamVeraSans-Roman-38"/>
    </g>
    <!-- 15 instances -->
    <g transform="translate(94.0556566969 87.318358125)scale(0.1666 -0.1666)">
     <use xlink:href="#BitstreamVeraSans-Roman-31"/>
     <use x="63.623046875" xlink:href="#BitstreamVeraSans-Roman-35"/>
     <use x="127.24609375" xlink:href="#BitstreamVeraSans-Roman-20"/>
     <use x="159.033203125" xlink:href="#BitstreamVeraSans-Roman-69"/>
     <use x="186.81640625" xlink:href="#BitstreamVeraSans-Roman-6e"/>
     <use x="250.1953125" xlink:href="#BitstreamVeraSans-Roman-73"/>
     <use x="302.294921875" xlink:href="#BitstreamVeraSans-Roman-74"/>
     <use x="341.50390625" xlink:href="#BitstreamVeraSans-Roman-61"/>
     <use x="402.783203125" xlink:href="#BitstreamVeraSans-Roman-6e"/>
     <use x="466.162109375" xlink:href="#BitstreamVeraSans-Roman-63"/>
     <use x="521.142578125" xlink:href="#BitstreamVeraSans-Roman-65"/>
     <use x="582.666015625" xlink:href="#BitstreamVeraSans-Roman-73"/>
    </g>
   </g>
   <g id="text_25">
    <!-- 1.2.1 -->
    <g style="fill:#808080;" transform="translate(301.080719197 370.5005625)scale(0.1 -0.1)">
     <use xlink:href="#BitstreamVeraSans-Roman-31"/>
     <use x="63.623046875" xlink:href="#BitstreamVeraSans-Roman-2e"/>
     <use x="95.41015625" xlink:href="#BitstreamVeraSans-Roman-32"/>
     <use x="159.033203125" xlink:href="#BitstreamVeraSans-Roman-2e"/>
     <use x="190.8203125" xlink:href="#BitstreamVeraSans-Roman-31"/>
    </g>
   </g>
   <g id="text_26">
    <!-- 22 Gallagher 21 peaks -->
    <defs>
     <path d="
M59.5156 10.4062
L59.5156 29.9844
L43.4062 29.9844
L43.4062 38.0938
L69.2812 38.0938
L69.2812 6.78125
Q63.5781 2.73438 56.6875 0.65625
Q49.8125 -1.42188 42 -1.42188
Q24.9062 -1.42188 15.25 8.5625
Q5.60938 18.5625 5.60938 36.375
Q5.60938 54.25 15.25 64.2344
Q24.9062 74.2188 42 74.2188
Q49.125 74.2188 55.5469 72.4531
Q61.9688 70.7031 67.3906 67.2812
L67.3906 56.7812
Q61.9219 61.4219 55.7656 63.7656
Q49.6094 66.1094 42.8281 66.1094
Q29.4375 66.1094 22.7188 58.6406
Q16.0156 51.1719 16.0156 36.375
Q16.0156 21.625 22.7188 14.1562
Q29.4375 6.6875 42.8281 6.6875
Q48.0469 6.6875 52.1406 7.59375
Q56.25 8.5 59.5156 10.4062" id="BitstreamVeraSans-Roman-47"/>
     <path d="
M54.8906 33.0156
L54.8906 0
L45.9062 0
L45.9062 32.7188
Q45.9062 40.4844 42.875 44.3281
Q39.8438 48.1875 33.7969 48.1875
Q26.5156 48.1875 22.3125 43.5469
Q18.1094 38.9219 18.1094 30.9062
L18.1094 0
L9.07812 0
L9.07812 75.9844
L18.1094 75.9844
L18.1094 46.1875
Q21.3438 51.125 25.7031 53.5625
Q30.0781 56 35.7969 56
Q45.2188 56 50.0469 50.1719
Q54.8906 44.3438 54.8906 33.0156" id="BitstreamVeraSans-Roman-68"/>
     <path d="
M9.07812 75.9844
L18.1094 75.9844
L18.1094 31.1094
L44.9219 54.6875
L56.3906 54.6875
L27.3906 29.1094
L57.625 0
L45.9062 0
L18.1094 26.7031
L18.1094 0
L9.07812 0
z
" id="BitstreamVeraSans-Roman-6b"/>
    </defs>
    <g transform="translate(177.626656697 25.43625)scale(0.24 -0.24)">
     <use xlink:href="#BitstreamVeraSans-Roman-32"/>
     <use x="63.623046875" xlink:href="#BitstreamVeraSans-Roman-32"/>
     <use x="127.24609375" xlink:href="#BitstreamVeraSans-Roman-20"/>
     <use x="159.033203125" xlink:href="#BitstreamVeraSans-Roman-47"/>
     <use x="236.5234375" xlink:href="#BitstreamVeraSans-Roman-61"/>
     <use x="297.802734375" xlink:href="#BitstreamVeraSans-Roman-6c"/>
     <use x="325.5859375" xlink:href="#BitstreamVeraSans-Roman-6c"/>
     <use x="353.369140625" xlink:href="#BitstreamVeraSans-Roman-61"/>
     <use x="414.6484375" xlink:href="#BitstreamVeraSans-Roman-67"/>
     <use x="478.125" xlink:href="#BitstreamVeraSans-Roman-68"/>
     <use x="541.50390625" xlink:href="#BitstreamVeraSans-Roman-65"/>
     <use x="603.02734375" xlink:href="#BitstreamVeraSans-Roman-72"/>
     <use x="644.140625" xlink:href="#BitstreamVeraSans-Roman-20"/>
     <use x="675.927734375" xlink:href="#BitstreamVeraSans-Roman-32"/>
     <use x="739.55078125" xlink:href="#BitstreamVeraSans-Roman-31"/>
     <use x="803.173828125" xlink:href="#BitstreamVeraSans-Roman-20"/>
     <use x="834.9609375" xlink:href="#BitstreamVeraSans-Roman-70"/>
     <use x="898.4375" xlink:href="#BitstreamVeraSans-Roman-65"/>
     <use x="959.9609375" xlink:href="#BitstreamVeraSans-Roman-61"/>
     <use x="1021.24023438" xlink:href="#BitstreamVeraSans-Roman-6b"/>
     <use x="1079.15039062" xlink:href="#BitstreamVeraSans-Roman-73"/>
    </g>
   </g>
  </g>
 </g>
 <defs>
  <clipPath id="p6a1853dde3">
   <rect height="345.6" width="446.4" x="89.5916566969" y="30.43625"/>
  </clipPath>
 </defs>
</svg>
