<?xml version="1.0" encoding="utf-8" standalone="no"?>
<!DOCTYPE svg PUBLIC "-//W3C//DTD SVG 1.1//EN"
  "http://www.w3.org/Graphics/SVG/1.1/DTD/svg11.dtd">
<!-- Created with matplotlib (http://matplotlib.org/) -->
<svg height="413pt" version="1.1" viewBox="0 0 520 413" width="520pt" xmlns="http://www.w3.org/2000/svg" xmlns:xlink="http://www.w3.org/1999/xlink">
 <defs>
  <style type="text/css">
*{stroke-linecap:butt;stroke-linejoin:round;stroke-miterlimit:100000;}
  </style>
 </defs>
 <g id="figure_1">
  <g id="patch_1">
   <path d="M 0 413.968843 
L 520.9625 413.968843 
L 520.9625 0 
L 0 0 
z
" style="fill:#ffffff;"/>
  </g>
  <g id="axes_1">
   <g id="patch_2">
    <path d="M 67.3625 359.056343 
L 513.7625 359.056343 
L 513.7625 13.456343 
L 67.3625 13.456343 
z
" style="fill:#ffffff;"/>
   </g>
   <g id="line2d_1">
    <path clip-path="url(#p00bef74206)" d="M 391.440645 359.056343 
L 391.440645 354.493967 
L 391.440645 354.493967 
L 391.440645 349.93159 
L 391.922429 349.93159 
L 391.922429 345.369214 
L 391.922429 345.369214 
L 391.922429 340.806838 
L 391.922429 340.806838 
L 391.922429 336.244462 
L 392.162206 336.244462 
L 392.162206 331.682085 
L 392.162206 331.682085 
L 392.162206 327.119709 
L 392.877137 327.119709 
L 392.877137 322.557333 
L 394.98334 322.557333 
L 394.98334 317.994957 
L 394.98334 317.994957 
L 394.98334 313.43258 
L 396.356454 313.43258 
L 396.356454 308.870204 
L 397.034029 308.870204 
L 397.034029 304.307828 
L 399.469179 304.307828 
L 399.469179 299.745452 
L 402.252147 299.745452 
L 402.252147 295.183075 
L 404.531631 295.183075 
L 404.531631 290.620699 
L 421.853076 290.620699 
L 421.853076 286.058323 
L 423.630693 286.058323 
L 423.630693 281.495947 
L 424.108531 281.495947 
L 424.108531 276.933571 
L 424.108531 276.933571 
L 424.108531 272.371194 
L 424.425467 272.371194 
L 424.425467 267.808818 
L 425.212205 267.808818 
L 425.212205 263.246442 
L 425.368603 263.246442 
L 425.368603 258.684066 
L 426.300444 258.684066 
L 426.300444 254.121689 
L 426.300444 254.121689 
L 426.300444 249.559313 
L 427.373671 249.559313 
L 427.373671 244.996937 
L 427.829132 244.996937 
L 427.829132 240.434561 
L 427.829132 240.434561 
L 427.829132 235.872184 
L 428.88162 235.872184 
L 428.88162 231.309808 
L 447.986508 231.309808 
L 447.986508 226.747432 
L 448.452424 226.747432 
L 448.452424 222.185056 
L 459.780091 222.185056 
L 459.780091 217.622679 
L 461.271659 217.622679 
L 461.271659 213.060303 
L 464.64466 213.060303 
L 464.64466 208.497927 
L 466.600433 208.497927 
L 466.600433 203.935551 
L 467.696335 203.935551 
L 467.696335 199.373175 
L 467.877494 199.373175 
L 467.877494 194.810798 
L 469.40055 194.810798 
L 469.40055 190.248422 
L 474.963671 190.248422 
L 474.963671 185.686046 
L 490.012188 185.686046 
L 490.012188 181.12367 
L 502.210259 181.12367 
L 502.210259 176.561293 
L 506.567048 176.561293 
L 506.567048 171.998917 
L 513.511264 171.998917 
L 513.511264 167.436541 
L 520.853896 167.436541 
L 520.853896 162.874165 
L 520.853896 162.874165 
" style="fill:none;stroke:#f5deb3;stroke-linecap:square;"/>
   </g>
   <g id="line2d_2">
    <path clip-path="url(#p00bef74206)" d="M 322.055608 359.056343 
L 322.055608 345.369214 
L 322.055608 345.369214 
L 322.055608 331.682085 
L 322.642839 331.682085 
L 322.642839 317.994957 
L 322.642839 317.994957 
L 322.642839 304.307828 
L 322.642839 304.307828 
L 322.642839 290.620699 
L 521.9625 290.620699 
" style="fill:none;stroke:#f5deb3;stroke-linecap:square;"/>
   </g>
   <g id="line2d_3">
    <path clip-path="url(#p00bef74206)" d="M 182.642825 359.056343 
L 182.642825 354.493967 
L 182.642825 354.493967 
L 182.642825 349.93159 
L 182.642825 349.93159 
L 182.642825 345.369214 
L 182.642825 345.369214 
L 182.642825 340.806838 
L 182.642825 340.806838 
L 182.642825 336.244462 
L 182.642825 336.244462 
L 182.642825 331.682085 
L 182.642825 331.682085 
L 182.642825 327.119709 
L 182.642825 327.119709 
L 182.642825 322.557333 
L 182.642825 322.557333 
L 182.642825 317.994957 
L 182.642825 317.994957 
L 182.642825 313.43258 
L 182.642825 313.43258 
L 182.642825 308.870204 
L 182.642825 308.870204 
L 182.642825 304.307828 
L 182.642825 304.307828 
L 182.642825 299.745452 
L 182.642825 299.745452 
L 182.642825 295.183075 
L 182.642825 295.183075 
L 182.642825 290.620699 
L 182.642825 290.620699 
L 182.642825 286.058323 
L 182.642825 286.058323 
L 182.642825 281.495947 
L 182.642825 281.495947 
L 182.642825 276.933571 
L 182.642825 276.933571 
L 182.642825 272.371194 
L 186.101517 272.371194 
L 186.101517 267.808818 
L 186.101517 267.808818 
L 186.101517 263.246442 
L 186.101517 263.246442 
L 186.101517 258.684066 
L 189.412985 258.684066 
L 189.412985 254.121689 
L 189.412985 254.121689 
L 189.412985 249.559313 
L 192.589252 249.559313 
L 192.589252 244.996937 
L 192.589252 244.996937 
L 192.589252 240.434561 
L 192.589252 240.434561 
L 192.589252 235.872184 
L 195.640928 235.872184 
L 195.640928 231.309808 
L 198.577418 231.309808 
L 198.577418 226.747432 
L 211.796881 226.747432 
L 211.796881 222.185056 
L 521.9625 222.185056 
" style="fill:none;stroke:#f5deb3;stroke-linecap:square;"/>
   </g>
   <g id="line2d_4">
    <path clip-path="url(#p00bef74206)" d="M 135.480758 359.056343 
L 135.480758 354.493967 
L 167.029088 354.493967 
L 167.029088 349.93159 
L 186.101517 349.93159 
L 186.101517 345.369214 
L 189.412985 345.369214 
L 189.412985 340.806838 
L 198.577418 340.806838 
L 198.577418 336.244462 
L 206.775284 336.244462 
L 206.775284 331.682085 
L 211.796881 331.682085 
L 211.796881 327.119709 
L 214.191155 327.119709 
L 214.191155 322.557333 
L 214.191155 322.557333 
L 214.191155 317.994957 
L 214.191155 317.994957 
L 214.191155 313.43258 
L 220.961315 313.43258 
L 220.961315 308.870204 
L 227.189258 308.870204 
L 227.189258 304.307828 
L 229.15918 304.307828 
L 229.15918 299.745452 
L 234.786288 299.745452 
L 234.786288 295.183075 
L 246.521479 295.183075 
L 246.521479 290.620699 
L 404.735584 290.620699 
L 404.735584 286.058323 
L 409.092372 286.058323 
L 409.092372 281.495947 
L 411.743014 281.495947 
L 411.743014 276.933571 
L 412.668207 276.933571 
L 412.668207 272.371194 
L 412.851932 272.371194 
L 412.851932 267.808818 
L 413.40052 267.808818 
L 413.40052 263.246442 
L 413.764109 263.246442 
L 413.764109 258.684066 
L 414.844789 258.684066 
L 414.844789 254.121689 
L 415.201706 254.121689 
L 415.201706 249.559313 
L 415.910666 249.559313 
L 415.910666 244.996937 
L 417.655307 244.996937 
L 417.655307 240.434561 
L 421.525464 240.434561 
L 421.525464 235.872184 
L 421.853076 235.872184 
L 421.853076 231.309808 
L 423.149902 231.309808 
L 423.149902 226.747432 
L 427.373671 226.747432 
L 427.373671 222.185056 
L 499.906863 222.185056 
L 499.906863 217.622679 
L 503.936833 217.622679 
L 503.936833 213.060303 
L 503.993731 213.060303 
L 503.993731 208.497927 
L 503.993731 208.497927 
L 503.993731 203.935551 
L 504.898483 203.935551 
L 504.898483 199.373175 
L 505.959387 199.373175 
L 505.959387 194.810798 
L 506.070224 194.810798 
L 506.070224 190.248422 
L 506.677023 190.248422 
L 506.677023 185.686046 
L 508.630459 185.686046 
L 508.630459 181.12367 
L 510.431399 181.12367 
L 510.431399 176.561293 
L 512.904967 176.561293 
L 512.904967 171.998917 
L 513.410542 171.998917 
L 513.410542 167.436541 
L 517.053063 167.436541 
L 517.053063 162.874165 
L 517.341062 162.874165 
L 517.341062 158.311788 
L 518.953224 158.311788 
L 518.953224 153.749412 
L 518.953224 153.749412 
" style="fill:none;stroke:#f5deb3;stroke-linecap:square;"/>
   </g>
   <g id="line2d_5">
    <path clip-path="url(#p00bef74206)" d="M 331.481581 359.056343 
L 331.481581 354.493967 
L 348.31992 354.493967 
L 348.31992 349.93159 
L 349.156571 349.93159 
L 349.156571 345.369214 
L 352.01597 345.369214 
L 352.01597 340.806838 
L 360.733488 340.806838 
L 360.733488 336.244462 
L 360.733488 336.244462 
L 360.733488 331.682085 
L 361.801804 331.682085 
L 361.801804 327.119709 
L 367.26424 327.119709 
L 367.26424 322.557333 
L 380.843472 322.557333 
L 380.843472 317.994957 
L 384.889848 317.994957 
L 384.889848 313.43258 
L 391.19863 313.43258 
L 391.19863 308.870204 
L 394.98334 308.870204 
L 394.98334 304.307828 
L 397.258583 304.307828 
L 397.258583 299.745452 
L 410.618063 299.745452 
L 410.618063 295.183075 
L 431.235154 295.183075 
L 431.235154 290.620699 
L 435.327529 290.620699 
L 435.327529 286.058323 
L 436.690222 286.058323 
L 436.690222 281.495947 
L 436.690222 281.495947 
L 436.690222 276.933571 
L 438.029459 276.933571 
L 438.029459 272.371194 
L 439.866489 272.371194 
L 439.866489 267.808818 
L 441.787766 267.808818 
L 441.787766 263.246442 
L 442.918165 263.246442 
L 442.918165 258.684066 
L 443.291344 258.684066 
L 443.291344 254.121689 
L 443.786149 254.121689 
L 443.786149 249.559313 
L 445.734489 249.559313 
L 445.734489 244.996937 
L 445.734489 244.996937 
L 445.734489 240.434561 
L 447.400162 240.434561 
L 447.400162 235.872184 
L 448.915567 235.872184 
L 448.915567 231.309808 
L 449.833663 231.309808 
L 449.833663 226.747432 
L 457.951626 226.747432 
L 457.951626 222.185056 
L 521.9625 222.185056 
" style="fill:none;stroke:#f5deb3;stroke-linecap:square;"/>
   </g>
   <g id="line2d_6"/>
   <g id="line2d_7">
    <path clip-path="url(#p00bef74206)" d="M 316.561014 359.056343 
L 316.561014 354.493967 
L 319.051074 354.493967 
L 319.051074 349.93159 
L 324.948423 349.93159 
L 324.948423 345.369214 
L 327.73753 345.369214 
L 327.73753 340.806838 
L 329.364232 340.806838 
L 329.364232 336.244462 
L 333.032617 336.244462 
L 333.032617 327.119709 
L 334.049727 327.119709 
L 334.049727 322.557333 
L 334.553339 322.557333 
L 334.553339 317.994957 
L 335.550888 317.994957 
L 335.550888 313.43258 
L 338.46902 313.43258 
L 338.46902 308.870204 
L 340.355361 308.870204 
L 340.355361 304.307828 
L 340.819887 304.307828 
L 340.819887 299.745452 
L 342.197051 299.745452 
L 342.197051 295.183075 
L 347.474175 295.183075 
L 347.474175 290.620699 
L 462.153065 290.620699 
L 462.153065 286.058323 
L 462.638455 286.058323 
L 462.638455 281.495947 
L 463.600245 281.495947 
L 463.600245 276.933571 
L 464.076717 276.933571 
L 464.076717 272.371194 
L 465.020998 272.371194 
L 465.020998 267.808818 
L 465.768257 267.808818 
L 465.768257 263.246442 
L 466.508408 263.246442 
L 466.508408 258.684066 
L 467.241584 258.684066 
L 467.241584 254.121689 
L 467.877494 254.121689 
L 467.877494 249.559313 
L 468.148444 249.559313 
L 468.148444 244.996937 
L 470.632826 244.996937 
L 470.632826 240.434561 
L 471.068237 240.434561 
L 471.068237 235.872184 
L 471.845889 235.872184 
L 471.845889 231.309808 
L 474.71548 231.309808 
L 474.71548 226.747432 
L 476.598348 226.747432 
L 476.598348 222.185056 
L 521.9625 222.185056 
L 521.9625 222.185056 
" style="fill:none;stroke:#f5deb3;stroke-linecap:square;"/>
   </g>
   <g id="line2d_8">
    <path clip-path="url(#p00bef74206)" d="M 0 0 
" style="fill:none;stroke:#f5deb3;stroke-linecap:square;"/>
   </g>
   <g id="line2d_9">
    <path clip-path="url(#p00bef74206)" d="M 218.769402 359.056343 
L 218.769402 354.493967 
L 227.189258 354.493967 
L 227.189258 349.93159 
L 232.955433 349.93159 
L 232.955433 345.369214 
L 241.707093 345.369214 
L 241.707093 340.806838 
L 243.345211 340.806838 
L 243.345211 336.244462 
L 261.993618 336.244462 
L 261.993618 331.682085 
L 266.935454 331.682085 
L 266.935454 327.119709 
L 278.069809 327.119709 
L 278.069809 322.557333 
L 278.069809 322.557333 
L 278.069809 317.994957 
L 283.091407 317.994957 
L 283.091407 313.43258 
L 283.091407 313.43258 
L 283.091407 308.870204 
L 287.808473 308.870204 
L 287.808473 304.307828 
L 288.718515 304.307828 
L 288.718515 299.745452 
L 289.618037 299.745452 
L 289.618037 295.183075 
L 290.507278 295.183075 
L 290.507278 290.620699 
L 445.854655 290.620699 
L 445.854655 286.058323 
L 446.214045 286.058323 
L 446.214045 281.495947 
L 448.452424 281.495947 
L 448.452424 276.933571 
L 450.741053 276.933571 
L 450.741053 272.371194 
L 451.637982 272.371194 
L 451.637982 267.808818 
L 451.860608 267.808818 
L 451.860608 263.246442 
L 453.183151 263.246442 
L 453.183151 258.684066 
L 453.944379 258.684066 
L 453.944379 254.121689 
L 454.268354 254.121689 
L 454.268354 249.559313 
L 456.184373 249.559313 
L 456.184373 244.996937 
L 456.499172 244.996937 
L 456.499172 240.434561 
L 458.25937 240.434561 
L 458.25937 235.872184 
L 463.216954 235.872184 
L 463.216954 231.309808 
L 463.312954 231.309808 
L 463.312954 226.747432 
L 463.981656 226.747432 
L 463.981656 222.185056 
L 521.9625 222.185056 
" style="fill:none;stroke:#f5deb3;stroke-linecap:square;"/>
   </g>
   <g id="line2d_10">
    <path clip-path="url(#p00bef74206)" d="M 301.227919 359.056343 
L 301.227919 354.493967 
L 315.285448 354.493967 
L 315.285448 349.93159 
L 315.925845 349.93159 
L 315.925845 336.244462 
L 318.43599 336.244462 
L 318.43599 331.682085 
L 320.266845 331.682085 
L 320.266845 327.119709 
L 328.283552 327.119709 
L 328.283552 322.557333 
L 329.364232 322.557333 
L 329.364232 317.994957 
L 339.888046 317.994957 
L 339.888046 313.43258 
L 345.318698 313.43258 
L 345.318698 308.870204 
L 358.182186 308.870204 
L 358.182186 304.307828 
L 358.551819 304.307828 
L 358.551819 299.745452 
L 371.436376 299.745452 
L 371.436376 295.183075 
L 372.983301 295.183075 
L 372.983301 290.620699 
L 521.9625 290.620699 
L 521.9625 290.620699 
" style="fill:none;stroke:#f5deb3;stroke-linecap:square;"/>
   </g>
   <g id="line2d_11">
    <path clip-path="url(#p00bef74206)" d="M 152.843057 359.056343 
L 152.843057 354.493967 
L 175.226953 354.493967 
L 175.226953 349.93159 
L 179.023207 349.93159 
L 179.023207 345.369214 
L 179.023207 345.369214 
L 179.023207 340.806838 
L 179.023207 340.806838 
L 179.023207 336.244462 
L 182.642825 336.244462 
L 182.642825 331.682085 
L 182.642825 331.682085 
L 182.642825 327.119709 
L 186.101517 327.119709 
L 186.101517 322.557333 
L 186.101517 322.557333 
L 186.101517 317.994957 
L 198.577418 317.994957 
L 198.577418 313.43258 
L 198.577418 313.43258 
L 198.577418 308.870204 
L 214.191155 308.870204 
L 214.191155 304.307828 
L 214.191155 304.307828 
L 214.191155 299.745452 
L 223.093168 299.745452 
L 223.093168 295.183075 
L 225.168164 295.183075 
L 225.168164 290.620699 
L 393.113995 290.620699 
L 393.113995 286.058323 
L 399.250924 286.058323 
L 399.250924 281.495947 
L 399.250924 281.495947 
L 399.250924 276.933571 
L 399.903861 276.933571 
L 399.903861 272.371194 
L 401.406402 272.371194 
L 401.406402 267.808818 
L 402.671596 267.808818 
L 402.671596 263.246442 
L 402.880476 263.246442 
L 402.880476 258.684066 
L 404.327143 258.684066 
L 404.327143 254.121689 
L 404.735584 254.121689 
L 404.735584 249.559313 
L 408.512436 249.559313 
L 408.512436 244.996937 
L 408.512436 244.996937 
L 408.512436 240.434561 
L 410.049429 240.434561 
L 410.049429 235.872184 
L 410.42898 235.872184 
L 410.42898 231.309808 
L 413.764109 231.309808 
L 413.764109 226.747432 
L 414.306325 226.747432 
L 414.306325 222.185056 
L 521.9625 222.185056 
" style="fill:none;stroke:#f5deb3;stroke-linecap:square;"/>
   </g>
   <g id="line2d_12">
    <path clip-path="url(#p00bef74206)" d="M 141.708701 359.056343 
L 141.708701 354.493967 
L 141.708701 354.493967 
L 141.708701 349.93159 
L 141.708701 349.93159 
L 141.708701 345.369214 
L 141.708701 345.369214 
L 141.708701 340.806838 
L 141.708701 340.806838 
L 141.708701 336.244462 
L 141.708701 336.244462 
L 141.708701 331.682085 
L 141.708701 331.682085 
L 141.708701 327.119709 
L 141.708701 327.119709 
L 141.708701 322.557333 
L 141.708701 322.557333 
L 141.708701 317.994957 
L 141.708701 317.994957 
L 141.708701 313.43258 
L 141.708701 313.43258 
L 141.708701 308.870204 
L 141.708701 308.870204 
L 141.708701 304.307828 
L 141.708701 304.307828 
L 141.708701 299.745452 
L 141.708701 299.745452 
L 141.708701 295.183075 
L 141.708701 295.183075 
L 141.708701 290.620699 
L 171.235937 290.620699 
L 171.235937 286.058323 
L 171.235937 286.058323 
L 171.235937 281.495947 
L 192.589252 281.495947 
L 192.589252 276.933571 
L 209.326586 276.933571 
L 209.326586 272.371194 
L 209.326586 272.371194 
L 209.326586 267.808818 
L 209.326586 267.808818 
L 209.326586 263.246442 
L 209.326586 263.246442 
L 209.326586 258.684066 
L 209.326586 258.684066 
L 209.326586 254.121689 
L 209.326586 254.121689 
L 209.326586 249.559313 
L 209.326586 249.559313 
L 209.326586 244.996937 
L 209.326586 244.996937 
L 209.326586 240.434561 
L 223.093168 240.434561 
L 223.093168 235.872184 
L 223.093168 235.872184 
L 223.093168 231.309808 
L 223.093168 231.309808 
L 223.093168 226.747432 
L 234.786288 226.747432 
L 234.786288 222.185056 
L 427.373671 222.185056 
L 427.373671 217.622679 
L 429.179735 217.622679 
L 429.179735 213.060303 
L 430.944826 213.060303 
L 430.944826 208.497927 
L 431.812579 208.497927 
L 431.812579 203.935551 
L 435.189938 203.935551 
L 435.189938 199.373175 
L 445.251959 199.373175 
L 445.251959 194.810798 
L 446.690664 194.810798 
L 446.690664 190.248422 
L 451.414717 190.248422 
L 451.414717 185.686046 
L 452.193357 185.686046 
L 452.193357 181.12367 
L 452.193357 181.12367 
L 452.193357 176.561293 
L 460.380154 176.561293 
L 460.380154 171.998917 
L 462.153065 171.998917 
L 462.153065 167.436541 
L 462.638455 167.436541 
L 462.638455 162.874165 
L 474.549579 162.874165 
L 474.549579 158.311788 
L 475.046226 158.311788 
L 475.046226 153.749412 
L 475.046226 153.749412 
L 475.046226 153.749412 
L 513.7625 153.749412 
" style="fill:none;stroke:#f5deb3;stroke-linecap:square;"/>
   </g>
   <g id="line2d_13">
    <path clip-path="url(#p00bef74206)" d="M 395.672926 359.056343 
L 395.672926 354.493967 
L 395.672926 354.493967 
L 395.672926 349.93159 
L 395.672926 349.93159 
L 395.672926 345.369214 
L 402.252147 345.369214 
L 402.252147 340.806838 
L 402.252147 340.806838 
L 402.252147 336.244462 
L 402.252147 336.244462 
L 402.252147 331.682085 
L 402.880476 331.682085 
L 402.880476 327.119709 
L 402.880476 327.119709 
L 402.880476 322.557333 
L 402.880476 322.557333 
L 402.880476 317.994957 
L 416.787876 317.994957 
L 416.787876 313.43258 
L 416.787876 313.43258 
L 416.787876 308.870204 
L 416.787876 308.870204 
L 416.787876 304.307828 
L 425.524687 304.307828 
L 425.524687 299.745452 
L 425.524687 299.745452 
L 425.524687 295.183075 
L 425.524687 295.183075 
L 425.524687 290.620699 
L 521.9625 290.620699 
" style="fill:none;stroke:#f5deb3;stroke-linecap:square;"/>
   </g>
   <g id="line2d_14">
    <path clip-path="url(#p00bef74206)" d="M 218.769402 359.056343 
L 218.769402 354.493967 
L 218.769402 354.493967 
L 218.769402 349.93159 
L 220.961315 349.93159 
L 220.961315 345.369214 
L 225.168164 345.369214 
L 225.168164 340.806838 
L 231.080457 340.806838 
L 231.080457 336.244462 
L 231.080457 336.244462 
L 231.080457 331.682085 
L 231.080457 331.682085 
L 231.080457 327.119709 
L 236.575051 327.119709 
L 236.575051 322.557333 
L 240.033743 322.557333 
L 240.033743 317.994957 
L 240.033743 317.994957 
L 240.033743 313.43258 
L 240.033743 313.43258 
L 240.033743 308.870204 
L 240.033743 308.870204 
L 240.033743 304.307828 
L 240.033743 304.307828 
L 240.033743 299.745452 
L 240.033743 299.745452 
L 240.033743 295.183075 
L 240.033743 295.183075 
L 240.033743 290.620699 
L 335.053712 290.620699 
L 335.053712 286.058323 
L 340.355361 286.058323 
L 340.355361 281.495947 
L 344.880343 281.495947 
L 344.880343 276.933571 
L 347.474175 276.933571 
L 347.474175 272.371194 
L 347.474175 272.371194 
L 347.474175 267.808818 
L 349.156571 267.808818 
L 349.156571 263.246442 
L 349.98432 263.246442 
L 349.98432 258.684066 
L 350.803357 258.684066 
L 350.803357 254.121689 
L 353.995918 254.121689 
L 353.995918 249.559313 
L 355.544382 249.559313 
L 355.544382 244.996937 
L 358.919705 244.996937 
L 358.919705 240.434561 
L 360.013041 240.434561 
L 360.013041 235.872184 
L 362.505951 235.872184 
L 362.505951 231.309808 
L 362.505951 231.309808 
L 362.505951 226.747432 
L 374.799907 226.747432 
L 374.799907 222.185056 
L 521.9625 222.185056 
" style="fill:none;stroke:#f5deb3;stroke-linecap:square;"/>
   </g>
   <g id="line2d_15">
    <path clip-path="url(#p00bef74206)" style="fill:none;stroke:#f5deb3;stroke-linecap:square;"/>
   </g>
   <g id="line2d_16">
    <path clip-path="url(#p00bef74206)" d="M 428.281943 359.056343 
L 428.281943 354.493967 
L 436.148005 354.493967 
L 436.148005 345.369214 
L 443.90936 345.369214 
L 443.90936 340.806838 
L 448.800039 340.806838 
L 448.800039 336.244462 
L 450.966256 336.244462 
L 450.966256 331.682085 
L 451.078614 331.682085 
L 451.078614 322.557333 
L 451.19081 322.557333 
L 451.19081 317.994957 
L 451.302844 317.994957 
L 451.302844 313.43258 
L 451.860608 313.43258 
L 451.860608 308.870204 
L 454.268354 308.870204 
L 454.268354 304.307828 
L 454.48359 304.307828 
L 454.48359 299.745452 
L 459.980626 299.745452 
L 459.980626 295.183075 
L 468.238552 295.183075 
L 468.238552 290.620699 
L 521.9625 290.620699 
L 521.9625 290.620699 
" style="fill:none;stroke:#f5deb3;stroke-linecap:square;"/>
   </g>
   <g id="line2d_17">
    <path clip-path="url(#p00bef74206)" d="M 315.925845 359.056343 
L 315.925845 354.493967 
L 324.3784 354.493967 
L 324.3784 349.93159 
L 342.650742 349.93159 
L 342.650742 345.369214 
L 358.919705 345.369214 
L 358.919705 340.806838 
L 361.447326 340.806838 
L 361.447326 336.244462 
L 383.296459 336.244462 
L 383.296459 331.682085 
L 389.977133 331.682085 
L 389.977133 327.119709 
L 390.222972 327.119709 
L 390.222972 322.557333 
L 394.752113 322.557333 
L 394.752113 317.994957 
L 415.910666 317.994957 
L 415.910666 313.43258 
L 432.385751 313.43258 
L 432.385751 308.870204 
L 433.378754 308.870204 
L 433.378754 304.307828 
L 434.080361 304.307828 
L 434.080361 299.745452 
L 477.482993 299.745452 
L 477.482993 295.183075 
L 478.040758 295.183075 
L 478.040758 290.620699 
L 521.9625 290.620699 
" style="fill:none;stroke:#f5deb3;stroke-linecap:square;"/>
   </g>
   <g id="line2d_18">
    <path clip-path="url(#p00bef74206)" d="M 135.480758 359.056343 
L 135.480758 354.493967 
L 135.480758 354.493967 
L 135.480758 349.93159 
L 135.480758 349.93159 
L 135.480758 345.369214 
L 135.480758 345.369214 
L 135.480758 340.806838 
L 135.480758 340.806838 
L 135.480758 336.244462 
L 135.480758 336.244462 
L 135.480758 331.682085 
L 135.480758 331.682085 
L 135.480758 327.119709 
L 135.480758 327.119709 
L 135.480758 322.557333 
L 135.480758 322.557333 
L 135.480758 317.994957 
L 135.480758 317.994957 
L 135.480758 313.43258 
L 135.480758 313.43258 
L 135.480758 308.870204 
L 135.480758 308.870204 
L 135.480758 304.307828 
L 135.480758 304.307828 
L 135.480758 299.745452 
L 135.480758 299.745452 
L 135.480758 295.183075 
L 135.480758 295.183075 
L 135.480758 290.620699 
L 141.708701 290.620699 
L 141.708701 286.058323 
L 141.708701 286.058323 
L 141.708701 281.495947 
L 141.708701 281.495947 
L 141.708701 276.933571 
L 141.708701 276.933571 
L 141.708701 272.371194 
L 141.708701 272.371194 
L 141.708701 267.808818 
L 147.474876 267.808818 
L 147.474876 263.246442 
L 152.843057 263.246442 
L 152.843057 258.684066 
L 157.864654 258.684066 
L 157.864654 254.121689 
L 157.864654 254.121689 
L 157.864654 249.559313 
L 162.58172 249.559313 
L 162.58172 244.996937 
L 162.58172 244.996937 
L 162.58172 240.434561 
L 162.58172 240.434561 
L 162.58172 235.872184 
L 162.58172 235.872184 
L 162.58172 231.309808 
L 167.029088 231.309808 
L 167.029088 226.747432 
L 179.023207 226.747432 
L 179.023207 222.185056 
L 521.9625 222.185056 
" style="fill:none;stroke:#f5deb3;stroke-linecap:square;"/>
   </g>
   <g id="line2d_19">
    <path clip-path="url(#p00bef74206)" d="M 454.376046 359.056343 
L 454.376046 357.535551 
L 454.376046 357.535551 
L 454.376046 357.535551 
L 454.376046 356.014759 
L 454.376046 356.014759 
L 454.376046 356.014759 
L 454.376046 354.493967 
L 467.967916 354.493967 
L 467.967916 349.93159 
L 482.364523 349.93159 
L 482.364523 345.369214 
L 504.954682 345.369214 
L 504.954682 340.806838 
L 506.180904 340.806838 
L 506.180904 336.244462 
L 510.064009 336.244462 
L 510.064009 331.682085 
L 515.694788 331.682085 
L 515.694788 327.119709 
L 519.000139 327.119709 
L 519.000139 322.557333 
L 521.35603 322.557333 
L 521.35603 317.994957 
L 521.9625 317.994957 
L 521.9625 317.994957 
" style="fill:none;stroke:#f5deb3;stroke-linecap:square;"/>
   </g>
   <g id="line2d_20">
    <path clip-path="url(#p00bef74206)" d="M 152.843057 359.056343 
L 152.843057 354.493967 
L 162.58172 354.493967 
L 162.58172 349.93159 
L 167.029088 349.93159 
L 167.029088 345.369214 
L 167.029088 345.369214 
L 167.029088 340.806838 
L 179.023207 340.806838 
L 179.023207 336.244462 
L 186.101517 336.244462 
L 186.101517 331.682085 
L 189.412985 331.682085 
L 189.412985 327.119709 
L 195.640928 327.119709 
L 195.640928 322.557333 
L 198.577418 322.557333 
L 198.577418 317.994957 
L 198.577418 317.994957 
L 198.577418 313.43258 
L 201.407103 313.43258 
L 201.407103 308.870204 
L 206.775284 308.870204 
L 206.775284 304.307828 
L 211.796881 304.307828 
L 211.796881 299.745452 
L 214.191155 299.745452 
L 214.191155 295.183075 
L 220.961315 295.183075 
L 220.961315 290.620699 
L 351.209665 290.620699 
L 351.209665 286.058323 
L 358.182186 286.058323 
L 358.182186 281.495947 
L 358.551819 281.495947 
L 358.551819 276.933571 
L 359.6503 276.933571 
L 359.6503 272.371194 
L 361.091226 272.371194 
L 361.091226 267.808818 
L 362.855649 267.808818 
L 362.855649 263.246442 
L 364.238935 263.246442 
L 364.238935 258.684066 
L 365.260496 258.684066 
L 365.260496 254.121689 
L 368.247087 254.121689 
L 368.247087 249.559313 
L 368.895489 249.559313 
L 368.895489 244.996937 
L 372.368217 244.996937 
L 372.368217 240.434561 
L 374.199072 240.434561 
L 374.199072 235.872184 
L 377.447686 235.872184 
L 377.447686 231.309808 
L 381.669757 231.309808 
L 381.669757 226.747432 
L 381.943247 226.747432 
L 381.943247 222.185056 
L 413.40052 222.185056 
L 413.40052 217.622679 
L 434.637127 217.622679 
L 434.637127 213.060303 
L 439.736702 213.060303 
L 439.736702 208.497927 
L 442.668381 208.497927 
L 442.668381 203.935551 
L 453.61905 203.935551 
L 453.61905 199.373175 
L 454.48359 199.373175 
L 454.48359 194.810798 
L 458.769586 194.810798 
L 458.769586 190.248422 
L 467.696335 190.248422 
L 467.696335 185.686046 
L 470.282734 185.686046 
L 470.282734 181.12367 
L 486.531834 181.12367 
L 486.531834 176.561293 
L 491.695676 176.561293 
L 491.695676 171.998917 
L 498.759503 171.998917 
L 498.759503 167.436541 
L 506.677023 167.436541 
L 506.677023 162.874165 
L 521.9625 162.874165 
" style="fill:none;stroke:#f5deb3;stroke-linecap:square;"/>
   </g>
   <g id="line2d_21">
    <path clip-path="url(#p00bef74206)" d="M 500.325346 359.056343 
L 500.325346 354.493967 
L 500.325346 354.493967 
L 500.325346 354.493967 
L 500.325346 349.93159 
L 500.325346 349.93159 
L 500.325346 349.93159 
L 500.325346 345.369214 
L 500.4445 345.369214 
L 500.504009 327.119709 
L 500.622891 327.119709 
L 500.682263 317.994957 
L 500.800872 317.994957 
L 500.800872 308.870204 
L 516.231227 308.870204 
L 516.279812 240.434561 
L 516.956826 240.434561 
L 517.053063 171.998917 
L 517.627999 171.998917 
L 517.67572 158.311788 
L 517.771072 158.311788 
L 517.771072 153.749412 
L 518.008944 153.749412 
L 518.008944 149.187036 
L 518.198719 149.187036 
L 518.293433 135.499907 
L 518.340747 135.499907 
L 518.435289 126.375155 
L 518.529716 126.375155 
L 518.529716 121.812778 
L 518.671142 121.812778 
L 518.765283 112.688026 
L 519.093883 112.688026 
L 519.093883 108.12565 
L 519.327751 108.12565 
L 519.327751 94.438521 
L 519.74695 94.438521 
L 519.74695 89.876145 
L 519.886182 89.876145 
L 519.978866 80.751392 
L 521.9625 80.751392 
L 521.9625 80.751392 
" style="fill:none;stroke:#f5deb3;stroke-linecap:square;"/>
   </g>
   <g id="line2d_22">
    <path clip-path="url(#p00bef74206)" d="M 167.029088 359.056343 
L 167.029088 354.493967 
L 167.029088 354.493967 
L 167.029088 349.93159 
L 179.023207 349.93159 
L 179.023207 345.369214 
L 182.642825 345.369214 
L 182.642825 340.806838 
L 192.589252 340.806838 
L 192.589252 336.244462 
L 192.589252 336.244462 
L 192.589252 331.682085 
L 192.589252 331.682085 
L 192.589252 327.119709 
L 201.407103 327.119709 
L 201.407103 322.557333 
L 220.961315 322.557333 
L 220.961315 317.994957 
L 231.080457 317.994957 
L 231.080457 313.43258 
L 232.955433 313.43258 
L 232.955433 308.870204 
L 241.707093 308.870204 
L 241.707093 304.307828 
L 244.949552 304.307828 
L 244.949552 299.745452 
L 307.869577 299.745452 
L 307.869577 295.183075 
L 320.86768 295.183075 
L 320.86768 290.620699 
L 357.06263 290.620699 
L 357.06263 286.058323 
L 358.551819 286.058323 
L 358.551819 281.495947 
L 359.6503 281.495947 
L 359.6503 276.933571 
L 361.801804 276.933571 
L 361.801804 272.371194 
L 363.550366 272.371194 
L 363.550366 267.808818 
L 364.921463 267.808818 
L 364.921463 263.246442 
L 365.260496 263.246442 
L 365.260496 258.684066 
L 365.93416 258.684066 
L 365.93416 254.121689 
L 366.268818 254.121689 
L 366.268818 249.559313 
L 369.538532 249.559313 
L 369.538532 244.996937 
L 370.176304 244.996937 
L 370.176304 240.434561 
L 372.368217 240.434561 
L 372.368217 235.872184 
L 372.676367 235.872184 
L 372.676367 231.309808 
L 375.098594 231.309808 
L 375.098594 226.747432 
L 380.008318 226.747432 
L 380.008318 222.185056 
L 430.3609 222.185056 
L 430.3609 217.622679 
L 438.558765 217.622679 
L 438.558765 213.060303 
L 441.661147 213.060303 
L 441.661147 208.497927 
L 443.16715 208.497927 
L 443.16715 203.935551 
L 447.400162 203.935551 
L 447.400162 199.373175 
L 450.966256 199.373175 
L 450.966256 194.810798 
L 461.566572 194.810798 
L 461.566572 190.248422 
L 468.058232 190.248422 
L 468.058232 185.686046 
L 469.133933 185.686046 
L 469.133933 181.12367 
L 471.068237 181.12367 
L 471.068237 176.561293 
L 473.714724 176.561293 
L 473.714724 171.998917 
L 473.714724 171.998917 
L 473.714724 167.436541 
L 474.881029 167.436541 
L 474.881029 162.874165 
L 475.375571 162.874165 
L 475.375571 158.311788 
L 519.886182 158.311788 
L 519.886182 153.749412 
L 521.9625 153.749412 
" style="fill:none;stroke:#f5deb3;stroke-linecap:square;"/>
   </g>
   <g id="line2d_23">
    <path clip-path="url(#p00bef74206)" d="M 284.057975 359.056343 
L 284.057975 354.493967 
L 312.001933 354.493967 
L 312.001933 349.93159 
L 315.285448 349.93159 
L 315.285448 345.369214 
L 317.19104 345.369214 
L 317.19104 340.806838 
L 327.18765 340.806838 
L 327.18765 336.244462 
L 327.18765 336.244462 
L 327.18765 331.682085 
L 335.550888 331.682085 
L 335.550888 327.119709 
L 336.044907 327.119709 
L 336.044907 322.557333 
L 337.990202 322.557333 
L 337.990202 317.994957 
L 338.46902 317.994957 
L 338.46902 313.43258 
L 338.94491 313.43258 
L 338.94491 308.870204 
L 352.01597 308.870204 
L 352.01597 304.307828 
L 360.733488 304.307828 
L 360.733488 299.745452 
L 366.602042 299.745452 
L 366.602042 295.183075 
L 380.843472 295.183075 
L 380.843472 290.620699 
L 521.9625 290.620699 
" style="fill:none;stroke:#f5deb3;stroke-linecap:square;"/>
   </g>
   <g id="line2d_24">
    <path clip-path="url(#p00bef74206)" d="M 355.544382 359.056343 
L 355.544382 354.493967 
L 355.544382 354.493967 
L 355.544382 349.93159 
L 355.92673 349.93159 
L 355.92673 345.369214 
L 370.808891 345.369214 
L 370.808891 340.806838 
L 370.808891 340.806838 
L 370.808891 336.244462 
L 371.123266 336.244462 
L 371.123266 331.682085 
L 384.889848 331.682085 
L 384.889848 327.119709 
L 384.889848 327.119709 
L 384.889848 322.557333 
L 385.152269 322.557333 
L 385.152269 317.994957 
L 385.413808 317.994957 
L 385.413808 313.43258 
L 396.808826 313.43258 
L 396.808826 308.870204 
L 396.808826 308.870204 
L 396.808826 304.307828 
L 397.034029 304.307828 
L 397.034029 299.745452 
L 397.258583 299.745452 
L 397.258583 295.183075 
L 416.262737 295.183075 
L 416.262737 290.620699 
L 496.850392 290.620699 
L 496.850392 286.058323 
L 504.560433 286.058323 
L 504.560433 281.495947 
L 504.673279 281.495947 
L 504.673279 276.933571 
L 510.221675 276.933571 
L 510.221675 272.371194 
L 511.057202 272.371194 
L 511.057202 267.808818 
L 511.832444 267.808818 
L 511.832444 263.246442 
L 512.191596 263.246442 
L 512.191596 258.684066 
L 517.197196 258.684066 
L 517.197196 254.121689 
L 517.913883 254.121689 
L 517.913883 249.559313 
L 518.812311 249.559313 
L 518.812311 244.996937 
L 520.670495 244.996937 
L 520.670495 240.434561 
L 521.401518 240.434561 
L 521.401518 235.872184 
L 521.9625 235.872184 
" style="fill:none;stroke:#f5deb3;stroke-linecap:square;"/>
   </g>
   <g id="line2d_25">
    <path clip-path="url(#p00bef74206)" d="M 302.75361 359.056343 
L 302.75361 354.493967 
L 315.925845 354.493967 
L 315.925845 349.93159 
L 319.051074 349.93159 
L 319.051074 345.369214 
L 326.633855 345.369214 
L 326.633855 340.806838 
L 328.283552 340.806838 
L 328.283552 336.244462 
L 337.990202 336.244462 
L 337.990202 331.682085 
L 338.46902 331.682085 
L 338.46902 327.119709 
L 339.417907 327.119709 
L 339.417907 322.557333 
L 339.417907 322.557333 
L 339.417907 317.994957 
L 340.819887 317.994957 
L 340.819887 313.43258 
L 343.996154 313.43258 
L 343.996154 308.870204 
L 345.754597 308.870204 
L 345.754597 304.307828 
L 363.203783 304.307828 
L 363.203783 299.745452 
L 364.238935 299.745452 
L 364.238935 295.183075 
L 365.598057 295.183075 
L 365.598057 290.620699 
L 521.9625 290.620699 
" style="fill:none;stroke:#f5deb3;stroke-linecap:square;"/>
   </g>
   <g id="line2d_26">
    <path clip-path="url(#p00bef74206)" d="M 443.415341 359.056343 
L 443.415341 354.493967 
L 443.90936 354.493967 
L 443.90936 349.93159 
L 444.277827 349.93159 
L 444.277827 345.369214 
L 447.7525 345.369214 
L 447.7525 340.806838 
L 450.628206 340.806838 
L 450.628206 336.244462 
L 451.078614 336.244462 
L 451.078614 331.682085 
L 451.302844 331.682085 
L 451.302844 327.119709 
L 451.414717 327.119709 
L 451.414717 317.994957 
L 454.590985 317.994957 
L 454.590985 313.43258 
L 455.338629 313.43258 
L 455.338629 308.870204 
L 458.25937 308.870204 
L 458.25937 304.307828 
L 458.871229 304.307828 
L 458.871229 299.745452 
L 460.579151 299.745452 
L 460.579151 295.183075 
L 460.876695 295.183075 
L 460.876695 290.620699 
L 520.256256 290.620699 
L 520.256256 286.058323 
L 520.808086 286.058323 
L 520.808086 281.495947 
L 521.35603 281.495947 
L 521.35603 276.933571 
L 521.9625 276.933571 
L 521.9625 276.933571 
" style="fill:none;stroke:#f5deb3;stroke-linecap:square;"/>
   </g>
   <g id="line2d_27">
    <path clip-path="url(#p00bef74206)" d="M 413.945268 359.056343 
L 413.945268 354.493967 
L 431.524402 354.493967 
L 431.524402 349.93159 
L 434.080361 349.93159 
L 434.080361 345.369214 
L 437.630102 345.369214 
L 437.630102 340.806838 
L 439.606697 340.806838 
L 439.606697 336.244462 
L 450.288681 336.244462 
L 450.288681 331.682085 
L 461.370088 331.682085 
L 461.370088 327.119709 
L 461.468392 327.119709 
L 461.468392 322.557333 
L 464.266492 322.557333 
L 464.266492 317.994957 
L 468.597942 317.994957 
L 468.597942 313.43258 
L 482.439591 313.43258 
L 482.439591 308.870204 
L 482.813847 308.870204 
L 482.813847 304.307828 
L 521.9625 304.307828 
" style="fill:none;stroke:#f5deb3;stroke-linecap:square;"/>
   </g>
   <g id="line2d_28">
    <path clip-path="url(#p00bef74206)" d="M 238.323614 359.056343 
L 238.323614 354.493967 
L 268.123382 354.493967 
L 268.123382 349.93159 
L 288.718515 349.93159 
L 288.718515 345.369214 
L 288.718515 345.369214 
L 288.718515 340.806838 
L 290.507278 340.806838 
L 290.507278 336.244462 
L 298.881778 336.244462 
L 298.881778 331.682085 
L 305.718073 331.682085 
L 305.718073 327.119709 
L 305.718073 327.119709 
L 305.718073 322.557333 
L 306.441872 322.557333 
L 306.441872 317.994957 
L 319.661335 317.994957 
L 319.661335 313.43258 
L 320.266845 313.43258 
L 320.266845 308.870204 
L 320.266845 308.870204 
L 320.266845 304.307828 
L 332.002036 304.307828 
L 332.002036 299.745452 
L 349.571546 299.745452 
L 349.571546 295.183075 
L 359.28586 295.183075 
L 359.28586 290.620699 
L 472.189033 290.620699 
L 472.189033 286.058323 
L 472.870813 286.058323 
L 472.870813 281.495947 
L 473.46251 281.495947 
L 473.46251 276.933571 
L 473.882413 276.933571 
L 473.882413 272.371194 
L 474.383323 272.371194 
L 474.383323 267.808818 
L 476.598348 267.808818 
L 476.598348 263.246442 
L 476.921202 263.246442 
L 476.921202 258.684066 
L 477.482993 258.684066 
L 477.482993 254.121689 
L 478.436727 254.121689 
L 478.436727 249.559313 
L 478.98772 249.559313 
L 478.98772 244.996937 
L 480.847755 244.996937 
L 480.847755 240.434561 
L 481.305898 240.434561 
L 481.305898 235.872184 
L 487.028556 235.872184 
L 487.028556 231.309808 
L 490.148216 231.309808 
L 490.148216 226.747432 
L 492.9512 226.747432 
L 492.9512 222.185056 
L 500.325346 222.185056 
L 500.325346 217.622679 
L 509.270855 217.622679 
L 509.270855 213.060303 
L 511.574887 213.060303 
L 511.574887 208.497927 
L 512.803456 208.497927 
L 512.803456 203.935551 
L 515.890285 203.935551 
L 515.890285 199.373175 
L 518.812311 199.373175 
L 518.812311 194.810798 
L 520.716386 194.810798 
L 520.716386 190.248422 
L 521.719194 190.248422 
L 521.719194 185.686046 
L 521.809721 185.686046 
L 521.809721 181.12367 
L 521.9625 181.12367 
" style="fill:none;stroke:#f5deb3;stroke-linecap:square;"/>
   </g>
   <g id="line2d_29">
    <path clip-path="url(#p00bef74206)" d="M 121.294727 359.056343 
L 121.294727 354.493967 
L 121.294727 354.493967 
L 121.294727 349.93159 
L 121.294727 349.93159 
L 121.294727 345.369214 
L 121.294727 345.369214 
L 121.294727 340.806838 
L 121.294727 340.806838 
L 121.294727 336.244462 
L 121.294727 336.244462 
L 121.294727 331.682085 
L 121.294727 331.682085 
L 121.294727 327.119709 
L 121.294727 327.119709 
L 121.294727 322.557333 
L 121.294727 322.557333 
L 121.294727 317.994957 
L 121.294727 317.994957 
L 121.294727 313.43258 
L 121.294727 313.43258 
L 121.294727 308.870204 
L 121.294727 308.870204 
L 121.294727 304.307828 
L 121.294727 304.307828 
L 121.294727 299.745452 
L 121.294727 299.745452 
L 121.294727 295.183075 
L 121.294727 295.183075 
L 121.294727 290.620699 
L 157.864654 290.620699 
L 157.864654 286.058323 
L 157.864654 286.058323 
L 157.864654 281.495947 
L 157.864654 281.495947 
L 157.864654 276.933571 
L 162.58172 276.933571 
L 162.58172 272.371194 
L 162.58172 272.371194 
L 162.58172 267.808818 
L 162.58172 267.808818 
L 162.58172 263.246442 
L 162.58172 263.246442 
L 162.58172 258.684066 
L 162.58172 258.684066 
L 162.58172 254.121689 
L 162.58172 254.121689 
L 162.58172 249.559313 
L 252.509645 249.559313 
L 252.509645 244.996937 
L 252.509645 244.996937 
L 252.509645 240.434561 
L 252.509645 240.434561 
L 252.509645 235.872184 
L 253.93735 235.872184 
L 253.93735 231.309808 
L 253.93735 231.309808 
L 253.93735 226.747432 
L 253.93735 226.747432 
L 253.93735 222.185056 
L 458.463858 222.185056 
L 458.463858 217.622679 
L 458.463858 217.622679 
L 458.463858 213.060303 
L 458.463858 213.060303 
L 458.463858 208.497927 
L 485.960241 208.497927 
L 485.960241 203.935551 
L 485.960241 203.935551 
L 485.960241 199.373175 
L 485.960241 199.373175 
L 485.960241 194.810798 
L 487.099258 194.810798 
L 487.099258 190.248422 
L 487.099258 190.248422 
L 487.099258 185.686046 
L 487.099258 185.686046 
L 487.099258 181.12367 
L 521.9625 181.12367 
" style="fill:none;stroke:#f5deb3;stroke-linecap:square;"/>
   </g>
   <g id="line2d_30">
    <path clip-path="url(#p00bef74206)" d="M 231.080457 359.056343 
L 231.080457 354.493967 
L 238.323614 354.493967 
L 238.323614 349.93159 
L 272.701629 349.93159 
L 272.701629 345.369214 
L 273.805303 345.369214 
L 273.805303 340.806838 
L 280.1175 340.806838 
L 280.1175 336.244462 
L 284.057975 336.244462 
L 284.057975 331.682085 
L 285.955819 331.682085 
L 285.955819 327.119709 
L 285.955819 327.119709 
L 285.955819 322.557333 
L 286.88766 322.557333 
L 286.88766 317.994957 
L 286.88766 317.994957 
L 286.88766 313.43258 
L 286.88766 313.43258 
L 286.88766 308.870204 
L 290.507278 308.870204 
L 290.507278 304.307828 
L 291.386471 304.307828 
L 291.386471 299.745452 
L 292.255841 299.745452 
L 292.255841 295.183075 
L 292.255841 295.183075 
L 292.255841 290.620699 
L 292.255841 290.620699 
L 292.255841 286.058323 
L 293.115603 286.058323 
L 293.115603 281.495947 
L 293.96597 281.495947 
L 293.96597 276.933571 
L 293.96597 276.933571 
L 293.96597 272.371194 
L 294.807143 272.371194 
L 294.807143 267.808818 
L 296.46269 267.808818 
L 296.46269 263.246442 
L 297.277438 263.246442 
L 297.277438 258.684066 
L 298.083743 258.684066 
L 298.083743 254.121689 
L 301.994504 254.121689 
L 301.994504 249.559313 
L 303.505381 249.559313 
L 303.505381 244.996937 
L 304.987479 244.996937 
L 304.987479 240.434561 
L 304.987479 240.434561 
L 304.987479 235.872184 
L 306.441872 235.872184 
L 306.441872 231.309808 
L 307.158999 231.309808 
L 307.158999 226.747432 
L 313.988622 226.747432 
L 313.988622 222.185056 
L 327.73753 222.185056 
L 327.73753 217.622679 
L 327.73753 217.622679 
L 327.73753 213.060303 
L 327.73753 213.060303 
L 327.73753 208.497927 
L 327.73753 208.497927 
L 327.73753 203.935551 
L 327.73753 203.935551 
L 327.73753 199.373175 
L 327.73753 199.373175 
L 327.73753 194.810798 
L 327.73753 194.810798 
L 327.73753 190.248422 
L 327.73753 190.248422 
L 327.73753 185.686046 
L 327.73753 185.686046 
L 327.73753 181.12367 
L 327.73753 181.12367 
L 327.73753 176.561293 
L 327.73753 176.561293 
L 327.73753 171.998917 
L 327.73753 171.998917 
L 327.73753 167.436541 
L 327.73753 167.436541 
L 327.73753 162.874165 
L 327.73753 162.874165 
L 327.73753 158.311788 
L 327.73753 158.311788 
L 327.73753 153.749412 
L 327.73753 153.749412 
L 327.73753 153.749412 
L 513.7625 153.749412 
" style="fill:none;stroke:#f5deb3;stroke-linecap:square;"/>
   </g>
   <g id="line2d_31">
    <path clip-path="url(#p00bef74206)" d="M -1 354.493967 
L 513.7625 354.493967 
" style="fill:none;stroke:#000000;stroke-linecap:square;"/>
   </g>
   <g id="line2d_32"/>
   <g id="line2d_33"/>
   <g id="line2d_34"/>
   <g id="line2d_35"/>
   <g id="line2d_36">
    <path clip-path="url(#p00bef74206)" d="M 513.7625 359.056343 
L 513.7625 13.456343 
" style="fill:none;stroke:#000000;stroke-linecap:square;"/>
   </g>
   <g id="patch_3">
    <path d="M 67.3625 13.456343 
L 513.7625 13.456343 
" style="fill:none;stroke:#000000;stroke-linecap:square;stroke-linejoin:miter;"/>
   </g>
   <g id="patch_4">
    <path d="M 513.7625 359.056343 
L 513.7625 13.456343 
" style="fill:none;stroke:#000000;stroke-linecap:square;stroke-linejoin:miter;"/>
   </g>
   <g id="patch_5">
    <path d="M 67.3625 359.056343 
L 513.7625 359.056343 
" style="fill:none;stroke:#000000;stroke-linecap:square;stroke-linejoin:miter;"/>
   </g>
   <g id="patch_6">
    <path d="M 67.3625 359.056343 
L 67.3625 13.456343 
" style="fill:none;stroke:#000000;stroke-linecap:square;stroke-linejoin:miter;"/>
   </g>
   <g id="matplotlib.axis_1">
    <g id="xtick_1">
     <g id="line2d_37">
      <path clip-path="url(#p00bef74206)" d="M 67.3625 359.056343 
L 67.3625 13.456343 
" style="fill:none;stroke:#000000;stroke-dasharray:1.000000,3.000000;stroke-dashoffset:0.0;stroke-width:0.5;"/>
     </g>
     <g id="line2d_38">
      <defs>
       <path d="M 0 0 
L 0 -4 
" id="m5ec42f08cf" style="stroke:#000000;stroke-width:0.5;"/>
      </defs>
      <g>
       <use style="stroke:#000000;stroke-width:0.5;" x="67.3625" xlink:href="#m5ec42f08cf" y="359.056342822"/>
      </g>
     </g>
     <g id="line2d_39">
      <defs>
       <path d="M 0 0 
L 0 4 
" id="m5c68001ff7" style="stroke:#000000;stroke-width:0.5;"/>
      </defs>
      <g>
       <use style="stroke:#000000;stroke-width:0.5;" x="67.3625" xlink:href="#m5c68001ff7" y="13.4563428218"/>
      </g>
     </g>
     <g id="text_1">
      <!-- 0 -->
      <defs>
       <path d="M 31.78125 66.40625 
Q 24.171875 66.40625 20.328125 58.90625 
Q 16.5 51.421875 16.5 36.375 
Q 16.5 21.390625 20.328125 13.890625 
Q 24.171875 6.390625 31.78125 6.390625 
Q 39.453125 6.390625 43.28125 13.890625 
Q 47.125 21.390625 47.125 36.375 
Q 47.125 51.421875 43.28125 58.90625 
Q 39.453125 66.40625 31.78125 66.40625 
M 31.78125 74.21875 
Q 44.046875 74.21875 50.515625 64.515625 
Q 56.984375 54.828125 56.984375 36.375 
Q 56.984375 17.96875 50.515625 8.265625 
Q 44.046875 -1.421875 31.78125 -1.421875 
Q 19.53125 -1.421875 13.0625 8.265625 
Q 6.59375 17.96875 6.59375 36.375 
Q 6.59375 54.828125 13.0625 64.515625 
Q 19.53125 74.21875 31.78125 74.21875 
" id="BitstreamVeraSans-Roman-30"/>
      </defs>
      <g transform="translate(61.0 378.253217822)scale(0.2 -0.2)">
       <use xlink:href="#BitstreamVeraSans-Roman-30"/>
      </g>
     </g>
    </g>
    <g id="xtick_2">
     <g id="line2d_40">
      <path clip-path="url(#p00bef74206)" d="M 246.521479 359.056343 
L 246.521479 13.456343 
" style="fill:none;stroke:#000000;stroke-dasharray:1.000000,3.000000;stroke-dashoffset:0.0;stroke-width:0.5;"/>
     </g>
     <g id="line2d_41">
      <g>
       <use style="stroke:#000000;stroke-width:0.5;" x="246.521479099" xlink:href="#m5ec42f08cf" y="359.056342822"/>
      </g>
     </g>
     <g id="line2d_42">
      <g>
       <use style="stroke:#000000;stroke-width:0.5;" x="246.521479099" xlink:href="#m5c68001ff7" y="13.4563428218"/>
      </g>
     </g>
     <g id="text_2">
      <!-- 1 -->
      <defs>
       <path d="M 12.40625 8.296875 
L 28.515625 8.296875 
L 28.515625 63.921875 
L 10.984375 60.40625 
L 10.984375 69.390625 
L 28.421875 72.90625 
L 38.28125 72.90625 
L 38.28125 8.296875 
L 54.390625 8.296875 
L 54.390625 0 
L 12.40625 0 
z
" id="BitstreamVeraSans-Roman-31"/>
      </defs>
      <g transform="translate(240.158979099 378.253217822)scale(0.2 -0.2)">
       <use xlink:href="#BitstreamVeraSans-Roman-31"/>
      </g>
     </g>
    </g>
    <g id="xtick_3">
     <g id="line2d_43">
      <path clip-path="url(#p00bef74206)" d="M 425.680458 359.056343 
L 425.680458 13.456343 
" style="fill:none;stroke:#000000;stroke-dasharray:1.000000,3.000000;stroke-dashoffset:0.0;stroke-width:0.5;"/>
     </g>
     <g id="line2d_44">
      <g>
       <use style="stroke:#000000;stroke-width:0.5;" x="425.680458198" xlink:href="#m5ec42f08cf" y="359.056342822"/>
      </g>
     </g>
     <g id="line2d_45">
      <g>
       <use style="stroke:#000000;stroke-width:0.5;" x="425.680458198" xlink:href="#m5c68001ff7" y="13.4563428218"/>
      </g>
     </g>
     <g id="text_3">
      <!-- 2 -->
      <defs>
       <path d="M 19.1875 8.296875 
L 53.609375 8.296875 
L 53.609375 0 
L 7.328125 0 
L 7.328125 8.296875 
Q 12.9375 14.109375 22.625 23.890625 
Q 32.328125 33.6875 34.8125 36.53125 
Q 39.546875 41.84375 41.421875 45.53125 
Q 43.3125 49.21875 43.3125 52.78125 
Q 43.3125 58.59375 39.234375 62.25 
Q 35.15625 65.921875 28.609375 65.921875 
Q 23.96875 65.921875 18.8125 64.3125 
Q 13.671875 62.703125 7.8125 59.421875 
L 7.8125 69.390625 
Q 13.765625 71.78125 18.9375 73 
Q 24.125 74.21875 28.421875 74.21875 
Q 39.75 74.21875 46.484375 68.546875 
Q 53.21875 62.890625 53.21875 53.421875 
Q 53.21875 48.921875 51.53125 44.890625 
Q 49.859375 40.875 45.40625 35.40625 
Q 44.1875 33.984375 37.640625 27.21875 
Q 31.109375 20.453125 19.1875 8.296875 
" id="BitstreamVeraSans-Roman-32"/>
      </defs>
      <g transform="translate(419.317958198 378.253217822)scale(0.2 -0.2)">
       <use xlink:href="#BitstreamVeraSans-Roman-32"/>
      </g>
     </g>
    </g>
    <g id="xtick_4">
     <g id="line2d_46">
      <defs>
       <path d="M 0 0 
L 0 -2 
" id="mabf8ece412" style="stroke:#000000;stroke-width:0.5;"/>
      </defs>
      <g>
       <use style="stroke:#000000;stroke-width:0.5;" x="121.294726701" xlink:href="#mabf8ece412" y="359.056342822"/>
      </g>
     </g>
     <g id="line2d_47">
      <defs>
       <path d="M 0 0 
L 0 2 
" id="m0ad3fbf4e8" style="stroke:#000000;stroke-width:0.5;"/>
      </defs>
      <g>
       <use style="stroke:#000000;stroke-width:0.5;" x="121.294726701" xlink:href="#m0ad3fbf4e8" y="13.4563428218"/>
      </g>
     </g>
    </g>
    <g id="xtick_5">
     <g id="line2d_48">
      <g>
       <use style="stroke:#000000;stroke-width:0.5;" x="152.843056902" xlink:href="#mabf8ece412" y="359.056342822"/>
      </g>
     </g>
     <g id="line2d_49">
      <g>
       <use style="stroke:#000000;stroke-width:0.5;" x="152.843056902" xlink:href="#m0ad3fbf4e8" y="13.4563428218"/>
      </g>
     </g>
    </g>
    <g id="xtick_6">
     <g id="line2d_50">
      <g>
       <use style="stroke:#000000;stroke-width:0.5;" x="175.226953403" xlink:href="#mabf8ece412" y="359.056342822"/>
      </g>
     </g>
     <g id="line2d_51">
      <g>
       <use style="stroke:#000000;stroke-width:0.5;" x="175.226953403" xlink:href="#m0ad3fbf4e8" y="13.4563428218"/>
      </g>
     </g>
    </g>
    <g id="xtick_7">
     <g id="line2d_52">
      <g>
       <use style="stroke:#000000;stroke-width:0.5;" x="192.589252398" xlink:href="#mabf8ece412" y="359.056342822"/>
      </g>
     </g>
     <g id="line2d_53">
      <g>
       <use style="stroke:#000000;stroke-width:0.5;" x="192.589252398" xlink:href="#m0ad3fbf4e8" y="13.4563428218"/>
      </g>
     </g>
    </g>
    <g id="xtick_8">
     <g id="line2d_54">
      <g>
       <use style="stroke:#000000;stroke-width:0.5;" x="206.775283603" xlink:href="#mabf8ece412" y="359.056342822"/>
      </g>
     </g>
     <g id="line2d_55">
      <g>
       <use style="stroke:#000000;stroke-width:0.5;" x="206.775283603" xlink:href="#m0ad3fbf4e8" y="13.4563428218"/>
      </g>
     </g>
    </g>
    <g id="xtick_9">
     <g id="line2d_56">
      <g>
       <use style="stroke:#000000;stroke-width:0.5;" x="218.769402088" xlink:href="#mabf8ece412" y="359.056342822"/>
      </g>
     </g>
     <g id="line2d_57">
      <g>
       <use style="stroke:#000000;stroke-width:0.5;" x="218.769402088" xlink:href="#m0ad3fbf4e8" y="13.4563428218"/>
      </g>
     </g>
    </g>
    <g id="xtick_10">
     <g id="line2d_58">
      <g>
       <use style="stroke:#000000;stroke-width:0.5;" x="229.159180104" xlink:href="#mabf8ece412" y="359.056342822"/>
      </g>
     </g>
     <g id="line2d_59">
      <g>
       <use style="stroke:#000000;stroke-width:0.5;" x="229.159180104" xlink:href="#m0ad3fbf4e8" y="13.4563428218"/>
      </g>
     </g>
    </g>
    <g id="xtick_11">
     <g id="line2d_60">
      <g>
       <use style="stroke:#000000;stroke-width:0.5;" x="238.323613804" xlink:href="#mabf8ece412" y="359.056342822"/>
      </g>
     </g>
     <g id="line2d_61">
      <g>
       <use style="stroke:#000000;stroke-width:0.5;" x="238.323613804" xlink:href="#m0ad3fbf4e8" y="13.4563428218"/>
      </g>
     </g>
    </g>
    <g id="xtick_12">
     <g id="line2d_62">
      <g>
       <use style="stroke:#000000;stroke-width:0.5;" x="300.4537058" xlink:href="#mabf8ece412" y="359.056342822"/>
      </g>
     </g>
     <g id="line2d_63">
      <g>
       <use style="stroke:#000000;stroke-width:0.5;" x="300.4537058" xlink:href="#m0ad3fbf4e8" y="13.4563428218"/>
      </g>
     </g>
    </g>
    <g id="xtick_13">
     <g id="line2d_64">
      <g>
       <use style="stroke:#000000;stroke-width:0.5;" x="332.002036001" xlink:href="#mabf8ece412" y="359.056342822"/>
      </g>
     </g>
     <g id="line2d_65">
      <g>
       <use style="stroke:#000000;stroke-width:0.5;" x="332.002036001" xlink:href="#m0ad3fbf4e8" y="13.4563428218"/>
      </g>
     </g>
    </g>
    <g id="xtick_14">
     <g id="line2d_66">
      <g>
       <use style="stroke:#000000;stroke-width:0.5;" x="354.385932502" xlink:href="#mabf8ece412" y="359.056342822"/>
      </g>
     </g>
     <g id="line2d_67">
      <g>
       <use style="stroke:#000000;stroke-width:0.5;" x="354.385932502" xlink:href="#m0ad3fbf4e8" y="13.4563428218"/>
      </g>
     </g>
    </g>
    <g id="xtick_15">
     <g id="line2d_68">
      <g>
       <use style="stroke:#000000;stroke-width:0.5;" x="371.748231497" xlink:href="#mabf8ece412" y="359.056342822"/>
      </g>
     </g>
     <g id="line2d_69">
      <g>
       <use style="stroke:#000000;stroke-width:0.5;" x="371.748231497" xlink:href="#m0ad3fbf4e8" y="13.4563428218"/>
      </g>
     </g>
    </g>
    <g id="xtick_16">
     <g id="line2d_70">
      <g>
       <use style="stroke:#000000;stroke-width:0.5;" x="385.934262702" xlink:href="#mabf8ece412" y="359.056342822"/>
      </g>
     </g>
     <g id="line2d_71">
      <g>
       <use style="stroke:#000000;stroke-width:0.5;" x="385.934262702" xlink:href="#m0ad3fbf4e8" y="13.4563428218"/>
      </g>
     </g>
    </g>
    <g id="xtick_17">
     <g id="line2d_72">
      <g>
       <use style="stroke:#000000;stroke-width:0.5;" x="397.928381187" xlink:href="#mabf8ece412" y="359.056342822"/>
      </g>
     </g>
     <g id="line2d_73">
      <g>
       <use style="stroke:#000000;stroke-width:0.5;" x="397.928381187" xlink:href="#m0ad3fbf4e8" y="13.4563428218"/>
      </g>
     </g>
    </g>
    <g id="xtick_18">
     <g id="line2d_74">
      <g>
       <use style="stroke:#000000;stroke-width:0.5;" x="408.318159203" xlink:href="#mabf8ece412" y="359.056342822"/>
      </g>
     </g>
     <g id="line2d_75">
      <g>
       <use style="stroke:#000000;stroke-width:0.5;" x="408.318159203" xlink:href="#m0ad3fbf4e8" y="13.4563428218"/>
      </g>
     </g>
    </g>
    <g id="xtick_19">
     <g id="line2d_76">
      <g>
       <use style="stroke:#000000;stroke-width:0.5;" x="417.482592903" xlink:href="#mabf8ece412" y="359.056342822"/>
      </g>
     </g>
     <g id="line2d_77">
      <g>
       <use style="stroke:#000000;stroke-width:0.5;" x="417.482592903" xlink:href="#m0ad3fbf4e8" y="13.4563428218"/>
      </g>
     </g>
    </g>
    <g id="xtick_20">
     <g id="line2d_78">
      <g>
       <use style="stroke:#000000;stroke-width:0.5;" x="479.612684899" xlink:href="#mabf8ece412" y="359.056342822"/>
      </g>
     </g>
     <g id="line2d_79">
      <g>
       <use style="stroke:#000000;stroke-width:0.5;" x="479.612684899" xlink:href="#m0ad3fbf4e8" y="13.4563428218"/>
      </g>
     </g>
    </g>
    <g id="xtick_21">
     <g id="line2d_80">
      <g>
       <use style="stroke:#000000;stroke-width:0.5;" x="511.1610151" xlink:href="#mabf8ece412" y="359.056342822"/>
      </g>
     </g>
     <g id="line2d_81">
      <g>
       <use style="stroke:#000000;stroke-width:0.5;" x="511.1610151" xlink:href="#m0ad3fbf4e8" y="13.4563428218"/>
      </g>
     </g>
    </g>
    <g id="text_4">
     <!-- log10 of FEvals / DIM -->
     <defs>
      <path id="BitstreamVeraSans-Roman-20"/>
      <path d="M 9.8125 72.90625 
L 24.515625 72.90625 
L 43.109375 23.296875 
L 61.8125 72.90625 
L 76.515625 72.90625 
L 76.515625 0 
L 66.890625 0 
L 66.890625 64.015625 
L 48.09375 14.015625 
L 38.1875 14.015625 
L 19.390625 64.015625 
L 19.390625 0 
L 9.8125 0 
z
" id="BitstreamVeraSans-Roman-4d"/>
      <path d="M 30.609375 48.390625 
Q 23.390625 48.390625 19.1875 42.75 
Q 14.984375 37.109375 14.984375 27.296875 
Q 14.984375 17.484375 19.15625 11.84375 
Q 23.34375 6.203125 30.609375 6.203125 
Q 37.796875 6.203125 41.984375 11.859375 
Q 46.1875 17.53125 46.1875 27.296875 
Q 46.1875 37.015625 41.984375 42.703125 
Q 37.796875 48.390625 30.609375 48.390625 
M 30.609375 56 
Q 42.328125 56 49.015625 48.375 
Q 55.71875 40.765625 55.71875 27.296875 
Q 55.71875 13.875 49.015625 6.21875 
Q 42.328125 -1.421875 30.609375 -1.421875 
Q 18.84375 -1.421875 12.171875 6.21875 
Q 5.515625 13.875 5.515625 27.296875 
Q 5.515625 40.765625 12.171875 48.375 
Q 18.84375 56 30.609375 56 
" id="BitstreamVeraSans-Roman-6f"/>
      <path d="M 9.421875 75.984375 
L 18.40625 75.984375 
L 18.40625 0 
L 9.421875 0 
z
" id="BitstreamVeraSans-Roman-6c"/>
      <path d="M 9.8125 72.90625 
L 51.703125 72.90625 
L 51.703125 64.59375 
L 19.671875 64.59375 
L 19.671875 43.109375 
L 48.578125 43.109375 
L 48.578125 34.8125 
L 19.671875 34.8125 
L 19.671875 0 
L 9.8125 0 
z
" id="BitstreamVeraSans-Roman-46"/>
      <path d="M 9.8125 72.90625 
L 55.90625 72.90625 
L 55.90625 64.59375 
L 19.671875 64.59375 
L 19.671875 43.015625 
L 54.390625 43.015625 
L 54.390625 34.71875 
L 19.671875 34.71875 
L 19.671875 8.296875 
L 56.78125 8.296875 
L 56.78125 0 
L 9.8125 0 
z
" id="BitstreamVeraSans-Roman-45"/>
      <path d="M 19.671875 64.796875 
L 19.671875 8.109375 
L 31.59375 8.109375 
Q 46.6875 8.109375 53.6875 14.9375 
Q 60.6875 21.78125 60.6875 36.53125 
Q 60.6875 51.171875 53.6875 57.984375 
Q 46.6875 64.796875 31.59375 64.796875 
z
M 9.8125 72.90625 
L 30.078125 72.90625 
Q 51.265625 72.90625 61.171875 64.09375 
Q 71.09375 55.28125 71.09375 36.53125 
Q 71.09375 17.671875 61.125 8.828125 
Q 51.171875 0 30.078125 0 
L 9.8125 0 
z
" id="BitstreamVeraSans-Roman-44"/>
      <path d="M 25.390625 72.90625 
L 33.6875 72.90625 
L 8.296875 -9.28125 
L 0 -9.28125 
z
" id="BitstreamVeraSans-Roman-2f"/>
      <path d="M 2.984375 54.6875 
L 12.5 54.6875 
L 29.59375 8.796875 
L 46.6875 54.6875 
L 56.203125 54.6875 
L 35.6875 0 
L 23.484375 0 
z
" id="BitstreamVeraSans-Roman-76"/>
      <path d="M 45.40625 27.984375 
Q 45.40625 37.75 41.375 43.109375 
Q 37.359375 48.484375 30.078125 48.484375 
Q 22.859375 48.484375 18.828125 43.109375 
Q 14.796875 37.75 14.796875 27.984375 
Q 14.796875 18.265625 18.828125 12.890625 
Q 22.859375 7.515625 30.078125 7.515625 
Q 37.359375 7.515625 41.375 12.890625 
Q 45.40625 18.265625 45.40625 27.984375 
M 54.390625 6.78125 
Q 54.390625 -7.171875 48.1875 -13.984375 
Q 42 -20.796875 29.203125 -20.796875 
Q 24.46875 -20.796875 20.265625 -20.09375 
Q 16.0625 -19.390625 12.109375 -17.921875 
L 12.109375 -9.1875 
Q 16.0625 -11.328125 19.921875 -12.34375 
Q 23.78125 -13.375 27.78125 -13.375 
Q 36.625 -13.375 41.015625 -8.765625 
Q 45.40625 -4.15625 45.40625 5.171875 
L 45.40625 9.625 
Q 42.625 4.78125 38.28125 2.390625 
Q 33.9375 0 27.875 0 
Q 17.828125 0 11.671875 7.65625 
Q 5.515625 15.328125 5.515625 27.984375 
Q 5.515625 40.671875 11.671875 48.328125 
Q 17.828125 56 27.875 56 
Q 33.9375 56 38.28125 53.609375 
Q 42.625 51.21875 45.40625 46.390625 
L 45.40625 54.6875 
L 54.390625 54.6875 
z
" id="BitstreamVeraSans-Roman-67"/>
      <path d="M 37.109375 75.984375 
L 37.109375 68.5 
L 28.515625 68.5 
Q 23.6875 68.5 21.796875 66.546875 
Q 19.921875 64.59375 19.921875 59.515625 
L 19.921875 54.6875 
L 34.71875 54.6875 
L 34.71875 47.703125 
L 19.921875 47.703125 
L 19.921875 0 
L 10.890625 0 
L 10.890625 47.703125 
L 2.296875 47.703125 
L 2.296875 54.6875 
L 10.890625 54.6875 
L 10.890625 58.5 
Q 10.890625 67.625 15.140625 71.796875 
Q 19.390625 75.984375 28.609375 75.984375 
z
" id="BitstreamVeraSans-Roman-66"/>
      <path d="M 34.28125 27.484375 
Q 23.390625 27.484375 19.1875 25 
Q 14.984375 22.515625 14.984375 16.5 
Q 14.984375 11.71875 18.140625 8.90625 
Q 21.296875 6.109375 26.703125 6.109375 
Q 34.1875 6.109375 38.703125 11.40625 
Q 43.21875 16.703125 43.21875 25.484375 
L 43.21875 27.484375 
z
M 52.203125 31.203125 
L 52.203125 0 
L 43.21875 0 
L 43.21875 8.296875 
Q 40.140625 3.328125 35.546875 0.953125 
Q 30.953125 -1.421875 24.3125 -1.421875 
Q 15.921875 -1.421875 10.953125 3.296875 
Q 6 8.015625 6 15.921875 
Q 6 25.140625 12.171875 29.828125 
Q 18.359375 34.515625 30.609375 34.515625 
L 43.21875 34.515625 
L 43.21875 35.40625 
Q 43.21875 41.609375 39.140625 45 
Q 35.0625 48.390625 27.6875 48.390625 
Q 23 48.390625 18.546875 47.265625 
Q 14.109375 46.140625 10.015625 43.890625 
L 10.015625 52.203125 
Q 14.9375 54.109375 19.578125 55.046875 
Q 24.21875 56 28.609375 56 
Q 40.484375 56 46.34375 49.84375 
Q 52.203125 43.703125 52.203125 31.203125 
" id="BitstreamVeraSans-Roman-61"/>
      <path d="M 44.28125 53.078125 
L 44.28125 44.578125 
Q 40.484375 46.53125 36.375 47.5 
Q 32.28125 48.484375 27.875 48.484375 
Q 21.1875 48.484375 17.84375 46.4375 
Q 14.5 44.390625 14.5 40.28125 
Q 14.5 37.15625 16.890625 35.375 
Q 19.28125 33.59375 26.515625 31.984375 
L 29.59375 31.296875 
Q 39.15625 29.25 43.1875 25.515625 
Q 47.21875 21.78125 47.21875 15.09375 
Q 47.21875 7.46875 41.1875 3.015625 
Q 35.15625 -1.421875 24.609375 -1.421875 
Q 20.21875 -1.421875 15.453125 -0.5625 
Q 10.6875 0.296875 5.421875 2 
L 5.421875 11.28125 
Q 10.40625 8.6875 15.234375 7.390625 
Q 20.0625 6.109375 24.8125 6.109375 
Q 31.15625 6.109375 34.5625 8.28125 
Q 37.984375 10.453125 37.984375 14.40625 
Q 37.984375 18.0625 35.515625 20.015625 
Q 33.0625 21.96875 24.703125 23.78125 
L 21.578125 24.515625 
Q 13.234375 26.265625 9.515625 29.90625 
Q 5.8125 33.546875 5.8125 39.890625 
Q 5.8125 47.609375 11.28125 51.796875 
Q 16.75 56 26.8125 56 
Q 31.78125 56 36.171875 55.265625 
Q 40.578125 54.546875 44.28125 53.078125 
" id="BitstreamVeraSans-Roman-73"/>
      <path d="M 9.8125 72.90625 
L 19.671875 72.90625 
L 19.671875 0 
L 9.8125 0 
z
" id="BitstreamVeraSans-Roman-49"/>
     </defs>
     <g transform="translate(185.4890625 402.609467822)scale(0.2 -0.2)">
      <use xlink:href="#BitstreamVeraSans-Roman-6c"/>
      <use x="27.783203125" xlink:href="#BitstreamVeraSans-Roman-6f"/>
      <use x="88.96484375" xlink:href="#BitstreamVeraSans-Roman-67"/>
      <use x="152.44140625" xlink:href="#BitstreamVeraSans-Roman-31"/>
      <use x="216.064453125" xlink:href="#BitstreamVeraSans-Roman-30"/>
      <use x="279.6875" xlink:href="#BitstreamVeraSans-Roman-20"/>
      <use x="311.474609375" xlink:href="#BitstreamVeraSans-Roman-6f"/>
      <use x="372.65625" xlink:href="#BitstreamVeraSans-Roman-66"/>
      <use x="407.861328125" xlink:href="#BitstreamVeraSans-Roman-20"/>
      <use x="439.6484375" xlink:href="#BitstreamVeraSans-Roman-46"/>
      <use x="497.16796875" xlink:href="#BitstreamVeraSans-Roman-45"/>
      <use x="560.3515625" xlink:href="#BitstreamVeraSans-Roman-76"/>
      <use x="619.53125" xlink:href="#BitstreamVeraSans-Roman-61"/>
      <use x="680.810546875" xlink:href="#BitstreamVeraSans-Roman-6c"/>
      <use x="708.59375" xlink:href="#BitstreamVeraSans-Roman-73"/>
      <use x="760.693359375" xlink:href="#BitstreamVeraSans-Roman-20"/>
      <use x="792.48046875" xlink:href="#BitstreamVeraSans-Roman-2f"/>
      <use x="826.171875" xlink:href="#BitstreamVeraSans-Roman-20"/>
      <use x="857.958984375" xlink:href="#BitstreamVeraSans-Roman-44"/>
      <use x="934.9609375" xlink:href="#BitstreamVeraSans-Roman-49"/>
      <use x="964.453125" xlink:href="#BitstreamVeraSans-Roman-4d"/>
     </g>
    </g>
   </g>
   <g id="matplotlib.axis_2">
    <g id="ytick_1">
     <g id="line2d_82">
      <path clip-path="url(#p00bef74206)" d="M 67.3625 359.056343 
L 513.7625 359.056343 
" style="fill:none;stroke:#000000;stroke-dasharray:1.000000,3.000000;stroke-dashoffset:0.0;stroke-width:0.5;"/>
     </g>
     <g id="line2d_83">
      <defs>
       <path d="M 0 0 
L 4 0 
" id="m105fda1eb6" style="stroke:#000000;stroke-width:0.5;"/>
      </defs>
      <g>
       <use style="stroke:#000000;stroke-width:0.5;" x="67.3625" xlink:href="#m105fda1eb6" y="359.056342822"/>
      </g>
     </g>
     <g id="line2d_84">
      <defs>
       <path d="M 0 0 
L -4 0 
" id="me1cca051ef" style="stroke:#000000;stroke-width:0.5;"/>
      </defs>
      <g>
       <use style="stroke:#000000;stroke-width:0.5;" x="513.7625" xlink:href="#me1cca051ef" y="359.056342822"/>
      </g>
     </g>
     <g id="text_5">
      <!-- 0.0 -->
      <defs>
       <path d="M 10.6875 12.40625 
L 21 12.40625 
L 21 0 
L 10.6875 0 
z
" id="BitstreamVeraSans-Roman-2e"/>
      </defs>
      <g transform="translate(31.55625 364.575092822)scale(0.2 -0.2)">
       <use xlink:href="#BitstreamVeraSans-Roman-30"/>
       <use x="63.623046875" xlink:href="#BitstreamVeraSans-Roman-2e"/>
       <use x="95.41015625" xlink:href="#BitstreamVeraSans-Roman-30"/>
      </g>
     </g>
    </g>
    <g id="ytick_2">
     <g id="line2d_85">
      <path clip-path="url(#p00bef74206)" d="M 67.3625 290.620699 
L 513.7625 290.620699 
" style="fill:none;stroke:#000000;stroke-dasharray:1.000000,3.000000;stroke-dashoffset:0.0;stroke-width:0.5;"/>
     </g>
     <g id="line2d_86">
      <g>
       <use style="stroke:#000000;stroke-width:0.5;" x="67.3625" xlink:href="#m105fda1eb6" y="290.620699257"/>
      </g>
     </g>
     <g id="line2d_87">
      <g>
       <use style="stroke:#000000;stroke-width:0.5;" x="513.7625" xlink:href="#me1cca051ef" y="290.620699257"/>
      </g>
     </g>
     <g id="text_6">
      <!-- 0.2 -->
      <g transform="translate(31.55625 296.139449257)scale(0.2 -0.2)">
       <use xlink:href="#BitstreamVeraSans-Roman-30"/>
       <use x="63.623046875" xlink:href="#BitstreamVeraSans-Roman-2e"/>
       <use x="95.41015625" xlink:href="#BitstreamVeraSans-Roman-32"/>
      </g>
     </g>
    </g>
    <g id="ytick_3">
     <g id="line2d_88">
      <path clip-path="url(#p00bef74206)" d="M 67.3625 222.185056 
L 513.7625 222.185056 
" style="fill:none;stroke:#000000;stroke-dasharray:1.000000,3.000000;stroke-dashoffset:0.0;stroke-width:0.5;"/>
     </g>
     <g id="line2d_89">
      <g>
       <use style="stroke:#000000;stroke-width:0.5;" x="67.3625" xlink:href="#m105fda1eb6" y="222.185055693"/>
      </g>
     </g>
     <g id="line2d_90">
      <g>
       <use style="stroke:#000000;stroke-width:0.5;" x="513.7625" xlink:href="#me1cca051ef" y="222.185055693"/>
      </g>
     </g>
     <g id="text_7">
      <!-- 0.4 -->
      <defs>
       <path d="M 37.796875 64.3125 
L 12.890625 25.390625 
L 37.796875 25.390625 
z
M 35.203125 72.90625 
L 47.609375 72.90625 
L 47.609375 25.390625 
L 58.015625 25.390625 
L 58.015625 17.1875 
L 47.609375 17.1875 
L 47.609375 0 
L 37.796875 0 
L 37.796875 17.1875 
L 4.890625 17.1875 
L 4.890625 26.703125 
z
" id="BitstreamVeraSans-Roman-34"/>
      </defs>
      <g transform="translate(31.55625 227.703805693)scale(0.2 -0.2)">
       <use xlink:href="#BitstreamVeraSans-Roman-30"/>
       <use x="63.623046875" xlink:href="#BitstreamVeraSans-Roman-2e"/>
       <use x="95.41015625" xlink:href="#BitstreamVeraSans-Roman-34"/>
      </g>
     </g>
    </g>
    <g id="ytick_4">
     <g id="line2d_91">
      <path clip-path="url(#p00bef74206)" d="M 67.3625 153.749412 
L 513.7625 153.749412 
" style="fill:none;stroke:#000000;stroke-dasharray:1.000000,3.000000;stroke-dashoffset:0.0;stroke-width:0.5;"/>
     </g>
     <g id="line2d_92">
      <g>
       <use style="stroke:#000000;stroke-width:0.5;" x="67.3625" xlink:href="#m105fda1eb6" y="153.749412129"/>
      </g>
     </g>
     <g id="line2d_93">
      <g>
       <use style="stroke:#000000;stroke-width:0.5;" x="513.7625" xlink:href="#me1cca051ef" y="153.749412129"/>
      </g>
     </g>
     <g id="text_8">
      <!-- 0.6 -->
      <defs>
       <path d="M 33.015625 40.375 
Q 26.375 40.375 22.484375 35.828125 
Q 18.609375 31.296875 18.609375 23.390625 
Q 18.609375 15.53125 22.484375 10.953125 
Q 26.375 6.390625 33.015625 6.390625 
Q 39.65625 6.390625 43.53125 10.953125 
Q 47.40625 15.53125 47.40625 23.390625 
Q 47.40625 31.296875 43.53125 35.828125 
Q 39.65625 40.375 33.015625 40.375 
M 52.59375 71.296875 
L 52.59375 62.3125 
Q 48.875 64.0625 45.09375 64.984375 
Q 41.3125 65.921875 37.59375 65.921875 
Q 27.828125 65.921875 22.671875 59.328125 
Q 17.53125 52.734375 16.796875 39.40625 
Q 19.671875 43.65625 24.015625 45.921875 
Q 28.375 48.1875 33.59375 48.1875 
Q 44.578125 48.1875 50.953125 41.515625 
Q 57.328125 34.859375 57.328125 23.390625 
Q 57.328125 12.15625 50.6875 5.359375 
Q 44.046875 -1.421875 33.015625 -1.421875 
Q 20.359375 -1.421875 13.671875 8.265625 
Q 6.984375 17.96875 6.984375 36.375 
Q 6.984375 53.65625 15.1875 63.9375 
Q 23.390625 74.21875 37.203125 74.21875 
Q 40.921875 74.21875 44.703125 73.484375 
Q 48.484375 72.75 52.59375 71.296875 
" id="BitstreamVeraSans-Roman-36"/>
      </defs>
      <g transform="translate(31.55625 159.268162129)scale(0.2 -0.2)">
       <use xlink:href="#BitstreamVeraSans-Roman-30"/>
       <use x="63.623046875" xlink:href="#BitstreamVeraSans-Roman-2e"/>
       <use x="95.41015625" xlink:href="#BitstreamVeraSans-Roman-36"/>
      </g>
     </g>
    </g>
    <g id="ytick_5">
     <g id="line2d_94">
      <path clip-path="url(#p00bef74206)" d="M 67.3625 85.313769 
L 513.7625 85.313769 
" style="fill:none;stroke:#000000;stroke-dasharray:1.000000,3.000000;stroke-dashoffset:0.0;stroke-width:0.5;"/>
     </g>
     <g id="line2d_95">
      <g>
       <use style="stroke:#000000;stroke-width:0.5;" x="67.3625" xlink:href="#m105fda1eb6" y="85.3137685644"/>
      </g>
     </g>
     <g id="line2d_96">
      <g>
       <use style="stroke:#000000;stroke-width:0.5;" x="513.7625" xlink:href="#me1cca051ef" y="85.3137685644"/>
      </g>
     </g>
     <g id="text_9">
      <!-- 0.8 -->
      <defs>
       <path d="M 31.78125 34.625 
Q 24.75 34.625 20.71875 30.859375 
Q 16.703125 27.09375 16.703125 20.515625 
Q 16.703125 13.921875 20.71875 10.15625 
Q 24.75 6.390625 31.78125 6.390625 
Q 38.8125 6.390625 42.859375 10.171875 
Q 46.921875 13.96875 46.921875 20.515625 
Q 46.921875 27.09375 42.890625 30.859375 
Q 38.875 34.625 31.78125 34.625 
M 21.921875 38.8125 
Q 15.578125 40.375 12.03125 44.71875 
Q 8.5 49.078125 8.5 55.328125 
Q 8.5 64.0625 14.71875 69.140625 
Q 20.953125 74.21875 31.78125 74.21875 
Q 42.671875 74.21875 48.875 69.140625 
Q 55.078125 64.0625 55.078125 55.328125 
Q 55.078125 49.078125 51.53125 44.71875 
Q 48 40.375 41.703125 38.8125 
Q 48.828125 37.15625 52.796875 32.3125 
Q 56.78125 27.484375 56.78125 20.515625 
Q 56.78125 9.90625 50.3125 4.234375 
Q 43.84375 -1.421875 31.78125 -1.421875 
Q 19.734375 -1.421875 13.25 4.234375 
Q 6.78125 9.90625 6.78125 20.515625 
Q 6.78125 27.484375 10.78125 32.3125 
Q 14.796875 37.15625 21.921875 38.8125 
M 18.3125 54.390625 
Q 18.3125 48.734375 21.84375 45.5625 
Q 25.390625 42.390625 31.78125 42.390625 
Q 38.140625 42.390625 41.71875 45.5625 
Q 45.3125 48.734375 45.3125 54.390625 
Q 45.3125 60.0625 41.71875 63.234375 
Q 38.140625 66.40625 31.78125 66.40625 
Q 25.390625 66.40625 21.84375 63.234375 
Q 18.3125 60.0625 18.3125 54.390625 
" id="BitstreamVeraSans-Roman-38"/>
      </defs>
      <g transform="translate(31.55625 90.8325185644)scale(0.2 -0.2)">
       <use xlink:href="#BitstreamVeraSans-Roman-30"/>
       <use x="63.623046875" xlink:href="#BitstreamVeraSans-Roman-2e"/>
       <use x="95.41015625" xlink:href="#BitstreamVeraSans-Roman-38"/>
      </g>
     </g>
    </g>
    <g id="ytick_6">
     <g id="line2d_97">
      <path clip-path="url(#p00bef74206)" d="M 67.3625 16.878125 
L 513.7625 16.878125 
" style="fill:none;stroke:#000000;stroke-dasharray:1.000000,3.000000;stroke-dashoffset:0.0;stroke-width:0.5;"/>
     </g>
     <g id="line2d_98">
      <g>
       <use style="stroke:#000000;stroke-width:0.5;" x="67.3625" xlink:href="#m105fda1eb6" y="16.878125"/>
      </g>
     </g>
     <g id="line2d_99">
      <g>
       <use style="stroke:#000000;stroke-width:0.5;" x="513.7625" xlink:href="#me1cca051ef" y="16.878125"/>
      </g>
     </g>
     <g id="text_10">
      <!-- 1.0 -->
      <g transform="translate(31.55625 22.396875)scale(0.2 -0.2)">
       <use xlink:href="#BitstreamVeraSans-Roman-31"/>
       <use x="63.623046875" xlink:href="#BitstreamVeraSans-Roman-2e"/>
       <use x="95.41015625" xlink:href="#BitstreamVeraSans-Roman-30"/>
      </g>
     </g>
    </g>
    <g id="text_11">
     <!-- proportion of trials -->
     <defs>
      <path d="M 54.890625 33.015625 
L 54.890625 0 
L 45.90625 0 
L 45.90625 32.71875 
Q 45.90625 40.484375 42.875 44.328125 
Q 39.84375 48.1875 33.796875 48.1875 
Q 26.515625 48.1875 22.3125 43.546875 
Q 18.109375 38.921875 18.109375 30.90625 
L 18.109375 0 
L 9.078125 0 
L 9.078125 54.6875 
L 18.109375 54.6875 
L 18.109375 46.1875 
Q 21.34375 51.125 25.703125 53.5625 
Q 30.078125 56 35.796875 56 
Q 45.21875 56 50.046875 50.171875 
Q 54.890625 44.34375 54.890625 33.015625 
" id="BitstreamVeraSans-Roman-6e"/>
      <path d="M 9.421875 54.6875 
L 18.40625 54.6875 
L 18.40625 0 
L 9.421875 0 
z
M 9.421875 75.984375 
L 18.40625 75.984375 
L 18.40625 64.59375 
L 9.421875 64.59375 
z
" id="BitstreamVeraSans-Roman-69"/>
      <path d="M 18.3125 70.21875 
L 18.3125 54.6875 
L 36.8125 54.6875 
L 36.8125 47.703125 
L 18.3125 47.703125 
L 18.3125 18.015625 
Q 18.3125 11.328125 20.140625 9.421875 
Q 21.96875 7.515625 27.59375 7.515625 
L 36.8125 7.515625 
L 36.8125 0 
L 27.59375 0 
Q 17.1875 0 13.234375 3.875 
Q 9.28125 7.765625 9.28125 18.015625 
L 9.28125 47.703125 
L 2.6875 47.703125 
L 2.6875 54.6875 
L 9.28125 54.6875 
L 9.28125 70.21875 
z
" id="BitstreamVeraSans-Roman-74"/>
      <path d="M 41.109375 46.296875 
Q 39.59375 47.171875 37.8125 47.578125 
Q 36.03125 48 33.890625 48 
Q 26.265625 48 22.1875 43.046875 
Q 18.109375 38.09375 18.109375 28.8125 
L 18.109375 0 
L 9.078125 0 
L 9.078125 54.6875 
L 18.109375 54.6875 
L 18.109375 46.1875 
Q 20.953125 51.171875 25.484375 53.578125 
Q 30.03125 56 36.53125 56 
Q 37.453125 56 38.578125 55.875 
Q 39.703125 55.765625 41.0625 55.515625 
z
" id="BitstreamVeraSans-Roman-72"/>
      <path d="M 18.109375 8.203125 
L 18.109375 -20.796875 
L 9.078125 -20.796875 
L 9.078125 54.6875 
L 18.109375 54.6875 
L 18.109375 46.390625 
Q 20.953125 51.265625 25.265625 53.625 
Q 29.59375 56 35.59375 56 
Q 45.5625 56 51.78125 48.09375 
Q 58.015625 40.1875 58.015625 27.296875 
Q 58.015625 14.40625 51.78125 6.484375 
Q 45.5625 -1.421875 35.59375 -1.421875 
Q 29.59375 -1.421875 25.265625 0.953125 
Q 20.953125 3.328125 18.109375 8.203125 
M 48.6875 27.296875 
Q 48.6875 37.203125 44.609375 42.84375 
Q 40.53125 48.484375 33.40625 48.484375 
Q 26.265625 48.484375 22.1875 42.84375 
Q 18.109375 37.203125 18.109375 27.296875 
Q 18.109375 17.390625 22.1875 11.75 
Q 26.265625 6.109375 33.40625 6.109375 
Q 40.53125 6.109375 44.609375 11.75 
Q 48.6875 17.390625 48.6875 27.296875 
" id="BitstreamVeraSans-Roman-70"/>
     </defs>
     <g transform="translate(22.396875 279.484467822)rotate(-90.0)scale(0.2 -0.2)">
      <use xlink:href="#BitstreamVeraSans-Roman-70"/>
      <use x="63.4765625" xlink:href="#BitstreamVeraSans-Roman-72"/>
      <use x="104.55859375" xlink:href="#BitstreamVeraSans-Roman-6f"/>
      <use x="165.740234375" xlink:href="#BitstreamVeraSans-Roman-70"/>
      <use x="229.216796875" xlink:href="#BitstreamVeraSans-Roman-6f"/>
      <use x="290.3984375" xlink:href="#BitstreamVeraSans-Roman-72"/>
      <use x="331.51171875" xlink:href="#BitstreamVeraSans-Roman-74"/>
      <use x="370.720703125" xlink:href="#BitstreamVeraSans-Roman-69"/>
      <use x="398.50390625" xlink:href="#BitstreamVeraSans-Roman-6f"/>
      <use x="459.685546875" xlink:href="#BitstreamVeraSans-Roman-6e"/>
      <use x="523.064453125" xlink:href="#BitstreamVeraSans-Roman-20"/>
      <use x="554.8515625" xlink:href="#BitstreamVeraSans-Roman-6f"/>
      <use x="616.033203125" xlink:href="#BitstreamVeraSans-Roman-66"/>
      <use x="651.23828125" xlink:href="#BitstreamVeraSans-Roman-20"/>
      <use x="683.025390625" xlink:href="#BitstreamVeraSans-Roman-74"/>
      <use x="722.234375" xlink:href="#BitstreamVeraSans-Roman-72"/>
      <use x="763.34765625" xlink:href="#BitstreamVeraSans-Roman-69"/>
      <use x="791.130859375" xlink:href="#BitstreamVeraSans-Roman-61"/>
      <use x="852.41015625" xlink:href="#BitstreamVeraSans-Roman-6c"/>
      <use x="880.193359375" xlink:href="#BitstreamVeraSans-Roman-73"/>
     </g>
    </g>
   </g>
   <g id="text_12">
    <!-- {f1-f5}, 5-D -->
    <defs>
     <path d="M 11.71875 12.40625 
L 22.015625 12.40625 
L 22.015625 4 
L 14.015625 -11.625 
L 7.71875 -11.625 
L 11.71875 4 
z
" id="BitstreamVeraSans-Roman-2c"/>
     <path d="M 12.5 -9.28125 
L 15.921875 -9.28125 
Q 22.75 -9.28125 24.828125 -7.171875 
Q 26.90625 -5.078125 26.90625 1.90625 
L 26.90625 14.015625 
Q 26.90625 21.625 29.09375 25.09375 
Q 31.296875 28.5625 36.71875 29.890625 
Q 31.296875 31.109375 29.09375 34.5625 
Q 26.90625 38.03125 26.90625 45.703125 
L 26.90625 57.8125 
Q 26.90625 64.75 24.828125 66.875 
Q 22.75 69 15.921875 69 
L 12.5 69 
L 12.5 75.984375 
L 15.578125 75.984375 
Q 27.734375 75.984375 31.8125 72.390625 
Q 35.890625 68.796875 35.890625 58.015625 
L 35.890625 46.296875 
Q 35.890625 39.015625 38.515625 36.203125 
Q 41.15625 33.40625 48.09375 33.40625 
L 51.125 33.40625 
L 51.125 26.421875 
L 48.09375 26.421875 
Q 41.15625 26.421875 38.515625 23.578125 
Q 35.890625 20.75 35.890625 13.375 
L 35.890625 1.703125 
Q 35.890625 -9.078125 31.8125 -12.6875 
Q 27.734375 -16.3125 15.578125 -16.3125 
L 12.5 -16.3125 
z
" id="BitstreamVeraSans-Roman-7d"/>
     <path d="M 51.125 -9.28125 
L 51.125 -16.3125 
L 48.09375 -16.3125 
Q 35.9375 -16.3125 31.8125 -12.6875 
Q 27.6875 -9.078125 27.6875 1.703125 
L 27.6875 13.375 
Q 27.6875 20.75 25.046875 23.578125 
Q 22.40625 26.421875 15.484375 26.421875 
L 12.5 26.421875 
L 12.5 33.40625 
L 15.484375 33.40625 
Q 22.46875 33.40625 25.078125 36.203125 
Q 27.6875 39.015625 27.6875 46.296875 
L 27.6875 58.015625 
Q 27.6875 68.796875 31.8125 72.390625 
Q 35.9375 75.984375 48.09375 75.984375 
L 51.125 75.984375 
L 51.125 69 
L 47.796875 69 
Q 40.921875 69 38.8125 66.84375 
Q 36.71875 64.703125 36.71875 57.8125 
L 36.71875 45.703125 
Q 36.71875 38.03125 34.5 34.5625 
Q 32.28125 31.109375 26.90625 29.890625 
Q 32.328125 28.5625 34.515625 25.09375 
Q 36.71875 21.625 36.71875 14.015625 
L 36.71875 1.90625 
Q 36.71875 -4.984375 38.8125 -7.125 
Q 40.921875 -9.28125 47.796875 -9.28125 
z
" id="BitstreamVeraSans-Roman-7b"/>
     <path d="M 4.890625 31.390625 
L 31.203125 31.390625 
L 31.203125 23.390625 
L 4.890625 23.390625 
z
" id="BitstreamVeraSans-Roman-2d"/>
     <path d="M 10.796875 72.90625 
L 49.515625 72.90625 
L 49.515625 64.59375 
L 19.828125 64.59375 
L 19.828125 46.734375 
Q 21.96875 47.46875 24.109375 47.828125 
Q 26.265625 48.1875 28.421875 48.1875 
Q 40.625 48.1875 47.75 41.5 
Q 54.890625 34.8125 54.890625 23.390625 
Q 54.890625 11.625 47.5625 5.09375 
Q 40.234375 -1.421875 26.90625 -1.421875 
Q 22.3125 -1.421875 17.546875 -0.640625 
Q 12.796875 0.140625 7.71875 1.703125 
L 7.71875 11.625 
Q 12.109375 9.234375 16.796875 8.0625 
Q 21.484375 6.890625 26.703125 6.890625 
Q 35.15625 6.890625 40.078125 11.328125 
Q 45.015625 15.765625 45.015625 23.390625 
Q 45.015625 31 40.078125 35.4375 
Q 35.15625 39.890625 26.703125 39.890625 
Q 22.75 39.890625 18.8125 39.015625 
Q 14.890625 38.140625 10.796875 36.28125 
z
" id="BitstreamVeraSans-Roman-35"/>
    </defs>
    <g transform="translate(230.4375 35.5652178218)scale(0.2 -0.2)">
     <use xlink:href="#BitstreamVeraSans-Roman-7b"/>
     <use x="63.623046875" xlink:href="#BitstreamVeraSans-Roman-66"/>
     <use x="98.828125" xlink:href="#BitstreamVeraSans-Roman-31"/>
     <use x="162.451171875" xlink:href="#BitstreamVeraSans-Roman-2d"/>
     <use x="198.53515625" xlink:href="#BitstreamVeraSans-Roman-66"/>
     <use x="233.740234375" xlink:href="#BitstreamVeraSans-Roman-35"/>
     <use x="297.36328125" xlink:href="#BitstreamVeraSans-Roman-7d"/>
     <use x="360.986328125" xlink:href="#BitstreamVeraSans-Roman-2c"/>
     <use x="392.7734375" xlink:href="#BitstreamVeraSans-Roman-20"/>
     <use x="424.560546875" xlink:href="#BitstreamVeraSans-Roman-35"/>
     <use x="488.18359375" xlink:href="#BitstreamVeraSans-Roman-2d"/>
     <use x="524.267578125" xlink:href="#BitstreamVeraSans-Roman-44"/>
    </g>
   </g>
   <g id="text_13">
    <!-- absolute targets -->
    <defs>
     <path d="M 56.203125 29.59375 
L 56.203125 25.203125 
L 14.890625 25.203125 
Q 15.484375 15.921875 20.484375 11.0625 
Q 25.484375 6.203125 34.421875 6.203125 
Q 39.59375 6.203125 44.453125 7.46875 
Q 49.3125 8.734375 54.109375 11.28125 
L 54.109375 2.78125 
Q 49.265625 0.734375 44.1875 -0.34375 
Q 39.109375 -1.421875 33.890625 -1.421875 
Q 20.796875 -1.421875 13.15625 6.1875 
Q 5.515625 13.8125 5.515625 26.8125 
Q 5.515625 40.234375 12.765625 48.109375 
Q 20.015625 56 32.328125 56 
Q 43.359375 56 49.78125 48.890625 
Q 56.203125 41.796875 56.203125 29.59375 
M 47.21875 32.234375 
Q 47.125 39.59375 43.09375 43.984375 
Q 39.0625 48.390625 32.421875 48.390625 
Q 24.90625 48.390625 20.390625 44.140625 
Q 15.875 39.890625 15.1875 32.171875 
z
" id="BitstreamVeraSans-Roman-65"/>
     <path d="M 8.5 21.578125 
L 8.5 54.6875 
L 17.484375 54.6875 
L 17.484375 21.921875 
Q 17.484375 14.15625 20.5 10.265625 
Q 23.53125 6.390625 29.59375 6.390625 
Q 36.859375 6.390625 41.078125 11.03125 
Q 45.3125 15.671875 45.3125 23.6875 
L 45.3125 54.6875 
L 54.296875 54.6875 
L 54.296875 0 
L 45.3125 0 
L 45.3125 8.40625 
Q 42.046875 3.421875 37.71875 1 
Q 33.40625 -1.421875 27.6875 -1.421875 
Q 18.265625 -1.421875 13.375 4.4375 
Q 8.5 10.296875 8.5 21.578125 
" id="BitstreamVeraSans-Roman-75"/>
     <path d="M 48.6875 27.296875 
Q 48.6875 37.203125 44.609375 42.84375 
Q 40.53125 48.484375 33.40625 48.484375 
Q 26.265625 48.484375 22.1875 42.84375 
Q 18.109375 37.203125 18.109375 27.296875 
Q 18.109375 17.390625 22.1875 11.75 
Q 26.265625 6.109375 33.40625 6.109375 
Q 40.53125 6.109375 44.609375 11.75 
Q 48.6875 17.390625 48.6875 27.296875 
M 18.109375 46.390625 
Q 20.953125 51.265625 25.265625 53.625 
Q 29.59375 56 35.59375 56 
Q 45.5625 56 51.78125 48.09375 
Q 58.015625 40.1875 58.015625 27.296875 
Q 58.015625 14.40625 51.78125 6.484375 
Q 45.5625 -1.421875 35.59375 -1.421875 
Q 29.59375 -1.421875 25.265625 0.953125 
Q 20.953125 3.328125 18.109375 8.203125 
L 18.109375 0 
L 9.078125 0 
L 9.078125 75.984375 
L 18.109375 75.984375 
z
" id="BitstreamVeraSans-Roman-62"/>
    </defs>
    <g transform="translate(67.3625 359.056342822)scale(0.14 -0.14)">
     <use xlink:href="#BitstreamVeraSans-Roman-61"/>
     <use x="61.279296875" xlink:href="#BitstreamVeraSans-Roman-62"/>
     <use x="124.755859375" xlink:href="#BitstreamVeraSans-Roman-73"/>
     <use x="176.85546875" xlink:href="#BitstreamVeraSans-Roman-6f"/>
     <use x="238.037109375" xlink:href="#BitstreamVeraSans-Roman-6c"/>
     <use x="265.8203125" xlink:href="#BitstreamVeraSans-Roman-75"/>
     <use x="329.19921875" xlink:href="#BitstreamVeraSans-Roman-74"/>
     <use x="368.408203125" xlink:href="#BitstreamVeraSans-Roman-65"/>
     <use x="429.931640625" xlink:href="#BitstreamVeraSans-Roman-20"/>
     <use x="461.71875" xlink:href="#BitstreamVeraSans-Roman-74"/>
     <use x="500.927734375" xlink:href="#BitstreamVeraSans-Roman-61"/>
     <use x="562.20703125" xlink:href="#BitstreamVeraSans-Roman-72"/>
     <use x="603.3046875" xlink:href="#BitstreamVeraSans-Roman-67"/>
     <use x="666.78125" xlink:href="#BitstreamVeraSans-Roman-65"/>
     <use x="728.3046875" xlink:href="#BitstreamVeraSans-Roman-74"/>
     <use x="767.513671875" xlink:href="#BitstreamVeraSans-Roman-73"/>
    </g>
   </g>
   <g id="text_14">
    <!-- 1.2.1.2 -->
    <g style="fill:#808080;" transform="translate(273.0703125 353.520655322)scale(0.1 -0.1)">
     <use xlink:href="#BitstreamVeraSans-Roman-31"/>
     <use x="63.623046875" xlink:href="#BitstreamVeraSans-Roman-2e"/>
     <use x="95.41015625" xlink:href="#BitstreamVeraSans-Roman-32"/>
     <use x="159.033203125" xlink:href="#BitstreamVeraSans-Roman-2e"/>
     <use x="190.8203125" xlink:href="#BitstreamVeraSans-Roman-31"/>
     <use x="254.443359375" xlink:href="#BitstreamVeraSans-Roman-2e"/>
     <use x="286.23046875" xlink:href="#BitstreamVeraSans-Roman-32"/>
    </g>
   </g>
   <g id="legend_1">
    <g id="patch_7">
     <path d="M 366.540625 146.881343 
L 503.7625 146.881343 
L 503.7625 23.456343 
L 366.540625 23.456343 
z
" style="fill:#ffffff;opacity:0.2;stroke:#000000;stroke-linejoin:miter;"/>
    </g>
    <g id="line2d_100">
     <path d="M 380.540625 39.653218 
L 408.540625 39.653218 
" style="fill:none;stroke:#000000;stroke-linecap:square;"/>
    </g>
    <g id="line2d_101"/>
    <g id="text_15">
     <!-- 1: 1/5 -->
     <defs>
      <path d="M 11.71875 12.40625 
L 22.015625 12.40625 
L 22.015625 0 
L 11.71875 0 
z
M 11.71875 51.703125 
L 22.015625 51.703125 
L 22.015625 39.3125 
L 11.71875 39.3125 
z
" id="BitstreamVeraSans-Roman-3a"/>
     </defs>
     <g transform="translate(430.540625 46.6532178218)scale(0.2 -0.2)">
      <use xlink:href="#BitstreamVeraSans-Roman-31"/>
      <use x="63.623046875" xlink:href="#BitstreamVeraSans-Roman-3a"/>
      <use x="97.314453125" xlink:href="#BitstreamVeraSans-Roman-20"/>
      <use x="129.1015625" xlink:href="#BitstreamVeraSans-Roman-31"/>
      <use x="192.724609375" xlink:href="#BitstreamVeraSans-Roman-2f"/>
      <use x="226.416015625" xlink:href="#BitstreamVeraSans-Roman-35"/>
     </g>
    </g>
    <g id="line2d_102">
     <path d="M 380.540625 69.009468 
L 408.540625 69.009468 
" style="fill:none;stroke:#00bfbf;stroke-linecap:square;"/>
    </g>
    <g id="line2d_103"/>
    <g id="text_16">
     <!-- -1: 0/5 -->
     <g transform="translate(430.540625 76.0094678218)scale(0.2 -0.2)">
      <use xlink:href="#BitstreamVeraSans-Roman-2d"/>
      <use x="36.083984375" xlink:href="#BitstreamVeraSans-Roman-31"/>
      <use x="99.70703125" xlink:href="#BitstreamVeraSans-Roman-3a"/>
      <use x="133.3984375" xlink:href="#BitstreamVeraSans-Roman-20"/>
      <use x="165.185546875" xlink:href="#BitstreamVeraSans-Roman-30"/>
      <use x="228.80859375" xlink:href="#BitstreamVeraSans-Roman-2f"/>
      <use x="262.5" xlink:href="#BitstreamVeraSans-Roman-35"/>
     </g>
    </g>
    <g id="line2d_104">
     <path d="M 380.540625 98.365718 
L 408.540625 98.365718 
" style="fill:none;stroke:#bf00bf;stroke-linecap:square;"/>
    </g>
    <g id="line2d_105"/>
    <g id="text_17">
     <!-- -4: 0/5 -->
     <g transform="translate(430.540625 105.365717822)scale(0.2 -0.2)">
      <use xlink:href="#BitstreamVeraSans-Roman-2d"/>
      <use x="36.083984375" xlink:href="#BitstreamVeraSans-Roman-34"/>
      <use x="99.70703125" xlink:href="#BitstreamVeraSans-Roman-3a"/>
      <use x="133.3984375" xlink:href="#BitstreamVeraSans-Roman-20"/>
      <use x="165.185546875" xlink:href="#BitstreamVeraSans-Roman-30"/>
      <use x="228.80859375" xlink:href="#BitstreamVeraSans-Roman-2f"/>
      <use x="262.5" xlink:href="#BitstreamVeraSans-Roman-35"/>
     </g>
    </g>
    <g id="line2d_106">
     <path d="M 380.540625 127.721968 
L 408.540625 127.721968 
" style="fill:none;stroke:#ff0000;stroke-linecap:square;stroke-width:3.0;"/>
    </g>
    <g id="line2d_107"/>
    <g id="text_18">
     <!-- -8: 0/5 -->
     <g transform="translate(430.540625 134.721967822)scale(0.2 -0.2)">
      <use xlink:href="#BitstreamVeraSans-Roman-2d"/>
      <use x="36.083984375" xlink:href="#BitstreamVeraSans-Roman-38"/>
      <use x="99.70703125" xlink:href="#BitstreamVeraSans-Roman-3a"/>
      <use x="133.3984375" xlink:href="#BitstreamVeraSans-Roman-20"/>
      <use x="165.185546875" xlink:href="#BitstreamVeraSans-Roman-30"/>
      <use x="228.80859375" xlink:href="#BitstreamVeraSans-Roman-2f"/>
      <use x="262.5" xlink:href="#BitstreamVeraSans-Roman-35"/>
     </g>
    </g>
   </g>
  </g>
 </g>
 <defs>
  <clipPath id="p00bef74206">
   <rect height="345.6" width="446.4" x="67.3625" y="13.4563428218"/>
  </clipPath>
 </defs>
</svg>
